<?xml version="1.0" encoding="UTF-8"?>
<svg xmlns="http://www.w3.org/2000/svg" xmlns:xlink="http://www.w3.org/1999/xlink" width="56" height="56" viewBox="0 0 56 56">
<defs>
<filter id="filter-remove-color" x="0%" y="0%" width="100%" height="100%">
<feColorMatrix color-interpolation-filters="sRGB" values="0 0 0 0 1 0 0 0 0 1 0 0 0 0 1 0 0 0 1 0" />
</filter>
<clipPath id="clip-0">
<rect x="0" y="0" width="56" height="56"/>
</clipPath>
<g id="source-13" clip-path="url(#clip-0)">
<path fill-rule="nonzero" fill="rgb(0%, 0%, 0%)" fill-opacity="1" d="M 0 28 C 0 12.535156 12.535156 0 28 0 C 43.464844 0 56 12.535156 56 28 C 56 43.464844 43.464844 56 28 56 C 12.535156 56 0 43.464844 0 28 Z M 0 28 "/>
</g>
<mask id="mask-0">
<g filter="url(#filter-remove-color)">
<use xlink:href="#source-13"/>
</g>
</mask>
<clipPath id="clip-1">
<rect x="0" y="0" width="56" height="56"/>
</clipPath>
<g id="source-9" clip-path="url(#clip-1)">
<path fill-rule="nonzero" fill="rgb(0%, 0%, 0%)" fill-opacity="1" d="M 9 11 L 40 11 L 40 45 L 9 45 Z M 9 11 "/>
</g>
<mask id="mask-1">
<g filter="url(#filter-remove-color)">
<use xlink:href="#source-9"/>
</g>
</mask>
<clipPath id="clip-2">
<rect x="0" y="0" width="56" height="56"/>
</clipPath>
<g id="source-8" clip-path="url(#clip-2)">
<path fill-rule="nonzero" fill="rgb(95.298767%, 78.399658%, 70.199585%)" fill-opacity="1" d="M 20.140625 18.363281 C 21.191406 16.59375 24.78125 17.804688 25.839844 21.507812 C 26.898438 25.207031 27.472656 27.742188 27.472656 27.742188 C 28.59375 27.425781 35.699219 26.042969 36.5 26.136719 C 37.296875 26.226562 39.5 26.5 39.996094 28.667969 C 39.996094 31.132812 39.496094 31.476562 38.992188 31.484375 C 40 32 40.394531 34.539062 39.046875 35.492188 C 39.390625 37.371094 39.046875 38.898438 38.246094 39.039062 C 38.945312 40.425781 39.496094 42.691406 35.597656 43.660156 C 31.695312 44.628906 30.746094 44.585938 30.496094 43.523438 C 28.152344 43.890625 21.3125 43.75 20.660156 43.75 C 20.003906 43.75 16.382812 30.640625 16.382812 30.640625 C 16.382812 30.640625 20.808594 28.171875 21.234375 26.691406 C 21.65625 25.214844 20.507812 20.265625 20.457031 19.753906 C 20.40625 19.246094 20.011719 18.566406 20.128906 18.367188 Z M 20.140625 18.363281 "/>
<path fill-rule="nonzero" fill="rgb(39.607239%, 21.960449%, 14.509583%)" fill-opacity="1" d="M 16.742188 30.195312 C 16.585938 30.289062 16.539062 30.492188 16.632812 30.648438 C 16.730469 30.800781 16.933594 30.851562 17.089844 30.753906 Z M 21.023438 19.664062 C 20.976562 19.488281 20.796875 19.386719 20.621094 19.429688 C 20.445312 19.476562 20.339844 19.660156 20.386719 19.835938 Z M 16.914062 30.472656 C 17.089844 30.753906 17.089844 30.753906 17.089844 30.753906 C 17.09375 30.75 17.09375 30.75 17.097656 30.746094 C 17.105469 30.742188 17.113281 30.738281 17.128906 30.730469 C 17.152344 30.714844 17.191406 30.691406 17.238281 30.660156 C 17.332031 30.597656 17.46875 30.511719 17.636719 30.402344 C 17.972656 30.183594 18.429688 29.878906 18.917969 29.53125 C 19.882812 28.851562 21.019531 27.972656 21.554688 27.273438 L 21.035156 26.871094 C 20.566406 27.480469 19.511719 28.304688 18.535156 28.992188 C 18.054688 29.335938 17.605469 29.632812 17.277344 29.851562 C 17.113281 29.957031 16.976562 30.042969 16.882812 30.101562 C 16.835938 30.132812 16.800781 30.15625 16.777344 30.171875 C 16.765625 30.179688 16.753906 30.183594 16.75 30.1875 C 16.746094 30.191406 16.742188 30.191406 16.742188 30.191406 C 16.742188 30.191406 16.742188 30.191406 16.742188 30.195312 C 16.742188 30.195312 16.742188 30.195312 16.914062 30.472656 Z M 21.554688 27.273438 C 21.730469 27.050781 21.828125 26.753906 21.882812 26.441406 C 21.941406 26.125 21.960938 25.757812 21.957031 25.375 C 21.949219 24.601562 21.839844 23.707031 21.703125 22.867188 C 21.566406 22.027344 21.394531 21.226562 21.261719 20.636719 C 21.191406 20.34375 21.132812 20.101562 21.089844 19.929688 C 21.070312 19.847656 21.054688 19.78125 21.042969 19.734375 C 21.035156 19.714844 21.03125 19.695312 21.027344 19.683594 C 21.027344 19.679688 21.027344 19.671875 21.023438 19.671875 C 21.023438 19.667969 21.023438 19.667969 21.023438 19.667969 C 21.023438 19.667969 21.023438 19.664062 21.023438 19.664062 C 21.023438 19.664062 21.023438 19.664062 20.703125 19.75 C 20.386719 19.835938 20.386719 19.835938 20.386719 19.835938 C 20.386719 19.835938 20.386719 19.835938 20.386719 19.839844 C 20.386719 19.839844 20.390625 19.847656 20.390625 19.851562 C 20.394531 19.863281 20.398438 19.878906 20.402344 19.902344 C 20.414062 19.945312 20.429688 20.007812 20.453125 20.089844 C 20.492188 20.257812 20.550781 20.496094 20.617188 20.785156 C 20.75 21.363281 20.917969 22.148438 21.050781 22.976562 C 21.1875 23.800781 21.289062 24.65625 21.296875 25.378906 C 21.300781 25.742188 21.28125 26.0625 21.234375 26.324219 C 21.1875 26.589844 21.113281 26.769531 21.035156 26.871094 Z M 21.554688 27.273438 "/>
<path fill-rule="nonzero" fill="rgb(39.607239%, 21.960449%, 14.509583%)" fill-opacity="1" d="M 35.546875 36.792969 C 35.710938 36.769531 35.820312 36.613281 35.792969 36.453125 C 35.769531 36.289062 35.613281 36.179688 35.453125 36.207031 Z M 30.289062 34.132812 L 30.0625 33.933594 Z M 35.550781 33.09375 C 35.714844 33.066406 35.824219 32.910156 35.792969 32.75 C 35.765625 32.585938 35.609375 32.476562 35.449219 32.507812 Z M 35.453125 36.207031 C 34.207031 36.40625 33.371094 36.636719 32.785156 36.753906 C 32.195312 36.871094 31.816406 36.882812 31.347656 36.707031 L 31.136719 37.265625 C 31.753906 37.496094 32.257812 37.46875 32.902344 37.339844 C 33.554688 37.210938 34.304688 36.996094 35.546875 36.792969 Z M 31.347656 36.707031 C 30.914062 36.546875 30.5625 36.105469 30.398438 35.59375 C 30.230469 35.074219 30.285156 34.589844 30.511719 34.328125 L 30.0625 33.933594 C 29.636719 34.421875 29.628906 35.160156 29.828125 35.777344 C 30.03125 36.40625 30.484375 37.019531 31.136719 37.265625 Z M 30.511719 34.328125 C 30.507812 34.335938 30.515625 34.324219 30.566406 34.296875 C 30.609375 34.273438 30.667969 34.242188 30.75 34.210938 C 30.90625 34.148438 31.117188 34.078125 31.367188 34.003906 C 31.867188 33.859375 32.496094 33.710938 33.117188 33.574219 C 33.738281 33.4375 34.347656 33.320312 34.800781 33.234375 C 35.027344 33.191406 35.214844 33.15625 35.347656 33.132812 C 35.414062 33.117188 35.464844 33.109375 35.5 33.105469 C 35.515625 33.101562 35.53125 33.097656 35.539062 33.097656 C 35.542969 33.09375 35.546875 33.09375 35.546875 33.09375 C 35.550781 33.09375 35.550781 33.09375 35.550781 33.09375 C 35.550781 33.09375 35.550781 33.09375 35.5 32.800781 C 35.449219 32.507812 35.449219 32.507812 35.449219 32.507812 C 35.449219 32.507812 35.449219 32.507812 35.445312 32.507812 C 35.441406 32.507812 35.4375 32.507812 35.433594 32.507812 C 35.425781 32.511719 35.410156 32.511719 35.394531 32.515625 C 35.359375 32.523438 35.304688 32.53125 35.238281 32.542969 C 35.109375 32.566406 34.917969 32.601562 34.691406 32.644531 C 34.234375 32.734375 33.621094 32.855469 32.992188 32.992188 C 32.363281 33.128906 31.71875 33.28125 31.199219 33.429688 C 30.941406 33.507812 30.710938 33.582031 30.523438 33.65625 C 30.429688 33.695312 30.34375 33.734375 30.269531 33.777344 C 30.203125 33.816406 30.125 33.867188 30.0625 33.933594 Z M 30.511719 34.328125 "/>
<path fill-rule="nonzero" fill="rgb(39.607239%, 21.960449%, 14.509583%)" fill-opacity="1" d="M 35.542969 33.09375 C 35.707031 33.070312 35.820312 32.917969 35.796875 32.753906 C 35.769531 32.59375 35.617188 32.480469 35.457031 32.503906 Z M 30.289062 30.457031 L 30.0625 30.261719 Z M 35.953125 29.292969 C 36.113281 29.261719 36.21875 29.105469 36.191406 28.945312 C 36.160156 28.78125 36.003906 28.675781 35.839844 28.707031 Z M 35.457031 32.503906 C 34.449219 32.65625 33.617188 32.894531 32.96875 33.03125 C 32.300781 33.167969 31.808594 33.207031 31.347656 33.035156 L 31.136719 33.59375 C 31.765625 33.828125 32.402344 33.757812 33.089844 33.613281 C 33.796875 33.464844 34.550781 33.242188 35.542969 33.09375 Z M 31.347656 33.035156 C 30.914062 32.871094 30.5625 32.433594 30.394531 31.921875 C 30.226562 31.402344 30.285156 30.917969 30.511719 30.65625 L 30.0625 30.261719 C 29.636719 30.746094 29.628906 31.484375 29.828125 32.105469 C 30.03125 32.730469 30.480469 33.347656 31.136719 33.59375 Z M 30.511719 30.65625 C 30.503906 30.664062 30.515625 30.652344 30.566406 30.625 C 30.613281 30.597656 30.679688 30.566406 30.765625 30.53125 C 30.933594 30.464844 31.160156 30.390625 31.429688 30.3125 C 31.964844 30.152344 32.648438 29.988281 33.320312 29.835938 C 33.992188 29.6875 34.648438 29.550781 35.140625 29.453125 C 35.382812 29.402344 35.589844 29.363281 35.730469 29.335938 C 35.800781 29.320312 35.855469 29.3125 35.894531 29.304688 C 35.914062 29.300781 35.925781 29.296875 35.9375 29.296875 C 35.941406 29.296875 35.945312 29.292969 35.949219 29.292969 C 35.949219 29.292969 35.953125 29.292969 35.953125 29.292969 C 35.953125 29.292969 35.953125 29.292969 35.898438 29 C 35.839844 28.707031 35.839844 28.707031 35.839844 28.707031 C 35.839844 28.707031 35.839844 28.707031 35.835938 28.707031 C 35.835938 28.707031 35.832031 28.707031 35.828125 28.710938 C 35.816406 28.710938 35.800781 28.714844 35.78125 28.71875 C 35.746094 28.726562 35.6875 28.734375 35.617188 28.75 C 35.472656 28.777344 35.269531 28.816406 35.023438 28.867188 C 34.527344 28.964844 33.867188 29.101562 33.1875 29.253906 C 32.511719 29.40625 31.816406 29.574219 31.261719 29.738281 C 30.984375 29.820312 30.738281 29.898438 30.542969 29.976562 C 30.445312 30.019531 30.355469 30.058594 30.277344 30.101562 C 30.207031 30.140625 30.125 30.191406 30.0625 30.261719 Z M 30.511719 30.65625 "/>
<path fill-rule="nonzero" fill="rgb(39.607239%, 21.960449%, 14.509583%)" fill-opacity="1" d="M 35.957031 40.292969 C 36.117188 40.257812 36.222656 40.101562 36.1875 39.9375 C 36.15625 39.777344 35.996094 39.675781 35.835938 39.707031 Z M 30.289062 37.863281 L 30.0625 37.667969 Z M 35.953125 36.699219 C 36.113281 36.667969 36.21875 36.511719 36.191406 36.351562 C 36.160156 36.1875 36.003906 36.082031 35.839844 36.113281 Z M 35.835938 39.707031 C 35.230469 39.835938 34.699219 39.96875 34.234375 40.089844 C 33.765625 40.214844 33.367188 40.324219 33.011719 40.410156 C 32.292969 40.574219 31.800781 40.609375 31.347656 40.4375 L 31.136719 40.996094 C 31.765625 41.234375 32.402344 41.160156 33.144531 40.992188 C 33.515625 40.90625 33.929688 40.789062 34.386719 40.667969 C 34.847656 40.546875 35.367188 40.414062 35.957031 40.292969 Z M 31.347656 40.4375 C 30.914062 40.277344 30.5625 39.839844 30.398438 39.328125 C 30.230469 38.804688 30.285156 38.320312 30.511719 38.0625 L 30.0625 37.667969 C 29.636719 38.152344 29.628906 38.890625 29.828125 39.511719 C 30.03125 40.136719 30.484375 40.753906 31.136719 40.996094 Z M 30.511719 38.0625 C 30.503906 38.070312 30.515625 38.058594 30.566406 38.027344 C 30.613281 38.003906 30.679688 37.972656 30.765625 37.9375 C 30.933594 37.871094 31.160156 37.792969 31.429688 37.714844 C 31.964844 37.558594 32.648438 37.394531 33.320312 37.242188 C 33.992188 37.089844 34.648438 36.957031 35.140625 36.855469 C 35.382812 36.808594 35.589844 36.769531 35.730469 36.742188 C 35.800781 36.726562 35.855469 36.714844 35.894531 36.710938 C 35.914062 36.707031 35.925781 36.703125 35.9375 36.703125 C 35.941406 36.699219 35.945312 36.699219 35.949219 36.699219 C 35.949219 36.699219 35.953125 36.699219 35.953125 36.699219 C 35.953125 36.699219 35.953125 36.699219 35.898438 36.40625 C 35.839844 36.113281 35.839844 36.113281 35.839844 36.113281 C 35.839844 36.113281 35.839844 36.113281 35.835938 36.113281 C 35.835938 36.113281 35.832031 36.113281 35.828125 36.113281 C 35.816406 36.117188 35.800781 36.117188 35.78125 36.121094 C 35.746094 36.128906 35.6875 36.140625 35.617188 36.15625 C 35.472656 36.183594 35.269531 36.222656 35.023438 36.269531 C 34.527344 36.371094 33.867188 36.507812 33.1875 36.660156 C 32.511719 36.8125 31.816406 36.980469 31.261719 37.144531 C 30.984375 37.222656 30.738281 37.304688 30.542969 37.382812 C 30.445312 37.421875 30.355469 37.464844 30.277344 37.503906 C 30.207031 37.542969 30.125 37.597656 30.0625 37.667969 Z M 30.511719 38.0625 "/>
<path fill-rule="nonzero" fill="rgb(39.607239%, 21.960449%, 14.509583%)" fill-opacity="1" d="M 31.136719 44.578125 C 31.292969 44.636719 31.464844 44.558594 31.519531 44.40625 C 31.578125 44.25 31.5 44.078125 31.347656 44.019531 Z M 30.289062 41.445312 L 30.0625 41.25 Z M 35.953125 40.28125 C 36.113281 40.25 36.21875 40.09375 36.191406 39.933594 C 36.160156 39.769531 36.003906 39.664062 35.839844 39.695312 Z M 31.347656 44.019531 C 30.914062 43.859375 30.5625 43.421875 30.398438 42.910156 C 30.230469 42.386719 30.285156 41.902344 30.511719 41.644531 L 30.0625 41.25 C 29.636719 41.734375 29.628906 42.472656 29.828125 43.09375 C 30.03125 43.71875 30.484375 44.335938 31.136719 44.578125 Z M 30.511719 41.644531 C 30.503906 41.652344 30.515625 41.640625 30.566406 41.609375 C 30.613281 41.585938 30.679688 41.554688 30.765625 41.519531 C 30.933594 41.453125 31.160156 41.375 31.429688 41.296875 C 31.964844 41.140625 32.648438 40.976562 33.320312 40.824219 C 33.992188 40.671875 34.648438 40.539062 35.140625 40.4375 C 35.382812 40.390625 35.589844 40.351562 35.730469 40.324219 C 35.800781 40.308594 35.855469 40.296875 35.894531 40.292969 C 35.914062 40.289062 35.925781 40.285156 35.9375 40.285156 C 35.941406 40.28125 35.945312 40.28125 35.949219 40.28125 C 35.949219 40.28125 35.953125 40.28125 35.953125 40.28125 C 35.953125 40.28125 35.953125 40.28125 35.898438 39.988281 C 35.839844 39.695312 35.839844 39.695312 35.839844 39.695312 C 35.839844 39.695312 35.839844 39.695312 35.835938 39.695312 C 35.835938 39.695312 35.832031 39.695312 35.828125 39.695312 C 35.816406 39.699219 35.800781 39.699219 35.78125 39.703125 C 35.746094 39.710938 35.6875 39.722656 35.617188 39.738281 C 35.472656 39.765625 35.269531 39.804688 35.023438 39.851562 C 34.527344 39.953125 33.867188 40.089844 33.1875 40.242188 C 32.511719 40.394531 31.816406 40.5625 31.261719 40.726562 C 30.984375 40.804688 30.738281 40.886719 30.542969 40.964844 C 30.445312 41.003906 30.355469 41.046875 30.277344 41.085938 C 30.207031 41.125 30.125 41.179688 30.0625 41.25 Z M 30.511719 41.644531 "/>
<path fill-rule="nonzero" fill="rgb(95.298767%, 78.399658%, 70.199585%)" fill-opacity="1" d="M 16.121094 43.753906 C 17.378906 43.753906 20.664062 43.75 20.664062 43.75 L 16.390625 30.640625 C 16.390625 30.640625 10.640625 30.769531 9.835938 32.113281 C 8.195312 34.871094 12.4375 44.429688 13.609375 44.167969 C 14.414062 43.992188 15.796875 43.914062 16.121094 43.753906 Z M 16.121094 43.753906 "/>
<path fill-rule="evenodd" fill="rgb(96.099854%, 37.298584%, 14.099121%)" fill-opacity="1" d="M 38.128906 15.277344 C 38.128906 15.277344 37.011719 12.777344 34.171875 13.886719 C 32.726562 11.269531 30.214844 12.496094 30.214844 12.496094 C 30.214844 12.496094 27.652344 13.613281 28.078125 16.96875 C 28.34375 19.085938 29.492188 20.527344 30.304688 21.304688 C 30.820312 21.796875 31.523438 22.042969 32.246094 21.984375 C 33.382812 21.894531 35.214844 21.5 36.816406 20.042969 C 39.359375 17.726562 38.128906 15.277344 38.128906 15.277344 "/>
<path fill-rule="nonzero" fill="rgb(100%, 100%, 100%)" fill-opacity="1" d="M 35.765625 15.234375 C 35.914062 15.382812 36.148438 15.660156 36.339844 15.992188 C 36.535156 16.328125 36.671875 16.683594 36.671875 17 L 37.328125 17 C 37.328125 16.515625 37.132812 16.039062 36.910156 15.660156 C 36.6875 15.273438 36.417969 14.953125 36.234375 14.765625 Z M 35.765625 15.234375 "/>
</g>
<clipPath id="clip-3">
<path clip-rule="nonzero" d="M 0 29 L 17 29 L 17 48 L 0 48 Z M 0 29 "/>
</clipPath>
<clipPath id="clip-4">
<rect x="0" y="0" width="56" height="56"/>
</clipPath>
<g id="source-12" clip-path="url(#clip-4)">
<g mask="url(#mask-1)">
<use xlink:href="#source-8"/>
</g>
<g clip-path="url(#clip-3)">
<path fill-rule="nonzero" fill="rgb(96.099854%, 37.298584%, 14.099121%)" fill-opacity="1" d="M 15.8125 30.425781 L -7.019531 29.589844 L -2.792969 47.148438 C 3.410156 46.476562 16.058594 44.828125 16.496094 44.738281 C 17.703125 44.492188 16.207031 35.207031 16.105469 30.71875 C 16.101562 30.558594 15.972656 30.429688 15.8125 30.425781 Z M 15.8125 30.425781 "/>
</g>
</g>
</defs>
<g mask="url(#mask-0)">
<use xlink:href="#source-12"/>
</g>
</svg>
