<?xml version="1.0" encoding="UTF-8"?>
<svg xmlns="http://www.w3.org/2000/svg" xmlns:xlink="http://www.w3.org/1999/xlink" width="22" height="22" viewBox="0 0 22 22">
<defs>
<clipPath id="clip-0">
<path clip-rule="nonzero" d="M 1 1 L 21 1 L 21 21 L 1 21 Z M 1 1 "/>
</clipPath>
<clipPath id="clip-1">
<path clip-rule="evenodd" d="M 14.851562 1.101562 C 15.707031 1.101562 16.410156 1.75 16.492188 2.585938 L 16.503906 2.742188 L 16.507812 4.398438 L 19.800781 4.398438 C 20.40625 4.398438 20.898438 4.890625 20.898438 5.5 C 20.898438 6.0625 20.476562 6.527344 19.929688 6.59375 L 19.800781 6.601562 L 19.71875 6.597656 L 18.957031 16.835938 C 18.792969 19.058594 16.992188 20.792969 14.789062 20.902344 L 14.570312 20.910156 L 7.445312 20.910156 C 5.21875 20.910156 3.355469 19.246094 3.082031 17.058594 L 3.058594 16.835938 L 2.289062 6.597656 L 2.199219 6.601562 C 1.59375 6.601562 1.101562 6.109375 1.101562 5.5 C 1.101562 4.9375 1.523438 4.472656 2.070312 4.40625 L 2.199219 4.398438 L 5.496094 4.398438 L 5.496094 2.75 C 5.496094 1.890625 6.148438 1.1875 6.988281 1.109375 L 7.144531 1.101562 Z M 6.578125 6.597656 L 4.496094 6.597656 L 5.253906 16.671875 C 5.335938 17.761719 6.203125 18.617188 7.277344 18.703125 L 7.445312 18.707031 L 14.570312 18.707031 C 15.664062 18.707031 16.582031 17.90625 16.742188 16.839844 L 16.761719 16.671875 L 17.511719 6.597656 L 15.550781 6.601562 C 15.507812 6.605469 15.460938 6.609375 15.417969 6.609375 C 15.371094 6.609375 15.324219 6.605469 15.28125 6.601562 L 6.609375 6.597656 L 6.597656 6.601562 Z M 11 8.800781 C 11.5625 8.800781 12.027344 9.222656 12.09375 9.769531 L 12.101562 9.898438 L 12.105469 15.398438 C 12.105469 16.007812 11.613281 16.5 11.003906 16.5 C 10.441406 16.5 9.976562 16.078125 9.914062 15.527344 L 9.90625 15.402344 L 9.898438 9.902344 C 9.898438 9.292969 10.390625 8.800781 11 8.800781 Z M 14.300781 8.800781 C 14.863281 8.800781 15.328125 9.222656 15.390625 9.769531 L 15.398438 9.898438 L 15.40625 15.398438 C 15.40625 16.007812 14.914062 16.5 14.304688 16.5 C 13.742188 16.5 13.277344 16.078125 13.210938 15.527344 L 13.203125 15.402344 L 13.199219 9.902344 C 13.199219 9.292969 13.691406 8.800781 14.300781 8.800781 Z M 7.699219 8.800781 C 8.261719 8.800781 8.726562 9.222656 8.792969 9.769531 L 8.800781 9.898438 L 8.804688 15.398438 C 8.804688 16.007812 8.3125 16.5 7.707031 16.5 C 7.140625 16.5 6.675781 16.078125 6.613281 15.527344 L 6.605469 15.402344 L 6.601562 9.902344 C 6.597656 9.292969 7.089844 8.800781 7.699219 8.800781 Z M 14.304688 3.300781 L 7.695312 3.300781 L 7.695312 4.398438 L 14.308594 4.398438 Z M 14.304688 3.300781 "/>
</clipPath>
</defs>
<g clip-path="url(#clip-0)">
<g clip-path="url(#clip-1)">
<path fill-rule="nonzero" fill="rgb(100%, 59.2%, 22.3%)" fill-opacity="1" d="M 0.101562 0.101562 L 21.898438 0.101562 L 21.898438 21.910156 L 0.101562 21.910156 Z M 0.101562 0.101562 "/>
</g>
</g>
</svg>
