<?xml version="1.0" encoding="UTF-8"?>
<svg xmlns="http://www.w3.org/2000/svg" xmlns:xlink="http://www.w3.org/1999/xlink" width="23" height="22" viewBox="0 0 23 22">
<defs>
<clipPath id="clip-0">
<path clip-rule="nonzero" d="M 0 0 L 23 0 L 23 19 L 0 19 Z M 0 0 "/>
</clipPath>
<clipPath id="clip-1">
<path clip-rule="nonzero" d="M 10.804688 0.152344 C 6.328125 0.289062 2.707031 3.746094 2.5625 8.0625 L 2.558594 8.316406 L 2.558594 12.210938 C 2.558594 13.425781 2.003906 14.585938 1.039062 15.390625 L 0.839844 15.546875 C -0.53125 16.578125 0.25 18.722656 1.964844 18.722656 L 20.1875 18.722656 C 21.78125 18.722656 22.609375 16.832031 21.488281 15.703125 L 21.347656 15.578125 L 21.140625 15.414062 C 20.140625 14.570312 19.59375 13.421875 19.59375 12.210938 L 19.59375 8.394531 L 19.597656 8.328125 C 19.597656 3.796875 15.773438 0.148438 11.078125 0.148438 Z M 11.328125 2.339844 C 14.636719 2.460938 17.28125 4.980469 17.40625 8.09375 L 17.410156 8.269531 L 17.410156 12.210938 L 17.414062 12.492188 C 17.484375 13.996094 18.09375 15.414062 19.125 16.515625 L 19.148438 16.539062 L 2.996094 16.539062 L 3.070312 16.464844 C 4.144531 15.289062 4.742188 13.785156 4.742188 12.210938 L 4.742188 8.367188 L 4.746094 8.328125 C 4.746094 5.03125 7.570312 2.335938 11.078125 2.335938 Z M 11.328125 2.339844 "/>
</clipPath>
<clipPath id="clip-2">
<path clip-rule="nonzero" d="M 6 16 L 16 16 L 16 22 L 6 22 Z M 6 16 "/>
</clipPath>
<clipPath id="clip-3">
<path clip-rule="nonzero" d="M 14.351562 16.539062 C 14.957031 16.539062 15.445312 17.027344 15.445312 17.628906 C 15.445312 20.042969 13.488281 22 11.074219 22 C 8.660156 22 6.703125 20.042969 6.703125 17.628906 C 6.703125 17.027344 7.195312 16.539062 7.796875 16.539062 C 8.402344 16.539062 8.890625 17.027344 8.890625 17.628906 C 8.890625 18.835938 9.867188 19.816406 11.074219 19.816406 C 12.226562 19.816406 13.171875 18.921875 13.253906 17.792969 L 13.261719 17.628906 C 13.261719 17.027344 13.75 16.539062 14.351562 16.539062 Z M 14.351562 16.539062 "/>
</clipPath>
</defs>
<g clip-path="url(#clip-0)">
<g clip-path="url(#clip-1)">
<path fill-rule="nonzero" fill="rgb(100%, 59.2%, 22.3%)" fill-opacity="1" d="M -1 -0.851562 L 23.609375 -0.851562 L 23.609375 19.722656 L -1 19.722656 Z M -1 -0.851562 "/>
</g>
</g>
<g clip-path="url(#clip-2)">
<g clip-path="url(#clip-3)">
<path fill-rule="nonzero" fill="rgb(100%, 59.2%, 22.3%)" fill-opacity="1" d="M 5.703125 15.539062 L 16.445312 15.539062 L 16.445312 23 L 5.703125 23 Z M 5.703125 15.539062 "/>
</g>
</g>
</svg>
