<?xml version="1.0" encoding="UTF-8"?>
<svg xmlns="http://www.w3.org/2000/svg" xmlns:xlink="http://www.w3.org/1999/xlink" width="37" height="47" viewBox="0 0 37 47">
<path fill-rule="nonzero" fill="rgb(100%, 59.2%, 22.3%)" fill-opacity="1" d="M 11.550781 43.007812 C 11.972656 43.007812 12.316406 43.351562 12.316406 43.777344 L 12.316406 45.3125 C 12.316406 45.734375 11.972656 46.078125 11.550781 46.078125 C 11.125 46.078125 10.78125 45.734375 10.78125 45.3125 L 10.78125 43.777344 C 10.78125 43.351562 11.125 43.007812 11.550781 43.007812 Z M 22.554688 15.542969 C 23.074219 15.21875 23.644531 15.183594 24.15625 15.441406 C 24.441406 15.601562 30.113281 18.894531 31.921875 20.097656 L 32.070312 20.199219 C 34.175781 21.632812 36.871094 24.117188 36.871094 29.183594 C 36.871094 32.894531 34.261719 37.390625 32.355469 40.675781 C 31.617188 41.949219 30.78125 43.394531 30.75 43.785156 L 30.75 45.3125 C 30.75 45.734375 30.40625 46.078125 29.980469 46.078125 C 29.558594 46.078125 29.214844 45.734375 29.214844 45.3125 L 29.214844 43.777344 C 29.214844 43.066406 29.800781 42.019531 31.027344 39.90625 C 32.742188 36.949219 35.335938 32.480469 35.335938 29.183594 C 35.335938 24.78125 33.054688 22.699219 31.070312 21.375 C 29.300781 20.195312 23.488281 16.824219 23.429688 16.792969 C 23.105469 16.8125 22.277344 18.230469 22.277344 19.199219 C 22.277344 19.9375 22.828125 20.449219 23.878906 21.359375 C 24.261719 21.691406 24.695312 22.066406 25.125 22.496094 L 28.964844 26.335938 C 29.832031 27.203125 29.957031 27.398438 29.957031 28.414062 C 29.957031 28.683594 29.957031 29.5 26.660156 32.800781 L 18.1875 40.503906 C 18.113281 40.582031 17.191406 41.472656 16.136719 41.472656 L 9.222656 41.472656 C 7.527344 41.472656 6.152344 40.09375 6.152344 38.398438 C 6.152344 37.824219 6.320312 37.292969 6.59375 36.832031 C 5.054688 36.667969 3.847656 35.375 3.847656 33.792969 C 3.847656 33.21875 4.015625 32.683594 4.292969 32.222656 C 2.75 32.058594 1.542969 30.769531 1.542969 29.183594 C 1.542969 28.425781 1.820312 27.699219 2.328125 27.136719 C 2.609375 26.820312 3.09375 26.792969 3.410156 27.074219 C 3.726562 27.359375 3.753906 27.84375 3.46875 28.160156 C 3.21875 28.441406 3.078125 28.804688 3.078125 29.183594 C 3.078125 30.03125 3.769531 30.71875 4.613281 30.71875 L 13.0625 30.71875 C 13.488281 30.71875 13.832031 31.0625 13.832031 31.488281 C 13.832031 31.910156 13.488281 32.257812 13.0625 32.257812 L 6.917969 32.257812 C 6.070312 32.257812 5.382812 32.945312 5.382812 33.792969 C 5.382812 34.640625 6.070312 35.328125 6.917969 35.328125 L 14.597656 35.328125 C 14.898438 35.328125 15.371094 35.003906 15.59375 34.78125 L 20.96875 29.410156 C 21.265625 29.109375 21.753906 29.109375 22.054688 29.410156 C 22.351562 29.710938 22.351562 30.195312 22.054688 30.496094 L 16.652344 35.898438 C 16.46875 36.074219 15.59375 36.863281 14.597656 36.863281 L 9.222656 36.863281 C 8.375 36.863281 7.6875 37.554688 7.6875 38.398438 C 7.6875 39.246094 8.375 39.9375 9.222656 39.9375 L 16.136719 39.9375 C 16.433594 39.9375 16.90625 39.609375 17.128906 39.390625 L 25.601562 31.6875 C 26.824219 30.464844 28.242188 28.84375 28.421875 28.359375 C 28.421875 28.195312 28.421875 28.035156 28.40625 27.992188 C 28.375 27.917969 28.132812 27.679688 27.878906 27.421875 L 24.039062 23.582031 C 23.648438 23.191406 23.253906 22.851562 22.875 22.523438 C 21.777344 21.574219 20.742188 20.675781 20.742188 19.199219 C 20.742188 18.140625 21.433594 16.234375 22.554688 15.542969 Z M 11.550781 0 C 11.972656 0 12.316406 0.34375 12.316406 0.769531 L 12.316406 6.035156 L 17.765625 11.480469 C 18.34375 12.0625 18.664062 12.832031 18.664062 13.652344 C 18.664062 14.472656 18.34375 15.246094 17.765625 15.824219 C 17.375 16.214844 16.894531 16.472656 16.375 16.609375 L 18.308594 18.539062 C 18.886719 19.121094 19.207031 19.894531 19.207031 20.714844 C 19.207031 21.535156 18.886719 22.304688 18.308594 22.886719 C 17.917969 23.273438 17.4375 23.535156 16.921875 23.671875 L 18.308594 25.058594 C 18.886719 25.636719 19.207031 26.410156 19.207031 27.230469 C 19.207031 28.050781 18.886719 28.820312 18.308594 29.402344 C 17.726562 29.984375 16.957031 30.300781 16.136719 30.300781 C 15.316406 30.300781 14.542969 29.984375 13.964844 29.402344 L 12.347656 27.789062 C 12.214844 28.296875 11.964844 28.78125 11.566406 29.175781 C 10.984375 29.757812 10.214844 30.078125 9.394531 30.078125 C 8.574219 30.078125 7.800781 29.757812 7.222656 29.175781 L 0.929688 22.886719 C 0.347656 22.304688 0.03125 21.535156 0.03125 20.714844 C 0.03125 19.894531 0.347656 19.121094 0.929688 18.539062 C 1.371094 18.101562 1.921875 17.8125 2.519531 17.699219 C 1.96875 16.554688 2.15625 15.144531 3.101562 14.195312 C 3.542969 13.757812 4.09375 13.46875 4.691406 13.355469 C 4.140625 12.210938 4.328125 10.800781 5.273438 9.851562 C 5.714844 9.410156 6.28125 9.140625 6.875 9.035156 C 6.3125 7.886719 6.492188 6.460938 7.445312 5.507812 C 8.316406 4.640625 9.667969 4.421875 10.78125 4.855469 L 10.78125 0.769531 C 10.78125 0.34375 11.125 0 11.550781 0 Z M 5.273438 14.832031 C 4.863281 14.832031 4.476562 14.992188 4.1875 15.28125 C 3.589844 15.882812 3.589844 16.855469 4.1875 17.453125 L 15.050781 28.316406 C 15.628906 28.894531 16.640625 28.894531 17.222656 28.316406 C 17.511719 28.027344 17.671875 27.640625 17.671875 27.230469 C 17.671875 26.820312 17.511719 26.433594 17.222656 26.144531 L 10.582031 19.507812 L 6.359375 15.28125 C 6.070312 14.992188 5.683594 14.832031 5.273438 14.832031 Z M 3.101562 19.175781 C 2.691406 19.175781 2.304688 19.335938 2.015625 19.628906 C 1.726562 19.917969 1.566406 20.304688 1.566406 20.714844 C 1.566406 21.125 1.726562 21.507812 2.015625 21.800781 L 8.304688 28.089844 C 8.886719 28.671875 9.898438 28.671875 10.480469 28.089844 C 11.078125 27.492188 11.078125 26.519531 10.480469 25.921875 L 4.1875 19.628906 C 3.898438 19.335938 3.511719 19.175781 3.101562 19.175781 Z M 7.445312 10.488281 C 7.035156 10.488281 6.648438 10.648438 6.359375 10.9375 C 5.761719 11.535156 5.761719 12.511719 6.359375 13.109375 L 15.050781 21.800781 C 15.628906 22.378906 16.640625 22.378906 17.222656 21.800781 C 17.511719 21.507812 17.671875 21.125 17.671875 20.714844 C 17.671875 20.304688 17.511719 19.917969 17.222656 19.628906 L 8.53125 10.9375 C 8.242188 10.648438 7.855469 10.488281 7.445312 10.488281 Z M 29.957031 0 C 30.382812 0 30.726562 0.34375 30.726562 0.769531 L 30.726562 6.910156 C 30.726562 7.140625 31.230469 7.851562 31.632812 8.421875 C 33.019531 10.378906 35.335938 13.648438 35.335938 19.199219 C 35.335938 19.625 34.992188 19.96875 34.566406 19.96875 C 34.140625 19.96875 33.800781 19.625 33.800781 19.199219 C 33.800781 14.136719 31.742188 11.234375 30.378906 9.308594 C 29.6875 8.335938 29.191406 7.628906 29.191406 6.910156 L 29.191406 0.769531 C 29.191406 0.34375 29.535156 0 29.957031 0 Z M 9.617188 6.144531 C 9.207031 6.144531 8.820312 6.304688 8.53125 6.59375 C 7.933594 7.191406 7.933594 8.167969 8.53125 8.765625 L 14.507812 14.738281 C 15.085938 15.320312 16.097656 15.320312 16.679688 14.738281 C 16.96875 14.449219 17.128906 14.0625 17.128906 13.652344 C 17.128906 13.242188 16.96875 12.859375 16.679688 12.566406 L 10.703125 6.59375 C 10.414062 6.304688 10.027344 6.144531 9.617188 6.144531 Z M 9.617188 6.144531 "/>
</svg>
