<?xml version="1.0" encoding="UTF-8"?><svg id="Calque_1" xmlns="http://www.w3.org/2000/svg" xmlns:xlink="http://www.w3.org/1999/xlink" viewBox="0 0 700 700"><defs><style>.cls-1{clip-path:url(#clippath);}.cls-2{stroke-width:1.52px;}.cls-2,.cls-3,.cls-4,.cls-5,.cls-6,.cls-7,.cls-8,.cls-9,.cls-10,.cls-11{fill:none;}.cls-2,.cls-4,.cls-5,.cls-6,.cls-7,.cls-8,.cls-9,.cls-10,.cls-11{stroke-linecap:round;}.cls-2,.cls-4,.cls-5,.cls-9,.cls-11{stroke-linejoin:round;}.cls-2,.cls-8{stroke:#ffc449;}.cls-3,.cls-12,.cls-13,.cls-14,.cls-15,.cls-16,.cls-17,.cls-18,.cls-19,.cls-20,.cls-21,.cls-22{stroke-width:0px;}.cls-12{fill:#ffeadc;}.cls-13{fill:#ff9c5d;}.cls-4{stroke:#ffeadc;stroke-width:4.87px;}.cls-14{fill:#e79f71;}.cls-15{fill:#d18a72;}.cls-5{stroke:#72c8cc;stroke-width:3.24px;}.cls-16{fill:#ff9739;}.cls-23{clip-path:url(#clippath-1);}.cls-17{fill:#d26f3a;}.cls-6{stroke-width:4.59px;}.cls-6,.cls-7{stroke:#b36248;}.cls-6,.cls-7,.cls-8,.cls-10{stroke-miterlimit:10;}.cls-18{fill:#93dce3;}.cls-19{fill:#b36248;}.cls-7,.cls-11{stroke-width:3.01px;}.cls-8{stroke-width:1.23px;}.cls-20{fill:#ffc7a1;}.cls-21{fill:#b299e5;}.cls-9{stroke:#f3f3f3;stroke-width:3.06px;}.cls-10{stroke-width:4.52px;}.cls-10,.cls-11{stroke:#d26f3a;}.cls-22{fill:#fff;}</style><clipPath id="clippath"><path class="cls-3" d="M485.57,581.46c-25.22,0-45.67-20.45-45.67-45.67s20.45-45.67,45.67-45.67c8.88,0,17.17,2.55,24.18,6.93v-111.07c0-7.26-5.89-13.15-13.15-13.15h-112.61c4.71-7.18,7.46-15.77,7.46-25,0-25.22-20.45-45.67-45.67-45.67s-45.67,20.45-45.67,45.67c0,9.23,2.75,17.82,7.46,25h-111.83c-7.26,0-13.15,5.89-13.15,13.15v110.24c6.71-3.87,14.49-6.1,22.79-6.1,25.22,0,45.67,20.45,45.67,45.67s-20.45,45.67-45.67,45.67c-8.3,0-16.08-2.23-22.79-6.1v111.49c0,7.26,5.89,13.15,13.15,13.15h300.87c7.26,0,13.15-5.89,13.15-13.15v-112.33c-7.01,4.39-15.3,6.93-24.18,6.93Z"/></clipPath><clipPath id="clippath-1"><path class="cls-3" d="M529.26,163.58c-7.07,0-13.76,1.61-19.73,4.47V58.82c0-7.26-5.89-13.15-13.15-13.15h-99.12c0-25.22-20.45-45.67-45.67-45.67s-45.67,20.45-45.67,45.67h-110.41c-7.26,0-13.15,5.89-13.15,13.15v112.79c-7.35-5.06-16.25-8.02-25.85-8.02-25.22,0-45.67,20.45-45.67,45.67s20.45,45.67,45.67,45.67c9.6,0,18.5-2.97,25.85-8.02v112.79c0,7.26,5.89,13.15,13.15,13.15h111.77c-4.54-7.1-7.18-15.52-7.18-24.57,0-25.22,20.45-45.67,45.67-45.67s45.67,20.45,45.67,45.67c0,9.05-2.64,17.47-7.18,24.57h112.12c7.26,0,13.15-5.89,13.15-13.15v-109.24c5.97,2.87,12.66,4.47,19.73,4.47,25.22,0,45.67-20.45,45.67-45.67s-20.45-45.67-45.67-45.67Z"/></clipPath></defs><circle class="cls-12" cx="350" cy="350" r="281.37"/><path class="cls-16" d="M485.57,581.46c-25.22,0-45.67-20.45-45.67-45.67s20.45-45.67,45.67-45.67c8.88,0,17.17,2.55,24.18,6.93v-111.07c0-7.26-5.89-13.15-13.15-13.15h-112.61c4.71-7.18,7.46-15.77,7.46-25,0-25.22-20.45-45.67-45.67-45.67s-45.67,20.45-45.67,45.67c0,9.23,2.75,17.82,7.46,25h-111.83c-7.26,0-13.15,5.89-13.15,13.15v110.24c6.71-3.87,14.49-6.1,22.79-6.1,25.22,0,45.67,20.45,45.67,45.67s-20.45,45.67-45.67,45.67c-8.3,0-16.08-2.23-22.79-6.1v111.49c0,7.26,5.89,13.15,13.15,13.15h300.87c7.26,0,13.15-5.89,13.15-13.15v-112.33c-7.01,4.39-15.3,6.93-24.18,6.93Z"/><path class="cls-19" d="M415.85,604.54l-142.61-1.67c-20.58-10.91-18.24-36.88-4.5-51.93,19.18-20.94,10.94-29.07,13.01-56.1,0-44.6,30.79-81.09,68.42-81.09h0c5.52,0,16.42,2.67,19.44,9.26,26.4-9.49,48.98,33.77,48.98,71.82-5.09,38.19-5.26,41.27,5.36,53.04,17.22,17.31,15.38,53.61-8.1,56.67Z"/><g class="cls-1"><path class="cls-22" d="M505.96,726.02c-6.66-8.22-13.55-20.42-16.87-31.51l-31.75-81.76c-5.32-18.15-16.01-23.61-36.06-26.42-2.08-.29-40.25-15.7-42.3-16.17-24.12-5.53-17.19-3.97-27.95-3.97-9.54.17-15.19,1.32-31.17,5.89-2.68.77-33.16,14.1-35.93,14.43-18.99,2.22-25.69,8.03-33.64,25.97l-30.97,82.03c-3.32,11.09-10.2,23.29-16.87,31.51l-56.14,76.45,18.83,16.49,77.32-52.45c16.07-15.48,27.89-34.83,34.32-56.2l11.32-37.65,128.02,3.03,13.47,34.62c6.43,21.37,20.25,40.72,36.32,56.2l77.32,52.45,18.83-16.49-56.14-76.45Z"/><path class="cls-22" d="M415.26,792.45h-124.4c-12.55,0-19.31.51-19.31-10.77,13.23-53.15,2.2-110.75-12.05-171.69,0-11.28,10.27-20.51,22.82-20.51h142.77c12.55,0,22.82,9.23,22.82,20.51-13.97,68.06-29.98,129.77-8.86,171.69,0,11.28-11.25,10.77-23.81,10.77Z"/><path class="cls-9" d="M276.85,747.93c.07-1.02-.05-37.62-.05-37.62,0,0-12.81-12.14-12.56-32.54v-34.44"/><path class="cls-9" d="M429.57,747.93c-.07-1.02.05-37.62.05-37.62,0,0,12.81-12.14,12.56-32.54v-34.44"/></g><path class="cls-14" d="M397.4,584.09c0,7.93-23.06,31.99-48.45,31.99s-43.49-24.06-43.49-31.99,20.58-14.35,45.97-14.35,45.97,6.43,45.97,14.35Z"/><ellipse class="cls-2" cx="350.87" cy="580.6" rx="26.81" ry="22.75"/><circle class="cls-21" cx="350.51" cy="603.41" r="4.34"/><circle class="cls-18" cx="357.43" cy="602.6" r="2.58"/><circle class="cls-18" cx="343.59" cy="602.6" r="2.58"/><rect class="cls-14" x="328.23" y="536.55" width="45.11" height="36.55"/><path class="cls-15" d="M328.23,547.88s11.47,6.72,22.48,6.92c0,0,12.39-.09,22.63-7.01v5.5c-6.43,7.44-28.12,21.4-45.11-.15v-5.27Z"/><ellipse class="cls-14" cx="350.72" cy="490.16" rx="49.9" ry="64.64"/><path class="cls-19" d="M400.61,486.49c-15.01,7.84-24.18-10.51-30.35-30.18-.68-2.16-3.68-2.36-4.61-.29-13.56,30-53.4,30.35-64.83,29.99,0-33.98,22.42-63,50.56-63s49.23,29.5,49.23,63.48Z"/><ellipse class="cls-14" cx="400.61" cy="498.74" rx="15.08" ry="10.16" transform="translate(-238.67 475.25) rotate(-49.12)"/><path class="cls-7" d="M399.23,502.14c.18-.53,3.52-10.93,8.99-9.25"/><ellipse class="cls-14" cx="302.25" cy="498.74" rx="10.16" ry="15.08" transform="translate(-252.68 319.44) rotate(-40.88)"/><path class="cls-7" d="M293.44,492.39c.25,0,7.72,1.4,9.63,10.06"/><ellipse class="cls-8" cx="405.14" cy="513.89" rx="3.74" ry="7.2"/><ellipse class="cls-8" cx="297.57" cy="513.89" rx="3.74" ry="7.2"/><path class="cls-7" d="M361.07,495.87s8.18-7.93,17.1,0"/><path class="cls-7" d="M348.75,495.36s1.69,5.07-4.69,9.01c0,0-4.51,2.25-4.69,9.2,0,0,.19,5.82,3.76,7.7"/><path class="cls-7" d="M355.65,537.63s-5.08,2.14-8.82,0"/><path class="cls-7" d="M365.04,529.15s-11.83,7.32-27.23,2.44"/><path class="cls-7" d="M320.72,495.87s8.18-7.93,17.1,0"/><path class="cls-6" d="M362.53,481.62s9.29-9.24,24.32,4.03"/><ellipse class="cls-19" cx="329.6" cy="497.42" rx="2.4" ry="3.99"/><ellipse class="cls-19" cx="370.07" cy="497.42" rx="2.4" ry="3.99"/><path class="cls-20" d="M529.26,163.58c-7.07,0-13.76,1.61-19.73,4.47V58.82c0-7.26-5.89-13.15-13.15-13.15h-99.12c0-25.22-20.45-45.67-45.67-45.67s-45.67,20.45-45.67,45.67h-110.41c-7.26,0-13.15,5.89-13.15,13.15v112.79c-7.35-5.06-16.25-8.02-25.85-8.02-25.22,0-45.67,20.45-45.67,45.67s20.45,45.67,45.67,45.67c9.6,0,18.5-2.97,25.85-8.02v112.79c0,7.26,5.89,13.15,13.15,13.15h111.77c-4.54-7.1-7.18-15.52-7.18-24.57,0-25.22,20.45-45.67,45.67-45.67s45.67,20.45,45.67,45.67c0,9.05-2.64,17.47-7.18,24.57h112.12c7.26,0,13.15-5.89,13.15-13.15v-109.24c5.97,2.87,12.66,4.47,19.73,4.47,25.22,0,45.67-20.45,45.67-45.67s-20.45-45.67-45.67-45.67Z"/><circle class="cls-17" cx="284.98" cy="173.35" r="10.83"/><circle class="cls-17" cx="280.67" cy="157.49" r="10.83"/><circle class="cls-17" cx="280.61" cy="141.04" r="10.83"/><circle class="cls-17" cx="284.8" cy="125.14" r="10.83"/><circle class="cls-17" cx="292.97" cy="110.87" r="10.83"/><circle class="cls-17" cx="304.56" cy="99.2" r="10.83"/><circle class="cls-17" cx="318.77" cy="90.92" r="10.83"/><circle class="cls-17" cx="334.64" cy="86.61" r="10.83"/><circle class="cls-17" cx="351.08" cy="86.55" r="10.83"/><circle class="cls-17" cx="366.98" cy="90.75" r="10.83"/><circle class="cls-17" cx="381.25" cy="98.92" r="10.83"/><circle class="cls-17" cx="392.92" cy="110.5" r="10.83"/><circle class="cls-17" cx="401.2" cy="124.71" r="10.83"/><circle class="cls-17" cx="405.51" cy="140.58" r="10.83"/><circle class="cls-17" cx="405.57" cy="157.03" r="10.83"/><circle class="cls-17" cx="401.38" cy="172.93" r="10.83"/><ellipse class="cls-13" cx="342.47" cy="169.33" rx="52.83" ry="68.45"/><ellipse class="cls-13" cx="291.15" cy="178.42" rx="10.76" ry="15.97" transform="translate(-45.76 234.05) rotate(-40.88)"/><ellipse class="cls-13" cx="395.3" cy="178.42" rx="15.97" ry="10.76" transform="translate(1.7 360.55) rotate(-49.12)"/><path class="cls-11" d="M281.82,171.69c.27,0,8.18,1.48,10.2,10.65"/><path class="cls-11" d="M347.7,219.6s-5.38,2.26-9.34,0"/><path class="cls-11" d="M393.84,182.01c.19-.56,3.73-11.57,9.52-9.8"/><path class="cls-17" d="M287.89,163.59l6.66.97,13.39-36.78s57.31,5.91,63.6-.44l21.38,34.91,8.46-1.48-.18-19.73-6.46-22.52-34.28-26.56-47.41,2.13-23.41,33.25-4.65,29.78,2.91,6.47Z"/><circle class="cls-17" cx="291.16" cy="156.09" r="10.83"/><circle class="cls-17" cx="300.47" cy="138.39" r="10.83"/><circle class="cls-17" cx="312.25" cy="124.71" r="10.83"/><circle class="cls-17" cx="331.64" cy="124.71" r="10.83"/><circle class="cls-17" cx="351.08" cy="124.71" r="10.83"/><circle class="cls-17" cx="370.42" cy="126.42" r="10.83"/><circle class="cls-17" cx="383.01" cy="140.58" r="10.83"/><circle class="cls-17" cx="394.74" cy="155.04" r="10.83"/><g class="cls-23"><path class="cls-18" d="M506.86,419.09c-7.05-8.71-14.35-21.62-17.86-33.37l-33.62-86.58c-5.63-19.22-16.96-25-38.19-27.98-2.2-.31-42.63-16.62-44.79-17.12-25.54-5.86-18.2-4.2-29.6-4.2-10.11.19-16.09,1.39-33.01,6.24-2.84.81-35.11,14.93-38.04,15.27-20.11,2.35-27.21,8.51-35.62,27.5l-32.79,86.87c-3.51,11.75-10.81,24.66-17.86,33.37l-59.44,80.96,19.94,17.46,81.88-55.54c17.02-16.39,29.54-36.88,36.34-59.51l11.99-39.87,135.56,3.21,14.27,36.66c6.8,22.63,21.44,43.12,38.46,59.51l81.88,55.54,19.94-17.46-59.44-80.96Z"/><path class="cls-18" d="M254.88,521.09l-8.99-224.88s10.87-21.72,24.17-21.72h151.19c13.29,0,24.17,21.72,24.17,21.72l-5.84,215.54c-55.19,19.06-116.96,21.66-184.68,9.34Z"/><line class="cls-5" x1="254.88" y1="521.09" x2="246.78" y2="331.88"/><line class="cls-5" x1="439.56" y1="511.75" x2="444.45" y2="331.53"/></g><rect class="cls-13" x="318.66" y="218.45" width="47.77" height="38.7"/><ellipse class="cls-13" cx="343.23" cy="268.79" rx="48.68" ry="15.2"/><path class="cls-17" d="M318.66,230.44s12.15,7.11,23.81,7.33c0,0,13.12-.1,23.96-7.43v5.83c-6.81,7.88-29.77,22.67-47.77-.16v-5.58Z"/><path class="cls-11" d="M357.64,210.62s-12.53,7.75-28.83,2.58"/><ellipse class="cls-17" cx="362.71" cy="173.99" rx="2.4" ry="3.99"/><ellipse class="cls-17" cx="322.23" cy="173.99" rx="2.4" ry="3.99"/><path class="cls-11" d="M313.82,172.27s8.18-7.93,17.1,0"/><path class="cls-11" d="M354.17,172.27s8.18-7.93,17.1,0"/><path class="cls-11" d="M340.38,174.83s1.79,5.37-4.97,9.54c0,0-4.77,2.39-4.97,9.74,0,0,.2,6.16,3.98,8.15"/><path class="cls-10" d="M353.36,160.29s9.84-9.78,25.75,4.27"/><path class="cls-10" d="M332.77,159.55s-9.84-9.78-25.75,4.27"/><path class="cls-22" d="M155.59,503.28c-23.45,0-42.65-19.19-42.65-42.65h0c0-23.45,19.19-42.65,42.65-42.65h53.99c23.45,0,42.65,19.19,42.65,42.65v50.55c0,3.21-3.36,5.29-6.23,3.86l-16.53-8.25c-4.38-2.19-9.21-3.34-14.12-3.35l-59.76-.15h0Z"/><line class="cls-4" x1="220.66" y1="447.77" x2="144.52" y2="447.77"/><line class="cls-4" x1="220.66" y1="459.14" x2="144.52" y2="459.14"/><line class="cls-4" x1="220.66" y1="470.39" x2="163.92" y2="470.39"/><path class="cls-22" d="M541.49,150.42c23.45,0,42.65-19.19,42.65-42.65h0c0-23.45-19.19-42.65-42.65-42.65h-53.99c-23.45,0-42.65,19.19-42.65,42.65v50.55c0,3.21,3.36,5.29,6.23,3.86l16.53-8.25c4.38-2.19,9.21-3.34,14.12-3.35l59.76-.15h0Z"/><line class="cls-4" x1="476.43" y1="94.91" x2="552.57" y2="94.91"/><line class="cls-4" x1="476.43" y1="106.28" x2="552.57" y2="106.28"/><line class="cls-4" x1="476.43" y1="117.53" x2="533.17" y2="117.53"/></svg>