<svg width="30" height="30" viewBox="0 0 30 30" fill="none" xmlns="http://www.w3.org/2000/svg">
<circle cx="15" cy="15" r="15" fill="#FFEADC"/>
<path d="M19.3374 9.04066C17.9215 7.77174 16.0509 7 14 7C9.58172 7 6 10.5817 6 15C6 19.4183 9.58172 23 14 23C16.0265 23 17.877 22.2465 19.2866 21.0044" stroke="#FF9739" stroke-width="2" stroke-linecap="round"/>
<path d="M21.1568 19.1923C20.7662 19.5829 20.1331 19.5829 19.7426 19.1923C19.3799 18.8297 19.354 18.2579 19.6649 17.8654L19.7426 17.7781L22.5714 14.9493L19.7426 12.1213C19.3799 11.7587 19.354 11.1868 19.6649 10.7943L19.7426 10.7071C20.1052 10.3444 20.677 10.3185 21.0696 10.6294L21.1568 10.7071L24.6923 14.2426C25.0549 14.6052 25.0808 15.1771 24.77 15.5696L24.6923 15.6568L21.1568 19.1923Z" fill="#FF9739"/>
<path d="M15 15C15 14.4872 15.386 14.0645 15.8834 14.0067L16 14H22.8107C23.3629 14 23.8107 14.4477 23.8107 15C23.8107 15.5128 23.4246 15.9355 22.9273 15.9933L22.8107 16H16C15.4477 16 15 15.5523 15 15Z" fill="#FF9739"/>
</svg>
