<?xml version="1.0" encoding="UTF-8"?>
<svg xmlns="http://www.w3.org/2000/svg" xmlns:xlink="http://www.w3.org/1999/xlink" width="24" height="19" viewBox="0 0 24 19">
<defs>
<filter id="filter-remove-color" x="0%" y="0%" width="100%" height="100%">
<feColorMatrix color-interpolation-filters="sRGB" values="0 0 0 0 1 0 0 0 0 1 0 0 0 0 1 0 0 0 1 0" />
</filter>
<clipPath id="clip-0">
<path clip-rule="evenodd" d="M 20.1875 0 C 22.15625 0 23.75 1.59375 23.75 3.5625 L 23.75 15.4375 C 23.75 17.40625 22.15625 19 20.1875 19 L 3.5625 19 C 1.59375 19 0 17.40625 0 15.4375 L 0 3.5625 C 0 1.59375 1.59375 0 3.5625 0 Z M 20.1875 0 "/>
</clipPath>
<clipPath id="clip-1">
<path clip-rule="evenodd" d="M 20.398438 0 C 22.386719 0 24 1.59375 24 3.5625 L 24 15.4375 C 24 17.40625 22.386719 19 20.398438 19 L 3.601562 19 C 1.613281 19 0 17.40625 0 15.4375 L 0 3.5625 C 0 1.59375 1.613281 0 3.601562 0 Z M 20.398438 0 "/>
</clipPath>
<clipPath id="clip-2">
<path clip-rule="nonzero" d="M 0 0 L 24 0 L 24 19 L 0 19 Z M 0 0 "/>
</clipPath>
<clipPath id="clip-3">
<path clip-rule="evenodd" d="M 20.398438 0 C 22.386719 0 24 1.59375 24 3.5625 L 24 15.4375 C 24 17.40625 22.386719 19 20.398438 19 L 3.601562 19 C 1.613281 19 0 17.40625 0 15.4375 L 0 3.5625 C 0 1.59375 1.613281 0 3.601562 0 Z M 20.398438 0 "/>
</clipPath>
<clipPath id="clip-4">
<path clip-rule="nonzero" d="M 0 2 L 24 2 L 24 19 L 0 19 Z M 0 2 "/>
</clipPath>
<clipPath id="clip-5">
<path clip-rule="evenodd" d="M 20.398438 0 C 22.386719 0 24 1.59375 24 3.5625 L 24 15.4375 C 24 17.40625 22.386719 19 20.398438 19 L 3.601562 19 C 1.613281 19 0 17.40625 0 15.4375 L 0 3.5625 C 0 1.59375 1.613281 0 3.601562 0 Z M 20.398438 0 "/>
</clipPath>
<mask id="mask-0">
<g filter="url(#filter-remove-color)">
<rect x="-5.28" y="-4.18" width="34.56" height="27.36" fill="rgb(0%, 0%, 0%)" fill-opacity="0.5"/>
</g>
</mask>
<clipPath id="clip-6">
<path clip-rule="nonzero" d="M 0 1 L 24 1 L 24 13 L 0 13 Z M 0 1 "/>
</clipPath>
<clipPath id="clip-7">
<path clip-rule="evenodd" d="M 20.398438 -2 C 22.386719 -2 24 -0.40625 24 1.5625 L 24 13.4375 C 24 15.40625 22.386719 17 20.398438 17 L 3.601562 17 C 1.613281 17 0 15.40625 0 13.4375 L 0 1.5625 C 0 -0.40625 1.613281 -2 3.601562 -2 Z M 20.398438 -2 "/>
</clipPath>
<clipPath id="clip-8">
<path clip-rule="nonzero" d="M 0 9 L 24 9 L 24 17 L 0 17 Z M 0 9 "/>
</clipPath>
<clipPath id="clip-9">
<path clip-rule="evenodd" d="M 20.398438 -2 C 22.386719 -2 24 -0.40625 24 1.5625 L 24 13.4375 C 24 15.40625 22.386719 17 20.398438 17 L 3.601562 17 C 1.613281 17 0 15.40625 0 13.4375 L 0 1.5625 C 0 -0.40625 1.613281 -2 3.601562 -2 Z M 20.398438 -2 "/>
</clipPath>
<clipPath id="clip-10">
<rect x="0" y="0" width="24" height="17"/>
</clipPath>
<g id="source-6" clip-path="url(#clip-10)">
<g clip-path="url(#clip-6)">
<g clip-path="url(#clip-7)">
<path fill="none" stroke-width="1" stroke-linecap="round" stroke-linejoin="round" stroke="rgb(59.216309%, 59.216309%, 59.216309%)" stroke-opacity="1" stroke-miterlimit="10" d="M 0 0 L 10.648438 9.761719 C 11.414062 10.460938 12.585938 10.460938 13.351562 9.761719 L 24 0 " transform="matrix(1, 0, 0, 1, 0, 1.5625)"/>
</g>
</g>
<g clip-path="url(#clip-8)">
<g clip-path="url(#clip-9)">
<path fill="none" stroke-width="1" stroke-linecap="round" stroke-linejoin="round" stroke="rgb(59.216309%, 59.216309%, 59.216309%)" stroke-opacity="1" stroke-miterlimit="10" d="M 0 0 L 8.398438 8 M 15.601562 8 L 24 0 " transform="matrix(-1, 0, 0, -1, 24, 17.5625)"/>
</g>
</g>
</g>
<clipPath id="clip-11">
<path clip-rule="nonzero" d="M 8 5 L 17 5 L 17 9 L 8 9 Z M 8 5 "/>
</clipPath>
<clipPath id="clip-12">
<path clip-rule="evenodd" d="M 20.398438 0 C 22.386719 0 24 1.59375 24 3.5625 L 24 15.4375 C 24 17.40625 22.386719 19 20.398438 19 L 3.601562 19 C 1.613281 19 0 17.40625 0 15.4375 L 0 3.5625 C 0 1.59375 1.613281 0 3.601562 0 Z M 20.398438 0 "/>
</clipPath>
<clipPath id="clip-13">
<path clip-rule="nonzero" d="M 12.09375 5.636719 C 13.488281 5.636719 14.84375 6.164062 15.953125 7.132812 C 16.160156 7.316406 16.183594 7.632812 16 7.839844 C 15.820312 8.046875 15.503906 8.070312 15.296875 7.886719 C 14.367188 7.074219 13.242188 6.636719 12.09375 6.636719 C 10.917969 6.636719 9.773438 7.089844 8.832031 7.933594 C 8.628906 8.117188 8.3125 8.101562 8.128906 7.894531 C 7.945312 7.691406 7.960938 7.375 8.167969 7.191406 C 9.285156 6.1875 10.667969 5.636719 12.09375 5.636719 Z M 12.09375 5.636719 "/>
</clipPath>
<clipPath id="clip-14">
<path clip-rule="nonzero" d="M 8 4 L 10 4 L 10 6 L 8 6 Z M 8 4 "/>
</clipPath>
<clipPath id="clip-15">
<path clip-rule="evenodd" d="M 20.398438 0 C 22.386719 0 24 1.59375 24 3.5625 L 24 15.4375 C 24 17.40625 22.386719 19 20.398438 19 L 3.601562 19 C 1.613281 19 0 17.40625 0 15.4375 L 0 3.5625 C 0 1.59375 1.613281 0 3.601562 0 Z M 20.398438 0 "/>
</clipPath>
<clipPath id="clip-16">
<path clip-rule="evenodd" d="M 9.925781 4.710938 C 9.925781 5.105469 9.605469 5.425781 9.210938 5.425781 C 8.820312 5.425781 8.5 5.105469 8.5 4.710938 C 8.5 4.320312 8.820312 4 9.210938 4 C 9.605469 4 9.925781 4.320312 9.925781 4.710938 "/>
</clipPath>
<clipPath id="clip-17">
<path clip-rule="nonzero" d="M 14 4 L 16 4 L 16 6 L 14 6 Z M 14 4 "/>
</clipPath>
<clipPath id="clip-18">
<path clip-rule="evenodd" d="M 20.398438 0 C 22.386719 0 24 1.59375 24 3.5625 L 24 15.4375 C 24 17.40625 22.386719 19 20.398438 19 L 3.601562 19 C 1.613281 19 0 17.40625 0 15.4375 L 0 3.5625 C 0 1.59375 1.613281 0 3.601562 0 Z M 20.398438 0 "/>
</clipPath>
<clipPath id="clip-19">
<path clip-rule="evenodd" d="M 15.625 4.710938 C 15.625 5.105469 15.304688 5.425781 14.914062 5.425781 C 14.519531 5.425781 14.199219 5.105469 14.199219 4.710938 C 14.199219 4.320312 14.519531 4 14.914062 4 C 15.304688 4 15.625 4.320312 15.625 4.710938 "/>
</clipPath>
<clipPath id="clip-20">
<rect x="0" y="0" width="24" height="19"/>
</clipPath>
<g id="source-8" clip-path="url(#clip-20)">
<g clip-path="url(#clip-2)">
<g clip-path="url(#clip-3)">
<rect x="-5.28" y="-4.18" width="34.56" height="27.36" fill="rgb(86.66687%, 86.66687%, 86.66687%)" fill-opacity="1"/>
</g>
</g>
<g clip-path="url(#clip-4)">
<g clip-path="url(#clip-5)">
<g mask="url(#mask-0)">
<use xlink:href="#source-6" transform="matrix(1, 0, 0, 1, 0, 2)"/>
</g>
</g>
</g>
<g clip-path="url(#clip-11)">
<g clip-path="url(#clip-12)">
<g clip-path="url(#clip-13)">
<path fill-rule="nonzero" fill="rgb(43.920898%, 43.920898%, 43.920898%)" fill-opacity="1" d="M 6.945312 4.636719 L 17.183594 4.636719 L 17.183594 9.117188 L 6.945312 9.117188 Z M 6.945312 4.636719 "/>
</g>
</g>
</g>
<g clip-path="url(#clip-14)">
<g clip-path="url(#clip-15)">
<g clip-path="url(#clip-16)">
<path fill-rule="nonzero" fill="rgb(43.920898%, 43.920898%, 43.920898%)" fill-opacity="1" d="M 7.5 3 L 10.925781 3 L 10.925781 6.425781 L 7.5 6.425781 Z M 7.5 3 "/>
</g>
</g>
</g>
<g clip-path="url(#clip-17)">
<g clip-path="url(#clip-18)">
<g clip-path="url(#clip-19)">
<path fill-rule="nonzero" fill="rgb(43.920898%, 43.920898%, 43.920898%)" fill-opacity="1" d="M 13.199219 3 L 16.625 3 L 16.625 6.425781 L 13.199219 6.425781 Z M 13.199219 3 "/>
</g>
</g>
</g>
</g>
</defs>
<g clip-path="url(#clip-0)">
<rect x="-2.4" y="-1.9" width="28.8" height="22.8" fill="rgb(86.66687%, 86.66687%, 86.66687%)" fill-opacity="1"/>
</g>
<g clip-path="url(#clip-1)">
<use xlink:href="#source-8"/>
</g>
</svg>
