<?xml version="1.0" encoding="UTF-8"?>
<svg xmlns="http://www.w3.org/2000/svg" xmlns:xlink="http://www.w3.org/1999/xlink" width="34" height="34" viewBox="0 0 34 34">
<path fill-rule="nonzero" fill="rgb(96.078491%, 37.254333%, 14.117432%)" fill-opacity="1" d="M 28.871094 24.128906 C 28.992188 23.878906 29.066406 23.601562 29.066406 23.304688 L 29.066406 18.65625 L 33.453125 18.65625 L 33.453125 12.074219 L 30.160156 12.074219 L 30.160156 10.429688 C 30.160156 8.121094 28.5625 6.179688 26.421875 5.644531 C 27.035156 5.046875 27.417969 4.210938 27.417969 3.289062 C 27.417969 1.476562 25.945312 0 24.128906 0 C 22.3125 0 20.839844 1.476562 20.839844 3.289062 C 20.839844 4.261719 21.265625 5.132812 21.933594 5.734375 C 21.171875 5.910156 20.429688 6.171875 19.726562 6.523438 L 14.75 9.011719 C 14.574219 9.101562 14.417969 9.214844 14.28125 9.347656 C 13.949219 9.300781 13.585938 9.328125 13.25 9.46875 L 7.566406 11.835938 C 7.980469 11.285156 8.226562 10.609375 8.226562 9.871094 C 8.226562 8.054688 6.75 6.582031 4.933594 6.582031 C 3.121094 6.582031 1.644531 8.054688 1.644531 9.871094 C 1.644531 10.9375 2.15625 11.882812 2.945312 12.484375 C 1.214844 13.253906 0 14.984375 0 17 L 0 32.082031 C 0 33.042969 0.710938 33.832031 1.636719 33.972656 L 1.636719 34 L 34 34 L 34 24.128906 Z M 27.96875 23.304688 C 27.96875 23.761719 27.597656 24.128906 27.144531 24.128906 C 26.691406 24.128906 26.324219 23.761719 26.324219 23.304688 L 26.324219 18.65625 L 27.96875 18.65625 Z M 25.226562 18.65625 L 25.226562 23.304688 C 25.226562 23.601562 25.296875 23.878906 25.417969 24.128906 L 22.839844 24.128906 C 22.960938 23.878906 23.03125 23.601562 23.03125 23.304688 L 23.03125 18.515625 L 24.675781 18.066406 L 24.675781 18.65625 Z M 32.355469 13.171875 L 32.355469 17.558594 L 25.773438 17.558594 L 25.773438 13.171875 L 26.871094 13.171875 L 26.871094 13.71875 C 26.871094 14.625 27.609375 15.363281 28.515625 15.363281 C 29.421875 15.363281 30.160156 14.625 30.160156 13.71875 L 30.160156 13.171875 Z M 21.933594 3.289062 C 21.933594 2.082031 22.917969 1.097656 24.128906 1.097656 C 25.339844 1.097656 26.324219 2.082031 26.324219 3.289062 C 26.324219 4.472656 25.382812 5.429688 24.210938 5.476562 L 24.140625 5.472656 L 24.140625 5.484375 C 24.136719 5.484375 24.132812 5.484375 24.128906 5.484375 C 22.917969 5.484375 21.933594 4.5 21.933594 3.289062 Z M 15.238281 9.992188 L 20.21875 7.503906 C 21.425781 6.898438 22.777344 6.582031 24.128906 6.582031 C 24.175781 6.582031 24.222656 6.574219 24.269531 6.574219 L 25.226562 6.589844 C 27.34375 6.589844 29.066406 8.3125 29.066406 10.429688 L 29.066406 13.71875 C 29.066406 14.023438 28.816406 14.269531 28.515625 14.269531 C 28.214844 14.269531 27.96875 14.023438 27.96875 13.71875 L 27.96875 10.890625 C 27.96875 9.738281 27.523438 8.65625 26.710938 7.839844 L 25.933594 8.613281 C 26.539062 9.222656 26.871094 10.03125 26.871094 10.890625 L 26.871094 12.074219 L 24.675781 12.074219 L 24.675781 16.929688 L 22.742188 17.457031 C 22.269531 17.585938 21.933594 18.023438 21.933594 18.515625 L 21.933594 23.304688 C 21.933594 23.761719 21.566406 24.128906 21.113281 24.128906 C 20.660156 24.128906 20.289062 23.761719 20.289062 23.304688 L 20.289062 16.710938 C 20.289062 16.082031 20.636719 15.519531 21.199219 15.238281 L 23.582031 14.046875 L 23.582031 8.226562 L 22.355469 8.226562 L 15.9375 11.433594 C 15.832031 11.488281 15.710938 11.515625 15.589844 11.515625 C 15.15625 11.515625 14.804688 11.164062 14.804688 10.695312 C 14.804688 10.394531 14.972656 10.128906 15.238281 9.992188 Z M 7.128906 19.742188 L 6.582031 19.742188 L 6.582031 16.800781 L 14.816406 12.921875 C 14.996094 12.839844 15.15625 12.71875 15.300781 12.582031 C 15.394531 12.597656 15.492188 12.613281 15.589844 12.613281 C 15.878906 12.613281 16.167969 12.542969 16.429688 12.414062 L 22.484375 9.386719 L 22.484375 13.371094 L 20.710938 14.257812 C 19.773438 14.726562 19.195312 15.664062 19.195312 16.710938 L 19.195312 23.304688 C 19.195312 23.601562 19.265625 23.878906 19.386719 24.128906 L 11.300781 24.128906 L 9.871094 25.449219 L 9.871094 22.484375 C 9.871094 20.972656 8.640625 19.742188 7.128906 19.742188 Z M 2.742188 9.871094 C 2.742188 8.660156 3.726562 7.675781 4.933594 7.675781 C 6.144531 7.675781 7.128906 8.660156 7.128906 9.871094 C 7.128906 11.082031 6.144531 12.066406 4.933594 12.066406 C 3.726562 12.066406 2.742188 11.082031 2.742188 9.871094 Z M 1.097656 17 C 1.097656 14.882812 2.820312 13.160156 4.933594 13.160156 L 7.238281 13.160156 L 13.671875 10.480469 C 13.6875 10.472656 13.710938 10.46875 13.726562 10.464844 C 13.714844 10.550781 13.710938 10.640625 13.710938 10.734375 C 13.710938 11.222656 13.902344 11.664062 14.207031 12 L 5.484375 16.101562 L 5.484375 20.839844 L 7.128906 20.839844 C 8.035156 20.839844 8.773438 21.578125 8.773438 22.484375 L 8.773438 27.691406 C 8.773438 28.148438 8.40625 28.515625 7.949219 28.515625 C 7.730469 28.515625 7.523438 28.429688 7.371094 28.277344 C 7.214844 28.121094 7.128906 27.914062 7.128906 27.691406 L 7.128906 24.128906 C 7.128906 23.523438 6.636719 23.03125 6.03125 23.03125 L 2.742188 23.03125 C 1.835938 23.03125 1.097656 22.292969 1.097656 21.386719 Z M 3.839844 24.128906 L 6.03125 24.128906 L 6.03125 27.691406 C 6.03125 28.058594 6.136719 28.410156 6.328125 28.710938 L 3.839844 31.007812 Z M 1.097656 32.082031 L 1.097656 23.566406 C 1.554688 23.914062 2.121094 24.128906 2.742188 24.128906 L 2.742188 32.082031 C 2.742188 32.535156 2.371094 32.902344 1.917969 32.902344 C 1.464844 32.902344 1.097656 32.535156 1.097656 32.082031 Z M 32.902344 32.902344 L 3.644531 32.902344 C 3.699219 32.792969 3.738281 32.679688 3.769531 32.558594 L 7.160156 29.4375 C 7.40625 29.550781 7.671875 29.613281 7.949219 29.613281 C 9.011719 29.613281 9.871094 28.75 9.871094 27.691406 L 9.871094 26.9375 L 11.730469 25.226562 L 32.902344 25.226562 Z M 32.902344 32.902344 "/>
</svg>
