<svg width="30" height="30" viewBox="0 0 30 30" fill="none" xmlns="http://www.w3.org/2000/svg">
<circle cx="15" cy="15" r="15" fill="#FFEADC"/>
<path d="M17.5944 21.9036C17.4921 21.9036 17.3804 21.8757 17.2874 21.8292C16.9432 21.6525 16.8037 21.2341 16.9711 20.8901L18.9618 16.9198C19.0828 16.6873 19.3246 16.5386 19.5851 16.5386C19.8456 16.5386 20.0874 16.6873 20.2084 16.9291L22.1991 20.8994C22.3758 21.2434 22.2363 21.6618 21.8828 21.8385C21.5386 22.0152 21.12 21.8757 20.9433 21.5224L19.5851 18.798L18.2269 21.5224C18.0967 21.7641 17.8455 21.9036 17.5944 21.9036Z" fill="#FF9739"/>
<path d="M21.2142 21.1972H17.9399C17.5585 21.1972 17.2422 20.8811 17.2422 20.4998C17.2422 20.1186 17.5585 19.8025 17.9399 19.8025H21.2142C21.5956 19.8025 21.9119 20.1186 21.9119 20.4998C21.9119 20.8811 21.6049 21.1972 21.2142 21.1972Z" fill="#FF9739"/>
<path d="M19.5766 24.9998C16.5906 24.9998 14.1533 22.573 14.1533 19.579C14.1533 16.585 16.5812 14.1582 19.5766 14.1582C22.5627 14.1582 24.9999 16.585 24.9999 19.579C24.9999 22.573 22.572 24.9998 19.5766 24.9998ZM19.5766 15.5622C17.3533 15.5622 15.5487 17.366 15.5487 19.5883C15.5487 21.8105 17.3533 23.6144 19.5766 23.6144C21.7906 23.6144 23.6046 21.8105 23.6046 19.5883C23.6046 17.366 21.7999 15.5622 19.5766 15.5622Z" fill="#FF9739"/>
<path d="M8.35817 15.6557C7.3256 15.6557 6.50699 15.3674 5.93024 14.8095C5.31628 14.2144 5 13.3125 5 12.1502V8.5054C5 6.24596 6.24652 5 8.50701 5H12.1536C13.3164 5 14.2094 5.30684 14.814 5.92981C15.4001 6.53419 15.6885 7.40825 15.6606 8.52402V12.1502C15.6885 13.2846 15.4001 14.1773 14.7954 14.7817C14.1908 15.386 13.2978 15.6649 12.1442 15.6463H8.51631C8.4512 15.6556 8.40468 15.6557 8.35817 15.6557ZM8.50701 6.40402C7.00932 6.40402 6.39536 7.01772 6.39536 8.51471V12.1596C6.39536 12.9313 6.5628 13.4891 6.89768 13.8146C7.22327 14.1307 7.74422 14.2703 8.47911 14.261H12.1442C12.9256 14.2796 13.4652 14.1215 13.7908 13.7961C14.1164 13.4706 14.2652 12.922 14.2466 12.1689V8.5054C14.2652 7.76155 14.1164 7.23153 13.8001 6.9061C13.4745 6.57137 12.9163 6.40402 12.1442 6.40402H8.50701Z" fill="#FF9739"/>
<path d="M12.2088 9.98309H8.43206C8.05066 9.98309 7.73438 9.66696 7.73438 9.28574C7.73438 8.90451 8.05066 8.58838 8.43206 8.58838H12.2088C12.5902 8.58838 12.9065 8.90451 12.9065 9.28574C12.9065 9.66696 12.5995 9.98309 12.2088 9.98309Z" fill="#FF9739"/>
<path d="M10.3305 9.98352C9.94909 9.98352 9.63281 9.66738 9.63281 9.28616V8.6539C9.63281 8.27268 9.94909 7.95654 10.3305 7.95654C10.7119 7.95654 11.0282 8.27268 11.0282 8.6539V9.28616C11.0282 9.66738 10.7119 9.98352 10.3305 9.98352Z" fill="#FF9739"/>
<path d="M8.43206 12.9215C8.05066 12.9215 7.73438 12.6054 7.73438 12.2242C7.73438 11.843 8.05066 11.5268 8.43206 11.5268C9.61346 11.5268 10.5716 10.5226 10.5716 9.2767C10.5716 8.89548 10.8879 8.57935 11.2693 8.57935C11.6507 8.57935 11.967 8.89548 11.967 9.2767C11.967 11.2851 10.3856 12.9215 8.43206 12.9215Z" fill="#FF9739"/>
<path d="M12.2192 12.9217C11.354 12.9217 10.5261 12.4847 9.94008 11.713C9.70752 11.4062 9.77264 10.9691 10.0796 10.7366C10.3866 10.5042 10.8238 10.5693 11.0564 10.8761C11.3726 11.3038 11.7913 11.5363 12.2192 11.5363C12.6006 11.5363 12.9168 11.8525 12.9168 12.2337C12.9168 12.6149 12.6006 12.9217 12.2192 12.9217Z" fill="#FF9739"/>
<path d="M12.2094 25.0001C8.23724 25.0001 5 21.7643 5 17.794C5 17.4128 5.31628 17.0967 5.69768 17.0967C6.07908 17.0967 6.39536 17.4128 6.39536 17.794C6.39536 20.5463 8.31166 22.8522 10.8884 23.4566L10.6373 23.0382C10.4419 22.7034 10.5442 22.2757 10.8791 22.0805C11.2047 21.8852 11.6419 21.9875 11.8373 22.3222L12.814 23.9494C12.9443 24.1632 12.9443 24.4329 12.8233 24.6467C12.6931 24.8606 12.4605 25.0001 12.2094 25.0001Z" fill="#FF9739"/>
<path d="M24.3031 12.9124C23.9217 12.9124 23.6054 12.5963 23.6054 12.2151C23.6054 9.46282 21.6891 7.15687 19.1124 6.55249L19.3635 6.97092C19.5589 7.30565 19.4566 7.73339 19.1217 7.92865C18.7961 8.12391 18.3589 8.02163 18.1635 7.68689L17.1868 6.05972C17.0565 5.84586 17.0565 5.57622 17.1775 5.36236C17.2984 5.13921 17.531 5.00903 17.7821 5.00903C21.7542 5.00903 24.9915 8.24477 24.9915 12.2151C25.0008 12.5963 24.6845 12.9124 24.3031 12.9124Z" fill="#FF9739"/>
</svg>
