<svg width="30" height="30" viewBox="0 0 30 30" fill="none" xmlns="http://www.w3.org/2000/svg">
<circle cx="15" cy="15" r="15" fill="#FFEADC"/>
<path fill-rule="evenodd" clip-rule="evenodd" d="M15 5C20.5228 5 25 9.47715 25 15C25 20.5228 20.5228 25 15 25C9.47715 25 5 20.5228 5 15C5 9.47715 9.47715 5 15 5ZM15 7C10.5817 7 7 10.5817 7 15C7 19.4183 10.5817 23 15 23C19.4183 23 23 19.4183 23 15C23 10.5817 19.4183 7 15 7Z" fill="#FF9739"/>
<path fill-rule="evenodd" clip-rule="evenodd" d="M13.6838 15.7297C13.6838 15.4955 13.7588 15.2995 13.9089 15.1419C14.0589 14.9842 14.2487 14.9054 14.4782 14.9054C14.8401 14.9054 15.1667 14.8491 15.4579 14.7365C15.7492 14.6239 15.9809 14.4414 16.153 14.1892C16.3251 13.9369 16.4112 13.6036 16.4112 13.1892C16.4112 12.8829 16.3384 12.6126 16.1927 12.3784C16.0471 12.1441 15.8485 11.9595 15.5969 11.8243C15.3454 11.6892 15.0607 11.6216 14.743 11.6216C14.4958 11.6216 14.2641 11.6667 14.0479 11.7568C13.8316 11.8468 13.6352 11.9685 13.4587 12.1216C13.3175 12.2477 13.1476 12.3401 12.949 12.3986C12.7504 12.4572 12.5496 12.4099 12.3465 12.2568C12.1347 12.0946 12.02 11.9009 12.0023 11.6757C11.9846 11.4505 12.0685 11.2432 12.2539 11.0541C12.5716 10.7207 12.9445 10.4617 13.3726 10.277C13.8007 10.0923 14.2575 10 14.743 10C15.352 10 15.9015 10.1419 16.3913 10.4257C16.8812 10.7095 17.2718 11.0901 17.5631 11.5676C17.8544 12.045 18 12.5856 18 13.1892C18 13.6396 17.9338 14.0383 17.8014 14.3851C17.669 14.732 17.4814 15.0293 17.2387 15.277C16.996 15.5248 16.7135 15.723 16.3913 15.8716C16.0692 16.0203 15.7183 16.1261 15.3388 16.1892C15.3211 16.1982 15.3057 16.2072 15.2924 16.2162C15.2792 16.2252 15.2726 16.2387 15.2726 16.2568V16.7568C15.2726 16.991 15.1975 17.1869 15.0475 17.3446C14.8974 17.5023 14.7077 17.5811 14.4782 17.5811C14.2487 17.5811 14.0589 17.5023 13.9089 17.3446C13.7588 17.1869 13.6838 16.991 13.6838 16.7568V15.7297ZM14.412 20C14.156 20 13.9596 19.9302 13.8228 19.7905C13.686 19.6509 13.6176 19.4504 13.6176 19.1892V18.9595C13.6176 18.6982 13.686 18.4977 13.8228 18.3581C13.9596 18.2185 14.156 18.1486 14.412 18.1486H14.5841C14.8401 18.1486 15.0365 18.2185 15.1733 18.3581C15.3101 18.4977 15.3785 18.6982 15.3785 18.9595V19.1892C15.3785 19.4504 15.3101 19.6509 15.1733 19.7905C15.0365 19.9302 14.8401 20 14.5841 20H14.412Z" fill="#FF9739"/>
</svg>
