<?xml version="1.0" encoding="UTF-8"?>
<svg xmlns="http://www.w3.org/2000/svg" xmlns:xlink="http://www.w3.org/1999/xlink" width="22" height="22" viewBox="0 0 22 22">
<defs>
<clipPath id="clip-0">
<path clip-rule="nonzero" d="M 13.445312 0 C 14.050781 0 14.542969 0.492188 14.542969 1.101562 C 14.542969 1.664062 14.121094 2.128906 13.570312 2.191406 L 13.445312 2.199219 L 8.554688 2.199219 C 5.144531 2.199219 2.332031 4.929688 2.203125 8.3125 L 2.199219 8.554688 L 2.199219 13.445312 C 2.199219 16.855469 4.929688 19.667969 8.3125 19.796875 L 8.554688 19.800781 L 13.445312 19.800781 C 16.855469 19.800781 19.667969 17.070312 19.796875 13.6875 L 19.800781 13.445312 L 19.800781 8.554688 C 19.800781 7.949219 20.292969 7.457031 20.898438 7.457031 C 21.464844 7.457031 21.929688 7.878906 21.992188 8.429688 L 22 8.554688 L 22 13.445312 C 22 18.0625 18.296875 21.851562 13.714844 21.996094 L 13.445312 22 L 8.554688 22 C 3.9375 22 0.148438 18.300781 0.00390625 13.714844 L 0 13.445312 L 0 8.554688 C 0 3.9375 3.699219 0.148438 8.285156 0.00390625 L 8.554688 0 Z M 13.445312 0 "/>
</clipPath>
<clipPath id="clip-1">
<path clip-rule="nonzero" d="M 6 0 L 22 0 L 22 16 L 6 16 Z M 6 0 "/>
</clipPath>
<clipPath id="clip-2">
<path clip-rule="nonzero" d="M 16.699219 0.667969 L 7.398438 9.96875 C 7.109375 10.257812 6.929688 10.632812 6.882812 11.039062 L 6.613281 13.398438 C 6.480469 14.546875 7.453125 15.519531 8.601562 15.386719 L 10.960938 15.117188 C 11.367188 15.070312 11.742188 14.890625 12.03125 14.601562 L 21.332031 5.300781 C 22.222656 4.410156 22.222656 2.960938 21.332031 2.070312 L 19.929688 0.667969 C 19.039062 -0.222656 17.589844 -0.222656 16.699219 0.667969 Z M 19.773438 3.625 L 19.792969 3.652344 C 19.804688 3.683594 19.800781 3.722656 19.773438 3.746094 L 10.570312 12.949219 L 8.855469 13.144531 L 9.050781 11.425781 L 18.253906 2.226562 C 18.285156 2.191406 18.34375 2.191406 18.375 2.226562 Z M 19.773438 3.625 "/>
</clipPath>
<clipPath id="clip-3">
<path clip-rule="nonzero" d="M 15 2 L 21 2 L 21 8 L 15 8 Z M 15 2 "/>
</clipPath>
<clipPath id="clip-4">
<path clip-rule="nonzero" d="M 17.277344 2.523438 L 20.578125 5.820312 L 19.023438 7.378906 L 15.722656 4.078125 Z M 17.277344 2.523438 "/>
</clipPath>
</defs>
<g clip-path="url(#clip-0)">
<rect x="-2.2" y="-2.2" width="26.4" height="26.4" fill="rgb(100%, 100%, 100%)" fill-opacity="1"/>
</g>
<g clip-path="url(#clip-1)">
<g clip-path="url(#clip-2)">
<path fill-rule="nonzero" fill="rgb(100%, 100%, 100%)" fill-opacity="1" d="M 5.480469 -1 L 23 -1 L 23 16.519531 L 5.480469 16.519531 Z M 5.480469 -1 "/>
</g>
</g>
<g clip-path="url(#clip-3)">
<g clip-path="url(#clip-4)">
<path fill-rule="nonzero" fill="rgb(100%, 100%, 100%)" fill-opacity="1" d="M 14.722656 1.523438 L 21.578125 1.523438 L 21.578125 8.378906 L 14.722656 8.378906 Z M 14.722656 1.523438 "/>
</g>
</g>
</svg>
