<?xml version="1.0" encoding="UTF-8"?>
<svg xmlns="http://www.w3.org/2000/svg" xmlns:xlink="http://www.w3.org/1999/xlink" width="56" height="56" viewBox="0 0 56 56">
<defs>
<filter id="filter-remove-color" x="0%" y="0%" width="100%" height="100%">
<feColorMatrix color-interpolation-filters="sRGB" values="0 0 0 0 1 0 0 0 0 1 0 0 0 0 1 0 0 0 1 0" />
</filter>
<clipPath id="clip-0">
<rect x="0" y="0" width="56" height="56"/>
</clipPath>
<g id="source-7" clip-path="url(#clip-0)">
<path fill-rule="nonzero" fill="rgb(0%, 0%, 0%)" fill-opacity="1" d="M 0 28 C 0 12.535156 12.535156 0 28 0 C 43.464844 0 56 12.535156 56 28 C 56 43.464844 43.464844 56 28 56 C 12.535156 56 0 43.464844 0 28 Z M 0 28 "/>
</g>
<mask id="mask-0">
<g filter="url(#filter-remove-color)">
<use xlink:href="#source-7"/>
</g>
</mask>
<clipPath id="clip-1">
<rect x="0" y="0" width="56" height="56"/>
</clipPath>
<g id="source-6" clip-path="url(#clip-1)">
<path fill-rule="nonzero" fill="rgb(96.099854%, 37.298584%, 14.099121%)" fill-opacity="1" d="M 43.488281 34.21875 C 43.488281 34.21875 42.070312 30.863281 38.253906 32.359375 C 36.394531 28.851562 33.015625 30.496094 33.015625 30.496094 C 33.015625 30.496094 29.566406 32.003906 30.039062 36.507812 C 30.332031 39.34375 31.828125 41.277344 32.886719 42.320312 C 33.558594 42.980469 34.488281 43.316406 35.453125 43.234375 C 36.976562 43.105469 39.429688 42.574219 41.605469 40.613281 C 45.0625 37.503906 43.488281 34.214844 43.488281 34.214844 Z M 43.488281 34.21875 "/>
<path fill-rule="nonzero" fill="rgb(100%, 100%, 100%)" fill-opacity="1" d="M 41.480469 34.996094 C 41.632812 35.246094 41.847656 35.710938 41.949219 36.269531 C 42.054688 36.824219 42.042969 37.445312 41.78125 38.023438 L 42.382812 38.292969 C 42.714844 37.558594 42.71875 36.792969 42.601562 36.148438 C 42.480469 35.507812 42.234375 34.960938 42.039062 34.644531 Z M 41.480469 34.996094 "/>
<path fill-rule="nonzero" fill="rgb(39.607239%, 21.960449%, 14.509583%)" fill-opacity="1" d="M 40.738281 26.675781 C 40.753906 26.863281 40.910156 27 41.085938 26.984375 C 41.265625 26.96875 41.398438 26.804688 41.382812 26.621094 Z M 40.953125 21.21875 C 40.9375 21.035156 40.78125 20.898438 40.605469 20.914062 C 40.425781 20.929688 40.292969 21.089844 40.308594 21.277344 Z M 41.382812 26.621094 L 40.953125 21.21875 L 40.308594 21.277344 L 40.738281 26.675781 Z M 41.382812 26.621094 "/>
<path fill-rule="nonzero" fill="rgb(39.607239%, 21.960449%, 14.509583%)" fill-opacity="1" d="M 38.214844 23.828125 C 38.035156 23.84375 37.902344 24.007812 37.917969 24.191406 C 37.929688 24.375 38.085938 24.511719 38.265625 24.5 Z M 43.480469 24.0625 C 43.660156 24.050781 43.792969 23.886719 43.777344 23.703125 C 43.765625 23.519531 43.609375 23.378906 43.429688 23.394531 Z M 38.265625 24.5 L 43.480469 24.0625 L 43.429688 23.394531 L 38.214844 23.828125 Z M 38.265625 24.5 "/>
<path fill-rule="nonzero" fill="rgb(39.607239%, 21.960449%, 14.509583%)" fill-opacity="1" d="M 12.804688 38.765625 C 12.976562 38.816406 13.15625 38.710938 13.203125 38.53125 C 13.25 38.351562 13.148438 38.167969 12.976562 38.117188 Z M 8.660156 36.890625 C 8.488281 36.839844 8.308594 36.945312 8.261719 37.125 C 8.214844 37.300781 8.316406 37.488281 8.488281 37.535156 Z M 12.976562 38.117188 L 8.660156 36.890625 L 8.488281 37.535156 L 12.804688 38.765625 Z M 12.976562 38.117188 "/>
<path fill-rule="nonzero" fill="rgb(39.607239%, 21.960449%, 14.509583%)" fill-opacity="1" d="M 9.828125 39.972656 C 9.78125 40.148438 9.882812 40.335938 10.054688 40.382812 C 10.226562 40.433594 10.40625 40.328125 10.453125 40.148438 Z M 11.636719 35.683594 C 11.683594 35.503906 11.582031 35.320312 11.410156 35.273438 C 11.238281 35.222656 11.058594 35.328125 11.011719 35.507812 Z M 10.453125 40.148438 L 11.636719 35.683594 L 11.011719 35.507812 L 9.828125 39.972656 Z M 10.453125 40.148438 "/>
<path fill-rule="nonzero" fill="rgb(96.099854%, 37.298584%, 14.099121%)" fill-opacity="1" d="M 33.722656 22.109375 L 29.953125 23.039062 L 25.558594 24.113281 L 25.539062 24.113281 L 23.675781 24.574219 L 13.632812 27.042969 L 14.667969 22.414062 L 15.039062 20.75 L 16.214844 15.503906 L 16.464844 14.402344 L 16.859375 12.617188 L 18.191406 6.632812 C 18.449219 5.53125 19.8125 5.195312 20.527344 6.0625 L 22.925781 8.976562 L 23.902344 10.160156 L 26.261719 13.039062 L 27.300781 14.300781 L 28.273438 15.488281 L 31.65625 19.601562 L 32.640625 20.789062 Z M 33.722656 22.109375 "/>
<path fill-rule="nonzero" fill="rgb(100%, 100%, 100%)" fill-opacity="1" d="M 23.902344 10.160156 C 23.230469 10.742188 22.523438 11.289062 21.796875 11.78125 C 20.289062 12.800781 18.65625 13.628906 16.910156 14.253906 L 16.464844 14.402344 L 16.859375 12.617188 C 19.097656 11.761719 21.144531 10.535156 22.925781 8.976562 Z M 23.902344 10.160156 "/>
<path fill-rule="nonzero" fill="rgb(100%, 100%, 100%)" fill-opacity="1" d="M 28.277344 15.484375 C 27.261719 16.375 26.230469 17.167969 25.203125 17.863281 C 21.464844 20.390625 17.75 21.6875 15.035156 22.355469 L 14.671875 22.417969 L 15.042969 20.753906 C 18.304688 19.925781 23.007812 18.125 27.300781 14.308594 L 27.304688 14.304688 L 28.277344 15.492188 Z M 28.277344 15.484375 "/>
<path fill-rule="nonzero" fill="rgb(100%, 100%, 100%)" fill-opacity="1" d="M 32.640625 20.789062 C 31.78125 21.597656 30.882812 22.347656 29.953125 23.039062 L 25.558594 24.113281 L 27.417969 22.902344 C 28.925781 21.945312 30.34375 20.84375 31.640625 19.625 L 31.660156 19.601562 Z M 32.640625 20.789062 "/>
<path fill-rule="nonzero" fill="rgb(95.298767%, 78.399658%, 70.199585%)" fill-opacity="1" d="M 26.421875 42.628906 C 24.546875 44.441406 21.542969 44.703125 19.597656 42.878906 C 17.867188 41.253906 17.558594 38.511719 19.109375 36.640625 C 19.75 35.863281 20.941406 35.035156 21.972656 35.453125 C 23.164062 35.933594 22.632812 37.679688 22.085938 38.453125 C 21.390625 39.414062 20.265625 40.019531 19.105469 40.011719 C 18.011719 40.003906 17.003906 39.417969 16.25 38.621094 C 14.140625 36.382812 14.574219 32.953125 15.730469 30.34375 C 16.046875 29.625 14.996094 29.039062 14.675781 29.765625 C 13.339844 32.777344 12.9375 36.515625 15.160156 39.207031 C 16.113281 40.363281 17.457031 41.148438 18.933594 41.238281 C 20.410156 41.332031 21.984375 40.566406 22.917969 39.347656 C 23.851562 38.132812 24.34375 36.300781 23.339844 35.011719 C 22.335938 33.722656 20.636719 33.996094 19.449219 34.730469 C 16.792969 36.371094 16.148438 40.195312 17.917969 42.761719 C 20.15625 46.007812 24.582031 46.101562 27.300781 43.464844 C 27.859375 42.921875 26.980469 42.085938 26.421875 42.628906 Z M 26.421875 42.628906 "/>
</g>
</defs>
<g mask="url(#mask-0)">
<use xlink:href="#source-6"/>
</g>
</svg>
