<svg width="56" height="56" viewBox="0 0 56 56" fill="none" xmlns="http://www.w3.org/2000/svg">
<g clip-path="url(#clip0_2491_5850)">
<path d="M43.4899 34.2202C43.4899 34.2202 42.0686 30.8634 38.2527 32.3589C36.3957 28.85 33.0154 30.4976 33.0154 30.4976C33.0154 30.4976 29.5672 32.0027 30.0388 36.5072C30.334 39.3423 31.8264 41.2756 32.885 42.3203C33.5568 42.982 34.4872 43.3153 35.4543 43.234C36.9765 43.1065 39.431 42.5758 41.6057 40.6149C45.0633 37.5048 43.4892 34.2148 43.4892 34.2148L43.4899 34.2202Z" fill="#F55F24"/>
<path d="M41.758 34.8208C42.1126 35.3854 42.6741 36.8434 42.0833 38.159" stroke="white" stroke-width="0.66"/>
<path d="M41.0606 26.6496L40.6309 21.2479" stroke="#653825" stroke-width="0.66" stroke-miterlimit="10" stroke-linecap="round"/>
<path d="M38.2399 24.1641L43.4552 23.7297" stroke="#653825" stroke-width="0.66" stroke-miterlimit="10" stroke-linecap="round"/>
<path d="M12.8896 38.4418L8.57437 37.2125" stroke="#653825" stroke-width="0.66" stroke-miterlimit="10" stroke-linecap="round"/>
<path d="M10.1407 40.0594L11.3234 35.5951" stroke="#653825" stroke-width="0.66" stroke-miterlimit="10" stroke-linecap="round"/>
<path d="M33.7236 22.1108L29.9513 23.0379L25.5574 24.1125L25.5387 24.1142L23.6759 24.5757L13.6332 27.045L14.6677 22.4139L15.0394 20.751L16.2157 15.5041L16.4641 14.402L16.8575 12.6156L18.1932 6.63439C18.4509 5.53144 19.8126 5.19695 20.5258 6.06322L22.924 8.9749L23.901 10.1584L26.2634 13.0392L27.2992 14.3003L28.2719 15.489L31.6582 19.6027L32.6403 20.7907L33.7236 22.1108Z" fill="#F55F24"/>
<path d="M23.901 10.1586C23.2296 10.7434 22.5217 11.2877 21.795 11.7801C20.2882 12.7989 18.6562 13.6293 16.9117 14.2555L16.4641 14.4021L16.8575 12.6157C19.0986 11.7607 21.1462 10.5335 22.924 8.97503L23.901 10.1586Z" fill="white"/>
<path d="M28.2762 15.4838C27.2612 16.3763 26.2324 17.1679 25.2041 17.8622C21.4638 20.3922 17.7483 21.689 15.0342 22.3571L14.6729 22.4183L15.0446 20.7554C18.3039 19.9271 23.0082 18.1245 27.3001 14.3099L27.3044 14.3046L28.2771 15.4934L28.2762 15.4838Z" fill="white"/>
<path d="M32.6403 20.7904C31.782 21.5961 30.8812 22.3473 29.9513 23.0377L25.5574 24.1122L27.4184 22.9016C28.9262 21.946 30.3454 20.8425 31.6413 19.6234L31.6582 19.6025L32.6403 20.7904Z" fill="white"/>
<path d="M26.42 42.6288C24.5486 44.4403 21.5417 44.7033 19.5965 42.877C17.8654 41.2544 17.5579 38.5132 19.1076 36.6399C19.751 35.8633 20.9401 35.0345 21.9741 35.4523C23.1638 35.9327 22.6332 37.6814 22.0843 38.454C21.3913 39.4143 20.2652 40.0207 19.1071 40.0126C18.0107 40.0023 17.002 39.4172 16.2512 38.6212C14.1423 36.3816 14.5754 32.9537 15.7287 30.3445C16.0476 29.6233 14.9974 29.0383 14.6759 29.7647C13.3383 32.7769 12.9393 36.517 15.1608 39.2077C16.1132 40.3619 17.4554 41.1473 18.9335 41.2392C20.4115 41.3311 21.9853 40.5657 22.9183 39.3485C23.8513 38.1313 24.3448 36.2996 23.3403 35.0111C22.3357 33.7226 20.6377 33.9975 19.4495 34.7312C16.7911 36.3698 16.1473 40.1961 17.9165 42.7629C20.1564 46.0077 24.5823 46.1009 27.2994 43.4659C27.8581 42.9229 26.9786 42.0858 26.4238 42.6276L26.42 42.6288Z" fill="#F3C8B3"/>
</g>
<defs>
<clipPath id="clip0_2491_5850">
<rect width="56" height="56" rx="28" fill="white"/>
</clipPath>
</defs>
</svg>
