<?xml version="1.0" encoding="UTF-8"?>
<svg xmlns="http://www.w3.org/2000/svg" xmlns:xlink="http://www.w3.org/1999/xlink" width="44" height="44" viewBox="0 0 44 44">
<defs>
<clipPath id="clip-0">
<path clip-rule="nonzero" d="M 3 17 L 41 17 L 41 39 L 3 39 Z M 3 17 "/>
</clipPath>
<clipPath id="clip-1">
<path clip-rule="evenodd" d="M 39.265625 35.007812 L 31.578125 38.238281 L 31.445312 38.289062 L 31.328125 38.25 L 21.738281 35.359375 L 21.605469 35.320312 L 21.488281 35.359375 L 11.886719 38.25 L 11.757812 38.289062 L 11.636719 38.238281 L 3.945312 35.007812 C 3.238281 34.757812 2.847656 34 3.058594 33.289062 L 3.4375 31.988281 L 3.714844 31.039062 L 7.125 19.488281 C 7.355469 18.71875 8.1875 18.289062 8.945312 18.558594 L 13.097656 20.027344 L 13.214844 20.070312 L 13.347656 20.019531 L 21.488281 17.140625 L 21.605469 17.097656 L 21.738281 17.148438 L 29.867188 20.019531 L 29.996094 20.070312 L 30.117188 20.027344 L 34.265625 18.558594 C 35.027344 18.289062 35.855469 18.71875 36.085938 19.488281 L 39.488281 31.039062 L 39.765625 31.988281 L 40.148438 33.289062 C 40.355469 34 39.964844 34.757812 39.265625 35.007812 "/>
</clipPath>
<clipPath id="clip-2">
<path clip-rule="nonzero" d="M 11 20 L 14 20 L 14 39 L 11 39 Z M 11 20 "/>
</clipPath>
<clipPath id="clip-3">
<path clip-rule="evenodd" d="M 13.21875 20.070312 L 13.097656 20.027344 L 11.988281 33.90625 L 11.898438 34.9375 L 11.636719 38.238281 L 11.757812 38.289062 L 11.886719 38.25 L 12.148438 34.960938 L 12.238281 33.890625 L 13.347656 20.019531 Z M 13.21875 20.070312 "/>
</clipPath>
<clipPath id="clip-4">
<path clip-rule="nonzero" d="M 29 20 L 32 20 L 32 39 L 29 39 Z M 29 20 "/>
</clipPath>
<clipPath id="clip-5">
<path clip-rule="evenodd" d="M 30.976562 33.890625 L 31.054688 34.957031 L 31.328125 38.25 L 31.449219 38.289062 L 31.578125 38.238281 L 31.304688 34.9375 L 31.226562 33.910156 L 30.117188 20.027344 L 29.996094 20.070312 L 29.867188 20.019531 Z M 30.976562 33.890625 "/>
</clipPath>
<clipPath id="clip-6">
<path clip-rule="nonzero" d="M 21 17 L 22 17 L 22 36 L 21 36 Z M 21 17 "/>
</clipPath>
<clipPath id="clip-7">
<path clip-rule="evenodd" d="M 21.488281 17.140625 L 21.488281 35.359375 L 21.605469 35.320312 L 21.738281 35.359375 L 21.738281 17.148438 L 21.605469 17.097656 Z M 21.488281 17.140625 "/>
</clipPath>
<clipPath id="clip-8">
<path clip-rule="nonzero" d="M 3 31 L 40 31 L 40 35 L 3 35 Z M 3 31 "/>
</clipPath>
<clipPath id="clip-9">
<path clip-rule="evenodd" d="M 39.765625 31.988281 L 31.308594 34.9375 C 31.226562 34.960938 31.136719 34.980469 31.058594 34.960938 C 31.035156 34.960938 31.015625 34.949219 30.996094 34.949219 L 21.738281 32.070312 L 21.605469 32.027344 L 21.488281 32.070312 L 12.214844 34.949219 C 12.195312 34.949219 12.167969 34.960938 12.148438 34.960938 C 12.117188 34.96875 12.097656 34.96875 12.066406 34.96875 C 12.007812 34.96875 11.957031 34.960938 11.898438 34.9375 L 3.4375 31.988281 L 3.714844 31.039062 C 3.726562 31.027344 3.738281 31.039062 3.746094 31.039062 L 11.988281 33.910156 L 12.078125 33.9375 L 12.238281 33.890625 L 21.457031 31.027344 L 21.488281 31.027344 C 21.566406 31 21.65625 31 21.738281 31.027344 L 21.757812 31.027344 L 30.976562 33.890625 L 31.136719 33.9375 L 31.226562 33.910156 L 39.457031 31.039062 C 39.464844 31.039062 39.476562 31.027344 39.488281 31.039062 Z M 39.765625 31.988281 "/>
</clipPath>
<clipPath id="clip-10">
<path clip-rule="nonzero" d="M 10 1 L 33 1 L 33 27 L 10 27 Z M 10 1 "/>
</clipPath>
<clipPath id="clip-11">
<path clip-rule="evenodd" d="M 21.507812 17 C 19.015625 17 17 14.984375 17 12.507812 C 17 10.015625 19.015625 8 21.507812 8 C 23.984375 8 26 10.015625 26 12.507812 C 26 14.984375 23.984375 17 21.507812 17 M 25.835938 1.792969 C 24.46875 1.273438 23 1 21.507812 1 C 20 1 18.542969 1.273438 17.160156 1.792969 C 11.910156 3.753906 9.164062 8.890625 10.226562 14.257812 C 10.660156 16.417969 11.808594 18.429688 13.484375 20.160156 L 19.207031 26.035156 C 20.472656 27.320312 22.527344 27.320312 23.792969 26.035156 L 29.515625 20.160156 C 31.191406 18.429688 32.355469 16.417969 32.773438 14.257812 C 33.835938 8.890625 31.089844 3.753906 25.835938 1.792969 "/>
</clipPath>
<clipPath id="clip-12">
<path clip-rule="nonzero" d="M 13 22 L 16 22 L 16 25 L 13 25 Z M 13 22 "/>
</clipPath>
<clipPath id="clip-13">
<path clip-rule="evenodd" d="M 14.851562 22.984375 C 14.453125 22.984375 14.125 23.308594 14.125 23.707031 C 14.125 24.105469 14.453125 24.429688 14.851562 24.429688 C 15.25 24.429688 15.574219 24.105469 15.574219 23.707031 C 15.574219 23.308594 15.25 22.984375 14.851562 22.984375 M 14.851562 24.679688 C 14.3125 24.679688 13.875 24.246094 13.875 23.707031 C 13.875 23.171875 14.3125 22.734375 14.851562 22.734375 C 15.386719 22.734375 15.824219 23.171875 15.824219 23.707031 C 15.824219 24.246094 15.386719 24.679688 14.851562 24.679688 "/>
</clipPath>
<clipPath id="clip-14">
<path clip-rule="nonzero" d="M 33 29 L 36 29 L 36 32 L 33 32 Z M 33 29 "/>
</clipPath>
<clipPath id="clip-15">
<path clip-rule="evenodd" d="M 33.382812 31.132812 C 33.351562 31.132812 33.320312 31.121094 33.292969 31.097656 C 33.246094 31.046875 33.246094 30.96875 33.292969 30.917969 L 34.945312 29.273438 C 34.992188 29.222656 35.070312 29.222656 35.121094 29.273438 C 35.167969 29.320312 35.167969 29.402344 35.121094 29.449219 L 33.472656 31.097656 C 33.449219 31.121094 33.414062 31.132812 33.382812 31.132812 "/>
</clipPath>
<clipPath id="clip-16">
<path clip-rule="nonzero" d="M 33 29 L 36 29 L 36 32 L 33 32 Z M 33 29 "/>
</clipPath>
<clipPath id="clip-17">
<path clip-rule="evenodd" d="M 35.03125 31.132812 C 35 31.132812 34.96875 31.121094 34.941406 31.097656 L 33.296875 29.449219 C 33.246094 29.402344 33.246094 29.320312 33.296875 29.273438 C 33.34375 29.222656 33.425781 29.222656 33.472656 29.273438 L 35.121094 30.917969 C 35.167969 30.96875 35.167969 31.046875 35.121094 31.097656 C 35.097656 31.121094 35.0625 31.132812 35.03125 31.132812 "/>
</clipPath>
</defs>
<g clip-path="url(#clip-0)">
<g clip-path="url(#clip-1)">
<path fill-rule="nonzero" fill="rgb(100%, 58.824158%, 36.470032%)" fill-opacity="1" d="M 1.847656 16.097656 L 41.355469 16.097656 L 41.355469 39.289062 L 1.847656 39.289062 Z M 1.847656 16.097656 "/>
</g>
</g>
<g clip-path="url(#clip-2)">
<g clip-path="url(#clip-3)">
<path fill-rule="nonzero" fill="rgb(89.019775%, 40.783691%, 21.960449%)" fill-opacity="1" d="M 10.636719 19.019531 L 14.347656 19.019531 L 14.347656 39.289062 L 10.636719 39.289062 Z M 10.636719 19.019531 "/>
</g>
</g>
<g clip-path="url(#clip-4)">
<g clip-path="url(#clip-5)">
<path fill-rule="nonzero" fill="rgb(89.019775%, 40.783691%, 21.960449%)" fill-opacity="1" d="M 28.867188 19.019531 L 32.578125 19.019531 L 32.578125 39.289062 L 28.867188 39.289062 Z M 28.867188 19.019531 "/>
</g>
</g>
<g clip-path="url(#clip-6)">
<g clip-path="url(#clip-7)">
<path fill-rule="nonzero" fill="rgb(89.019775%, 40.783691%, 21.960449%)" fill-opacity="1" d="M 20.488281 16.097656 L 22.738281 16.097656 L 22.738281 36.359375 L 20.488281 36.359375 Z M 20.488281 16.097656 "/>
</g>
</g>
<g clip-path="url(#clip-8)">
<g clip-path="url(#clip-9)">
<path fill-rule="nonzero" fill="rgb(100%, 98.039246%, 97.254944%)" fill-opacity="1" d="M 2.4375 30 L 40.765625 30 L 40.765625 35.980469 L 2.4375 35.980469 Z M 2.4375 30 "/>
</g>
</g>
<g clip-path="url(#clip-10)">
<g clip-path="url(#clip-11)">
<path fill-rule="nonzero" fill="rgb(89.019775%, 40.783691%, 21.960449%)" fill-opacity="1" d="M 8.164062 0 L 34.835938 0 L 34.835938 28.320312 L 8.164062 28.320312 Z M 8.164062 0 "/>
</g>
</g>
<g clip-path="url(#clip-12)">
<g clip-path="url(#clip-13)">
<path fill-rule="nonzero" fill="rgb(89.019775%, 40.783691%, 21.960449%)" fill-opacity="1" d="M 12.875 21.734375 L 16.824219 21.734375 L 16.824219 25.679688 L 12.875 25.679688 Z M 12.875 21.734375 "/>
</g>
</g>
<g clip-path="url(#clip-14)">
<g clip-path="url(#clip-15)">
<path fill-rule="nonzero" fill="rgb(89.019775%, 40.783691%, 21.960449%)" fill-opacity="1" d="M 32.246094 28.222656 L 36.167969 28.222656 L 36.167969 32.132812 L 32.246094 32.132812 Z M 32.246094 28.222656 "/>
</g>
</g>
<g clip-path="url(#clip-16)">
<g clip-path="url(#clip-17)">
<path fill-rule="nonzero" fill="rgb(89.019775%, 40.783691%, 21.960449%)" fill-opacity="1" d="M 32.246094 28.222656 L 36.167969 28.222656 L 36.167969 32.132812 L 32.246094 32.132812 Z M 32.246094 28.222656 "/>
</g>
</g>
</svg>
