<?xml version="1.0" encoding="UTF-8"?>
<svg xmlns="http://www.w3.org/2000/svg" xmlns:xlink="http://www.w3.org/1999/xlink" width="24" height="24" viewBox="0 0 24 24">
<path fill-rule="nonzero" fill="rgb(100%, 59.2%, 22.3%)" fill-opacity="1" d="M 12 2 C 6.480469 2 2 6.480469 2 12 C 2 17.519531 6.480469 22 12 22 C 17.519531 22 22 17.519531 22 12 C 22 6.480469 17.519531 2 12 2 Z M 7.070312 18.28125 C 7.5 17.378906 10.121094 16.5 12 16.5 C 13.878906 16.5 16.511719 17.378906 16.929688 18.28125 C 15.570312 19.359375 13.859375 20 12 20 C 10.140625 20 8.429688 19.359375 7.070312 18.28125 Z M 18.359375 16.828125 C 16.929688 15.089844 13.460938 14.5 12 14.5 C 10.539062 14.5 7.070312 15.089844 5.640625 16.828125 C 4.621094 15.488281 4 13.820312 4 12 C 4 7.589844 7.589844 4 12 4 C 16.410156 4 20 7.589844 20 12 C 20 13.820312 19.378906 15.488281 18.359375 16.828125 Z M 12 6 C 10.058594 6 8.5 7.558594 8.5 9.5 C 8.5 11.441406 10.058594 13 12 13 C 13.941406 13 15.5 11.441406 15.5 9.5 C 15.5 7.558594 13.941406 6 12 6 Z M 12 11 C 11.171875 11 10.5 10.328125 10.5 9.5 C 10.5 8.671875 11.171875 8 12 8 C 12.828125 8 13.5 8.671875 13.5 9.5 C 13.5 10.328125 12.828125 11 12 11 Z M 12 11 "/>
</svg>
