<?xml version="1.0" encoding="UTF-8"?>
<svg xmlns="http://www.w3.org/2000/svg" xmlns:xlink="http://www.w3.org/1999/xlink" width="20" height="20" viewBox="0 0 20 20">
<defs>
<clipPath id="clip-0">
<path clip-rule="nonzero" d="M 0 2 L 20 2 L 20 18 L 0 18 Z M 0 2 "/>
</clipPath>
<clipPath id="clip-1">
<path clip-rule="evenodd" d="M 17 2 C 18.65625 2 20 3.34375 20 5 L 20 15 C 20 16.65625 18.65625 18 17 18 L 3 18 C 1.34375 18 0 16.65625 0 15 L 0 5 C 0 3.34375 1.34375 2 3 2 Z M 17 4 L 3 4 C 2.488281 4 2.066406 4.386719 2.007812 4.882812 L 2 5 L 2 15 C 2 15.511719 2.386719 15.933594 2.882812 15.992188 L 3 16 L 17 16 C 17.511719 16 17.933594 15.613281 17.992188 15.117188 L 18 15 L 18 5 C 18 4.488281 17.613281 4.066406 17.117188 4.007812 Z M 17 4 "/>
</clipPath>
<clipPath id="clip-2">
<path clip-rule="nonzero" d="M 1 3 L 19 3 L 19 12 L 1 12 Z M 1 3 "/>
</clipPath>
<clipPath id="clip-3">
<path clip-rule="evenodd" d="M 17.324219 3.261719 C 17.730469 2.890625 18.363281 2.917969 18.738281 3.324219 C 19.082031 3.699219 19.085938 4.269531 18.761719 4.648438 L 18.675781 4.738281 L 12.027344 10.828125 C 10.925781 11.832031 9.265625 11.875 8.121094 10.953125 L 7.972656 10.828125 L 1.324219 4.738281 C 0.917969 4.363281 0.890625 3.730469 1.261719 3.324219 C 1.605469 2.949219 2.171875 2.894531 2.578125 3.183594 L 2.675781 3.261719 L 9.324219 9.351562 C 9.675781 9.671875 10.195312 9.699219 10.574219 9.429688 L 10.675781 9.351562 Z M 17.324219 3.261719 "/>
</clipPath>
<clipPath id="clip-4">
<path clip-rule="nonzero" d="M 1 9 L 9 9 L 9 18 L 1 18 Z M 1 9 "/>
</clipPath>
<clipPath id="clip-5">
<path clip-rule="evenodd" d="M 7.265625 9.320312 C 7.640625 8.914062 8.273438 8.890625 8.679688 9.265625 C 9.054688 9.613281 9.101562 10.179688 8.8125 10.582031 L 8.734375 10.679688 L 2.734375 17.15625 C 2.359375 17.5625 1.726562 17.585938 1.320312 17.210938 C 0.945312 16.867188 0.898438 16.300781 1.1875 15.894531 L 1.265625 15.800781 Z M 7.265625 9.320312 "/>
</clipPath>
<clipPath id="clip-6">
<path clip-rule="nonzero" d="M 11 9 L 19 9 L 19 17 L 11 17 Z M 11 9 "/>
</clipPath>
<clipPath id="clip-7">
<path clip-rule="evenodd" d="M 11.304688 9.292969 C 11.664062 8.933594 12.230469 8.90625 12.625 9.210938 L 12.71875 9.292969 L 18.707031 15.292969 C 19.097656 15.683594 19.097656 16.316406 18.707031 16.707031 C 18.347656 17.066406 17.777344 17.09375 17.386719 16.789062 L 17.292969 16.707031 L 11.300781 10.707031 C 10.914062 10.316406 10.914062 9.683594 11.304688 9.292969 Z M 11.304688 9.292969 "/>
</clipPath>
</defs>
<g clip-path="url(#clip-0)">
<g clip-path="url(#clip-1)">
<path fill-rule="nonzero" fill="rgb(100%, 59.2%, 22.3%)" fill-opacity="1" d="M -1 1 L 21 1 L 21 19 L -1 19 Z M -1 1 "/>
</g>
</g>
<g clip-path="url(#clip-2)">
<g clip-path="url(#clip-3)">
<path fill-rule="nonzero" fill="rgb(100%, 59.2%, 22.3%)" fill-opacity="1" d="M -0.109375 1.890625 L 20.085938 1.890625 L 20.085938 12.875 L -0.109375 12.875 Z M -0.109375 1.890625 "/>
</g>
</g>
<g clip-path="url(#clip-4)">
<g clip-path="url(#clip-5)">
<path fill-rule="nonzero" fill="rgb(100%, 59.2%, 22.3%)" fill-opacity="1" d="M -0.101562 7.890625 L 10.101562 7.890625 L 10.101562 18.585938 L -0.101562 18.585938 Z M -0.101562 7.890625 "/>
</g>
</g>
<g clip-path="url(#clip-6)">
<g clip-path="url(#clip-7)">
<path fill-rule="nonzero" fill="rgb(100%, 59.2%, 22.3%)" fill-opacity="1" d="M 9.914062 7.90625 L 20.097656 7.90625 L 20.097656 18.09375 L 9.914062 18.09375 Z M 9.914062 7.90625 "/>
</g>
</g>
</svg>
