<?xml version="1.0" encoding="UTF-8"?>
<svg xmlns="http://www.w3.org/2000/svg" xmlns:xlink="http://www.w3.org/1999/xlink" width="20" height="20" viewBox="0 0 20 20">
<defs>
<clipPath id="clip-0">
<path clip-rule="nonzero" d="M 2 1 L 19 1 L 19 18 L 2 18 Z M 2 1 "/>
</clipPath>
<clipPath id="clip-1">
<path clip-rule="evenodd" d="M 3.65625 1.835938 L 3.746094 1.914062 L 10.105469 8.277344 L 16.167969 2.21875 C 16.542969 1.847656 17.160156 1.859375 17.550781 2.25 C 17.914062 2.613281 17.953125 3.171875 17.65625 3.546875 L 17.582031 3.632812 L 11.523438 9.691406 L 17.886719 16.058594 C 18.277344 16.449219 18.292969 17.066406 17.921875 17.4375 C 17.574219 17.78125 17.015625 17.792969 16.625 17.480469 L 16.539062 17.402344 L 10.175781 11.039062 L 4.113281 17.101562 C 3.742188 17.472656 3.125 17.457031 2.734375 17.066406 C 2.371094 16.703125 2.332031 16.144531 2.625 15.769531 L 2.699219 15.6875 L 8.761719 9.625 L 2.398438 3.261719 C 2.007812 2.871094 1.992188 2.253906 2.363281 1.882812 C 2.710938 1.535156 3.265625 1.523438 3.65625 1.835938 Z M 3.65625 1.835938 "/>
</clipPath>
</defs>
<g clip-path="url(#clip-0)">
<g clip-path="url(#clip-1)">
<path fill-rule="nonzero" fill="rgb(100%, 59.2%, 22.3%)" fill-opacity="1" d="M 0.992188 0.523438 L 19.292969 0.523438 L 19.292969 18.792969 L 0.992188 18.792969 Z M 0.992188 0.523438 "/>
</g>
</g>
</svg>
