<?xml version="1.0" encoding="UTF-8"?>
<svg xmlns="http://www.w3.org/2000/svg" xmlns:xlink="http://www.w3.org/1999/xlink" width="20" height="21" viewBox="0 0 20 21">
<path fill-rule="evenodd" fill="rgb(15.686035%, 14.509583%, 13.725281%)" fill-opacity="1" d="M 17.785156 3.785156 C 18.09375 3.378906 18.070312 2.78125 17.710938 2.40625 C 17.324219 1.996094 16.695312 1.996094 16.308594 2.40625 L 10 9.027344 L 3.691406 2.40625 L 3.605469 2.324219 C 3.214844 2 2.648438 2.027344 2.289062 2.40625 C 1.902344 2.8125 1.902344 3.46875 2.289062 3.875 L 8.597656 10.5 L 2.289062 17.121094 L 2.214844 17.214844 C 1.90625 17.621094 1.929688 18.21875 2.289062 18.59375 C 2.675781 19 3.304688 19 3.691406 18.59375 L 10 11.972656 L 16.308594 18.59375 L 16.394531 18.675781 C 16.785156 19 17.351562 18.972656 17.710938 18.59375 C 18.097656 18.1875 18.097656 17.53125 17.710938 17.121094 L 11.402344 10.5 L 17.710938 3.875 Z M 17.785156 3.785156 "/>
</svg>
