<svg width="56" height="56" viewBox="0 0 56 56" fill="none" xmlns="http://www.w3.org/2000/svg">
<g clip-path="url(#clip0_577_772)">
<g clip-path="url(#clip1_577_772)">
<path d="M20.1389 18.3631C21.1921 16.5955 24.7801 17.806 25.8391 21.5073C26.8981 25.2085 27.4711 27.742 27.4711 27.742C28.5938 27.426 35.7003 26.044 36.4989 26.1351C37.2975 26.2262 39.5001 26.5001 39.9943 28.6686C39.9943 31.1325 39.4966 31.4753 38.9931 31.486C40.0001 32.0001 40.3936 34.5391 39.0452 35.4926C39.3924 37.3726 39.0452 38.8992 38.2466 39.0384C38.9468 40.4257 39.4966 42.6914 35.5961 43.6609C31.6956 44.6304 30.7454 44.5876 30.4965 43.5217C28.1528 43.8912 21.3136 43.752 20.6597 43.752C20.0058 43.752 16.3831 30.6397 16.3831 30.6397C16.3831 30.6397 20.8102 28.1705 21.2326 26.6922C21.6551 25.2138 20.5092 20.2646 20.4571 19.7557C20.4051 19.2469 20.0115 18.5666 20.1273 18.3685L20.1389 18.3631Z" fill="#F3C8B3"/>
<path d="M16.9143 30.4738C16.9143 30.4738 20.2882 28.3794 21.2951 27.0725C22.3021 25.7656 20.7048 19.7504 20.7048 19.7504" stroke="#653825" stroke-width="0.66" stroke-miterlimit="10" stroke-linecap="round"/>
<path d="M35.5 36.5C33.0128 36.9023 32.3256 37.3938 31.2417 36.9867C30.1579 36.5796 29.6342 34.8785 30.2888 34.1321C30.7181 33.6426 35.5 32.8 35.5 32.8" stroke="#653825" stroke-width="0.597178" stroke-miterlimit="10" stroke-linecap="round"/>
<path d="M35.5 32.8C33.5 33.1 32.3308 33.7205 31.2417 33.3134C30.1525 32.9063 29.6341 31.2051 30.2887 30.4588C30.718 29.9693 35.8966 29 35.8966 29" stroke="#653825" stroke-width="0.597178" stroke-miterlimit="10" stroke-linecap="round"/>
<path d="M35.8967 40C33.5 40.5 32.3256 41.1255 31.2417 40.7184C30.1579 40.3113 29.6342 38.6102 30.2888 37.8638C30.7181 37.3743 35.8967 36.405 35.8967 36.405" stroke="#653825" stroke-width="0.597178" stroke-miterlimit="10" stroke-linecap="round"/>
<path d="M31.2417 44.3004C30.1579 43.8933 29.6342 42.1922 30.2888 41.4459C30.7181 40.9564 35.8967 39.9871 35.8967 39.9871" stroke="#653825" stroke-width="0.597178" stroke-miterlimit="10" stroke-linecap="round"/>
<path d="M16.1216 43.753C17.3784 43.753 20.6655 43.752 20.6655 43.752L16.3888 30.6398C16.3888 30.6398 10.6423 30.7695 9.83788 32.1139C8.19436 34.8724 12.4391 44.4311 13.6081 44.1687C14.4125 43.9919 15.7976 43.9137 16.1216 43.753Z" fill="#F3C8B3"/>
<path fill-rule="evenodd" clip-rule="evenodd" d="M38.1303 15.2781C38.1303 15.2781 37.0132 12.7769 34.1732 13.8872C32.7257 11.2708 30.2161 12.4963 30.2161 12.4963C30.2161 12.4963 27.653 13.6129 28.0781 16.9705C28.3448 19.084 29.4912 20.5262 30.304 21.3044C30.819 21.7972 31.5229 22.044 32.2445 21.9859C33.3829 21.8935 35.2147 21.4987 36.8165 20.0419C39.3604 17.7272 38.1303 15.2781 38.1303 15.2781Z" fill="#FF9739"/>
<path d="M36 15C36.3333 15.3333 37 16.2 37 17" stroke="white" stroke-width="0.66"/>
</g>
<path d="M15.814 30.425L-7.01858 29.5886L-2.79382 47.1502C3.4085 46.4768 16.057 44.8281 16.4975 44.7385C17.703 44.4932 16.2075 35.2055 16.1049 30.7187C16.1012 30.5584 15.9742 30.4309 15.814 30.425Z" fill="#FF9739"/>
</g>
<defs>
<clipPath id="clip0_577_772">
<rect width="56" height="56" rx="28" fill="white"/>
</clipPath>
<clipPath id="clip1_577_772">
<rect width="31" height="34" fill="white" transform="translate(9 11)"/>
</clipPath>
</defs>
</svg>
