<?xml version="1.0" encoding="UTF-8"?>
<svg xmlns="http://www.w3.org/2000/svg" xmlns:xlink="http://www.w3.org/1999/xlink" width="34" height="34" viewBox="0 0 34 34">
<path fill-rule="nonzero" fill="rgb(96.078491%, 37.254333%, 14.117432%)" fill-opacity="1" d="M 26.632812 19.265625 C 30.699219 19.269531 33.996094 22.566406 34 26.632812 C 34 30.703125 30.703125 34 26.632812 34 C 22.566406 34 19.265625 30.703125 19.265625 26.632812 C 19.265625 22.566406 22.566406 19.265625 26.632812 19.265625 Z M 26.632812 20.398438 C 23.191406 20.398438 20.398438 23.191406 20.398438 26.632812 C 20.398438 30.074219 23.191406 32.867188 26.632812 32.867188 C 30.074219 32.863281 32.863281 30.074219 32.867188 26.632812 C 32.867188 23.191406 30.074219 20.398438 26.632812 20.398438 Z M 26.066406 0 C 27.320312 0 28.332031 1.015625 28.332031 2.265625 L 28.332031 3.398438 L 31.167969 3.398438 C 32.730469 3.398438 34 4.667969 34 6.234375 L 34 20.964844 C 34 21.28125 33.746094 21.535156 33.433594 21.535156 C 33.121094 21.535156 32.867188 21.28125 32.867188 20.964844 L 32.867188 11.332031 L 1.132812 11.332031 L 1.132812 28.898438 C 1.136719 29.835938 1.894531 30.597656 2.832031 30.601562 L 18.699219 30.601562 C 19.011719 30.601562 19.265625 30.855469 19.265625 31.167969 C 19.265625 31.480469 19.011719 31.734375 18.699219 31.734375 L 2.832031 31.734375 C 2.082031 31.734375 1.359375 31.433594 0.828125 30.902344 C 0.296875 30.371094 0 29.652344 0 28.898438 L 0 6.234375 C 0 4.667969 1.269531 3.398438 2.832031 3.398438 L 5.667969 3.398438 L 5.667969 2.265625 C 5.667969 1.015625 6.679688 0 7.933594 0 C 9.183594 0 10.199219 1.015625 10.199219 2.265625 L 10.199219 3.398438 L 14.734375 3.398438 L 14.734375 2.265625 C 14.734375 1.015625 15.75 0 17 0 C 18.25 0 19.265625 1.015625 19.265625 2.265625 L 19.265625 3.398438 L 23.800781 3.398438 L 23.800781 2.265625 C 23.800781 1.015625 24.816406 0 26.066406 0 Z M 29.90625 24.257812 C 30.128906 24.042969 30.484375 24.046875 30.703125 24.265625 C 30.921875 24.484375 30.921875 24.835938 30.707031 25.058594 L 25.902344 29.867188 C 25.679688 30.089844 25.320312 30.089844 25.097656 29.867188 L 22.695312 27.464844 C 22.480469 27.242188 22.484375 26.886719 22.703125 26.667969 C 22.921875 26.449219 23.273438 26.445312 23.496094 26.660156 L 25.5 28.664062 Z M 14.734375 24.367188 C 15.359375 24.367188 15.867188 24.875 15.867188 25.5 L 15.867188 27.199219 C 15.867188 27.824219 15.359375 28.332031 14.734375 28.332031 L 12.464844 28.332031 C 11.839844 28.332031 11.332031 27.824219 11.332031 27.199219 L 11.332031 25.5 C 11.332031 24.875 11.839844 24.367188 12.464844 24.367188 Z M 7.933594 24.367188 C 8.558594 24.367188 9.066406 24.875 9.066406 25.5 L 9.066406 27.199219 C 9.066406 27.824219 8.558594 28.332031 7.933594 28.332031 L 5.667969 28.332031 C 5.039062 28.332031 4.535156 27.824219 4.535156 27.199219 L 4.535156 25.5 C 4.535156 24.875 5.039062 24.367188 5.667969 24.367188 Z M 12.464844 27.199219 L 14.734375 27.199219 L 14.734375 25.5 L 12.464844 25.5 Z M 5.667969 27.199219 L 7.933594 27.199219 L 7.933594 25.5 L 5.667969 25.5 Z M 14.734375 19.265625 C 15.359375 19.265625 15.867188 19.773438 15.867188 20.398438 L 15.867188 22.101562 C 15.867188 22.726562 15.359375 23.234375 14.734375 23.234375 L 12.464844 23.234375 C 11.839844 23.234375 11.332031 22.726562 11.332031 22.101562 L 11.332031 20.398438 C 11.332031 19.773438 11.839844 19.265625 12.464844 19.265625 Z M 7.933594 19.265625 C 8.558594 19.265625 9.066406 19.773438 9.066406 20.398438 L 9.066406 22.101562 C 9.066406 22.726562 8.558594 23.234375 7.933594 23.234375 L 5.667969 23.234375 C 5.039062 23.234375 4.535156 22.726562 4.535156 22.101562 L 4.535156 20.398438 C 4.535156 19.773438 5.039062 19.265625 5.667969 19.265625 Z M 21.535156 19.265625 C 21.847656 19.265625 22.101562 19.519531 22.101562 19.832031 C 22.101562 20.144531 21.847656 20.398438 21.535156 20.398438 L 19.265625 20.398438 L 19.265625 22.101562 C 19.578125 22.101562 19.832031 22.355469 19.832031 22.667969 C 19.832031 22.980469 19.578125 23.234375 19.265625 23.234375 C 18.640625 23.234375 18.132812 22.726562 18.132812 22.101562 L 18.132812 20.398438 C 18.132812 19.773438 18.640625 19.265625 19.265625 19.265625 Z M 12.464844 22.101562 L 14.734375 22.101562 L 14.734375 20.398438 L 12.464844 20.398438 Z M 5.667969 22.101562 L 7.933594 22.101562 L 7.933594 20.398438 L 5.667969 20.398438 Z M 14.734375 14.167969 C 15.359375 14.167969 15.867188 14.675781 15.867188 15.300781 L 15.867188 17 C 15.867188 17.625 15.359375 18.132812 14.734375 18.132812 L 12.464844 18.132812 C 11.839844 18.132812 11.332031 17.625 11.332031 17 L 11.332031 15.300781 C 11.332031 14.675781 11.839844 14.167969 12.464844 14.167969 Z M 28.332031 14.167969 C 28.960938 14.167969 29.464844 14.675781 29.464844 15.300781 L 29.464844 17 C 29.464844 17.625 28.960938 18.132812 28.332031 18.132812 L 26.066406 18.132812 C 25.441406 18.132812 24.933594 17.625 24.933594 17 L 24.933594 15.300781 C 24.933594 14.675781 25.441406 14.167969 26.066406 14.167969 Z M 21.535156 14.167969 C 22.160156 14.167969 22.667969 14.675781 22.667969 15.300781 L 22.667969 17 C 22.667969 17.625 22.160156 18.132812 21.535156 18.132812 L 19.265625 18.132812 C 18.640625 18.132812 18.132812 17.625 18.132812 17 L 18.132812 15.300781 C 18.132812 14.675781 18.640625 14.167969 19.265625 14.167969 Z M 7.933594 14.167969 C 8.558594 14.167969 9.066406 14.675781 9.066406 15.300781 L 9.066406 17 C 9.066406 17.625 8.558594 18.132812 7.933594 18.132812 L 5.667969 18.132812 C 5.039062 18.132812 4.535156 17.625 4.535156 17 L 4.535156 15.300781 C 4.535156 14.675781 5.039062 14.167969 5.667969 14.167969 Z M 12.464844 17 L 14.734375 17 L 14.734375 15.300781 L 12.464844 15.300781 Z M 5.667969 17 L 7.933594 17 L 7.933594 15.300781 L 5.667969 15.300781 Z M 26.066406 17 L 28.332031 17 L 28.332031 15.300781 L 26.066406 15.300781 Z M 19.265625 17 L 21.535156 17 L 21.535156 15.300781 L 19.265625 15.300781 Z M 5.667969 4.535156 L 2.832031 4.535156 C 1.894531 4.535156 1.136719 5.296875 1.132812 6.234375 L 1.132812 10.199219 L 32.867188 10.199219 L 32.867188 6.234375 C 32.863281 5.296875 32.105469 4.535156 31.167969 4.535156 L 28.332031 4.535156 L 28.332031 5.667969 C 28.332031 6.917969 27.320312 7.933594 26.066406 7.933594 C 24.816406 7.933594 23.800781 6.917969 23.800781 5.667969 L 23.800781 4.535156 L 19.265625 4.535156 L 19.265625 5.667969 C 19.265625 6.917969 18.25 7.933594 17 7.933594 C 15.75 7.933594 14.734375 6.917969 14.734375 5.667969 L 14.734375 4.535156 L 10.199219 4.535156 L 10.199219 5.667969 C 10.199219 6.917969 9.183594 7.933594 7.933594 7.933594 C 6.679688 7.933594 5.667969 6.917969 5.667969 5.667969 Z M 26.066406 1.132812 C 25.441406 1.132812 24.933594 1.640625 24.933594 2.265625 L 24.933594 5.667969 C 24.933594 6.292969 25.441406 6.800781 26.066406 6.800781 C 26.691406 6.800781 27.199219 6.292969 27.199219 5.667969 L 27.199219 2.265625 C 27.199219 1.640625 26.691406 1.132812 26.066406 1.132812 Z M 17 1.132812 C 16.375 1.132812 15.867188 1.640625 15.867188 2.265625 L 15.867188 5.667969 C 15.867188 6.292969 16.375 6.800781 17 6.800781 C 17.625 6.800781 18.132812 6.292969 18.132812 5.667969 L 18.132812 2.265625 C 18.132812 1.640625 17.625 1.132812 17 1.132812 Z M 7.933594 1.132812 C 7.308594 1.132812 6.800781 1.640625 6.800781 2.265625 L 6.800781 5.667969 C 6.800781 6.292969 7.308594 6.800781 7.933594 6.800781 C 8.558594 6.800781 9.066406 6.292969 9.066406 5.667969 L 9.066406 2.265625 C 9.066406 1.640625 8.558594 1.132812 7.933594 1.132812 Z M 7.933594 1.132812 "/>
</svg>
