<svg width="56" height="56" viewBox="0 0 56 56" fill="none" xmlns="http://www.w3.org/2000/svg">
<g clip-path="url(#clip0_2493_5640)">
<path fill-rule="evenodd" clip-rule="evenodd" d="M47.9486 39.2162L39.2669 42.9409L39.1222 43L38.9871 42.9507L28.164 39.6202L28.0193 39.5709L27.8842 39.6202L17.0418 42.9507L16.8971 43L16.7621 42.9409L8.08038 39.2162C7.27974 38.9304 6.83601 38.0534 7.07717 37.2355L7.5016 35.7378L7.81993 34.644L11.6688 21.3217C11.9293 20.4348 12.8649 19.9422 13.7235 20.2476L18.4116 21.9425L18.5466 21.9917L18.6913 21.9326L27.8842 18.6119L28.0193 18.5626L28.164 18.6217L37.3473 21.9326L37.492 21.9917L37.627 21.9425L42.3151 20.2476C43.1736 19.9323 44.1093 20.4348 44.3698 21.3217L48.209 34.644L48.5273 35.7378L48.9518 37.2355C49.1929 38.0534 48.7492 38.9304 47.9582 39.2162H47.9486Z" fill="#F3C8B3"/>
<path fill-rule="evenodd" clip-rule="evenodd" d="M18.537 21.9819L18.4019 21.9326L17.1479 37.9351L17.0418 39.1274L16.7524 42.931L16.8875 42.9901L17.0322 42.9408L17.3215 39.1471L17.4277 37.9154L18.6817 21.9227L18.537 21.9819Z" fill="white"/>
<path fill-rule="evenodd" clip-rule="evenodd" d="M38.582 37.9253L38.6688 39.157L38.9775 42.9507L39.1125 43L39.2572 42.9409L38.9485 39.1373L38.8617 37.945L37.6077 21.9425L37.4727 21.9917L37.328 21.9326L38.582 37.9253Z" fill="white"/>
<path fill-rule="evenodd" clip-rule="evenodd" d="M27.8746 18.602V39.6103L28.0097 39.561L28.1543 39.6103V18.6217L28.0097 18.5626L27.8746 18.6119V18.602Z" fill="white"/>
<path fill-rule="evenodd" clip-rule="evenodd" d="M48.508 35.7279L38.9582 39.1275C38.8714 39.1472 38.7653 39.1767 38.6784 39.1472C38.6591 39.1472 38.6302 39.1373 38.6109 39.1373L28.1543 35.8166L28.0096 35.7673L27.8746 35.8166L17.4083 39.1373C17.4083 39.1373 17.3505 39.1472 17.3312 39.1472C17.2926 39.157 17.2733 39.157 17.2444 39.157C17.1768 39.157 17.119 39.1472 17.0514 39.1275L7.49194 35.7279L7.81027 34.6341C7.81027 34.6341 7.82956 34.6341 7.84886 34.6341L17.1479 37.945L17.254 37.9844L17.4373 37.9253L27.8456 34.6243H27.8842C27.971 34.5849 28.0772 34.5849 28.164 34.6243H28.1833L38.5916 37.9253L38.7749 37.9844L38.881 37.945L48.1704 34.6341C48.1704 34.6341 48.1897 34.6243 48.1993 34.6341L48.5177 35.7279H48.508Z" fill="#FFFAF8"/>
<path fill-rule="evenodd" clip-rule="evenodd" d="M18.6817 12.3646C18.074 12.1281 17.418 12 16.7524 12C16.0868 12 15.4309 12.1281 14.8231 12.3646C12.4887 13.2514 11.2637 15.5868 11.7363 18.0207C11.9293 18.9962 12.4405 19.9126 13.1833 20.7009L15.7299 23.3713C16.2894 23.9526 17.2058 23.9526 17.7653 23.3713L20.3119 20.7009C21.0547 19.9126 21.5756 18.9962 21.7588 18.0207C22.2315 15.5868 21.0064 13.2514 18.672 12.3646H18.6817Z" fill="#F55F24"/>
<path d="M16.6077 16.4047C17.4015 16.4047 18.045 15.7473 18.045 14.9365C18.045 14.1256 17.4015 13.4683 16.6077 13.4683C15.8139 13.4683 15.1704 14.1256 15.1704 14.9365C15.1704 15.7473 15.8139 16.4047 16.6077 16.4047Z" fill="white"/>
<path d="M16.299 16.9368H17.2058C18.4405 16.9368 19.4341 17.9616 19.4341 19.213C19.4341 19.7747 18.9904 20.2279 18.4405 20.2279H15.0643C14.5145 20.2279 14.0707 19.7747 14.0707 19.213C14.0707 17.9517 15.074 16.9368 16.299 16.9368Z" fill="white"/>
<path fill-rule="evenodd" clip-rule="evenodd" d="M43.3473 16.2666C42.5756 15.971 41.746 15.8134 40.9067 15.8134C40.0675 15.8134 39.2379 15.971 38.4566 16.2666C35.4952 17.3998 33.9518 20.3559 34.5498 23.4402C34.791 24.6818 35.4469 25.8445 36.3826 26.8397L39.6045 30.2196C40.3183 30.9586 41.4759 30.9586 42.1897 30.2196L45.4116 26.8397C46.3569 25.8445 47.0129 24.6818 47.2444 23.4402C47.8424 20.3461 46.299 17.39 43.3376 16.2666H43.3473Z" fill="#F55F24"/>
<path d="M40.7234 21.4004C41.7303 21.4004 42.5466 20.5666 42.5466 19.538C42.5466 18.5095 41.7303 17.6757 40.7234 17.6757C39.7166 17.6757 38.9003 18.5095 38.9003 19.538C38.9003 20.5666 39.7166 21.4004 40.7234 21.4004Z" fill="white"/>
<path d="M40.328 22.0704H41.4855C43.0482 22.0704 44.3119 23.3613 44.3119 24.9576C44.3119 25.6671 43.7427 26.2484 43.0482 26.2484H38.7653C38.0707 26.2484 37.5016 25.6671 37.5016 24.9576C37.5016 23.3613 38.7653 22.0704 40.328 22.0704Z" fill="white"/>
<path d="M16.299 25.5391C16.299 25.5391 16.164 25.9135 16.0289 26.485" stroke="#653825" stroke-width="0.66" stroke-miterlimit="10" stroke-linecap="round"/>
<path d="M15.7588 28.4361C15.7203 30.131 16.2508 32.0131 18.6817 32.4565C20.9871 32.8802 27.5852 24.1399 30.2283 26.2092C32.8714 28.2785 33.0161 34.2203 35.7267 34.9101C37.6559 35.3929 39.045 34.8411 39.9035 34.0429" stroke="#653825" stroke-width="0.66" stroke-miterlimit="10" stroke-linecap="round" stroke-dasharray="1.32 1.32"/>
<path d="M40.5209 33.294C40.7138 32.9787 40.8489 32.6732 40.9068 32.3973" stroke="#653825" stroke-width="0.66" stroke-miterlimit="10" stroke-linecap="round"/>
</g>
<defs>
<clipPath id="clip0_2493_5640">
<rect width="42" height="31" fill="white" transform="translate(7 12)"/>
</clipPath>
</defs>
</svg>
