<?xml version="1.0" encoding="UTF-8"?>
<svg xmlns="http://www.w3.org/2000/svg" xmlns:xlink="http://www.w3.org/1999/xlink" width="56" height="56" viewBox="0 0 56 56">
<defs>
<filter id="filter-remove-color" x="0%" y="0%" width="100%" height="100%">
<feColorMatrix color-interpolation-filters="sRGB" values="0 0 0 0 1 0 0 0 0 1 0 0 0 0 1 0 0 0 1 0" />
</filter>
<clipPath id="clip-0">
<rect x="0" y="0" width="56" height="56"/>
</clipPath>
<g id="source-7" clip-path="url(#clip-0)">
<path fill-rule="nonzero" fill="rgb(0%, 0%, 0%)" fill-opacity="1" d="M 7 12 L 49 12 L 49 43 L 7 43 Z M 7 12 "/>
</g>
<mask id="mask-0">
<g filter="url(#filter-remove-color)">
<use xlink:href="#source-7"/>
</g>
</mask>
<clipPath id="clip-1">
<rect x="0" y="0" width="56" height="56"/>
</clipPath>
<g id="source-6" clip-path="url(#clip-1)">
<path fill-rule="evenodd" fill="rgb(95.298767%, 78.399658%, 70.199585%)" fill-opacity="1" d="M 47.949219 39.214844 L 39.265625 42.941406 L 39.121094 43 L 38.988281 42.949219 L 28.164062 39.621094 L 28.019531 39.570312 L 27.882812 39.621094 L 17.042969 42.949219 L 16.898438 43 L 16.761719 42.941406 L 8.082031 39.214844 C 7.28125 38.929688 6.835938 38.054688 7.078125 37.234375 L 7.5 35.738281 L 7.820312 34.644531 L 11.667969 21.320312 C 11.929688 20.433594 12.863281 19.941406 13.722656 20.246094 L 18.410156 21.941406 L 18.546875 21.992188 L 18.691406 21.933594 L 27.882812 18.613281 L 28.019531 18.5625 L 28.164062 18.621094 L 37.347656 21.933594 L 37.492188 21.992188 L 37.628906 21.941406 L 42.316406 20.246094 C 43.171875 19.933594 44.109375 20.433594 44.371094 21.320312 L 48.210938 34.644531 L 48.527344 35.738281 L 48.953125 37.234375 C 49.191406 38.054688 48.75 38.929688 47.957031 39.214844 Z M 47.949219 39.214844 "/>
<path fill-rule="evenodd" fill="rgb(100%, 100%, 100%)" fill-opacity="1" d="M 18.535156 21.980469 L 18.402344 21.933594 L 17.148438 37.933594 L 17.042969 39.128906 L 16.753906 42.929688 L 16.886719 42.988281 L 17.03125 42.941406 L 17.320312 39.148438 L 17.425781 37.914062 L 18.683594 21.921875 Z M 18.535156 21.980469 "/>
<path fill-rule="evenodd" fill="rgb(100%, 100%, 100%)" fill-opacity="1" d="M 38.582031 37.925781 L 38.667969 39.15625 L 38.976562 42.949219 L 39.113281 43 L 39.257812 42.941406 L 38.949219 39.136719 L 38.863281 37.945312 L 37.609375 21.941406 L 37.472656 21.992188 L 37.328125 21.933594 Z M 38.582031 37.925781 "/>
<path fill-rule="evenodd" fill="rgb(100%, 100%, 100%)" fill-opacity="1" d="M 27.875 18.601562 L 27.875 39.609375 L 28.007812 39.5625 L 28.15625 39.609375 L 28.15625 18.621094 L 28.007812 18.5625 L 27.875 18.613281 Z M 27.875 18.601562 "/>
<path fill-rule="evenodd" fill="rgb(100%, 98.03772%, 97.253418%)" fill-opacity="1" d="M 48.507812 35.726562 L 38.957031 39.128906 C 38.871094 39.148438 38.765625 39.175781 38.679688 39.148438 C 38.660156 39.148438 38.628906 39.136719 38.609375 39.136719 L 28.15625 35.816406 L 28.007812 35.765625 L 27.875 35.816406 L 17.410156 39.136719 C 17.410156 39.136719 17.351562 39.148438 17.332031 39.148438 C 17.292969 39.15625 17.273438 39.15625 17.246094 39.15625 C 17.175781 39.15625 17.117188 39.148438 17.050781 39.128906 L 7.492188 35.726562 L 7.808594 34.632812 C 7.808594 34.632812 7.828125 34.632812 7.847656 34.632812 L 17.148438 37.945312 L 17.253906 37.984375 L 17.4375 37.925781 L 27.84375 34.625 L 27.882812 34.625 C 27.972656 34.585938 28.078125 34.585938 28.164062 34.625 L 28.183594 34.625 L 38.589844 37.925781 L 38.773438 37.984375 L 38.882812 37.945312 L 48.171875 34.632812 C 48.171875 34.632812 48.191406 34.625 48.199219 34.632812 L 48.519531 35.726562 Z M 48.507812 35.726562 "/>
<path fill-rule="evenodd" fill="rgb(96.099854%, 37.298584%, 14.099121%)" fill-opacity="1" d="M 18.683594 12.363281 C 18.074219 12.128906 17.417969 12 16.753906 12 C 16.085938 12 15.429688 12.128906 14.824219 12.363281 C 12.488281 13.25 11.261719 15.585938 11.738281 18.019531 C 11.929688 18.996094 12.441406 19.914062 13.183594 20.699219 L 15.730469 23.371094 C 16.289062 23.953125 17.207031 23.953125 17.765625 23.371094 L 20.3125 20.699219 C 21.054688 19.914062 21.574219 18.996094 21.757812 18.019531 C 22.230469 15.585938 21.007812 13.25 18.671875 12.363281 Z M 18.683594 12.363281 "/>
<path fill-rule="nonzero" fill="rgb(100%, 100%, 100%)" fill-opacity="1" d="M 16.609375 16.40625 C 17.402344 16.40625 18.046875 15.746094 18.046875 14.9375 C 18.046875 14.125 17.402344 13.46875 16.609375 13.46875 C 15.8125 13.46875 15.171875 14.125 15.171875 14.9375 C 15.171875 15.746094 15.8125 16.40625 16.609375 16.40625 Z M 16.609375 16.40625 "/>
<path fill-rule="nonzero" fill="rgb(100%, 100%, 100%)" fill-opacity="1" d="M 16.300781 16.9375 L 17.207031 16.9375 C 18.441406 16.9375 19.433594 17.960938 19.433594 19.214844 C 19.433594 19.773438 18.992188 20.226562 18.441406 20.226562 L 15.0625 20.226562 C 14.515625 20.226562 14.070312 19.773438 14.070312 19.214844 C 14.070312 17.953125 15.074219 16.9375 16.300781 16.9375 Z M 16.300781 16.9375 "/>
<path fill-rule="evenodd" fill="rgb(96.099854%, 37.298584%, 14.099121%)" fill-opacity="1" d="M 43.347656 16.265625 C 42.574219 15.972656 41.746094 15.8125 40.90625 15.8125 C 40.066406 15.8125 39.238281 15.972656 38.457031 16.265625 C 35.496094 17.398438 33.953125 20.355469 34.550781 23.441406 C 34.789062 24.683594 35.445312 25.84375 36.382812 26.839844 L 39.605469 30.21875 C 40.316406 30.957031 41.476562 30.957031 42.191406 30.21875 L 45.410156 26.839844 C 46.355469 25.84375 47.011719 24.683594 47.246094 23.441406 C 47.84375 20.347656 46.300781 17.390625 43.335938 16.265625 Z M 43.347656 16.265625 "/>
<path fill-rule="nonzero" fill="rgb(100%, 100%, 100%)" fill-opacity="1" d="M 40.722656 21.402344 C 41.730469 21.402344 42.546875 20.566406 42.546875 19.539062 C 42.546875 18.507812 41.730469 17.675781 40.722656 17.675781 C 39.714844 17.675781 38.898438 18.507812 38.898438 19.539062 C 38.898438 20.566406 39.714844 21.402344 40.722656 21.402344 Z M 40.722656 21.402344 "/>
<path fill-rule="nonzero" fill="rgb(100%, 100%, 100%)" fill-opacity="1" d="M 40.328125 22.070312 L 41.484375 22.070312 C 43.046875 22.070312 44.3125 23.363281 44.3125 24.957031 C 44.3125 25.667969 43.742188 26.25 43.046875 26.25 L 38.765625 26.25 C 38.070312 26.25 37.5 25.667969 37.5 24.957031 C 37.5 23.363281 38.765625 22.070312 40.328125 22.070312 Z M 40.328125 22.070312 "/>
<path fill-rule="nonzero" fill="rgb(39.607239%, 21.960449%, 14.509583%)" fill-opacity="1" d="M 16.609375 25.652344 C 16.671875 25.480469 16.582031 25.289062 16.410156 25.230469 C 16.238281 25.167969 16.050781 25.253906 15.988281 25.425781 Z M 15.707031 26.410156 C 15.664062 26.585938 15.777344 26.765625 15.953125 26.804688 C 16.128906 26.847656 16.308594 26.738281 16.351562 26.5625 Z M 16.300781 25.539062 C 15.988281 25.425781 15.988281 25.425781 15.988281 25.425781 C 15.988281 25.425781 15.988281 25.425781 15.988281 25.429688 C 15.988281 25.429688 15.988281 25.429688 15.988281 25.433594 C 15.984375 25.4375 15.984375 25.441406 15.980469 25.449219 C 15.976562 25.460938 15.972656 25.476562 15.964844 25.5 C 15.949219 25.546875 15.925781 25.617188 15.898438 25.699219 C 15.847656 25.871094 15.777344 26.117188 15.707031 26.410156 L 16.351562 26.5625 C 16.414062 26.285156 16.480469 26.054688 16.53125 25.894531 C 16.554688 25.816406 16.574219 25.753906 16.589844 25.710938 C 16.597656 25.691406 16.601562 25.675781 16.605469 25.664062 C 16.605469 25.660156 16.609375 25.65625 16.609375 25.652344 C 16.609375 25.652344 16.609375 25.652344 16.300781 25.539062 Z M 16.300781 25.539062 "/>
<path fill-rule="nonzero" fill="rgb(39.607239%, 21.960449%, 14.509583%)" fill-opacity="1" d="M 16.089844 28.445312 C 16.09375 28.261719 15.949219 28.109375 15.765625 28.105469 C 15.585938 28.101562 15.433594 28.246094 15.429688 28.429688 Z M 18.683594 32.457031 L 18.742188 32.132812 Z M 30.226562 26.210938 L 30.433594 25.949219 Z M 35.726562 34.910156 L 35.644531 35.230469 L 35.648438 35.230469 Z M 40.128906 34.285156 C 40.261719 34.160156 40.269531 33.953125 40.144531 33.816406 C 40.019531 33.683594 39.8125 33.675781 39.679688 33.800781 Z M 15.449219 29.148438 C 15.460938 29.332031 15.621094 29.46875 15.804688 29.453125 C 15.984375 29.4375 16.121094 29.277344 16.105469 29.097656 Z M 16.378906 30.339844 C 16.3125 30.171875 16.121094 30.089844 15.953125 30.15625 C 15.78125 30.222656 15.699219 30.414062 15.765625 30.585938 Z M 16.609375 31.835938 C 16.746094 31.960938 16.953125 31.953125 17.078125 31.820312 C 17.203125 31.6875 17.195312 31.476562 17.0625 31.351562 Z M 18.121094 31.972656 C 17.949219 31.914062 17.761719 32.003906 17.703125 32.175781 C 17.644531 32.347656 17.734375 32.535156 17.90625 32.597656 Z M 19.457031 32.691406 C 19.628906 32.636719 19.722656 32.449219 19.664062 32.277344 C 19.609375 32.101562 19.421875 32.007812 19.25 32.066406 Z M 20.375 31.464844 C 20.222656 31.566406 20.183594 31.773438 20.285156 31.925781 C 20.386719 32.074219 20.589844 32.117188 20.742188 32.015625 Z M 21.867188 31.1875 C 22.007812 31.074219 22.035156 30.867188 21.921875 30.722656 C 21.808594 30.578125 21.601562 30.554688 21.457031 30.667969 Z M 22.511719 29.808594 C 22.371094 29.921875 22.351562 30.132812 22.46875 30.273438 C 22.585938 30.410156 22.796875 30.429688 22.933594 30.3125 Z M 23.984375 29.433594 C 24.125 29.316406 24.140625 29.105469 24.023438 28.96875 C 23.90625 28.828125 23.699219 28.808594 23.558594 28.925781 Z M 24.621094 28.050781 C 24.480469 28.164062 24.457031 28.371094 24.570312 28.515625 C 24.6875 28.65625 24.894531 28.679688 25.035156 28.5625 Z M 26.105469 27.734375 C 26.253906 27.625 26.285156 27.417969 26.175781 27.273438 C 26.070312 27.125 25.863281 27.09375 25.714844 27.203125 Z M 26.875 26.417969 C 26.71875 26.511719 26.667969 26.714844 26.765625 26.871094 C 26.859375 27.027344 27.0625 27.078125 27.21875 26.984375 Z M 28.382812 26.402344 C 28.554688 26.339844 28.644531 26.148438 28.582031 25.976562 C 28.519531 25.808594 28.328125 25.71875 28.15625 25.78125 Z M 29.675781 25.601562 C 29.5 25.566406 29.324219 25.679688 29.289062 25.859375 C 29.253906 26.039062 29.367188 26.210938 29.546875 26.25 Z M 30.46875 26.878906 C 30.59375 27.015625 30.800781 27.023438 30.933594 26.898438 C 31.070312 26.777344 31.078125 26.566406 30.953125 26.433594 Z M 31.769531 27.554688 C 31.675781 27.398438 31.476562 27.34375 31.316406 27.4375 C 31.160156 27.53125 31.109375 27.730469 31.199219 27.890625 Z M 31.78125 29.03125 C 31.855469 29.199219 32.050781 29.273438 32.214844 29.199219 C 32.382812 29.125 32.457031 28.929688 32.382812 28.761719 Z M 32.890625 29.996094 C 32.824219 29.828125 32.632812 29.742188 32.464844 29.808594 C 32.292969 29.875 32.210938 30.066406 32.277344 30.234375 Z M 32.75 31.46875 C 32.816406 31.636719 33.007812 31.722656 33.175781 31.65625 C 33.347656 31.589844 33.429688 31.398438 33.363281 31.226562 Z M 33.867188 32.425781 C 33.789062 32.257812 33.59375 32.1875 33.429688 32.265625 C 33.261719 32.339844 33.191406 32.539062 33.269531 32.703125 Z M 33.933594 33.902344 C 34.035156 34.054688 34.242188 34.089844 34.390625 33.988281 C 34.542969 33.886719 34.582031 33.679688 34.476562 33.53125 Z M 35.300781 34.371094 C 35.144531 34.273438 34.941406 34.320312 34.84375 34.472656 C 34.746094 34.628906 34.792969 34.832031 34.949219 34.929688 Z M 36.21875 35.347656 C 36.402344 35.375 36.570312 35.253906 36.597656 35.074219 C 36.625 34.894531 36.503906 34.722656 36.324219 34.695312 Z M 37.363281 34.753906 C 37.183594 34.765625 37.042969 34.917969 37.050781 35.101562 C 37.0625 35.285156 37.21875 35.421875 37.398438 35.414062 Z M 38.578125 35.195312 C 38.75 35.140625 38.84375 34.953125 38.789062 34.78125 C 38.730469 34.605469 38.546875 34.511719 38.371094 34.566406 Z M 39.28125 34.117188 C 39.132812 34.222656 39.09375 34.429688 39.199219 34.578125 C 39.300781 34.726562 39.507812 34.765625 39.65625 34.664062 Z M 15.429688 28.429688 C 15.421875 28.664062 15.429688 28.90625 15.449219 29.148438 L 16.105469 29.097656 C 16.089844 28.878906 16.082031 28.660156 16.089844 28.445312 Z M 15.765625 30.585938 C 15.949219 31.042969 16.222656 31.472656 16.609375 31.835938 L 17.0625 31.351562 C 16.753906 31.066406 16.53125 30.722656 16.378906 30.339844 Z M 17.90625 32.597656 C 18.128906 32.671875 18.367188 32.734375 18.621094 32.78125 L 18.742188 32.132812 C 18.515625 32.089844 18.308594 32.035156 18.121094 31.972656 Z M 18.621094 32.78125 C 18.890625 32.832031 19.175781 32.785156 19.457031 32.691406 L 19.25 32.066406 C 19.027344 32.140625 18.863281 32.152344 18.742188 32.132812 Z M 20.742188 32.015625 C 21.097656 31.777344 21.476562 31.492188 21.867188 31.1875 L 21.457031 30.667969 C 21.074219 30.96875 20.710938 31.242188 20.375 31.464844 Z M 22.933594 30.3125 C 23.277344 30.027344 23.632812 29.726562 23.984375 29.433594 L 23.558594 28.925781 C 23.203125 29.226562 22.855469 29.519531 22.511719 29.808594 Z M 25.035156 28.5625 C 25.398438 28.273438 25.753906 27.992188 26.105469 27.734375 L 25.714844 27.203125 C 25.355469 27.46875 24.988281 27.753906 24.621094 28.050781 Z M 27.21875 26.984375 C 27.632812 26.730469 28.023438 26.53125 28.382812 26.402344 L 28.15625 25.78125 C 27.742188 25.933594 27.3125 26.152344 26.875 26.417969 Z M 29.546875 26.25 C 29.722656 26.285156 29.878906 26.355469 30.023438 26.46875 L 30.433594 25.949219 C 30.203125 25.769531 29.949219 25.65625 29.675781 25.601562 Z M 30.023438 26.46875 C 30.179688 26.589844 30.328125 26.730469 30.46875 26.878906 L 30.953125 26.433594 C 30.792969 26.257812 30.617188 26.09375 30.433594 25.949219 Z M 31.199219 27.890625 C 31.410156 28.242188 31.601562 28.628906 31.78125 29.03125 L 32.382812 28.761719 C 32.195312 28.34375 31.996094 27.9375 31.769531 27.554688 Z M 32.277344 30.234375 C 32.433594 30.636719 32.59375 31.070312 32.75 31.46875 L 33.363281 31.226562 C 33.203125 30.820312 33.054688 30.421875 32.890625 29.996094 Z M 33.269531 32.703125 C 33.46875 33.136719 33.6875 33.542969 33.933594 33.902344 L 34.476562 33.53125 C 34.257812 33.210938 34.058594 32.839844 33.867188 32.425781 Z M 34.949219 34.929688 C 35.160156 35.0625 35.394531 35.164062 35.644531 35.230469 L 35.808594 34.589844 C 35.628906 34.542969 35.457031 34.46875 35.300781 34.371094 Z M 35.648438 35.230469 C 35.84375 35.277344 36.035156 35.316406 36.21875 35.347656 L 36.324219 34.695312 C 36.15625 34.667969 35.984375 34.632812 35.808594 34.589844 Z M 37.398438 35.414062 C 37.828125 35.390625 38.21875 35.3125 38.578125 35.195312 L 38.371094 34.566406 C 38.070312 34.667969 37.734375 34.734375 37.363281 34.753906 Z M 39.65625 34.664062 C 39.828125 34.546875 39.984375 34.417969 40.128906 34.285156 L 39.679688 33.800781 C 39.558594 33.914062 39.425781 34.019531 39.28125 34.117188 Z M 39.65625 34.664062 "/>
<path fill-rule="nonzero" fill="rgb(39.607239%, 21.960449%, 14.509583%)" fill-opacity="1" d="M 40.238281 33.121094 C 40.144531 33.277344 40.191406 33.480469 40.347656 33.574219 C 40.503906 33.671875 40.707031 33.621094 40.800781 33.464844 Z M 41.230469 32.464844 C 41.265625 32.285156 41.152344 32.113281 40.972656 32.074219 C 40.796875 32.035156 40.621094 32.152344 40.582031 32.328125 Z M 40.800781 33.464844 C 41.007812 33.132812 41.160156 32.789062 41.230469 32.464844 L 40.582031 32.328125 C 40.535156 32.554688 40.421875 32.824219 40.238281 33.121094 Z M 40.800781 33.464844 "/>
</g>
</defs>
<g mask="url(#mask-0)">
<use xlink:href="#source-6"/>
</g>
</svg>
