<svg width="30" height="30" viewBox="0 0 30 30" fill="none" xmlns="http://www.w3.org/2000/svg">
<path d="M17.6367 12.3047H8.84766V9.66797C8.84766 7.24494 10.8192 5.27344 13.2422 5.27344C15.6652 5.27344 17.6367 7.24494 17.6367 9.66797V12.3047Z" fill="black"/>
<path d="M13.2422 5.27344C11.7882 5.27344 10.6055 4.09066 10.6055 2.63672C10.6055 1.18277 11.7882 0 13.2422 0C14.6961 0 15.8789 1.18277 15.8789 2.63672C15.8789 4.09066 14.6961 5.27344 13.2422 5.27344Z" fill="black"/>
<path d="M28.1836 12.3047H19.3945V9.66797C19.3945 7.24494 21.366 5.27344 23.7891 5.27344C26.2121 5.27344 28.1836 7.24494 28.1836 9.66797V12.3047Z" fill="black"/>
<path d="M23.7891 5.27344C22.3351 5.27344 21.1523 4.09066 21.1523 2.63672C21.1523 1.18277 22.3351 0 23.7891 0C25.243 0 26.4258 1.18277 26.4258 2.63672C26.4258 4.09066 25.243 5.27344 23.7891 5.27344Z" fill="black"/>
<path d="M29.3574 16.1153C28.3073 15.0795 26.5613 15.2353 25.515 16.275L21.3213 20.4333C20.1617 21.5941 19.1314 21.5979 18.2237 21.7259H10.9109V19.9681H18.2237C18.5206 19.9317 18.7937 19.9542 19.2605 19.7512V16.4525H8.85437C7.68707 16.4525 6.56764 16.9162 5.74229 17.7415L3.729 19.7548L10.2446 26.2717L11.2748 25.2415H18.2237C20.3283 25.2415 22.3101 24.4201 23.7984 22.9309C25.6052 21.1441 28.2723 18.4856 30 16.7576C29.9342 16.6919 30.2378 16.9955 29.3574 16.1153Z" fill="black"/>
<path d="M2.48607 20.9977L0 23.4838L6.51627 30L9.0017 27.5146L2.48607 20.9977Z" fill="black"/>
</svg>
