<?xml version="1.0" encoding="UTF-8"?>
<svg xmlns="http://www.w3.org/2000/svg" xmlns:xlink="http://www.w3.org/1999/xlink" width="13" height="15" viewBox="0 0 13 15">
<path fill-rule="nonzero" fill="rgb(96.078491%, 37.254333%, 14.117432%)" fill-opacity="1" stroke-width="0.25" stroke-linecap="round" stroke-linejoin="round" stroke="rgb(96.078491%, 37.254333%, 14.117432%)" stroke-opacity="1" stroke-miterlimit="10" d="M 6.441406 14.875 C 4.363281 14.875 2.652344 13.164062 2.652344 11.085938 C 2.652344 9.003906 4.363281 7.292969 6.441406 7.292969 C 8.523438 7.292969 10.234375 9.003906 10.234375 11.085938 C 10.230469 13.160156 8.519531 14.871094 6.441406 14.875 Z M 6.441406 8.136719 C 4.824219 8.136719 3.492188 9.464844 3.492188 11.085938 C 3.492188 12.703125 4.824219 14.03125 6.441406 14.03125 C 8.0625 14.03125 9.390625 12.703125 9.390625 11.085938 C 9.390625 9.46875 8.058594 8.136719 6.441406 8.136719 Z M 6.441406 8.136719 " transform="matrix(1, 0, 0, -1, 0, 15)"/>
<path fill-rule="nonzero" fill="rgb(96.078491%, 37.254333%, 14.117432%)" fill-opacity="1" stroke-width="0.25" stroke-linecap="round" stroke-linejoin="round" stroke="rgb(96.078491%, 37.254333%, 14.117432%)" stroke-opacity="1" stroke-miterlimit="10" d="M 7.617188 6.421875 L 5.269531 6.421875 C 3.1875 6.421875 1.242188 5.359375 0.125 3.601562 L 0.125 0.5 L 12.761719 0.5 L 12.761719 3.601562 C 11.644531 5.359375 9.699219 6.425781 7.617188 6.421875 Z M 11.917969 1.339844 L 0.96875 1.339844 L 0.96875 3.339844 C 1.949219 4.742188 3.554688 5.578125 5.265625 5.574219 L 7.617188 5.574219 C 9.328125 5.578125 10.9375 4.742188 11.917969 3.339844 Z M 11.917969 1.339844 " transform="matrix(1, 0, 0, -1, 0, 15)"/>
</svg>
