<?xml version="1.0" encoding="UTF-8"?>
<svg xmlns="http://www.w3.org/2000/svg" xmlns:xlink="http://www.w3.org/1999/xlink" width="49" height="44" viewBox="0 0 49 44">
<defs>
<clipPath id="clip-0">
<path clip-rule="nonzero" d="M 0.546875 0.0390625 L 48.386719 0.0390625 L 48.386719 43.386719 L 0.546875 43.386719 Z M 0.546875 0.0390625 "/>
</clipPath>
<clipPath id="clip-1">
<path clip-rule="evenodd" d="M 43.640625 4.121094 C 43.640625 4.121094 34.851562 -5.0625 24.46875 4.121094 C 14.082031 -5.0625 5.292969 4.121094 5.292969 4.121094 C 5.292969 4.121094 -3.894531 12.910156 3.296875 26.890625 C 7.824219 35.691406 15.039062 40.21875 19.765625 42.367188 C 22.761719 43.726562 26.171875 43.726562 29.167969 42.367188 C 33.894531 40.21875 41.113281 35.691406 45.636719 26.890625 C 52.828125 12.910156 43.640625 4.121094 43.640625 4.121094 "/>
</clipPath>
<clipPath id="clip-2">
<path clip-rule="nonzero" d="M 32 0 L 48 0 L 48 20 L 32 20 Z M 32 0 "/>
</clipPath>
<clipPath id="clip-3">
<path clip-rule="evenodd" d="M 32.675781 7.066406 C 32.675781 7.066406 34.675781 10.085938 38.191406 11.429688 C 40.390625 12.269531 41.535156 13.917969 42.082031 15.039062 C 42.59375 16.078125 43.171875 17.078125 43.851562 18.015625 L 44.480469 18.882812 C 44.902344 19.460938 45.5625 19.824219 46.277344 19.863281 C 46.929688 19.898438 47.410156 19.257812 47.191406 18.640625 L 43.46875 8.1875 C 43.46875 8.1875 40.921875 1.132812 36 0.542969 Z M 32.675781 7.066406 "/>
</clipPath>
<clipPath id="clip-4">
<path clip-rule="nonzero" d="M 23.832031 0 L 41.308594 0 L 41.308594 33.179688 L 23.832031 33.179688 Z M 23.832031 0 "/>
</clipPath>
<clipPath id="clip-5">
<path clip-rule="evenodd" d="M 23.832031 25.644531 L 23.839844 25.535156 L 23.839844 25.515625 L 24.417969 9.371094 L 24.449219 8.570312 C 24.449219 8.480469 24.457031 8.394531 24.457031 8.316406 C 24.484375 7.9375 24.542969 7.5625 24.621094 7.199219 C 25.511719 3.082031 29.171875 -0.00390625 33.5625 -0.00390625 C 35.132812 -0.00390625 36.613281 0.386719 37.902344 1.085938 L 37.917969 1.121094 L 37.917969 1.128906 L 37.921875 1.128906 L 37.921875 1.132812 L 40.605469 12.175781 L 40.640625 13.015625 L 40.648438 13.03125 L 40.726562 14.8125 L 41.308594 27.078125 C 41.328125 27.578125 40.929688 27.992188 40.445312 27.992188 C 40.417969 27.992188 40.386719 27.984375 40.359375 27.984375 C 39.988281 27.949219 39.691406 27.6875 39.605469 27.332031 L 37.125 17.566406 L 36.96875 16.929688 L 36.996094 17.625 L 37.582031 31.933594 L 37.582031 31.984375 C 37.582031 32.636719 37.0625 33.171875 36.402344 33.179688 C 35.808594 33.1875 35.292969 32.75 35.207031 32.164062 L 33.085938 18.277344 L 32.960938 17.5 L 32.945312 17.398438 L 32.46875 17.320312 L 32.460938 17.4375 L 32.394531 18.210938 L 31.402344 30.652344 C 31.359375 31.1875 30.910156 31.59375 30.390625 31.59375 C 30.359375 31.59375 30.324219 31.585938 30.296875 31.585938 C 29.800781 31.542969 29.417969 31.152344 29.375 30.664062 L 28.097656 16.488281 L 28.09375 16.386719 L 28.078125 16.464844 L 26.070312 25.917969 C 25.960938 26.457031 25.492188 26.820312 24.976562 26.820312 C 24.890625 26.820312 24.804688 26.808594 24.714844 26.789062 C 24.179688 26.671875 23.808594 26.1875 23.832031 25.644531 "/>
</clipPath>
<clipPath id="clip-6">
<path clip-rule="nonzero" d="M 0 0 L 17 0 L 17 19 L 0 19 Z M 0 0 "/>
</clipPath>
<clipPath id="clip-7">
<path clip-rule="evenodd" d="M 16.175781 7.164062 C 16.175781 7.164062 13.953125 10.027344 10.34375 11.09375 C 8.089844 11.765625 6.820312 13.324219 6.1875 14.398438 C 5.601562 15.394531 4.949219 16.351562 4.199219 17.230469 L 3.507812 18.050781 C 3.042969 18.59375 2.355469 18.902344 1.640625 18.886719 C 0.984375 18.875 0.558594 18.199219 0.824219 17.601562 L 5.328125 7.460938 C 5.328125 7.460938 8.40625 0.621094 13.355469 0.410156 Z M 16.175781 7.164062 "/>
</clipPath>
<clipPath id="clip-8">
<path clip-rule="nonzero" d="M 6 0 L 25 0 L 25 33 L 6 33 Z M 6 0 "/>
</clipPath>
<clipPath id="clip-9">
<path clip-rule="evenodd" d="M 24.195312 8.726562 L 24.203125 10.480469 L 24.203125 10.488281 L 23.578125 25.925781 L 23.578125 25.949219 C 23.542969 26.484375 23.144531 26.921875 22.617188 27 C 22.558594 27.007812 22.5 27.015625 22.449219 27.015625 C 21.890625 27.015625 21.398438 26.601562 21.328125 26.027344 L 20.125 16.972656 L 20.109375 16.855469 L 20.042969 16.371094 L 19.941406 16.957031 L 19.921875 17.101562 L 19.921875 17.109375 L 17.675781 30.507812 C 17.59375 30.992188 17.183594 31.347656 16.6875 31.355469 L 16.660156 31.355469 C 16.109375 31.355469 15.652344 30.90625 15.652344 30.339844 L 15.617188 18.523438 L 15.617188 18.335938 L 15.609375 17.082031 L 15.609375 16.964844 L 15.117188 17.007812 L 15.09375 17.101562 L 14.804688 18.347656 L 14.761719 18.539062 L 11.75 31.558594 C 11.609375 32.144531 11.066406 32.535156 10.472656 32.484375 C 9.851562 32.425781 9.386719 31.90625 9.386719 31.296875 C 9.386719 31.246094 9.386719 31.203125 9.394531 31.152344 L 10.988281 17.617188 L 11.015625 17.394531 L 11.148438 16.234375 L 10.792969 17.285156 L 10.726562 17.488281 L 7.734375 26.40625 C 7.609375 26.753906 7.292969 26.984375 6.929688 27 L 6.917969 27 C 6.394531 27 5.988281 26.542969 6.046875 26.027344 L 7.464844 14.566406 L 7.503906 14.292969 L 7.714844 12.554688 L 7.878906 11.214844 L 11.175781 1.09375 L 11.234375 0.917969 C 12.40625 0.367188 13.71875 0.0625 15.09375 0.0625 C 19.882812 0.0625 23.816406 3.75 24.203125 8.4375 C 24.203125 8.53125 24.195312 8.632812 24.195312 8.726562 "/>
</clipPath>
</defs>
<g clip-path="url(#clip-0)">
<g clip-path="url(#clip-1)">
<rect x="-4.9" y="-4.4" width="58.8" height="52.8" fill="rgb(98.039246%, 90.98053%, 86.274719%)" fill-opacity="1"/>
</g>
</g>
<g clip-path="url(#clip-2)">
<g clip-path="url(#clip-3)">
<path fill-rule="nonzero" fill="rgb(100%, 69.020081%, 58.824158%)" fill-opacity="1" d="M 31.675781 -0.457031 L 48.410156 -0.457031 L 48.410156 20.898438 L 31.675781 20.898438 Z M 31.675781 -0.457031 "/>
</g>
</g>
<g clip-path="url(#clip-4)">
<g clip-path="url(#clip-5)">
<path fill-rule="nonzero" fill="rgb(100%, 69.020081%, 58.824158%)" fill-opacity="1" d="M 22.832031 -1 L 42.308594 -1 L 42.308594 34.179688 L 22.832031 34.179688 Z M 22.832031 -1 "/>
</g>
</g>
<path fill="none" stroke-width="0.75" stroke-linecap="round" stroke-linejoin="miter" stroke="rgb(73.33374%, 50.98114%, 41.960144%)" stroke-opacity="1" stroke-miterlimit="10" d="M 7.968531 5.96719 C 7.363062 5.346096 6.554469 4.760159 5.515406 4.365628 C 2.003687 3.021878 -0.00021875 -0.00156 -0.00021875 -0.00156 " transform="matrix(1, 0, 0, 1, 32.676, 7.06406)"/>
<path fill="none" stroke-width="0.75" stroke-linecap="round" stroke-linejoin="miter" stroke="rgb(73.33374%, 50.98114%, 41.960144%)" stroke-opacity="1" stroke-miterlimit="10" d="M -0.000375 0.397865 C -0.000375 0.397865 0.776969 0.589271 1.519156 0.60099 " transform="matrix(1, 0, 0, 1, 31.891, 16.93026)"/>
<g clip-path="url(#clip-6)">
<g clip-path="url(#clip-7)">
<path fill-rule="nonzero" fill="rgb(100%, 69.020081%, 58.824158%)" fill-opacity="1" d="M -0.441406 -0.589844 L 17.175781 -0.589844 L 17.175781 19.902344 L -0.441406 19.902344 Z M -0.441406 -0.589844 "/>
</g>
</g>
<g clip-path="url(#clip-8)">
<g clip-path="url(#clip-9)">
<path fill-rule="nonzero" fill="rgb(100%, 69.020081%, 58.824158%)" fill-opacity="1" d="M 4.988281 -0.9375 L 25.203125 -0.9375 L 25.203125 33.535156 L 4.988281 33.535156 Z M 4.988281 -0.9375 "/>
</g>
</g>
<path fill="none" stroke-width="0.75" stroke-linecap="round" stroke-linejoin="miter" stroke="rgb(73.33374%, 50.98114%, 41.960144%)" stroke-opacity="1" stroke-miterlimit="10" d="M -0.0016615 5.344852 C 0.650682 4.770634 1.502245 4.247196 2.568651 3.93079 C 6.17412 2.860477 8.400682 0.0011025 8.400682 0.0011025 " transform="matrix(1, 0, 0, 1, 7.775099, 7.16296)"/>
<path fill="none" stroke-width="0.75" stroke-linecap="round" stroke-linejoin="miter" stroke="rgb(73.33374%, 50.98114%, 41.960144%)" stroke-opacity="1" stroke-miterlimit="10" d="M 1.527181 0.452291 C 1.527181 0.452291 0.738119 0.581197 -0.0001625 0.538229 " transform="matrix(1, 0, 0, 1, 14.6486, 16.56724)"/>
<path fill="none" stroke-width="0.75" stroke-linecap="round" stroke-linejoin="miter" stroke="rgb(73.33374%, 50.98114%, 41.960144%)" stroke-opacity="1" stroke-miterlimit="10" d="M 0.201937 17.261184 L 0.795687 -0.000535 " transform="matrix(1, 0, 0, 1, 23.509, 8.26616)"/>
</svg>
