<?xml version="1.0" encoding="UTF-8"?>
<svg xmlns="http://www.w3.org/2000/svg" xmlns:xlink="http://www.w3.org/1999/xlink" width="24" height="24" viewBox="0 0 24 24">
<defs>
<clipPath id="clip-0">
<path clip-rule="nonzero" d="M 16.800781 0 L 7.199219 0 C 5.292969 0.00390625 3.460938 0.761719 2.109375 2.109375 C 0.761719 3.460938 0.00390625 5.292969 0 7.199219 L 0 16.800781 C 0.00390625 18.707031 0.761719 20.539062 2.109375 21.890625 C 3.460938 23.238281 5.292969 23.996094 7.199219 24 L 16.800781 24 C 18.707031 23.996094 20.539062 23.238281 21.890625 21.890625 C 23.238281 20.539062 23.996094 18.707031 24 16.800781 L 24 7.199219 C 23.996094 5.292969 23.238281 3.460938 21.890625 2.109375 C 20.539062 0.761719 18.707031 0.00390625 16.800781 0 Z M 22.402344 16.800781 C 22.402344 18.285156 21.808594 19.710938 20.757812 20.757812 C 19.710938 21.808594 18.285156 22.402344 16.800781 22.402344 L 7.199219 22.402344 C 5.714844 22.402344 4.289062 21.808594 3.242188 20.757812 C 2.191406 19.710938 1.597656 18.285156 1.597656 16.800781 L 1.597656 7.199219 C 1.597656 5.714844 2.191406 4.292969 3.242188 3.242188 C 4.289062 2.191406 5.714844 1.601562 7.199219 1.597656 L 16.800781 1.597656 C 18.285156 1.601562 19.710938 2.191406 20.757812 3.242188 C 21.808594 4.292969 22.402344 5.714844 22.402344 7.199219 Z M 22.402344 16.800781 "/>
</clipPath>
<clipPath id="clip-1">
<path clip-rule="nonzero" d="M 6 7 L 18 7 L 18 18 L 6 18 Z M 6 7 "/>
</clipPath>
<clipPath id="clip-2">
<path clip-rule="nonzero" d="M 15.574219 7.132812 L 13.90625 7 L 13.652344 9.503906 L 10.976562 9.503906 L 11.210938 7.15625 L 9.535156 7 L 9.285156 9.503906 L 7.09375 9.503906 L 7.09375 11.171875 L 9.117188 11.171875 L 8.859375 13.8125 L 6 13.8125 L 6 15.480469 L 8.675781 15.480469 L 8.441406 17.828125 L 10.109375 17.992188 L 10.363281 15.488281 L 13.039062 15.488281 L 12.804688 17.835938 L 14.472656 18 L 14.722656 15.496094 L 16.914062 15.496094 L 16.914062 13.8125 L 14.898438 13.8125 L 15.15625 11.140625 L 18 11.140625 L 18 9.472656 L 15.324219 9.472656 Z M 13.210938 13.804688 L 10.535156 13.804688 L 10.804688 11.140625 L 13.480469 11.140625 Z M 13.210938 13.804688 "/>
</clipPath>
</defs>
<g clip-path="url(#clip-0)">
<rect x="-2.4" y="-2.4" width="28.8" height="28.8" fill="rgb(96.078491%, 37.254333%, 14.117432%)" fill-opacity="1"/>
</g>
<g clip-path="url(#clip-1)">
<g clip-path="url(#clip-2)">
<path fill-rule="nonzero" fill="rgb(96.078491%, 37.254333%, 14.117432%)" fill-opacity="1" d="M 5 6 L 19 6 L 19 19 L 5 19 Z M 5 6 "/>
</g>
</g>
</svg>
