<?xml version="1.0" encoding="UTF-8" standalone="no"?>
<!DOCTYPE svg PUBLIC "-//W3C//DTD SVG 1.1//EN" "http://www.w3.org/Graphics/SVG/1.1/DTD/svg11.dtd">
<svg width="100%" height="100%" viewBox="0 0 45 45" version="1.1" xmlns="http://www.w3.org/2000/svg" xmlns:xlink="http://www.w3.org/1999/xlink" xml:space="preserve" xmlns:serif="http://www.serif.com/" style="fill-rule:evenodd;clip-rule:evenodd;stroke-linejoin:round;stroke-miterlimit:2;">
    <g transform="matrix(0.5,0,0,0.5,0,0)">
        <path d="M45,90C69.853,90 90,69.853 90,45C90,20.147 69.853,0 45,0C20.147,0 0,20.147 0,45C0,69.853 20.147,90 45,90Z" style="fill:rgb(245,95,36);"/>
    </g>
    <g transform="matrix(0.5,0,0,0.5,0,0)">
        <path d="M60.713,14.012L53.058,14C44.458,14 38.9,19.796 38.9,28.766L38.9,35.574L31.204,35.574C30.539,35.574 30,36.122 30,36.798L30,46.663C30,47.339 30.539,47.886 31.204,47.886L38.9,47.886L38.9,72.777C38.9,73.453 39.439,74 40.104,74L50.146,74C50.811,74 51.35,73.452 51.35,72.777L51.35,47.886L60.349,47.886C61.014,47.886 61.553,47.339 61.553,46.663L61.556,36.798C61.556,36.474 61.429,36.163 61.204,35.933C60.978,35.703 60.671,35.574 60.352,35.574L51.35,35.574L51.35,29.803C51.35,27.029 52,25.621 55.555,25.621L60.712,25.619C61.376,25.619 61.915,25.071 61.915,24.395L61.915,15.236C61.915,14.561 61.377,14.014 60.713,14.012Z" style="fill:white;fill-rule:nonzero;"/>
    </g>
</svg>
