<?xml version="1.0" encoding="UTF-8"?>
<svg xmlns="http://www.w3.org/2000/svg" xmlns:xlink="http://www.w3.org/1999/xlink" width="34" height="34" viewBox="0 0 34 34">
<defs>
<clipPath id="clip-0">
<path clip-rule="nonzero" d="M 0 5 L 23 5 L 23 28 L 0 28 Z M 0 5 "/>
</clipPath>
<clipPath id="clip-1">
<path clip-rule="nonzero" d="M 11.203125 5.277344 C 17.394531 5.277344 22.421875 10.304688 22.421875 16.496094 C 22.421875 17.113281 22.378906 17.699219 22.277344 18.257812 C 22.113281 19.179688 21.230469 19.796875 20.304688 19.632812 C 19.382812 19.464844 18.765625 18.582031 18.929688 17.660156 C 18.992188 17.3125 19.023438 16.921875 19.023438 16.496094 C 19.023438 12.183594 15.515625 8.675781 11.203125 8.675781 C 6.894531 8.675781 3.398438 12.179688 3.398438 16.496094 C 3.398438 20.808594 6.890625 24.300781 11.203125 24.300781 C 11.890625 24.300781 12.582031 24.207031 13.257812 24.03125 C 14.164062 23.792969 15.09375 24.339844 15.328125 25.246094 C 15.566406 26.15625 15.023438 27.085938 14.113281 27.320312 C 13.164062 27.570312 12.1875 27.699219 11.203125 27.699219 C 5.011719 27.699219 0 22.6875 0 16.496094 C 0 10.300781 5.011719 5.277344 11.203125 5.277344 Z M 11.203125 5.277344 "/>
</clipPath>
<clipPath id="clip-2">
<path clip-rule="nonzero" d="M 11 16 L 30 16 L 30 34 L 11 34 Z M 11 16 "/>
</clipPath>
<clipPath id="clip-3">
<path clip-rule="nonzero" d="M 20.722656 16.261719 C 15.878906 16.261719 11.953125 20.183594 11.953125 25.027344 C 11.953125 29.871094 15.878906 33.792969 20.722656 33.792969 C 25.5625 33.792969 29.488281 29.871094 29.488281 25.027344 C 29.488281 20.183594 25.5625 16.261719 20.722656 16.261719 Z M 20.722656 19.660156 C 23.6875 19.660156 26.089844 22.0625 26.089844 25.027344 C 26.089844 27.992188 23.6875 30.394531 20.722656 30.394531 C 17.757812 30.394531 15.355469 27.992188 15.355469 25.027344 C 15.355469 22.0625 17.757812 19.660156 20.722656 19.660156 Z M 20.722656 19.660156 "/>
</clipPath>
<clipPath id="clip-4">
<path clip-rule="nonzero" d="M 20 0 L 34 0 L 34 13 L 20 13 Z M 20 0 "/>
</clipPath>
<clipPath id="clip-5">
<path clip-rule="nonzero" d="M 27.265625 0 C 23.800781 0 20.988281 2.8125 20.988281 6.277344 C 20.988281 9.746094 23.800781 12.554688 27.265625 12.554688 C 30.734375 12.554688 33.542969 9.746094 33.542969 6.277344 C 33.542969 2.8125 30.734375 0 27.265625 0 Z M 27.265625 3.398438 C 28.855469 3.398438 30.144531 4.6875 30.144531 6.277344 C 30.144531 7.867188 28.855469 9.15625 27.265625 9.15625 C 25.675781 9.15625 24.386719 7.867188 24.386719 6.277344 C 24.386719 4.6875 25.675781 3.398438 27.265625 3.398438 Z M 27.265625 3.398438 "/>
</clipPath>
<clipPath id="clip-6">
<path clip-rule="nonzero" d="M 4 9 L 14 9 L 14 19 L 4 19 Z M 4 9 "/>
</clipPath>
<clipPath id="clip-7">
<path clip-rule="nonzero" d="M 12.132812 9.988281 C 13.070312 9.988281 13.832031 10.75 13.832031 11.691406 C 13.832031 12.628906 13.070312 13.390625 12.132812 13.390625 C 10.039062 13.390625 8.34375 15.085938 8.34375 17.175781 C 8.34375 18.117188 7.582031 18.878906 6.644531 18.878906 C 5.703125 18.878906 4.945312 18.117188 4.945312 17.175781 C 4.945312 13.207031 8.160156 9.988281 12.132812 9.988281 Z M 12.132812 9.988281 "/>
</clipPath>
</defs>
<g clip-path="url(#clip-0)">
<g clip-path="url(#clip-1)">
<path fill-rule="nonzero" fill="rgb(93.725586%, 37.254333%, 14.117432%)" fill-opacity="1" d="M -1 4.277344 L 23.421875 4.277344 L 23.421875 28.699219 L -1 28.699219 Z M -1 4.277344 "/>
</g>
</g>
<g clip-path="url(#clip-2)">
<g clip-path="url(#clip-3)">
<path fill-rule="nonzero" fill="rgb(93.725586%, 37.254333%, 14.117432%)" fill-opacity="1" d="M 10.953125 15.261719 L 30.488281 15.261719 L 30.488281 34.792969 L 10.953125 34.792969 Z M 10.953125 15.261719 "/>
</g>
</g>
<g clip-path="url(#clip-4)">
<g clip-path="url(#clip-5)">
<path fill-rule="nonzero" fill="rgb(93.725586%, 37.254333%, 14.117432%)" fill-opacity="1" d="M 19.988281 -1 L 34.542969 -1 L 34.542969 13.554688 L 19.988281 13.554688 Z M 19.988281 -1 "/>
</g>
</g>
<g clip-path="url(#clip-6)">
<g clip-path="url(#clip-7)">
<path fill-rule="nonzero" fill="rgb(93.725586%, 37.254333%, 14.117432%)" fill-opacity="1" d="M 3.945312 8.988281 L 14.832031 8.988281 L 14.832031 19.878906 L 3.945312 19.878906 Z M 3.945312 8.988281 "/>
</g>
</g>
</svg>
