<?xml version="1.0" encoding="UTF-8"?>
<svg xmlns="http://www.w3.org/2000/svg" xmlns:xlink="http://www.w3.org/1999/xlink" width="22" height="22" viewBox="0 0 22 22">
<defs>
<clipPath id="clip-0">
<path clip-rule="nonzero" d="M 3 4 L 19 4 L 19 20 L 3 20 Z M 3 4 "/>
</clipPath>
<clipPath id="clip-1">
<path clip-rule="evenodd" d="M 17.277344 4.679688 C 17.574219 4.339844 18.085938 4.304688 18.421875 4.597656 C 18.757812 4.894531 18.792969 5.40625 18.5 5.742188 C 16.855469 7.628906 15.363281 9.746094 14.015625 12.097656 C 12.667969 14.449219 11.585938 16.832031 10.765625 19.25 C 10.570312 19.820312 9.851562 19.980469 9.433594 19.574219 L 9.367188 19.5 L 3.480469 12.265625 C 3.199219 11.917969 3.25 11.40625 3.597656 11.125 C 3.917969 10.863281 4.378906 10.890625 4.671875 11.167969 L 4.738281 11.242188 L 9.71875 17.363281 L 9.921875 16.847656 C 10.582031 15.179688 11.363281 13.53125 12.265625 11.902344 L 12.609375 11.292969 C 14.007812 8.851562 15.5625 6.648438 17.277344 4.679688 Z M 17.277344 4.679688 "/>
</clipPath>
</defs>
<g clip-path="url(#clip-0)">
<g clip-path="url(#clip-1)">
<path fill-rule="nonzero" fill="rgb(96.078491%, 37.254333%, 14.117432%)" fill-opacity="1" d="M 2.199219 3.304688 L 19.792969 3.304688 L 19.792969 20.980469 L 2.199219 20.980469 Z M 2.199219 3.304688 "/>
</g>
</g>
</svg>
