<?xml version="1.0" encoding="UTF-8"?>
<svg xmlns="http://www.w3.org/2000/svg" xmlns:xlink="http://www.w3.org/1999/xlink" width="56" height="56" viewBox="0 0 56 56">
<path fill-rule="evenodd" fill="rgb(95.298767%, 78.399658%, 70.199585%)" fill-opacity="1" d="M 12.492188 41.121094 L 34.292969 41.019531 L 34.390625 15.0625 L 12.589844 15.167969 Z M 12.492188 41.121094 "/>
<path fill-rule="evenodd" fill="rgb(96.099854%, 37.298584%, 14.099121%)" fill-opacity="1" d="M 34.292969 41.019531 L 45.195312 40.964844 L 45.292969 15.011719 L 34.390625 15.0625 Z M 34.292969 41.019531 "/>
<path fill-rule="nonzero" fill="rgb(39.607239%, 21.960449%, 14.509583%)" fill-opacity="1" d="M 34.730469 41.121094 L 34.730469 21.121094 L 34.070312 21.121094 L 34.070312 41.121094 Z M 34.730469 41.121094 "/>
<path fill-rule="evenodd" fill="rgb(100%, 98.03772%, 97.253418%)" fill-opacity="1" d="M 47.976562 21.851562 L 36.535156 21.898438 L 34.390625 15.058594 L 45.832031 15.007812 Z M 47.976562 21.851562 "/>
<path fill-rule="evenodd" fill="rgb(100%, 97.999573%, 97.299194%)" fill-opacity="1" d="M 24.296875 36.386719 L 19.019531 34.515625 C 17.71875 34.054688 17.050781 32.636719 17.527344 31.347656 L 19.46875 26.117188 C 19.945312 24.828125 21.386719 24.15625 22.6875 24.621094 L 27.96875 26.488281 C 29.269531 26.949219 29.9375 28.367188 29.460938 29.65625 L 27.519531 34.886719 C 27.042969 36.175781 25.597656 36.847656 24.296875 36.386719 "/>
<path fill-rule="evenodd" fill="rgb(100%, 98.03772%, 97.253418%)" fill-opacity="1" d="M 8.597656 22.015625 L 30.25 21.925781 L 34.390625 15.058594 L 12.738281 15.148438 Z M 8.597656 22.015625 "/>
<path fill-rule="evenodd" fill="rgb(93.699646%, 37.298584%, 14.099121%)" fill-opacity="1" d="M 25.84375 29.542969 C 25.84375 29.542969 25.320312 28.359375 23.988281 28.882812 C 23.308594 27.644531 22.132812 28.226562 22.132812 28.226562 C 22.132812 28.226562 20.929688 28.753906 21.128906 30.34375 C 21.253906 31.339844 21.792969 32.023438 22.171875 32.390625 C 22.414062 32.625 22.746094 32.742188 23.082031 32.714844 C 23.617188 32.671875 24.476562 32.484375 25.230469 31.792969 C 26.421875 30.699219 25.84375 29.542969 25.84375 29.542969 "/>
</svg>
