<svg width="133" height="37" viewBox="0 0 133 37" fill="none" xmlns="http://www.w3.org/2000/svg">
<path fill-rule="evenodd" clip-rule="evenodd" d="M44.0095 17.5816C44.5796 17.899 45.0646 18.3492 45.4235 18.894C45.7875 19.4277 46.0474 20.0252 46.1898 20.6552C46.32 21.2634 46.3866 21.8834 46.3888 22.5053V22.8609C46.3892 23.0992 46.2033 23.2962 45.9654 23.3097C45.9073 23.3128 45.8462 23.3163 45.7823 23.32C45.4975 23.3365 45.1557 23.3562 44.7546 23.3562L41.4186 23.4494L39.7251 23.4875L38.3492 23.5087H37.9258C37.9354 24.1972 38.0584 24.8795 38.2899 25.5281C38.4867 26.0761 38.7985 26.5755 39.2044 26.9929C39.5494 27.3326 39.9724 27.5827 40.4364 27.7211C41.3372 27.9872 42.2924 28.0106 43.2051 27.7888C43.5664 27.7039 43.9193 27.5862 44.2593 27.4374C44.5909 27.3032 44.9073 27.1343 45.2034 26.9336C45.3426 26.8416 45.5207 26.8319 45.6691 26.9082C45.8158 26.9867 45.907 27.1399 45.9062 27.3062V28.0132C45.9065 28.1738 45.8209 28.3224 45.6818 28.4027C45.3419 28.5963 44.9847 28.7578 44.6149 28.8853C44.2299 29.0143 43.8367 29.1175 43.438 29.1944C42.9231 29.2922 42.3998 29.339 41.8758 29.3341C41.2693 29.3307 40.6649 29.2641 40.0723 29.1351C39.3979 28.9877 38.7727 28.67 38.2561 28.2122C37.6621 27.6589 37.2055 26.9747 36.9225 26.2139C36.5398 25.1273 36.3645 23.9784 36.406 22.827C36.3976 22.0464 36.5177 21.2698 36.7616 20.5282C36.9796 19.8527 37.3357 19.2298 37.8073 18.6993C38.2754 18.1787 38.854 17.7693 39.5007 17.5012C40.2292 17.2066 41.0097 17.0626 41.7953 17.0778C42.5645 17.0524 43.3271 17.2259 44.0095 17.5816ZM41.7953 18.4707C41.1282 18.4357 40.464 18.582 39.8733 18.894L39.8648 18.911C39.4018 19.1854 39.0021 19.5547 38.6921 19.9948C38.4103 20.4 38.2051 20.8534 38.0867 21.3326C38.0246 21.5823 37.9766 21.8353 37.9428 22.0904L41.1899 22.0481C42.3457 22.0354 43.5608 21.9888 44.8054 21.9126C44.7593 21.3799 44.6366 20.8566 44.4413 20.3589C44.3383 20.1086 44.2137 19.8678 44.0688 19.6391C43.9239 19.4181 43.7453 19.2209 43.5396 19.0549C43.3147 18.8737 43.0616 18.7306 42.7902 18.6316C42.4711 18.5179 42.134 18.4634 41.7953 18.4707Z" fill="#FF671D"/>
<path d="M53.5097 17.1244C52.7786 17.1057 52.0535 17.2594 51.3929 17.5731C50.8906 17.8163 50.4292 18.1363 50.0254 18.5215C49.9492 18.5892 49.8815 18.6612 49.8137 18.7332L49.7714 17.6748C49.7579 17.4369 49.5609 17.251 49.3226 17.2514H48.8019C48.5541 17.2514 48.3531 17.4523 48.3531 17.7002V28.7329C48.3531 28.9815 48.5534 29.1836 48.8019 29.1859H49.4158C49.662 29.1813 49.8584 28.9791 49.8561 28.7329V21.1802C49.869 20.8926 49.9613 20.6141 50.1228 20.3758C50.333 20.0369 50.601 19.7374 50.9145 19.491C51.2775 19.2007 51.6811 18.9653 52.1126 18.7924C53.3686 18.2976 54.7902 18.4763 55.8847 19.2666C56.495 19.7938 56.8186 20.5794 56.7568 21.3834V28.7329C56.7568 28.9831 56.9597 29.1859 57.2098 29.1859H57.8195C58.0697 29.1859 58.2725 28.9831 58.2725 28.7329V21.3919C58.3164 20.2556 57.9014 19.1495 57.1209 18.3225C56.3504 17.5266 55.1354 17.1244 53.5097 17.1244Z" fill="#FF671D"/>
<path d="M67.0741 27.1665C66.9262 27.0834 66.7429 27.0968 66.6084 27.2004C66.3949 27.3504 66.1665 27.4781 65.9268 27.5814C65.6893 27.6878 65.4428 27.7728 65.1902 27.8354C64.709 27.9751 64.1981 27.9751 63.7169 27.8354C63.5293 27.7667 63.3639 27.6481 63.2385 27.4925C63.0642 27.2745 62.9347 27.0241 62.8575 26.7558C62.7404 26.343 62.6876 25.9147 62.7008 25.4858V19.038H66.5111C66.6331 19.0381 66.7499 18.9885 66.8345 18.9006C66.9192 18.8128 66.9644 18.6942 66.9598 18.5723V18.0558C66.961 17.9364 66.9141 17.8216 66.8297 17.7372C66.7452 17.6528 66.6304 17.6059 66.5111 17.607H62.7008L62.722 14.453C62.7223 14.3327 62.6751 14.2171 62.5908 14.1313C62.5052 14.0465 62.3894 13.9992 62.269 14H61.7737C61.5363 14.0017 61.3404 14.1865 61.3249 14.4234L61.2021 17.5986H60.5036C60.3842 17.5974 60.2694 17.6443 60.185 17.7287C60.1006 17.8132 60.0537 17.928 60.0548 18.0473V18.5723C60.0537 18.692 60.1005 18.8073 60.1848 18.8924C60.269 18.9774 60.3838 19.0253 60.5036 19.0253H61.1852V25.4773C61.159 26.166 61.2609 26.8537 61.4858 27.5052C61.652 27.9759 61.9328 28.3979 62.3029 28.7329C62.6146 29.0056 62.9955 29.1873 63.4036 29.2579C63.7279 29.3154 64.0565 29.3451 64.3858 29.3468C64.7594 29.3497 65.1324 29.3157 65.4992 29.2452C65.7869 29.1888 66.0699 29.1109 66.346 29.0124C66.6105 28.9127 66.8656 28.7894 67.108 28.644C67.2391 28.5615 67.3189 28.4178 67.3197 28.263V27.5772C67.3305 27.4027 67.2329 27.2396 67.0741 27.1665Z" fill="#FF671D"/>
<path fill-rule="evenodd" clip-rule="evenodd" d="M76.2399 17.4758C76.926 17.7436 77.5333 18.1805 78.0053 18.7459C78.47 19.31 78.8092 19.9667 79.0002 20.6722C79.2196 21.4834 79.325 22.3212 79.3135 23.1615C79.3135 25.0074 78.8351 26.5018 77.8867 27.611C76.9215 28.7329 75.5286 29.3045 73.7505 29.3045C71.9724 29.3045 70.5584 28.7202 69.5931 27.611C68.6279 26.5018 68.141 25.0328 68.141 23.1573C68.141 21.2818 68.5686 19.8127 69.4661 18.712C70.3636 17.6113 71.8115 17.0524 73.7505 17.0524C74.5995 17.0363 75.444 17.1799 76.2399 17.4758ZM73.7505 27.9413C74.3733 27.9575 74.9915 27.8315 75.5583 27.5729C76.0421 27.34 76.4652 26.998 76.7945 26.5738C77.1386 26.121 77.393 25.6066 77.5438 25.0582C77.7158 24.448 77.8013 23.8167 77.7978 23.1827C77.7993 22.5701 77.7312 21.9594 77.5946 21.3622C77.4786 20.8277 77.2553 20.3221 76.9384 19.8762C76.6201 19.4407 76.1981 19.0915 75.7107 18.8602C74.4511 18.341 73.0373 18.341 71.7777 18.8602C71.2894 19.0976 70.8643 19.4472 70.5372 19.8805C70.2135 20.3251 69.9831 20.8305 69.8598 21.3665C69.7181 21.9615 69.6471 22.5711 69.6482 23.1827C69.6442 23.8181 69.7298 24.4508 69.9022 25.0624C70.0542 25.6094 70.3116 26.1214 70.66 26.5696C70.9998 26.998 71.4346 27.3415 71.9301 27.5729C72.5021 27.8289 73.1239 27.9547 73.7505 27.9413Z" fill="#FF671D"/>
<path d="M90.6976 17.2429H90.088C89.8411 17.2429 89.6396 17.4406 89.635 17.6875L89.6138 24.1014C89.6221 24.6475 89.5078 25.1886 89.2794 25.6847C89.0671 26.1415 88.7663 26.5516 88.3945 26.8913C88.0285 27.2209 87.6072 27.4832 87.1499 27.6661C86.713 27.8449 86.246 27.9383 85.7739 27.9413C84.9816 27.9893 84.2115 27.669 83.6868 27.0734C83.183 26.4764 82.9247 25.562 82.9247 24.3596V22.0523C82.9247 21.2691 82.9247 20.5494 82.9459 19.8932L82.9967 17.7002C82.997 17.5798 82.9498 17.4642 82.8655 17.3784C82.7827 17.2891 82.6654 17.2397 82.5437 17.2429H81.9341C81.695 17.2424 81.4967 17.4278 81.4811 17.6663L81.4345 19.8551C81.4345 20.5198 81.4133 21.2437 81.4133 22.0354V24.3427C81.4204 24.8037 81.4615 25.2636 81.5361 25.7186C81.6259 26.2929 81.818 26.8464 82.1034 27.3528C82.4269 27.9158 82.8833 28.3911 83.4328 28.7372C84.1404 29.1534 84.9538 29.3549 85.7739 29.3172C86.6182 29.3495 87.455 29.1473 88.1913 28.7329C88.7369 28.4076 89.2201 27.9876 89.618 27.4925L89.6773 27.4121L89.707 28.7372C89.7204 28.975 89.9175 29.1609 90.1557 29.1605H90.6976C90.9478 29.1605 91.1506 28.9577 91.1506 28.7075V17.6578C91.1328 17.4217 90.9344 17.24 90.6976 17.2429Z" fill="#FF671D"/>
<path d="M99.6306 17.2091C99.4717 17.1672 99.308 17.1458 99.1437 17.1456H98.7669C98.1806 17.134 97.5977 17.2391 97.0523 17.4546C96.6119 17.6325 96.1998 17.8736 95.8288 18.1701C95.6797 18.285 95.5383 18.4094 95.4054 18.5427V17.6959C95.4066 17.5766 95.3597 17.4618 95.2753 17.3774C95.1909 17.2929 95.076 17.246 94.9567 17.2472H94.3428C94.095 17.2472 93.894 17.4481 93.894 17.6959V28.7329C93.894 28.9815 94.0943 29.1836 94.3428 29.1859H94.9567C95.0764 29.1859 95.1912 29.1381 95.2755 29.053C95.3598 28.9679 95.4066 28.8527 95.4054 28.7329V21.5358C95.4027 21.1496 95.4821 20.7672 95.6383 20.4139C95.7878 20.0754 96.0054 19.7714 96.2776 19.5206C96.5594 19.2623 96.8848 19.0559 97.2386 18.911C97.6068 18.7607 98.0009 18.6845 98.3986 18.6866C98.54 18.6863 98.6813 18.6933 98.822 18.7078L99.1268 18.7501L99.3935 18.8136C99.5257 18.8471 99.666 18.8187 99.7747 18.7363C99.8834 18.6539 99.9488 18.5266 99.9523 18.3902V17.6621C99.9627 17.4548 99.8296 17.2675 99.6306 17.2091Z" fill="#FF671D"/>
<path fill-rule="evenodd" clip-rule="evenodd" d="M106.925 17.2472C107.407 17.3269 107.866 17.5088 108.271 17.7806C108.68 18.0732 109.002 18.4712 109.203 18.9322C109.436 19.5023 109.546 20.1156 109.524 20.7314V28.7541C109.524 29.0027 109.324 29.2048 109.076 29.2071H108.534C108.296 29.2075 108.099 29.0216 108.085 28.7837L108.055 27.4883L108.022 27.5306C107.637 28.0194 107.172 28.4389 106.646 28.771C105.951 29.1904 105.149 29.3965 104.338 29.3638C103.332 29.4069 102.354 29.0224 101.646 28.3054C100.971 27.5946 100.608 26.6434 100.638 25.6636C100.635 25.1442 100.739 24.6297 100.943 24.1522C101.173 23.6465 101.531 23.2089 101.98 22.8821C102.508 22.503 103.103 22.2258 103.733 22.065C104.555 21.8585 105.4 21.7617 106.248 21.7771H107.048H107.755H108.013V20.7314C108.013 19.8424 107.818 19.2708 107.395 18.9957C106.792 18.642 106.098 18.4754 105.401 18.5173C104.964 18.5143 104.53 18.5728 104.11 18.6908C103.746 18.7878 103.393 18.9196 103.056 19.0846C102.714 19.2401 102.389 19.4302 102.086 19.6519C101.952 19.7601 101.767 19.7768 101.616 19.6942C101.463 19.6185 101.366 19.4627 101.366 19.292V18.5384C101.366 18.3855 101.444 18.2432 101.574 18.1616C101.905 17.9536 102.257 17.7805 102.624 17.6451C103.011 17.4983 103.409 17.3795 103.813 17.2895C104.839 17.0845 105.894 17.0702 106.925 17.2472ZM103.564 27.7761C103.807 27.8853 104.071 27.9416 104.338 27.9413C104.848 27.9457 105.352 27.8327 105.812 27.611C106.233 27.4045 106.61 27.1168 106.921 26.7643C107.232 26.4013 107.476 25.9855 107.64 25.5366C107.813 25.0674 107.914 24.5751 107.941 24.076L107.992 23.0642H107.67H106.95H106.248C105.558 23.0487 104.869 23.1227 104.199 23.2843C103.763 23.3916 103.353 23.5844 102.992 23.8516C102.73 24.0463 102.53 24.3123 102.416 24.6179C102.3 24.944 102.241 25.2878 102.243 25.6339C102.238 25.9574 102.298 26.2785 102.42 26.578C102.532 26.8494 102.693 27.0977 102.895 27.3105C103.083 27.5097 103.311 27.6682 103.564 27.7761Z" fill="#FF671D"/>
<path fill-rule="evenodd" clip-rule="evenodd" d="M119.131 17.2429L120.223 17.4165C120.436 17.4508 120.59 17.6407 120.578 17.8568V28.7626C120.592 29.6159 120.465 30.4656 120.202 31.2773C119.977 31.9628 119.617 32.5963 119.143 33.1401C118.711 33.6324 118.175 34.0216 117.573 34.279C116.988 34.5282 116.358 34.6564 115.722 34.6557C115.2 34.6647 114.677 34.6279 114.16 34.5457C113.807 34.4905 113.461 34.3983 113.127 34.2705C112.835 34.1674 112.568 34.0061 112.34 33.7963C112.256 33.7121 112.208 33.5979 112.209 33.4788V32.6321C112.212 32.4443 112.331 32.278 112.507 32.2141C112.684 32.1502 112.882 32.202 113.005 32.3442C113.164 32.5177 113.353 32.6611 113.563 32.7676C113.837 32.8942 114.12 32.9989 114.41 33.0808C115.308 33.3316 116.265 33.2659 117.12 32.8946C117.532 32.6674 117.889 32.3523 118.165 31.9716C118.462 31.5615 118.685 31.1032 118.826 30.6169C118.979 30.0873 119.056 29.5384 119.054 28.987V26.5357C118.948 26.6712 118.838 26.8066 118.716 26.9379C118.348 27.3298 117.919 27.6587 117.446 27.9116C116.902 28.1982 116.295 28.3437 115.68 28.335C114.522 28.3803 113.402 27.9162 112.615 27.0649C111.866 26.2478 111.485 24.9396 111.485 23.1827C111.47 22.3023 111.634 21.428 111.967 20.6129C112.268 19.8921 112.712 19.2397 113.271 18.6951C113.814 18.1802 114.455 17.7799 115.155 17.5181C116.159 17.1718 117.227 17.049 118.284 17.1583C118.589 17.1837 118.872 17.2133 119.131 17.2429ZM113.796 26.1335C114.026 26.3981 114.316 26.603 114.643 26.7304V26.7347C115.384 27.0267 116.216 26.9803 116.921 26.6077C117.339 26.3764 117.711 26.0692 118.017 25.7017C118.348 25.2967 118.604 24.8367 118.775 24.3427C118.963 23.7981 119.058 23.2255 119.054 22.6493L119.075 18.7374L118.805 18.6824L118.131 18.5808C117.868 18.5418 117.602 18.5234 117.335 18.5257C116.79 18.5259 116.249 18.6248 115.739 18.8178C115.226 19.0023 114.756 19.2905 114.359 19.6646C113.933 20.0785 113.595 20.5737 113.364 21.1209C113.096 21.7731 112.965 22.4734 112.979 23.1785C112.965 23.7946 113.042 24.4095 113.208 25.0031C113.322 25.4171 113.523 25.8022 113.796 26.1335Z" fill="#FF671D"/>
<path fill-rule="evenodd" clip-rule="evenodd" d="M131.484 18.894C131.83 19.429 132.074 20.0232 132.204 20.6468C132.351 21.2558 132.432 21.8789 132.445 22.5053V22.8609C132.446 23.0992 132.26 23.2962 132.022 23.3097C131.963 23.3128 131.902 23.3164 131.838 23.3201C131.553 23.3365 131.212 23.3563 130.815 23.3563L127.475 23.4494L125.782 23.4875L124.406 23.5087H123.982C123.994 24.197 124.117 24.879 124.346 25.5281C124.543 26.0771 124.856 26.5769 125.265 26.9929C125.608 27.3337 126.029 27.584 126.493 27.7211C127.394 27.9873 128.349 28.0106 129.262 27.7888C129.623 27.7039 129.976 27.5862 130.316 27.4374C130.647 27.3032 130.964 27.1344 131.26 26.9337C131.399 26.8416 131.577 26.8319 131.726 26.9082C131.877 26.9821 131.97 27.1382 131.963 27.3062V28.0132C131.963 28.1738 131.877 28.3224 131.738 28.4027C131.399 28.5971 131.041 28.7587 130.671 28.8853C130.287 29.0168 129.894 29.1201 129.494 29.1944C128.98 29.2923 128.456 29.3391 127.932 29.3341C127.327 29.331 126.724 29.2643 126.133 29.1351C125.457 28.9879 124.831 28.6701 124.312 28.2122C123.719 27.659 123.262 26.9747 122.979 26.2139C122.593 25.128 122.418 23.9786 122.462 22.8271C122.454 22.0465 122.574 21.2698 122.818 20.5282C123.037 19.8531 123.393 19.2305 123.864 18.6993C124.333 18.1796 124.911 17.7704 125.557 17.5012C126.286 17.2071 127.066 17.0631 127.852 17.0778C128.621 17.052 129.384 17.2256 130.066 17.5816C130.636 17.9001 131.123 18.35 131.484 18.894ZM127.852 18.4876C127.185 18.4526 126.52 18.5989 125.93 18.911C125.462 19.1893 125.059 19.5646 124.749 20.0117C124.468 20.4178 124.263 20.871 124.143 21.3495C124.081 21.5992 124.033 21.8523 123.999 22.1073L127.246 22.065C128.402 22.0523 129.617 22.0057 130.862 21.9295C130.815 21.3974 130.694 20.8744 130.502 20.3758C130.397 20.1272 130.271 19.8879 130.125 19.6603C129.984 19.4352 129.805 19.2361 129.596 19.0719C129.371 18.8906 129.118 18.7476 128.847 18.6485C128.528 18.5348 128.19 18.4803 127.852 18.4876Z" fill="#FF671D"/>
<circle cx="15.1215" cy="25.2468" r="4.04902" fill="#FF671D"/>
<path d="M24.2789 27.439C23.1269 26.8274 21.6973 27.2638 21.0833 28.4144C19.587 31.228 16.3266 32.6116 13.2634 31.7329C10.2003 30.8543 8.16905 27.9528 8.39169 24.7738C8.61434 21.5949 11.0301 19.0049 14.1859 18.5617C17.3417 18.1186 20.3774 19.9432 21.4669 22.9379C21.913 24.164 23.2686 24.7963 24.4948 24.3502C25.7209 23.9041 26.3532 22.5484 25.9071 21.3223C24.9056 18.5615 22.8799 16.292 20.2502 14.9846L24.7691 3.21097C25.237 1.99256 24.6285 0.62556 23.4101 0.157696C22.1917 -0.310168 20.8247 0.29827 20.3568 1.51668L15.6423 13.7907C15.4696 13.7907 15.2968 13.7704 15.1216 13.7704C14.9463 13.7704 14.7939 13.7882 14.6288 13.7958L17.9742 5.08561C18.3858 3.8813 17.7693 2.56739 16.5801 2.11414C15.3908 1.6609 14.0563 2.23125 13.5619 3.40402L8.86262 15.6476C8.35262 15.9829 7.87015 16.3584 7.41981 16.7703L10.6966 8.23032C11.1638 7.01191 10.5548 5.64549 9.33636 5.17832C8.11795 4.71116 6.75152 5.32017 6.28436 6.53858L2.52492 16.3284C1.23452 19.5747 0 23.5551 0 25.257C0 30.411 7.62048 36.7335 15.1216 36.7335C19.3666 36.7312 23.2638 34.3864 25.2543 30.6371C25.5495 30.0837 25.6126 29.4357 25.4296 28.8358C25.2467 28.2359 24.8327 27.7334 24.2789 27.439Z" fill="#A9A89F"/>
</svg>
