<?xml version="1.0" encoding="UTF-8"?>
<svg xmlns="http://www.w3.org/2000/svg" xmlns:xlink="http://www.w3.org/1999/xlink" width="35" height="35" viewBox="0 0 35 35">
<defs>
<clipPath id="clip-0">
<path clip-rule="nonzero" d="M 9 15 L 13 15 L 13 19 L 9 19 Z M 9 15 "/>
</clipPath>
<clipPath id="clip-1">
<path clip-rule="evenodd" d="M 12.683594 17.246094 C 12.683594 18.203125 11.910156 18.976562 10.953125 18.976562 C 9.996094 18.976562 9.222656 18.203125 9.222656 17.246094 C 9.222656 16.292969 9.996094 15.515625 10.953125 15.515625 C 11.910156 15.515625 12.683594 16.292969 12.683594 17.246094 "/>
</clipPath>
<clipPath id="clip-2">
<path clip-rule="nonzero" d="M 15 15 L 19 15 L 19 19 L 15 19 Z M 15 15 "/>
</clipPath>
<clipPath id="clip-3">
<path clip-rule="evenodd" d="M 18.976562 17.246094 C 18.976562 18.203125 18.203125 18.976562 17.246094 18.976562 C 16.289062 18.976562 15.515625 18.203125 15.515625 17.246094 C 15.515625 16.292969 16.289062 15.515625 17.246094 15.515625 C 18.203125 15.515625 18.976562 16.292969 18.976562 17.246094 "/>
</clipPath>
<clipPath id="clip-4">
<path clip-rule="nonzero" d="M 21 15 L 26 15 L 26 19 L 21 19 Z M 21 15 "/>
</clipPath>
<clipPath id="clip-5">
<path clip-rule="evenodd" d="M 25.273438 17.246094 C 25.273438 18.203125 24.496094 18.976562 23.542969 18.976562 C 22.585938 18.976562 21.808594 18.203125 21.808594 17.246094 C 21.808594 16.292969 22.585938 15.515625 23.542969 15.515625 C 24.496094 15.515625 25.273438 16.292969 25.273438 17.246094 "/>
</clipPath>
<clipPath id="clip-6">
<path clip-rule="nonzero" d="M 21.085938 0 L 13.410156 0 C 6.03125 0 0 6.03125 0 13.40625 L 0 21.085938 C 0 28.464844 6.03125 34.492188 13.410156 34.492188 L 21.085938 34.492188 C 28.464844 34.492188 34.492188 28.464844 34.492188 21.085938 L 34.492188 13.40625 C 34.492188 6.03125 28.464844 0 21.085938 0 Z M 13.410156 3.398438 L 21.085938 3.398438 C 26.585938 3.398438 31.09375 7.90625 31.09375 13.40625 L 31.09375 21.085938 C 31.09375 26.585938 26.585938 31.09375 21.085938 31.09375 L 13.410156 31.09375 C 7.910156 31.09375 3.398438 26.585938 3.398438 21.085938 L 3.398438 13.40625 C 3.398438 7.90625 7.910156 3.398438 13.410156 3.398438 Z M 13.410156 3.398438 "/>
</clipPath>
</defs>
<g clip-path="url(#clip-0)">
<g clip-path="url(#clip-1)">
<path fill-rule="nonzero" fill="rgb(94.509888%, 37.254333%, 14.117432%)" fill-opacity="1" d="M 8.222656 14.515625 L 13.683594 14.515625 L 13.683594 19.976562 L 8.222656 19.976562 Z M 8.222656 14.515625 "/>
</g>
</g>
<g clip-path="url(#clip-2)">
<g clip-path="url(#clip-3)">
<path fill-rule="nonzero" fill="rgb(94.509888%, 37.254333%, 14.117432%)" fill-opacity="1" d="M 14.515625 14.515625 L 19.976562 14.515625 L 19.976562 19.976562 L 14.515625 19.976562 Z M 14.515625 14.515625 "/>
</g>
</g>
<g clip-path="url(#clip-4)">
<g clip-path="url(#clip-5)">
<path fill-rule="nonzero" fill="rgb(94.509888%, 37.254333%, 14.117432%)" fill-opacity="1" d="M 20.808594 14.515625 L 26.273438 14.515625 L 26.273438 19.976562 L 20.808594 19.976562 Z M 20.808594 14.515625 "/>
</g>
</g>
<g clip-path="url(#clip-6)">
<rect x="-3.5" y="-3.5" width="42" height="42" fill="rgb(94.509888%, 37.254333%, 14.117432%)" fill-opacity="1"/>
</g>
</svg>
