<?xml version="1.0" encoding="UTF-8"?>
<svg xmlns="http://www.w3.org/2000/svg" xmlns:xlink="http://www.w3.org/1999/xlink" width="25" height="25" viewBox="0 0 25 25">
<path fill-rule="evenodd" fill="rgb(100%, 59.2%, 22.3%)" fill-opacity="1" d="M 21.359375 11.867188 L 21.359375 18.203125 C 21.359375 20.511719 19.457031 22.402344 17.128906 22.402344 L 15.222656 22.402344 C 14.851562 22.402344 14.554688 22.105469 14.554688 21.742188 L 14.554688 16.765625 C 14.554688 15.644531 13.703125 14.664062 12.578125 14.589844 C 11.339844 14.511719 10.3125 15.484375 10.3125 16.691406 L 10.3125 21.742188 C 10.3125 22.105469 10.011719 22.402344 9.644531 22.402344 L 7.742188 22.402344 C 5.414062 22.402344 3.507812 20.511719 3.507812 18.203125 L 3.507812 11.867188 L 1.691406 11.867188 C 0.757812 11.867188 0.378906 10.671875 1.148438 10.140625 L 11.890625 2.058594 C 12.21875 1.832031 12.652344 1.832031 12.976562 2.058594 L 23.71875 10.140625 C 24.488281 10.671875 24.109375 11.867188 23.171875 11.867188 Z M 21.359375 11.867188 "/>
</svg>
