<svg width="56" height="56" viewBox="0 0 56 56" fill="none" xmlns="http://www.w3.org/2000/svg">
<g clip-path="url(#clip0_256_1661)">
<path d="M40.1099 28.8117C39.0042 25.2937 31.8502 24.1277 31.1886 23.1828C30.5271 22.238 36.1123 17.383 33.7214 11.1108C33.0976 9.50257 30.8768 8.80901 27.8904 9.04019C27.2005 9.0603 26.5768 9.15076 26.0192 9.29148C25.9058 9.31159 25.7924 9.33169 25.679 9.35179V9.392C24.6111 9.73375 23.8078 10.3067 23.3826 11.1108C22.636 12.5181 21.6059 14.8199 21.398 16.6593C21.3602 17.0011 22.9384 16.9709 22.9384 16.9709C22.9384 16.9709 23.2219 21.1122 23.9968 22.1676C24.7718 23.223 27.2383 21.3132 26.5768 22.248C25.9153 23.1828 18.0903 25.2937 16.994 28.8117C15.8883 32.3298 16.1151 35.2548 16.1151 35.2548H21.4074V39.7077H35.7154V35.2548H41.0077C41.0077 35.2548 41.225 32.3298 40.1288 28.8117H40.1099Z" fill="#F55F24"/>
<path d="M38.7963 39.3257H18.1943V42.6628H38.7963V39.3257Z" fill="#F3C8B3"/>
<path d="M42 42.6628H15V46H42V42.6628Z" fill="#F3C8B3"/>
<path d="M21.5964 31.7568L21.3885 35.2548" stroke="#653825" stroke-width="0.66" stroke-miterlimit="10" stroke-linecap="round"/>
<path d="M35.5548 31.7568L35.6965 35.2548" stroke="#653825" stroke-width="0.66" stroke-miterlimit="10" stroke-linecap="round"/>
<path d="M23.9969 12.4377C23.9969 12.4377 26.6241 14.0862 26.7469 15.996" stroke="#653825" stroke-width="0.66" stroke-miterlimit="10" stroke-linecap="round"/>
<path d="M23.9969 15.4934L25.3672 16.006" stroke="#653825" stroke-width="0.66" stroke-miterlimit="10" stroke-linecap="round"/>
<path d="M32.6535 41.8086H23.5527V43.8993H32.6535V41.8086Z" fill="white"/>
</g>
<defs>
<clipPath id="clip0_256_1661">
<rect width="27" height="37" fill="white" transform="translate(15 9)"/>
</clipPath>
</defs>
</svg>
