<?xml version="1.0" encoding="UTF-8"?>
<svg xmlns="http://www.w3.org/2000/svg" xmlns:xlink="http://www.w3.org/1999/xlink" width="20" height="20" viewBox="0 0 20 20">
<path fill-rule="nonzero" fill="rgb(43.920898%, 43.920898%, 43.920898%)" fill-opacity="1" d="M 10 0.101562 C 4.53125 0.101562 0.101562 4.53125 0.101562 10 C 0.101562 15.46875 4.53125 19.898438 10 19.898438 C 15.46875 19.898438 19.898438 15.46875 19.898438 10 C 19.898438 4.53125 15.46875 0.101562 10 0.101562 Z M 17.425781 10 C 17.425781 14.101562 14.101562 17.425781 10 17.425781 C 5.898438 17.425781 2.574219 14.101562 2.574219 10 C 2.574219 5.898438 5.898438 2.574219 10 2.574219 C 14.101562 2.574219 17.425781 5.898438 17.425781 10 Z M 17.425781 10 "/>
<path fill-rule="nonzero" fill="rgb(43.920898%, 43.920898%, 43.920898%)" fill-opacity="1" d="M 12.289062 1.105469 C 13.898438 2.765625 15 6.125 15 10 C 15 13.300781 14.199219 16.226562 12.96875 18.046875 C 12.136719 19.273438 11.109375 18.980469 10 18.980469 C 8.898438 18.980469 7.878906 19.289062 7.054688 18.082031 C 5.808594 16.265625 5 13.320312 5 10 C 5 6.105469 6.113281 2.730469 7.738281 1.082031 Z M 10 2.5 C 9.777344 2.5 9.253906 2.941406 8.699219 4.046875 C 7.953125 5.542969 7.5 7.683594 7.5 10 C 7.5 12.316406 7.953125 14.457031 8.699219 15.953125 C 9.253906 17.058594 9.777344 17.5 10 17.5 C 10.222656 17.5 10.746094 17.058594 11.300781 15.953125 C 12.046875 14.457031 12.5 12.316406 12.5 10 C 12.5 7.683594 12.046875 5.542969 11.300781 4.046875 C 10.746094 2.941406 10.222656 2.5 10 2.5 Z M 10 2.5 "/>
<path fill-rule="nonzero" fill="rgb(43.920898%, 43.920898%, 43.920898%)" fill-opacity="1" d="M 18.5 13.640625 L 17.101562 15.5 C 15.527344 14.445312 12.847656 13.777344 9.898438 13.777344 C 7.195312 13.777344 4.710938 14.339844 3.097656 15.253906 L 2.839844 15.40625 L 1.5 13.511719 C 3.53125 12.238281 6.597656 11.5 9.898438 11.5 C 13.160156 11.5 16.1875 12.21875 18.214844 13.460938 Z M 18.5 13.640625 "/>
<path fill-rule="nonzero" fill="rgb(43.920898%, 43.920898%, 43.920898%)" fill-opacity="1" d="M 1.5 6.359375 L 2.898438 4.5 C 4.472656 5.554688 7.152344 6.222656 10.101562 6.222656 C 12.804688 6.222656 15.285156 5.660156 16.902344 4.746094 L 17.160156 4.59375 L 18.5 6.488281 C 16.46875 7.761719 13.402344 8.5 10.101562 8.5 C 6.839844 8.5 3.808594 7.78125 1.78125 6.539062 Z M 1.5 6.359375 "/>
</svg>
