<?xml version="1.0" encoding="UTF-8"?>
<svg xmlns="http://www.w3.org/2000/svg" xmlns:xlink="http://www.w3.org/1999/xlink" width="22" height="22" viewBox="0 0 22 22">
<defs>
<clipPath id="clip-0">
<path clip-rule="evenodd" d="M 11 0 C 4.933594 0 0 4.933594 0 11 C 0 17.066406 4.933594 22 11 22 C 17.066406 22 22 17.066406 22 11 C 22 4.933594 17.066406 0 11 0 Z M 11.785156 15.855469 C 11.785156 16.289062 11.433594 16.640625 11 16.640625 C 10.566406 16.640625 10.214844 16.289062 10.214844 15.855469 L 10.214844 15.109375 C 10.214844 14.675781 10.566406 14.324219 11 14.324219 C 11.433594 14.324219 11.785156 14.675781 11.785156 15.109375 Z M 11.785156 12.492188 C 11.785156 12.925781 11.433594 13.277344 11 13.277344 C 10.566406 13.277344 10.214844 12.925781 10.214844 12.492188 L 10.214844 6.703125 C 10.214844 6.269531 10.566406 5.917969 11 5.917969 C 11.433594 5.917969 11.785156 6.269531 11.785156 6.703125 Z M 11.785156 12.492188 "/>
</clipPath>
</defs>
<g clip-path="url(#clip-0)">
<rect x="-2.2" y="-2.2" width="26.4" height="26.4" fill="rgb(100%, 61.177063%, 36.470032%)" fill-opacity="1"/>
</g>
</svg>
