<svg width="57" height="57" viewBox="0 0 57 57" fill="none" xmlns="http://www.w3.org/2000/svg">
<rect x="0.5" y="0.5" width="56" height="56" rx="28" fill="#FFEADC"/>
<path d="M17.6946 26.7448C18.483 28.0049 19.0675 28.6552 19.3678 29.8492C19.4107 30.0169 19.4321 30.1795 19.4911 30.3523C19.5984 30.6572 21.5129 32.7861 20.628 33.7362C20.553 33.7565 20.5101 33.7717 20.4993 33.7108C20.3921 33.1011 19.5877 31.8257 19.4428 31.8511C19.3571 31.8664 19.4214 32.217 19.3946 32.405C19.1211 34.3307 19.2713 35.6212 18.3381 37.3944C17.6785 38.6494 18.7672 38.7054 19.3195 39.188C21.5022 41.1138 24.3015 40.3364 26.7845 40.9461C28.6454 41.4034 31.3857 43.2427 31.9005 39.0712C31.9917 38.3192 33.134 38.1058 34.0028 38.0804C35.3971 38.0195 36.7109 38.3395 38.0141 38.8223C39.8589 39.498 42.964 38.1515 43.7148 36.424C44.0311 35.6975 43.6933 35.5857 43.1141 35.2909C41.9611 34.7067 41.6983 34.2087 41.811 33.1569C41.8217 33.0503 41.7251 32.6336 41.709 32.5218C41.6822 32.339 40.8028 31.5819 40.8189 31.5005C40.8564 31.3125 41.6715 31.3228 41.9289 31.0788C42.2883 30.7384 43.2643 26.5974 40.9315 27.639C39.9983 27.9439 40.363 26.4856 40.7169 26.1452C42.3901 24.4786 43.3769 22.4971 44.3797 20.3225C45.404 18.1173 44.3582 18.0716 43.0873 17.6956C38.3895 16.2932 34.0725 14.1288 30.1416 11.1462C28.6454 10.0081 27.3583 10.3688 27.2457 12.264C27.1385 14.1135 26.4198 14.7537 24.7681 14.7639C24.1138 14.774 23.4703 14.9722 23.1753 15.6581C22.2208 17.8785 20.8748 16.8776 19.7057 16.0138C19.0889 15.5565 18.6599 14.9214 17.8501 15.4904C16.9599 16.1052 17.5069 16.7251 17.8501 17.3958C18.8369 19.3266 18.381 19.6467 16.2306 19.5247C15.7855 19.4943 15.4208 19.3266 15.0776 19.1335C14.5038 18.8083 13.9997 18.4374 13.3079 18.6305C12.6911 18.7829 12.0798 18.9861 11.4577 19.0776C10.6158 19.1995 9.47885 18.7778 9.5003 20.2971C9.52175 21.5978 9.88642 22.5429 11.3612 22.9137C13.7959 23.5336 16.0053 24.0468 17.6946 26.7448Z" fill="#F3C8B3"/>
<path fill-rule="evenodd" clip-rule="evenodd" d="M34.0621 16.7102C33.7117 16.5739 33.3335 16.5 32.9498 16.5C32.566 16.5 32.1879 16.5739 31.8375 16.7102C30.4916 17.2215 29.7853 18.5679 30.0579 19.9711C30.1691 20.5335 30.4638 21.0619 30.8921 21.5164L32.3603 23.0559C32.6828 23.3911 33.2112 23.3911 33.5337 23.0559L35.0019 21.5164C35.4302 21.0619 35.7305 20.5335 35.8362 19.9711C36.1087 18.5679 35.4024 17.2215 34.0565 16.7102H34.0621Z" fill="#F55F24"/>
<path d="M32.8677 19.0394C33.3254 19.0394 33.6964 18.6604 33.6964 18.1929C33.6964 17.7254 33.3254 17.3464 32.8677 17.3464C32.4101 17.3464 32.0391 17.7254 32.0391 18.1929C32.0391 18.6604 32.4101 19.0394 32.8677 19.0394Z" fill="white"/>
<path d="M32.689 19.3461H33.2118C33.9236 19.3461 34.4964 19.9369 34.4964 20.6584C34.4964 20.9822 34.2406 21.2435 33.9236 21.2435H31.9771C31.6601 21.2435 31.4043 20.9822 31.4043 20.6584C31.4043 19.9312 31.9827 19.3461 32.689 19.3461Z" fill="white"/>
<path fill-rule="evenodd" clip-rule="evenodd" d="M37.524 29.7411C37.1222 29.5847 36.6885 29.5 36.2483 29.5C35.8082 29.5 35.3745 29.5847 34.9727 29.7411C33.4291 30.3275 32.619 31.8717 32.9316 33.481C33.0592 34.1261 33.3972 34.732 33.8883 35.2533L35.5722 37.019C35.9422 37.4034 36.5481 37.4034 36.9181 37.019L38.602 35.2533C39.0931 34.732 39.4375 34.1261 39.5587 33.481C39.8713 31.8717 39.0612 30.3275 37.5176 29.7411H37.524Z" fill="#F55F24"/>
<path d="M36.1516 32.4125C36.6764 32.4125 37.1019 31.9778 37.1019 31.4416C37.1019 30.9055 36.6764 30.4708 36.1516 30.4708C35.6267 30.4708 35.2012 30.9055 35.2012 31.4416C35.2012 31.9778 35.6267 32.4125 36.1516 32.4125Z" fill="white"/>
<path d="M35.948 32.7643H36.5476C37.364 32.7643 38.021 33.4419 38.021 34.2694C38.021 34.6408 37.7276 34.9405 37.364 34.9405H35.1316C34.768 34.9405 34.4746 34.6408 34.4746 34.2694C34.4746 33.4354 35.138 32.7643 35.948 32.7643Z" fill="white"/>
<path fill-rule="evenodd" clip-rule="evenodd" d="M18.1988 15.7102C17.8484 15.5739 17.4702 15.5 17.0865 15.5C16.7028 15.5 16.3246 15.5739 15.9742 15.7102C14.6284 16.2215 13.9221 17.5679 14.1946 18.9711C14.3058 19.5335 14.6006 20.0619 15.0288 20.5164L16.497 22.0559C16.8196 22.3911 17.3479 22.3911 17.6705 22.0559L19.1387 20.5164C19.5669 20.0619 19.8672 19.5335 19.9729 18.9711C20.2454 17.5679 19.5391 16.2215 18.1932 15.7102H18.1988Z" fill="#F55F24"/>
<path d="M17.0044 18.0394C17.4621 18.0394 17.8331 17.6604 17.8331 17.1929C17.8331 16.7254 17.4621 16.3464 17.0044 16.3464C16.5468 16.3464 16.1758 16.7254 16.1758 17.1929C16.1758 17.6604 16.5468 18.0394 17.0044 18.0394Z" fill="white"/>
<path d="M16.8257 18.3461H17.3485C18.0603 18.3461 18.6332 18.9369 18.6332 19.6584C18.6332 19.9822 18.3773 20.2435 18.0603 20.2435H16.1138C15.7968 20.2435 15.541 19.9822 15.541 19.6584C15.541 18.9312 16.1194 18.3461 16.8257 18.3461Z" fill="white"/>
<path d="M43.2269 40.8853C42.5887 41.8049 42.8837 42.8211 43.3985 43.7357C43.6774 44.2387 44.0796 44.7316 44.6748 44.4623C45.6455 44.0101 45.6455 42.9837 45.6562 42.0895C45.6616 41.3578 45.86 40.5703 45.4417 39.6913C45.3076 39.4068 44.9161 39.3254 44.6641 39.5337C44.1117 39.9859 43.5862 40.3721 43.2269 40.8853Z" fill="#F3C8B3"/>
</svg>
