<?xml version="1.0" encoding="UTF-8"?>
<svg xmlns="http://www.w3.org/2000/svg" xmlns:xlink="http://www.w3.org/1999/xlink" width="227" height="122" viewBox="0 0 227 122">
<path fill="none" stroke-width="1" stroke-linecap="butt" stroke-linejoin="miter" stroke="rgb(100%, 59.2%, 22.3%)" stroke-opacity="1" stroke-miterlimit="10" d="M 1.402344 178.683594 C -7.21875 118.058594 24.601562 53.679688 78.007812 23.710938 C 98.636719 12.132812 121.777344 5.464844 145.210938 2.191406 C 177.699219 -2.34375 211.707031 -0.304688 241.835938 12.679688 C 271.960938 25.664062 297.777344 50.453125 307.714844 81.71875 C 315.683594 106.796875 313.195312 133.875 309.855469 159.972656 C 306.511719 186.109375 302.078125 213.03125 287.761719 235.15625 C 269.417969 263.507812 237.601562 279.875 206.445312 292.902344 C 188.996094 300.203125 170.878906 305.925781 152.136719 308.460938 C 145.847656 309.316406 135.078125 309.535156 118.164062 306.167969 C 58.527344 292.265625 10.023438 239.308594 1.402344 178.683594 Z M 1.402344 178.683594 " transform="matrix(1, 0, 0, 1, -2, -188)"/>
</svg>
