<svg width="264" height="264" viewBox="0 0 264 264" fill="none" xmlns="http://www.w3.org/2000/svg">
<path d="M194.48 114.62C195.95 110.19 196.7 105.52 196.7 100.86" stroke="#FFC449" stroke-width="4" stroke-linecap="round" stroke-linejoin="round"/>
<path d="M203 115.92C205.76 110.64 209.28 105.76 213.42 101.47" stroke="#FFC449" stroke-width="4" stroke-linecap="round" stroke-linejoin="round"/>
<path d="M207.6 123.72C209.3 122.97 211 122.23 212.7 121.48C214.8 120.56 216.95 119.62 219.24 119.39" stroke="#FFC449" stroke-width="4" stroke-linecap="round" stroke-linejoin="round"/>
<path d="M121.69 188.3L172.15 188.43C176.29 188.44 180.37 189.41 184.07 191.26L198.03 198.23C200.45 199.44 203.29 197.68 203.29 194.97V152.29C203.29 132.48 187.08 116.28 167.28 116.28H121.69C101.88 116.28 85.6797 132.49 85.6797 152.29C85.6797 172.1 101.89 188.3 121.69 188.3Z" fill="#FF9C5D"/>
<path d="M132.08 129.32L81.6205 129.45C77.4805 129.46 73.4005 130.43 69.7005 132.28L55.7405 139.25C53.3205 140.46 50.4805 138.7 50.4805 135.99V93.3098C50.4805 73.4998 66.6905 57.2998 86.4905 57.2998H132.08C151.89 57.2998 168.09 73.5098 168.09 93.3098C168.09 113.12 151.88 129.32 132.08 129.32Z" fill="#FFEADC"/>
<path d="M105.48 95.1901C106.42 94.6401 107.44 94.5301 108.56 94.8401C111.39 95.6301 113.84 95.6001 115.93 94.7501C118.01 93.9001 119.45 92.0801 120.22 89.3001C120.82 87.1601 120.54 85.1601 119.39 83.3201C118.24 81.4801 116.51 80.2301 114.2 79.5801C111.89 78.9301 109.54 79.1401 107.3 80.2201C106.01 80.8801 104.81 81.0501 103.69 80.7401C102.88 80.5101 102.22 80.0501 101.72 79.3601C100.84 78.1901 100.57 77.0301 100.89 75.8701C101.17 74.8801 101.82 74.1001 102.86 73.5101C104.84 72.3601 107 71.6301 109.32 71.3301C111.64 71.0301 113.98 71.2101 116.34 71.8701C119.25 72.6801 121.72 74.0901 123.75 76.0901C125.78 78.0901 127.17 80.4501 127.94 83.1801C128.7 85.9101 128.69 88.6701 127.92 91.4501C126.77 95.5601 124.68 98.4901 121.66 100.23C118.63 101.97 115.09 102.6 111.02 102.11C110.78 102.14 110.65 102.21 110.61 102.34L109.95 104.72C109.64 105.83 109.01 106.66 108.08 107.21C107.14 107.76 106.12 107.87 105 107.56C103.88 107.25 103.07 106.62 102.55 105.66C102.03 104.71 101.93 103.67 102.24 102.56L103.6 97.6801C103.91 96.5701 104.53 95.7401 105.47 95.1901H105.48ZM98.8898 117.18C98.4098 116.33 98.3498 115.28 98.6898 114.04L98.9898 112.95C99.3398 111.71 99.9298 110.85 100.78 110.37C101.63 109.89 102.67 109.82 103.92 110.17L104.76 110.4C106 110.75 106.86 111.35 107.34 112.19C107.82 113.04 107.88 114.09 107.54 115.33L107.24 116.42C106.89 117.66 106.29 118.52 105.45 119C104.6 119.48 103.55 119.54 102.31 119.2L101.47 118.97C100.23 118.62 99.3698 118.03 98.8898 117.18Z" fill="#F55F24"/>
<path d="M122.49 157.45L132.71 167.67L162.64 137.74" stroke="white" stroke-width="8" stroke-linecap="round" stroke-linejoin="round"/>
</svg>
