<?xml version="1.0" encoding="UTF-8"?>
<svg xmlns="http://www.w3.org/2000/svg" xmlns:xlink="http://www.w3.org/1999/xlink" width="21" height="20" viewBox="0 0 21 20">
<defs>
<clipPath id="clip-0">
<path clip-rule="nonzero" d="M 2 2 L 19 2 L 19 18 L 2 18 Z M 2 2 "/>
</clipPath>
<clipPath id="clip-1">
<path clip-rule="evenodd" d="M 18.59375 2.289062 C 18.953125 2.648438 18.980469 3.214844 18.671875 3.605469 L 18.59375 3.691406 L 12.289062 10 L 18.59375 16.308594 C 18.984375 16.695312 18.984375 17.324219 18.59375 17.710938 C 18.234375 18.070312 17.667969 18.09375 17.28125 17.785156 L 17.195312 17.710938 L 10.886719 11.402344 L 4.578125 17.710938 C 4.191406 18.097656 3.5625 18.097656 3.175781 17.710938 C 2.816406 17.351562 2.792969 16.785156 3.097656 16.394531 L 3.175781 16.308594 L 9.484375 10 L 3.175781 3.691406 C 2.789062 3.304688 2.789062 2.675781 3.175781 2.289062 C 3.535156 1.929688 4.101562 1.90625 4.492188 2.214844 L 4.578125 2.289062 L 10.886719 8.597656 L 17.195312 2.289062 C 17.582031 1.902344 18.207031 1.902344 18.59375 2.289062 Z M 18.59375 2.289062 "/>
</clipPath>
</defs>
<g clip-path="url(#clip-0)">
<g clip-path="url(#clip-1)">
<path fill-rule="nonzero" fill="rgb(100%, 100%, 100%)" fill-opacity="1" d="M 1.789062 0.902344 L 19.984375 0.902344 L 19.984375 19.097656 L 1.789062 19.097656 Z M 1.789062 0.902344 "/>
</g>
</g>
</svg>
