<?xml version="1.0" encoding="UTF-8"?>
<svg xmlns="http://www.w3.org/2000/svg" xmlns:xlink="http://www.w3.org/1999/xlink" width="21" height="20" viewBox="0 0 21 20">
<defs>
<clipPath id="clip-0">
<path clip-rule="nonzero" d="M 0 1 L 21 1 L 21 19 L 0 19 Z M 0 1 "/>
</clipPath>
<clipPath id="clip-1">
<path clip-rule="evenodd" d="M 2.636719 2.761719 L 2.550781 2.847656 C 2.460938 2.9375 2.371094 3.039062 2.273438 3.15625 L 2.160156 3.292969 C 0.363281 5.585938 -0.230469 8.707031 1.675781 12.363281 C 3.222656 15.328125 5.621094 17.320312 8.339844 18.539062 C 9.714844 19.152344 11.285156 19.152344 12.660156 18.539062 C 15.378906 17.320312 17.777344 15.328125 19.324219 12.363281 C 21.230469 8.707031 20.636719 5.585938 18.847656 3.304688 L 18.652344 3.070312 L 18.507812 2.90625 C 18.484375 2.882812 18.464844 2.863281 18.445312 2.84375 L 18.367188 2.765625 C 18.152344 2.554688 17.855469 2.3125 17.484375 2.066406 C 16.925781 1.695312 16.300781 1.398438 15.625 1.210938 L 15.394531 1.152344 C 13.800781 0.777344 12.152344 1.082031 10.554688 2.214844 L 10.5 2.257812 L 10.445312 2.214844 C 8.773438 1.027344 7.039062 0.75 5.375 1.210938 C 4.695312 1.398438 4.074219 1.695312 3.515625 2.066406 C 3.144531 2.3125 2.847656 2.554688 2.636719 2.761719 Z M 9.882812 4.265625 L 10.5 4.800781 L 11.117188 4.265625 C 12.492188 3.070312 13.792969 2.789062 15.0625 3.140625 C 15.796875 3.34375 16.410156 3.71875 16.828125 4.085938 L 16.984375 4.230469 L 17.066406 4.316406 L 17.183594 4.449219 L 17.277344 4.566406 C 18.617188 6.269531 19.0625 8.582031 17.554688 11.464844 C 16.242188 13.972656 14.195312 15.667969 11.867188 16.707031 C 10.996094 17.097656 10.003906 17.097656 9.132812 16.707031 C 6.800781 15.667969 4.757812 13.972656 3.445312 11.464844 C 1.9375 8.582031 2.382812 6.269531 3.730469 4.554688 L 3.882812 4.375 L 3.984375 4.261719 L 4.042969 4.199219 C 4.453125 3.804688 5.121094 3.363281 5.9375 3.140625 C 7.207031 2.789062 8.507812 3.070312 9.882812 4.265625 Z M 9.882812 4.265625 "/>
</clipPath>
</defs>
<g clip-path="url(#clip-0)">
<g clip-path="url(#clip-1)">
<rect x="-2.1" y="-2" width="25.2" height="24" fill="rgb(96.078491%, 37.254333%, 14.117432%)" fill-opacity="1"/>
</g>
</g>
</svg>
