<?xml version="1.0" encoding="UTF-8"?>
<svg xmlns="http://www.w3.org/2000/svg" xmlns:xlink="http://www.w3.org/1999/xlink" width="33" height="33" viewBox="0 0 33 33">
<defs>
<clipPath id="clip-0">
<path clip-rule="nonzero" d="M 5 4 L 29 4 L 29 29 L 5 29 Z M 5 4 "/>
</clipPath>
<clipPath id="clip-1">
<path clip-rule="nonzero" d="M 5.121094 21.078125 L 7.039062 24.421875 C 7.144531 24.601562 7.308594 24.738281 7.507812 24.8125 C 7.703125 24.882812 7.917969 24.886719 8.117188 24.816406 L 10.828125 23.921875 C 11.636719 24.589844 12.554688 25.121094 13.542969 25.492188 L 14.101562 28.28125 C 14.144531 28.488281 14.257812 28.671875 14.421875 28.804688 C 14.589844 28.933594 14.792969 29.003906 15.007812 29 L 18.886719 29 C 19.140625 28.996094 19.386719 28.886719 19.5625 28.703125 C 19.675781 28.582031 19.75 28.433594 19.78125 28.273438 L 19.925781 27.609375 L 19.925781 27.546875 L 20.378906 25.472656 C 21.363281 25.101562 22.28125 24.570312 23.089844 23.902344 L 25.804688 24.800781 C 26.003906 24.882812 26.230469 24.890625 26.441406 24.824219 C 26.648438 24.753906 26.824219 24.613281 26.933594 24.421875 L 28.878906 21.078125 C 28.980469 20.898438 29.023438 20.6875 28.988281 20.484375 C 28.957031 20.277344 28.851562 20.09375 28.695312 19.953125 L 26.542969 18.070312 C 26.617188 17.550781 26.648438 17.023438 26.644531 16.5 C 26.644531 15.988281 26.605469 15.480469 26.527344 14.972656 C 26.53125 14.960938 26.53125 14.945312 26.527344 14.929688 L 28.679688 13.054688 C 28.835938 12.917969 28.9375 12.730469 28.96875 12.527344 C 29.003906 12.320312 28.964844 12.113281 28.859375 11.933594 L 26.933594 8.585938 C 26.828125 8.40625 26.664062 8.265625 26.46875 8.191406 C 26.273438 8.117188 26.054688 8.113281 25.855469 8.183594 L 23.144531 9.078125 C 22.332031 8.410156 21.417969 7.878906 20.433594 7.507812 L 19.871094 4.71875 C 19.828125 4.511719 19.714844 4.328125 19.550781 4.195312 C 19.386719 4.066406 19.179688 3.996094 18.964844 4 L 15.078125 4 C 14.867188 3.996094 14.660156 4.066406 14.496094 4.195312 C 14.332031 4.328125 14.214844 4.511719 14.175781 4.71875 L 13.59375 7.527344 C 12.609375 7.898438 11.691406 8.425781 10.882812 9.097656 L 8.171875 8.199219 C 7.964844 8.117188 7.738281 8.109375 7.53125 8.179688 C 7.324219 8.253906 7.148438 8.394531 7.039062 8.585938 L 5.121094 11.933594 C 5.019531 12.113281 4.980469 12.324219 5.015625 12.527344 C 5.050781 12.730469 5.15625 12.917969 5.3125 13.054688 L 7.464844 14.929688 C 7.285156 15.96875 7.285156 17.03125 7.464844 18.070312 L 5.304688 19.953125 C 5.148438 20.09375 5.042969 20.277344 5.011719 20.484375 C 4.976562 20.6875 5.019531 20.898438 5.121094 21.078125 Z M 16.988281 9.320312 C 18.90625 9.320312 20.746094 10.078125 22.101562 11.425781 C 23.457031 12.769531 24.21875 14.597656 24.21875 16.5 C 24.21875 18.402344 23.457031 20.230469 22.101562 21.574219 C 20.746094 22.921875 18.90625 23.679688 16.988281 23.679688 C 15.066406 23.679688 13.226562 22.921875 11.871094 21.574219 C 10.515625 20.230469 9.753906 18.402344 9.753906 16.5 C 9.753906 14.597656 10.515625 12.769531 11.871094 11.425781 C 13.226562 10.078125 15.066406 9.320312 16.988281 9.320312 Z M 16.988281 9.320312 "/>
</clipPath>
</defs>
<g clip-path="url(#clip-0)">
<g clip-path="url(#clip-1)">
<path fill-rule="nonzero" fill="rgb(100%, 59.2%, 22.3%)" fill-opacity="1" d="M 3.976562 2.996094 L 30.023438 2.996094 L 30.023438 30.003906 L 3.976562 30.003906 Z M 3.976562 2.996094 "/>
</g>
</g>
</svg>
