<svg width="269" height="135" viewBox="0 0 269 135" fill="none" xmlns="http://www.w3.org/2000/svg">
<path fill-rule="evenodd" clip-rule="evenodd" d="M18.9766 81.2998L11.0416 89.6226L6.11175 94.7903C4.57401 96.4025 1.96587 95.6444 1.41811 93.4183L-0.330702 86.302L-3.09965 75.043C4.12675 77.6268 11.5039 79.7195 18.9766 81.2998Z" fill="#FFC249"/>
<path fill-rule="evenodd" clip-rule="evenodd" d="M21.4291 81.7998L25.786 92.5356L28.5248 99.2889C29.3841 101.403 32.0727 101.734 33.3642 99.8922L37.5 93.9931L44.043 84.6506L21.4291 81.7998Z" fill="#FFC249"/>
<path fill-rule="evenodd" clip-rule="evenodd" d="M71.085 84.0166L66.3561 93.7915L63.1902 100.331C62.2002 102.376 59.4966 102.515 58.3257 100.582L54.5768 94.4001L48.7876 84.8494C56.2301 85.0576 63.6776 84.7747 71.085 84.0166Z" fill="#FFC249"/>
<path fill-rule="evenodd" clip-rule="evenodd" d="M97.2969 79.3086L93.3269 90.4929L90.8846 97.3743C90.1207 99.5257 87.4523 99.9901 86.0804 98.2124L81.6933 92.5215L74.8086 83.5955C82.3767 82.6559 89.8896 81.2198 97.2969 79.3086Z" fill="#FFC249"/>
<path fill-rule="evenodd" clip-rule="evenodd" d="M121.98 71.0176L119.297 83.0667L117.704 90.2257C117.206 92.4625 114.613 93.29 113.04 91.7151L108 86.6702L99.9445 78.6037C107.427 76.559 114.789 74.0178 121.98 71.0176Z" fill="#FFC249"/>
<path fill-rule="evenodd" clip-rule="evenodd" d="M145.494 59.1484L144.625 71.032L144.087 78.3672C143.921 80.6575 141.479 81.896 139.695 80.5987L133.986 76.4347L124.86 69.7828C131.936 66.6865 138.831 63.1363 145.494 59.1484Z" fill="#FFC249"/>
<path fill-rule="evenodd" clip-rule="evenodd" d="M167.887 63.6287C167.978 65.9297 165.691 67.4672 163.776 66.3994L157.64 62.9828L148.012 57.6175C152.63 54.7561 157.133 51.6811 161.5 48.4032C163.404 46.9725 165.289 45.499 167.138 43.9775L167.606 56.2829L167.887 63.6287Z" fill="#FFC249"/>
<path fill-rule="evenodd" clip-rule="evenodd" d="M186.184 48.8728L179.611 46.5559L168.681 42.7015C174.812 37.5871 180.621 32.0244 186.074 26.0879L188.426 38.2331L189.823 45.4401C190.26 47.693 188.24 49.5989 186.184 48.8728Z" fill="#FFC249"/>
<path fill-rule="evenodd" clip-rule="evenodd" d="M206.466 26.1149L199.652 24.8123L189.043 22.789C194.214 16.8899 199.044 10.6438 203.486 4.10938L207.26 15.2456L209.607 22.1644C210.341 24.3265 208.597 26.5206 206.466 26.1149Z" fill="#FFC249"/>
<path fill-rule="evenodd" clip-rule="evenodd" d="M195.069 16.1824C179.82 35.3248 161.1 51.1109 140.16 62.6721C119.04 74.3331 95.8343 81.7339 72.1485 84.3044C47.6983 86.9577 22.8702 84.2969 -0.548737 76.3521C-21.5978 69.2113 -41.4091 58.027 -58.6746 43.3689C-60.7822 41.5795 -62.8481 39.735 -64.8778 37.8467C-65.2436 37.5067 -64.7084 36.9424 -64.3446 37.2803C-47.7545 52.7135 -28.4769 64.8048 -7.77713 72.8735C14.6765 81.6261 38.6316 85.5333 62.5225 84.2793C86.5616 83.0168 110.354 76.6948 132.18 65.9478C153.386 55.5056 172.627 40.8609 188.594 22.7146C204.255 4.91482 216.798 -16.0721 225.181 -38.7572C226.197 -41.5071 227.149 -44.2821 228.045 -47.0784C228.201 -47.5631 228.929 -47.3549 228.772 -46.8654C221.388 -23.8354 209.86 -2.38564 195.069 16.1824Z" fill="#FFC249"/>
<path fill-rule="evenodd" clip-rule="evenodd" d="M268.911 -34.5674C255.393 -16.4212 238.755 -0.973518 220.072 10.9202C199.336 24.1209 176.218 32.7869 152.263 36.2623C128.54 39.7041 104.201 38.204 80.9914 32.0379C57.6538 25.8377 35.5495 14.867 16.2477 -0.404968C-2.06451 -14.8943 -17.8691 -33.0256 -29.9455 -53.6196C-31.4445 -56.1763 -32.8828 -58.7719 -34.2678 -61.3995C-34.5049 -61.8495 -33.8542 -62.2537 -33.617 -61.8036C-22.5462 -40.8012 -7.73306 -22.1062 9.75955 -6.81336C28.3306 9.42277 49.8616 21.5173 72.8946 28.846C95.7492 36.1177 119.924 38.7501 143.699 36.4908C167.981 34.1835 191.686 26.623 213.097 14.2312C232.058 3.25728 249.175 -11.2737 263.311 -28.6219C265.046 -30.752 266.733 -32.9247 268.378 -35.1338C268.679 -35.5374 269.209 -34.9673 268.911 -34.5674Z" fill="#E26838"/>
<path fill-rule="evenodd" clip-rule="evenodd" d="M193.897 24.2464L203.12 30.9046L208.849 35.0382C210.636 36.328 213.072 35.0804 213.231 32.7859L213.738 25.4507L214.541 13.8447C207.875 17.7766 200.977 21.2541 193.897 24.2464Z" fill="#E26838"/>
<path fill-rule="evenodd" clip-rule="evenodd" d="M169.816 32.3672L177.844 40.296L182.917 45.302C184.501 46.8645 187.089 46.0216 187.573 43.7773L189.115 36.6087L191.569 25.2119L169.816 32.3672Z" fill="#E26838"/>
<path fill-rule="evenodd" clip-rule="evenodd" d="M143.113 36.9463L149.43 45.6497L153.659 51.4719C154.981 53.2924 157.664 52.9085 158.486 50.7827L161.119 43.9814L165.184 33.4746C157.899 35.1114 150.527 36.2667 143.113 36.9463Z" fill="#E26838"/>
<path fill-rule="evenodd" clip-rule="evenodd" d="M116.533 37.3596L122.344 47.5952L125.92 53.8926C127.038 55.8614 129.741 55.8049 130.787 53.7922L134.131 47.3513L139.38 37.248C131.777 37.7803 124.144 37.8139 116.533 37.3596Z" fill="#E26838"/>
<path fill-rule="evenodd" clip-rule="evenodd" d="M90.8434 33.9561L95.537 45.2893L98.3246 52.0233C99.195 54.1278 101.887 54.4422 103.164 52.5908L107.262 46.6597L113.809 37.1763C106.101 36.605 98.4271 35.5229 90.8434 33.9561Z" fill="#E26838"/>
<path fill-rule="evenodd" clip-rule="evenodd" d="M65.6949 26.8086L68.5764 38.3281L70.3559 45.4385C70.9092 47.6588 73.5224 48.4073 75.0556 46.7881L79.9598 41.5942L87.8008 33.2965C80.3141 31.6128 72.9284 29.4485 65.6949 26.8086Z" fill="#E26838"/>
<path fill-rule="evenodd" clip-rule="evenodd" d="M44.4367 35.523C44.7402 37.8031 47.2509 38.875 48.952 37.4566L54.4034 32.9162L62.958 25.7865C57.9282 23.8614 52.9757 21.7036 48.1223 19.3205C46.0051 18.2794 43.9005 17.193 41.8225 16.0527L43.4608 28.2444L44.4367 35.523Z" fill="#E26838"/>
<path fill-rule="evenodd" clip-rule="evenodd" d="M23.9265 24.5319L29.996 20.9887L40.0879 15.0944C33.1861 11.2448 26.5246 6.89175 20.1499 2.10254L19.9082 14.4997L19.763 21.8562C19.7173 24.1561 22.0289 25.6413 23.9265 24.5319Z" fill="#E26838"/>
<path fill-rule="evenodd" clip-rule="evenodd" d="M0.098547 6.05365L6.57819 3.46125L16.666 -0.569894C10.5748 -5.37619 4.76003 -10.5898 -0.723093 -16.1611L-2.53572 -4.48305L-3.66391 2.77311C-4.01669 5.04039 -1.92766 6.86244 0.098547 6.05365Z" fill="#E26838"/>
<path fill-rule="evenodd" clip-rule="evenodd" d="M103.931 134.841C103.937 134.753 103.874 134.646 103.759 134.511C103.855 134.928 103.924 135.09 103.931 134.841Z" fill="#653825"/>
</svg>
