<?xml version="1.0" encoding="UTF-8"?>
<svg xmlns="http://www.w3.org/2000/svg" xmlns:xlink="http://www.w3.org/1999/xlink" width="18.012451" height="20" viewBox="0 0 18.012451 20">
<defs>
<clipPath id="clip-0">
<path clip-rule="nonzero" d="M 0 2 L 18.011719 2 L 18.011719 18 L 0 18 Z M 0 2 "/>
</clipPath>
<clipPath id="clip-1">
<path clip-rule="nonzero" d="M 0 0 L 9 0 L 9 8 L 0 8 Z M 0 0 "/>
</clipPath>
<clipPath id="clip-2">
<path clip-rule="evenodd" d="M 8.007812 4 C 8.007812 6.210938 6.21875 8 4.007812 8 C 1.800781 8 0.0078125 6.210938 0.0078125 4 C 0.0078125 1.789062 1.800781 0 4.007812 0 C 6.21875 0 8.007812 1.789062 8.007812 4 Z M 8.007812 4 "/>
</clipPath>
</defs>
<g clip-path="url(#clip-0)">
<path fill-rule="evenodd" fill="rgb(100%, 100%, 100%)" fill-opacity="1" d="M 1.996094 8.519531 C 2.113281 4.960938 5.097656 2.117188 8.785156 2.003906 L 9.011719 2 C 12.878906 2 16.027344 5.003906 16.027344 8.738281 L 16.027344 11.9375 C 16.027344 12.933594 16.476562 13.878906 17.300781 14.574219 L 17.472656 14.710938 L 17.585938 14.8125 C 18.511719 15.742188 17.828125 17.300781 16.515625 17.300781 L 1.503906 17.300781 C 0.0898438 17.300781 -0.550781 15.53125 0.578125 14.683594 L 0.738281 14.554688 C 1.535156 13.890625 1.992188 12.9375 1.992188 11.9375 L 1.992188 8.726562 Z M 14.226562 8.542969 C 14.121094 5.980469 11.945312 3.902344 9.21875 3.804688 L 9.011719 3.800781 C 6.121094 3.800781 3.792969 6.019531 3.792969 8.738281 L 3.792969 11.9375 C 3.792969 13.230469 3.296875 14.472656 2.414062 15.4375 L 2.351562 15.5 L 15.660156 15.5 L 15.640625 15.480469 C 14.792969 14.574219 14.289062 13.40625 14.230469 12.167969 L 14.226562 11.9375 Z M 14.226562 8.542969 "/>
</g>
<path fill-rule="nonzero" fill="rgb(100%, 100%, 100%)" fill-opacity="1" d="M 11.707031 15.5 C 12.207031 15.5 12.609375 15.902344 12.609375 16.398438 C 12.609375 18.386719 10.996094 20 9.007812 20 C 7.019531 20 5.410156 18.386719 5.410156 16.398438 C 5.410156 15.902344 5.8125 15.5 6.308594 15.5 C 6.804688 15.5 7.207031 15.902344 7.207031 16.398438 C 7.207031 17.394531 8.015625 18.199219 9.007812 18.199219 C 9.957031 18.199219 10.734375 17.464844 10.804688 16.535156 L 10.808594 16.398438 C 10.808594 15.902344 11.210938 15.5 11.707031 15.5 Z M 11.707031 15.5 "/>
<path fill-rule="nonzero" fill="rgb(100%, 100%, 100%)" fill-opacity="1" d="M 8.007812 4 C 8.007812 6.210938 6.21875 8 4.007812 8 C 1.800781 8 0.0078125 6.210938 0.0078125 4 C 0.0078125 1.789062 1.800781 0 4.007812 0 C 6.21875 0 8.007812 1.789062 8.007812 4 Z M 8.007812 4 "/>
<g clip-path="url(#clip-1)">
<g clip-path="url(#clip-2)">
<path fill-rule="nonzero" fill="rgb(96.099854%, 37.298584%, 14.099121%)" fill-opacity="1" d="M 7.007812 4 C 7.007812 5.65625 5.664062 7 4.007812 7 L 4.007812 9 C 6.769531 9 9.007812 6.761719 9.007812 4 Z M 4.007812 7 C 2.351562 7 1.007812 5.65625 1.007812 4 L -0.992188 4 C -0.992188 6.761719 1.246094 9 4.007812 9 Z M 1.007812 4 C 1.007812 2.34375 2.351562 1 4.007812 1 L 4.007812 -1 C 1.246094 -1 -0.992188 1.238281 -0.992188 4 Z M 4.007812 1 C 5.664062 1 7.007812 2.34375 7.007812 4 L 9.007812 4 C 9.007812 1.238281 6.769531 -1 4.007812 -1 Z M 4.007812 1 "/>
</g>
</g>
</svg>
