<?xml version="1.0" encoding="utf-8"?>
<!-- Generator: Adobe Illustrator 27.6.1, SVG Export Plug-In . SVG Version: 6.00 Build 0)  -->
<svg version="1.1" id="Calque_1" xmlns="http://www.w3.org/2000/svg" xmlns:xlink="http://www.w3.org/1999/xlink" x="0px" y="0px"
	 viewBox="0 0 1157.2 234.1" style="enable-background:new 0 0 1157.2 234.1;" xml:space="preserve">
<style type="text/css">
	.st0{fill:#F55F24;}
	.st1{fill:#FFFFFF;}
</style>
<g>
	<path class="st0" d="M630.4,172.3c-27.2,0-49.3-22.1-49.3-49.3c0-27.2,22.1-49.3,49.3-49.3c27.2,0,49.3,22.1,49.3,49.3
		C679.7,150.2,657.6,172.3,630.4,172.3z M630.4,89.4c-18.5,0-33.6,15.1-33.6,33.6s15.1,33.6,33.6,33.6c18.5,0,33.6-15.1,33.6-33.6
		S648.9,89.4,630.4,89.4z"/>
	<path class="st0" d="M351.5,172.5c-27.2,0-49.4-22.1-49.4-49.4c0-27.2,22.1-49.4,49.4-49.4s49.4,22.1,49.4,49.4
		C400.9,150.4,378.7,172.5,351.5,172.5z M351.5,89.5c-18.6,0-33.7,15.1-33.7,33.7c0,18.6,15.1,33.7,33.7,33.7s33.7-15.1,33.7-33.7
		C385.2,104.6,370.1,89.5,351.5,89.5z"/>
	<path class="st0" d="M535.1,172.5c-4.3,0-7.8-3.5-7.8-7.8v-41.4c0-27.2,22.1-49.3,49.3-49.3c4.3,0,7.8,3.5,7.8,7.8
		s-3.5,7.8-7.8,7.8c-18.5,0-33.6,15.1-33.6,33.6v41.4C543,169,539.4,172.5,535.1,172.5z"/>
	<path class="st0" d="M464.5,172.3c-27.2,0-49.3-22.1-49.3-49.3V81.7c0-4.3,3.5-7.8,7.8-7.8s7.8,3.5,7.8,7.8V123
		c0,18.5,15.1,33.6,33.6,33.6s33.6-15.1,33.6-33.6V81.7c0-4.3,3.5-7.8,7.8-7.8s7.8,3.5,7.8,7.8V123
		C513.8,150.2,491.7,172.3,464.5,172.3z"/>
	<path class="st0" d="M212.2,172.6c-4.3,0-7.8-3.5-7.8-7.8v-41.5c0-18.5-15.1-33.6-33.6-33.6s-33.6,15.1-33.6,33.6v41.5
		c0,4.3-3.5,7.8-7.8,7.8s-7.8-3.5-7.8-7.8v-41.5c0-27.2,22.1-49.3,49.3-49.3c27.2,0,49.3,22.1,49.3,49.3v41.5
		C220,169,216.5,172.6,212.2,172.6z"/>
	<path class="st0" d="M671.8,172.7c-4.3,0-7.8-3.5-7.8-7.8V123c0-4.3,3.5-7.8,7.8-7.8s7.8,3.5,7.8,7.8v41.8
		C679.7,169.2,676.2,172.7,671.8,172.7z"/>
	<path class="st0" d="M740.5,172.3c-27.2,0-49.3-22.1-49.3-49.3c0-27.2,22.1-49.3,49.3-49.3c16.4,0,31.7,8.1,40.9,21.7
		c2.4,3.6,1.5,8.5-2.1,10.9c-3.6,2.4-8.5,1.5-10.9-2.1c-6.3-9.3-16.7-14.8-27.9-14.8c-18.5,0-33.6,15.1-33.6,33.6
		s15.1,33.6,33.6,33.6s33.6-15.1,33.6-33.6c0-4.3,3.5-7.8,7.8-7.8s7.8,3.5,7.8,7.8C789.8,150.2,767.7,172.3,740.5,172.3z"/>
	<path class="st0" d="M781.9,123"/>
	<path class="st0" d="M806.5,122.3"/>
	<path class="st0" d="M297.4,89.6h-75.1c-4.3,0-7.8-3.5-7.8-7.8s3.5-7.8,7.8-7.8h75.1c4.3,0,7.8,3.5,7.8,7.8S301.7,89.6,297.4,89.6z
		"/>
	<path class="st0" d="M260.2,172.5c-4.3,0-7.8-3.5-7.8-7.8V83.5c0-4.3,3.5-7.8,7.8-7.8c4.3,0,7.8,3.5,7.8,7.8v81.2
		C268.1,169,264.6,172.5,260.2,172.5z"/>
	<path class="st0" d="M417.6,114.7"/>
	<path class="st0" d="M320.7,85"/>
	<path class="st0" d="M265.6,129"/>
	<path class="st0" d="M849.5,172.3c-27.2,0-49.3-22.1-49.3-49.3c0-27.2,22.1-49.3,49.3-49.3c26.7,0,48.8,21.7,49.3,48.5
		c0.1,4.3-3.4,7.9-7.7,8c0,0-0.1,0-0.1,0c-4.3,0-7.8-3.4-7.8-7.7c-0.3-18.2-15.4-33-33.6-33c-18.5,0-33.6,15.1-33.6,33.6
		s15.1,33.6,33.6,33.6c11.9,0,23-6.4,29-16.7c2.2-3.7,7-5,10.7-2.8c3.7,2.2,5,7,2.8,10.7C883.3,163,867,172.3,849.5,172.3z"/>
	<path class="st0" d="M891,130.2h-81.7c-4.3,0-7.8-3.5-7.8-7.8s3.5-7.8,7.8-7.8H891c4.3,0,7.8,3.5,7.8,7.8S895.3,130.2,891,130.2z"
		/>
	<path class="st0" d="M781.9,130.2h-55.2c-4.3,0-7.8-3.5-7.8-7.8s3.5-7.8,7.8-7.8h55.2c4.3,0,7.8,3.5,7.8,7.8
		S786.3,130.2,781.9,130.2z"/>
	<path class="st0" d="M60.2,172.3c-27.2,0-49.3-22.1-49.3-49.3c0-27.2,22.1-49.3,49.3-49.3c26.7,0,48.8,21.7,49.3,48.5
		c0.1,4.3-3.4,7.9-7.7,8c-4.3,0.1-7.9-3.4-8-7.7c-0.3-18.2-15.4-33-33.6-33c-18.5,0-33.6,15.1-33.6,33.6s15.1,33.6,33.6,33.6
		c11.9,0,23-6.4,29-16.7c2.2-3.7,7-5,10.7-2.8c3.7,2.2,5,7,2.8,10.7C94,163,77.6,172.3,60.2,172.3z"/>
	<path class="st0" d="M101.6,130.2H19.9c-4.3,0-7.8-3.5-7.8-7.8s3.5-7.8,7.8-7.8h81.7c4.3,0,7.8,3.5,7.8,7.8S106,130.2,101.6,130.2z
		"/>
</g>
<circle class="st0" cx="1041.1" cy="117.6" r="103.6"/>
<g>
	<path class="st1" d="M1081.1,151.8c-4.5-2.4-10.1-0.6-12.5,3.9c-5.2,10-15.5,16.3-26.8,16.3c-16.7,0-30.2-13.6-30.2-30.2
		s13.6-30.2,30.2-30.2c12.7,0,24.1,8,28.4,20c1.7,4.8,7,7.3,11.8,5.6c4.8-1.7,7.3-7,5.6-11.8c-4.6-12.8-14.2-22.7-26.2-28l19.7-51.2
		c1.8-4.8-0.5-10.1-5.3-12c-4.8-1.8-10.1,0.5-12,5.3l-20.6,53.6c-0.5,0-1-0.1-1.5-0.1c-1.2,0-2.4,0.1-3.6,0.2l14.7-38.3
		c1.8-4.8-0.5-10.1-5.3-12c-4.8-1.8-10.1,0.5-12,5.3l-20.2,52.5c-2.6,1.7-5,3.6-7.2,5.7l14.5-37.8c1.8-4.8-0.5-10.1-5.3-12
		c-4.8-1.8-10.1,0.5-12,5.3l-13.1,34l0,0c0,0-13.7,31.9-14.5,42.6c-0.7,9.1,1.6,14.3,5.5,19.5c4.1,5.5,17.5,23.1,45.1,30.5
		c2.8,0.7,5.6,1.3,8.6,1.6c0,0,0,0,0.1,0c0,0,0,0,0,0c1.5,0.1,3.1,0.2,4.7,0.2c18.2,0,34.8-10,43.2-26.2
		C1087.4,159.7,1085.7,154.1,1081.1,151.8z"/>
	<circle class="st1" cx="1042" cy="141.7" r="17.2"/>
</g>
</svg>
