<?xml version="1.0" encoding="UTF-8"?>
<svg xmlns="http://www.w3.org/2000/svg" xmlns:xlink="http://www.w3.org/1999/xlink" width="34" height="34" viewBox="0 0 34 34">
<defs>
<clipPath id="clip-0">
<path clip-rule="nonzero" d="M 15 17 L 29 17 L 29 34 L 15 34 Z M 15 17 "/>
</clipPath>
<clipPath id="clip-1">
<path clip-rule="nonzero" d="M 25.71875 17.058594 C 16.539062 17.996094 14.085938 23.695312 15.652344 30.394531 L 15.800781 30.984375 L 15.933594 31.4375 L 16.054688 31.792969 C 16.070312 31.84375 16.085938 31.886719 16.105469 31.929688 C 16.367188 32.609375 17.035156 33.046875 17.761719 33.015625 C 24.277344 32.730469 27.773438 29.839844 28.457031 25.296875 C 28.730469 23.480469 28.527344 21.597656 28.023438 19.769531 C 27.964844 19.554688 27.90625 19.351562 27.847656 19.164062 L 27.675781 18.652344 L 27.519531 18.242188 C 27.496094 18.183594 27.472656 18.128906 27.453125 18.078125 C 27.160156 17.398438 26.457031 16.984375 25.71875 17.058594 Z M 24.390625 20.691406 L 24.730469 20.625 L 24.746094 20.667969 C 25.132812 22.078125 25.289062 23.511719 25.09375 24.789062 L 25.046875 25.074219 C 24.589844 27.40625 22.949219 28.9375 19.445312 29.453125 L 18.9375 29.515625 L 18.957031 29.597656 C 17.90625 25.109375 19.082031 21.769531 24.390625 20.691406 Z M 24.390625 20.691406 "/>
</clipPath>
<clipPath id="clip-2">
<path clip-rule="nonzero" d="M 15 10 L 20 10 L 20 24 L 15 24 Z M 15 10 "/>
</clipPath>
<clipPath id="clip-3">
<path clip-rule="nonzero" d="M 17.691406 10.132812 C 18.5625 10.132812 19.28125 10.789062 19.378906 11.632812 L 19.390625 11.832031 L 19.390625 21.609375 C 19.390625 22.550781 18.632812 23.308594 17.691406 23.308594 C 16.820312 23.308594 16.101562 22.652344 16.003906 21.808594 L 15.992188 21.609375 L 15.992188 11.832031 C 15.992188 10.894531 16.753906 10.132812 17.691406 10.132812 Z M 17.691406 10.132812 "/>
</clipPath>
<clipPath id="clip-4">
<path clip-rule="nonzero" d="M 6 17 L 20 17 L 20 34 L 6 34 Z M 6 17 "/>
</clipPath>
<clipPath id="clip-5">
<path clip-rule="nonzero" d="M 9.65625 17.058594 C 14.605469 17.566406 17.777344 19.582031 19.238281 22.769531 C 19.628906 23.621094 19.253906 24.628906 18.398438 25.019531 C 17.546875 25.414062 16.535156 25.039062 16.144531 24.183594 C 15.34375 22.429688 13.652344 21.191406 10.71875 20.640625 L 10.644531 20.628906 L 10.632812 20.667969 C 10.292969 21.902344 10.132812 23.152344 10.226562 24.304688 L 10.28125 24.789062 C 10.714844 27.664062 12.816406 29.402344 17.761719 29.617188 C 18.699219 29.660156 19.425781 30.453125 19.386719 31.390625 C 19.34375 32.328125 18.550781 33.054688 17.613281 33.015625 C 11.101562 32.730469 7.605469 29.839844 6.917969 25.296875 C 6.644531 23.480469 6.851562 21.597656 7.351562 19.769531 C 7.414062 19.554688 7.472656 19.351562 7.53125 19.164062 L 7.699219 18.652344 L 7.855469 18.242188 C 7.878906 18.183594 7.902344 18.128906 7.925781 18.078125 C 8.191406 17.457031 8.796875 17.0625 9.457031 17.050781 Z M 9.65625 17.058594 "/>
</clipPath>
<clipPath id="clip-6">
<path clip-rule="nonzero" d="M 11 1 L 24 1 L 24 14 L 11 14 Z M 11 1 "/>
</clipPath>
<clipPath id="clip-7">
<path clip-rule="nonzero" d="M 17.6875 1.699219 C 14.421875 1.699219 11.773438 4.347656 11.773438 7.617188 C 11.773438 10.882812 14.421875 13.53125 17.6875 13.53125 C 20.953125 13.53125 23.601562 10.882812 23.601562 7.617188 C 23.601562 4.347656 20.953125 1.699219 17.6875 1.699219 Z M 17.6875 5.101562 C 19.078125 5.101562 20.203125 6.226562 20.203125 7.617188 C 20.203125 9.007812 19.078125 10.132812 17.6875 10.132812 C 16.296875 10.132812 15.171875 9.007812 15.171875 7.617188 C 15.171875 6.226562 16.296875 5.101562 17.6875 5.101562 Z M 17.6875 5.101562 "/>
</clipPath>
</defs>
<g clip-path="url(#clip-0)">
<g clip-path="url(#clip-1)">
<path fill-rule="nonzero" fill="rgb(94.509888%, 37.254333%, 14.117432%)" fill-opacity="1" d="M 13.085938 15.984375 L 29.730469 15.984375 L 29.730469 34.046875 L 13.085938 34.046875 Z M 13.085938 15.984375 "/>
</g>
</g>
<g clip-path="url(#clip-2)">
<g clip-path="url(#clip-3)">
<path fill-rule="nonzero" fill="rgb(94.509888%, 37.254333%, 14.117432%)" fill-opacity="1" d="M 14.992188 9.132812 L 20.390625 9.132812 L 20.390625 24.308594 L 14.992188 24.308594 Z M 14.992188 9.132812 "/>
</g>
</g>
<g clip-path="url(#clip-4)">
<g clip-path="url(#clip-5)">
<path fill-rule="nonzero" fill="rgb(94.509888%, 37.254333%, 14.117432%)" fill-opacity="1" d="M 5.644531 16.050781 L 20.628906 16.050781 L 20.628906 34.054688 L 5.644531 34.054688 Z M 5.644531 16.050781 "/>
</g>
</g>
<g clip-path="url(#clip-6)">
<g clip-path="url(#clip-7)">
<path fill-rule="nonzero" fill="rgb(94.509888%, 37.254333%, 14.117432%)" fill-opacity="1" d="M 10.773438 0.699219 L 24.601562 0.699219 L 24.601562 14.53125 L 10.773438 14.53125 Z M 10.773438 0.699219 "/>
</g>
</g>
</svg>
