<svg xmlns="http://www.w3.org/2000/svg" xmlns:xlink="http://www.w3.org/1999/xlink" width="204" zoomAndPan="magnify" viewBox="0 0 153 98.999996" height="132" preserveAspectRatio="xMidYMid meet" version="1.0"><defs><clipPath id="fb25b610a4"><path d="M 39.609375 43 L 113 43 L 113 79.863281 L 39.609375 79.863281 Z M 39.609375 43 " clip-rule="nonzero"/></clipPath><clipPath id="c49bdd288a"><path d="M 48 19.113281 L 102 19.113281 L 102 57 L 48 57 Z M 48 19.113281 " clip-rule="nonzero"/></clipPath></defs><g clip-path="url(#fb25b610a4)"><path fill="#f55f24" d="M 86.871094 43.089844 C 86.871094 43.089844 113.015625 44.09375 112.851562 44.683594 C 112.835938 44.773438 112.792969 45.039062 112.777344 45.4375 C 111.21875 48.707031 111.777344 50.390625 112.558594 51.320312 C 112.511719 51.957031 112.441406 52.414062 112.367188 52.5625 C 112.027344 53.167969 88.375 78.992188 87.609375 79.433594 C 86.84375 79.863281 78.40625 78.535156 74.015625 77.515625 C 69.628906 76.492188 39.832031 67.890625 39.832031 67.566406 C 39.832031 67.242188 39.699219 58.210938 40.304688 57.707031 C 40.910156 57.203125 42.558594 55.710938 42.558594 55.710938 Z M 86.871094 43.089844 " fill-opacity="1" fill-rule="nonzero"/></g><path fill="#fdb899" d="M 107.328125 37.796875 C 107.476562 37.929688 107.59375 38.226562 107.652344 38.667969 C 107.0625 40.398438 105.945312 43.796875 107.433594 45.394531 C 107.300781 46.222656 107.152344 46.828125 107.003906 46.960938 C 106.417969 47.507812 87.375 69 85.664062 68.941406 C 83.957031 68.882812 42.425781 58.609375 42.453125 57.839844 C 42.46875 57.085938 42.835938 47.152344 42.835938 47.152344 C 49.773438 41.449219 56.476562 35.445312 62.925781 29.179688 C 62.792969 29.5625 63.042969 29.949219 63.425781 30.023438 C 69.199219 30.984375 106.460938 37.074219 107.328125 37.796875 Z M 107.328125 37.796875 " fill-opacity="1" fill-rule="nonzero"/><g clip-path="url(#c49bdd288a)"><path fill="#ff9c5d" d="M 98.730469 42.761719 C 94.5625 47.152344 91.203125 51.175781 87.417969 55.238281 C 86.328125 56.40625 85.222656 56.96875 83.617188 56.925781 C 82.941406 56.910156 82.320312 56.582031 81.6875 56.390625 C 75.886719 54.707031 55.28125 48.675781 48.832031 47.347656 C 48.699219 44.65625 48.566406 41.964844 48.433594 39.273438 C 48.390625 38.59375 48.375 37.902344 48.597656 37.265625 C 48.921875 36.4375 49.628906 35.816406 50.320312 35.269531 C 56.886719 29.917969 63.472656 24.566406 70.023438 19.230469 C 70.15625 19.113281 89.023438 24.375 93.265625 25.453125 C 97.492188 26.535156 100.40625 27.730469 100.761719 28.335938 C 100.835938 28.46875 100.921875 28.945312 101.027344 29.636719 C 98.417969 33.835938 101.777344 37.222656 101.777344 37.988281 C 101.792969 38.921875 101.792969 39.527344 98.730469 42.761719 Z M 98.730469 42.761719 " fill-opacity="1" fill-rule="nonzero"/></g><path fill="#ffffff" d="M 85.28125 55.417969 C 85.136719 55.296875 85.078125 55.089844 85.03125 54.914062 C 84.472656 51.855469 84.605469 48.574219 84.53125 45.46875 C 89.832031 40 95.328125 34.707031 100.980469 29.609375 C 101.230469 31.945312 101.746094 37.191406 101.777344 37.945312 C 101.777344 37.960938 101.777344 37.988281 101.777344 37.988281 C 96.710938 43.855469 91.292969 49.164062 86.226562 55.046875 C 85.988281 55.34375 85.589844 55.636719 85.28125 55.417969 Z M 107.417969 45.410156 C 107.710938 43.472656 107.902344 40.25 107.640625 38.683594 L 86.136719 60.011719 C 86.136719 60.011719 85.238281 65.554688 86.179688 67.359375 C 86.253906 67.535156 102.777344 50.273438 107.417969 45.410156 Z M 103.191406 54.929688 C 100.453125 57.558594 86.828125 70.878906 86.785156 71.054688 C 86.710938 71.261719 86.902344 76.863281 87.476562 77.914062 C 87.476562 77.914062 101.304688 64.078125 105.769531 58.742188 C 108.492188 55.476562 111.011719 52.84375 112.542969 51.261719 C 112.660156 49.578125 112.691406 46.726562 112.765625 45.378906 C 111.085938 47.078125 105.503906 52.695312 103.191406 54.929688 Z M 67.960938 67.816406 C 65.722656 66.796875 63.382812 66.015625 60.996094 65.46875 C 59.289062 65.066406 57.519531 64.789062 55.769531 64.832031 C 54.308594 64.875 52.175781 66.222656 52.851562 67.964844 C 53.132812 68.703125 53.796875 69.207031 54.441406 69.621094 C 55.738281 70.417969 57.167969 70.964844 58.609375 71.453125 C 62.425781 72.769531 66.519531 73.832031 70.480469 73.019531 C 71.039062 72.902344 71.6875 72.695312 71.96875 72.191406 C 72.367188 71.496094 71.925781 70.609375 71.363281 70.019531 C 70.421875 69 69.199219 68.363281 67.960938 67.816406 Z M 72 51.234375 C 74.78125 52.136719 77.59375 52.859375 80.464844 53.375 C 80.554688 51.882812 80.804688 50.359375 80.820312 48.707031 C 79.390625 48.144531 73.839844 46.605469 72.308594 46.445312 C 72.160156 47.894531 72.160156 49.8125 72 51.234375 Z M 51.617188 39.261719 C 51.601562 39.070312 51.351562 39.070312 51.335938 39.261719 C 51.246094 40.367188 51.1875 41.464844 51.144531 42.570312 C 51.085938 43.664062 50.894531 44.804688 51.011719 45.882812 C 51.054688 46.207031 51.542969 46.339844 51.617188 45.957031 C 51.820312 44.921875 51.746094 43.8125 51.746094 42.734375 C 51.746094 41.597656 51.703125 40.441406 51.617188 39.261719 Z M 53.515625 47.359375 C 53.707031 44.890625 53.398438 42.351562 53.175781 39.894531 C 53.175781 39.851562 53.101562 39.851562 53.101562 39.894531 C 52.957031 42.363281 52.632812 44.890625 52.707031 47.359375 C 52.734375 47.878906 53.472656 47.878906 53.515625 47.359375 Z M 44.945312 49.621094 C 44.929688 49.546875 44.824219 49.546875 44.8125 49.621094 C 44.546875 50.835938 44.5625 52.089844 44.515625 53.316406 C 44.441406 54.664062 44.308594 56.035156 44.398438 57.367188 C 44.441406 57.796875 45.015625 57.796875 45.078125 57.367188 C 45.207031 56.023438 45.136719 54.648438 45.121094 53.316406 C 45.078125 52.089844 45.148438 50.835938 44.945312 49.621094 Z M 77.652344 59.304688 C 77.316406 61.269531 77.183594 63.5 77.609375 65.46875 C 77.699219 65.882812 78.375 65.792969 78.359375 65.378906 C 78.273438 63.367188 77.976562 61.34375 77.859375 59.332031 C 77.832031 59.214844 77.667969 59.183594 77.652344 59.304688 Z M 80.347656 60.398438 C 79.65625 60.988281 79.65625 61.90625 79.65625 62.777344 C 79.640625 64.035156 79.40625 65.570312 79.820312 66.769531 C 79.890625 66.976562 80.203125 66.988281 80.273438 66.769531 C 80.554688 65.808594 80.394531 64.699219 80.394531 63.707031 C 80.378906 62.746094 80.128906 61.460938 80.644531 60.605469 C 80.71875 60.414062 80.480469 60.265625 80.347656 60.398438 Z M 82.117188 44.804688 C 81.144531 44.125 79.714844 43.929688 78.566406 43.621094 C 77.257812 43.265625 75.960938 42.910156 74.632812 42.542969 C 71.953125 41.832031 69.257812 41.121094 66.578125 40.441406 C 63.941406 39.777344 61.320312 39.140625 58.667969 38.519531 C 57.359375 38.195312 56.019531 37.902344 54.707031 37.621094 C 53.457031 37.355469 52.128906 36.910156 50.835938 36.867188 C 50.6875 36.867188 50.585938 37.117188 50.761719 37.191406 C 51.867188 37.695312 53.191406 37.871094 54.371094 38.167969 C 55.679688 38.507812 57.003906 38.800781 58.332031 39.113281 C 61.039062 39.75 63.734375 40.367188 66.429688 41.035156 C 69.066406 41.667969 71.703125 42.320312 74.324219 43.03125 C 75.636719 43.382812 76.933594 43.738281 78.257812 44.109375 C 79.433594 44.449219 80.804688 45.113281 82.070312 45.054688 C 82.175781 45.023438 82.21875 44.878906 82.117188 44.804688 Z M 82.117188 44.804688 " fill-opacity="1" fill-rule="nonzero"/></svg>