<?xml version="1.0" encoding="UTF-8"?>
<svg xmlns="http://www.w3.org/2000/svg" xmlns:xlink="http://www.w3.org/1999/xlink" width="184" height="110" viewBox="0 0 184 110">
<defs>
<clipPath id="clip-0">
<path clip-rule="nonzero" d="M 35 26 L 53 26 L 53 68 L 35 68 Z M 35 26 "/>
</clipPath>
<clipPath id="clip-1">
<path clip-rule="evenodd" d="M 35.871094 61.476562 C 35.871094 61.476562 35.375 54.648438 39.085938 48.589844 C 41.402344 44.800781 41.210938 41.015625 40.738281 38.707031 C 40.304688 36.570312 40.011719 34.402344 39.949219 32.222656 L 39.890625 30.199219 C 39.847656 28.84375 40.421875 27.546875 41.445312 26.664062 C 42.378906 25.855469 43.835938 26.261719 44.21875 27.4375 L 50.710938 47.351562 C 50.710938 47.351562 55.039062 60.832031 48.359375 67.386719 Z M 35.871094 61.476562 "/>
</clipPath>
<clipPath id="clip-2">
<path clip-rule="nonzero" d="M 0.738281 17.6875 L 58.871094 17.6875 L 58.871094 104.058594 L 0.738281 104.058594 Z M 0.738281 17.6875 "/>
</clipPath>
<clipPath id="clip-3">
<path clip-rule="evenodd" d="M 50.554688 64.289062 L 58.871094 99.777344 L 30.910156 104.058594 L 28.667969 84.667969 C 27.988281 78.796875 25.617188 73.253906 21.839844 68.707031 L 1.230469 43.894531 C 0.574219 43.105469 0.570312 41.960938 1.222656 41.167969 C 1.984375 40.246094 3.351562 40.125 4.261719 40.898438 L 18.269531 52.828125 L 3.726562 30.007812 C 3.226562 29.226562 3.359375 28.203125 4.039062 27.570312 C 4.820312 26.839844 6.050781 26.894531 6.769531 27.6875 L 23.730469 46.382812 L 24.359375 45.703125 L 10.710938 21.042969 C 10.164062 20.054688 10.429688 18.816406 11.332031 18.136719 C 12.351562 17.375 13.800781 17.601562 14.535156 18.640625 L 30.910156 41.777344 L 22.851562 23.195312 C 22.578125 22.5625 22.730469 21.828125 23.230469 21.355469 C 23.957031 20.671875 25.121094 20.789062 25.695312 21.601562 L 41.835938 44.691406 Z M 50.554688 64.289062 "/>
</clipPath>
<clipPath id="clip-4">
<path clip-rule="nonzero" d="M 21 44 L 40 44 L 40 63 L 21 63 Z M 21 44 "/>
</clipPath>
<clipPath id="clip-5">
<path clip-rule="evenodd" d="M 35.867188 61.472656 L 36.042969 61.558594 C 35.441406 61.964844 34.742188 62.230469 33.996094 62.3125 C 31.9375 62.542969 28.542969 62.46875 25.195312 60.378906 C 19.871094 57.054688 21.226562 52.167969 21.226562 52.167969 C 21.226562 52.167969 22.355469 47.222656 27.792969 48.25 C 29.476562 42.980469 34.363281 44.332031 34.363281 44.332031 C 34.363281 44.332031 37.59375 45.074219 39.039062 48.664062 C 35.378906 54.707031 35.867188 61.472656 35.867188 61.472656 "/>
</clipPath>
<clipPath id="clip-6">
<path clip-rule="nonzero" d="M 70 23 L 88 23 L 88 65 L 70 65 Z M 70 23 "/>
</clipPath>
<clipPath id="clip-7">
<path clip-rule="evenodd" d="M 87.78125 56.738281 C 87.78125 56.738281 87.089844 49.925781 82.390625 44.597656 C 79.457031 41.265625 78.992188 37.503906 79.058594 35.148438 C 79.121094 32.96875 79.03125 30.78125 78.71875 28.625 L 78.429688 26.621094 C 78.234375 25.28125 77.449219 24.101562 76.285156 23.410156 C 75.226562 22.777344 73.863281 23.425781 73.691406 24.648438 L 70.730469 45.382812 C 70.730469 45.382812 68.789062 59.40625 76.496094 64.714844 Z M 87.78125 56.738281 "/>
</clipPath>
<clipPath id="clip-8">
<path clip-rule="nonzero" d="M 71.722656 9.574219 L 119.152344 9.574219 L 119.152344 98.429688 L 71.722656 98.429688 Z M 71.722656 9.574219 "/>
</clipPath>
<clipPath id="clip-9">
<path clip-rule="evenodd" d="M 73.800781 62.042969 L 71.722656 98.429688 L 100.003906 97.824219 L 98.871094 78.339844 C 98.53125 72.441406 99.910156 66.570312 102.847656 61.445312 L 118.871094 33.449219 C 119.378906 32.558594 119.1875 31.429688 118.40625 30.761719 C 117.5 29.984375 116.132812 30.101562 115.367188 31.023438 L 103.625 45.183594 L 114.019531 20.203125 C 114.375 19.347656 114.070312 18.359375 113.292969 17.851562 C 112.394531 17.269531 111.191406 17.53125 110.621094 18.4375 L 97.136719 39.777344 L 96.398438 39.21875 L 105.59375 12.574219 C 105.960938 11.507812 105.488281 10.332031 104.480469 9.820312 C 103.34375 9.242188 101.957031 9.714844 101.410156 10.867188 L 89.269531 36.480469 L 94.003906 16.785156 C 94.164062 16.117188 93.886719 15.417969 93.3125 15.039062 C 92.480469 14.488281 91.355469 14.804688 90.929688 15.707031 L 79.011719 41.234375 Z M 73.800781 62.042969 "/>
</clipPath>
<clipPath id="clip-10">
<path clip-rule="nonzero" d="M 82 39 L 102 39 L 102 58 L 82 58 Z M 82 39 "/>
</clipPath>
<clipPath id="clip-11">
<path clip-rule="evenodd" d="M 87.78125 56.734375 L 87.625 56.847656 C 88.285156 57.148438 89.023438 57.285156 89.769531 57.242188 C 91.835938 57.109375 95.167969 56.453125 98.109375 53.816406 C 102.777344 49.625 100.601562 45.046875 100.601562 45.046875 C 100.601562 45.046875 98.632812 40.367188 93.453125 42.316406 C 90.890625 37.417969 86.308594 39.589844 86.308594 39.589844 C 86.308594 39.589844 83.257812 40.878906 82.449219 44.664062 C 87.097656 49.984375 87.78125 56.734375 87.78125 56.734375 "/>
</clipPath>
<clipPath id="clip-12">
<path clip-rule="nonzero" d="M 121 43 L 152 43 L 152 79 L 121 79 Z M 121 43 "/>
</clipPath>
<clipPath id="clip-13">
<path clip-rule="evenodd" d="M 151.332031 65.75 C 151.332031 65.75 147.058594 60.40625 140.21875 58.476562 C 135.945312 57.269531 133.515625 54.359375 132.292969 52.347656 C 131.160156 50.480469 129.902344 48.691406 128.46875 47.050781 L 127.140625 45.523438 C 126.25 44.503906 124.949219 43.9375 123.59375 43.988281 C 122.363281 44.03125 121.570312 45.316406 122.085938 46.4375 L 130.847656 65.464844 C 130.847656 65.464844 136.824219 78.296875 146.179688 78.574219 Z M 151.332031 65.75 "/>
</clipPath>
<clipPath id="clip-14">
<path clip-rule="nonzero" d="M 131.707031 17.265625 L 183.890625 17.265625 L 183.890625 109.484375 L 131.707031 109.484375 Z M 131.707031 17.265625 "/>
</clipPath>
<clipPath id="clip-15">
<path clip-rule="evenodd" d="M 142.464844 77.789062 L 160.460938 109.484375 L 183.890625 93.636719 L 172.367188 77.882812 C 168.882812 73.113281 166.855469 67.433594 166.539062 61.53125 L 164.816406 29.320312 C 164.761719 28.296875 163.984375 27.453125 162.96875 27.316406 C 161.785156 27.15625 160.699219 27.996094 160.554688 29.183594 L 158.375 47.449219 L 153.554688 20.824219 C 153.386719 19.914062 152.597656 19.25 151.667969 19.246094 C 150.597656 19.242188 149.730469 20.117188 149.742188 21.1875 L 149.988281 46.429688 L 149.066406 46.359375 L 142.335938 18.988281 C 142.070312 17.890625 141.03125 17.160156 139.90625 17.277344 C 138.640625 17.410156 137.730469 18.558594 137.898438 19.824219 L 141.59375 47.925781 L 134.886719 28.8125 C 134.660156 28.164062 134.046875 27.726562 133.359375 27.71875 C 132.363281 27.710938 131.585938 28.585938 131.71875 29.574219 L 135.554688 57.484375 Z M 142.464844 77.789062 "/>
</clipPath>
<clipPath id="clip-16">
<path clip-rule="nonzero" d="M 139 48 L 159 48 L 159 66 L 139 66 Z M 139 48 "/>
</clipPath>
<clipPath id="clip-17">
<path clip-rule="evenodd" d="M 151.332031 65.75 L 151.257812 65.929688 C 151.980469 65.820312 152.671875 65.539062 153.273438 65.09375 C 154.941406 63.863281 157.382812 61.503906 158.421875 57.695312 C 160.074219 51.640625 155.757812 48.972656 155.757812 48.972656 C 155.757812 48.972656 151.570312 46.113281 148.273438 50.558594 C 143.464844 47.832031 140.792969 52.144531 140.792969 52.144531 C 140.792969 52.144531 138.929688 54.882812 140.304688 58.503906 C 147.09375 60.449219 151.332031 65.75 151.332031 65.75 "/>
</clipPath>
</defs>
<g clip-path="url(#clip-0)">
<g clip-path="url(#clip-1)">
<path fill-rule="nonzero" fill="rgb(100%, 69.020081%, 58.824158%)" fill-opacity="1" d="M 34.375 24.855469 L 56.039062 24.855469 L 56.039062 68.386719 L 34.375 68.386719 Z M 34.375 24.855469 "/>
</g>
</g>
<g clip-path="url(#clip-2)">
<g clip-path="url(#clip-3)">
<path fill-rule="nonzero" fill="rgb(100%, 69.020081%, 58.824158%)" fill-opacity="1" d="M -0.261719 16.6875 L 59.871094 16.6875 L 59.871094 105.058594 L -0.261719 105.058594 Z M -0.261719 16.6875 "/>
</g>
</g>
<g clip-path="url(#clip-4)">
<g clip-path="url(#clip-5)">
<path fill-rule="nonzero" fill="rgb(255, 151, 57)" fill-opacity="1" d="M 18.871094 41.980469 L 40.039062 41.980469 L 40.039062 63.542969 L 18.871094 63.542969 Z M 18.871094 41.980469 "/>
</g>
</g>
<path fill="none" stroke-width="0.75" stroke-linecap="round" stroke-linejoin="miter" stroke="rgb(76.863098%, 50.196838%, 39.99939%)" stroke-opacity="1" stroke-miterlimit="10" d="M 2.200184 0.00192875 C 1.653309 1.123023 0.930653 2.173804 0.000965 3.091773 " transform="matrix(1, 0, 0, 1, 48.35841, 64.29104)"/>
<path fill="none" stroke-width="0.75" stroke-linecap="round" stroke-linejoin="miter" stroke="rgb(76.863098%, 50.196838%, 39.99939%)" stroke-opacity="1" stroke-miterlimit="10" d="M 0.0210038 18.106616 C 0.0210038 18.106616 -0.471184 11.282398 3.235848 5.223804 C 4.329598 3.434741 4.864754 1.626148 5.05616 0.0011475 " transform="matrix(1, 0, 0, 1, 35.85009, 43.36604)"/>
<path fill="none" stroke-width="0.75" stroke-linecap="round" stroke-linejoin="miter" stroke="rgb(76.863098%, 50.196838%, 39.99939%)" stroke-opacity="1" stroke-miterlimit="10" d="M 0.00041125 2.052146 C 0.00041125 2.052146 0.945724 0.872459 2.035567 0.001365 " transform="matrix(1, 0, 0, 1, 22.86287, 44.98301)"/>
<g clip-path="url(#clip-6)">
<g clip-path="url(#clip-7)">
<path fill-rule="nonzero" fill="rgb(56.471252%, 39.99939%, 29.803467%)" fill-opacity="1" d="M 67.789062 21.777344 L 88.78125 21.777344 L 88.78125 65.714844 L 67.789062 65.714844 Z M 67.789062 21.777344 "/>
</g>
</g>
<g clip-path="url(#clip-8)">
<g clip-path="url(#clip-9)">
<path fill-rule="nonzero" fill="rgb(56.471252%, 39.99939%, 29.803467%)" fill-opacity="1" d="M 70.722656 8.574219 L 120.152344 8.574219 L 120.152344 99.429688 L 70.722656 99.429688 Z M 70.722656 8.574219 "/>
</g>
</g>
<g clip-path="url(#clip-10)">
<g clip-path="url(#clip-11)">
<path fill-rule="nonzero" fill="rgb(255, 151, 57)" fill-opacity="1" d="M 81.449219 36.417969 L 103.777344 36.417969 L 103.777344 58.285156 L 81.449219 58.285156 Z M 81.449219 36.417969 "/>
</g>
</g>
<path fill="none" stroke-width="0.75" stroke-linecap="round" stroke-linejoin="miter" stroke="rgb(37.254333%, 22.744751%, 16.078186%)" stroke-opacity="1" stroke-miterlimit="10" d="M 2.700544 2.664271 C 1.626325 1.922084 0.731794 1.011927 0.001325 0.00020875 " transform="matrix(1, 0, 0, 1, 73.79555, 62.04276)"/>
<path fill="none" stroke-width="0.75" stroke-linecap="round" stroke-linejoin="miter" stroke="rgb(37.254333%, 22.744751%, 16.078186%)" stroke-opacity="1" stroke-miterlimit="10" d="M 0.00008875 -0.001445 C 0.468839 1.568867 1.304776 3.256367 2.691495 4.834492 C 7.386808 10.162617 8.078214 16.971211 8.078214 16.971211 " transform="matrix(1, 0, 0, 1, 79.69913, 39.76707)"/>
<path fill="none" stroke-width="0.75" stroke-linecap="round" stroke-linejoin="miter" stroke="rgb(37.254333%, 22.744751%, 16.078186%)" stroke-opacity="1" stroke-miterlimit="10" d="M 2.361099 1.672698 C 2.361099 1.672698 1.22438 0.672698 0.00172375 0.0008225 " transform="matrix(1, 0, 0, 1, 95.74437, 38.60074)"/>
<g clip-path="url(#clip-12)">
<g clip-path="url(#clip-13)">
<path fill-rule="nonzero" fill="rgb(76.863098%, 45.097351%, 27.450562%)" fill-opacity="1" d="M 120.570312 42.9375 L 152.332031 42.9375 L 152.332031 79.574219 L 120.570312 79.574219 Z M 120.570312 42.9375 "/>
</g>
</g>
<g clip-path="url(#clip-14)">
<g clip-path="url(#clip-15)">
<path fill-rule="nonzero" fill="rgb(76.863098%, 45.097351%, 27.450562%)" fill-opacity="1" d="M 130.707031 16.265625 L 184.890625 16.265625 L 184.890625 110.484375 L 130.707031 110.484375 Z M 130.707031 16.265625 "/>
</g>
</g>
<g clip-path="url(#clip-16)">
<g clip-path="url(#clip-17)">
<path fill-rule="nonzero" fill="rgb(100%, 98.039246%, 97.254944%)" fill-opacity="1" d="M 137.929688 45.113281 L 161.074219 45.113281 L 161.074219 66.929688 L 137.929688 66.929688 Z M 137.929688 45.113281 "/>
</g>
</g>
<path fill="none" stroke-width="0.75" stroke-linecap="round" stroke-linejoin="miter" stroke="rgb(37.254333%, 22.744751%, 16.078186%)" stroke-opacity="1" stroke-miterlimit="10" d="M 3.715581 1.071912 C 2.410894 1.028944 1.1648 0.747694 0.0007375 0.298475 " transform="matrix(1, 0, 0, 1, 142.4602, 77.4984)"/>
<path fill="none" stroke-width="0.75" stroke-linecap="round" stroke-linejoin="miter" stroke="rgb(37.254333%, 22.744751%, 16.078186%)" stroke-opacity="1" stroke-miterlimit="10" d="M -0.0004625 -0.00000375 C 1.245631 1.062496 2.862819 2.02734 4.88235 2.601559 C 11.718287 4.531246 15.991725 9.874996 15.991725 9.874996 " transform="matrix(1, 0, 0, 1, 135.3364, 55.87891)"/>
<path fill="none" stroke-width="0.75" stroke-linecap="round" stroke-linejoin="miter" stroke="rgb(37.254333%, 22.744751%, 16.078186%)" stroke-opacity="1" stroke-miterlimit="10" d="M 2.887512 0.759973 C 2.887512 0.759973 1.395325 0.53341 0.00079375 0.634973 " transform="matrix(1, 0, 0, 1, 148.1828, 45.56034)"/>
</svg>
