<?xml version="1.0" encoding="UTF-8"?>
<svg xmlns="http://www.w3.org/2000/svg" xmlns:xlink="http://www.w3.org/1999/xlink" width="20" height="20" viewBox="0 0 20 20">
<defs>
<clipPath id="clip-0">
<path clip-rule="nonzero" d="M 10 3 L 18 3 L 18 11 L 10 11 Z M 10 3 "/>
</clipPath>
<clipPath id="clip-1">
<path clip-rule="evenodd" d="M 17.574219 7.273438 C 17.574219 9.28125 15.949219 10.910156 13.941406 10.910156 C 11.929688 10.910156 10.304688 9.28125 10.304688 7.273438 C 10.304688 5.265625 11.929688 3.636719 13.941406 3.636719 C 15.949219 3.636719 17.574219 5.265625 17.574219 7.273438 "/>
</clipPath>
<clipPath id="clip-2">
<path clip-rule="nonzero" d="M 7 12 L 20 12 L 20 19 L 7 19 Z M 7 12 "/>
</clipPath>
<clipPath id="clip-3">
<path clip-rule="evenodd" d="M 18.019531 18.789062 L 9.859375 18.789062 C 8.433594 18.789062 7.453125 17.265625 8.0625 15.941406 C 9.101562 13.683594 11.34375 12.121094 13.9375 12.121094 C 16.535156 12.121094 18.773438 13.683594 19.816406 15.941406 C 20.425781 17.265625 19.449219 18.789062 18.019531 18.789062 "/>
</clipPath>
<clipPath id="clip-4">
<path clip-rule="nonzero" d="M 2 1 L 10 1 L 10 9 L 2 9 Z M 2 1 "/>
</clipPath>
<clipPath id="clip-5">
<path clip-rule="evenodd" d="M 6.0625 8.484375 C 4.050781 8.484375 2.425781 6.855469 2.425781 4.847656 C 2.425781 2.839844 4.050781 1.210938 6.0625 1.210938 C 8.070312 1.210938 9.695312 2.839844 9.695312 4.847656 C 9.695312 6.855469 8.070312 8.484375 6.0625 8.484375 Z M 6.0625 8.484375 "/>
</clipPath>
<clipPath id="clip-6">
<path clip-rule="nonzero" d="M 0 9 L 13 9 L 13 17 L 0 17 Z M 0 9 "/>
</clipPath>
<clipPath id="clip-7">
<path clip-rule="evenodd" d="M 1.980469 16.363281 C 0.554688 16.363281 -0.425781 14.84375 0.183594 13.519531 C 1.222656 11.261719 3.464844 9.695312 6.058594 9.695312 C 8.65625 9.695312 10.894531 11.261719 11.9375 13.519531 C 12.546875 14.84375 11.570312 16.363281 10.140625 16.363281 Z M 1.980469 16.363281 "/>
</clipPath>
</defs>
<g clip-path="url(#clip-0)">
<g clip-path="url(#clip-1)">
<path fill-rule="nonzero" fill="rgb(100%, 80.392456%, 68.235779%)" fill-opacity="1" d="M 9.304688 2.636719 L 18.574219 2.636719 L 18.574219 11.910156 L 9.304688 11.910156 Z M 9.304688 2.636719 "/>
</g>
</g>
<g clip-path="url(#clip-2)">
<g clip-path="url(#clip-3)">
<path fill-rule="nonzero" fill="rgb(100%, 80.392456%, 68.235779%)" fill-opacity="1" d="M 6.453125 11.121094 L 21 11.121094 L 21 19.789062 L 6.453125 19.789062 Z M 6.453125 11.121094 "/>
</g>
</g>
<g clip-path="url(#clip-4)">
<g clip-path="url(#clip-5)">
<path fill-rule="nonzero" fill="rgb(100%, 80.392456%, 68.235779%)" fill-opacity="1" d="M 1.425781 0.210938 L 10.695312 0.210938 L 10.695312 9.484375 L 1.425781 9.484375 Z M 1.425781 0.210938 "/>
</g>
</g>
<g clip-path="url(#clip-6)">
<g clip-path="url(#clip-7)">
<path fill-rule="nonzero" fill="rgb(100%, 80.392456%, 68.235779%)" fill-opacity="1" d="M -1 8.695312 L 13.546875 8.695312 L 13.546875 17.363281 L -1 17.363281 Z M -1 8.695312 "/>
</g>
</g>
</svg>
