<?xml version="1.0" encoding="UTF-8"?>
<svg xmlns="http://www.w3.org/2000/svg" xmlns:xlink="http://www.w3.org/1999/xlink" width="46" height="29" viewBox="0 0 46 29">
<defs>
<clipPath id="clip-0">
<path clip-rule="nonzero" d="M 2 0 L 44 0 L 44 29 L 2 29 Z M 2 0 "/>
</clipPath>
<clipPath id="clip-1">
<path clip-rule="evenodd" d="M 17.160156 0 L 29.023438 0 C 37.03125 0 43.523438 6.492188 43.523438 14.5 C 43.523438 22.507812 37.03125 29 29.023438 29 L 17.160156 29 C 9.152344 29 2.660156 22.507812 2.660156 14.5 C 2.660156 6.492188 9.152344 0 17.160156 0 Z M 17.160156 0 "/>
</clipPath>
<clipPath id="clip-2">
<path clip-rule="nonzero" d="M 19 10 L 28 10 L 28 19 L 19 19 Z M 19 10 "/>
</clipPath>
<clipPath id="clip-3">
<path clip-rule="nonzero" d="M 27.703125 14.5 C 27.703125 16.683594 25.933594 18.453125 23.75 18.453125 C 21.566406 18.453125 19.796875 16.683594 19.796875 14.5 C 19.796875 12.316406 21.566406 10.546875 23.75 10.546875 C 25.933594 10.546875 27.703125 12.316406 27.703125 14.5 "/>
</clipPath>
<clipPath id="clip-4">
<path clip-rule="nonzero" d="M 12 3 L 35 3 L 35 26 L 12 26 Z M 12 3 "/>
</clipPath>
<clipPath id="clip-5">
<path clip-rule="nonzero" d="M 34.296875 13.851562 L 32.339844 13.851562 C 31.902344 9.664062 28.585938 6.347656 24.398438 5.910156 L 24.398438 3.953125 L 22.414062 3.953125 L 22.414062 5.9375 C 18.308594 6.429688 15.046875 9.71875 14.613281 13.851562 L 12.546875 13.851562 L 12.546875 15.835938 L 14.640625 15.835938 C 15.128906 19.914062 18.363281 23.121094 22.414062 23.609375 L 22.414062 25.703125 L 24.398438 25.703125 L 24.398438 23.609375 C 28.53125 23.175781 31.820312 19.914062 32.3125 15.808594 L 34.296875 15.808594 Z M 24.398438 21.625 C 24.261719 21.652344 24.15625 21.652344 24.019531 21.679688 C 23.828125 21.707031 23.664062 21.707031 23.476562 21.707031 C 23.285156 21.707031 23.09375 21.707031 22.902344 21.679688 C 22.742188 21.652344 22.578125 21.652344 22.414062 21.625 C 19.425781 21.164062 17.085938 18.824219 16.625 15.835938 C 16.597656 15.671875 16.570312 15.507812 16.570312 15.347656 C 16.542969 15.15625 16.542969 14.964844 16.542969 14.773438 C 16.542969 14.585938 16.542969 14.421875 16.570312 14.230469 C 16.570312 14.09375 16.597656 13.988281 16.625 13.851562 C 17.03125 10.804688 19.398438 8.414062 22.414062 7.953125 C 22.578125 7.925781 22.742188 7.898438 22.902344 7.898438 C 23.09375 7.871094 23.285156 7.871094 23.476562 7.871094 C 23.664062 7.871094 23.828125 7.871094 24.019531 7.898438 C 24.15625 7.898438 24.261719 7.925781 24.398438 7.953125 C 27.5 8.332031 29.917969 10.75 30.324219 13.851562 C 30.351562 13.988281 30.351562 14.09375 30.378906 14.230469 C 30.40625 14.421875 30.40625 14.585938 30.40625 14.773438 C 30.40625 14.964844 30.40625 15.15625 30.378906 15.347656 C 30.351562 15.507812 30.351562 15.671875 30.324219 15.835938 C 29.863281 18.828125 27.445312 21.21875 24.398438 21.625 Z M 24.398438 21.625 "/>
</clipPath>
</defs>
<g clip-path="url(#clip-0)">
<g clip-path="url(#clip-1)">
<path fill-rule="nonzero" fill="rgb(100%, 59.2%, 22.3%)" fill-opacity="1" d="M 1.660156 -1 L 44.523438 -1 L 44.523438 30 L 1.660156 30 Z M 1.660156 -1 "/>
</g>
</g>
<g clip-path="url(#clip-2)">
<g clip-path="url(#clip-3)">
<path fill-rule="nonzero" fill="rgb(100%, 98.823547%, 98.039246%)" fill-opacity="1" d="M 18.796875 9.546875 L 28.703125 9.546875 L 28.703125 19.453125 L 18.796875 19.453125 Z M 18.796875 9.546875 "/>
</g>
</g>
<g clip-path="url(#clip-4)">
<g clip-path="url(#clip-5)">
<path fill-rule="nonzero" fill="rgb(100%, 98.823547%, 98.039246%)" fill-opacity="1" d="M 11.546875 2.953125 L 35.296875 2.953125 L 35.296875 26.703125 L 11.546875 26.703125 Z M 11.546875 2.953125 "/>
</g>
</g>
</svg>
