<svg width="23" height="25" viewBox="0 0 23 25" fill="none" xmlns="http://www.w3.org/2000/svg">
<path d="M6.92659 3.74973C7.9526 3.94376 8.9416 3.26886 9.13528 2.24254C9.32885 1.21617 8.65483 0.227115 7.62881 0.0331303C6.60208 -0.160494 5.6122 0.514356 5.41858 1.54078C5.22423 2.56751 5.8998 3.55574 6.92659 3.74973Z" fill="#F55F24"/>
<path d="M22.2527 23.3694L21.2083 19.6222L21.3026 16.4863C21.3099 16.2447 21.2909 16.003 21.246 15.7656L20.1277 9.8445C20.0473 9.41993 19.8023 9.04474 19.4456 8.80132C19.0889 8.5579 18.6494 8.46624 18.2252 8.5462L17.5423 8.67554C17.1028 8.75833 16.7388 9.01098 16.5034 9.35245C16.7477 9.31507 17.0563 9.26244 17.2843 9.24435L14.3383 10.2748L10.9566 9.79192C10.5533 9.73439 10.1933 9.98992 10.0809 10.3668C9.27748 9.63644 9.86397 10.1699 7.9237 8.40639L6.50163 5.75509C6.62056 5.86958 7.08498 6.44685 7.19741 6.58423L7.24798 6.3155C7.41505 5.43171 6.83341 4.5801 5.94962 4.41343L5.26673 4.28409C4.38455 4.11779 3.53216 4.69665 3.3642 5.58245L2.26566 11.3985C2.20792 11.7043 2.20442 12.0179 2.25545 12.3249L2.73034 15.1849L1.26733 19.0221C1.0769 19.523 1.32759 20.0837 1.82898 20.2749C2.32463 20.465 2.8887 20.2188 3.0815 19.7138L4.63694 15.6332C4.6972 15.4737 4.71488 15.3009 4.68833 15.1327L4.49554 13.9404L5.84049 15.5339L5.79389 19.3562C5.78745 19.8921 6.21645 20.332 6.75242 20.3385C6.75644 20.3385 6.76036 20.3385 6.76438 20.3385C7.29546 20.3385 7.72853 19.9118 7.73493 19.3796L7.7855 15.1962C7.78797 14.9632 7.70678 14.7366 7.55656 14.5587L6.03252 12.7526L6.52014 10.1692L6.30888 9.97719C6.16743 9.84862 6.06623 9.77589 6.00844 9.5919C5.94416 9.38302 5.12301 6.74337 5.08203 6.52964L6.56442 9.29384C6.60612 9.37214 6.66159 9.43725 6.72257 9.4955C6.7266 9.49993 6.72825 9.5055 6.73304 9.50999L9.1851 11.7383C9.51688 12.04 10.027 12.0118 10.3276 11.6836C10.4255 11.5759 10.4761 11.447 10.5059 11.3144C10.5766 11.3474 10.6472 11.3815 10.7285 11.3931L14.3052 11.9042C14.4242 11.9218 14.5584 11.9114 14.6861 11.8672L17.8243 10.7693C17.6668 10.8766 16.6039 11.4808 16.4328 11.5792L17.2715 16.0185L15.5048 16.7593C15.2035 16.8854 14.9867 17.1542 14.9263 17.4747L14.2419 21.1082C14.1423 21.6349 14.4893 22.1422 15.0156 22.2414C15.0766 22.253 15.1369 22.2587 15.1963 22.2587C15.6543 22.2587 16.0616 21.9333 16.1491 21.4674L16.7373 18.3473L19.3155 17.2658L19.2641 19.7247C19.2624 19.8195 19.2745 19.9144 19.2995 20.0059L20.3825 23.8909C20.5022 24.3198 20.8927 24.601 21.3169 24.601C21.4037 24.601 21.4912 24.5894 21.578 24.5649C22.0945 24.4211 22.3965 23.886 22.2527 23.3694Z" fill="#F55F24"/>
<path d="M17.6748 7.76167C18.7016 7.56758 19.3773 6.57941 19.1828 5.55262C18.9892 4.52625 17.9995 3.85135 16.9726 4.04497C15.9467 4.23901 15.2726 5.22801 15.4663 6.25438C15.6599 7.2808 16.6489 7.95565 17.6748 7.76167Z" fill="#F55F24"/>
<path d="M17.7045 22.5787H12.9844V21.0293C12.9844 20.7683 12.7723 20.5565 12.5111 20.5565H0.0444336V22.5787V23.4014V24.6009H18.1777V23.0515C18.1777 22.7905 17.9656 22.5787 17.7045 22.5787Z" fill="#F55F24"/>
</svg>
