<svg width="25" height="24" viewBox="0 0 25 24" fill="none" xmlns="http://www.w3.org/2000/svg">
<path d="M16.5 13L21.723 16.482C21.7983 16.5321 21.8858 16.5609 21.9761 16.5652C22.0664 16.5695 22.1563 16.5493 22.236 16.5066C22.3157 16.4639 22.3824 16.4004 22.4289 16.3228C22.4754 16.2452 22.5 16.1565 22.5 16.066V7.87002C22.5 7.78204 22.4768 7.69562 22.4328 7.61947C22.3887 7.54332 22.3253 7.48014 22.2491 7.43632C22.1728 7.3925 22.0863 7.36958 21.9983 7.36988C21.9103 7.37017 21.824 7.39368 21.748 7.43802L16.5 10.5" stroke="#FF9739" stroke-width="2" stroke-linecap="round" stroke-linejoin="round"/>
<path d="M14.5 6H4.5C3.39543 6 2.5 6.89543 2.5 8V16C2.5 17.1046 3.39543 18 4.5 18H14.5C15.6046 18 16.5 17.1046 16.5 16V8C16.5 6.89543 15.6046 6 14.5 6Z" stroke="#FF9739" stroke-width="2" stroke-linecap="round" stroke-linejoin="round"/>
</svg>
