<?xml version="1.0" encoding="UTF-8"?>
<svg xmlns="http://www.w3.org/2000/svg" xmlns:xlink="http://www.w3.org/1999/xlink" width="22" height="22" viewBox="0 0 22 22">
<defs>
<clipPath id="clip-0">
<path clip-rule="nonzero" d="M 1 4 L 21 4 L 21 18 L 1 18 Z M 1 4 "/>
</clipPath>
<clipPath id="clip-1">
<path clip-rule="evenodd" d="M 18.40625 4.777344 C 18.835938 4.347656 19.53125 4.347656 19.960938 4.773438 C 20.359375 5.171875 20.390625 5.796875 20.054688 6.226562 L 19.960938 6.332031 L 8.976562 17.332031 C 8.574219 17.734375 7.933594 17.757812 7.503906 17.40625 L 7.402344 17.308594 L 2.070312 11.675781 C 1.652344 11.234375 1.671875 10.539062 2.113281 10.121094 C 2.519531 9.734375 3.144531 9.722656 3.566406 10.070312 L 3.667969 10.164062 L 8.21875 14.976562 Z M 18.40625 4.777344 "/>
</clipPath>
</defs>
<g clip-path="url(#clip-0)">
<g clip-path="url(#clip-1)">
<path fill-rule="nonzero" fill="rgb(100%, 59.2%, 22.3%)" fill-opacity="1" d="M 0.652344 3.347656 L 21.390625 3.347656 L 21.390625 18.757812 L 0.652344 18.757812 Z M 0.652344 3.347656 "/>
</g>
</g>
</svg>
