<?xml version="1.0" encoding="UTF-8"?>
<svg xmlns="http://www.w3.org/2000/svg" xmlns:xlink="http://www.w3.org/1999/xlink" width="24" height="24" viewBox="0 0 24 24">
<path fill-rule="nonzero" fill="rgb(100%, 100%, 100%)" fill-opacity="1" d="M 6.621094 10.789062 C 8.058594 13.621094 10.378906 15.929688 13.210938 17.378906 L 15.410156 15.179688 C 15.679688 14.910156 16.078125 14.820312 16.429688 14.941406 C 17.550781 15.308594 18.761719 15.511719 20 15.511719 C 20.550781 15.511719 21 15.960938 21 16.511719 L 21 20 C 21 20.550781 20.550781 21 20 21 C 10.609375 21 3 13.390625 3 4 C 3 3.449219 3.449219 3 4 3 L 7.5 3 C 8.050781 3 8.5 3.449219 8.5 4 C 8.5 5.25 8.699219 6.449219 9.070312 7.570312 C 9.179688 7.921875 9.101562 8.308594 8.820312 8.589844 Z M 6.621094 10.789062 "/>
</svg>
