<svg width="20" height="20" viewBox="0 0 20 20" fill="none" xmlns="http://www.w3.org/2000/svg">
<path d="M12.5944 16.9036C12.4921 16.9036 12.3804 16.8757 12.2874 16.8292C11.9432 16.6525 11.8037 16.2341 11.9711 15.8901L13.9618 11.9198C14.0828 11.6873 14.3246 11.5386 14.5851 11.5386C14.8456 11.5386 15.0874 11.6873 15.2084 11.9291L17.1991 15.8994C17.3758 16.2434 17.2363 16.6618 16.8828 16.8385C16.5386 17.0152 16.12 16.8757 15.9433 16.5224L14.5851 13.798L13.2269 16.5224C13.0967 16.7641 12.8455 16.9036 12.5944 16.9036Z" fill="#FF9739"/>
<path d="M16.2142 16.1972H12.9399C12.5585 16.1972 12.2422 15.8811 12.2422 15.4998C12.2422 15.1186 12.5585 14.8025 12.9399 14.8025H16.2142C16.5956 14.8025 16.9119 15.1186 16.9119 15.4998C16.9119 15.8811 16.6049 16.1972 16.2142 16.1972Z" fill="#FF9739"/>
<path d="M14.5766 19.9999C11.5906 19.9999 9.15332 17.5731 9.15332 14.5791C9.15332 11.5851 11.5812 9.15833 14.5766 9.15833C17.5627 9.15833 19.9999 11.5851 19.9999 14.5791C19.9999 17.5731 17.572 19.9999 14.5766 19.9999ZM14.5766 10.5623C12.3533 10.5623 10.5487 12.3662 10.5487 14.5884C10.5487 16.8107 12.3533 18.6145 14.5766 18.6145C16.7906 18.6145 18.6046 16.8107 18.6046 14.5884C18.6046 12.3662 16.7999 10.5623 14.5766 10.5623Z" fill="#FF9739"/>
<path d="M3.35817 10.6557C2.3256 10.6557 1.50699 10.3674 0.930241 9.80947C0.316282 9.21439 0 8.31247 0 7.15025V3.5054C0 1.24596 1.24652 0 3.50701 0H7.15355C8.31636 0 9.20939 0.306837 9.81404 0.92981C10.4001 1.53419 10.6885 2.40825 10.6606 3.52402V7.15025C10.6885 8.28458 10.4001 9.17729 9.79544 9.78167C9.19078 10.386 8.29775 10.6649 7.14424 10.6463H3.51631C3.4512 10.6556 3.40468 10.6557 3.35817 10.6557ZM3.50701 1.40402C2.00932 1.40402 1.39536 2.01772 1.39536 3.51471V7.15956C1.39536 7.9313 1.5628 8.48914 1.89768 8.81457C2.22327 9.13071 2.74422 9.27027 3.47911 9.26097H7.14424C7.92565 9.27957 8.46519 9.1215 8.79078 8.79607C9.11636 8.47063 9.2652 7.92201 9.2466 7.16886V3.5054C9.2652 2.76155 9.11636 2.23153 8.80008 1.9061C8.4745 1.57137 7.91634 1.40402 7.14424 1.40402H3.50701Z" fill="#FF9739"/>
<path d="M7.20884 4.98322H3.43206C3.05066 4.98322 2.73438 4.66708 2.73438 4.28586C2.73438 3.90464 3.05066 3.5885 3.43206 3.5885H7.20884C7.59023 3.5885 7.90652 3.90464 7.90652 4.28586C7.90652 4.66708 7.59954 4.98322 7.20884 4.98322Z" fill="#FF9739"/>
<path d="M5.33049 4.98352C4.94909 4.98352 4.63281 4.66738 4.63281 4.28616V3.6539C4.63281 3.27268 4.94909 2.95654 5.33049 2.95654C5.71189 2.95654 6.02817 3.27268 6.02817 3.6539V4.28616C6.02817 4.66738 5.71189 4.98352 5.33049 4.98352Z" fill="#FF9739"/>
<path d="M3.43206 7.92155C3.05066 7.92155 2.73438 7.60541 2.73438 7.22419C2.73438 6.84297 3.05066 6.52683 3.43206 6.52683C4.61346 6.52683 5.57162 5.52265 5.57162 4.2767C5.57162 3.89548 5.8879 3.57935 6.2693 3.57935C6.6507 3.57935 6.96698 3.89548 6.96698 4.2767C6.96698 6.28509 5.38556 7.92155 3.43206 7.92155Z" fill="#FF9739"/>
<path d="M7.21916 7.92186C6.35404 7.92186 5.52613 7.48485 4.94008 6.71311C4.70752 6.40627 4.77264 5.96922 5.07962 5.73676C5.3866 5.50431 5.8238 5.56942 6.05636 5.87625C6.37265 6.30397 6.79125 6.53645 7.21916 6.53645C7.60056 6.53645 7.91685 6.85258 7.91685 7.2338C7.91685 7.61503 7.60056 7.92186 7.21916 7.92186Z" fill="#FF9739"/>
<path d="M7.20937 19.9999C3.23724 19.9999 0 16.7642 0 12.7939C0 12.4127 0.316282 12.0966 0.697681 12.0966C1.07908 12.0966 1.39536 12.4127 1.39536 12.7939C1.39536 15.5462 3.31166 17.8521 5.88843 18.4565L5.63726 18.038C5.44191 17.7033 5.54425 17.2756 5.87913 17.0803C6.20472 16.8851 6.64193 16.9874 6.83728 17.3221L7.81402 18.9493C7.94425 19.1631 7.94426 19.4328 7.82333 19.6466C7.69309 19.8605 7.46053 19.9999 7.20937 19.9999Z" fill="#FF9739"/>
<path d="M19.3031 7.91242C18.9217 7.91242 18.6054 7.59628 18.6054 7.21506C18.6054 4.46282 16.6891 2.15687 14.1124 1.55249L14.3635 1.97092C14.5589 2.30565 14.4566 2.73339 14.1217 2.92865C13.7961 3.12391 13.3589 3.02163 13.1635 2.68689L12.1868 1.05972C12.0565 0.845862 12.0565 0.576217 12.1775 0.362361C12.2984 0.139207 12.531 0.0090332 12.7821 0.0090332C16.7542 0.0090332 19.9915 3.24477 19.9915 7.21506C20.0008 7.59628 19.6845 7.91242 19.3031 7.91242Z" fill="#FF9739"/>
</svg>
