<?xml version="1.0" encoding="UTF-8"?>
<svg xmlns="http://www.w3.org/2000/svg" xmlns:xlink="http://www.w3.org/1999/xlink" width="70" height="27" viewBox="0 0 70 27">
<defs>
<clipPath id="clip-0">
<path clip-rule="nonzero" d="M 41 0 L 65 0 L 65 9 L 41 9 Z M 41 0 "/>
</clipPath>
<clipPath id="clip-1">
<path clip-rule="nonzero" d="M 64.089844 0.871094 C 64.464844 0.757812 64.859375 0.96875 64.96875 1.34375 C 65.070312 1.675781 64.914062 2.023438 64.617188 2.175781 L 64.496094 2.222656 L 42.125 8.941406 C 41.75 9.054688 41.355469 8.84375 41.246094 8.46875 C 41.144531 8.136719 41.300781 7.789062 41.601562 7.636719 L 41.71875 7.589844 Z M 64.089844 0.871094 "/>
</clipPath>
<clipPath id="clip-2">
<path clip-rule="nonzero" d="M 4 1 L 29 1 L 29 9 L 4 9 Z M 4 1 "/>
</clipPath>
<clipPath id="clip-3">
<path clip-rule="nonzero" d="M 4.367188 1.421875 C 4.519531 1.109375 4.871094 0.960938 5.191406 1.054688 L 5.3125 1.101562 L 13.183594 4.972656 L 22.25 6.015625 L 27.785156 7.375 C 28.164062 7.464844 28.398438 7.847656 28.304688 8.226562 C 28.222656 8.5625 27.910156 8.785156 27.578125 8.761719 L 27.449219 8.746094 L 22.003906 7.402344 L 12.902344 6.363281 L 12.671875 6.292969 L 4.6875 2.367188 C 4.339844 2.195312 4.195312 1.769531 4.367188 1.421875 Z M 4.367188 1.421875 "/>
</clipPath>
<clipPath id="clip-4">
<path clip-rule="nonzero" d="M 25 6 L 45 6 L 45 26 L 25 26 Z M 25 6 "/>
</clipPath>
<clipPath id="clip-5">
<path clip-rule="evenodd" d="M 33.996094 24.675781 L 25.730469 8.148438 C 25.484375 7.65625 25.6875 7.054688 26.179688 6.808594 C 26.320312 6.738281 26.472656 6.703125 26.625 6.703125 L 43.15625 6.703125 C 43.707031 6.703125 44.15625 7.148438 44.15625 7.703125 C 44.15625 7.855469 44.121094 8.007812 44.050781 8.148438 L 35.785156 24.675781 C 35.539062 25.171875 34.9375 25.371094 34.445312 25.125 C 34.25 25.027344 34.09375 24.871094 33.996094 24.675781 Z M 33.996094 24.675781 "/>
</clipPath>
<clipPath id="clip-6">
<path clip-rule="nonzero" d="M 45 1 L 64 1 L 64 22 L 45 22 Z M 45 1 "/>
</clipPath>
<clipPath id="clip-7">
<path clip-rule="evenodd" d="M 58.492188 21.257812 L 45.757812 7.871094 C 45.378906 7.46875 45.394531 6.835938 45.792969 6.457031 C 45.90625 6.347656 46.042969 6.269531 46.191406 6.222656 L 61.996094 1.390625 C 62.523438 1.230469 63.082031 1.527344 63.246094 2.054688 C 63.289062 2.203125 63.300781 2.359375 63.273438 2.515625 L 60.203125 20.738281 C 60.113281 21.28125 59.597656 21.648438 59.050781 21.554688 C 58.839844 21.519531 58.644531 21.417969 58.492188 21.257812 Z M 58.492188 21.257812 "/>
</clipPath>
<clipPath id="clip-8">
<path clip-rule="nonzero" d="M 30 10 L 41 10 L 41 14 L 30 14 Z M 30 10 "/>
</clipPath>
<clipPath id="clip-9">
<path clip-rule="nonzero" d="M 35.125 10.6875 C 36.8125 10.6875 38.449219 11.324219 39.789062 12.496094 C 40.082031 12.75 40.113281 13.195312 39.855469 13.492188 C 39.597656 13.785156 39.152344 13.8125 38.859375 13.558594 C 37.773438 12.609375 36.464844 12.101562 35.125 12.101562 C 33.757812 12.101562 32.421875 12.628906 31.324219 13.613281 C 31.035156 13.875 30.585938 13.851562 30.328125 13.558594 C 30.066406 13.269531 30.089844 12.824219 30.382812 12.5625 C 31.734375 11.351562 33.402344 10.6875 35.125 10.6875 Z M 35.125 10.6875 "/>
</clipPath>
<clipPath id="clip-10">
<path clip-rule="nonzero" d="M 51 7 L 61 7 L 61 13 L 51 13 Z M 51 7 "/>
</clipPath>
<clipPath id="clip-11">
<path clip-rule="nonzero" d="M 55.289062 7.6875 C 56.886719 7.136719 58.640625 7.207031 60.289062 7.875 C 60.648438 8.023438 60.820312 8.4375 60.675781 8.796875 C 60.527344 9.15625 60.117188 9.332031 59.753906 9.183594 C 58.421875 8.640625 57.015625 8.585938 55.75 9.023438 C 54.457031 9.46875 53.367188 10.402344 52.648438 11.691406 C 52.460938 12.03125 52.03125 12.152344 51.6875 11.964844 C 51.347656 11.773438 51.226562 11.34375 51.414062 11.003906 C 52.300781 9.417969 53.660156 8.246094 55.289062 7.6875 Z M 55.289062 7.6875 "/>
</clipPath>
<clipPath id="clip-12">
<path clip-rule="nonzero" d="M 6 1 L 25 1 L 25 22 L 6 22 Z M 6 1 "/>
</clipPath>
<clipPath id="clip-13">
<path clip-rule="evenodd" d="M 9.761719 20.816406 L 6.058594 2.710938 C 5.949219 2.167969 6.296875 1.640625 6.835938 1.53125 C 6.988281 1.5 7.148438 1.503906 7.296875 1.542969 L 23.261719 5.820312 C 23.796875 5.964844 24.113281 6.511719 23.96875 7.046875 C 23.929688 7.195312 23.855469 7.335938 23.75 7.453125 L 11.492188 21.277344 C 11.125 21.691406 10.492188 21.730469 10.078125 21.363281 C 9.917969 21.21875 9.808594 21.027344 9.761719 20.816406 Z M 9.761719 20.816406 "/>
</clipPath>
<clipPath id="clip-14">
<path clip-rule="nonzero" d="M 9 7 L 19 7 L 19 12 L 9 12 Z M 9 7 "/>
</clipPath>
<clipPath id="clip-15">
<path clip-rule="nonzero" d="M 14.820312 7.519531 C 16.417969 8.070312 17.761719 9.207031 18.644531 10.746094 C 18.839844 11.085938 18.722656 11.515625 18.382812 11.710938 C 18.046875 11.90625 17.613281 11.789062 17.421875 11.449219 C 16.703125 10.199219 15.628906 9.292969 14.363281 8.855469 C 13.070312 8.410156 11.636719 8.476562 10.277344 9.050781 C 9.917969 9.203125 9.503906 9.035156 9.351562 8.675781 C 9.199219 8.316406 9.371094 7.902344 9.726562 7.75 C 11.402344 7.042969 13.195312 6.960938 14.820312 7.519531 Z M 14.820312 7.519531 "/>
</clipPath>
<clipPath id="clip-16">
<path clip-rule="nonzero" d="M 30 8 L 33 8 L 33 11 L 30 11 Z M 30 8 "/>
</clipPath>
<clipPath id="clip-17">
<path clip-rule="evenodd" d="M 32.546875 9.699219 C 32.546875 10.167969 32.167969 10.546875 31.699219 10.546875 C 31.230469 10.546875 30.851562 10.167969 30.851562 9.699219 C 30.851562 9.230469 31.230469 8.851562 31.699219 8.851562 C 32.167969 8.851562 32.546875 9.230469 32.546875 9.699219 "/>
</clipPath>
<clipPath id="clip-18">
<path clip-rule="nonzero" d="M 50 7 L 53 7 L 53 9 L 50 9 Z M 50 7 "/>
</clipPath>
<clipPath id="clip-19">
<path clip-rule="evenodd" d="M 52.53125 7.59375 C 52.683594 8.035156 52.449219 8.515625 52.003906 8.667969 C 51.5625 8.820312 51.082031 8.585938 50.929688 8.144531 C 50.777344 7.699219 51.011719 7.21875 51.453125 7.066406 C 51.898438 6.914062 52.378906 7.148438 52.53125 7.59375 "/>
</clipPath>
<clipPath id="clip-20">
<path clip-rule="nonzero" d="M 11 4 L 13 4 L 13 7 L 11 7 Z M 11 4 "/>
</clipPath>
<clipPath id="clip-21">
<path clip-rule="evenodd" d="M 12.707031 5.75 C 12.554688 6.191406 12.074219 6.425781 11.628906 6.273438 C 11.1875 6.121094 10.953125 5.640625 11.105469 5.195312 C 11.257812 4.753906 11.742188 4.519531 12.183594 4.671875 C 12.625 4.824219 12.859375 5.304688 12.707031 5.75 "/>
</clipPath>
<clipPath id="clip-22">
<path clip-rule="nonzero" d="M 37 8 L 40 8 L 40 11 L 37 11 Z M 37 8 "/>
</clipPath>
<clipPath id="clip-23">
<path clip-rule="evenodd" d="M 39.324219 9.699219 C 39.324219 10.167969 38.945312 10.546875 38.476562 10.546875 C 38.007812 10.546875 37.628906 10.167969 37.628906 9.699219 C 37.628906 9.230469 38.007812 8.851562 38.476562 8.851562 C 38.945312 8.851562 39.324219 9.230469 39.324219 9.699219 "/>
</clipPath>
<clipPath id="clip-24">
<path clip-rule="nonzero" d="M 57 4 L 59 4 L 59 7 L 57 7 Z M 57 4 "/>
</clipPath>
<clipPath id="clip-25">
<path clip-rule="evenodd" d="M 58.9375 5.386719 C 59.089844 5.828125 58.855469 6.308594 58.414062 6.460938 C 57.972656 6.613281 57.488281 6.378906 57.335938 5.9375 C 57.183594 5.496094 57.417969 5.011719 57.863281 4.859375 C 58.304688 4.707031 58.785156 4.941406 58.9375 5.386719 "/>
</clipPath>
<clipPath id="clip-26">
<path clip-rule="nonzero" d="M 17 6 L 20 6 L 20 9 L 17 9 Z M 17 6 "/>
</clipPath>
<clipPath id="clip-27">
<path clip-rule="evenodd" d="M 19.117188 7.953125 C 18.964844 8.398438 18.480469 8.632812 18.039062 8.480469 C 17.597656 8.328125 17.359375 7.84375 17.511719 7.402344 C 17.664062 6.960938 18.148438 6.726562 18.589844 6.878906 C 19.03125 7.03125 19.269531 7.511719 19.117188 7.953125 "/>
</clipPath>
</defs>
<g clip-path="url(#clip-0)">
<g clip-path="url(#clip-1)">
<path fill-rule="nonzero" fill="rgb(59.216309%, 59.216309%, 59.216309%)" fill-opacity="1" d="M 40.144531 -0.242188 L 66.070312 -0.242188 L 66.070312 10.054688 L 40.144531 10.054688 Z M 40.144531 -0.242188 "/>
</g>
</g>
<g clip-path="url(#clip-2)">
<g clip-path="url(#clip-3)">
<path fill-rule="nonzero" fill="rgb(59.216309%, 59.216309%, 59.216309%)" fill-opacity="1" d="M 3.195312 -0.0390625 L 29.398438 -0.0390625 L 29.398438 9.785156 L 3.195312 9.785156 Z M 3.195312 -0.0390625 "/>
</g>
</g>
<g clip-path="url(#clip-4)">
<g clip-path="url(#clip-5)">
<path fill-rule="nonzero" fill="rgb(84.706116%, 84.706116%, 84.706116%)" fill-opacity="1" d="M 45.15625 26.371094 L 24.484375 26.371094 L 24.484375 5.703125 L 45.15625 5.703125 Z M 45.15625 26.371094 "/>
</g>
</g>
<g clip-path="url(#clip-6)">
<g clip-path="url(#clip-7)">
<path fill-rule="nonzero" fill="rgb(84.706116%, 84.706116%, 84.706116%)" fill-opacity="1" d="M 70.257812 20.566406 L 46.246094 27.910156 L 38.417969 2.3125 L 62.433594 -5.03125 Z M 70.257812 20.566406 "/>
</g>
</g>
<g clip-path="url(#clip-8)">
<g clip-path="url(#clip-9)">
<path fill-rule="nonzero" fill="rgb(43.920898%, 43.920898%, 43.920898%)" fill-opacity="1" d="M 29.066406 9.6875 L 41.113281 9.6875 L 41.113281 14.875 L 29.066406 14.875 Z M 29.066406 9.6875 "/>
</g>
</g>
<g clip-path="url(#clip-10)">
<g clip-path="url(#clip-11)">
<path fill-rule="nonzero" fill="rgb(43.920898%, 43.920898%, 43.920898%)" fill-opacity="1" d="M 48.410156 7.050781 L 60.425781 2.914062 L 63.636719 12.242188 L 51.625 16.378906 Z M 48.410156 7.050781 "/>
</g>
</g>
<g clip-path="url(#clip-12)">
<g clip-path="url(#clip-13)">
<path fill-rule="nonzero" fill="rgb(84.706116%, 84.706116%, 84.706116%)" fill-opacity="1" d="M 23.601562 27.496094 L -0.335938 21.082031 L 6.457031 -4.265625 L 30.394531 2.148438 Z M 23.601562 27.496094 "/>
</g>
</g>
<g clip-path="url(#clip-14)">
<g clip-path="url(#clip-15)">
<path fill-rule="nonzero" fill="rgb(43.920898%, 43.920898%, 43.920898%)" fill-opacity="1" d="M 9.601562 2.722656 L 21.632812 6.863281 L 18.4375 16.144531 L 6.40625 12 Z M 9.601562 2.722656 "/>
</g>
</g>
<g clip-path="url(#clip-16)">
<g clip-path="url(#clip-17)">
<path fill-rule="nonzero" fill="rgb(43.920898%, 43.920898%, 43.920898%)" fill-opacity="1" d="M 29.851562 7.851562 L 33.546875 7.851562 L 33.546875 11.546875 L 29.851562 11.546875 Z M 29.851562 7.851562 "/>
</g>
</g>
<g clip-path="url(#clip-18)">
<g clip-path="url(#clip-19)">
<path fill-rule="nonzero" fill="rgb(43.920898%, 43.920898%, 43.920898%)" fill-opacity="1" d="M 48.917969 6.496094 L 53.101562 5.054688 L 54.542969 9.238281 L 50.359375 10.679688 Z M 48.917969 6.496094 "/>
</g>
</g>
<g clip-path="url(#clip-20)">
<g clip-path="url(#clip-21)">
<path fill-rule="nonzero" fill="rgb(43.920898%, 43.920898%, 43.920898%)" fill-opacity="1" d="M 10.535156 2.660156 L 14.71875 4.101562 L 13.277344 8.285156 L 9.097656 6.84375 Z M 10.535156 2.660156 "/>
</g>
</g>
<g clip-path="url(#clip-22)">
<g clip-path="url(#clip-23)">
<path fill-rule="nonzero" fill="rgb(43.920898%, 43.920898%, 43.920898%)" fill-opacity="1" d="M 36.628906 7.851562 L 40.324219 7.851562 L 40.324219 11.546875 L 36.628906 11.546875 Z M 36.628906 7.851562 "/>
</g>
</g>
<g clip-path="url(#clip-24)">
<g clip-path="url(#clip-25)">
<path fill-rule="nonzero" fill="rgb(43.920898%, 43.920898%, 43.920898%)" fill-opacity="1" d="M 55.328125 4.289062 L 59.507812 2.851562 L 60.949219 7.03125 L 56.765625 8.472656 Z M 55.328125 4.289062 "/>
</g>
</g>
<g clip-path="url(#clip-26)">
<g clip-path="url(#clip-27)">
<path fill-rule="nonzero" fill="rgb(43.920898%, 43.920898%, 43.920898%)" fill-opacity="1" d="M 16.941406 4.867188 L 21.125 6.308594 L 19.683594 10.488281 L 15.503906 9.050781 Z M 16.941406 4.867188 "/>
</g>
</g>
</svg>
