<?xml version="1.0" encoding="UTF-8"?>
<svg xmlns="http://www.w3.org/2000/svg" xmlns:xlink="http://www.w3.org/1999/xlink" width="53.703613" height="48.333374" viewBox="0 0 53.703613 48.333374">
<defs>
<clipPath id="clip-0">
<path clip-rule="nonzero" d="M 36 21 L 40 21 L 40 25 L 36 25 Z M 36 21 "/>
</clipPath>
<clipPath id="clip-1">
<path clip-rule="evenodd" d="M 37.933594 24.585938 C 37.820312 24.40625 37.628906 24.292969 37.417969 24.285156 C 36.886719 24.265625 36.613281 23.636719 36.949219 23.226562 C 37.085938 23.0625 37.132812 22.839844 37.074219 22.636719 C 36.929688 22.121094 37.433594 21.660156 37.925781 21.859375 C 38.121094 21.9375 38.34375 21.914062 38.519531 21.796875 C 38.960938 21.5 39.550781 21.84375 39.515625 22.378906 C 39.5 22.589844 39.589844 22.796875 39.757812 22.925781 C 40.175781 23.261719 40.03125 23.929688 39.519531 24.0625 C 39.316406 24.113281 39.148438 24.265625 39.074219 24.464844 C 38.894531 24.964844 38.21875 25.039062 37.933594 24.585938 Z M 37.933594 24.585938 "/>
</clipPath>
</defs>
<path fill-rule="nonzero" fill="rgb(100%, 98.822021%, 98.03772%)" fill-opacity="1" d="M 1.308594 17.214844 L 52.394531 17.214844 L 52.394531 39.007812 C 52.394531 43.425781 48.8125 47.007812 44.394531 47.007812 L 9.308594 47.007812 C 4.890625 47.007812 1.308594 43.425781 1.308594 39.007812 Z M 1.308594 17.214844 "/>
<path fill-rule="nonzero" fill="rgb(100%, 61.199951%, 36.499023%)" fill-opacity="1" d="M 1.308594 17.214844 L 1.308594 16.714844 L 0.808594 16.714844 L 0.808594 17.214844 Z M 52.394531 17.214844 L 52.894531 17.214844 L 52.894531 16.714844 L 52.394531 16.714844 Z M 1.308594 17.714844 L 52.394531 17.714844 L 52.394531 16.714844 L 1.308594 16.714844 Z M 51.894531 17.214844 L 51.894531 39.007812 L 52.894531 39.007812 L 52.894531 17.214844 Z M 44.394531 46.507812 L 9.308594 46.507812 L 9.308594 47.507812 L 44.394531 47.507812 Z M 1.808594 39.007812 L 1.808594 17.214844 L 0.808594 17.214844 L 0.808594 39.007812 Z M 9.308594 46.507812 C 5.167969 46.507812 1.808594 43.152344 1.808594 39.007812 L 0.808594 39.007812 C 0.808594 43.703125 4.617188 47.507812 9.308594 47.507812 Z M 51.894531 39.007812 C 51.894531 43.152344 48.535156 46.507812 44.394531 46.507812 L 44.394531 47.507812 C 49.089844 47.507812 52.894531 43.703125 52.894531 39.007812 Z M 51.894531 39.007812 "/>
<path fill-rule="nonzero" fill="rgb(96.099854%, 37.298584%, 14.099121%)" fill-opacity="1" d="M 1.308594 13.957031 C 1.308594 9.539062 4.890625 5.957031 9.308594 5.957031 L 44.394531 5.957031 C 48.8125 5.957031 52.394531 9.539062 52.394531 13.957031 L 52.394531 17.214844 L 1.308594 17.214844 Z M 1.308594 13.957031 "/>
<path fill-rule="nonzero" fill="rgb(100%, 91.763306%, 86.273193%)" fill-opacity="1" d="M 43.878906 38.414062 C 43.878906 37.3125 44.773438 36.414062 45.878906 36.414062 L 47.121094 36.414062 C 48.222656 36.414062 49.121094 37.3125 49.121094 38.414062 L 49.121094 39.710938 C 49.121094 40.816406 48.222656 41.710938 47.121094 41.710938 L 45.878906 41.710938 C 44.773438 41.710938 43.878906 40.816406 43.878906 39.710938 Z M 43.878906 38.414062 "/>
<path fill-rule="nonzero" fill="rgb(100%, 91.763306%, 86.273193%)" fill-opacity="1" d="M 36.019531 38.414062 C 36.019531 37.3125 36.917969 36.414062 38.019531 36.414062 L 39.261719 36.414062 C 40.363281 36.414062 41.261719 37.3125 41.261719 38.414062 L 41.261719 39.710938 C 41.261719 40.816406 40.363281 41.710938 39.261719 41.710938 L 38.019531 41.710938 C 36.917969 41.710938 36.019531 40.816406 36.019531 39.710938 Z M 36.019531 38.414062 "/>
<path fill-rule="nonzero" fill="rgb(100%, 91.763306%, 86.273193%)" fill-opacity="1" d="M 28.160156 38.414062 C 28.160156 37.3125 29.058594 36.414062 30.160156 36.414062 L 31.402344 36.414062 C 32.503906 36.414062 33.402344 37.3125 33.402344 38.414062 L 33.402344 39.710938 C 33.402344 40.816406 32.503906 41.710938 31.402344 41.710938 L 30.160156 41.710938 C 29.058594 41.710938 28.160156 40.816406 28.160156 39.710938 Z M 28.160156 38.414062 "/>
<path fill-rule="nonzero" fill="rgb(100%, 91.763306%, 86.273193%)" fill-opacity="1" d="M 20.300781 38.414062 C 20.300781 37.3125 21.199219 36.414062 22.300781 36.414062 L 23.542969 36.414062 C 24.648438 36.414062 25.542969 37.3125 25.542969 38.414062 L 25.542969 39.710938 C 25.542969 40.816406 24.648438 41.710938 23.542969 41.710938 L 22.304688 41.710938 C 21.199219 41.710938 20.300781 40.816406 20.300781 39.710938 Z M 20.300781 38.414062 "/>
<path fill-rule="nonzero" fill="rgb(100%, 91.763306%, 86.273193%)" fill-opacity="1" d="M 12.445312 38.414062 C 12.445312 37.3125 13.339844 36.414062 14.445312 36.414062 L 15.683594 36.414062 C 16.789062 36.414062 17.683594 37.3125 17.683594 38.414062 L 17.683594 39.710938 C 17.683594 40.816406 16.789062 41.710938 15.683594 41.710938 L 14.445312 41.710938 C 13.339844 41.710938 12.445312 40.816406 12.445312 39.710938 Z M 12.445312 38.414062 "/>
<path fill-rule="nonzero" fill="rgb(100%, 91.763306%, 86.273193%)" fill-opacity="1" d="M 4.585938 38.414062 C 4.585938 37.3125 5.480469 36.414062 6.585938 36.414062 L 7.824219 36.414062 C 8.929688 36.414062 9.824219 37.3125 9.824219 38.414062 L 9.824219 39.710938 C 9.824219 40.816406 8.929688 41.710938 7.824219 41.710938 L 6.585938 41.710938 C 5.480469 41.710938 4.585938 40.816406 4.585938 39.710938 Z M 4.585938 38.414062 "/>
<path fill-rule="nonzero" fill="rgb(100%, 91.763306%, 86.273193%)" fill-opacity="1" d="M 43.878906 30.46875 C 43.878906 29.367188 44.773438 28.46875 45.878906 28.46875 L 47.121094 28.46875 C 48.222656 28.46875 49.121094 29.367188 49.121094 30.46875 L 49.121094 31.765625 C 49.121094 32.871094 48.222656 33.765625 47.121094 33.765625 L 45.878906 33.765625 C 44.773438 33.765625 43.878906 32.871094 43.878906 31.765625 Z M 43.878906 30.46875 "/>
<path fill-rule="nonzero" fill="rgb(100%, 91.763306%, 86.273193%)" fill-opacity="1" d="M 36.019531 30.46875 C 36.019531 29.367188 36.917969 28.46875 38.019531 28.46875 L 39.261719 28.46875 C 40.363281 28.46875 41.261719 29.367188 41.261719 30.46875 L 41.261719 31.765625 C 41.261719 32.871094 40.363281 33.765625 39.261719 33.765625 L 38.019531 33.765625 C 36.917969 33.765625 36.019531 32.871094 36.019531 31.765625 Z M 36.019531 30.46875 "/>
<path fill-rule="nonzero" fill="rgb(100%, 91.763306%, 86.273193%)" fill-opacity="1" d="M 28.160156 30.46875 C 28.160156 29.367188 29.058594 28.46875 30.160156 28.46875 L 31.402344 28.46875 C 32.503906 28.46875 33.402344 29.367188 33.402344 30.46875 L 33.402344 31.765625 C 33.402344 32.871094 32.503906 33.765625 31.402344 33.765625 L 30.160156 33.765625 C 29.058594 33.765625 28.160156 32.871094 28.160156 31.765625 Z M 28.160156 30.46875 "/>
<path fill-rule="nonzero" fill="rgb(100%, 91.763306%, 86.273193%)" fill-opacity="1" d="M 20.300781 30.46875 C 20.300781 29.367188 21.199219 28.46875 22.300781 28.46875 L 23.542969 28.46875 C 24.648438 28.46875 25.542969 29.367188 25.542969 30.46875 L 25.542969 31.765625 C 25.542969 32.871094 24.648438 33.765625 23.542969 33.765625 L 22.304688 33.765625 C 21.199219 33.765625 20.300781 32.871094 20.300781 31.765625 Z M 20.300781 30.46875 "/>
<path fill-rule="nonzero" fill="rgb(100%, 98.822021%, 98.03772%)" fill-opacity="1" d="M 12.445312 30.46875 C 12.445312 29.367188 13.339844 28.46875 14.445312 28.46875 L 15.683594 28.46875 C 16.789062 28.46875 17.683594 29.367188 17.683594 30.46875 L 17.683594 31.765625 C 17.683594 32.871094 16.789062 33.765625 15.683594 33.765625 L 14.445312 33.765625 C 13.339844 33.765625 12.445312 32.871094 12.445312 31.765625 Z M 12.445312 30.46875 "/>
<path fill-rule="nonzero" fill="rgb(100%, 91.763306%, 86.273193%)" fill-opacity="1" d="M 4.585938 30.46875 C 4.585938 29.367188 5.480469 28.46875 6.585938 28.46875 L 7.824219 28.46875 C 8.929688 28.46875 9.824219 29.367188 9.824219 30.46875 L 9.824219 31.765625 C 9.824219 32.871094 8.929688 33.765625 7.824219 33.765625 L 6.585938 33.765625 C 5.480469 33.765625 4.585938 32.871094 4.585938 31.765625 Z M 4.585938 30.46875 "/>
<path fill-rule="nonzero" fill="rgb(100%, 91.763306%, 86.273193%)" fill-opacity="1" d="M 43.878906 22.523438 C 43.878906 21.421875 44.773438 20.523438 45.878906 20.523438 L 47.121094 20.523438 C 48.222656 20.523438 49.121094 21.421875 49.121094 22.523438 L 49.121094 23.820312 C 49.121094 24.925781 48.222656 25.820312 47.121094 25.820312 L 45.878906 25.820312 C 44.773438 25.820312 43.878906 24.925781 43.878906 23.820312 Z M 43.878906 22.523438 "/>
<path fill-rule="nonzero" fill="rgb(100%, 91.763306%, 86.273193%)" fill-opacity="1" d="M 36.019531 22.523438 C 36.019531 21.421875 36.917969 20.523438 38.019531 20.523438 L 39.261719 20.523438 C 40.363281 20.523438 41.261719 21.421875 41.261719 22.523438 L 41.261719 23.820312 C 41.261719 24.925781 40.363281 25.820312 39.261719 25.820312 L 38.019531 25.820312 C 36.917969 25.820312 36.019531 24.925781 36.019531 23.820312 Z M 36.019531 22.523438 "/>
<path fill-rule="nonzero" fill="rgb(100%, 91.763306%, 86.273193%)" fill-opacity="1" d="M 28.160156 22.523438 C 28.160156 21.421875 29.058594 20.523438 30.160156 20.523438 L 31.402344 20.523438 C 32.503906 20.523438 33.402344 21.421875 33.402344 22.523438 L 33.402344 23.820312 C 33.402344 24.925781 32.503906 25.820312 31.402344 25.820312 L 30.160156 25.820312 C 29.058594 25.820312 28.160156 24.925781 28.160156 23.820312 Z M 28.160156 22.523438 "/>
<path fill-rule="nonzero" fill="rgb(100%, 91.763306%, 86.273193%)" fill-opacity="1" d="M 20.300781 22.523438 C 20.300781 21.421875 21.199219 20.523438 22.300781 20.523438 L 23.542969 20.523438 C 24.648438 20.523438 25.542969 21.421875 25.542969 22.523438 L 25.542969 23.820312 C 25.542969 24.925781 24.648438 25.820312 23.542969 25.820312 L 22.304688 25.820312 C 21.199219 25.820312 20.300781 24.925781 20.300781 23.820312 Z M 20.300781 22.523438 "/>
<path fill-rule="nonzero" fill="rgb(100%, 91.763306%, 86.273193%)" fill-opacity="1" d="M 12.445312 22.523438 C 12.445312 21.421875 13.339844 20.523438 14.445312 20.523438 L 15.683594 20.523438 C 16.789062 20.523438 17.683594 21.421875 17.683594 22.523438 L 17.683594 23.820312 C 17.683594 24.925781 16.789062 25.820312 15.683594 25.820312 L 14.445312 25.820312 C 13.339844 25.820312 12.445312 24.925781 12.445312 23.820312 Z M 12.445312 22.523438 "/>
<path fill-rule="nonzero" fill="rgb(100%, 91.763306%, 86.273193%)" fill-opacity="1" d="M 4.585938 22.523438 C 4.585938 21.421875 5.480469 20.523438 6.585938 20.523438 L 7.824219 20.523438 C 8.929688 20.523438 9.824219 21.421875 9.824219 22.523438 L 9.824219 23.820312 C 9.824219 24.925781 8.929688 25.820312 7.824219 25.820312 L 6.585938 25.820312 C 5.480469 25.820312 4.585938 24.925781 4.585938 23.820312 Z M 4.585938 22.523438 "/>
<path fill-rule="evenodd" fill="rgb(76.861572%, 92.547607%, 88.626099%)" fill-opacity="1" d="M 15.511719 33.667969 C 15.15625 33.550781 14.765625 33.621094 14.46875 33.851562 C 13.730469 34.429688 12.652344 33.890625 12.648438 32.953125 C 12.648438 32.578125 12.460938 32.222656 12.152344 32.011719 C 11.382812 31.480469 11.542969 30.28125 12.433594 29.984375 C 12.789062 29.867188 13.0625 29.582031 13.167969 29.222656 C 13.429688 28.316406 14.613281 28.105469 15.167969 28.863281 C 15.386719 29.167969 15.738281 29.339844 16.113281 29.328125 C 17.050781 29.300781 17.609375 30.371094 17.0625 31.136719 C 16.847656 31.441406 16.792969 31.839844 16.917969 32.191406 C 17.230469 33.074219 16.402344 33.953125 15.511719 33.667969 Z M 15.511719 33.667969 "/>
<path fill-rule="nonzero" fill="rgb(11.764526%, 49.803162%, 31.764221%)" fill-opacity="1" d="M 16.445312 32.359375 C 16.625 32.867188 16.144531 33.34375 15.664062 33.191406 L 15.355469 34.144531 C 16.65625 34.5625 17.832031 33.277344 17.386719 32.023438 Z M 16.65625 30.847656 C 16.34375 31.285156 16.265625 31.855469 16.445312 32.359375 L 17.386719 32.023438 C 17.316406 31.824219 17.347656 31.597656 17.46875 31.425781 Z M 16.125 29.828125 C 16.644531 29.8125 16.96875 30.410156 16.65625 30.847656 L 17.46875 31.425781 C 18.25 30.332031 17.460938 28.785156 16.097656 28.828125 Z M 14.761719 29.160156 C 15.078125 29.59375 15.589844 29.84375 16.125 29.828125 L 16.097656 28.828125 C 15.890625 28.835938 15.691406 28.738281 15.570312 28.570312 Z M 13.648438 29.359375 C 13.792969 28.855469 14.453125 28.734375 14.761719 29.160156 L 15.570312 28.570312 C 14.777344 27.472656 13.0625 27.777344 12.6875 29.085938 Z M 12.589844 30.457031 C 13.101562 30.289062 13.496094 29.875 13.648438 29.359375 L 12.6875 29.085938 C 12.628906 29.285156 12.476562 29.445312 12.277344 29.507812 Z M 12.4375 31.601562 C 11.996094 31.296875 12.101562 30.621094 12.589844 30.457031 L 12.277344 29.507812 C 10.984375 29.941406 10.765625 31.664062 11.871094 32.425781 Z M 13.148438 32.949219 C 13.144531 32.414062 12.878906 31.902344 12.4375 31.601562 L 11.871094 32.425781 C 12.042969 32.542969 12.148438 32.746094 12.148438 32.957031 Z M 14.160156 33.457031 C 13.765625 33.769531 13.152344 33.488281 13.148438 32.949219 L 12.148438 32.957031 C 12.15625 34.289062 13.695312 35.089844 14.777344 34.246094 Z M 14.777344 34.246094 C 14.941406 34.117188 15.15625 34.078125 15.355469 34.144531 L 15.664062 33.191406 C 15.152344 33.023438 14.589844 33.125 14.160156 33.457031 Z M 14.777344 34.246094 "/>
<path fill-rule="nonzero" fill="rgb(100%, 61.199951%, 36.499023%)" fill-opacity="1" d="M 12.691406 3.621094 C 12.691406 2.792969 12.019531 2.121094 11.191406 2.121094 C 10.359375 2.121094 9.691406 2.792969 9.691406 3.621094 Z M 9.691406 8.257812 C 9.691406 9.085938 10.359375 9.757812 11.191406 9.757812 C 12.019531 9.757812 12.691406 9.085938 12.691406 8.257812 Z M 9.691406 3.621094 L 9.691406 8.257812 L 12.691406 8.257812 L 12.691406 3.621094 Z M 9.691406 3.621094 "/>
<path fill-rule="nonzero" fill="rgb(100%, 61.199951%, 36.499023%)" fill-opacity="1" d="M 43.472656 3.621094 C 43.472656 2.792969 42.800781 2.121094 41.972656 2.121094 C 41.144531 2.121094 40.472656 2.792969 40.472656 3.621094 Z M 40.472656 8.257812 C 40.472656 9.085938 41.144531 9.757812 41.972656 9.757812 C 42.800781 9.757812 43.472656 9.085938 43.472656 8.257812 Z M 40.472656 3.621094 L 40.472656 8.257812 L 43.472656 8.257812 L 43.472656 3.621094 Z M 40.472656 3.621094 "/>
<path fill-rule="evenodd" fill="rgb(76.861572%, 92.547607%, 88.626099%)" fill-opacity="1" d="M 30.785156 41.386719 C 30.546875 41.222656 30.242188 41.183594 29.96875 41.285156 C 29.289062 41.546875 28.609375 40.894531 28.816406 40.199219 C 28.898438 39.917969 28.839844 39.613281 28.660156 39.382812 C 28.203125 38.808594 28.59375 37.953125 29.324219 37.9375 C 29.617188 37.933594 29.882812 37.78125 30.042969 37.539062 C 30.441406 36.925781 31.371094 37.039062 31.609375 37.734375 C 31.707031 38.007812 31.929688 38.21875 32.210938 38.296875 C 32.917969 38.492188 33.089844 39.417969 32.511719 39.863281 C 32.28125 40.039062 32.152344 40.324219 32.164062 40.613281 C 32.199219 41.339844 31.382812 41.808594 30.785156 41.386719 Z M 30.785156 41.386719 "/>
<path fill-rule="nonzero" fill="rgb(11.764526%, 49.803162%, 31.764221%)" fill-opacity="1" d="M 31.664062 40.636719 C 31.679688 40.96875 31.3125 41.148438 31.070312 40.980469 L 30.5 41.796875 C 31.453125 42.464844 32.714844 41.714844 32.664062 40.589844 Z M 32.207031 39.464844 C 31.847656 39.742188 31.644531 40.183594 31.664062 40.636719 L 32.664062 40.589844 C 32.65625 40.464844 32.71875 40.335938 32.816406 40.257812 Z M 32.078125 38.777344 C 32.375 38.859375 32.464844 39.265625 32.207031 39.464844 L 32.816406 40.257812 C 33.714844 39.566406 33.457031 38.121094 32.34375 37.8125 Z M 31.140625 37.894531 C 31.289062 38.328125 31.640625 38.65625 32.078125 38.777344 L 32.34375 37.8125 C 32.222656 37.78125 32.125 37.691406 32.082031 37.570312 Z M 30.460938 37.8125 C 30.632812 37.546875 31.035156 37.597656 31.140625 37.894531 L 32.082031 37.570312 C 31.707031 36.484375 30.246094 36.304688 29.621094 37.265625 Z M 29.335938 38.4375 C 29.792969 38.429688 30.214844 38.195312 30.460938 37.8125 L 29.621094 37.265625 C 29.554688 37.371094 29.4375 37.433594 29.3125 37.4375 Z M 29.050781 39.074219 C 28.847656 38.816406 29.027344 38.445312 29.335938 38.4375 L 29.3125 37.4375 C 28.160156 37.464844 27.5625 38.804688 28.269531 39.695312 Z M 29.296875 40.339844 C 29.425781 39.90625 29.332031 39.429688 29.050781 39.074219 L 28.269531 39.695312 C 28.347656 39.792969 28.375 39.929688 28.335938 40.054688 Z M 29.789062 40.820312 C 29.511719 40.925781 29.199219 40.660156 29.296875 40.339844 L 28.335938 40.054688 C 28.015625 41.132812 29.0625 42.167969 30.148438 41.753906 Z M 30.148438 41.753906 C 30.265625 41.710938 30.398438 41.726562 30.5 41.796875 L 31.070312 40.980469 C 30.695312 40.714844 30.214844 40.65625 29.789062 40.820312 Z M 30.148438 41.753906 "/>
<g clip-path="url(#clip-0)">
<g clip-path="url(#clip-1)">
<path fill-rule="nonzero" fill="rgb(11.764526%, 49.803162%, 31.764221%)" fill-opacity="1" d="M 38.140625 24.113281 C 38.238281 23.851562 38.609375 23.785156 38.777344 24.054688 L 37.09375 25.121094 C 37.824219 26.292969 39.546875 26.078125 40.011719 24.816406 Z M 39.269531 23.089844 C 38.746094 23.222656 38.324219 23.609375 38.140625 24.113281 L 40.011719 24.816406 C 39.96875 24.925781 39.882812 25.007812 39.769531 25.035156 Z M 39.140625 23.714844 C 38.902344 23.523438 38.996094 23.160156 39.269531 23.089844 L 39.769531 25.035156 C 41.070312 24.699219 41.445312 22.996094 40.371094 22.140625 Z M 38.519531 22.308594 C 38.484375 22.851562 38.71875 23.375 39.140625 23.714844 L 40.371094 22.140625 C 40.464844 22.214844 40.515625 22.328125 40.507812 22.449219 Z M 39.074219 22.632812 C 38.832031 22.796875 38.5 22.605469 38.519531 22.308594 L 40.507812 22.449219 C 40.597656 21.082031 39.089844 20.203125 37.960938 20.960938 Z M 37.5625 22.792969 C 38.0625 22.992188 38.628906 22.933594 39.074219 22.632812 L 37.960938 20.960938 C 38.058594 20.894531 38.183594 20.882812 38.292969 20.925781 Z M 38.03125 22.367188 C 38.109375 22.644531 37.84375 22.90625 37.5625 22.792969 L 38.292969 20.925781 C 37.023438 20.414062 35.75 21.597656 36.117188 22.902344 Z M 37.71875 23.867188 C 38.058594 23.453125 38.179688 22.890625 38.03125 22.367188 L 36.117188 22.902344 C 36.085938 22.789062 36.109375 22.671875 36.183594 22.582031 Z M 37.453125 23.28125 C 37.765625 23.292969 37.894531 23.652344 37.71875 23.867188 L 36.183594 22.582031 C 35.332031 23.617188 36.007812 25.234375 37.382812 25.289062 Z M 37.382812 25.289062 C 37.261719 25.285156 37.15625 25.21875 37.09375 25.121094 L 38.777344 24.054688 C 38.488281 23.59375 37.992188 23.304688 37.453125 23.28125 Z M 37.382812 25.289062 "/>
</g>
</g>
<path fill-rule="nonzero" fill="rgb(94.900513%, 37.254333%, 14.117432%)" fill-opacity="1" d="M 34.578125 44.257812 C 34.300781 44.257812 34.078125 44.480469 34.078125 44.757812 C 34.078125 45.03125 34.300781 45.257812 34.578125 45.257812 Z M 50.648438 22.402344 C 50.664062 22.125 50.453125 21.890625 50.175781 21.875 C 49.902344 21.859375 49.664062 22.070312 49.648438 22.347656 Z M 34.578125 44.757812 C 34.578125 45.257812 34.578125 45.257812 34.578125 45.257812 C 34.582031 45.257812 34.582031 45.257812 34.582031 45.257812 C 34.582031 45.257812 34.582031 45.257812 34.585938 45.257812 C 34.589844 45.257812 34.59375 45.257812 34.597656 45.257812 C 34.605469 45.257812 34.621094 45.257812 34.636719 45.253906 C 34.667969 45.253906 34.714844 45.253906 34.773438 45.25 C 34.890625 45.242188 35.054688 45.226562 35.253906 45.195312 C 35.648438 45.136719 36.191406 45.019531 36.765625 44.78125 C 37.925781 44.304688 39.246094 43.328125 39.777344 41.394531 L 38.8125 41.128906 C 38.382812 42.6875 37.34375 43.460938 36.386719 43.855469 C 35.902344 44.054688 35.445312 44.15625 35.105469 44.207031 C 34.9375 44.234375 34.800781 44.246094 34.710938 44.25 C 34.664062 44.253906 34.628906 44.253906 34.605469 44.257812 C 34.59375 44.257812 34.585938 44.257812 34.582031 44.257812 C 34.578125 44.257812 34.578125 44.257812 34.578125 44.257812 C 34.578125 44.257812 34.578125 44.257812 34.578125 44.757812 Z M 39.777344 41.394531 C 40.261719 39.640625 40.804688 37.875 41.550781 36.550781 C 42.300781 35.21875 43.171875 34.472656 44.265625 34.472656 L 44.265625 33.472656 C 42.621094 33.472656 41.488281 34.621094 40.679688 36.058594 C 39.867188 37.503906 39.296875 39.382812 38.8125 41.128906 Z M 44.265625 34.472656 C 45.535156 34.472656 46.136719 34.855469 46.40625 35.222656 C 46.6875 35.601562 46.707031 36.078125 46.585938 36.429688 L 47.535156 36.746094 C 47.734375 36.148438 47.722656 35.316406 47.210938 34.625 C 46.691406 33.921875 45.730469 33.472656 44.265625 33.472656 Z M 46.585938 36.429688 C 46.5 36.683594 46.089844 37.109375 45.351562 37.289062 C 44.644531 37.460938 43.691406 37.394531 42.632812 36.730469 L 42.101562 37.574219 C 43.375 38.378906 44.609375 38.5 45.585938 38.261719 C 46.53125 38.03125 47.300781 37.4375 47.535156 36.746094 Z M 42.632812 36.730469 C 41.632812 36.097656 40.921875 34.792969 40.769531 33.296875 C 40.617188 31.816406 41.023438 30.238281 42.140625 29.101562 L 41.425781 28.402344 C 40.0625 29.789062 39.597656 31.679688 39.773438 33.398438 C 39.949219 35.109375 40.769531 36.738281 42.101562 37.574219 Z M 42.140625 29.101562 C 43.3125 27.910156 44.222656 27.535156 45.078125 27.347656 C 45.539062 27.246094 45.957031 27.199219 46.46875 27.117188 C 46.960938 27.035156 47.492188 26.921875 48.066406 26.691406 L 47.691406 25.761719 C 47.214844 25.953125 46.761719 26.054688 46.304688 26.128906 C 45.863281 26.203125 45.355469 26.261719 44.863281 26.371094 C 43.820312 26.601562 42.734375 27.070312 41.425781 28.402344 Z M 48.066406 26.691406 C 49.3125 26.1875 49.953125 25.0625 50.273438 24.148438 C 50.441406 23.6875 50.53125 23.253906 50.585938 22.9375 C 50.609375 22.78125 50.625 22.648438 50.636719 22.554688 C 50.640625 22.511719 50.644531 22.472656 50.644531 22.445312 C 50.648438 22.433594 50.648438 22.421875 50.648438 22.414062 C 50.648438 22.410156 50.648438 22.410156 50.648438 22.40625 C 50.648438 22.40625 50.648438 22.40625 50.648438 22.402344 C 50.648438 22.402344 50.648438 22.402344 50.148438 22.375 C 49.648438 22.347656 49.648438 22.347656 49.648438 22.347656 C 49.648438 22.347656 49.648438 22.347656 49.648438 22.351562 C 49.648438 22.355469 49.648438 22.359375 49.648438 22.371094 C 49.648438 22.386719 49.644531 22.417969 49.640625 22.453125 C 49.632812 22.527344 49.621094 22.640625 49.597656 22.777344 C 49.550781 23.050781 49.472656 23.421875 49.332031 23.816406 C 49.046875 24.617188 48.550781 25.417969 47.691406 25.761719 Z M 48.066406 26.691406 "/>
<path fill-rule="nonzero" fill="rgb(100%, 61.199951%, 36.499023%)" fill-opacity="1" d="M 38.011719 11.625 C 38.203125 11.429688 38.203125 11.113281 38.011719 10.914062 C 37.816406 10.71875 37.5 10.71875 37.304688 10.910156 Z M 18.238281 20.773438 L 17.800781 21.011719 Z M 6.066406 21.664062 C 5.851562 21.492188 5.539062 21.523438 5.367188 21.738281 C 5.191406 21.949219 5.226562 22.265625 5.441406 22.441406 Z M 37.65625 11.269531 C 37.304688 10.910156 37.304688 10.910156 37.304688 10.910156 C 37.304688 10.914062 37.304688 10.914062 37.300781 10.917969 C 37.296875 10.921875 37.285156 10.929688 37.273438 10.941406 C 37.25 10.964844 37.210938 11 37.15625 11.046875 C 37.050781 11.136719 36.890625 11.265625 36.675781 11.414062 C 36.25 11.714844 35.621094 12.085938 34.816406 12.382812 C 33.210938 12.964844 30.886719 13.246094 28.023438 11.957031 L 27.621094 12.871094 C 30.75 14.28125 33.34375 13.988281 35.160156 13.324219 C 36.0625 12.996094 36.769531 12.578125 37.25 12.238281 C 37.492188 12.070312 37.675781 11.921875 37.804688 11.8125 C 37.867188 11.757812 37.917969 11.710938 37.953125 11.679688 C 37.96875 11.664062 37.984375 11.652344 37.992188 11.640625 C 37.996094 11.636719 38 11.632812 38.003906 11.632812 C 38.003906 11.628906 38.007812 11.628906 38.007812 11.628906 C 38.007812 11.625 38.007812 11.625 38.007812 11.625 C 38.007812 11.625 38.011719 11.625 37.65625 11.269531 Z M 28.023438 11.957031 C 24.796875 10.503906 21.621094 11.628906 19.578125 13.632812 C 17.5625 15.613281 16.511719 18.613281 17.800781 21.011719 L 18.679688 20.539062 C 17.6875 18.695312 18.429688 16.167969 20.277344 14.351562 C 22.097656 12.5625 24.851562 11.625 27.621094 12.871094 Z M 17.800781 21.011719 C 18.691406 22.664062 20.292969 23.996094 21.761719 24.707031 C 22.496094 25.0625 23.242188 25.285156 23.878906 25.289062 C 24.523438 25.292969 25.171875 25.070312 25.464844 24.40625 L 24.554688 23.996094 C 24.484375 24.148438 24.320312 24.289062 23.882812 24.285156 C 23.445312 24.28125 22.851562 24.125 22.191406 23.804688 C 20.871094 23.164062 19.449219 21.96875 18.679688 20.539062 Z M 25.464844 24.40625 C 25.9375 23.332031 25.519531 22.050781 24.472656 21.148438 C 23.417969 20.234375 21.703125 19.664062 19.402344 19.859375 L 19.492188 20.859375 C 21.597656 20.679688 23.023438 21.214844 23.824219 21.90625 C 24.640625 22.609375 24.800781 23.4375 24.554688 23.996094 Z M 19.402344 19.859375 C 19.125 19.882812 18.859375 19.921875 18.597656 19.972656 L 18.796875 20.957031 C 19.019531 20.914062 19.253906 20.878906 19.492188 20.859375 Z M 18.597656 19.972656 C 17.378906 20.214844 16.183594 20.636719 15.039062 21.070312 C 13.878906 21.507812 12.785156 21.953125 11.714844 22.277344 C 9.585938 22.921875 7.738281 23.035156 6.066406 21.664062 L 5.441406 22.441406 C 7.5 24.132812 9.773438 23.914062 12.007812 23.238281 C 13.117188 22.898438 14.265625 22.433594 15.390625 22.007812 C 16.53125 21.578125 17.664062 21.183594 18.796875 20.957031 Z M 18.597656 19.972656 "/>
<path fill-rule="nonzero" fill="rgb(100%, 61.199951%, 36.499023%)" fill-opacity="1" d="M 6.78125 28.714844 C 6.78125 29.574219 6.09375 30.269531 5.242188 30.269531 C 4.394531 30.269531 3.707031 29.574219 3.707031 28.714844 C 3.707031 27.859375 4.394531 27.164062 5.242188 27.164062 C 6.09375 27.164062 6.78125 27.859375 6.78125 28.714844 Z M 6.78125 28.714844 "/>
</svg>
