<svg width="47" height="44" viewBox="0 0 47 44" fill="none" xmlns="http://www.w3.org/2000/svg">
<g clip-path="url(#clip0_239_1583)">
<mask id="mask0_239_1583" style="mask-type:luminance" maskUnits="userSpaceOnUse" x="0" y="0" width="47" height="44">
<path d="M0.372658 6.17242L41.0715 0.307587L46.4738 37.7965L5.77493 43.6614L0.372658 6.17242Z" fill="#FAE8DC"/>
</mask>
<g mask="url(#mask0_239_1583)">
<path fill-rule="evenodd" clip-rule="evenodd" d="M37.5426 4.42027C37.5426 4.42027 28.9213 -2.44683 21.2303 6.77092C11.2504 0.0995946 4.91921 9.12139 4.91921 9.12139C4.91921 9.12139 -1.80206 17.8483 6.05789 29.0582C11.0051 36.1152 17.7093 39.1463 21.9983 40.4228C23.3377 40.8237 24.7448 40.9282 26.1246 40.7294C27.5045 40.5306 28.8248 40.033 29.9965 39.2702C33.7502 36.8347 39.3259 32.0341 42.0792 23.8674C46.4539 10.8944 37.5426 4.42027 37.5426 4.42027Z" fill="#FAE8DC"/>
</g>
<path fill-rule="evenodd" clip-rule="evenodd" d="M28.5796 8.30962C28.5796 8.30962 30.6591 10.6789 33.8182 11.4086C35.7925 11.8635 36.9718 13.1512 37.5784 14.0534C38.1409 14.889 38.7592 15.6842 39.4524 16.4104L40.0968 17.0832C40.3093 17.3056 40.5678 17.4772 40.8533 17.5856C41.1388 17.694 41.4443 17.7364 41.7474 17.7099C41.8766 17.6985 42.0008 17.6548 42.1091 17.5828C42.2174 17.5107 42.3064 17.4125 42.3681 17.2969C42.4299 17.1813 42.4625 17.0518 42.463 16.92C42.4636 16.7883 42.432 16.6582 42.3713 16.5415L37.9029 7.9574C37.9029 7.9574 34.8579 2.16841 30.5966 2.26224L28.5796 8.30962Z" fill="#FFB096"/>
<mask id="mask1_239_1583" style="mask-type:luminance" maskUnits="userSpaceOnUse" x="20" y="1" width="20" height="31">
<path d="M20.1759 3.28205L35.044 1.13951L39.1794 29.8371L24.3113 31.9796L20.1759 3.28205Z" fill="#FFB096"/>
</mask>
<g mask="url(#mask1_239_1583)">
<path fill-rule="evenodd" clip-rule="evenodd" d="M23.373 25.4626L23.3652 25.3675L23.3626 25.3493L21.8443 11.3176L21.769 10.6188C21.7582 10.5436 21.7532 10.4675 21.7432 10.3982C21.7212 10.0688 21.7234 9.73676 21.7463 9.41252C21.9913 5.74459 24.7195 2.6273 28.4542 2.08912C29.7919 1.89634 31.0978 2.05327 32.282 2.49733L32.2986 2.52687L32.2994 2.53278L32.3052 2.53195L32.3061 2.53786L35.9632 11.7591L36.0987 12.4811L36.1072 12.4928L36.3967 14.0248L38.4188 24.5618C38.4997 24.9906 38.2115 25.3966 37.7991 25.4561C37.7742 25.4597 37.7484 25.4573 37.7243 25.4608C37.5707 25.4685 37.4185 25.4272 37.2888 25.3427C37.1591 25.2582 37.0586 25.1347 37.0012 24.9895L33.6764 16.8472L33.4614 16.3148L33.573 16.913L35.8552 29.2165L35.8614 29.2596C35.8991 29.5202 35.8385 29.7851 35.6919 30.0013C35.5453 30.2175 35.3234 30.3691 35.0707 30.4257C34.818 30.4823 34.5531 30.4397 34.3291 30.3065C34.1052 30.1733 33.9386 29.9592 33.8628 29.7072L30.3258 17.9568L30.1249 17.3016L30.0992 17.2147L29.6829 17.2057L29.6911 17.3067L29.7324 17.9849L30.4379 28.8644C30.4521 29.0878 30.3835 29.3081 30.2456 29.4819C30.1077 29.6557 29.9104 29.7705 29.6927 29.8035C29.6678 29.8071 29.6357 29.8056 29.612 29.809C29.4078 29.8198 29.2059 29.7574 29.0417 29.6326C28.8776 29.5078 28.7615 29.3285 28.7138 29.1262L25.8616 17.0195L25.8433 16.9333L25.8411 17.0039L25.3121 25.4264C25.3051 25.5574 25.2723 25.6855 25.2157 25.8031C25.159 25.9207 25.0796 26.0254 24.9822 26.111C24.8848 26.1967 24.7714 26.2615 24.6487 26.3017C24.5259 26.3418 24.3964 26.3565 24.2677 26.3448C24.0407 26.3278 23.8265 26.2301 23.6628 26.0689C23.4991 25.9076 23.3963 25.6931 23.3726 25.4631" fill="#FFB096"/>
</g>
<path d="M36.1051 12.4927C35.4284 11.9675 34.6482 11.5972 33.8185 11.4073C30.6606 10.6774 28.5812 8.30895 28.5812 8.30895M29.1926 17.2836C29.1926 17.2836 29.8779 17.3514 30.5089 17.2721" stroke="#BB826B" stroke-width="0.75" stroke-linecap="round"/>
<path fill-rule="evenodd" clip-rule="evenodd" d="M14.5573 10.4178C14.5573 10.4178 13.0209 13.1658 10.0838 14.5338C8.24873 15.3888 7.36513 16.8926 6.96077 17.8999C6.58615 18.8339 6.14893 19.7398 5.62229 20.5935L5.13393 21.386C4.97254 21.6473 4.7557 21.8685 4.49917 22.0336C4.24264 22.1987 3.95287 22.3035 3.65091 22.3404C3.52222 22.3559 3.39159 22.3389 3.27063 22.2909C3.14966 22.2429 3.04209 22.1653 2.95747 22.0651C2.87284 21.9649 2.81378 21.8452 2.78551 21.7165C2.75725 21.5878 2.76066 21.4541 2.79544 21.3274L5.36539 12.0056C5.36539 12.0056 7.12885 5.71217 11.3152 4.92169L14.5573 10.4178Z" fill="#FFB096"/>
<path fill-rule="evenodd" clip-rule="evenodd" d="M21.5732 10.7881L21.798 12.3035L21.7989 12.3102L23.1929 25.7383L23.1957 25.7573C23.2139 25.9831 23.1555 26.2081 23.0303 26.3949C22.9051 26.5816 22.7205 26.7189 22.5072 26.784C22.4587 26.7974 22.4101 26.8109 22.3669 26.8171C22.1331 26.851 21.8947 26.7972 21.6963 26.6657C21.4979 26.5343 21.3531 26.3342 21.2888 26.1028L19.1367 18.4178L19.1101 18.319L18.9943 17.9069L18.9805 18.4265L18.9799 18.5552L18.9808 18.5611L18.7406 30.4219C18.7373 30.6296 18.662 30.8292 18.5279 30.9855C18.3937 31.1417 18.2094 31.2446 18.0073 31.276L17.9824 31.2796C17.7544 31.3113 17.5228 31.2498 17.3386 31.1085C17.1544 30.9673 17.0325 30.7578 16.9997 30.5261L15.4962 20.3108L15.4728 20.1481L15.3107 19.0645L15.2963 18.9648L14.8822 19.0624L14.8753 19.1467L14.7849 20.2597L14.771 20.4282L13.829 32.0575C13.8085 32.3095 13.6992 32.545 13.5212 32.7209C13.3432 32.8969 13.1085 33.0015 12.86 33.0155C12.6043 33.0285 12.3526 32.944 12.1542 32.7786C11.9559 32.6132 11.825 32.3789 11.7874 32.1214C11.781 32.077 11.7757 32.0398 11.776 31.9949L11.4446 20.0957L11.4415 19.8977L11.408 18.8789L11.2371 19.8305L11.2071 20.0139L9.77245 28.0945C9.74313 28.2473 9.66929 28.3873 9.56049 28.4965C9.45168 28.6057 9.31294 28.6791 9.16225 28.707L9.15061 28.7087C8.70622 28.7727 8.30383 28.4274 8.28965 27.9756L8.06879 17.8886L8.06609 17.6462L8.02811 16.1164L8.00247 14.9372L9.5455 5.7802L9.57287 5.62269C10.5305 4.98528 11.6157 4.57113 12.7512 4.40977C16.8251 3.82271 20.6321 6.53015 21.5429 10.5367C21.5546 10.6178 21.5615 10.7065 21.5732 10.7881Z" fill="#FFB096"/>
<path d="M8.07464 16.0683C8.62608 15.414 9.31167 14.8903 10.0838 14.5333C13.0186 13.1648 14.556 10.4176 14.556 10.4176M15.7857 18.9421C15.7857 18.9421 15.1296 19.1506 14.4953 19.204M23.256 25.375L21.6096 10.3748" stroke="#BB826B" stroke-width="0.75" stroke-linecap="round"/>
</g>
<defs>
<clipPath id="clip0_239_1583">
<rect width="42" height="38" fill="white" transform="translate(0 6.18945) rotate(-8.20005)"/>
</clipPath>
</defs>
</svg>
