<svg width="30" height="30" viewBox="0 0 30 30" fill="none" xmlns="http://www.w3.org/2000/svg">
<circle cx="15" cy="15" r="15" fill="#FFEADC"/>
<path fill-rule="evenodd" clip-rule="evenodd" d="M12 15C12 13.3431 10.6569 12 9 12C7.34315 12 6 13.3431 6 15C6 16.6569 7.34315 18 9 18C10.6569 18 12 16.6569 12 15ZM8 15C8 14.4477 8.44772 14 9 14C9.55228 14 10 14.4477 10 15C10 15.5523 9.55228 16 9 16C8.44772 16 8 15.5523 8 15Z" fill="#FF9739"/>
<path fill-rule="evenodd" clip-rule="evenodd" d="M24 22C24 20.3431 22.6569 19 21 19C19.3431 19 18 20.3431 18 22C18 23.6569 19.3431 25 21 25C22.6569 25 24 23.6569 24 22ZM20 22C20 21.4477 20.4477 21 21 21C21.5523 21 22 21.4477 22 22C22 22.5523 21.5523 23 21 23C20.4477 23 20 22.5523 20 22Z" fill="#FF9739"/>
<path fill-rule="evenodd" clip-rule="evenodd" d="M24 8C24 6.34315 22.6569 5 21 5C19.3431 5 18 6.34315 18 8C18 9.65685 19.3431 11 21 11C22.6569 11 24 9.65685 24 8ZM20 8C20 7.44772 20.4477 7 21 7C21.5523 7 22 7.44772 22 8C22 8.55228 21.5523 9 21 9C20.4477 9 20 8.55228 20 8Z" fill="#FF9739"/>
<path d="M19.8631 8.49461C20.1422 8.9712 19.9821 9.58379 19.5055 9.86286L11.254 14.6946C10.7774 14.9736 10.1648 14.8135 9.88575 14.3369C9.60668 13.8603 9.7668 13.2478 10.2434 12.9687L18.4949 8.13697C18.9715 7.8579 19.584 8.01802 19.8631 8.49461Z" fill="#FF9739"/>
<path d="M9.89086 15.4847C10.1544 15.0448 10.7028 14.8806 11.1591 15.0867L11.2626 15.1409L19.5141 20.0845C19.9879 20.3683 20.1418 20.9825 19.858 21.4563C19.5944 21.8962 19.046 22.0604 18.5897 21.8543L18.4862 21.8001L10.2347 16.8565C9.76098 16.5727 9.60702 15.9585 9.89086 15.4847Z" fill="#FF9739"/>
</svg>
