<?xml version="1.0" encoding="UTF-8"?><svg id="Calque_7" xmlns="http://www.w3.org/2000/svg" viewBox="0 0 700 700"><defs><style>.cls-1{fill:#ffeadc;}.cls-1,.cls-2{stroke-width:0px;}.cls-2{fill:#f55f24;}</style></defs><circle class="cls-1" cx="350" cy="350" r="281.37"/><path class="cls-2" d="M363.19,138.36c9.87,1.82,19.84,3.19,29.29,6.76,51.69,19.5,82.51,56.56,89.44,111.28,8.41,66.38-34.85,127.79-99.74,144.27-4.19,1.07-5.86,2.61-5.72,7.16.35,11.42.3,22.86.02,34.29-.1,4.29,1.4,5.39,5.48,5.32,12.8-.22,25.61-.09,38.42-.08,10.33.02,14.02,3.67,14.03,13.83,0,9.37.03,18.73,0,28.1-.03,8.31-3.94,12.44-12.42,12.56-13.22.18-26.44.05-39.66.07-5.73,0-5.74.02-5.75,5.73,0,13.91.02,27.82-.01,41.73-.02,8.32-3.85,12.21-12.05,12.24-10.05.04-20.11.04-30.16,0-7.73-.04-11.76-4.01-11.79-11.67-.05-14.32-.14-28.65.06-42.97.06-4.06-1.39-5.19-5.27-5.14-12.81.18-25.62.1-38.42.06-10.57-.03-14.22-3.69-14.23-14.12,0-9.37-.04-18.73.01-28.09.04-8.05,4.12-12.23,12.23-12.29,13.5-.11,26.99-.16,40.49.04,3.97.06,5.26-1.21,5.18-5.19-.22-11.84-.2-23.69,0-35.53.06-3.58-1.2-5.04-4.64-5.91-24.96-6.33-47.03-17.98-64.95-36.68-21.5-22.44-33.02-49.44-35.49-80.32-2.73-34.13,5.61-65.34,25.79-93.04,21.23-29.13,50.48-45.19,85.74-50.92,3.11-.51,6.22-.99,9.33-1.49,8.26,0,16.53,0,24.79,0ZM349.58,193.79c-44.75,0-77.96,33.23-78.07,78.13-.1,42.68,34.99,77.75,77.85,77.81,43,.05,78.2-34.75,78.25-77.38.06-45.19-33.08-78.55-78.04-78.56Z"/></svg>