<?xml version="1.0" encoding="UTF-8"?>
<svg xmlns="http://www.w3.org/2000/svg" xmlns:xlink="http://www.w3.org/1999/xlink" width="22" height="22" viewBox="0 0 22 22">
<defs>
<clipPath id="clip-0">
<path clip-rule="nonzero" d="M 1 1 L 22 1 L 22 21 L 1 21 Z M 1 1 "/>
</clipPath>
<clipPath id="clip-1">
<path clip-rule="evenodd" d="M 11 1.101562 C 16.46875 1.101562 20.898438 5.53125 20.898438 11 C 20.898438 12.601562 20.519531 14.148438 19.800781 15.539062 L 20.550781 15.285156 C 21.082031 15.101562 21.660156 15.355469 21.894531 15.851562 L 21.945312 15.972656 C 22.125 16.507812 21.871094 17.082031 21.375 17.320312 L 21.253906 17.367188 L 18.011719 18.46875 C 17.503906 18.640625 16.957031 18.421875 16.699219 17.96875 L 16.640625 17.847656 L 15.269531 14.558594 C 15.035156 14 15.300781 13.355469 15.859375 13.121094 C 16.382812 12.902344 16.972656 13.117188 17.242188 13.597656 L 17.300781 13.710938 L 17.730469 14.742188 C 18.363281 13.609375 18.699219 12.332031 18.699219 11 C 18.699219 6.746094 15.253906 3.300781 11 3.300781 C 6.746094 3.300781 3.300781 6.746094 3.300781 11 C 3.300781 15.253906 6.746094 18.699219 11 18.699219 C 11.609375 18.699219 12.101562 19.191406 12.101562 19.800781 C 12.101562 20.40625 11.609375 20.898438 11 20.898438 C 5.53125 20.898438 1.101562 16.46875 1.101562 11 C 1.101562 5.53125 5.53125 1.101562 11 1.101562 Z M 11 1.101562 "/>
</clipPath>
</defs>
<g clip-path="url(#clip-0)">
<g clip-path="url(#clip-1)">
<path fill-rule="nonzero" fill="rgb(100%, 100%, 100%)" fill-opacity="1" d="M 0.101562 0.101562 L 23 0.101562 L 23 21.898438 L 0.101562 21.898438 Z M 0.101562 0.101562 "/>
</g>
</g>
</svg>
