<?xml version="1.0" encoding="UTF-8"?>
<svg xmlns="http://www.w3.org/2000/svg" xmlns:xlink="http://www.w3.org/1999/xlink" width="47" height="47" viewBox="0 0 47 47">
<path fill-rule="nonzero" fill="rgb(100%, 59.2%, 22.3%)" fill-opacity="1" d="M 25.375 33.800781 C 28.042969 33.800781 29.972656 34.375 31.105469 35.507812 C 31.859375 36.257812 32.253906 37.257812 32.253906 38.398438 L 32.253906 45.3125 C 32.253906 45.734375 31.910156 46.078125 31.488281 46.078125 C 31.0625 46.078125 30.71875 45.734375 30.71875 45.3125 L 30.71875 38.398438 C 30.71875 37.664062 30.484375 37.058594 30.019531 36.59375 C 29.265625 35.839844 27.851562 35.414062 25.914062 35.347656 L 23.777344 42.460938 C 23.679688 42.785156 23.378906 43.007812 23.039062 43.007812 C 22.703125 43.007812 22.402344 42.785156 22.304688 42.460938 L 20.167969 35.347656 C 18.226562 35.414062 16.816406 35.839844 16.058594 36.59375 C 15.59375 37.058594 15.359375 37.664062 15.359375 38.398438 L 15.359375 45.3125 C 15.359375 45.734375 15.015625 46.078125 14.59375 46.078125 C 14.167969 46.078125 13.824219 45.734375 13.824219 45.3125 L 13.824219 38.398438 C 13.824219 37.257812 14.222656 36.257812 14.972656 35.507812 C 16.113281 34.371094 18.074219 33.796875 20.738281 33.800781 C 21.078125 33.804688 21.375 34.027344 21.472656 34.347656 L 23.039062 39.570312 L 24.609375 34.347656 C 24.707031 34.015625 25.03125 33.808594 25.375 33.800781 Z M 39.199219 33.800781 C 41.867188 33.800781 43.796875 34.375 44.929688 35.507812 C 45.683594 36.257812 46.078125 37.257812 46.078125 38.398438 L 46.078125 43.777344 C 46.078125 44.199219 45.734375 44.542969 45.3125 44.542969 C 44.886719 44.542969 44.542969 44.199219 44.542969 43.777344 L 44.542969 38.398438 C 44.542969 37.664062 44.308594 37.058594 43.84375 36.59375 C 43.089844 35.839844 41.675781 35.414062 39.738281 35.347656 L 37.601562 42.460938 C 37.503906 42.785156 37.203125 43.007812 36.863281 43.007812 C 36.527344 43.007812 36.226562 42.785156 36.128906 42.460938 L 33.992188 35.347656 C 33.695312 35.355469 33.410156 35.375 33.136719 35.402344 C 32.714844 35.433594 32.339844 35.132812 32.300781 34.710938 C 32.257812 34.289062 32.570312 33.914062 32.992188 33.871094 C 33.488281 33.824219 34.027344 33.8125 34.5625 33.800781 C 34.898438 33.804688 35.199219 34.027344 35.296875 34.347656 L 36.863281 39.570312 L 38.433594 34.347656 C 38.53125 34.015625 38.863281 33.808594 39.199219 33.800781 Z M 11.542969 33.800781 C 12.105469 33.800781 12.636719 33.828125 13.132812 33.875 C 13.554688 33.917969 13.859375 34.292969 13.820312 34.714844 C 13.777344 35.136719 13.40625 35.449219 12.976562 35.40625 C 12.695312 35.375 12.398438 35.355469 12.089844 35.347656 L 9.953125 42.460938 C 9.855469 42.785156 9.554688 43.007812 9.214844 43.007812 C 8.878906 43.007812 8.578125 42.785156 8.480469 42.460938 L 6.34375 35.347656 C 4.40625 35.414062 2.992188 35.839844 2.234375 36.59375 C 1.769531 37.058594 1.535156 37.664062 1.535156 38.398438 L 1.535156 43.777344 C 1.535156 44.199219 1.191406 44.542969 0.769531 44.542969 C 0.34375 44.542969 0 44.199219 0 43.777344 L 0 38.398438 C 0 37.257812 0.398438 36.257812 1.148438 35.507812 C 2.289062 34.371094 4.191406 33.796875 6.914062 33.800781 C 7.253906 33.804688 7.550781 34.027344 7.648438 34.347656 L 9.214844 39.570312 L 10.785156 34.347656 C 10.882812 34.015625 11.203125 33.804688 11.542969 33.800781 Z M 23.808594 21.503906 C 25.925781 21.503906 27.648438 23.226562 27.648438 25.34375 L 27.648438 27.648438 C 27.648438 30.1875 25.582031 32.257812 23.039062 32.257812 C 20.5 32.257812 18.433594 30.1875 18.433594 27.648438 L 18.433594 25.34375 C 18.433594 23.226562 20.15625 21.503906 22.273438 21.503906 Z M 37.632812 21.503906 C 39.75 21.503906 41.472656 23.226562 41.472656 25.34375 L 41.472656 27.648438 C 41.472656 30.1875 39.40625 32.257812 36.863281 32.257812 C 34.324219 32.257812 32.257812 30.1875 32.257812 27.648438 L 32.257812 25.34375 C 32.257812 23.226562 33.980469 21.503906 36.097656 21.503906 Z M 9.984375 21.503906 C 12.101562 21.503906 13.824219 23.226562 13.824219 25.34375 L 13.824219 27.648438 C 13.824219 30.1875 11.757812 32.257812 9.214844 32.257812 C 6.675781 32.257812 4.609375 30.1875 4.609375 27.648438 L 4.609375 25.34375 C 4.609375 23.226562 6.332031 21.503906 8.449219 21.503906 Z M 23.808594 23.039062 L 22.273438 23.039062 C 21 23.039062 19.96875 24.074219 19.96875 25.34375 L 19.96875 27.648438 C 19.96875 29.34375 21.347656 30.71875 23.039062 30.71875 C 24.734375 30.71875 26.113281 29.34375 26.113281 27.648438 L 26.113281 25.34375 C 26.113281 24.074219 25.078125 23.039062 23.808594 23.039062 Z M 37.632812 23.039062 L 36.097656 23.039062 C 34.824219 23.039062 33.792969 24.074219 33.792969 25.34375 L 33.792969 27.648438 C 33.792969 29.34375 35.167969 30.71875 36.863281 30.71875 C 38.558594 30.71875 39.9375 29.34375 39.9375 27.648438 L 39.9375 25.34375 C 39.9375 24.074219 38.902344 23.039062 37.632812 23.039062 Z M 9.984375 23.039062 L 8.449219 23.039062 C 7.179688 23.039062 6.144531 24.074219 6.144531 25.34375 L 6.144531 27.648438 C 6.144531 29.34375 7.523438 30.71875 9.214844 30.71875 C 10.910156 30.71875 12.289062 29.34375 12.289062 27.648438 L 12.289062 25.34375 C 12.289062 24.074219 11.253906 23.039062 9.984375 23.039062 Z M 30.71875 10.75 C 32.835938 10.75 34.558594 12.472656 34.558594 14.59375 L 34.558594 16.894531 C 34.558594 19.4375 32.492188 21.503906 29.953125 21.503906 C 27.410156 21.503906 25.34375 19.4375 25.34375 16.894531 L 25.34375 14.59375 C 25.34375 12.472656 27.066406 10.75 29.183594 10.75 Z M 16.894531 10.75 C 19.011719 10.75 20.734375 12.472656 20.734375 14.59375 L 20.734375 16.894531 C 20.734375 19.4375 18.667969 21.503906 16.128906 21.503906 C 13.585938 21.503906 11.519531 19.4375 11.519531 16.894531 L 11.519531 14.59375 C 11.519531 12.472656 13.242188 10.75 15.359375 10.75 Z M 30.71875 12.289062 L 29.183594 12.289062 C 27.914062 12.289062 26.878906 13.320312 26.878906 14.59375 L 26.878906 16.894531 C 26.878906 18.589844 28.257812 19.96875 29.953125 19.96875 C 31.644531 19.96875 33.023438 18.589844 33.023438 16.894531 L 33.023438 14.59375 C 33.023438 13.320312 31.992188 12.289062 30.71875 12.289062 Z M 16.894531 12.289062 L 15.359375 12.289062 C 14.089844 12.289062 13.054688 13.320312 13.054688 14.59375 L 13.054688 16.894531 C 13.054688 18.589844 14.433594 19.96875 16.128906 19.96875 C 17.824219 19.96875 19.199219 18.589844 19.199219 16.894531 L 19.199219 14.59375 C 19.199219 13.320312 18.167969 12.289062 16.894531 12.289062 Z M 23.808594 0 C 25.925781 0 27.648438 1.722656 27.648438 3.839844 L 27.648438 6.144531 C 27.648438 8.683594 25.582031 10.753906 23.039062 10.753906 C 20.5 10.753906 18.433594 8.683594 18.433594 6.144531 L 18.433594 3.839844 C 18.433594 1.722656 20.15625 0 22.273438 0 Z M 23.808594 1.535156 L 22.273438 1.535156 C 21 1.535156 19.96875 2.570312 19.96875 3.839844 L 19.96875 6.144531 C 19.96875 7.839844 21.347656 9.214844 23.039062 9.214844 C 24.734375 9.214844 26.113281 7.839844 26.113281 6.144531 L 26.113281 3.839844 C 26.113281 2.570312 25.078125 1.535156 23.808594 1.535156 Z M 23.808594 1.535156 "/>
</svg>
