<?xml version="1.0" encoding="UTF-8"?>
<svg xmlns="http://www.w3.org/2000/svg" xmlns:xlink="http://www.w3.org/1999/xlink" width="23" height="23" viewBox="0 0 23 23">
<defs>
<clipPath id="clip-0">
<path clip-rule="evenodd" d="M 11.5 0 C 5.160156 0 0 5.160156 0 11.5 C 0 17.839844 5.160156 23 11.5 23 C 17.839844 23 23 17.839844 23 11.5 C 23 5.160156 17.839844 0 11.5 0 Z M 12.320312 16.578125 C 12.320312 17.027344 11.953125 17.398438 11.5 17.398438 C 11.046875 17.398438 10.679688 17.027344 10.679688 16.578125 L 10.679688 15.796875 C 10.679688 15.34375 11.046875 14.976562 11.5 14.976562 C 11.953125 14.976562 12.320312 15.34375 12.320312 15.796875 Z M 12.320312 13.0625 C 12.320312 13.511719 11.953125 13.882812 11.5 13.882812 C 11.046875 13.882812 10.679688 13.511719 10.679688 13.0625 L 10.679688 7.007812 C 10.679688 6.554688 11.046875 6.183594 11.5 6.183594 C 11.953125 6.183594 12.320312 6.554688 12.320312 7.007812 Z M 12.320312 13.0625 "/>
</clipPath>
</defs>
<g clip-path="url(#clip-0)">
<rect x="-2.3" y="-2.3" width="27.6" height="27.6" fill="rgb(100%, 59.2%, 22.3%)" fill-opacity="1"/>
</g>
</svg>
