<?xml version="1.0" encoding="UTF-8"?>
<svg xmlns="http://www.w3.org/2000/svg" xmlns:xlink="http://www.w3.org/1999/xlink" width="19" height="19" viewBox="0 0 19 19">
<defs>
<clipPath id="clip-0">
<path clip-rule="evenodd" d="M 11.609375 0 C 15.675781 0 19 3.324219 19 7.390625 L 19 11.609375 C 19 15.675781 15.675781 19 11.609375 19 L 7.390625 19 C 3.324219 19 0 15.675781 0 11.609375 L 0 7.390625 C 0 3.324219 3.324219 0 7.390625 0 Z M 11.609375 1.898438 L 7.390625 1.898438 C 4.371094 1.898438 1.898438 4.371094 1.898438 7.390625 L 1.898438 11.609375 C 1.898438 14.628906 4.371094 17.101562 7.390625 17.101562 L 11.609375 17.101562 C 14.628906 17.101562 17.101562 14.628906 17.101562 11.609375 L 17.101562 7.390625 C 17.101562 4.371094 14.628906 1.898438 11.609375 1.898438 Z M 9.5 5.699219 C 9.988281 5.699219 10.390625 6.066406 10.445312 6.539062 L 10.449219 6.648438 L 10.449219 8.550781 L 12.359375 8.550781 C 12.886719 8.550781 13.3125 8.976562 13.3125 9.5 C 13.3125 9.988281 12.945312 10.390625 12.472656 10.445312 L 12.359375 10.449219 L 10.449219 10.449219 L 10.449219 12.351562 C 10.449219 12.875 10.023438 13.300781 9.5 13.300781 C 9.011719 13.300781 8.609375 12.933594 8.554688 12.460938 L 8.550781 12.351562 L 8.550781 10.449219 L 6.648438 10.449219 C 6.125 10.449219 5.699219 10.023438 5.699219 9.5 C 5.699219 9.011719 6.066406 8.609375 6.539062 8.554688 L 6.648438 8.550781 L 8.550781 8.550781 L 8.550781 6.648438 C 8.550781 6.125 8.976562 5.699219 9.5 5.699219 Z M 9.5 5.699219 "/>
</clipPath>
</defs>
<g clip-path="url(#clip-0)">
<rect x="-1.9" y="-1.9" width="22.8" height="22.8" fill="rgb(96.078491%, 37.254333%, 14.117432%)" fill-opacity="1"/>
</g>
</svg>
