<svg width="56" height="56" viewBox="0 0 56 56" fill="none" xmlns="http://www.w3.org/2000/svg">
<path d="M15.85 19.8801H10.07C9.27002 19.8801 8.62002 20.5201 8.60002 21.3201C8.58002 22.3501 8.55002 23.6201 8.54002 24.0001C8.52002 26.0101 9.21002 30.0301 14.98 30.1801C22.68 30.3701 24.99 29.0201 26.24 30.1801C27.49 31.3401 27.2 44.4301 27.2 45.1001C27.2 45.7701 43.13 42.3101 44.09 36.6301C45.05 30.9501 45.06 15.6001 43.03 14.3001C42.54 13.9801 28.64 13.7201 26.91 14.3001C25.18 14.8801 22.39 18.7301 21.23 19.2101C20.07 19.6901 15.84 19.8801 15.84 19.8801H15.85Z" fill="#FF9739"/>
<path d="M8.54 24C11.13 24 11.13 19.88 11.13 19.88C11.13 19.88 8.63 19.61 8.09 19.88C7.55 20.15 7.86 21.67 7.93 22.13C8.04 22.8 8.54 24 8.54 24Z" fill="#653825"/>
<path d="M38.28 14.8401C38.28 14.8401 30.33 30.9001 33.07 34.5101C35.81 38.1201 42.04 37.4601 43.8 34.5701" stroke="#653825" stroke-width="0.66" stroke-miterlimit="10" stroke-linecap="round"/>
<path d="M28.72 21.94C29.6699 21.94 30.44 21.1699 30.44 20.22C30.44 19.2701 29.6699 18.5 28.72 18.5C27.7701 18.5 27 19.2701 27 20.22C27 21.1699 27.7701 21.94 28.72 21.94Z" fill="white"/>
<mask id="mask0_255_1206" style="mask-type:luminance" maskUnits="userSpaceOnUse" x="27" y="18" width="4" height="4">
<path d="M30.44 20.22C30.44 21.17 29.67 21.94 28.72 21.94C27.77 21.94 27 21.17 27 20.22C27 19.27 27.77 18.5 28.72 18.5C29.67 18.5 30.44 19.27 30.44 20.22Z" fill="white"/>
</mask>
<g mask="url(#mask0_255_1206)">
<path d="M30.07 21.94C31.0199 21.94 31.79 21.1699 31.79 20.22C31.79 19.2701 31.0199 18.5 30.07 18.5C29.12 18.5 28.35 19.2701 28.35 20.22C28.35 21.1699 29.12 21.94 30.07 21.94Z" fill="#653825"/>
</g>
<path d="M14.75 29.5702C14.75 29.5702 26.24 30.1802 27.74 25.9102" stroke="#653825" stroke-width="0.66" stroke-miterlimit="10" stroke-linecap="round"/>
</svg>
