<?xml version="1.0" encoding="UTF-8"?>
<svg xmlns="http://www.w3.org/2000/svg" xmlns:xlink="http://www.w3.org/1999/xlink" width="20" height="20" viewBox="0 0 20 20">
<path fill-rule="evenodd" fill="rgb(96.099854%, 37.298584%, 14.099121%)" fill-opacity="1" d="M 10 0 C 4.484375 0 0 4.484375 0 10 C 0 15.515625 4.484375 20 10 20 C 15.515625 20 20 15.515625 20 10 C 20 4.484375 15.515625 0 10 0 Z M 10.714844 14.414062 C 10.714844 14.808594 10.394531 15.128906 10 15.128906 C 9.605469 15.128906 9.285156 14.808594 9.285156 14.414062 L 9.285156 13.734375 C 9.285156 13.34375 9.605469 13.019531 10 13.019531 C 10.394531 13.019531 10.714844 13.34375 10.714844 13.734375 Z M 10.714844 11.355469 C 10.714844 11.75 10.394531 12.070312 10 12.070312 C 9.605469 12.070312 9.285156 11.75 9.285156 11.355469 L 9.285156 6.09375 C 9.285156 5.699219 9.605469 5.378906 10 5.378906 C 10.394531 5.378906 10.714844 5.699219 10.714844 6.09375 Z M 10.714844 11.355469 "/>
</svg>
