<svg width="130" height="82" viewBox="0 0 130 82" fill="none" xmlns="http://www.w3.org/2000/svg">
<path d="M1 15C1 7.26801 7.26801 1 15 1H115C122.732 1 129 7.26801 129 15V72.24H1V15Z" fill="#FFFCFA" stroke="#FFEADC"/>
<mask id="mask0_104_2006" style="mask-type:luminance" maskUnits="userSpaceOnUse" x="0" y="0" width="130" height="82">
<path d="M1 15C1 7.26802 7.26801 1 15 1H115C122.732 1 129 7.26801 129 15V81.3733H1V15Z" fill="white" stroke="white"/>
</mask>
<g mask="url(#mask0_104_2006)">
<mask id="mask1_104_2006" style="mask-type:luminance" maskUnits="userSpaceOnUse" x="1" y="-49" width="128" height="132">
<rect x="1" y="-48.32" width="128" height="130.607" fill="white"/>
</mask>
<g mask="url(#mask1_104_2006)">
<path fill-rule="evenodd" clip-rule="evenodd" d="M122.519 17.3164L127.163 21.4973L130.048 24.0932C130.948 24.9031 132.475 24.5223 132.795 23.404L133.819 19.8292L135.439 14.1733C131.21 15.4713 126.892 16.5226 122.519 17.3164Z" fill="#F3C8B3"/>
<path fill-rule="evenodd" clip-rule="evenodd" d="M121.084 17.5685L118.534 22.9615L116.931 26.354C116.428 27.416 114.855 27.5822 114.099 26.657L111.678 23.6936L107.849 19.0005L121.084 17.5685Z" fill="#F3C8B3"/>
<path fill-rule="evenodd" clip-rule="evenodd" d="M92.0232 18.6814L94.7907 23.5917L96.6436 26.8769C97.223 27.904 98.8053 27.9737 99.4905 27.0029L101.685 23.8974L105.073 19.0997C100.717 19.2043 96.3583 19.0622 92.0232 18.6814Z" fill="#F3C8B3"/>
<path fill-rule="evenodd" clip-rule="evenodd" d="M76.6826 16.3161L79.0061 21.9344L80.4354 25.3912C80.8824 26.472 82.4442 26.7053 83.2471 25.8123L85.8146 22.9535L89.8439 18.4695C85.4146 17.9976 81.0177 17.2761 76.6826 16.3161Z" fill="#F3C8B3"/>
<path fill-rule="evenodd" clip-rule="evenodd" d="M62.2361 12.1512L63.8066 18.204L64.7389 21.8003C65.0301 22.924 66.5477 23.3397 67.4682 22.5485L70.4181 20.0142L75.1326 15.9621C70.7534 14.9349 66.4447 13.6584 62.2361 12.1512Z" fill="#F3C8B3"/>
<path fill-rule="evenodd" clip-rule="evenodd" d="M48.4749 6.18964L48.9837 12.1593L49.2984 15.8441C49.3954 16.9946 50.8248 17.6167 51.8688 16.9651L55.2099 14.8733L60.5508 11.5318C56.4098 9.97632 52.3747 8.19293 48.4749 6.18964Z" fill="#F3C8B3"/>
<path fill-rule="evenodd" clip-rule="evenodd" d="M35.3697 8.43964C35.3167 9.59549 36.6549 10.3678 37.7755 9.83149L41.3665 8.11515L47.0016 5.41995C44.2987 3.98252 41.6636 2.43781 39.1078 0.791193C37.9931 0.0724748 36.8902 -0.667698 35.8079 -1.43201L35.5344 4.74951L35.3697 8.43964Z" fill="#F3C8B3"/>
<path fill-rule="evenodd" clip-rule="evenodd" d="M24.6611 1.02722L28.508 -0.13668L34.9048 -2.07293C31.3167 -4.64208 27.9169 -7.4365 24.7258 -10.4186L23.3494 -4.31758L22.5318 -0.697172C22.2759 0.434541 23.4582 1.39194 24.6611 1.02722Z" fill="#F3C8B3"/>
<path fill-rule="evenodd" clip-rule="evenodd" d="M19.4618 -15.3946C28.3858 -5.77856 39.3422 2.15148 51.597 7.95915C63.9576 13.817 77.5386 17.5347 91.4007 18.826C105.71 20.1589 120.241 18.8223 133.947 14.8312C146.266 11.2441 157.86 5.62573 167.965 -1.73765C169.198 -2.63658 170.407 -3.56314 171.595 -4.51168C171.809 -4.68251 171.496 -4.96598 171.283 -4.79622C161.574 2.95655 150.292 9.03052 138.177 13.0838C125.036 17.4806 111.016 19.4434 97.0342 18.8134C82.9654 18.1792 69.0407 15.0034 56.2674 9.60469C43.8564 4.35912 32.596 -2.99755 23.2513 -12.1132C14.0855 -21.0548 6.74464 -31.5974 1.83866 -42.9932C1.24398 -44.3745 0.686946 -45.7685 0.162261 -47.1733C0.071382 -47.4168 -0.354777 -47.3122 -0.263016 -47.0663C4.05857 -35.4973 10.8054 -24.7222 19.4618 -15.3946Z" fill="#F3C8B3"/>
<path fill-rule="evenodd" clip-rule="evenodd" d="M49.8678 -4.9641L46.1706 -0.591991L43.6957 2.33276C42.9219 3.24725 41.3519 3.05443 40.8708 1.98654L39.3299 -1.43005L36.9509 -6.70807C41.214 -5.88583 45.5288 -5.3055 49.8678 -4.9641Z" fill="#E26838"/>
<path fill-rule="evenodd" clip-rule="evenodd" d="M65.4244 -4.75651L62.0234 0.385274L59.9308 3.54871C59.2765 4.53775 57.6945 4.50932 57.0821 3.49829L55.1249 0.262717L52.0532 -4.81256C56.5027 -4.54519 60.9702 -4.52829 65.4244 -4.75651Z" fill="#E26838"/>
<path fill-rule="evenodd" clip-rule="evenodd" d="M80.4594 -6.46628L77.7124 -0.773117L76.081 2.60969C75.5716 3.66685 73.9964 3.8248 73.2485 2.89476L70.8507 -0.084702L67.019 -4.84863C71.53 -5.13558 76.021 -5.67917 80.4594 -6.46628Z" fill="#E26838"/>
<path fill-rule="evenodd" clip-rule="evenodd" d="M95.1772 -10.0563L93.4908 -4.26958L92.4493 -0.697709C92.1255 0.417645 90.5962 0.793632 89.6989 -0.0197544L86.8287 -2.62886L82.2397 -6.79716C86.6213 -7.643 90.9438 -8.73019 95.1772 -10.0563Z" fill="#E26838"/>
<path d="M32.8194 4.07416C33.0629 4.07416 33.2655 4.14071 33.3075 4.22847L33.3155 4.26228V5.51977C33.3155 5.62367 33.0934 5.7079 32.8194 5.7079C32.5758 5.7079 32.3732 5.64135 32.3312 5.55359L32.3232 5.51977V4.26228C32.3232 4.15838 32.5454 4.07416 32.8194 4.07416Z" fill="#E26838"/>
<path d="M33.2195 4.70294C33.3336 4.70294 33.4261 4.90598 33.4261 5.15644C33.4261 5.37907 33.353 5.56423 33.2566 5.60263L33.2195 5.60994H31.8404C31.7263 5.60994 31.6338 5.4069 31.6338 5.15644C31.6338 4.93381 31.7069 4.74865 31.8033 4.71025L31.8404 4.70294H33.2195Z" fill="#E26838"/>
<path d="M38.8229 31.614C38.8957 31.534 39.026 31.5229 39.1138 31.5892C39.1919 31.6481 39.2103 31.7484 39.1622 31.8261L39.1411 31.8541L37.3062 33.8703C37.2334 33.9503 37.1031 33.9614 37.0152 33.8951C36.9371 33.8362 36.9188 33.7359 36.9668 33.6582L36.988 33.6302L38.8229 31.614Z" fill="#E26838"/>
<path d="M36.7999 31.7853C36.8648 31.7143 36.9749 31.6978 37.0602 31.7416L37.0909 31.7609L39.302 33.4341C39.3898 33.5005 39.4018 33.6191 39.3288 33.699C39.264 33.77 39.1539 33.7865 39.0685 33.7427L39.0378 33.7234L36.8268 32.0502C36.739 31.9838 36.727 31.8652 36.7999 31.7853Z" fill="#E26838"/>
<path d="M22.882 27.4185C22.9697 27.3721 23.0794 27.3909 23.143 27.4588L23.1646 27.4865L24.401 29.4211C24.4584 29.5109 24.4249 29.6261 24.3263 29.6783C24.2386 29.7248 24.1289 29.7059 24.0653 29.6381L24.0438 29.6104L22.8074 27.6757C22.75 27.5859 22.7834 27.4708 22.882 27.4185Z" fill="#E26838"/>
<path d="M24.5606 27.8223C24.6592 27.7699 24.7857 27.8002 24.8432 27.89C24.8944 27.9697 24.8738 28.0696 24.7993 28.1276L24.7689 28.1473L22.6472 29.2747C22.5487 29.3271 22.4222 29.2968 22.3646 29.207C22.3135 29.1273 22.3341 29.0274 22.4085 28.9694L22.4389 28.9497L24.5606 27.8223Z" fill="#E26838"/>
<path d="M110.389 15.5092C110.462 15.4292 110.592 15.4181 110.68 15.4844C110.758 15.5433 110.776 15.6436 110.728 15.7213L110.707 15.7493L109.826 16.7169C109.753 16.7969 109.623 16.808 109.535 16.7417C109.457 16.6827 109.439 16.5825 109.487 16.5047L109.508 16.4768L110.389 15.5092Z" fill="#E26838"/>
<path d="M109.418 15.5912C109.483 15.5202 109.593 15.5036 109.678 15.5475L109.709 15.5668L110.77 16.37C110.858 16.4364 110.87 16.555 110.797 16.6349C110.732 16.7059 110.622 16.7224 110.537 16.6786L110.506 16.6593L109.445 15.8561C109.357 15.7897 109.345 15.6711 109.418 15.5912Z" fill="#E26838"/>
<path fill-rule="evenodd" clip-rule="evenodd" d="M100.768 2.8038C100.929 3.1201 101.369 3.21413 101.68 3.02847C101.707 3.01217 101.737 2.9924 101.762 2.97103C102.048 2.73087 102.408 2.35474 102.671 1.82953C102.739 1.69302 102.8 1.5477 102.848 1.38928C102.924 1.15954 102.978 0.908963 102.999 0.636212C102.999 0.636212 102.9 -0.605998 101.517 -0.417931C101.517 -0.417931 101.261 -0.320424 101.014 -0.0599604C100.85 0.11288 100.69 0.354644 100.614 0.689106C100.614 0.689106 100.662 1.62517 100.664 2.34913C100.665 2.53185 100.708 2.68118 100.768 2.8038Z" fill="#E89D7E"/>
<path fill-rule="evenodd" clip-rule="evenodd" d="M102.253 3.56584C102.56 3.50974 102.987 3.39033 103.407 3.12239C103.655 2.96638 103.903 2.75533 104.121 2.48018C104.121 2.48018 104.613 1.61998 103.611 1.22889C103.611 1.22889 103.249 1.17813 102.848 1.38944C102.737 1.44634 102.627 1.52622 102.518 1.62906C102.518 1.62906 102.505 1.65124 102.479 1.69051C102.375 1.86094 102.068 2.35355 101.805 2.74518C101.738 2.84322 101.699 2.93966 101.68 3.02862C101.676 3.04759 101.672 3.06655 101.67 3.08445C101.628 3.38018 101.932 3.62461 102.253 3.56584Z" fill="#E89D7E"/>
<path fill-rule="evenodd" clip-rule="evenodd" d="M97.9054 8.76398L97.9659 9.61429L103.332 9.67092L103.407 3.12221C102.987 3.39015 102.56 3.50983 102.253 3.56593C101.932 3.62443 101.628 3.38 101.671 3.08454C101.672 3.06638 101.676 3.04741 101.68 3.02844C101.369 3.2141 100.93 3.12007 100.768 2.80377C100.708 2.68116 100.665 2.53182 100.664 2.3491C100.662 1.62514 100.615 0.68908 100.615 0.68908C100.69 0.354618 100.851 0.112855 101.014 -0.0599856L100.67 -3.51012C100.654 -3.66373 100.576 -3.80558 100.45 -3.91164L100.434 -3.92606C100.229 -4.09222 99.9453 -4.12615 99.7114 -4.03693C99.5999 -3.99445 99.4984 -3.92366 99.4227 -3.82482C99.3482 -3.72945 99.3056 -3.61431 99.2995 -3.4957L99.0806 0.896916L97.8462 -3.36239C97.8262 -3.43319 97.801 -3.50211 97.7702 -3.56889C97.6575 -3.81386 97.475 -4.02918 97.2426 -4.19374C97.048 -4.33158 96.764 -4.20576 96.7649 -3.98216L96.7408 0.237076L96.8831 1.10769C96.8036 1.1149 96.7232 1.12826 96.6455 1.14616L96.5877 1.15952C95.9747 1.30644 95.5361 1.79692 95.4979 2.37314L95.4689 2.84385C95.3556 4.58748 96.0437 6.27555 97.3341 7.5247C97.681 7.86024 97.8729 8.30422 97.9054 8.76398Z" fill="#E89D7E"/>
<path d="M96.5929 0.962815C97.0483 0.852752 97.5321 0.922881 97.9264 1.15303L98.0094 1.20478L100.268 2.70839C100.885 3.27564 100.666 4.23182 99.8514 4.5275C99.5745 4.62802 99.2677 4.63265 98.9888 4.54237L98.906 4.51244L97.7297 4.042C97.6252 4.00021 97.5777 3.88923 97.6236 3.7941C97.6644 3.70954 97.7653 3.66598 97.8606 3.68669L97.8959 3.69752L99.0724 4.168C99.2711 4.2476 99.4967 4.25121 99.6984 4.17801C100.218 3.98938 100.372 3.3951 100.04 3.03337L99.9996 2.9927L97.7659 1.50875C97.4585 1.30465 97.0664 1.23766 96.6989 1.32647C96.5886 1.35313 96.4755 1.29333 96.4462 1.19291C96.4169 1.09249 96.4826 0.98947 96.5929 0.962815Z" fill="#C48066"/>
<path d="M99.4258 4.22974C100.044 4.26348 100.522 4.60125 100.874 5.13014C101.001 5.31959 101.102 5.52124 101.182 5.72279L101.224 5.83517L101.255 5.92756L101.275 5.99721C101.302 6.09833 101.233 6.19965 101.122 6.22352C101.011 6.24738 100.899 6.18475 100.873 6.08363L100.857 6.02724L100.83 5.94846L100.793 5.85017C100.722 5.6708 100.632 5.49153 100.521 5.32547C100.232 4.89203 99.8622 4.63049 99.4011 4.60532C99.2871 4.5991 99.2003 4.50999 99.2072 4.40627C99.214 4.30256 99.3119 4.22353 99.4258 4.22974Z" fill="#C48066"/>
<path d="M101.437 -0.59132C101.542 -0.631516 101.663 -0.586433 101.707 -0.490624C101.751 -0.394815 101.702 -0.284562 101.597 -0.244366L101.563 -0.229538L101.511 -0.20223C101.501 -0.196606 101.49 -0.190437 101.479 -0.183712C101.405 -0.140049 101.331 -0.0867796 101.26 -0.0232921L101.168 0.0647981C100.957 0.290776 100.841 0.587983 100.834 0.904068L100.835 0.9907L100.854 1.49029L100.863 1.79584L100.868 2.08118C100.869 2.1731 100.87 2.2619 100.87 2.34785C100.871 2.48987 100.901 2.61398 100.955 2.72439C101.053 2.91569 101.315 2.98874 101.523 2.89413L101.567 2.87127C101.662 2.81427 101.79 2.83847 101.853 2.92533C101.915 3.0122 101.889 3.12883 101.793 3.18583C101.373 3.43674 100.794 3.3001 100.579 2.87998C100.501 2.71977 100.458 2.54476 100.457 2.34905L100.456 2.21953L100.449 1.80299L100.435 1.34077L100.422 1.00486C100.405 0.596903 100.533 0.202012 100.791 -0.107574L100.86 -0.186451L100.882 -0.207899C101.085 -0.413673 101.29 -0.535398 101.437 -0.59132Z" fill="#C48066"/>
<path fill-rule="evenodd" clip-rule="evenodd" d="M102.369 1.49833C102.491 1.38287 102.617 1.29174 102.744 1.2266C103.051 1.06522 103.353 1.01999 103.601 1.03872L103.643 1.04294L103.693 1.05598C104.443 1.34904 104.576 1.89007 104.363 2.43917L104.343 2.48793C104.327 2.52366 104.314 2.55046 104.288 2.59033C104.068 2.86791 103.809 3.0981 103.525 3.27643C103.138 3.52365 102.721 3.6721 102.294 3.75027C101.833 3.83449 101.404 3.48346 101.464 3.07044L101.466 3.04946L101.475 3.00015L101.495 2.92119C101.524 2.82771 101.568 2.73551 101.628 2.64683L101.78 2.41764L101.941 2.16869L102.173 1.80208L102.303 1.59148L102.333 1.54412L102.369 1.49833ZM103.557 1.41364L103.508 1.41114C103.347 1.40919 103.151 1.44691 102.951 1.55226L102.895 1.5838C102.819 1.62908 102.743 1.68741 102.666 1.75978L102.684 1.74323L102.659 1.78157C102.64 1.81265 102.62 1.84593 102.598 1.88098L102.378 2.23282L102.216 2.48642L102.056 2.73134L101.98 2.84414C101.931 2.91734 101.898 2.99178 101.883 3.06249L101.879 3.0841L101.875 3.10888C101.851 3.27288 102.026 3.41554 102.212 3.3814C102.587 3.31281 102.952 3.18304 103.289 2.96768C103.535 2.81281 103.761 2.61266 103.938 2.39327L103.958 2.35177L103.975 2.31043C104.122 1.93003 104.042 1.60166 103.53 1.40178L103.557 1.41364Z" fill="#C48066"/>
<path fill-rule="evenodd" clip-rule="evenodd" d="M43.6538 38.8366L54.4687 36.0359L56.9498 35.6723C58.5311 35.4404 59.1044 35.3533 59.928 35.4196C61.1337 35.5165 62.2904 35.8986 63.3162 36.4831L74.839 43.0505L79.5933 45.856L68.2069 54.8296V82.2867H41.0829L42.3317 72.7195L33.9243 59.7778L35.0305 51.8846C35.578 47.9779 37.5439 44.3501 40.616 41.5777L43.6538 38.8366Z" fill="#346CB0"/>
<path fill-rule="evenodd" clip-rule="evenodd" d="M74.1095 43.2171L83.6448 43.0446L87.0253 41.181C88.8228 40.1899 90.3066 38.7911 91.3315 37.1212L96.136 29.294C96.398 28.8671 96.5517 28.3921 96.5863 27.904L97.9502 8.6319H103.17L105.078 24.9671C105.42 27.8982 104.838 30.8576 103.401 33.4988L96.2583 46.6181C94.9476 49.0261 94.018 51.591 93.4975 54.2362L92.0964 61.3593C91.3033 65.3907 91.3473 69.5218 92.2264 73.5383L94.141 82.2866H67.0537L68.2731 66.0471V61.4231C68.2731 61.4231 66.066 60.0102 67.0537 56.4137C68.0413 52.8171 69.6079 50.5088 69.6079 50.5088" fill="#E26838"/>
<path fill-rule="evenodd" clip-rule="evenodd" d="M87.994 40.9063L87.5254 41.0394C87.5254 41.0394 86.462 39.9302 86.7 39.066C86.938 38.202 88.1782 38.1863 88.1782 38.1863C88.1782 38.1863 89.2527 38.1876 89.4376 39.5508C89.4887 39.9256 89.5183 40.2184 89.5344 40.4455C89.5755 41.0209 89.0441 41.5215 88.4159 41.4483C88.2093 41.424 88.0207 41.3364 87.9004 41.1369C87.9004 41.1369 87.585 40.6686 87.4952 40.2871" fill="#FFB096"/>
<path fill-rule="evenodd" clip-rule="evenodd" d="M90.7657 39.9899C90.5993 40.4366 89.9324 40.4742 89.7 40.0524C89.6369 39.9381 89.5738 39.7984 89.5125 39.6282C89.3356 39.1356 89.2478 38.7573 89.2044 38.4942C89.1484 38.1536 89.3787 37.81 89.7496 37.7419C90.0738 37.6823 90.4605 37.8071 90.7102 38.5439C90.9315 39.1973 90.8854 39.668 90.7657 39.9899Z" fill="#FFB096"/>
<path fill-rule="evenodd" clip-rule="evenodd" d="M87.456 40.1632C87.456 40.1632 87.6314 41.0581 87.801 41.7465C87.8436 41.9191 87.84 42.0689 87.811 42.1969C87.7282 42.5608 87.2617 42.7368 86.9081 42.5514C86.3709 42.2696 85.5446 41.6765 85.1828 40.5802C85.1828 40.5802 84.9821 39.3815 86.3383 39.2891C86.3383 39.2891 87.0742 39.4066 87.456 40.1632Z" fill="#FFB096"/>
<path d="M88.5085 38.235C88.5655 38.145 88.6919 38.1141 88.7907 38.166C89.2389 38.4014 89.55 38.8442 89.6428 39.5278L89.6799 39.8177C89.6855 39.8639 89.6907 39.909 89.6957 39.9531L89.7216 40.2054L89.7405 40.4332C89.7907 41.1316 89.142 41.7227 88.3896 41.635C88.123 41.6036 87.9035 41.4893 87.761 41.2913L87.6751 41.159L87.6526 41.1227C87.6002 41.0368 87.5478 40.9446 87.4987 40.8492C87.4424 40.7398 87.394 40.633 87.3559 40.5308C87.3294 40.4596 87.3082 40.3914 87.293 40.3265C87.269 40.2249 87.3401 40.1249 87.4517 40.1032C87.5633 40.0814 87.6731 40.1461 87.697 40.2477C87.7088 40.2975 87.7257 40.3518 87.7473 40.4099C87.78 40.4978 87.8227 40.592 87.8729 40.6896C87.9027 40.7475 87.9341 40.8045 87.9659 40.8593L88.052 41.0011L88.0814 41.0464C88.1594 41.1759 88.2767 41.2423 88.4423 41.2618C88.9302 41.3187 89.3617 40.9255 89.3281 40.4577C89.3231 40.3879 89.317 40.3141 89.3098 40.2362L89.2844 39.9902L89.2518 39.719C89.2457 39.6717 89.2394 39.6234 89.2327 39.574C89.1554 39.0054 88.9178 38.6672 88.5842 38.4919C88.4854 38.44 88.4514 38.325 88.5085 38.235Z" fill="#C48066"/>
<path d="M90.5597 38.0285C90.6687 37.9978 90.7844 38.0535 90.818 38.1528C91.0412 38.8118 91.1037 39.668 90.9615 40.0505C90.7362 40.6554 89.8296 40.7077 89.5154 40.137C89.4444 40.0082 89.3777 39.8584 89.3162 39.6867C89.2807 39.588 89.34 39.4818 89.4485 39.4495C89.5569 39.4173 89.6736 39.4712 89.709 39.57C89.7644 39.7244 89.8233 39.8568 89.8848 39.9683C90.0353 40.2416 90.4631 40.2169 90.5701 39.9297C90.68 39.6342 90.623 38.8539 90.4231 38.2637C90.3895 38.1644 90.4506 38.0591 90.5597 38.0285Z" fill="#C48066"/>
<path d="M86.7944 39.4511C86.866 39.3702 86.996 39.3574 87.0849 39.4225C87.2819 39.5669 87.4518 39.7502 87.5842 39.9755C87.6306 40.0541 87.6616 40.1411 87.6803 40.236L87.7688 40.6668L87.862 41.0998L87.9563 41.5129C87.9719 41.5789 87.9873 41.6432 88.0026 41.7053C88.0489 41.8928 88.0508 42.07 88.0133 42.2351C87.9022 42.7237 87.2814 42.9643 86.8049 42.7144L86.7608 42.6904L86.6975 42.6505L86.6134 42.5895L86.4114 42.4359L86.3546 42.3949C86.264 42.3317 86.2469 42.2136 86.3163 42.1311C86.3858 42.0487 86.5155 42.0331 86.606 42.0963L86.671 42.1431L86.8997 42.3165L86.9443 42.3483L86.9948 42.3796C87.0001 42.3825 87.0056 42.3855 87.0113 42.3884C87.2472 42.5122 87.5554 42.3927 87.6086 42.1589C87.6342 42.0464 87.6328 41.9232 87.5994 41.7877C87.5684 41.6618 87.5367 41.5273 87.5049 41.3878L87.4097 40.9577L87.3175 40.519C87.3026 40.4464 87.288 40.3742 87.2737 40.3031C87.2621 40.2444 87.2444 40.1946 87.2201 40.1534C87.1142 39.9733 86.9804 39.8289 86.8258 39.7156C86.7369 39.6505 86.7228 39.5321 86.7944 39.4511Z" fill="#C48066"/>
<path fill-rule="evenodd" clip-rule="evenodd" d="M85.9808 40.8445C85.9808 40.8445 86.1923 41.6323 86.386 42.2365C86.4344 42.388 86.4406 42.5216 86.4224 42.637C86.3713 42.9653 85.967 43.1459 85.6404 42.999C85.1448 42.7756 84.3725 42.29 83.9826 41.3323C83.9826 41.3323 83.7299 40.2754 84.9318 40.1234C84.9318 40.1234 85.5943 40.1905 85.9808 40.8445Z" fill="#FFB096"/>
<path d="M85.3296 40.2327C85.3954 40.1478 85.5243 40.1276 85.6176 40.1875C85.804 40.3072 85.9688 40.4639 86.1025 40.6605C86.1498 40.7299 86.1837 40.8078 86.2069 40.8928L86.3125 41.2728L86.4221 41.653C86.4772 41.8402 86.5322 42.0206 86.5845 42.184C86.638 42.3515 86.6508 42.5117 86.6273 42.6635C86.5562 43.1182 86.0021 43.3716 85.5491 43.1676L85.5034 43.146L85.4599 43.1225L85.3774 43.0709L85.1791 42.9384L85.1257 42.9046C85.0309 42.8467 85.0057 42.7299 85.0692 42.6436C85.1328 42.5573 85.2612 42.5343 85.3559 42.5922L85.4524 42.654L85.6131 42.7617L85.6827 42.8051L85.7324 42.8304C85.9367 42.9224 86.1873 42.8078 86.2181 42.6107C86.2334 42.5121 86.2249 42.4056 86.1877 42.2892C86.1523 42.1786 86.1158 42.0606 86.0788 41.9381L85.9676 41.5605L85.8584 41.1742C85.8406 41.1102 85.823 41.0464 85.8058 40.9835C85.7924 40.9341 85.7741 40.8923 85.7512 40.8586C85.6473 40.7059 85.5213 40.5861 85.3793 40.4949C85.2861 40.435 85.2638 40.3176 85.3296 40.2327Z" fill="#C48066"/>
<path fill-rule="evenodd" clip-rule="evenodd" d="M23.8634 16.6978C22.4902 17.1052 20.9298 17.0814 19.63 16.4723C18.3407 15.8686 17.3495 14.7658 16.9508 13.4963C16.6066 12.4003 16.6321 10.7197 17.858 10.0561C19.2603 9.2974 20.7071 10.803 21.139 11.8841C21.6511 13.1667 21.4815 14.6493 20.603 15.7665C19.816 16.7667 18.5393 17.3552 17.2342 17.5764C13.7428 18.1678 10.686 15.9276 8.85093 13.444C8.53609 13.0184 7.7732 13.4191 8.09068 13.8484C10.022 16.4619 13.1331 18.7772 16.797 18.4363C18.3959 18.2875 19.9959 17.6755 21.0496 16.5391C22.1701 15.3308 22.5539 13.6828 22.1464 12.151C21.7535 10.6759 20.4102 9.034 18.5737 9.06579C16.7636 9.09705 15.8883 10.8303 15.8804 12.2712C15.8719 13.8279 16.6858 15.3637 17.9587 16.39C19.2529 17.4337 20.9777 17.9106 22.6936 17.7385C24.6668 17.5406 26.4517 16.5984 27.5752 15.1019C28.7195 13.5773 29.0807 11.6325 28.6565 9.8381C28.5373 9.33427 27.6885 9.54745 27.8076 10.0513C28.4572 12.7991 26.8739 15.8044 23.8634 16.6978Z" fill="#E26838"/>
<path fill-rule="evenodd" clip-rule="evenodd" d="M110.056 11.8289C112.373 13.2613 115.033 14.2089 117.803 14.5837C118.357 14.6585 118.596 13.8865 118.037 13.8108C115.332 13.4449 112.763 12.5358 110.5 11.137C110.031 10.8464 109.59 11.5404 110.056 11.8289Z" fill="#E89D7E"/>
<path fill-rule="evenodd" clip-rule="evenodd" d="M30.1524 18.7101C30.1897 18.6658 30.1677 18.692 30.1427 18.7206C30.1237 18.7422 30.1046 18.7636 30.0849 18.7849C30.05 18.8231 30.0145 18.8611 29.9784 18.8985C29.9059 18.973 29.8311 19.0457 29.7537 19.1162C29.6721 19.1905 29.5882 19.2626 29.5013 19.3321C29.4605 19.3649 29.4189 19.3975 29.3766 19.4293C29.3534 19.4469 29.33 19.4643 29.3062 19.4817C29.2974 19.4881 29.2176 19.5442 29.2645 19.5118C29.3062 19.483 29.2437 19.5255 29.2364 19.5305C29.212 19.5471 29.1874 19.5634 29.1627 19.5794C29.1184 19.6085 29.0735 19.6369 29.028 19.6646C28.9321 19.7234 28.8344 19.7792 28.7346 19.8321C28.6401 19.8824 28.5439 19.9299 28.4462 19.9748C28.3922 19.9996 28.3373 20.0237 28.2822 20.0469C28.2601 20.0563 28.2378 20.0654 28.2158 20.0744C28.2041 20.0793 28.0908 20.1228 28.1868 20.0865C28.0762 20.1284 27.987 20.1722 27.9239 20.2705C27.8687 20.3563 27.8453 20.4829 27.8796 20.5793C27.9453 20.7645 28.1932 20.9456 28.4209 20.859C29.4162 20.4813 30.256 19.8933 30.9124 19.1146C31.0532 18.9476 30.9467 18.6589 30.7545 18.5664C30.5215 18.4542 30.3026 18.532 30.1524 18.7101Z" fill="#E89D7E"/>
<path fill-rule="evenodd" clip-rule="evenodd" d="M67.5908 35.1755C67.5908 34.5024 68.1894 33.9565 68.9278 33.9565C69.6663 33.9565 70.2649 34.5024 70.2649 35.1755C70.2649 35.8486 69.6663 36.3945 68.9278 36.3945C68.1894 36.3945 67.5908 35.8486 67.5908 35.1755ZM69.8516 35.1755C69.8516 34.7101 69.4379 34.3328 68.9278 34.3328C68.4178 34.3328 68.0041 34.7101 68.0041 35.1755C68.0041 35.641 68.4178 36.0182 68.9278 36.0182C69.4379 36.0182 69.8516 35.641 69.8516 35.1755Z" fill="#FFC249"/>
<path fill-rule="evenodd" clip-rule="evenodd" d="M54.3061 32.8638C54.1009 33.0001 53.9808 33.0696 53.9808 33.0696L54.6783 35.5178L54.7955 35.9214C50.1474 41.8708 43.9899 38.725 43.9899 38.725C43.7759 35.9508 42.4776 32.1395 40.4906 27.9808C40.429 27.8632 40.3733 27.743 40.3177 27.6227C40.2239 27.4356 40.1389 27.2539 40.0539 27.0721C39.8898 26.7113 39.7315 26.3585 39.5967 26.0218C39.1043 24.8297 38.7907 23.7607 38.6676 22.7638C38.6149 22.2747 38.6032 21.8043 38.6471 21.3446C38.8728 18.8991 40.5726 16.8063 44.2536 14.2379C48.6029 11.2044 52.3806 13.0272 54.3471 14.4918C55.2615 15.1787 55.7832 15.7854 55.7832 15.7854C55.7832 15.7854 56.3723 16.4348 57.0844 18.1347C57.1401 18.263 57.1987 18.3993 57.2515 18.5436C57.7351 19.7704 58.2597 21.4702 58.6846 23.7553C59.6254 28.7319 55.7773 31.8509 54.4321 32.7783C54.4321 32.7783 54.4292 32.7783 54.4292 32.7836C54.4175 32.789 54.4087 32.7943 54.3999 32.7997C54.3882 32.8077 54.3764 32.8157 54.3647 32.8264C54.3442 32.8371 54.3237 32.8531 54.3061 32.8638Z" fill="#FFB096"/>
<path fill-rule="evenodd" clip-rule="evenodd" d="M50.1479 22.8226C50.2381 23.0968 50.4682 23.2761 50.6619 23.223C50.8557 23.17 50.9395 22.9049 50.8495 22.6307C50.7592 22.3565 50.5289 22.1771 50.3352 22.2301C50.1414 22.2832 50.0576 22.5484 50.1479 22.8226Z" fill="#653825"/>
<path fill-rule="evenodd" clip-rule="evenodd" d="M56.5976 21.0576C56.6879 21.3318 56.9179 21.5112 57.1116 21.458C57.3054 21.405 57.3892 21.1399 57.2989 20.8657C57.2089 20.5915 56.9786 20.4121 56.7849 20.4651C56.5911 20.5183 56.5073 20.7834 56.5976 21.0576Z" fill="#653825"/>
<path d="M53.7789 20.7933C53.861 20.7212 53.9919 20.7234 54.071 20.7983L54.1723 20.897L54.2975 21.0233L54.4344 21.1657C54.7051 21.4515 54.9758 21.7612 55.2288 22.0841C55.5848 22.5385 55.8764 22.9821 56.0814 23.4028C56.3492 23.9524 56.4607 24.4449 56.381 24.8659L56.3581 24.9664C56.2428 25.3937 55.7893 25.6754 55.3013 25.6552L55.2314 25.6503L54.6561 25.5928C54.5427 25.5815 54.4608 25.4886 54.4732 25.3853C54.4843 25.2935 54.5662 25.2244 54.6639 25.2181L54.7012 25.2188L55.2766 25.2763C55.5714 25.3059 55.8501 25.1554 55.9403 24.9274L55.9582 24.8708C56.049 24.5227 55.9572 24.0759 55.7036 23.5553C55.5113 23.1606 55.2334 22.7379 54.8924 22.3026C54.6473 21.9898 54.3844 21.689 54.1215 21.4115L53.9888 21.2735L53.8007 21.0855L53.7734 21.0593C53.6942 20.9845 53.6967 20.8654 53.7789 20.7933Z" fill="#C48066"/>
<path d="M51.3648 21.4746C51.3656 21.5785 51.2738 21.6633 51.1597 21.6641L51.0768 21.6669L50.965 21.6749C50.9441 21.6767 50.9222 21.6788 50.8992 21.6812L50.7499 21.6991C50.4373 21.7417 50.1251 21.8163 49.836 21.9302C49.2981 22.1422 48.9046 22.4637 48.7045 22.9163C48.6619 23.0127 48.5415 23.0594 48.4357 23.0206C48.3298 22.9818 48.2785 22.8722 48.3212 22.7758C48.5661 22.2217 49.0414 21.8333 49.6719 21.5849C49.9971 21.4568 50.3431 21.374 50.6888 21.327C50.7693 21.3161 50.8462 21.3076 50.9184 21.3013L51.0666 21.291L51.1565 21.2879C51.2706 21.2871 51.3639 21.3707 51.3648 21.4746Z" fill="#653825"/>
<path d="M56.237 19.9635C56.6097 19.8612 56.9991 19.8472 57.3547 19.8838L57.471 19.8983C57.4805 19.8998 57.4888 19.9011 57.4958 19.9024C57.6079 19.9222 57.681 20.0209 57.6593 20.1229C57.6375 20.2249 57.529 20.2915 57.417 20.2717L57.3453 20.2618C57.334 20.2605 57.3216 20.2591 57.3082 20.2577C57.0036 20.2263 56.6672 20.2384 56.3564 20.3238C56.07 20.4024 55.8355 20.5371 55.6645 20.7375C55.5945 20.8196 55.4647 20.8344 55.3746 20.7707C55.2844 20.707 55.2681 20.5888 55.3381 20.5067C55.5655 20.2402 55.8732 20.0634 56.237 19.9635Z" fill="#653825"/>
<path d="M51.0305 19.7778C51.0849 19.9643 50.9755 20.1553 50.783 20.2244L50.6006 20.2743L50.5126 20.2992L50.3226 20.3564C50.2895 20.3668 50.2557 20.3775 50.2213 20.3887C49.8282 20.5162 49.4354 20.6694 49.0716 20.8474C48.4927 21.1306 48.0475 21.4478 47.7882 21.7857C47.6575 21.9561 47.3999 21.9977 47.2128 21.8787C47.0257 21.7597 46.9799 21.5252 47.1106 21.3548C47.4565 20.9041 47.9975 20.5186 48.6804 20.1845C49.0844 19.9869 49.5143 19.8191 49.9439 19.6798L50.161 19.6119C50.1957 19.6015 50.2297 19.5915 50.2629 19.5819L50.4751 19.5234L50.5249 19.5108C50.7455 19.4575 50.9718 19.577 51.0305 19.7778Z" fill="#5F3A29"/>
<path d="M55.9751 18.1674C56.416 18.1027 56.8766 18.114 57.3166 18.1711L57.4428 18.1888L57.5449 18.2056L57.6208 18.2203C57.8431 18.2672 57.9816 18.4694 57.93 18.6718C57.8821 18.8598 57.6872 18.9819 57.4816 18.9608L57.3018 18.9303L57.2001 18.916C56.8355 18.8688 56.4536 18.8594 56.1066 18.9103C55.8804 18.9436 55.6834 19.001 55.5216 19.0833L55.4437 19.1266C55.2536 19.2415 54.9971 19.1944 54.8708 19.0213C54.7445 18.8482 54.7963 18.6147 54.9864 18.4997C55.2688 18.329 55.6025 18.2221 55.9751 18.1674Z" fill="#5F3A29"/>
<path fill-rule="evenodd" clip-rule="evenodd" d="M57.0929 26.7913L57.1505 26.7528C57.3155 26.6384 57.5421 26.7917 57.4693 26.9685C56.8988 28.3528 56.107 29.1414 55.1435 29.4085C54.2934 29.6442 53.3977 29.4594 52.5301 29.0138C52.3213 28.9065 52.1304 28.7917 51.9609 28.6767L51.8681 28.6122L51.7955 28.5592L51.744 28.5193C51.5984 28.4016 51.6961 28.1826 51.8906 28.1906C53.2482 28.2469 54.5556 27.9698 55.7586 27.4728C56.1428 27.3141 56.4876 27.1441 56.7874 26.9744L56.9645 26.8712L57.0929 26.7913ZM56.7936 27.4485L56.8217 27.395L56.6759 27.4715C56.4462 27.5891 56.1968 27.7049 55.9294 27.8154C54.9227 28.2314 53.8444 28.5004 52.7217 28.561L52.52 28.5696L52.5918 28.6106L52.7332 28.6861C53.5118 29.086 54.3009 29.2488 55.0231 29.0486C55.7082 28.8587 56.3076 28.3466 56.7936 27.4485Z" fill="#C48066"/>
<path d="M46.3956 26.5426C46.4438 26.4613 46.5482 26.4253 46.6413 26.4529L46.6756 26.4663L47.8933 27.0642C47.9938 27.1135 48.0313 27.2276 47.9771 27.3191C47.929 27.4004 47.8246 27.4364 47.7314 27.4087L47.6972 27.3954L46.4794 26.7975C46.379 26.7482 46.3415 26.634 46.3956 26.5426Z" fill="#C48066"/>
<path fill-rule="evenodd" clip-rule="evenodd" d="M40.057 27.0725C40.1397 27.2526 40.2259 27.4376 40.3164 27.6231C40.3747 27.7423 40.431 27.862 40.4887 27.9793C40.4492 27.5693 40.4026 27.1382 40.3443 26.6908C40.1268 25.0455 39.7619 23.1648 39.1687 21.1493L38.6465 21.3444L37.1682 21.8958C37.1911 22.232 37.2309 22.5484 37.2843 22.8462C37.8634 26.0665 40.057 27.0725 40.057 27.0725Z" fill="#5F3A29"/>
<path fill-rule="evenodd" clip-rule="evenodd" d="M42.6632 24.6123C42.6632 24.6123 42.9182 22.0922 40.4185 22.0884C37.9192 22.0847 38.3843 24.2143 38.3843 24.2143C38.3843 24.2143 38.9746 26.0085 41.0806 27.1085L42.6632 24.6123Z" fill="#FFB096"/>
<path d="M39.4398 23.7061C40.0663 23.5219 40.6418 23.7596 41.1394 24.2493C41.2683 24.376 41.3824 24.5111 41.4811 24.6463L41.5441 24.7356L41.6055 24.8315C41.6593 24.9232 41.6213 25.0371 41.5207 25.0861C41.42 25.1351 41.2948 25.1005 41.241 25.0089L41.212 24.9626L41.1661 24.8952C41.157 24.8824 41.1473 24.8688 41.1369 24.8546C41.0497 24.7352 40.9488 24.6157 40.8361 24.5048C40.4359 24.1111 40.0081 23.9343 39.5668 24.0641C39.4582 24.096 39.3418 24.0418 39.3067 23.9429C39.2716 23.844 39.3312 23.738 39.4398 23.7061Z" fill="#C48066"/>
<path fill-rule="evenodd" clip-rule="evenodd" d="M48.6011 34.4587C49.0181 34.4971 52.7577 34.8542 54.6786 35.5197L53.9799 33.0678C53.9799 33.0678 54.1387 32.978 54.3981 32.8011C54.0801 33.0114 51.5057 34.6522 48.6011 34.4587Z" fill="#C48066"/>
<path fill-rule="evenodd" clip-rule="evenodd" d="M54.3471 14.4918C52.1168 14.6388 46.3433 15.2776 46.2641 17.977C46.1616 21.3232 42.671 21.1495 42.671 21.1495L44.0573 23.8328L42.6622 24.6133C42.6622 24.6133 42.9172 22.0929 40.4202 22.0876C39.4765 22.0876 38.9578 22.3896 38.6735 22.7664L38.6676 22.7638C38.6149 22.2747 38.6032 21.8043 38.6471 21.3446C38.8728 18.8991 40.5726 16.8063 44.2536 14.2379C48.6029 11.2044 52.3806 13.0272 54.3471 14.4918Z" fill="#5F3A29"/>
<path fill-rule="evenodd" clip-rule="evenodd" d="M38.35 16.4337C38.35 16.4337 35.0843 18.6309 37.2844 22.8463L37.9945 22.161L41.0613 21.1494L47.1865 14.6358L55.7833 15.7853C55.7833 15.7853 57.4567 13.637 55.8307 13.7169C55.8307 13.7169 57.2056 10.8801 54.3469 11.5994C54.3469 11.5994 48.4655 7.64379 44.3909 12.3584C44.3909 12.3584 39.2313 12.5182 38.35 16.4337Z" fill="#5F3A29"/>
<path fill-rule="evenodd" clip-rule="evenodd" d="M85.5518 30.9845C85.5278 31.6206 85.4147 32.2567 85.2294 32.8781C85.1931 32.9957 85.1568 33.1171 85.1204 33.2422C84.9795 33.7016 84.818 34.2273 84.6407 34.7715C84.6166 34.845 84.5923 34.9222 84.5683 34.9957C84.2699 35.9076 83.939 36.8524 83.6249 37.6355C82.6973 39.9482 83.9352 42.9338 83.9352 42.9338C80.3026 44.8969 76.271 44.1323 74.3681 43.5809C74.3842 43.4227 74.4003 43.2647 74.4124 43.1065C74.4487 42.6433 74.4689 42.1764 74.4689 41.713V41.1137C74.4689 41.1137 69.5503 39.8894 68.8085 36.904C68.0626 33.9221 69.3003 28.9108 70.4734 27.1645C70.6267 26.9402 70.7961 26.7123 70.9895 26.4918C72.3119 24.9991 74.7793 23.7269 80.105 24.4621C80.4641 24.5137 80.8026 24.5835 81.117 24.6679C81.1249 24.6679 81.1331 24.6717 81.1413 24.6754C82.1653 24.9547 82.9555 25.4069 83.5642 25.9548C84.1005 26.4327 84.4956 26.9806 84.7857 27.5432C84.9311 27.8115 85.0477 28.0836 85.1447 28.3557C85.4551 29.2051 85.5841 30.0948 85.5518 30.9845Z" fill="#E89D7E"/>
<path fill-rule="evenodd" clip-rule="evenodd" d="M82.6285 30.3905C82.6285 30.3905 80.2001 30.9117 78.7713 27.0687C78.7713 27.0687 72.7715 28.9574 70.5573 26.0263C68.3431 23.0952 70.5573 21.3366 70.5573 21.3366C70.5573 21.3366 72.1288 20.6852 73.6287 21.9227C73.6287 21.9227 74.4145 19.3173 78.5571 19.7081C82.7 20.0988 82.6285 23.2906 82.6285 23.2906C82.6285 23.2906 87.3426 23.8117 86.5568 28.6319C86.5568 28.6319 88.3765 30.1299 86.6453 32.2796C84.9142 34.429 84.3113 32.3539 84.3113 32.3539C84.3113 32.3539 82.3105 33.9249 82.6285 30.3905Z" fill="#653825"/>
<path fill-rule="evenodd" clip-rule="evenodd" d="M84.1655 34.9964C84.1655 34.9964 84.6957 34.5923 86.0954 34.4985C87.4949 34.4047 88.0441 32.7458 88.0441 32.7458C88.0441 32.7458 88.799 30.6798 86.3964 30.7739C85.254 30.8185 84.6004 31.6631 84.2291 32.5368L84.1655 34.9964Z" fill="#E89D7E"/>
<path d="M73.9482 30.1754C74.0623 30.1754 74.1549 30.2596 74.1549 30.3635C74.1549 30.8367 73.8576 31.5217 72.9849 32.1922L72.8649 32.2813L72.7392 32.3686C72.2237 32.7151 72.0576 33.1849 72.146 33.7407C72.1961 34.0549 72.3402 34.3619 72.5615 34.6386L72.6382 34.7297C72.7661 34.8742 72.8554 35.0217 72.8864 35.1732C72.9074 35.2754 72.8334 35.3736 72.7212 35.3927C72.6215 35.4096 72.5251 35.3583 72.4903 35.2749L72.4802 35.2422C72.4667 35.1763 72.4237 35.098 72.3582 35.0156L72.3163 34.9656C72.0067 34.6153 71.8037 34.2132 71.737 33.7946C71.6331 33.1414 71.8255 32.5559 72.4114 32.1239L72.4938 32.0659C72.5724 32.0131 72.6472 31.9593 72.7183 31.9047C73.1717 31.5564 73.46 31.1872 73.619 30.8209C73.7116 30.6073 73.7416 30.4463 73.7416 30.3635C73.7416 30.2596 73.8341 30.1754 73.9482 30.1754Z" fill="#653825"/>
<path d="M78.0428 36.4466C78.0914 36.5406 78.0472 36.6527 77.944 36.697L77.804 36.7531L77.6427 36.8128C77.4054 36.898 77.1376 36.983 76.8444 37.0623C75.5527 37.4117 74.2225 37.5399 72.9724 37.315C72.6997 37.266 72.4344 37.2002 72.1774 37.117C72.0699 37.0821 72.0138 36.9745 72.0521 36.8766C72.0903 36.7788 72.2085 36.7277 72.316 36.7625C72.5536 36.8395 72.7993 36.9004 73.0525 36.9459C74.2271 37.1572 75.4937 37.0351 76.7267 36.7016C76.9517 36.6408 77.1609 36.5765 77.3516 36.5115L77.5551 36.4395L77.7048 36.3825L77.7678 36.3566C77.871 36.3123 77.9941 36.3526 78.0428 36.4466Z" fill="#653825"/>
<path d="M76.5321 30.9091C77.2122 30.8621 77.816 31.0631 78.3316 31.4242C78.6086 31.6181 78.8012 31.8128 78.9053 31.9479C78.9708 32.033 78.9482 32.1503 78.8547 32.2099C78.7613 32.2696 78.6324 32.249 78.5669 32.1639L78.5341 32.1245C78.527 32.1163 78.5189 32.1073 78.51 32.0976L78.4466 32.031C78.3426 31.926 78.2199 31.8206 78.0796 31.7224C77.6391 31.4138 77.1317 31.245 76.5634 31.2843C76.4496 31.2921 76.3503 31.2145 76.3417 31.1109C76.333 31.0073 76.4183 30.917 76.5321 30.9091Z" fill="#653825"/>
<path d="M69.7756 30.7933C70.4072 30.2579 71.0904 30.3032 71.7066 30.6936C71.8756 30.8007 72.0004 30.9081 72.0725 30.9838C72.1481 31.0632 72.1402 31.1845 72.0547 31.2548C71.9693 31.325 71.8387 31.3176 71.763 31.2383C71.7118 31.1845 71.6112 31.0979 71.4738 31.0108C71.0003 30.7108 70.5233 30.6792 70.0542 31.0769C69.9699 31.1484 69.8392 31.1428 69.7623 31.0645C69.6853 30.9862 69.6913 30.8648 69.7756 30.7933Z" fill="#653825"/>
<path d="M76.9174 28.4944C77.7398 28.3725 78.4801 28.5972 79.1125 29.0381C79.4161 29.2499 79.6307 29.4626 79.7514 29.6146C79.8853 29.7829 79.8439 30.0181 79.659 30.14C79.4741 30.2618 79.2158 30.2241 79.0819 30.0558L79.0523 30.0212L79.0016 29.9672C78.9914 29.9568 78.9804 29.9456 78.9685 29.9339C78.8663 29.8325 78.7461 29.7305 78.61 29.6356C78.1442 29.3108 77.6221 29.1524 77.0503 29.2372C76.8251 29.2706 76.6127 29.1314 76.576 28.9263C76.5393 28.7212 76.6922 28.5279 76.9174 28.4944Z" fill="#653825"/>
<path d="M70.5484 27.6203C70.9055 27.5712 71.2773 27.5743 71.6296 27.6084L71.7787 27.6251L71.8457 27.6346C72.0706 27.6705 72.2208 27.8655 72.1814 28.0702C72.1448 28.2603 71.9575 28.3918 71.751 28.3809L71.5865 28.3612C71.5727 28.3597 71.5579 28.3582 71.5423 28.3567C71.2543 28.3288 70.9489 28.3263 70.6718 28.3644C70.5023 28.3877 70.3543 28.4253 70.2337 28.4768C70.0271 28.5651 69.781 28.4842 69.684 28.296C69.5871 28.1079 69.6759 27.8839 69.8826 27.7956C70.0816 27.7105 70.305 27.6538 70.5484 27.6203Z" fill="#653825"/>
<path d="M76.0144 37.6354C76.0363 37.8133 75.9633 37.9858 75.8514 38.0206L75.715 38.0608L75.4965 38.1198L75.3823 38.1483C75.2637 38.1769 75.1485 38.2018 75.039 38.2221C74.8052 38.2652 74.6091 38.2848 74.4589 38.2745C74.3449 38.2667 74.2565 38.1135 74.2614 37.9324C74.2664 37.7513 74.3628 37.6109 74.4768 37.6187C74.5121 37.6211 74.5518 37.6214 74.5954 37.6196L74.7379 37.6084L74.9019 37.5856C74.9309 37.5808 74.9607 37.5756 74.9913 37.57L75.2074 37.5256C75.2445 37.5172 75.2821 37.5084 75.3202 37.4993L75.5384 37.4434L75.7719 37.3764C75.8839 37.3416 75.9924 37.4575 76.0144 37.6354Z" fill="#653825"/>
<path d="M86.5446 32.1152C86.6443 32.0646 86.7702 32.0971 86.8258 32.1879C86.8814 32.2786 86.8457 32.3932 86.746 32.4438L86.6985 32.4701L86.631 32.5118L86.546 32.5691C86.3883 32.6796 86.2301 32.8147 86.0825 32.9748C85.8721 33.2031 85.7013 33.463 85.5839 33.7555C85.5447 33.8531 85.4261 33.9033 85.3189 33.8677C85.2117 33.832 85.1565 33.724 85.1957 33.6264C85.3304 33.2909 85.5258 32.9935 85.7659 32.733C85.9338 32.5508 86.1136 32.3972 86.294 32.2709L86.347 32.2346L86.4404 32.1744L86.5151 32.1309C86.5259 32.125 86.5357 32.1198 86.5446 32.1152Z" fill="#653825"/>
<path fill-rule="evenodd" clip-rule="evenodd" d="M88.2199 22.368C88.2199 24.3781 86.433 26.0077 84.2288 26.0077C82.0249 26.0077 80.238 24.3781 80.238 22.368C80.238 20.3579 82.0249 18.7283 84.2288 18.7283C86.433 18.7283 88.2199 20.3579 88.2199 22.368Z" fill="#653825"/>
<path fill-rule="evenodd" clip-rule="evenodd" d="M89.0144 23.9104C89.0144 25.9205 87.2275 27.5501 85.0233 27.5501C82.8191 27.5501 81.0325 25.9205 81.0325 23.9104C81.0325 21.9003 82.8191 20.2708 85.0233 20.2708C87.2275 20.2708 89.0144 21.9003 89.0144 23.9104Z" fill="#653825"/>
<path fill-rule="evenodd" clip-rule="evenodd" d="M82.7104 32.0559C82.7104 32.0559 83.6216 33.86 82.7104 34.7412C81.7993 35.6223 84.6043 34.4284 84.417 31.4444L82.7104 32.0559Z" fill="#653825"/>
<path fill-rule="evenodd" clip-rule="evenodd" d="M82.287 21.223C82.287 21.223 79.8349 21.0127 80.2038 18.8267C80.5725 16.6404 81.4702 23.2222 83.4769 21.223H82.287Z" fill="#653825"/>
<path fill-rule="evenodd" clip-rule="evenodd" d="M72.8002 44.2124C72.7964 44.1683 72.8336 44.1143 72.9004 44.0464C72.8447 44.2562 72.804 44.3375 72.8002 44.2124Z" fill="#653825"/>
<path fill-rule="evenodd" clip-rule="evenodd" d="M79.2993 40.8038C79.0432 40.9155 76.2519 42.1375 74.4111 43.1055C74.4481 42.6418 74.4668 42.1781 74.4668 41.7144V41.1219C75.7177 41.2269 77.9371 41.3183 79.2993 40.8038Z" fill="#653825"/>
<path fill-rule="evenodd" clip-rule="evenodd" d="M85.4671 25.2452L83.5038 24.6019L81.2178 23.8517L81.2096 23.8479L80.2381 23.532L75.009 21.8223L76.8029 20.2706L77.4483 19.7117L79.484 17.9544L79.9116 17.5867L80.6009 16.9874L82.9191 14.9837C83.3505 14.616 84.0601 14.8477 84.1327 15.3806L84.3745 17.1713L84.4753 17.8994L84.7133 19.6679L84.8179 20.4435L84.9147 21.1715L85.2576 23.701L85.3584 24.4327L85.4671 25.2452Z" fill="#CAE9E0"/>
<path fill-rule="evenodd" clip-rule="evenodd" d="M84.4754 17.8993C84.0035 17.9506 83.532 17.9765 83.0601 17.9765C82.0886 17.9765 81.117 17.8661 80.1534 17.6494L79.9116 17.5868L80.6009 16.9873C81.8547 17.2485 83.1287 17.311 84.3746 17.1712L84.4754 17.8993Z" fill="#3F7E58"/>
<path fill-rule="evenodd" clip-rule="evenodd" d="M84.9147 21.1715C84.2011 21.2524 83.5117 21.2891 82.8506 21.2891C80.4394 21.2891 78.3955 20.8074 76.9844 20.3443L76.803 20.2708L77.448 19.7119C79.1534 20.2561 81.7861 20.8037 84.8139 20.4434H84.818L84.9147 21.1715Z" fill="#3F7E58"/>
<path fill-rule="evenodd" clip-rule="evenodd" d="M85.3583 24.4327C84.7414 24.5209 84.1207 24.576 83.5038 24.6019L81.2178 23.8517L82.4033 23.8701C83.3546 23.896 84.31 23.8407 85.2455 23.7047L85.2575 23.7009L85.3583 24.4327Z" fill="#3F7E58"/>
<path d="M45.7274 59.0126C45.8286 59.0195 45.9073 59.0915 45.9176 59.1802L45.9181 59.2142L44.5955 75.3473C44.587 75.4509 44.4878 75.5286 44.374 75.5209C44.2729 75.514 44.1942 75.442 44.1839 75.3532L44.1833 75.3193L45.506 59.1862C45.5145 59.0826 45.6136 59.0049 45.7274 59.0126Z" fill="#193558"/>
<path fill-rule="evenodd" clip-rule="evenodd" d="M26.1508 47.9722C26.1821 48.4108 25.7598 48.7567 25.2938 48.7227C25.2525 48.7201 25.2071 48.7142 25.1652 48.7046C24.691 48.5966 24.0439 48.3793 23.4056 47.9439C23.24 47.8306 23.0764 47.7034 22.9179 47.5553C22.6814 47.3434 22.4557 47.0964 22.2511 46.8067C22.2511 46.8067 21.5369 45.3795 23.1875 44.8252C23.1875 44.8252 23.5339 44.7923 23.9797 44.9438C24.2745 45.0448 24.6116 45.2237 24.9172 45.5513C24.9172 45.5513 25.4852 46.6118 25.9641 47.4123C26.084 47.6149 26.1352 47.8039 26.1508 47.9722Z" fill="#FFB096"/>
<path fill-rule="evenodd" clip-rule="evenodd" d="M25.0177 49.6324C24.6426 49.7393 24.0916 49.8427 23.4509 49.7778C23.0743 49.742 22.6608 49.6455 22.2376 49.4614C22.2376 49.4614 21.1242 48.7822 21.9694 47.7981C21.9694 47.7981 22.3352 47.5426 22.9178 47.5552C23.0784 47.5571 23.2528 47.5846 23.4415 47.6381C23.4415 47.6381 23.4697 47.656 23.5251 47.6846C23.7525 47.8158 24.4175 48.191 24.9682 48.4786C25.1065 48.5505 25.2132 48.6355 25.2941 48.7229C25.3111 48.7416 25.3281 48.7603 25.3412 48.7796C25.5845 49.0826 25.411 49.5204 25.0177 49.6324Z" fill="#FFB096"/>
<path fill-rule="evenodd" clip-rule="evenodd" d="M33.7609 53.9527L27.8786 56.9712L23.452 49.7758C24.093 49.8421 24.6413 49.7392 25.0162 49.6326C25.4113 49.5187 25.5848 49.0812 25.3427 48.7797C25.3268 48.7613 25.3104 48.7428 25.2943 48.7244C25.758 48.7575 26.1815 48.4119 26.1492 47.9707C26.1372 47.8052 26.0847 47.6142 25.9637 47.4118C25.7339 47.0259 25.4839 46.5809 25.2864 46.2244C25.2501 46.1656 25.2178 46.1068 25.1897 46.0514C25.1616 46.0001 25.1331 45.9485 25.105 45.9007C24.9881 45.6874 24.9154 45.5514 24.9154 45.5514C24.6897 45.3052 24.4397 45.1433 24.2058 45.0369C24.1534 45.011 24.1012 44.989 24.0487 44.9706C24.0244 44.9596 24.0042 44.9522 23.9802 44.9449L22.069 40.941C21.9884 40.7643 21.9805 40.5623 22.045 40.3784L22.057 40.3527C22.1698 40.0547 22.4603 39.8636 22.7786 39.8305C22.9277 39.8195 23.0892 39.8415 23.2384 39.9077C23.3835 39.9703 23.5083 40.0769 23.593 40.202L26.7459 44.9375L25.2823 39.5512C25.2583 39.463 25.2421 39.3711 25.2298 39.2791C25.1938 38.9482 25.2501 38.6099 25.3992 38.3012C25.5203 38.0401 25.9194 38.0216 26.0645 38.2715L28.8906 42.919L29.31 43.9558V43.9595C29.4026 43.9226 29.4993 43.8932 29.6002 43.8713L29.6728 43.8529C30.4428 43.6765 31.2534 43.978 31.6766 44.5956L32.0233 45.0992C33.2569 46.8933 33.6358 49.0406 33.132 51.0665C33.1159 51.14 33.0957 51.2135 33.0754 51.2872C33.0754 51.2907 33.0716 51.2944 33.0716 51.2982C32.9101 51.857 32.9948 52.4563 33.261 52.982L33.3539 53.1621L33.7609 53.9527Z" fill="#FFB096"/>
<path d="M29.5473 43.6864C29.6581 43.6615 29.7701 43.7231 29.7974 43.824C29.8247 43.9249 29.757 44.0268 29.6462 44.0517C29.1962 44.1527 28.8155 44.4224 28.5963 44.7921L28.5546 44.8673L27.0865 47.7088C26.8748 48.3829 27.4855 49.0353 28.2481 48.9502C28.5075 48.9212 28.7455 48.8071 28.9183 48.6305L28.9681 48.5757L29.9534 47.408C30.0229 47.3256 30.1526 47.3101 30.2431 47.3734C30.3236 47.4297 30.346 47.5293 30.3011 47.6086L30.2811 47.6372L29.2958 48.8049C29.0532 49.0926 28.6937 49.2795 28.2984 49.3236C27.2658 49.4389 26.4347 48.5787 26.6818 47.6425L26.7008 47.5771L28.1805 44.7075C28.4439 44.1966 28.9461 43.8213 29.5473 43.6864Z" fill="#C48066"/>
<path d="M28.605 48.8499C28.7016 48.7945 28.8291 48.8209 28.8899 48.9089C28.9507 48.9968 28.9217 49.1129 28.8251 49.1683C28.4214 49.3997 28.1857 49.7672 28.0886 50.243C28.0125 50.6164 28.0277 51.0214 28.0997 51.4087L28.122 51.5195L28.1424 51.6063L28.159 51.6671C28.1893 51.7673 28.1247 51.8708 28.0147 51.8984C27.9046 51.926 27.7909 51.8671 27.7606 51.767L27.7406 51.6944L27.7172 51.5952L27.6923 51.4715C27.6128 51.0443 27.5961 50.5974 27.6823 50.1743C27.7989 49.6027 28.0939 49.1428 28.605 48.8499Z" fill="#C48066"/>
<path d="M23.9441 44.7332L24.0392 44.7635L24.0546 44.7673L24.1592 44.8071C24.6109 44.9884 24.9884 45.3145 25.2392 45.7266L25.291 45.8163L25.4959 46.1883L25.6925 46.54C25.7246 46.5969 25.7563 46.6529 25.7876 46.708L25.9712 47.0271C26.0309 47.1297 26.0891 47.2284 26.1457 47.323C26.2701 47.5328 26.3371 47.7432 26.3571 47.9598C26.3962 48.5076 25.8756 48.9539 25.2775 48.9103C25.1637 48.9021 25.0789 48.8114 25.088 48.7078C25.0971 48.6042 25.1967 48.527 25.3104 48.5353C25.6617 48.5609 25.9672 48.299 25.945 47.9878C25.93 47.8253 25.879 47.6652 25.7825 47.5024L25.6955 47.3561L25.5148 47.0457L25.3254 46.7129L25.1274 46.3586L24.9212 45.9842C24.7161 45.6099 24.3922 45.3153 24.0047 45.1564L23.9098 45.1205C23.6724 45.0401 23.4584 45.0103 23.2908 45.01L23.209 45.0124C23.0955 45.0231 22.9939 44.9481 22.9821 44.8447C22.9716 44.7529 23.0355 44.6696 23.1296 44.6447L23.1662 44.6381L23.1992 44.6359C23.4025 44.6257 23.6597 44.6498 23.9441 44.7332Z" fill="#C48066"/>
<path fill-rule="evenodd" clip-rule="evenodd" d="M25.4601 48.611L25.5001 48.6572L25.542 48.7144C25.8172 49.118 25.589 49.6668 25.0794 49.8119C24.5632 49.9591 24.0113 50.0239 23.4294 49.9649C23.0028 49.9243 22.5698 49.8144 22.1225 49.6176C22.0342 49.5638 21.91 49.4678 21.786 49.3316C21.3581 48.8617 21.2881 48.2859 21.8066 47.6823L21.8436 47.6489C21.9002 47.6094 21.9976 47.5556 22.1324 47.5034C22.3661 47.4128 22.6314 47.3608 22.9227 47.3671L23.031 47.3718C23.143 47.3799 23.2594 47.3982 23.3804 47.4266L23.5029 47.4584L23.5599 47.4839L23.5692 47.4895L23.6356 47.5256L24.0721 47.7728L24.4945 48.0064L24.8875 48.2187L25.0706 48.3152C25.2223 48.3941 25.3496 48.491 25.4601 48.611ZM25.1659 48.8791L25.1444 48.8532L25.091 48.799C25.0281 48.7403 24.953 48.6874 24.8653 48.6418L24.5804 48.4908L24.2821 48.3292L23.757 48.038L23.4231 47.8482L23.3539 47.8111L23.2797 47.7916C23.1812 47.7683 23.0883 47.7535 23.0008 47.747L22.9151 47.7433C22.6839 47.7383 22.4763 47.779 22.2944 47.8495C22.2273 47.8755 22.1747 47.9009 22.138 47.9212L22.1154 47.9345L22.082 47.9751C21.7653 48.3797 21.8009 48.7287 22.0631 49.0444L22.1041 49.0915C22.128 49.1177 22.1518 49.1419 22.1746 49.1639L22.2392 49.2226L22.2918 49.2658L22.3267 49.2916C22.705 49.4562 23.0923 49.5545 23.4737 49.5908C23.995 49.6437 24.4908 49.5854 24.956 49.4528C25.2188 49.378 25.3312 49.086 25.1659 48.8791Z" fill="#C48066"/>
<path fill-rule="evenodd" clip-rule="evenodd" d="M27.8782 56.9715C27.8782 56.9715 30.0677 65.6978 31.3142 73.3738C32.0785 78.0804 35.472 79.901 37.9831 80.6055C39.8145 81.1189 41.8303 80.4845 42.8985 79.0343C44.4609 76.9135 45.7501 73.106 42.0474 67.5476C35.9887 58.453 33.7593 53.9538 33.7593 53.9538L27.8782 56.9715Z" fill="#FFB096"/>
<path fill-rule="evenodd" clip-rule="evenodd" d="M33.3538 53.1621L30.7817 53.4048C32.4385 52.4453 32.9265 51.6695 33.0715 51.2982C32.9103 51.8571 32.995 52.4563 33.2611 52.982L33.3538 53.1621Z" fill="#C48066"/>
<path fill-rule="evenodd" clip-rule="evenodd" d="M83.8755 35.1755C83.8755 34.5024 84.4741 33.9565 85.2125 33.9565C85.951 33.9565 86.5495 34.5024 86.5495 35.1755C86.5495 35.8486 85.951 36.3945 85.2125 36.3945C84.4741 36.3945 83.8755 35.8486 83.8755 35.1755ZM86.1363 35.1755C86.1363 34.7101 85.7226 34.3328 85.2125 34.3328C84.7025 34.3328 84.2887 34.7101 84.2887 35.1755C84.2887 35.641 84.7025 36.0182 85.2125 36.0182C85.7226 36.0182 86.1363 35.641 86.1363 35.1755Z" fill="#FFC249"/>
</g>
</g>
</svg>
