<svg width="23" height="23" viewBox="0 0 23 23" fill="none" xmlns="http://www.w3.org/2000/svg">
<path d="M11.0519 22.9124C17.1557 22.9124 22.1038 17.7833 22.1038 11.4562C22.1038 5.12912 17.1557 0 11.0519 0C4.94811 0 0 5.12912 0 11.4562C0 17.7833 4.94811 22.9124 11.0519 22.9124Z" fill="#FF9739"/>
<path d="M15.227 15.2389C14.7405 14.9735 14.135 15.1725 13.8755 15.6701C13.3133 16.776 12.1997 17.4726 10.978 17.4726C9.17245 17.4726 7.71285 15.9687 7.71285 14.1331C7.71285 12.2974 9.18326 10.7935 10.978 10.7935C12.3511 10.7935 13.5836 11.6782 14.0485 13.0051C14.2323 13.5359 14.8054 13.8124 15.3243 13.6244C15.8433 13.4364 16.1136 12.8503 15.9298 12.3195C15.4324 10.9041 14.3945 9.80934 13.0971 9.22326L15.227 3.56151C15.4216 3.03072 15.173 2.44464 14.654 2.23453C14.135 2.03549 13.562 2.28983 13.3566 2.82061L11.1294 8.74776C11.0753 8.74776 11.0212 8.7367 10.9672 8.7367C10.8374 8.7367 10.7077 8.74776 10.578 8.75882L12.1673 4.52356C12.3619 3.99277 12.1132 3.40669 11.5943 3.19659C11.0753 2.99754 10.5023 3.25188 10.2969 3.78267L8.11289 9.58818C7.83178 9.77617 7.5723 9.98627 7.33444 10.2185L8.90215 6.03852C9.09676 5.50774 8.84809 4.92166 8.32912 4.71155C7.81016 4.51251 7.23714 4.76684 7.03171 5.29763L5.61538 9.05739C5.61538 9.05739 4.13417 12.5849 4.04767 13.7681C3.97199 14.7744 4.22066 15.3495 4.64232 15.9245C5.0856 16.5327 6.53438 18.4789 9.51842 19.2972C9.82115 19.3746 10.1239 19.441 10.4482 19.4741C10.4482 19.4741 10.4482 19.4741 10.459 19.4741C10.6212 19.4852 10.7942 19.4962 10.9672 19.4962C12.9349 19.4962 14.7297 18.3904 15.6379 16.599C15.9082 16.1125 15.7244 15.4932 15.227 15.2389Z" fill="white"/>
<path d="M11 16.0237C12.027 16.0237 12.8596 15.1722 12.8596 14.1217C12.8596 13.0713 12.027 12.2197 11 12.2197C9.97296 12.2197 9.14038 13.0713 9.14038 14.1217C9.14038 15.1722 9.97296 16.0237 11 16.0237Z" fill="white"/>
</svg>
