<svg width="56" height="56" viewBox="0 0 56 56" fill="none" xmlns="http://www.w3.org/2000/svg">
<g clip-path="url(#clip0_255_1329)">
<path d="M27.75 26.8499C23.58 26.8499 12.99 29.2199 12.99 29.2199C12.77 29.2199 10.97 30.0499 11 30.2599C11.31 32.3899 12.99 42.1899 17.66 43.7199C22.92 45.4399 27.74 45.1799 27.74 45.1799C27.74 45.1799 32.57 45.4399 37.82 43.7199C42.5 42.1899 44.17 32.3899 44.48 30.2599C44.51 30.0399 43.48 29.6399 43.26 29.6399C43.26 29.6399 31.9 26.8499 27.73 26.8499H27.75Z" fill="#FF9739"/>
<path d="M12.99 30.9799C12.99 30.9799 14.12 29.1999 17.5 29.1799C19.53 29.1699 17.82 24.8599 19.5 21.8899C20.06 20.9099 23.99 17.9199 23.8 20.4599C23.48 24.6599 24.35 27.3899 26.33 29.0899C29.25 31.5999 34.86 32.8099 36.86 31.2199C40.18 28.5899 42.56 30.9699 42.56 30.9699L39.93 32.0999L33.51 33.9999L28.19 34.6699L23.48 34.2999L16.71 32.5799L12.99 30.9699V30.9799Z" fill="#F3C8B3"/>
<path d="M11.9 30.47C11.9 30.47 19.64 34.51 27.78 34.7" stroke="#653825" stroke-width="0.66" stroke-miterlimit="10" stroke-linecap="round"/>
<path d="M42.57 30.98C42.57 30.98 35.91 34.51 27.78 34.7" stroke="#653825" stroke-width="0.66" stroke-miterlimit="10" stroke-linecap="round"/>
<path d="M39.18 15.26C39.18 15.26 31.79 25.12 30.76 26.71C29.73 28.3 27.75 31.48 28.39 31.94" stroke="#653825" stroke-width="0.66" stroke-miterlimit="10" stroke-linecap="round"/>
<path d="M39.18 15.27C39.18 15.27 33.22 26.05 32.19 27.64C31.16 29.23 29.08 32.34 28.4 31.94" stroke="#653825" stroke-width="0.66" stroke-miterlimit="10" stroke-linecap="round"/>
<path d="M39.17 15.26C39.17 15.26 35.22 19.98 30.48 23.9C27.8 26.12 26.82 29.7 28.39 31.93" stroke="#653825" stroke-width="0.66" stroke-miterlimit="10" stroke-linecap="round"/>
<path d="M39.19 15.27C39.19 15.27 36.5 20.81 34.87 26.74C33.95 30.1 31.08 32.46 28.4 31.94" stroke="#653825" stroke-width="0.66" stroke-miterlimit="10" stroke-linecap="round"/>
<path d="M39.16 15.26C32.53 22.09 30.98 19.89 27.8 24.8C26.77 26.39 25.01 29.71 28.38 31.93" stroke="#653825" stroke-width="0.66" stroke-miterlimit="10" stroke-linecap="round"/>
<path d="M39.19 15.27C35.68 24.12 38.33 24.63 35.15 29.55C34.12 31.14 31.82 34.11 28.41 31.95" stroke="#653825" stroke-width="0.66" stroke-miterlimit="10" stroke-linecap="round"/>
<path d="M42.8817 11.0088L41.555 10.1508C41.1237 9.87186 40.5479 9.99539 40.269 10.4267L36.7991 15.7925C36.5202 16.2238 36.6437 16.7995 37.075 17.0784L38.4018 17.9364C38.8331 18.2153 39.4088 18.0918 39.6877 17.6605L43.1577 12.2947C43.4366 11.8634 43.313 11.2877 42.8817 11.0088Z" fill="#FF9739"/>
<path d="M25.78 22.99C22.91 21.97 27.06 17.14 27.41 18.76C27.76 20.38 26.53 23.25 25.78 22.99Z" fill="white"/>
<path d="M39.49 11.6399L42.33 13.5799" stroke="white" stroke-width="0.66" stroke-miterlimit="10"/>
</g>
<defs>
<clipPath id="clip0_255_1329">
<rect width="33.49" height="35.2" fill="white" transform="translate(11 10)"/>
</clipPath>
</defs>
</svg>
