<?xml version="1.0" encoding="UTF-8"?>
<svg xmlns="http://www.w3.org/2000/svg" xmlns:xlink="http://www.w3.org/1999/xlink" width="20" height="20" viewBox="0 0 20 20">
<defs>
<clipPath id="clip-0">
<path clip-rule="evenodd" d="M 10 0.28125 C 15.523438 0.28125 20 4.695312 20 10.140625 C 20 15.585938 15.523438 20 10 20 C 4.476562 20 0 15.585938 0 10.140625 C 0 4.695312 4.476562 0.28125 10 0.28125 Z M 10 2.253906 C 5.582031 2.253906 2 5.785156 2 10.140625 C 2 14.496094 5.582031 18.027344 10 18.027344 C 14.417969 18.027344 18 14.496094 18 10.140625 C 18 5.785156 14.417969 2.253906 10 2.253906 Z M 10 2.253906 "/>
</clipPath>
<clipPath id="clip-1">
<path clip-rule="nonzero" d="M 2 2 L 18 2 L 18 18 L 2 18 Z M 2 2 "/>
</clipPath>
<clipPath id="clip-2">
<path clip-rule="evenodd" d="M 15.671875 3.152344 C 16.0625 2.769531 16.695312 2.769531 17.085938 3.152344 C 17.445312 3.507812 17.472656 4.066406 17.167969 4.453125 L 17.085938 4.546875 L 4.324219 17.128906 C 3.933594 17.515625 3.300781 17.515625 2.910156 17.128906 C 2.546875 16.773438 2.519531 16.214844 2.824219 15.828125 L 2.910156 15.734375 Z M 15.671875 3.152344 "/>
</clipPath>
</defs>
<g clip-path="url(#clip-0)">
<rect x="-2" y="-2" width="24" height="24" fill="rgb(100%, 59.2%, 22.3%)" fill-opacity="1"/>
</g>
<g clip-path="url(#clip-1)">
<g clip-path="url(#clip-2)">
<path fill-rule="nonzero" fill="rgb(100%, 59.2%, 22.3%)" fill-opacity="1" d="M 1.519531 1.769531 L 18.472656 1.769531 L 18.472656 18.515625 L 1.519531 18.515625 Z M 1.519531 1.769531 "/>
</g>
</g>
</svg>
