<?xml version="1.0" encoding="UTF-8" standalone="no"?>
<!DOCTYPE svg PUBLIC "-//W3C//DTD SVG 1.1//EN" "http://www.w3.org/Graphics/SVG/1.1/DTD/svg11.dtd">
<svg width="100%" height="100%" viewBox="0 0 25 30" version="1.1" xmlns="http://www.w3.org/2000/svg" xmlns:xlink="http://www.w3.org/1999/xlink" xml:space="preserve" xmlns:serif="http://www.serif.com/" style="fill-rule:evenodd;clip-rule:evenodd;stroke-linejoin:round;stroke-miterlimit:2;">
    <g transform="matrix(0.491803,0,0,0.491803,0,0)">
        <path d="M25.805,57.023L3.795,57.023C3.38,57.023 3.041,56.681 3.041,56.262L3.041,3.802C3.041,3.383 3.38,3.041 3.795,3.041L25.805,3.041C26.645,3.041 27.326,2.36 27.326,1.521C27.326,0.681 26.645,0 25.805,0L3.795,0C1.702,0 0,1.705 0,3.802L0,56.262C0,58.359 1.702,60.064 3.795,60.064L25.805,60.064C26.645,60.064 27.326,59.383 27.326,58.543C27.326,57.704 26.645,57.023 25.805,57.023ZM48.555,28.957L35.517,15.919C34.923,15.325 33.96,15.325 33.367,15.919C32.773,16.513 32.773,17.476 33.367,18.069L43.809,28.511L14.16,28.511C13.32,28.511 12.639,29.193 12.639,30.032C12.639,30.871 13.32,31.553 14.16,31.553L43.809,31.553L33.367,41.994C32.773,42.588 32.773,43.55 33.367,44.144C33.664,44.441 34.052,44.59 34.442,44.59C34.831,44.59 35.219,44.441 35.517,44.144L48.554,31.107C48.84,30.822 49,30.435 49,30.032C49,29.629 48.84,29.242 48.555,28.957Z" style="fill:rgb(165,165,156);"/>
    </g>
    <g transform="matrix(0.491803,0,0,0.491803,0,0)">
        <path d="M25.805,57.023L3.795,57.023C3.38,57.023 3.041,56.681 3.041,56.262L3.041,3.802C3.041,3.383 3.38,3.041 3.795,3.041L25.805,3.041C26.645,3.041 27.326,2.36 27.326,1.521C27.326,0.681 26.645,0 25.805,0L3.795,0C1.702,0 0,1.705 0,3.802L0,56.262C0,58.359 1.702,60.064 3.795,60.064L25.805,60.064C26.645,60.064 27.326,59.383 27.326,58.543C27.326,57.704 26.645,57.023 25.805,57.023Z" style="fill:rgb(165,165,156);"/>
    </g>
</svg>
