<?xml version="1.0" encoding="UTF-8"?>
<svg xmlns="http://www.w3.org/2000/svg" xmlns:xlink="http://www.w3.org/1999/xlink" width="20" height="20" viewBox="0 0 20 20">
<defs>
<clipPath id="clip-0">
<path clip-rule="evenodd" d="M 5.074219 0.0234375 L 4.851562 0.00390625 L 4.613281 0 L 4.386719 0.0117188 C 3.335938 0.09375 2.328125 0.648438 1.332031 1.648438 C 0.171875 2.8125 -0.277344 4.617188 0.171875 6.261719 L 0.199219 6.410156 C 0.203125 6.441406 0.210938 6.472656 0.21875 6.507812 L 0.3125 6.871094 L 0.398438 7.164062 C 0.582031 7.769531 0.832031 8.429688 1.160156 9.128906 C 2.050781 11.03125 3.375 12.953125 5.210938 14.789062 C 7.046875 16.625 8.96875 17.949219 10.871094 18.839844 C 11.566406 19.167969 12.226562 19.417969 12.828125 19.601562 C 13.035156 19.664062 13.222656 19.714844 13.386719 19.753906 L 13.6875 19.824219 C 13.734375 19.832031 13.777344 19.839844 13.816406 19.847656 C 14.144531 19.941406 14.582031 20 15.027344 20 C 16.292969 20 17.503906 19.519531 18.351562 18.667969 C 19.488281 17.535156 20.054688 16.378906 19.996094 15.164062 C 19.929688 13.796875 19.1875 12.789062 17.820312 11.664062 C 16.964844 10.960938 16.136719 10.601562 15.25 10.601562 C 14.507812 10.601562 13.78125 10.859375 13.042969 11.359375 L 12.789062 11.539062 L 12.59375 11.699219 L 12.167969 12.070312 L 12.136719 12.050781 C 12.078125 12.015625 12.011719 11.972656 11.933594 11.925781 C 11.363281 11.554688 10.660156 10.980469 9.824219 10.15625 C 9.019531 9.335938 8.445312 8.636719 8.074219 8.066406 L 7.992188 7.933594 L 7.929688 7.832031 L 8.171875 7.554688 L 8.355469 7.339844 C 8.410156 7.277344 8.453125 7.21875 8.492188 7.167969 C 9.746094 5.460938 9.695312 3.828125 8.335938 2.179688 L 8.140625 1.945312 C 7.15625 0.804688 6.246094 0.152344 5.074219 0.0234375 Z M 4.484375 2.011719 L 4.609375 2 L 4.773438 2.003906 C 5.382812 2.035156 5.996094 2.484375 6.792969 3.453125 C 7.570312 4.394531 7.589844 5.015625 6.878906 5.984375 L 6.710938 6.1875 L 6.328125 6.621094 C 6.289062 6.664062 6.25 6.707031 6.210938 6.746094 L 6.117188 6.867188 C 5.90625 7.167969 5.792969 7.582031 5.835938 7.941406 L 5.875 8.125 C 6.042969 8.71875 6.699219 9.710938 7.765625 10.890625 L 8.1875 11.339844 C 8.261719 11.414062 8.335938 11.492188 8.410156 11.570312 C 9.347656 12.496094 10.15625 13.15625 10.84375 13.601562 L 11.011719 13.707031 C 11.386719 13.9375 11.675781 14.074219 11.867188 14.128906 L 11.871094 14.117188 L 12.015625 14.160156 L 12.078125 14.175781 C 12.089844 14.175781 12.101562 14.175781 12.109375 14.175781 L 12.203125 14.175781 C 12.566406 14.175781 12.976562 14.039062 13.238281 13.800781 L 13.535156 13.53125 L 13.84375 13.261719 L 14.003906 13.128906 C 14.503906 12.757812 14.90625 12.601562 15.25 12.601562 C 15.621094 12.601562 16.023438 12.777344 16.546875 13.207031 C 17.515625 14.003906 17.96875 14.617188 18 15.261719 C 18.027344 15.839844 17.707031 16.484375 16.9375 17.253906 C 16.46875 17.722656 15.773438 18 15.027344 18 C 14.761719 18 14.5 17.964844 14.25 17.898438 C 13.632812 17.785156 12.777344 17.527344 11.71875 17.03125 C 10.023438 16.234375 8.292969 15.042969 6.628906 13.375 C 4.960938 11.707031 3.765625 9.980469 2.96875 8.28125 C 2.472656 7.21875 2.214844 6.371094 2.121094 5.828125 C 1.839844 4.773438 2.101562 3.707031 2.746094 3.0625 C 3.410156 2.398438 3.976562 2.070312 4.484375 2.011719 Z M 4.484375 2.011719 "/>
</clipPath>
</defs>
<g clip-path="url(#clip-0)">
<rect x="-2" y="-2" width="24" height="24" fill="rgb(100%, 59.2%, 22.3%)" fill-opacity="1"/>
</g>
</svg>
