<?xml version="1.0" encoding="UTF-8"?>
<svg xmlns="http://www.w3.org/2000/svg" xmlns:xlink="http://www.w3.org/1999/xlink" width="10" height="10" viewBox="0 0 10 10">
<defs>
<clipPath id="clip-0">
<path clip-rule="nonzero" d="M 2 0 L 8 0 L 8 6 L 2 6 Z M 2 0 "/>
</clipPath>
<clipPath id="clip-1">
<path clip-rule="evenodd" d="M 5 0.5 C 6.324219 0.5 7.398438 1.574219 7.398438 2.898438 C 7.398438 4.226562 6.324219 5.300781 5 5.300781 C 3.675781 5.300781 2.601562 4.226562 2.601562 2.898438 C 2.601562 1.574219 3.675781 0.5 5 0.5 Z M 5 1.5 C 4.226562 1.5 3.601562 2.125 3.601562 2.898438 C 3.601562 3.671875 4.226562 4.300781 5 4.300781 C 5.773438 4.300781 6.398438 3.671875 6.398438 2.898438 C 6.398438 2.125 5.773438 1.5 5 1.5 Z M 5 1.5 "/>
</clipPath>
<clipPath id="clip-2">
<path clip-rule="nonzero" d="M 1 5 L 9 5 L 9 10 L 1 10 Z M 1 5 "/>
</clipPath>
<clipPath id="clip-3">
<path clip-rule="evenodd" d="M 5 5.601562 C 6.710938 5.601562 8.191406 6.632812 8.878906 8.121094 C 9.28125 8.996094 8.636719 10 7.695312 10 L 2.304688 10 C 1.363281 10 0.71875 8.996094 1.121094 8.121094 C 1.808594 6.632812 3.285156 5.601562 5 5.601562 Z M 5 6.601562 C 3.722656 6.601562 2.574219 7.363281 2.03125 8.539062 C 1.941406 8.734375 2.074219 8.96875 2.265625 8.996094 L 2.304688 9 L 7.695312 9 C 7.90625 9 8.066406 8.75 7.96875 8.539062 C 7.425781 7.363281 6.277344 6.601562 5 6.601562 Z M 5 6.601562 "/>
</clipPath>
</defs>
<g clip-path="url(#clip-0)">
<g clip-path="url(#clip-1)">
<path fill-rule="nonzero" fill="rgb(43.920898%, 43.920898%, 43.920898%)" fill-opacity="1" d="M 1.601562 -0.5 L 8.398438 -0.5 L 8.398438 6.300781 L 1.601562 6.300781 Z M 1.601562 -0.5 "/>
</g>
</g>
<g clip-path="url(#clip-2)">
<g clip-path="url(#clip-3)">
<path fill-rule="nonzero" fill="rgb(43.920898%, 43.920898%, 43.920898%)" fill-opacity="1" d="M -0.28125 4.601562 L 10.28125 4.601562 L 10.28125 11 L -0.28125 11 Z M -0.28125 4.601562 "/>
</g>
</g>
</svg>
