<?xml version="1.0" encoding="UTF-8"?>
<svg xmlns="http://www.w3.org/2000/svg" xmlns:xlink="http://www.w3.org/1999/xlink" width="22" height="26" viewBox="0 0 22 26">
<defs>
<clipPath id="clip-0">
<path clip-rule="nonzero" d="M 17.792969 0 C 15.484375 0 13.589844 1.953125 13.589844 4.332031 C 13.589844 4.796875 13.660156 5.25 13.789062 5.667969 L 6.84375 9.644531 C 6.121094 9.039062 5.203125 8.667969 4.207031 8.667969 C 1.894531 8.667969 0 10.617188 0 13 C 0 15.382812 1.894531 17.332031 4.207031 17.332031 C 5.203125 17.332031 6.121094 16.96875 6.84375 16.363281 L 13.800781 20.34375 C 13.667969 20.761719 13.589844 21.203125 13.589844 21.667969 C 13.589844 24.046875 15.484375 26 17.792969 26 C 20.105469 26 22 24.046875 22 21.667969 C 22 19.285156 20.105469 17.332031 17.792969 17.332031 C 16.632812 17.332031 15.574219 17.832031 14.8125 18.625 L 8.046875 14.75 C 8.277344 14.214844 8.410156 13.621094 8.410156 13 C 8.410156 12.375 8.28125 11.789062 8.046875 11.25 L 14.800781 7.375 C 15.566406 8.171875 16.628906 8.667969 17.792969 8.667969 C 20.105469 8.667969 22 6.714844 22 4.332031 C 22 1.953125 20.105469 0 17.792969 0 Z M 17.792969 2 C 19.054688 2 20.058594 3.03125 20.058594 4.332031 C 20.058594 5.632812 19.054688 6.667969 17.792969 6.667969 C 16.53125 6.667969 15.53125 5.632812 15.53125 4.332031 C 15.53125 3.03125 16.53125 2 17.792969 2 Z M 4.207031 10.667969 C 5.46875 10.667969 6.472656 11.699219 6.472656 13 C 6.472656 14.300781 5.46875 15.332031 4.207031 15.332031 C 2.945312 15.332031 1.941406 14.300781 1.941406 13 C 1.941406 11.699219 2.945312 10.667969 4.207031 10.667969 Z M 17.792969 19.332031 C 19.054688 19.332031 20.058594 20.367188 20.058594 21.667969 C 20.058594 22.96875 19.054688 24 17.792969 24 C 16.53125 24 15.53125 22.96875 15.53125 21.667969 C 15.53125 20.367188 16.53125 19.332031 17.792969 19.332031 Z M 17.792969 19.332031 "/>
</clipPath>
</defs>
<g clip-path="url(#clip-0)">
<rect x="-2.2" y="-2.6" width="26.4" height="31.2" fill="rgb(96.078491%, 37.254333%, 14.117432%)" fill-opacity="1"/>
</g>
</svg>
