<svg width="56" height="56" viewBox="0 0 56 56" fill="none" xmlns="http://www.w3.org/2000/svg">
<path fill-rule="evenodd" clip-rule="evenodd" d="M34.5147 25.3084C34.9762 32.3181 29.6853 38.1686 23.0294 38.3158H14.5355C14.496 38.3157 14.4575 38.3031 14.4251 38.2797C14.3928 38.2563 14.3682 38.2231 14.3547 38.1848C14.3412 38.1464 14.3395 38.1047 14.3497 38.0653C14.3599 38.0259 14.3816 37.9907 14.4119 37.9645L15.9299 36.6482C15.9736 36.6106 16.0084 36.5633 16.0317 36.5098C16.055 36.4562 16.0661 36.3979 16.0642 36.3392C16.0624 36.2806 16.0475 36.2231 16.0209 36.1713C15.9943 36.1195 15.9565 36.0746 15.9105 36.0401C15.6973 35.8826 15.4893 35.7176 15.2871 35.5453C12.6692 33.3134 11 29.9404 11 26.1601C11 19.1849 16.6838 13.5823 23.5279 14.0245C29.361 14.4005 34.1177 19.2837 34.5147 25.3084Z" fill="#F3C8B3"/>
<path fill-rule="evenodd" clip-rule="evenodd" d="M34.3301 41.1763H41.3249C41.4728 41.1763 41.5401 40.9857 41.4268 40.8874L40.1768 39.8036C40.1408 39.7726 40.1121 39.7335 40.0929 39.6894C40.0738 39.6452 40.0646 39.5971 40.0662 39.5488C40.0677 39.5004 40.08 39.4531 40.102 39.4103C40.1239 39.3676 40.1551 39.3306 40.193 39.3022C40.368 39.1727 40.5395 39.0366 40.7059 38.895C42.8623 37.0573 44.2365 34.2788 44.2365 31.1658C44.2365 25.4216 39.556 20.8078 33.92 21.1712C29.1155 21.4815 25.1988 25.5036 24.8717 30.4646C24.4914 36.2372 28.8489 41.0551 34.3301 41.1763Z" fill="#FF9739"/>
<path fill-rule="evenodd" clip-rule="evenodd" d="M35.2347 31.164C35.2371 31.2594 35.2209 31.3543 35.1872 31.4432C35.1535 31.5321 35.1028 31.6131 35.0383 31.6815C34.9738 31.7498 34.8967 31.8041 34.8115 31.8412C34.7264 31.8783 34.6349 31.8974 34.5425 31.8974C34.45 31.8974 34.3585 31.8783 34.2734 31.8412C34.1882 31.8041 34.1111 31.7498 34.0466 31.6815C33.9821 31.6131 33.9315 31.5321 33.8977 31.4432C33.864 31.3543 33.8478 31.2594 33.8502 31.164C33.8502 30.9743 33.9232 30.7923 34.053 30.6582C34.1829 30.5241 34.359 30.4487 34.5427 30.4487C34.7263 30.4487 34.9025 30.5241 35.0323 30.6582C35.1622 30.7923 35.2347 30.9743 35.2347 31.164ZM32.4652 31.164C32.4652 31.3537 32.3923 31.5356 32.2624 31.6697C32.1325 31.8038 31.9564 31.8792 31.7727 31.8792C31.5891 31.8792 31.4129 31.8038 31.2831 31.6697C31.1532 31.5356 31.0803 31.3537 31.0803 31.164C31.0803 30.9743 31.1532 30.7923 31.2831 30.6582C31.4129 30.5241 31.5891 30.4487 31.7727 30.4487C31.9564 30.4487 32.1325 30.5241 32.2624 30.6582C32.3923 30.7923 32.4652 30.9743 32.4652 31.164ZM38.0046 31.164C38.0046 31.3537 37.9317 31.5356 37.8018 31.6697C37.672 31.8038 37.4958 31.8792 37.3122 31.8792C37.1285 31.8792 36.9524 31.8038 36.8225 31.6697C36.6926 31.5356 36.6197 31.3537 36.6197 31.164C36.6197 30.9743 36.6926 30.7923 36.8225 30.6582C36.9524 30.5241 37.1285 30.4487 37.3122 30.4487C37.4958 30.4487 37.672 30.5241 37.8018 30.6582C37.9317 30.7923 38.0046 30.9743 38.0046 31.164Z" fill="white"/>
<path fill-rule="evenodd" clip-rule="evenodd" d="M22.7713 26.1576C22.7713 26.3473 22.6983 26.5292 22.5685 26.6634C22.4386 26.7975 22.2625 26.8728 22.0788 26.8728C21.8952 26.8728 21.719 26.7975 21.5892 26.6634C21.4593 26.5292 21.3863 26.3473 21.3863 26.1576C21.3863 25.9679 21.4593 25.786 21.5892 25.6519C21.719 25.5177 21.8952 25.4424 22.0788 25.4424C22.2625 25.4424 22.4386 25.5177 22.5685 25.6519C22.6983 25.786 22.7713 25.9679 22.7713 26.1576ZM20.0014 26.1576C20.0014 26.2515 19.9834 26.3445 19.9486 26.4313C19.9138 26.5181 19.8628 26.5969 19.7985 26.6634C19.7342 26.7298 19.6579 26.7825 19.5739 26.8184C19.4899 26.8543 19.3998 26.8728 19.3089 26.8728C19.2179 26.8728 19.1279 26.8543 19.0439 26.8184C18.9599 26.7825 18.8835 26.7298 18.8192 26.6634C18.7549 26.5969 18.7039 26.5181 18.6691 26.4313C18.6343 26.3445 18.6164 26.2515 18.6164 26.1576C18.6164 25.9679 18.6894 25.786 18.8192 25.6519C18.9491 25.5177 19.1252 25.4424 19.3089 25.4424C19.4925 25.4424 19.6687 25.5177 19.7985 25.6519C19.9284 25.786 20.0014 25.9679 20.0014 26.1576ZM25.5412 26.1576C25.5412 26.3473 25.4683 26.5292 25.3384 26.6634C25.2085 26.7975 25.0324 26.8728 24.8487 26.8728C24.6651 26.8728 24.489 26.7975 24.3591 26.6634C24.2292 26.5292 24.1563 26.3473 24.1563 26.1576C24.1563 25.9679 24.2292 25.786 24.3591 25.6519C24.489 25.5177 24.6651 25.4424 24.8487 25.4424C25.0324 25.4424 25.2085 25.5177 25.3384 25.6519C25.4683 25.786 25.5412 25.9679 25.5412 26.1576Z" fill="#653825"/>
</svg>
