<svg width="56" height="56" viewBox="0 0 56 56" fill="none" xmlns="http://www.w3.org/2000/svg">
<mask id="mask0_217_1186" style="mask-type:luminance" maskUnits="userSpaceOnUse" x="13" y="13" width="30" height="30">
<path d="M28.0003 42.7777C19.8388 42.7777 13.2225 36.1615 13.2225 27.9999C13.2225 19.8384 19.8388 13.2222 28.0003 13.2222C36.1618 13.2222 42.7781 19.8384 42.7781 27.9999C42.7781 36.1615 36.1618 42.7777 28.0003 42.7777Z" fill="white"/>
</mask>
<g mask="url(#mask0_217_1186)">
<path d="M28.0003 42.7777C19.8388 42.7777 13.2225 36.1615 13.2225 27.9999C13.2225 19.8384 19.8388 13.2222 28.0003 13.2222C36.1618 13.2222 42.7781 19.8384 42.7781 27.9999C42.7781 36.1615 36.1618 42.7777 28.0003 42.7777Z" fill="#FF9739"/>
<path d="M38.3373 17.4409C38.3373 17.4409 22.1513 20.9829 16.9394 37.7947" stroke="#653825" stroke-width="0.661731" stroke-miterlimit="10" stroke-linecap="round"/>
<path d="M39.9677 36.6699C39.9677 36.6699 33.2127 43.897 19.8485 33.19C19.8485 33.19 13.8408 27.8432 14.5746 21.822" stroke="#653825" stroke-width="0.661731" stroke-miterlimit="10" stroke-linecap="round"/>
<path d="M42.6576 26.0928C42.6576 26.0928 38.0958 30.6464 28.4706 31.4126C28.4706 31.4126 23.6094 31.8712 21.7399 34.6201C21.7399 34.6201 19.4415 37.922 23.0645 40.7465C23.0645 40.7465 24.6642 42.0144 26.504 42.7023" stroke="#653825" stroke-width="0.661731" stroke-miterlimit="10" stroke-linecap="round"/>
<path d="M22.3768 16.7935C22.3768 16.7935 20.7312 17.4085 18.7052 25.3316C18.7052 25.3316 16.5147 33.6646 13.4961 30.8186" stroke="#653825" stroke-width="0.661731" stroke-miterlimit="10" stroke-linecap="round"/>
</g>
</svg>
