<svg width="18" height="19" viewBox="0 0 18 19" fill="none" xmlns="http://www.w3.org/2000/svg">
<path fill-rule="evenodd" clip-rule="evenodd" d="M17.0997 8.54644H7.93789C7.68176 7.80997 7.1512 7.21719 6.4704 6.90731C5.78981 6.59741 5.01896 6.59741 4.33816 6.90731C3.65757 7.21722 3.12699 7.80997 2.87088 8.54644H0.89997C0.578347 8.54644 0.281245 8.72821 0.120533 9.02322C-0.0401778 9.31823 -0.0401778 9.68178 0.120533 9.97678C0.281245 10.2718 0.578358 10.4536 0.89997 10.4536H2.86183C3.11797 11.19 3.64852 11.7828 4.32932 12.0927C5.00991 12.4026 5.78076 12.4026 6.46156 12.0927C7.14215 11.7828 7.67273 11.19 7.92884 10.4536H17.0994C17.421 10.4536 17.7181 10.2718 17.8788 9.97678C18.0396 9.68177 18.0396 9.31822 17.8788 9.02322C17.7181 8.72822 17.421 8.54644 17.0994 8.54644H17.0997ZM5.39994 10.4536C5.16128 10.4536 4.93227 10.3531 4.76352 10.1743C4.59478 9.99551 4.49996 9.75286 4.49996 9.5C4.49996 9.24714 4.59478 9.00449 4.76352 8.8257C4.93227 8.64691 5.16128 8.54644 5.39994 8.54644C5.63859 8.54644 5.86761 8.64691 6.03636 8.8257C6.2051 9.00449 6.29992 9.24714 6.29992 9.5C6.29992 9.75286 6.2051 9.99551 6.03636 10.1743C5.86761 10.3531 5.63859 10.4536 5.39994 10.4536ZM17.0997 15.2213H13.3379C13.0818 14.4849 12.5512 13.8921 11.8704 13.5822C11.1898 13.2723 10.419 13.2723 9.73817 13.5822C9.05757 13.8921 8.52699 14.4849 8.27088 15.2213H0.900279C0.578656 15.2213 0.281553 15.4031 0.120842 15.6981C-0.0398693 15.9931 -0.0398693 16.3567 0.120842 16.6517C0.281553 16.9467 0.578666 17.1284 0.900279 17.1284H8.26214C8.51828 17.8649 9.04883 18.4577 9.72963 18.7676C10.4102 19.0775 11.1811 19.0775 11.8619 18.7676C12.5425 18.4577 13.073 17.8649 13.3292 17.1284H17.1C17.4217 17.1284 17.7188 16.9467 17.8795 16.6517C18.0402 16.3567 18.0402 15.9931 17.8795 15.6981C17.7188 15.4031 17.4216 15.2213 17.1 15.2213H17.0997ZM10.7998 17.1284C10.5612 17.1284 10.3322 17.028 10.1634 16.8492C9.99468 16.6704 9.89985 16.4277 9.89985 16.1749C9.89985 15.922 9.99468 15.6794 10.1634 15.5006C10.3322 15.3218 10.5612 15.2213 10.7998 15.2213C11.0385 15.2213 11.2675 15.3218 11.4363 15.5006C11.605 15.6794 11.6998 15.922 11.6998 16.1749C11.6998 16.4277 11.605 16.6704 11.4363 16.8492C11.2675 17.028 11.0385 17.1284 10.7998 17.1284ZM0.900062 3.77867H10.9619C11.218 4.51514 11.7486 5.10793 12.4294 5.41781C13.11 5.72771 13.8808 5.72771 14.5616 5.41781C15.2422 5.1079 15.7728 4.51514 16.0289 3.77867H17.0998C17.4214 3.77867 17.7185 3.5969 17.8792 3.30189C18.04 3.00689 18.04 2.64334 17.8792 2.34834C17.7185 2.05334 17.4214 1.87156 17.0998 1.87156H16.0379C15.7818 1.13509 15.2512 0.542307 14.5704 0.232429C13.8899 -0.0774763 13.119 -0.0774763 12.4382 0.232429C11.7576 0.542334 11.227 1.13509 10.9709 1.87156H0.90037C0.578747 1.87156 0.281645 2.05333 0.120933 2.34834C-0.0397778 2.64335 -0.0397778 3.00689 0.120933 3.30189C0.281645 3.5969 0.578758 3.77867 0.90037 3.77867H0.900062ZM13.4998 1.87156C13.7384 1.87156 13.9675 1.97203 14.1362 2.15082C14.3049 2.32961 14.3998 2.57226 14.3998 2.82512C14.3998 3.07798 14.3049 3.32063 14.1362 3.49942C13.9675 3.67821 13.7384 3.77867 13.4998 3.77867C13.2611 3.77867 13.0321 3.67821 12.8634 3.49942C12.6946 3.32063 12.5998 3.07798 12.5998 2.82512C12.5998 2.57226 12.6946 2.32961 12.8634 2.15082C13.0321 1.97203 13.2611 1.87156 13.4998 1.87156Z" fill="#FF9739"/>
</svg>
