<svg width="20" height="20" viewBox="0 0 20 20" fill="none" xmlns="http://www.w3.org/2000/svg">
<path fill-rule="evenodd" clip-rule="evenodd" d="M2.20919 7.24208C2.34012 3.29097 5.65435 0.128742 9.75119 0.00383329L10.003 0C14.2999 0 17.8008 3.33972 17.8008 7.48495L17.7969 7.545L17.7977 11.0406C17.7977 12.1464 18.2976 13.1996 19.2141 13.9719L19.4029 14.1225L19.5306 14.2366C20.5593 15.2681 19.7987 17 18.3402 17H1.66059C0.0924182 17 -0.622165 15.0361 0.63098 14.0942L0.81194 13.9512C1.69741 13.2124 2.20312 12.1514 2.20312 11.0406V7.47415L2.20919 7.24208ZM15.7964 7.27027C15.6802 4.42111 13.2618 2.11497 10.2314 2.00417L10.003 2C6.7907 2 4.20517 4.46628 4.20517 7.48495L4.20292 7.52L4.20312 11.0406C4.20312 12.4799 3.65503 13.8571 2.67185 14.9318L2.60492 15H17.3899L17.369 14.9792C16.4257 13.9713 15.8661 12.6721 15.8036 11.2989L15.7977 11.0406V7.47415L15.7989 7.433L15.7964 7.27027Z" fill="#FF9739"/>
<path d="M13 15C13.5523 15 14 15.4477 14 16C14 18.2092 12.2091 20 10.0005 20C7.79114 20 6 18.2094 6 16C6 15.4477 6.44772 15 7 15C7.55228 15 8 15.4477 8 16C8 17.1047 8.89558 18 10.0005 18C11.0543 18 11.9182 17.1841 11.9945 16.1493L12 16C12 15.4477 12.4477 15 13 15Z" fill="#FF9739"/>
</svg>
