<?xml version="1.0" encoding="UTF-8"?>
<svg xmlns="http://www.w3.org/2000/svg" xmlns:xlink="http://www.w3.org/1999/xlink" width="25" height="25" viewBox="0 0 25 25">
<path fill-rule="evenodd" fill="rgb(100%, 59.2%, 22.3%)" fill-opacity="1" d="M 21.519531 8.796875 C 21.519531 11.226562 19.546875 13.195312 17.117188 13.195312 C 14.691406 13.195312 12.71875 11.226562 12.71875 8.796875 C 12.71875 6.371094 14.691406 4.398438 17.117188 4.398438 C 19.546875 4.398438 21.519531 6.371094 21.519531 8.796875 Z M 21.519531 8.796875 "/>
<path fill-rule="evenodd" fill="rgb(100%, 59.2%, 22.3%)" fill-opacity="1" d="M 22.054688 22.726562 L 12.179688 22.726562 C 10.457031 22.726562 9.273438 20.886719 10.011719 19.285156 C 11.269531 16.554688 13.976562 14.664062 17.117188 14.664062 C 20.257812 14.664062 22.96875 16.554688 24.226562 19.285156 C 24.964844 20.886719 23.78125 22.726562 22.054688 22.726562 Z M 22.054688 22.726562 "/>
<path fill-rule="evenodd" fill="rgb(100%, 59.2%, 22.3%)" fill-opacity="1" d="M 7.589844 10.265625 C 5.160156 10.265625 3.1875 8.292969 3.1875 5.863281 C 3.1875 3.4375 5.160156 1.464844 7.589844 1.464844 C 10.015625 1.464844 11.988281 3.4375 11.988281 5.863281 C 11.988281 8.292969 10.015625 10.265625 7.589844 10.265625 Z M 7.589844 10.265625 "/>
<path fill-rule="evenodd" fill="rgb(100%, 59.2%, 22.3%)" fill-opacity="1" d="M 2.652344 19.792969 C 0.925781 19.792969 -0.257812 17.953125 0.480469 16.355469 C 1.738281 13.621094 4.445312 11.730469 7.585938 11.730469 C 10.726562 11.730469 13.4375 13.621094 14.695312 16.351562 C 15.433594 17.953125 14.25 19.792969 12.523438 19.792969 Z M 2.652344 19.792969 "/>
</svg>
