<?xml version="1.0" encoding="UTF-8"?>
<svg xmlns="http://www.w3.org/2000/svg" xmlns:xlink="http://www.w3.org/1999/xlink" width="309" height="116" viewBox="0 0 309 116">
<defs>
<clipPath id="clip-0">
<path clip-rule="nonzero" d="M 256 43 L 294 43 L 294 55 L 256 55 Z M 256 43 "/>
</clipPath>
<clipPath id="clip-1">
<path clip-rule="evenodd" d="M 256.761719 50.96875 C 256.738281 50.921875 256.71875 50.875 256.695312 50.828125 C 255.96875 49.328125 255.96875 47.605469 256.867188 46.25 C 258.640625 43.566406 262.355469 43.703125 265.582031 43.972656 C 268.3125 44.203125 271.042969 44.433594 273.773438 44.664062 C 279.28125 45.128906 284.8125 45.59375 290.234375 46.71875 C 291.582031 46.996094 292.976562 47.335938 293.523438 49.082031 C 293.835938 50.074219 293.695312 51.15625 293.082031 51.992188 C 291.929688 53.5625 289.695312 54.195312 287.558594 54.238281 C 285.503906 54.277344 283.453125 53.855469 281.398438 53.660156 C 278.347656 53.371094 275.289062 53.585938 272.253906 53.800781 C 268.628906 54.058594 266.871094 55.199219 262.101562 54.554688 C 259.78125 54.242188 257.714844 52.886719 256.761719 50.96875 "/>
</clipPath>
<clipPath id="clip-2">
<path clip-rule="nonzero" d="M 257 47 L 300 47 L 300 60 L 257 60 Z M 257 47 "/>
</clipPath>
<clipPath id="clip-3">
<path clip-rule="evenodd" d="M 282.945312 58.800781 C 281.820312 59.394531 280.589844 59.640625 279.363281 59.605469 C 273.398438 59.425781 267.265625 59.1875 261.375 58.320312 C 260.375 58.171875 259.304688 57.972656 258.582031 57.128906 C 257.765625 56.167969 257.644531 54.566406 258.074219 53.292969 C 258.5 52.019531 259.390625 51.042969 260.363281 50.324219 C 263.058594 48.324219 266.363281 48.042969 269.523438 47.875 C 276.066406 47.527344 282.621094 47.425781 289.167969 47.570312 C 292.148438 47.636719 295.152344 47.757812 298.03125 48.753906 C 298.851562 49.035156 299.566406 49.734375 299.835938 50.707031 C 300.164062 51.894531 299.605469 52.636719 298.988281 53.183594 C 295.980469 55.835938 291.730469 54.597656 288.15625 55.882812 C 286.324219 56.542969 284.714844 57.855469 282.964844 58.789062 C 282.957031 58.792969 282.953125 58.796875 282.945312 58.800781 "/>
</clipPath>
<clipPath id="clip-4">
<path clip-rule="nonzero" d="M 220 42 L 260 42 L 260 59 L 220 59 Z M 220 42 "/>
</clipPath>
<clipPath id="clip-5">
<path clip-rule="evenodd" d="M 237.628906 57.628906 C 237.191406 57.511719 236.761719 57.351562 236.332031 57.207031 C 232.589844 55.972656 227.339844 56.359375 223.28125 53.375 C 221.808594 52.292969 220.296875 50.632812 220.378906 48.511719 C 220.421875 47.328125 220.988281 46.242188 221.722656 45.488281 C 223.207031 43.96875 225.253906 43.695312 227.171875 43.519531 C 235.71875 42.742188 244.316406 42.707031 252.851562 43.640625 C 254.847656 43.859375 256.921875 44.164062 258.472656 45.921875 C 259.230469 46.785156 259.734375 47.984375 259.726562 49.265625 C 259.699219 52.066406 257.519531 53.464844 255.609375 54.472656 C 253.808594 55.425781 252.007812 56.378906 250.132812 57.0625 C 246.089844 58.546875 241.75 58.738281 237.628906 57.628906 "/>
</clipPath>
<clipPath id="clip-6">
<path clip-rule="nonzero" d="M 22 40 L 100 40 L 100 69 L 22 69 Z M 22 40 "/>
</clipPath>
<clipPath id="clip-7">
<path clip-rule="evenodd" d="M 99.742188 68.410156 L 22.148438 68.410156 L 22.148438 45.191406 C 22.148438 42.511719 24.316406 40.339844 26.996094 40.339844 L 94.894531 40.339844 C 97.570312 40.339844 99.742188 42.511719 99.742188 45.191406 Z M 99.742188 68.410156 "/>
</clipPath>
<clipPath id="clip-8">
<path clip-rule="nonzero" d="M 1.234375 1.234375 L 307.957031 1.234375 L 307.957031 113.902344 L 1.234375 113.902344 Z M 1.234375 1.234375 "/>
</clipPath>
<clipPath id="clip-9">
<path clip-rule="nonzero" d="M 13.660156 50.886719 L 84.339844 50.886719 L 84.339844 112.902344 L 13.660156 112.902344 Z M 13.660156 50.886719 "/>
</clipPath>
<clipPath id="clip-10">
<path clip-rule="nonzero" d="M 0.234375 50 L 85 50 L 85 73 L 0.234375 73 Z M 0.234375 50 "/>
</clipPath>
<clipPath id="clip-11">
<path clip-rule="evenodd" d="M 0.234375 72.25 L 70.910156 72.25 L 84.339844 50.886719 L 13.660156 50.886719 Z M 0.234375 72.25 "/>
</clipPath>
<clipPath id="clip-12">
<path clip-rule="nonzero" d="M 84.335938 50.886719 L 119.898438 50.886719 L 119.898438 112.902344 L 84.335938 112.902344 Z M 84.335938 50.886719 "/>
</clipPath>
<clipPath id="clip-13">
<path clip-rule="nonzero" d="M 192.953125 50.886719 L 263.628906 50.886719 L 263.628906 112.902344 L 192.953125 112.902344 Z M 192.953125 50.886719 "/>
</clipPath>
<clipPath id="clip-14">
<path clip-rule="nonzero" d="M 263.628906 50.886719 L 299.1875 50.886719 L 299.1875 112.902344 L 263.628906 112.902344 Z M 263.628906 50.886719 "/>
</clipPath>
<clipPath id="clip-15">
<path clip-rule="nonzero" d="M 84 50 L 169 50 L 169 73 L 84 73 Z M 84 50 "/>
</clipPath>
<clipPath id="clip-16">
<path clip-rule="evenodd" d="M 168.441406 72.25 L 97.765625 72.25 L 84.335938 50.886719 L 155.015625 50.886719 Z M 168.441406 72.25 "/>
</clipPath>
<clipPath id="clip-17">
<path clip-rule="nonzero" d="M 108.265625 23.421875 L 233.699219 23.421875 L 233.699219 112.902344 L 108.265625 112.902344 Z M 108.265625 23.421875 "/>
</clipPath>
<clipPath id="clip-18">
<path clip-rule="nonzero" d="M 181.828125 23.421875 L 233.699219 23.421875 L 233.699219 112.902344 L 181.828125 112.902344 Z M 181.828125 23.421875 "/>
</clipPath>
<clipPath id="clip-19">
<path clip-rule="nonzero" d="M 95 0.234375 L 182 0.234375 L 182 24 L 95 24 Z M 95 0.234375 "/>
</clipPath>
<clipPath id="clip-20">
<path clip-rule="evenodd" d="M 95.207031 0.234375 L 168.769531 0.234375 L 181.828125 23.421875 L 108.261719 23.421875 Z M 95.207031 0.234375 "/>
</clipPath>
<clipPath id="clip-21">
<path clip-rule="nonzero" d="M 233 23 L 247 23 L 247 44 L 233 44 Z M 233 23 "/>
</clipPath>
<clipPath id="clip-22">
<path clip-rule="evenodd" d="M 233.699219 23.421875 L 246.070312 43.839844 L 233.699219 43.839844 Z M 233.699219 23.421875 "/>
</clipPath>
<clipPath id="clip-23">
<path clip-rule="nonzero" d="M 263 50 L 306.957031 50 L 306.957031 65 L 263 65 Z M 263 50 "/>
</clipPath>
<clipPath id="clip-24">
<path clip-rule="evenodd" d="M 306.957031 64.722656 L 271.398438 64.722656 L 263.628906 50.886719 L 299.1875 50.886719 Z M 306.957031 64.722656 "/>
</clipPath>
<clipPath id="clip-25">
<path clip-rule="nonzero" d="M 130 48 L 162 48 L 162 81 L 130 81 Z M 130 48 "/>
</clipPath>
<clipPath id="clip-26">
<path clip-rule="evenodd" d="M 157.113281 75.632812 L 143.1875 80.179688 C 139.75 81.300781 136.058594 79.425781 134.9375 75.988281 L 130.390625 62.058594 C 129.269531 58.625 131.144531 54.933594 134.578125 53.8125 L 148.507812 49.265625 C 151.941406 48.144531 155.636719 50.019531 156.757812 53.453125 L 161.304688 67.382812 C 162.425781 70.816406 160.550781 74.511719 157.113281 75.632812 "/>
</clipPath>
<clipPath id="clip-27">
<path clip-rule="nonzero" d="M 139 58 L 152 58 L 152 71 L 139 71 Z M 139 58 "/>
</clipPath>
<clipPath id="clip-28">
<path clip-rule="evenodd" d="M 149.28125 58.625 C 149.28125 58.625 146.269531 57.011719 144.378906 60.226562 C 140.957031 58.746094 139.480469 61.824219 139.480469 61.824219 C 139.480469 61.824219 137.863281 64.839844 140.867188 67.8125 C 142.757812 69.683594 144.980469 70.238281 146.367188 70.390625 C 147.246094 70.488281 148.117188 70.203125 148.773438 69.609375 C 149.800781 68.664062 151.265625 66.90625 151.691406 64.277344 C 152.363281 60.105469 149.28125 58.625 149.28125 58.625 "/>
</clipPath>
<clipPath id="clip-29">
<rect x="0" y="0" width="307" height="113"/>
</clipPath>
<g id="source-5" clip-path="url(#clip-29)">
<g clip-path="url(#clip-9)">
<path fill-rule="nonzero" fill="rgb(95.294189%, 78.431702%, 70.196533%)" fill-opacity="1" d="M 12.660156 49.886719 L 85.339844 49.886719 L 85.339844 113.902344 L 12.660156 113.902344 Z M 12.660156 49.886719 "/>
</g>
<g clip-path="url(#clip-10)">
<g clip-path="url(#clip-11)">
<path fill-rule="nonzero" fill="rgb(88.627625%, 40.783691%, 21.960449%)" fill-opacity="1" d="M -0.765625 49.886719 L 85.339844 49.886719 L 85.339844 73.25 L -0.765625 73.25 Z M -0.765625 49.886719 "/>
</g>
</g>
<path fill="none" stroke-width="0.5" stroke-linecap="round" stroke-linejoin="round" stroke="rgb(9.803772%, 20.783997%, 34.509277%)" stroke-opacity="1" stroke-miterlimit="10" d="M -0.0009475 4.001341 C 11.749052 1.434935 23.936552 4.243529 35.963896 4.204466 C 45.405302 4.173216 54.756865 2.380248 63.893584 0.00134125 " transform="matrix(1, 0, 0, 1, 27.07126, 43.26819)"/>
<g clip-path="url(#clip-12)">
<path fill-rule="nonzero" fill="rgb(98.039246%, 90.98053%, 86.274719%)" fill-opacity="1" d="M 83.335938 49.886719 L 120.898438 49.886719 L 120.898438 113.902344 L 83.335938 113.902344 Z M 83.335938 49.886719 "/>
</g>
<g clip-path="url(#clip-13)">
<path fill-rule="nonzero" fill="rgb(95.294189%, 78.431702%, 70.196533%)" fill-opacity="1" d="M 191.953125 49.886719 L 264.628906 49.886719 L 264.628906 113.902344 L 191.953125 113.902344 Z M 191.953125 49.886719 "/>
</g>
<g clip-path="url(#clip-14)">
<path fill-rule="nonzero" fill="rgb(98.039246%, 90.98053%, 86.274719%)" fill-opacity="1" d="M 262.628906 49.886719 L 300.1875 49.886719 L 300.1875 113.902344 L 262.628906 113.902344 Z M 262.628906 49.886719 "/>
</g>
<g clip-path="url(#clip-15)">
<g clip-path="url(#clip-16)">
<path fill-rule="nonzero" fill="rgb(88.627625%, 40.783691%, 21.960449%)" fill-opacity="1" d="M 83.335938 49.886719 L 169.441406 49.886719 L 169.441406 73.25 L 83.335938 73.25 Z M 83.335938 49.886719 "/>
</g>
</g>
<g clip-path="url(#clip-17)">
<path fill-rule="nonzero" fill="rgb(95.294189%, 78.431702%, 70.196533%)" fill-opacity="1" d="M 107.265625 22.421875 L 234.699219 22.421875 L 234.699219 113.902344 L 107.265625 113.902344 Z M 107.265625 22.421875 "/>
</g>
<g clip-path="url(#clip-18)">
<path fill-rule="nonzero" fill="rgb(88.627625%, 40.783691%, 21.960449%)" fill-opacity="1" d="M 180.828125 22.421875 L 234.699219 22.421875 L 234.699219 113.902344 L 180.828125 113.902344 Z M 180.828125 22.421875 "/>
</g>
<g clip-path="url(#clip-19)">
<g clip-path="url(#clip-20)">
<path fill-rule="nonzero" fill="rgb(98.039246%, 90.98053%, 86.274719%)" fill-opacity="1" d="M 94.207031 -0.765625 L 182.828125 -0.765625 L 182.828125 24.421875 L 94.207031 24.421875 Z M 94.207031 -0.765625 "/>
</g>
</g>
<g clip-path="url(#clip-21)">
<g clip-path="url(#clip-22)">
<path fill-rule="nonzero" fill="rgb(95.294189%, 78.431702%, 70.196533%)" fill-opacity="1" d="M 232.699219 22.421875 L 247.070312 22.421875 L 247.070312 44.839844 L 232.699219 44.839844 Z M 232.699219 22.421875 "/>
</g>
</g>
<g clip-path="url(#clip-23)">
<g clip-path="url(#clip-24)">
<path fill-rule="nonzero" fill="rgb(95.294189%, 78.431702%, 70.196533%)" fill-opacity="1" d="M 262.628906 49.886719 L 307.957031 49.886719 L 307.957031 65.722656 L 262.628906 65.722656 Z M 262.628906 49.886719 "/>
</g>
</g>
<g clip-path="url(#clip-25)">
<g clip-path="url(#clip-26)">
<path fill-rule="nonzero" fill="rgb(100%, 98.039246%, 97.254944%)" fill-opacity="1" d="M 128.269531 47.144531 L 163.425781 47.144531 L 163.425781 82.300781 L 128.269531 82.300781 Z M 128.269531 47.144531 "/>
</g>
</g>
<g clip-path="url(#clip-27)">
<g clip-path="url(#clip-28)">
<path fill-rule="nonzero" fill="rgb(93.725586%, 37.254333%, 14.117432%)" fill-opacity="1" d="M 136.863281 56.011719 L 153.363281 56.011719 L 153.363281 71.488281 L 136.863281 71.488281 Z M 136.863281 56.011719 "/>
</g>
</g>
</g>
</defs>
<g clip-path="url(#clip-0)">
<g clip-path="url(#clip-1)">
<path fill-rule="nonzero" fill="rgb(96.078491%, 76.470947%, 37.646484%)" fill-opacity="1" d="M 254.96875 42.566406 L 294.835938 42.566406 L 294.835938 56.199219 L 254.96875 56.199219 Z M 254.96875 42.566406 "/>
</g>
</g>
<g clip-path="url(#clip-2)">
<g clip-path="url(#clip-3)">
<path fill-rule="nonzero" fill="rgb(88.627625%, 40.783691%, 21.960449%)" fill-opacity="1" d="M 256.644531 46.425781 L 301.164062 46.425781 L 301.164062 60.640625 L 256.644531 60.640625 Z M 256.644531 46.425781 "/>
</g>
</g>
<g clip-path="url(#clip-4)">
<g clip-path="url(#clip-5)">
<path fill-rule="nonzero" fill="rgb(79.216003%, 91.372681%, 87.843323%)" fill-opacity="1" d="M 219.296875 41.707031 L 260.734375 41.707031 L 260.734375 59.738281 L 219.296875 59.738281 Z M 219.296875 41.707031 "/>
</g>
</g>
<g clip-path="url(#clip-6)">
<g clip-path="url(#clip-7)">
<path fill-rule="nonzero" fill="rgb(20.391846%, 42.352295%, 69.020081%)" fill-opacity="1" d="M 21.148438 39.339844 L 100.742188 39.339844 L 100.742188 69.410156 L 21.148438 69.410156 Z M 21.148438 39.339844 "/>
</g>
</g>
<g clip-path="url(#clip-8)">
<use xlink:href="#source-5" transform="matrix(1, 0, 0, 1, 1, 1)"/>
</g>
</svg>
