<?xml version="1.0" encoding="UTF-8"?>
<svg xmlns="http://www.w3.org/2000/svg" xmlns:xlink="http://www.w3.org/1999/xlink" width="10" height="10" viewBox="0 0 10 10">
<defs>
<clipPath id="clip-0">
<path clip-rule="evenodd" d="M 7 0.0078125 C 7.257812 0.0078125 7.46875 0.203125 7.496094 0.449219 L 7.5 0.507812 L 7.5 1 L 8.5 1 C 9.328125 1 10 1.753906 10 2.6875 L 10 8.3125 C 10 9.246094 9.328125 10 8.5 10 L 1.5 10 C 0.671875 10 0 9.246094 0 8.3125 L 0 2.6875 C 0 1.753906 0.671875 1 1.5 1 L 2.5 1 L 2.5 0.507812 C 2.5 0.234375 2.722656 0.0078125 3 0.0078125 C 3.257812 0.0078125 3.46875 0.203125 3.496094 0.449219 L 3.5 0.507812 L 3.5 1 L 6.5 1 L 6.5 0.507812 C 6.5 0.234375 6.722656 0.0078125 7 0.0078125 Z M 9 5.007812 L 1 5.007812 L 1 8.417969 C 1 8.714844 1.191406 8.960938 1.441406 8.996094 L 1.5 9 L 8.5 9 C 8.757812 9 8.96875 8.773438 8.996094 8.484375 L 9 8.417969 Z M 2.5 2 L 1.5 2 C 1.242188 2 1.03125 2.226562 1.003906 2.515625 L 1 2.582031 L 1 4.007812 L 9 4.007812 L 9 2.582031 C 9 2.285156 8.808594 2.039062 8.558594 2.003906 L 8.5 2 L 7.5 2 L 7.5 2.507812 C 7.5 2.785156 7.277344 3.007812 7 3.007812 C 6.742188 3.007812 6.53125 2.816406 6.503906 2.566406 L 6.5 2.507812 L 6.5 2 L 3.5 2 L 3.5 2.507812 C 3.5 2.785156 3.277344 3.007812 3 3.007812 C 2.742188 3.007812 2.53125 2.816406 2.503906 2.566406 L 2.5 2.507812 Z M 2.5 2 "/>
</clipPath>
</defs>
<g clip-path="url(#clip-0)">
<rect x="-1" y="-1" width="12" height="12" fill="rgb(43.920898%, 43.920898%, 43.920898%)" fill-opacity="1"/>
</g>
</svg>
