<?xml version="1.0" encoding="UTF-8"?>
<svg xmlns="http://www.w3.org/2000/svg" xmlns:xlink="http://www.w3.org/1999/xlink" width="14" height="14" viewBox="0 0 14 14">
<defs>
<clipPath id="clip-0">
<path clip-rule="evenodd" d="M 8.558594 0 C 11.554688 0 14 2.445312 14 5.441406 L 14 8.558594 C 14 11.554688 11.554688 14 8.558594 14 L 5.441406 14 C 2.449219 14 0 11.550781 0 8.558594 L 0 5.441406 C 0 2.449219 2.449219 0 5.441406 0 Z M 8.550781 1.398438 L 5.449219 1.398438 C 3.222656 1.398438 1.398438 3.222656 1.398438 5.449219 L 1.398438 8.550781 C 1.398438 10.777344 3.222656 12.601562 5.449219 12.601562 L 8.550781 12.601562 C 10.777344 12.601562 12.601562 10.777344 12.601562 8.550781 L 12.601562 5.449219 C 12.601562 3.222656 10.777344 1.398438 8.550781 1.398438 Z M 9.089844 3.5 C 9.285156 3.5 9.441406 3.566406 9.554688 3.695312 C 9.664062 3.824219 9.703125 3.984375 9.664062 4.171875 L 9.492188 5.070312 L 9.890625 5.070312 C 10.0625 5.070312 10.207031 5.121094 10.324219 5.226562 C 10.441406 5.328125 10.5 5.457031 10.5 5.609375 C 10.5 5.757812 10.441406 5.875 10.324219 5.96875 C 10.207031 6.0625 10.0625 6.109375 9.890625 6.109375 L 9.292969 6.109375 L 8.957031 7.851562 L 9.484375 7.851562 C 9.660156 7.851562 9.804688 7.902344 9.917969 8.003906 C 10.035156 8.109375 10.09375 8.238281 10.09375 8.390625 C 10.09375 8.535156 10.035156 8.65625 9.917969 8.75 C 9.804688 8.84375 9.660156 8.890625 9.484375 8.890625 L 8.753906 8.890625 L 8.527344 10.070312 C 8.503906 10.195312 8.441406 10.300781 8.339844 10.378906 C 8.238281 10.460938 8.113281 10.5 7.964844 10.5 C 7.761719 10.5 7.601562 10.433594 7.492188 10.304688 C 7.378906 10.175781 7.339844 10.015625 7.378906 9.828125 L 7.558594 8.890625 L 5.710938 8.890625 L 5.484375 10.070312 C 5.460938 10.195312 5.398438 10.300781 5.292969 10.378906 C 5.1875 10.460938 5.058594 10.5 4.910156 10.5 C 4.714844 10.5 4.5625 10.433594 4.453125 10.304688 C 4.34375 10.175781 4.304688 10.015625 4.335938 9.828125 L 4.515625 8.890625 L 4.109375 8.890625 C 3.9375 8.890625 3.792969 8.839844 3.675781 8.734375 C 3.558594 8.632812 3.5 8.503906 3.5 8.351562 C 3.5 8.203125 3.558594 8.082031 3.675781 7.988281 C 3.792969 7.898438 3.9375 7.851562 4.109375 7.851562 L 4.714844 7.851562 L 5.050781 6.109375 L 4.527344 6.109375 C 4.351562 6.109375 4.207031 6.058594 4.089844 5.953125 C 3.976562 5.851562 3.917969 5.722656 3.917969 5.570312 C 3.917969 5.421875 3.976562 5.304688 4.089844 5.210938 C 4.207031 5.117188 4.351562 5.070312 4.527344 5.070312 L 5.253906 5.070312 L 5.472656 3.929688 C 5.496094 3.796875 5.558594 3.691406 5.664062 3.613281 C 5.769531 3.539062 5.894531 3.5 6.035156 3.5 C 6.238281 3.5 6.398438 3.566406 6.507812 3.695312 C 6.621094 3.824219 6.660156 3.984375 6.621094 4.171875 L 6.449219 5.070312 L 8.296875 5.070312 L 8.515625 3.929688 C 8.539062 3.796875 8.601562 3.691406 8.707031 3.613281 C 8.8125 3.539062 8.941406 3.5 9.089844 3.5 Z M 8.09375 6.109375 L 6.246094 6.109375 L 5.914062 7.851562 L 7.757812 7.851562 Z M 8.09375 6.109375 "/>
</clipPath>
</defs>
<g clip-path="url(#clip-0)">
<rect x="-1.4" y="-1.4" width="16.8" height="16.8" fill="rgb(100%, 100%, 100%)" fill-opacity="1"/>
</g>
</svg>
