<?xml version="1.0" encoding="UTF-8"?>
<svg xmlns="http://www.w3.org/2000/svg" xmlns:xlink="http://www.w3.org/1999/xlink" width="34" height="34" viewBox="0 0 34 34">
<defs>
<clipPath id="clip-0">
<path clip-rule="nonzero" d="M 3 19 L 31 19 L 31 24 L 3 24 Z M 3 19 "/>
</clipPath>
<clipPath id="clip-1">
<path clip-rule="nonzero" d="M 28.898438 19.667969 C 29.839844 19.667969 30.601562 20.429688 30.601562 21.367188 C 30.601562 22.238281 29.945312 22.957031 29.097656 23.054688 L 28.898438 23.066406 L 5.101562 23.066406 C 4.160156 23.066406 3.398438 22.304688 3.398438 21.367188 C 3.398438 20.496094 4.054688 19.777344 4.902344 19.679688 L 5.101562 19.667969 Z M 28.898438 19.667969 "/>
</clipPath>
<clipPath id="clip-2">
<path clip-rule="nonzero" d="M 14 1 L 20 1 L 20 18 L 14 18 Z M 14 1 "/>
</clipPath>
<clipPath id="clip-3">
<path clip-rule="nonzero" d="M 16.46875 1.832031 C 17.273438 1.496094 18.1875 1.824219 18.605469 2.566406 L 18.691406 2.746094 L 19.261719 4.113281 C 20.167969 6.273438 19.800781 8.757812 18.3125 10.566406 C 17.601562 11.433594 17.449219 12.621094 17.90625 13.628906 L 18.035156 13.878906 L 18.597656 14.863281 C 19.066406 15.679688 18.78125 16.71875 17.96875 17.183594 C 17.210938 17.617188 16.261719 17.402344 15.757812 16.71875 L 15.648438 16.550781 L 15.085938 15.566406 C 13.839844 13.394531 13.996094 10.707031 15.457031 8.703125 L 15.6875 8.40625 C 16.316406 7.640625 16.511719 6.613281 16.21875 5.675781 L 16.125 5.421875 L 15.554688 4.054688 C 15.191406 3.1875 15.601562 2.191406 16.46875 1.832031 Z M 16.46875 1.832031 "/>
</clipPath>
<clipPath id="clip-4">
<path clip-rule="nonzero" d="M 20 1 L 26 1 L 26 18 L 20 18 Z M 20 1 "/>
</clipPath>
<clipPath id="clip-5">
<path clip-rule="nonzero" d="M 22.484375 1.832031 C 23.289062 1.496094 24.203125 1.824219 24.621094 2.566406 L 24.707031 2.746094 L 25.277344 4.113281 C 26.183594 6.273438 25.816406 8.757812 24.328125 10.566406 C 23.613281 11.433594 23.464844 12.621094 23.921875 13.628906 L 24.050781 13.878906 L 24.613281 14.863281 C 25.078125 15.679688 24.796875 16.71875 23.984375 17.183594 C 23.226562 17.617188 22.277344 17.402344 21.769531 16.71875 L 21.664062 16.550781 L 21.097656 15.566406 C 19.855469 13.394531 20.011719 10.707031 21.472656 8.703125 L 21.699219 8.40625 C 22.332031 7.640625 22.527344 6.613281 22.234375 5.675781 L 22.140625 5.421875 L 21.570312 4.054688 C 21.207031 3.1875 21.617188 2.191406 22.484375 1.832031 Z M 22.484375 1.832031 "/>
</clipPath>
<clipPath id="clip-6">
<path clip-rule="nonzero" d="M 8 1 L 14 1 L 14 18 L 8 18 Z M 8 1 "/>
</clipPath>
<clipPath id="clip-7">
<path clip-rule="nonzero" d="M 10.363281 1.832031 C 11.167969 1.496094 12.085938 1.824219 12.5 2.566406 L 12.585938 2.746094 L 13.15625 4.113281 C 14.0625 6.273438 13.695312 8.757812 12.207031 10.566406 C 11.496094 11.433594 11.347656 12.621094 11.800781 13.628906 L 11.929688 13.878906 L 12.492188 14.863281 C 12.960938 15.679688 12.679688 16.71875 11.863281 17.183594 C 11.105469 17.617188 10.15625 17.402344 9.652344 16.71875 L 9.542969 16.550781 L 8.980469 15.566406 C 7.734375 13.394531 7.894531 10.707031 9.351562 8.703125 L 9.582031 8.40625 C 10.210938 7.640625 10.40625 6.613281 10.113281 5.675781 L 10.019531 5.421875 L 9.449219 4.054688 C 9.089844 3.1875 9.496094 2.191406 10.363281 1.832031 Z M 10.363281 1.832031 "/>
</clipPath>
<clipPath id="clip-8">
<path clip-rule="nonzero" d="M 6 19 L 29 19 L 29 34 L 6 34 Z M 6 19 "/>
</clipPath>
<clipPath id="clip-9">
<path clip-rule="nonzero" d="M 26.425781 19.757812 L 7.726562 19.757812 C 6.789062 19.757812 6.027344 20.515625 6.027344 21.457031 L 6.027344 26.554688 C 6.027344 30.359375 9.386719 33.355469 13.441406 33.355469 L 20.714844 33.355469 C 24.765625 33.355469 28.128906 30.359375 28.128906 26.554688 L 28.128906 21.457031 C 28.128906 20.515625 27.367188 19.757812 26.425781 19.757812 Z M 9.425781 23.15625 L 24.726562 23.15625 L 24.726562 26.554688 C 24.726562 28.386719 22.96875 29.957031 20.714844 29.957031 L 13.441406 29.957031 L 13.148438 29.949219 C 11.035156 29.820312 9.425781 28.308594 9.425781 26.554688 Z M 9.425781 23.15625 "/>
</clipPath>
</defs>
<g clip-path="url(#clip-0)">
<g clip-path="url(#clip-1)">
<path fill-rule="nonzero" fill="rgb(100%, 59.2%, 22.3%)" fill-opacity="1" d="M 2.398438 18.667969 L 31.601562 18.667969 L 31.601562 24.066406 L 2.398438 24.066406 Z M 2.398438 18.667969 "/>
</g>
</g>
<g clip-path="url(#clip-2)">
<g clip-path="url(#clip-3)">
<path fill-rule="nonzero" fill="rgb(100%, 59.2%, 22.3%)" fill-opacity="1" d="M 12.839844 0.496094 L 21.167969 0.496094 L 21.167969 18.617188 L 12.839844 18.617188 Z M 12.839844 0.496094 "/>
</g>
</g>
<g clip-path="url(#clip-4)">
<g clip-path="url(#clip-5)">
<path fill-rule="nonzero" fill="rgb(100%, 59.2%, 22.3%)" fill-opacity="1" d="M 18.855469 0.496094 L 27.183594 0.496094 L 27.183594 18.617188 L 18.855469 18.617188 Z M 18.855469 0.496094 "/>
</g>
</g>
<g clip-path="url(#clip-6)">
<g clip-path="url(#clip-7)">
<path fill-rule="nonzero" fill="rgb(100%, 59.2%, 22.3%)" fill-opacity="1" d="M 6.734375 0.496094 L 15.0625 0.496094 L 15.0625 18.617188 L 6.734375 18.617188 Z M 6.734375 0.496094 "/>
</g>
</g>
<g clip-path="url(#clip-8)">
<g clip-path="url(#clip-9)">
<path fill-rule="nonzero" fill="rgb(100%, 59.2%, 22.3%)" fill-opacity="1" d="M 5.027344 18.757812 L 29.128906 18.757812 L 29.128906 34.355469 L 5.027344 34.355469 Z M 5.027344 18.757812 "/>
</g>
</g>
</svg>
