<?xml version="1.0" encoding="UTF-8"?>
<svg xmlns="http://www.w3.org/2000/svg" xmlns:xlink="http://www.w3.org/1999/xlink" width="56" height="56" viewBox="0 0 56 56">
<path fill-rule="evenodd" fill="rgb(95.298767%, 78.399658%, 70.199585%)" fill-opacity="1" d="M 34.515625 25.308594 C 34.976562 32.316406 29.683594 38.167969 23.03125 38.316406 L 14.535156 38.316406 C 14.496094 38.316406 14.457031 38.304688 14.425781 38.28125 C 14.394531 38.257812 14.367188 38.222656 14.355469 38.183594 C 14.339844 38.144531 14.339844 38.105469 14.351562 38.066406 C 14.359375 38.027344 14.382812 37.992188 14.410156 37.964844 L 15.929688 36.648438 C 15.972656 36.609375 16.007812 36.5625 16.03125 36.507812 C 16.054688 36.457031 16.066406 36.398438 16.0625 36.339844 C 16.0625 36.28125 16.046875 36.222656 16.019531 36.171875 C 15.996094 36.121094 15.957031 36.074219 15.910156 36.039062 C 15.699219 35.882812 15.488281 35.71875 15.285156 35.546875 C 12.667969 33.3125 11 29.941406 11 26.160156 C 11 19.183594 16.683594 13.582031 23.527344 14.023438 C 29.359375 14.402344 34.117188 19.285156 34.515625 25.308594 Z M 34.515625 25.308594 "/>
<path fill-rule="evenodd" fill="rgb(96.099854%, 37.298584%, 14.099121%)" fill-opacity="1" d="M 34.332031 41.175781 L 41.324219 41.175781 C 41.472656 41.175781 41.539062 40.984375 41.425781 40.886719 L 40.175781 39.804688 C 40.140625 39.773438 40.113281 39.734375 40.09375 39.6875 C 40.074219 39.644531 40.066406 39.597656 40.066406 39.546875 C 40.066406 39.5 40.078125 39.453125 40.101562 39.410156 C 40.125 39.367188 40.15625 39.332031 40.191406 39.300781 C 40.367188 39.171875 40.539062 39.035156 40.707031 38.894531 C 42.863281 37.058594 44.238281 34.277344 44.238281 31.164062 C 44.238281 25.421875 39.554688 20.808594 33.921875 21.171875 C 29.117188 21.480469 25.199219 25.503906 24.871094 30.464844 C 24.492188 36.238281 28.847656 41.054688 34.332031 41.175781 Z M 34.332031 41.175781 "/>
<path fill-rule="evenodd" fill="rgb(100%, 100%, 100%)" fill-opacity="1" d="M 35.234375 31.164062 C 35.238281 31.257812 35.222656 31.355469 35.1875 31.441406 C 35.152344 31.53125 35.101562 31.613281 35.039062 31.679688 C 34.972656 31.75 34.898438 31.804688 34.8125 31.839844 C 34.726562 31.878906 34.636719 31.898438 34.542969 31.898438 C 34.449219 31.898438 34.359375 31.878906 34.273438 31.839844 C 34.1875 31.804688 34.109375 31.75 34.046875 31.679688 C 33.980469 31.613281 33.929688 31.53125 33.898438 31.441406 C 33.863281 31.355469 33.847656 31.257812 33.851562 31.164062 C 33.851562 30.972656 33.921875 30.792969 34.054688 30.660156 C 34.183594 30.523438 34.359375 30.449219 34.542969 30.449219 C 34.726562 30.449219 34.902344 30.523438 35.03125 30.660156 C 35.164062 30.792969 35.234375 30.972656 35.234375 31.164062 Z M 32.464844 31.164062 C 32.464844 31.355469 32.390625 31.535156 32.261719 31.667969 C 32.132812 31.804688 31.957031 31.878906 31.773438 31.878906 C 31.589844 31.878906 31.414062 31.804688 31.28125 31.667969 C 31.152344 31.535156 31.082031 31.355469 31.082031 31.164062 C 31.082031 30.972656 31.152344 30.792969 31.28125 30.660156 C 31.414062 30.523438 31.589844 30.449219 31.773438 30.449219 C 31.957031 30.449219 32.132812 30.523438 32.261719 30.660156 C 32.390625 30.792969 32.464844 30.972656 32.464844 31.164062 Z M 38.003906 31.164062 C 38.003906 31.355469 37.933594 31.535156 37.800781 31.667969 C 37.671875 31.804688 37.496094 31.878906 37.3125 31.878906 C 37.128906 31.878906 36.953125 31.804688 36.824219 31.667969 C 36.691406 31.535156 36.621094 31.355469 36.621094 31.164062 C 36.621094 30.972656 36.691406 30.792969 36.824219 30.660156 C 36.953125 30.523438 37.128906 30.449219 37.3125 30.449219 C 37.496094 30.449219 37.671875 30.523438 37.800781 30.660156 C 37.933594 30.792969 38.003906 30.972656 38.003906 31.164062 Z M 38.003906 31.164062 "/>
<path fill-rule="evenodd" fill="rgb(39.607239%, 21.960449%, 14.509583%)" fill-opacity="1" d="M 22.769531 26.15625 C 22.769531 26.347656 22.699219 26.527344 22.570312 26.664062 C 22.4375 26.796875 22.261719 26.871094 22.078125 26.871094 C 21.894531 26.871094 21.71875 26.796875 21.589844 26.664062 C 21.460938 26.527344 21.386719 26.347656 21.386719 26.15625 C 21.386719 25.96875 21.460938 25.785156 21.589844 25.652344 C 21.71875 25.519531 21.894531 25.441406 22.078125 25.441406 C 22.261719 25.441406 22.4375 25.519531 22.570312 25.652344 C 22.699219 25.785156 22.769531 25.96875 22.769531 26.15625 Z M 20 26.15625 C 20 26.25 19.984375 26.34375 19.949219 26.429688 C 19.914062 26.519531 19.863281 26.597656 19.796875 26.664062 C 19.734375 26.730469 19.65625 26.78125 19.574219 26.820312 C 19.488281 26.855469 19.398438 26.871094 19.308594 26.871094 C 19.21875 26.871094 19.128906 26.855469 19.042969 26.820312 C 18.960938 26.78125 18.882812 26.730469 18.820312 26.664062 C 18.753906 26.597656 18.703125 26.519531 18.667969 26.429688 C 18.632812 26.34375 18.617188 26.25 18.617188 26.15625 C 18.617188 25.96875 18.6875 25.785156 18.820312 25.652344 C 18.949219 25.519531 19.125 25.441406 19.308594 25.441406 C 19.492188 25.441406 19.667969 25.519531 19.796875 25.652344 C 19.929688 25.785156 20 25.96875 20 26.15625 Z M 25.542969 26.15625 C 25.542969 26.347656 25.46875 26.527344 25.339844 26.664062 C 25.207031 26.796875 25.03125 26.871094 24.847656 26.871094 C 24.664062 26.871094 24.488281 26.796875 24.359375 26.664062 C 24.230469 26.527344 24.15625 26.347656 24.15625 26.15625 C 24.15625 25.96875 24.230469 25.785156 24.359375 25.652344 C 24.488281 25.519531 24.664062 25.441406 24.847656 25.441406 C 25.03125 25.441406 25.207031 25.519531 25.339844 25.652344 C 25.46875 25.785156 25.542969 25.96875 25.542969 26.15625 Z M 25.542969 26.15625 "/>
</svg>
