<?xml version="1.0" encoding="UTF-8"?>
<svg xmlns="http://www.w3.org/2000/svg" xmlns:xlink="http://www.w3.org/1999/xlink" width="23" height="24" viewBox="0 0 23 24">
<defs>
<clipPath id="clip-0">
<path clip-rule="evenodd" d="M 11.5 0.5 C 5.160156 0.5 0 5.660156 0 12 C 0 18.339844 5.160156 23.5 11.5 23.5 C 17.839844 23.5 23 18.339844 23 12 C 23 5.660156 17.839844 0.5 11.5 0.5 Z M 12.320312 17.078125 C 12.320312 17.527344 11.953125 17.898438 11.5 17.898438 C 11.046875 17.898438 10.679688 17.527344 10.679688 17.078125 L 10.679688 16.296875 C 10.679688 15.84375 11.046875 15.476562 11.5 15.476562 C 11.953125 15.476562 12.320312 15.84375 12.320312 16.296875 Z M 12.320312 13.5625 C 12.320312 14.011719 11.953125 14.382812 11.5 14.382812 C 11.046875 14.382812 10.679688 14.011719 10.679688 13.5625 L 10.679688 7.507812 C 10.679688 7.054688 11.046875 6.683594 11.5 6.683594 C 11.953125 6.683594 12.320312 7.054688 12.320312 7.507812 Z M 12.320312 13.5625 "/>
</clipPath>
</defs>
<g clip-path="url(#clip-0)">
<rect x="-2.3" y="-2.4" width="27.6" height="28.8" fill="rgb(100%, 61.177063%, 36.470032%)" fill-opacity="0.5"/>
</g>
</svg>
