<?xml version="1.0" encoding="UTF-8"?>
<svg xmlns="http://www.w3.org/2000/svg" xmlns:xlink="http://www.w3.org/1999/xlink" width="14" height="15" viewBox="0 0 14 15">
<defs>
<clipPath id="clip-0">
<path clip-rule="evenodd" d="M 3.960938 1.03125 C 4.214844 1.285156 4.230469 1.683594 4.015625 1.957031 L 3.960938 2.019531 L 2.679688 3.300781 L 8.398438 3.300781 C 11.492188 3.300781 14 5.808594 14 8.898438 C 14 11.992188 11.492188 14.5 8.398438 14.5 L 1.050781 14.5 C 0.664062 14.5 0.351562 14.1875 0.351562 13.800781 C 0.351562 13.441406 0.621094 13.144531 0.96875 13.105469 L 1.050781 13.101562 L 8.398438 13.101562 C 10.71875 13.101562 12.601562 11.21875 12.601562 8.898438 C 12.601562 6.582031 10.71875 4.699219 8.398438 4.699219 L 2.679688 4.699219 L 3.960938 5.980469 C 4.214844 6.234375 4.230469 6.632812 4.015625 6.910156 L 3.960938 6.96875 C 3.707031 7.222656 3.304688 7.242188 3.03125 7.023438 L 2.96875 6.96875 L 0.496094 4.496094 C 0.242188 4.242188 0.222656 3.839844 0.441406 3.566406 L 0.496094 3.503906 L 2.96875 1.03125 C 3.242188 0.757812 3.6875 0.757812 3.960938 1.03125 Z M 3.960938 1.03125 "/>
</clipPath>
</defs>
<g clip-path="url(#clip-0)">
<rect x="-1.4" y="-1.5" width="16.8" height="18" fill="rgb(96.078491%, 37.254333%, 14.117432%)" fill-opacity="1"/>
</g>
</svg>
