<svg width="20" height="20" viewBox="0 0 20 20" fill="none" xmlns="http://www.w3.org/2000/svg">
<path fill-rule="evenodd" clip-rule="evenodd" d="M2.99956 16.9995C-0.865781 13.1331 -0.865781 6.86615 2.99981 2.99947C6.86626 -0.865893 13.1342 -0.865893 16.9997 2.9996C20.8662 6.86605 20.8662 13.1332 16.9998 16.9995C13.1343 20.8661 6.86616 20.8661 2.99956 16.9995ZM15.2497 15.2496C18.1497 12.3497 18.1497 7.64955 15.2497 4.7496C12.3507 1.85057 7.64953 1.85057 4.74981 4.74947C1.85064 7.64946 1.85064 12.3498 4.74969 15.2496C7.64962 18.1496 12.3506 18.1496 15.2497 15.2496Z" fill="#F45F24"/>
<path fill-rule="evenodd" clip-rule="evenodd" d="M15 10C15 6.12591 13.8985 2.76635 12.2877 1.10575L7.73704 1.08044C6.11279 2.73206 5 6.10613 5 10C5 13.3209 5.80937 16.2637 7.05511 18.0824C7.73888 19.0806 8.55413 19.0407 9.43915 18.9973C9.62327 18.9883 9.8104 18.9792 10 18.9792C10.1835 18.9792 10.3647 18.9872 10.5431 18.9951C11.4451 19.0352 12.2753 19.0722 12.9684 18.0478C14.2008 16.2265 15 13.2999 15 10ZM8.70053 4.04699C9.25249 2.94308 9.77624 2.50002 10 2.50002C10.2238 2.50002 10.7475 2.94308 11.2995 4.04699C12.0478 5.54356 12.5 7.68202 12.5 10C12.5 12.318 12.0478 14.4565 11.2995 15.9531C10.7475 17.057 10.2238 17.5 10 17.5C9.77624 17.5 9.25249 17.057 8.70053 15.9531C7.95225 14.4565 7.5 12.318 7.5 10C7.5 7.68202 7.95225 5.54356 8.70053 4.04699Z" fill="#FF9739"/>
<path d="M18.5 13.6421L17.1029 15.5C15.5269 14.4468 12.8476 13.7773 9.89957 13.7773C7.19431 13.7773 4.7124 14.3406 3.09911 15.2528L2.83838 15.408L1.5 13.5121C3.52976 12.2387 6.59822 11.5 9.89957 11.5C13.159 11.5 16.1891 12.2201 18.2172 13.4613L18.5 13.6421Z" fill="#FF9739"/>
<path d="M1.5 6.35786L2.89707 4.5C4.47313 5.55321 7.15237 6.22269 10.1004 6.22269C12.8057 6.22269 15.2876 5.65944 16.9009 4.74725L17.1616 4.59202L18.5 6.48789C16.4702 7.76126 13.4018 8.5 10.1004 8.5C6.84101 8.5 3.81094 7.77989 1.78283 6.53869L1.5 6.35786Z" fill="#FF9739"/>
</svg>
