<svg width="341" height="340" viewBox="0 0 341 340" fill="none" xmlns="http://www.w3.org/2000/svg">
<g clip-path="url(#clip0_746_4132)">
<rect x="61" y="63" width="230" height="230" rx="115" fill="#FFEADC"/>
<path d="M76 302.638V150.5C76 137.245 86.7452 126.5 100 126.5H252.5C265.755 126.5 276.5 137.245 276.5 150.5V285.375C276.5 297.874 266.906 308.281 254.448 309.296L126.083 319.749C124.036 319.916 122.019 320.344 120.081 321.025L107.95 325.284C92.3418 330.763 76 319.18 76 302.638Z" fill="#FFCDAE"/>
<path d="M87 304.298V153C87 145.268 93.268 139 101 139H251C258.732 139 265 145.268 265 153V285.538C265 292.833 259.399 298.905 252.128 299.493L130.512 309.32C129.326 309.416 128.157 309.662 127.034 310.054L105.606 317.518C96.5067 320.688 87 313.933 87 304.298Z" fill="#FFF5EB"/>
</g>
<rect x="100" y="227" width="146.98" height="47.7449" rx="8" fill="white"/>
<rect x="107.04" y="232.28" width="35.2002" height="35.2002" rx="8" fill="#FFEADC"/>
<path fill-rule="evenodd" clip-rule="evenodd" d="M127.739 241.057C127.739 241.057 123.236 239.334 121.083 244.251C116.026 242.796 114.428 247.444 114.428 247.444C114.428 247.444 112.628 252.024 117.335 255.673C120.297 257.972 123.519 258.34 125.499 258.297C126.753 258.269 127.936 257.7 128.762 256.73C130.064 255.198 131.852 252.427 132.033 248.621C132.318 242.574 127.739 241.057 127.739 241.057Z" fill="#F55F24"/>
<path d="M124.742 243.362C125.571 243.362 127.48 243.611 128.475 244.607" stroke="white" stroke-width="0.66"/>
<path d="M157.107 244.787H234.809" stroke="#653825" stroke-width="1.5" stroke-linecap="round"/>
<path d="M157.107 256.958H234.809" stroke="#653825" stroke-width="1.5" stroke-linecap="round"/>
<rect x="107.04" y="232.28" width="35.2002" height="35.2002" rx="8" fill="#FFEADC"/>
<path fill-rule="evenodd" clip-rule="evenodd" d="M130.383 243.045C130.383 243.045 126.699 239.936 123.047 243.869C118.751 240.83 115.711 244.692 115.711 244.692C115.711 244.692 112.503 248.423 115.746 253.42C117.786 256.565 120.707 257.974 122.59 258.586C123.784 258.973 125.088 258.825 126.188 258.181C127.921 257.163 130.522 255.136 131.946 251.601C134.207 245.986 130.383 243.045 130.383 243.045Z" fill="#FF9C5D"/>
<path d="M126.794 244.235C127.578 244.508 129.298 245.372 129.91 246.64" stroke="white" stroke-width="0.66"/>
<path d="M157.107 244.787H234.809" stroke="#653825" stroke-width="1.5" stroke-linecap="round"/>
<path d="M157.107 256.958H234.809" stroke="#653825" stroke-width="1.5" stroke-linecap="round"/>
<rect x="100" y="173" width="146.98" height="47.7449" rx="8" fill="white"/>
<rect x="107.04" y="178.28" width="35.2002" height="35.2002" rx="8" fill="#FFEADC"/>
<path fill-rule="evenodd" clip-rule="evenodd" d="M132.869 193.742C132.869 193.742 131.322 189.176 126.163 190.656C124.055 185.834 119.457 187.569 119.457 187.569C119.457 187.569 114.782 189.106 114.976 195.059C115.097 198.806 116.869 201.522 118.166 203.019C118.987 203.967 120.18 204.515 121.455 204.531C123.464 204.556 126.739 204.165 129.785 201.875C134.623 198.236 132.869 193.742 132.869 193.742Z" fill="#FF9C5D"/>
<path d="M129.181 192.906C129.711 193.544 130.737 195.172 130.606 196.574" stroke="white" stroke-width="0.66"/>
<path d="M157.107 190.787H234.809" stroke="#653825" stroke-width="1.5" stroke-linecap="round"/>
<path d="M157.107 202.958H234.809" stroke="#653825" stroke-width="1.5" stroke-linecap="round"/>
<rect x="73.8228" y="103.745" width="179.334" height="58.2551" rx="8" fill="#F55F24"/>
<rect x="82.4126" y="110.187" width="42.9488" height="42.9488" rx="8" fill="white"/>
<path fill-rule="evenodd" clip-rule="evenodd" d="M107.667 120.896C107.667 120.896 102.173 118.794 99.5467 124.793C93.3758 123.018 91.4259 128.689 91.4259 128.689C91.4259 128.689 89.2296 134.277 94.9735 138.73C98.5877 141.534 102.518 141.983 104.934 141.931C106.465 141.897 107.908 141.203 108.916 140.019C110.504 138.15 112.686 134.769 112.906 130.125C113.254 122.747 107.667 120.896 107.667 120.896Z" fill="#FF9C5D"/>
<path d="M104.01 123.708C105.023 123.708 107.351 124.012 108.566 125.227" stroke="white" stroke-width="0.66"/>
<path d="M143.5 125.448H238.308" stroke="#653825" stroke-width="1.5" stroke-linecap="round"/>
<path d="M143.5 140.297H238.308" stroke="#653825" stroke-width="1.5" stroke-linecap="round"/>
<defs>
<clipPath id="clip0_746_4132">
<rect x="61" y="63" width="230" height="230" rx="115" fill="white"/>
</clipPath>
</defs>
</svg>
