<?xml version="1.0" encoding="UTF-8"?>
<svg xmlns="http://www.w3.org/2000/svg" xmlns:xlink="http://www.w3.org/1999/xlink" width="392" height="416" viewBox="0 0 392 416">
<defs>
<clipPath id="clip-0">
<path clip-rule="nonzero" d="M 0 0 L 391.574219 0 L 391.574219 404 L 0 404 Z M 0 0 "/>
</clipPath>
<clipPath id="clip-1">
<path clip-rule="evenodd" d="M 0.0742188 283.066406 C 52.316406 310.121094 101.972656 344.363281 156.128906 367.722656 C 229.777344 399.488281 312.246094 410.050781 391.734375 399.324219 L 391.734375 -193.222656 L 0.0742188 -193.222656 Z M 0.0742188 283.066406 "/>
</clipPath>
<clipPath id="clip-2">
<path clip-rule="nonzero" d="M 264 0 L 391.574219 0 L 391.574219 112 L 264 112 Z M 264 0 "/>
</clipPath>
<clipPath id="clip-3">
<path clip-rule="evenodd" d="M 264.972656 44.808594 C 260.535156 13.707031 276.914062 -19.316406 304.398438 -34.691406 C 315.015625 -40.632812 326.925781 -44.050781 338.984375 -45.730469 C 355.703125 -48.054688 373.207031 -47.011719 388.710938 -40.351562 C 404.214844 -33.6875 417.503906 -20.972656 422.617188 -4.933594 C 426.71875 7.929688 425.4375 21.820312 423.71875 35.210938 C 421.996094 48.617188 419.714844 62.429688 412.347656 73.777344 C 402.910156 88.324219 386.53125 96.71875 370.5 103.402344 C 361.519531 107.144531 352.195312 110.082031 342.550781 111.382812 C 339.3125 111.820312 333.769531 111.933594 325.066406 110.203125 C 294.371094 103.074219 269.410156 75.910156 264.972656 44.808594 Z M 264.972656 44.808594 "/>
</clipPath>
<clipPath id="clip-4">
<path clip-rule="nonzero" d="M 0 0 L 298 0 L 298 256 L 0 256 Z M 0 0 "/>
</clipPath>
<clipPath id="clip-5">
<path clip-rule="evenodd" d="M -83.675781 -280.320312 C -175.148438 -231.832031 -232.449219 -127.304688 -227.617188 -24.140625 C -222.78125 79.007812 -157.832031 176.359375 -65.929688 224.035156 C 4.945312 260.808594 93.179688 268.214844 164.925781 233.171875 C 185.066406 223.328125 203.203125 210.382812 219.140625 195.097656 C 275.71875 140.8125 304.464844 57.035156 296.105469 -21.925781 C 285.382812 -123.109375 221.140625 -213.835938 137.539062 -272.246094 C 112.644531 -289.648438 85.414062 -304.769531 55.585938 -310.648438 C -12.253906 -324.011719 -79.28125 -288.140625 -137.671875 -251.214844 Z M -83.675781 -280.320312 "/>
</clipPath>
</defs>
<g clip-path="url(#clip-0)">
<g clip-path="url(#clip-1)">
<path fill-rule="evenodd" fill="rgb(100%, 93.333435%, 89.019775%)" fill-opacity="1" d="M -0.929688 411.050781 L 392.664062 411.050781 L 392.664062 -1.484375 L -0.929688 -1.484375 Z M -0.929688 411.050781 "/>
</g>
</g>
<g clip-path="url(#clip-2)">
<g clip-path="url(#clip-3)">
<path fill-rule="evenodd" fill="rgb(97.647095%, 45.881653%, 18.03894%)" fill-opacity="0.25" d="M 429.195312 12.066406 L 376.921875 155.222656 L 223 99.382812 L 275.273438 -43.773438 Z M 429.195312 12.066406 "/>
</g>
</g>
<g clip-path="url(#clip-4)">
<g clip-path="url(#clip-5)">
<path fill-rule="evenodd" fill="rgb(100%, 67.843628%, 43.920898%)" fill-opacity="1" d="M 409.050781 47.023438 L 250.570312 385.785156 L -104.585938 220.707031 L 53.894531 -118.054688 Z M 409.050781 47.023438 "/>
</g>
</g>
</svg>
