<?xml version="1.0" encoding="UTF-8"?>
<svg xmlns="http://www.w3.org/2000/svg" xmlns:xlink="http://www.w3.org/1999/xlink" width="56" height="40" viewBox="0 0 56 40">
<path fill-rule="evenodd" fill="rgb(100%, 59.2%, 22.3%)" fill-opacity="1" d="M 56.027344 3 C 56.027344 1.34375 54.683594 0 53.027344 0 L 3 0 C 1.34375 0 0 1.34375 0 3 L 0 37 C 0 38.65625 1.34375 40 3 40 L 53.027344 40 C 54.683594 40 56.027344 38.65625 56.027344 37 Z M 56.027344 3 "/>
<path fill-rule="nonzero" fill="rgb(100%, 100%, 100%)" fill-opacity="1" d="M 32.582031 23.550781 L 31.609375 23.550781 L 31.265625 23.21875 C 32.46875 21.816406 33.195312 19.996094 33.195312 18.015625 C 33.195312 13.601562 29.617188 10.023438 25.203125 10.023438 C 20.789062 10.023438 17.207031 13.601562 17.207031 18.015625 C 17.207031 22.433594 20.789062 26.011719 25.203125 26.011719 C 27.183594 26.011719 29.003906 25.285156 30.40625 24.082031 L 30.738281 24.425781 L 30.738281 25.394531 L 36.886719 31.53125 L 38.71875 29.699219 Z M 25.203125 23.550781 C 22.140625 23.550781 19.667969 21.078125 19.667969 18.015625 C 19.667969 14.957031 22.140625 12.484375 25.203125 12.484375 C 28.265625 12.484375 30.738281 14.957031 30.738281 18.015625 C 30.738281 21.078125 28.265625 23.550781 25.203125 23.550781 Z M 25.203125 23.550781 "/>
</svg>
