<?xml version="1.0" encoding="UTF-8"?>
<svg xmlns="http://www.w3.org/2000/svg" xmlns:xlink="http://www.w3.org/1999/xlink" width="34" height="34" viewBox="0 0 34 34">
<defs>
<clipPath id="clip-0">
<path clip-rule="nonzero" d="M 11 0 L 18 0 L 18 12 L 11 12 Z M 11 0 "/>
</clipPath>
<clipPath id="clip-1">
<path clip-rule="nonzero" d="M 13.707031 0.273438 C 14.4375 -0.199219 15.398438 -0.0390625 15.9375 0.617188 L 16.054688 0.777344 L 16.628906 1.65625 C 17.738281 3.371094 17.34375 5.402344 15.785156 6.773438 L 15.554688 6.964844 C 15.132812 7.296875 15.066406 7.507812 15.253906 7.777344 L 15.339844 7.878906 L 15.902344 8.515625 C 16.523438 9.21875 16.460938 10.292969 15.757812 10.917969 C 15.109375 11.492188 14.140625 11.480469 13.507812 10.921875 L 13.355469 10.769531 L 12.792969 10.136719 C 11.234375 8.378906 11.464844 6.039062 13.21875 4.488281 L 13.457031 4.292969 C 13.832031 3.996094 13.914062 3.804688 13.824219 3.597656 L 13.773438 3.507812 L 13.203125 2.625 C 12.691406 1.835938 12.917969 0.78125 13.707031 0.273438 Z M 13.707031 0.273438 "/>
</clipPath>
<clipPath id="clip-2">
<path clip-rule="nonzero" d="M 17 0 L 24 0 L 24 12 L 17 12 Z M 17 0 "/>
</clipPath>
<clipPath id="clip-3">
<path clip-rule="nonzero" d="M 19.71875 0.273438 C 20.453125 -0.199219 21.410156 -0.0390625 21.953125 0.617188 L 22.070312 0.777344 L 22.640625 1.65625 C 23.753906 3.371094 23.359375 5.402344 21.800781 6.773438 L 21.570312 6.964844 C 21.148438 7.296875 21.078125 7.507812 21.269531 7.777344 L 21.351562 7.878906 L 21.917969 8.515625 C 22.539062 9.21875 22.472656 10.292969 21.769531 10.917969 C 21.121094 11.492188 20.15625 11.480469 19.523438 10.921875 L 19.371094 10.769531 L 18.808594 10.136719 C 17.25 8.378906 17.480469 6.039062 19.234375 4.488281 L 19.46875 4.292969 C 19.84375 3.996094 19.929688 3.804688 19.835938 3.597656 L 19.789062 3.507812 L 19.21875 2.625 C 18.707031 1.835938 18.933594 0.78125 19.71875 0.273438 Z M 19.71875 0.273438 "/>
</clipPath>
<clipPath id="clip-4">
<path clip-rule="nonzero" d="M 5 0 L 12 0 L 12 12 L 5 12 Z M 5 0 "/>
</clipPath>
<clipPath id="clip-5">
<path clip-rule="nonzero" d="M 7.601562 0.273438 C 8.332031 -0.199219 9.292969 -0.0390625 9.835938 0.617188 L 9.953125 0.777344 L 10.523438 1.65625 C 11.632812 3.371094 11.238281 5.402344 9.679688 6.773438 L 9.449219 6.964844 C 9.027344 7.296875 8.960938 7.507812 9.148438 7.777344 L 9.234375 7.878906 L 9.796875 8.515625 C 10.417969 9.21875 10.355469 10.292969 9.652344 10.917969 C 9.003906 11.492188 8.035156 11.480469 7.402344 10.921875 L 7.25 10.769531 L 6.6875 10.136719 C 5.128906 8.378906 5.359375 6.039062 7.113281 4.488281 L 7.351562 4.292969 C 7.726562 3.996094 7.808594 3.804688 7.71875 3.597656 L 7.667969 3.507812 L 7.097656 2.625 C 6.585938 1.835938 6.8125 0.78125 7.601562 0.273438 Z M 7.601562 0.273438 "/>
</clipPath>
<clipPath id="clip-6">
<path clip-rule="nonzero" d="M 5 13 L 24 13 L 24 34 L 5 34 Z M 5 13 "/>
</clipPath>
<clipPath id="clip-7">
<path clip-rule="nonzero" d="M 22.121094 13.222656 L 6.800781 13.222656 C 5.859375 13.222656 5.101562 13.984375 5.101562 14.921875 L 5.101562 28.539062 C 5.101562 31.355469 7.382812 33.640625 10.199219 33.640625 L 18.71875 33.640625 C 21.535156 33.640625 23.820312 31.355469 23.820312 28.539062 L 23.820312 14.921875 C 23.820312 13.984375 23.058594 13.222656 22.121094 13.222656 Z M 8.5 16.625 L 20.421875 16.625 L 20.421875 28.539062 C 20.421875 29.480469 19.660156 30.242188 18.71875 30.242188 L 10.199219 30.242188 L 10 30.230469 C 9.15625 30.128906 8.5 29.414062 8.5 28.539062 Z M 8.5 16.625 "/>
</clipPath>
<clipPath id="clip-8">
<path clip-rule="nonzero" d="M 20 15 L 30 15 L 30 31 L 20 31 Z M 20 15 "/>
</clipPath>
<clipPath id="clip-9">
<path clip-rule="nonzero" d="M 22.121094 15.300781 C 26.347656 15.300781 29.773438 18.726562 29.773438 22.953125 C 29.773438 27.179688 26.347656 30.609375 22.121094 30.609375 C 21.179688 30.609375 20.421875 29.847656 20.421875 28.910156 C 20.421875 27.96875 21.179688 27.207031 22.121094 27.207031 C 24.46875 27.207031 26.375 25.304688 26.375 22.953125 C 26.375 20.605469 24.46875 18.699219 22.121094 18.699219 C 21.179688 18.699219 20.421875 17.9375 20.421875 17 C 20.421875 16.0625 21.179688 15.300781 22.121094 15.300781 Z M 22.121094 15.300781 "/>
</clipPath>
</defs>
<g clip-path="url(#clip-0)">
<g clip-path="url(#clip-1)">
<path fill-rule="nonzero" fill="rgb(96.078491%, 37.254333%, 14.117432%)" fill-opacity="1" d="M 10.234375 -1 L 18.738281 -1 L 18.738281 12.492188 L 10.234375 12.492188 Z M 10.234375 -1 "/>
</g>
</g>
<g clip-path="url(#clip-2)">
<g clip-path="url(#clip-3)">
<path fill-rule="nonzero" fill="rgb(96.078491%, 37.254333%, 14.117432%)" fill-opacity="1" d="M 16.25 -1 L 24.753906 -1 L 24.753906 12.492188 L 16.25 12.492188 Z M 16.25 -1 "/>
</g>
</g>
<g clip-path="url(#clip-4)">
<g clip-path="url(#clip-5)">
<path fill-rule="nonzero" fill="rgb(96.078491%, 37.254333%, 14.117432%)" fill-opacity="1" d="M 4.128906 -1 L 12.632812 -1 L 12.632812 12.492188 L 4.128906 12.492188 Z M 4.128906 -1 "/>
</g>
</g>
<g clip-path="url(#clip-6)">
<g clip-path="url(#clip-7)">
<path fill-rule="nonzero" fill="rgb(96.078491%, 37.254333%, 14.117432%)" fill-opacity="1" d="M 4.101562 12.222656 L 24.820312 12.222656 L 24.820312 34.640625 L 4.101562 34.640625 Z M 4.101562 12.222656 "/>
</g>
</g>
<g clip-path="url(#clip-8)">
<g clip-path="url(#clip-9)">
<path fill-rule="nonzero" fill="rgb(96.078491%, 37.254333%, 14.117432%)" fill-opacity="1" d="M 19.421875 14.300781 L 30.773438 14.300781 L 30.773438 31.609375 L 19.421875 31.609375 Z M 19.421875 14.300781 "/>
</g>
</g>
</svg>
