<?xml version="1.0" encoding="UTF-8"?>
<svg xmlns="http://www.w3.org/2000/svg" xmlns:xlink="http://www.w3.org/1999/xlink" width="257" height="139" viewBox="0 0 257 139">
<path fill="none" stroke-width="1" stroke-linecap="butt" stroke-linejoin="miter" stroke="rgb(96.078491%, 37.254333%, 14.117432%)" stroke-opacity="1" stroke-miterlimit="10" d="M 2.222656 283.351562 C -11.445312 187.210938 39.015625 85.125 123.699219 37.601562 C 156.414062 19.238281 193.109375 8.667969 230.269531 3.476562 C 281.789062 -3.714844 335.71875 -0.480469 383.492188 20.105469 C 431.261719 40.699219 472.203125 80.007812 487.960938 129.585938 C 500.597656 169.351562 496.652344 212.292969 491.359375 253.679688 C 486.054688 295.125 479.019531 337.820312 456.320312 372.898438 C 427.234375 417.863281 376.78125 443.816406 327.371094 464.476562 C 299.707031 476.046875 270.972656 485.125 241.253906 489.148438 C 231.28125 490.5 214.199219 490.847656 187.382812 485.507812 C 92.8125 463.464844 15.898438 379.488281 2.222656 283.351562 Z M 2.222656 283.351562 " transform="matrix(1, 0, 0, 1, -27, 1)"/>
</svg>
