<svg width="56" height="56" viewBox="0 0 56 56" fill="none" xmlns="http://www.w3.org/2000/svg">
<g clip-path="url(#clip0_2491_5843)">
<path d="M5.61557 18.409L8.29269 17.2879C8.85343 17.0429 18.8717 17.3727 23.6585 17.2879L32.439 40.8333C31.3403 40.5679 26.916 41.1425 24.529 41.8162C22.1231 42.4899 14.3293 46.4393 14.3293 46.4393L5.61557 18.409Z" fill="#F55F24"/>
<path d="M32.6224 41.0214C32.1005 40.0316 30.8827 40.0316 30.0129 39.9326C29.0464 39.7941 25.4704 40.3286 25.4704 40.3286C23.4987 40.6651 16.5244 43.6365 16.5244 43.6365L7.51289 16.434C7.51289 16.434 11.3982 15.1274 16.366 14.8304C21.3531 14.5335 23.9046 16.5923 23.9046 16.5923L31.7719 38.824" fill="white"/>
<path d="M23.9046 16.5923C24.0206 15.741 27.9832 13.9593 29.6263 13.2268C31.2693 12.4746 39.9484 10.0198 39.9484 10.0198L50.0193 34.8052C50.0193 34.8052 44.2397 35.993 40.5477 37.1214C36.8557 38.2498 32.7577 40.7442 32.6417 41.0412" fill="#F3C8B3"/>
<path fill-rule="evenodd" clip-rule="evenodd" d="M39.0605 24.061L34.3647 26.0578C33.2065 26.5505 31.8927 25.989 31.4295 24.8037L29.5519 19.9984C29.0887 18.8136 29.6521 17.4537 30.8103 16.9615L35.5061 14.9643C36.6639 14.4721 37.9781 15.0336 38.4413 16.2184L40.3189 21.0237C40.7818 22.209 40.2183 23.5689 39.0605 24.061Z" fill="#FFFAF8"/>
<path d="M41.7683 26.8182C40.1219 27.3788 35.7317 29.0607 34.6341 29.6213" stroke="#653825" stroke-width="0.66" stroke-linecap="round"/>
<path d="M42.8659 29.0605C41.2195 29.6212 36.8293 31.303 35.7317 31.8636" stroke="#653825" stroke-width="0.66" stroke-linecap="round"/>
<path d="M43.9634 31.303C42.3171 31.8636 37.9268 33.5454 36.8293 34.106" stroke="#653825" stroke-width="0.66" stroke-linecap="round"/>
<path fill-rule="evenodd" clip-rule="evenodd" d="M35.9348 18.3865C35.9348 18.3865 34.8611 17.8983 34.2827 19.0889C33.0714 18.6597 32.6307 19.7914 32.6307 19.7914C32.6307 19.7914 32.1417 20.9033 33.2432 21.8723C33.9363 22.4826 34.7142 22.6175 35.1955 22.6335C35.5003 22.6436 35.794 22.5185 36.0055 22.2889C36.3389 21.9264 36.8045 21.2631 36.8915 20.3211C37.0293 18.8247 35.9348 18.3865 35.9348 18.3865Z" fill="#EF5F24"/>
<path d="M12.8093 21.8384C14.7229 21.383 19.2655 20.5516 22.165 20.9475" stroke="#653825" stroke-width="0.66" stroke-miterlimit="10" stroke-linecap="round"/>
<path d="M14.1237 25.0851C16.0374 24.6496 20.5799 23.8973 23.4794 24.2338" stroke="#653825" stroke-width="0.66" stroke-miterlimit="10" stroke-linecap="round"/>
<path d="M15.3608 28.2327C17.2745 27.7972 21.817 27.0449 24.7165 27.3814" stroke="#653825" stroke-width="0.66" stroke-miterlimit="10" stroke-linecap="round"/>
<path d="M16.5786 31.5388C18.4923 31.1033 23.0348 30.351 25.9343 30.6876" stroke="#653825" stroke-width="0.66" stroke-miterlimit="10" stroke-linecap="round"/>
<path d="M17.6611 34.8449C19.5747 34.4093 24.1173 33.6571 27.0168 33.9936" stroke="#653825" stroke-width="0.66" stroke-miterlimit="10" stroke-linecap="round"/>
</g>
<defs>
<clipPath id="clip0_2491_5843">
<rect width="45" height="37" fill="white" transform="translate(5 10)"/>
</clipPath>
</defs>
</svg>
