<?xml version="1.0" encoding="UTF-8"?>
<svg xmlns="http://www.w3.org/2000/svg" xmlns:xlink="http://www.w3.org/1999/xlink" width="56" height="56" viewBox="0 0 56 56">
<defs>
<filter id="filter-remove-color" x="0%" y="0%" width="100%" height="100%">
<feColorMatrix color-interpolation-filters="sRGB" values="0 0 0 0 1 0 0 0 0 1 0 0 0 0 1 0 0 0 1 0" />
</filter>
<clipPath id="clip-0">
<rect x="0" y="0" width="56" height="56"/>
</clipPath>
<g id="source-13" clip-path="url(#clip-0)">
<path fill-rule="nonzero" fill="rgb(0%, 0%, 0%)" fill-opacity="1" d="M 0 28 C 0 12.535156 12.535156 0 28 0 C 43.464844 0 56 12.535156 56 28 C 56 43.464844 43.464844 56 28 56 C 12.535156 56 0 43.464844 0 28 Z M 0 28 "/>
</g>
<mask id="mask-0">
<g filter="url(#filter-remove-color)">
<use xlink:href="#source-13"/>
</g>
</mask>
<clipPath id="clip-1">
<rect x="0" y="0" width="56" height="56"/>
</clipPath>
<g id="source-9" clip-path="url(#clip-1)">
<path fill-rule="nonzero" fill="rgb(0%, 0%, 0%)" fill-opacity="1" d="M 5 10 L 50 10 L 50 47 L 5 47 Z M 5 10 "/>
</g>
<mask id="mask-1">
<g filter="url(#filter-remove-color)">
<use xlink:href="#source-9"/>
</g>
</mask>
<clipPath id="clip-2">
<rect x="0" y="0" width="56" height="56"/>
</clipPath>
<g id="source-8" clip-path="url(#clip-2)">
<path fill-rule="nonzero" fill="rgb(96.099854%, 37.298584%, 14.099121%)" fill-opacity="1" d="M 5.617188 18.410156 L 8.292969 17.289062 C 8.851562 17.042969 18.871094 17.371094 23.660156 17.289062 L 32.4375 40.832031 C 31.339844 40.566406 26.917969 41.140625 24.527344 41.816406 C 22.125 42.488281 14.328125 46.4375 14.328125 46.4375 Z M 5.617188 18.410156 "/>
<path fill-rule="nonzero" fill="rgb(100%, 100%, 100%)" fill-opacity="1" d="M 32.621094 41.019531 C 32.101562 40.03125 30.882812 40.03125 30.011719 39.933594 C 29.046875 39.792969 25.46875 40.328125 25.46875 40.328125 C 23.5 40.664062 16.523438 43.636719 16.523438 43.636719 L 7.511719 16.433594 C 7.511719 16.433594 11.398438 15.128906 16.367188 14.832031 C 21.351562 14.535156 23.90625 16.59375 23.90625 16.59375 L 31.773438 38.824219 "/>
<path fill-rule="nonzero" fill="rgb(95.298767%, 78.399658%, 70.199585%)" fill-opacity="1" d="M 23.90625 16.59375 C 24.019531 15.742188 27.984375 13.960938 29.625 13.226562 C 31.269531 12.472656 39.949219 10.019531 39.949219 10.019531 L 50.019531 34.804688 C 50.019531 34.804688 44.238281 35.992188 40.546875 37.121094 C 36.855469 38.25 32.757812 40.746094 32.640625 41.042969 "/>
<path fill-rule="evenodd" fill="rgb(100%, 97.999573%, 97.299194%)" fill-opacity="1" d="M 39.058594 24.0625 L 34.363281 26.058594 C 33.207031 26.550781 31.894531 25.988281 31.429688 24.804688 L 29.550781 20 C 29.089844 18.8125 29.652344 17.453125 30.808594 16.960938 L 35.507812 14.964844 C 36.664062 14.472656 37.976562 15.035156 38.441406 16.21875 L 40.320312 21.023438 C 40.78125 22.210938 40.21875 23.570312 39.058594 24.0625 "/>
<path fill-rule="nonzero" fill="rgb(39.607239%, 21.960449%, 14.509583%)" fill-opacity="1" d="M 41.875 27.128906 C 42.046875 27.070312 42.140625 26.882812 42.082031 26.710938 C 42.023438 26.539062 41.835938 26.445312 41.660156 26.503906 Z M 34.484375 29.328125 C 34.320312 29.410156 34.257812 29.609375 34.339844 29.769531 C 34.421875 29.933594 34.621094 29.996094 34.785156 29.914062 Z M 41.660156 26.503906 C 40.015625 27.066406 35.605469 28.753906 34.484375 29.328125 L 34.785156 29.914062 C 35.859375 29.367188 40.230469 27.691406 41.875 27.128906 Z M 41.660156 26.503906 "/>
<path fill-rule="nonzero" fill="rgb(39.607239%, 21.960449%, 14.509583%)" fill-opacity="1" d="M 42.972656 29.371094 C 43.144531 29.3125 43.238281 29.125 43.179688 28.953125 C 43.121094 28.78125 42.933594 28.6875 42.757812 28.75 Z M 35.582031 31.570312 C 35.417969 31.652344 35.355469 31.851562 35.4375 32.015625 C 35.519531 32.175781 35.71875 32.242188 35.882812 32.15625 Z M 42.757812 28.75 C 41.113281 29.308594 36.703125 30.996094 35.582031 31.570312 L 35.882812 32.15625 C 36.957031 31.609375 41.328125 29.933594 42.972656 29.371094 Z M 42.757812 28.75 "/>
<path fill-rule="nonzero" fill="rgb(39.607239%, 21.960449%, 14.509583%)" fill-opacity="1" d="M 44.070312 31.617188 C 44.242188 31.554688 44.335938 31.367188 44.277344 31.195312 C 44.21875 31.023438 44.03125 30.933594 43.855469 30.992188 Z M 36.679688 33.8125 C 36.515625 33.894531 36.453125 34.09375 36.535156 34.257812 C 36.617188 34.417969 36.816406 34.484375 36.980469 34.398438 Z M 43.855469 30.992188 C 42.210938 31.550781 37.800781 33.238281 36.679688 33.8125 L 36.980469 34.398438 C 38.054688 33.851562 42.425781 32.175781 44.070312 31.617188 Z M 43.855469 30.992188 "/>
<path fill-rule="evenodd" fill="rgb(93.699646%, 37.298584%, 14.099121%)" fill-opacity="1" d="M 35.933594 18.386719 C 35.933594 18.386719 34.859375 17.898438 34.28125 19.089844 C 33.070312 18.660156 32.628906 19.792969 32.628906 19.792969 C 32.628906 19.792969 32.140625 20.902344 33.242188 21.871094 C 33.9375 22.484375 34.714844 22.617188 35.195312 22.632812 C 35.5 22.644531 35.792969 22.519531 36.003906 22.289062 C 36.339844 21.925781 36.804688 21.261719 36.890625 20.320312 C 37.027344 18.824219 35.933594 18.386719 35.933594 18.386719 "/>
<path fill-rule="nonzero" fill="rgb(39.607239%, 21.960449%, 14.509583%)" fill-opacity="1" d="M 12.734375 21.515625 C 12.554688 21.558594 12.445312 21.738281 12.488281 21.914062 C 12.53125 22.09375 12.707031 22.203125 12.886719 22.160156 Z M 22.121094 21.273438 C 22.300781 21.300781 22.46875 21.171875 22.492188 20.992188 C 22.515625 20.8125 22.390625 20.644531 22.210938 20.621094 Z M 12.886719 22.160156 C 13.832031 21.933594 15.433594 21.613281 17.15625 21.402344 C 18.886719 21.1875 20.714844 21.082031 22.121094 21.273438 L 22.210938 20.621094 C 20.714844 20.417969 18.820312 20.53125 17.078125 20.746094 C 15.328125 20.964844 13.699219 21.289062 12.734375 21.515625 Z M 12.886719 22.160156 "/>
<path fill-rule="nonzero" fill="rgb(39.607239%, 21.960449%, 14.509583%)" fill-opacity="1" d="M 14.050781 24.761719 C 13.871094 24.804688 13.761719 24.980469 13.800781 25.160156 C 13.84375 25.335938 14.019531 25.449219 14.195312 25.40625 Z M 23.441406 24.5625 C 23.621094 24.582031 23.785156 24.453125 23.808594 24.273438 C 23.828125 24.089844 23.699219 23.925781 23.515625 23.90625 Z M 14.195312 25.40625 C 16.105469 24.972656 20.601562 24.230469 23.441406 24.5625 L 23.515625 23.90625 C 20.558594 23.5625 15.96875 24.328125 14.050781 24.761719 Z M 14.195312 25.40625 "/>
<path fill-rule="nonzero" fill="rgb(39.607239%, 21.960449%, 14.509583%)" fill-opacity="1" d="M 15.289062 27.910156 C 15.109375 27.953125 15 28.128906 15.039062 28.304688 C 15.078125 28.484375 15.257812 28.59375 15.433594 28.554688 Z M 24.679688 27.710938 C 24.859375 27.730469 25.023438 27.601562 25.042969 27.417969 C 25.066406 27.238281 24.9375 27.074219 24.753906 27.054688 Z M 15.433594 28.554688 C 17.34375 28.121094 21.839844 27.378906 24.679688 27.710938 L 24.753906 27.054688 C 21.796875 26.710938 17.207031 27.472656 15.289062 27.910156 Z M 15.433594 28.554688 "/>
<path fill-rule="nonzero" fill="rgb(39.607239%, 21.960449%, 14.509583%)" fill-opacity="1" d="M 16.503906 31.21875 C 16.328125 31.257812 16.214844 31.433594 16.257812 31.613281 C 16.296875 31.789062 16.472656 31.902344 16.652344 31.859375 Z M 25.894531 31.015625 C 26.078125 31.035156 26.242188 30.90625 26.261719 30.726562 C 26.28125 30.542969 26.152344 30.378906 25.972656 30.359375 Z M 16.652344 31.859375 C 18.558594 31.425781 23.054688 30.6875 25.894531 31.015625 L 25.972656 30.359375 C 23.011719 30.015625 18.425781 30.78125 16.503906 31.21875 Z M 16.652344 31.859375 "/>
<path fill-rule="nonzero" fill="rgb(39.607239%, 21.960449%, 14.509583%)" fill-opacity="1" d="M 17.585938 34.523438 C 17.410156 34.5625 17.300781 34.742188 17.339844 34.917969 C 17.378906 35.097656 17.554688 35.207031 17.734375 35.167969 Z M 26.980469 34.320312 C 27.160156 34.34375 27.324219 34.210938 27.34375 34.03125 C 27.367188 33.851562 27.234375 33.6875 27.054688 33.664062 Z M 17.734375 35.167969 C 19.644531 34.730469 24.136719 33.992188 26.980469 34.320312 L 27.054688 33.664062 C 24.097656 33.324219 19.507812 34.085938 17.585938 34.523438 Z M 17.734375 35.167969 "/>
</g>
<clipPath id="clip-3">
<rect x="0" y="0" width="56" height="56"/>
</clipPath>
<g id="source-12" clip-path="url(#clip-3)">
<g mask="url(#mask-1)">
<use xlink:href="#source-8"/>
</g>
</g>
</defs>
<g mask="url(#mask-0)">
<use xlink:href="#source-12"/>
</g>
</svg>
