<?xml version="1.0" encoding="UTF-8"?>
<svg xmlns="http://www.w3.org/2000/svg" xmlns:xlink="http://www.w3.org/1999/xlink" width="206" height="256" viewBox="0 0 206 256">
<path fill="none" stroke-width="1" stroke-linecap="butt" stroke-linejoin="miter" stroke="rgb(96.078491%, 37.254333%, 14.117432%)" stroke-opacity="1" stroke-miterlimit="10" d="M 1.401133 178.683594 C -7.216054 118.058594 24.604258 53.679688 78.006602 23.710938 C 98.635508 12.132812 121.78004 5.464844 145.209727 2.191406 C 177.701915 -2.34375 211.709727 -0.304688 241.834727 12.679688 C 271.959727 25.664062 297.776133 50.453125 307.713633 81.71875 C 315.682383 106.796875 313.194102 133.875 309.858165 159.972656 C 306.510508 186.109375 302.076915 213.03125 287.760508 235.15625 C 269.420665 263.507812 237.600352 279.875 206.444102 292.902344 C 188.99879 300.203125 170.877696 305.925781 152.135508 308.460938 C 145.846446 309.316406 135.076915 309.535156 118.166758 306.167969 C 58.526133 292.265625 10.026133 239.308594 1.401133 178.683594 Z M 1.401133 178.683594 " transform="matrix(1, 0, 0, 1, 0.540273, -54)"/>
</svg>
