<?xml version="1.0" encoding="UTF-8"?><svg id="Calque_6" xmlns="http://www.w3.org/2000/svg" viewBox="0 0 700 700"><defs><style>.cls-1{fill:#ffeadc;}.cls-1,.cls-2{stroke-width:0px;}.cls-3{fill:none;stroke:#f55f24;stroke-miterlimit:10;stroke-width:52.23px;}.cls-2{fill:#f55f24;}</style></defs><circle class="cls-1" cx="350" cy="350" r="281.37"/><path class="cls-2" d="M298.69,325.63c41.66,0,75.55,33.89,75.55,75.55s-33.89,75.55-75.55,75.55-75.55-33.89-75.55-75.55,33.89-75.55,75.55-75.55M298.69,273.4c-70.57,0-127.78,57.21-127.78,127.78s57.21,127.78,127.78,127.78,127.78-57.21,127.78-127.78-57.21-127.78-127.78-127.78h0Z"/><line class="cls-3" x1="504.58" y1="195.28" x2="371.16" y2="328.7"/><path class="cls-2" d="M518.06,316.89h-30.17c-6.09,0-11.03-4.94-11.03-11.03v-82.58h-87.89c-6.09,0-11.03-4.94-11.03-11.03v-30.17c0-6.09,4.94-11.03,11.03-11.03h125.7c7.97,0,14.43,6.46,14.43,14.43v120.38c0,6.09-4.94,11.03-11.03,11.03Z"/></svg>