<?xml version="1.0" encoding="UTF-8"?>
<svg xmlns="http://www.w3.org/2000/svg" xmlns:xlink="http://www.w3.org/1999/xlink" width="24.552429" height="24.50708" viewBox="0 0 24.552429 24.50708">
<defs>
<clipPath id="clip-0">
<path clip-rule="nonzero" d="M 9 14 L 24.550781 14 L 24.550781 24 L 9 24 Z M 9 14 "/>
</clipPath>
</defs>
<path fill-rule="evenodd" fill="rgb(79.606628%, 79.606628%, 79.606628%)" fill-opacity="1" d="M 21.578125 8.910156 C 21.578125 11.371094 19.578125 13.367188 17.113281 13.367188 C 14.648438 13.367188 12.648438 11.371094 12.648438 8.910156 C 12.648438 6.449219 14.648438 4.457031 17.113281 4.457031 C 19.578125 4.457031 21.578125 6.449219 21.578125 8.910156 "/>
<g clip-path="url(#clip-0)">
<path fill-rule="evenodd" fill="rgb(79.606628%, 79.606628%, 79.606628%)" fill-opacity="1" d="M 22.121094 23.023438 L 12.101562 23.023438 C 10.351562 23.023438 9.152344 21.15625 9.898438 19.535156 C 11.175781 16.769531 13.925781 14.851562 17.109375 14.851562 C 20.296875 14.851562 23.046875 16.769531 24.324219 19.535156 C 25.074219 21.15625 23.875 23.023438 22.121094 23.023438 "/>
</g>
<path fill-rule="evenodd" fill="rgb(79.606628%, 79.606628%, 79.606628%)" fill-opacity="1" d="M 7.441406 10.398438 C 4.976562 10.398438 2.976562 8.402344 2.976562 5.941406 C 2.976562 3.480469 4.976562 1.484375 7.441406 1.484375 C 9.90625 1.484375 11.902344 3.480469 11.902344 5.941406 C 11.902344 8.402344 9.90625 10.398438 7.441406 10.398438 Z M 7.441406 10.398438 "/>
<path fill-rule="evenodd" fill="rgb(79.606628%, 79.606628%, 79.606628%)" fill-opacity="1" d="M 2.429688 20.050781 C 0.679688 20.050781 -0.523438 18.1875 0.226562 16.566406 C 1.503906 13.796875 4.253906 11.882812 7.4375 11.882812 C 10.625 11.882812 13.375 13.796875 14.652344 16.566406 C 15.402344 18.1875 14.203125 20.050781 12.449219 20.050781 Z M 2.429688 20.050781 "/>
</svg>
