<?xml version="1.0" encoding="UTF-8"?>
<svg xmlns="http://www.w3.org/2000/svg" xmlns:xlink="http://www.w3.org/1999/xlink" width="20" height="20" viewBox="0 0 20 20">
<defs>
<clipPath id="clip-0">
<path clip-rule="nonzero" d="M 3 7 L 17 7 L 17 19 L 3 19 Z M 3 7 "/>
</clipPath>
<clipPath id="clip-1">
<path clip-rule="nonzero" d="M 6.035156 8.566406 C 5.742188 8.742188 5.519531 8.917969 5.359375 9.066406 L 5.273438 9.152344 C 4.871094 9.558594 4.472656 10.160156 4.21875 10.957031 C 3.828125 12.203125 3.9375 13.585938 4.6875 15.035156 C 5.597656 16.796875 7.007812 17.980469 8.605469 18.699219 C 9.496094 19.101562 10.507812 19.101562 11.394531 18.699219 C 12.992188 17.980469 14.402344 16.796875 15.3125 15.035156 C 16.0625 13.585938 16.171875 12.203125 15.78125 10.957031 C 15.554688 10.25 15.214844 9.695312 14.867188 9.300781 L 14.699219 9.125 C 14.289062 8.726562 13.714844 8.339844 12.96875 8.132812 L 12.757812 8.082031 C 11.902344 7.894531 11.023438 8.019531 10.175781 8.496094 L 10 8.601562 L 9.902344 8.539062 C 8.570312 7.746094 7.210938 7.859375 6.035156 8.566406 Z M 13.292969 10.546875 L 13.320312 10.574219 C 14.015625 11.28125 14.390625 12.46875 13.539062 14.117188 C 12.855469 15.433594 11.789062 16.328125 10.570312 16.878906 C 10.207031 17.042969 9.792969 17.042969 9.425781 16.875 C 8.210938 16.328125 7.144531 15.433594 6.460938 14.117188 C 5.648438 12.542969 5.953125 11.386719 6.597656 10.660156 L 6.695312 10.558594 C 6.757812 10.496094 6.882812 10.390625 7.0625 10.28125 C 7.773438 9.851562 8.492188 9.851562 9.339844 10.597656 C 9.71875 10.929688 10.28125 10.929688 10.660156 10.597656 C 11.738281 9.652344 12.632812 9.902344 13.292969 10.546875 Z M 13.292969 10.546875 "/>
</clipPath>
<clipPath id="clip-2">
<path clip-rule="nonzero" d="M 7 1 L 13 1 L 13 7 L 7 7 Z M 7 1 "/>
</clipPath>
<clipPath id="clip-3">
<path clip-rule="nonzero" d="M 10 1 C 8.34375 1 7 2.34375 7 4 C 7 5.65625 8.34375 7 10 7 C 11.65625 7 13 5.65625 13 4 C 13 2.34375 11.65625 1 10 1 Z M 10 3 C 10.550781 3 11 3.449219 11 4 C 11 4.550781 10.550781 5 10 5 C 9.449219 5 9 4.550781 9 4 C 9 3.449219 9.449219 3 10 3 Z M 10 3 "/>
</clipPath>
</defs>
<g clip-path="url(#clip-0)">
<g clip-path="url(#clip-1)">
<path fill-rule="nonzero" fill="rgb(94.509888%, 37.254333%, 14.117432%)" fill-opacity="1" d="M 2.828125 6.746094 L 17.171875 6.746094 L 17.171875 20.101562 L 2.828125 20.101562 Z M 2.828125 6.746094 "/>
</g>
</g>
<g clip-path="url(#clip-2)">
<g clip-path="url(#clip-3)">
<path fill-rule="nonzero" fill="rgb(94.509888%, 37.254333%, 14.117432%)" fill-opacity="1" d="M 6 0 L 14 0 L 14 8 L 6 8 Z M 6 0 "/>
</g>
</g>
</svg>
