<?xml version="1.0" encoding="UTF-8"?>
<svg xmlns="http://www.w3.org/2000/svg" xmlns:xlink="http://www.w3.org/1999/xlink" width="31.900391" height="32" viewBox="0 0 31.900391 32">
<path fill-rule="nonzero" fill="rgb(29.019165%, 29.019165%, 29.019165%)" fill-opacity="1" d="M 31.898438 16 C 31.898438 24.835938 24.757812 32 15.949219 32 C 7.140625 32 0 24.835938 0 16 C 0 7.164062 7.140625 0 15.949219 0 C 24.757812 0 31.898438 7.164062 31.898438 16 Z M 31.898438 16 "/>
<path fill-rule="nonzero" fill="rgb(100%, 100%, 100%)" fill-opacity="1" d="M 10.964844 14.332031 C 10.050781 14.332031 9.304688 15.082031 9.304688 16 C 9.304688 16.917969 10.050781 17.667969 10.964844 17.667969 C 11.878906 17.667969 12.628906 16.917969 12.628906 16 C 12.628906 15.082031 11.878906 14.332031 10.964844 14.332031 Z M 20.933594 14.332031 C 20.019531 14.332031 19.273438 15.082031 19.273438 16 C 19.273438 16.917969 20.019531 17.667969 20.933594 17.667969 C 21.847656 17.667969 22.597656 16.917969 22.597656 16 C 22.597656 15.082031 21.847656 14.332031 20.933594 14.332031 Z M 15.949219 14.332031 C 15.035156 14.332031 14.289062 15.082031 14.289062 16 C 14.289062 16.917969 15.035156 17.667969 15.949219 17.667969 C 16.863281 17.667969 17.613281 16.917969 17.613281 16 C 17.613281 15.082031 16.863281 14.332031 15.949219 14.332031 Z M 15.949219 14.332031 "/>
</svg>
