<?xml version="1.0" encoding="UTF-8"?>
<svg xmlns="http://www.w3.org/2000/svg" xmlns:xlink="http://www.w3.org/1999/xlink" width="20" height="20" viewBox="0 0 20 20">
<path fill="none" stroke-width="2" stroke-linecap="round" stroke-linejoin="miter" stroke="rgb(100%, 59.2%, 22.3%)" stroke-opacity="1" stroke-miterlimit="10" d="M 11.222656 0 L 6.777344 0 C 3.050781 0 0 3.050781 0 6.777344 L 0 11.222656 C 0 14.949219 3.050781 18 6.777344 18 L 11.222656 18 C 14.949219 18 18 14.949219 18 11.222656 L 18 6.777344 " transform="matrix(1, 0, 0, 1, 1, 1)"/>
<path fill="none" stroke-width="2" stroke-linecap="butt" stroke-linejoin="miter" stroke="rgb(100%, 59.2%, 22.3%)" stroke-opacity="1" stroke-miterlimit="10" d="M 11.683594 3.113281 L 3.230469 11.570312 C 3.128906 11.667969 2.996094 11.734375 2.851562 11.75 L 0.707031 11.996094 C 0.300781 12.042969 -0.0429688 11.699219 0.00390625 11.292969 L 0.25 9.148438 C 0.265625 9.003906 0.328125 8.871094 0.433594 8.769531 L 8.886719 0.316406 C 9.308594 -0.105469 9.992188 -0.105469 10.414062 0.316406 L 11.683594 1.585938 C 12.105469 2.007812 12.105469 2.691406 11.683594 3.113281 Z M 11.683594 3.113281 " transform="matrix(1, 0, 0, 1, 7, 1)"/>
<path fill="none" stroke-width="2" stroke-linecap="butt" stroke-linejoin="miter" stroke="rgb(100%, 59.2%, 22.3%)" stroke-opacity="1" stroke-miterlimit="10" d="M 3 3 L 0 0 " transform="matrix(1, 0, 0, 1, 15, 3)"/>
</svg>
