<?xml version="1.0" encoding="UTF-8"?>
<svg xmlns="http://www.w3.org/2000/svg" xmlns:xlink="http://www.w3.org/1999/xlink" width="21" height="22" viewBox="0 0 21 22">
<defs>
<clipPath id="clip-0">
<path clip-rule="nonzero" d="M 1 0 L 9 0 L 9 13 L 1 13 Z M 1 0 "/>
</clipPath>
<clipPath id="clip-1">
<path clip-rule="nonzero" d="M 6.101562 8.914062 C 5.144531 7.976562 4.191406 7.035156 3.234375 6.09375 C 3.011719 5.875 2.792969 5.660156 2.570312 5.441406 L 2.570312 6.6875 C 3.175781 6.101562 3.777344 5.515625 4.382812 4.929688 C 5.335938 4 6.292969 3.070312 7.246094 2.140625 C 7.464844 1.925781 7.6875 1.714844 7.90625 1.5 C 8.242188 1.175781 8.265625 0.574219 7.90625 0.253906 C 7.546875 -0.0703125 6.988281 -0.0976562 6.628906 0.253906 C 6.027344 0.839844 5.421875 1.425781 4.820312 2.011719 C 3.863281 2.941406 2.910156 3.871094 1.953125 4.800781 C 1.734375 5.015625 1.515625 5.226562 1.296875 5.441406 C 0.949219 5.777344 0.953125 6.351562 1.296875 6.6875 C 1.898438 7.28125 2.503906 7.875 3.105469 8.472656 C 4.0625 9.414062 5.015625 10.355469 5.972656 11.292969 C 6.191406 11.511719 6.414062 11.730469 6.632812 11.949219 C 6.96875 12.277344 7.582031 12.296875 7.910156 11.949219 C 8.238281 11.59375 8.265625 11.046875 7.910156 10.699219 C 7.304688 10.105469 6.703125 9.511719 6.101562 8.914062 Z M 6.101562 8.914062 "/>
</clipPath>
<clipPath id="clip-2">
<path clip-rule="nonzero" d="M 0 4 L 21 4 L 21 22 L 0 22 Z M 0 4 "/>
</clipPath>
<clipPath id="clip-3">
<path clip-rule="nonzero" d="M 3.507812 6.882812 C 4.332031 6.882812 5.152344 6.882812 5.972656 6.882812 C 6.945312 6.886719 7.917969 6.886719 8.890625 6.886719 C 9.671875 6.886719 10.453125 6.890625 11.234375 6.890625 C 11.671875 6.890625 12.109375 6.878906 12.546875 6.90625 C 12.710938 6.917969 12.878906 6.933594 13.042969 6.957031 C 12.960938 6.945312 12.875 6.933594 12.789062 6.921875 C 13.425781 7.011719 14.046875 7.179688 14.640625 7.429688 C 14.5625 7.398438 14.484375 7.363281 14.410156 7.332031 C 14.996094 7.582031 15.550781 7.910156 16.054688 8.304688 C 15.992188 8.25 15.925781 8.199219 15.863281 8.148438 C 16.363281 8.542969 16.8125 8.996094 17.203125 9.503906 C 17.152344 9.441406 17.101562 9.375 17.050781 9.308594 C 17.441406 9.820312 17.765625 10.378906 18.011719 10.972656 C 17.980469 10.894531 17.945312 10.816406 17.914062 10.738281 C 18.164062 11.335938 18.332031 11.964844 18.417969 12.609375 C 18.40625 12.523438 18.394531 12.4375 18.386719 12.351562 C 18.46875 13 18.46875 13.660156 18.386719 14.3125 C 18.398438 14.226562 18.410156 14.140625 18.417969 14.054688 C 18.332031 14.695312 18.164062 15.324219 17.914062 15.921875 C 17.945312 15.84375 17.980469 15.765625 18.011719 15.6875 C 17.765625 16.285156 17.441406 16.84375 17.050781 17.355469 C 17.101562 17.289062 17.152344 17.222656 17.203125 17.15625 C 16.8125 17.664062 16.363281 18.117188 15.863281 18.511719 C 15.925781 18.460938 15.992188 18.410156 16.054688 18.359375 C 15.546875 18.753906 14.996094 19.078125 14.410156 19.328125 C 14.484375 19.296875 14.5625 19.261719 14.640625 19.230469 C 14.046875 19.480469 13.425781 19.652344 12.789062 19.738281 C 12.875 19.726562 12.960938 19.714844 13.042969 19.707031 C 12.464844 19.785156 11.878906 19.769531 11.296875 19.769531 L 2.433594 19.769531 C 1.949219 19.769531 1.46875 19.765625 0.984375 19.769531 L 0.964844 19.769531 C 0.460938 19.769531 -0.0234375 20.21875 0 20.742188 C 0.0234375 21.269531 0.425781 21.714844 0.964844 21.714844 L 12.074219 21.714844 C 13.273438 21.710938 14.433594 21.4375 15.523438 20.945312 C 17.640625 19.992188 19.273438 18.074219 19.984375 15.855469 C 20.714844 13.578125 20.394531 10.992188 19.148438 8.960938 C 17.929688 6.976562 15.878906 5.5 13.59375 5.09375 C 12.546875 4.910156 11.488281 4.949219 10.429688 4.945312 C 8.945312 4.941406 7.457031 4.941406 5.972656 4.941406 C 4.863281 4.9375 3.753906 4.9375 2.640625 4.933594 L 2.464844 4.933594 C 1.964844 4.933594 1.480469 5.382812 1.503906 5.90625 C 1.527344 6.433594 1.929688 6.878906 2.464844 6.878906 C 2.8125 6.878906 3.160156 6.878906 3.507812 6.882812 Z M 3.507812 6.882812 "/>
</clipPath>
</defs>
<g clip-path="url(#clip-0)">
<g clip-path="url(#clip-1)">
<path fill-rule="nonzero" fill="rgb(100%, 100%, 100%)" fill-opacity="1" d="M -0.0507812 -1 L 9.265625 -1 L 9.265625 13.296875 L -0.0507812 13.296875 Z M -0.0507812 -1 "/>
</g>
</g>
<g clip-path="url(#clip-2)">
<g clip-path="url(#clip-3)">
<path fill-rule="nonzero" fill="rgb(100%, 100%, 100%)" fill-opacity="1" d="M -1 3.910156 L 21.714844 3.910156 L 21.714844 22.714844 L -1 22.714844 Z M -1 3.910156 "/>
</g>
</g>
</svg>
