<svg width="16" height="16" viewBox="0 0 16 16" fill="none" xmlns="http://www.w3.org/2000/svg">
<path fill-rule="evenodd" clip-rule="evenodd" d="M6.0951 7.61902C6.0951 8.03977 5.75395 8.38093 5.3332 8.38093C4.91244 8.38093 4.57129 8.03977 4.57129 7.61902C4.57129 7.19827 4.91244 6.85712 5.3332 6.85712C5.75395 6.85712 6.0951 7.19827 6.0951 7.61902Z" fill="#1E1E1E"/>
<path fill-rule="evenodd" clip-rule="evenodd" d="M9.14295 7.61902C9.14295 8.03977 8.8018 8.38093 8.38105 8.38093C7.9603 8.38093 7.61914 8.03977 7.61914 7.61902C7.61914 7.19827 7.9603 6.85712 8.38105 6.85712C8.8018 6.85712 9.14295 7.19827 9.14295 7.61902Z" fill="#1E1E1E"/>
<path fill-rule="evenodd" clip-rule="evenodd" d="M12.1903 7.61902C12.1903 8.03977 11.8492 8.38093 11.4284 8.38093C11.0077 8.38093 10.6665 8.03977 10.6665 7.61902C10.6665 7.19827 11.0077 6.85712 11.4284 6.85712C11.8492 6.85712 12.1903 7.19827 12.1903 7.61902Z" fill="#1E1E1E"/>
<path fill-rule="evenodd" clip-rule="evenodd" d="M0.0190132 7.44282C0.289011 3.47508 3.51834 0.264039 7.48739 0.0160259L7.70374 0.00535099C12.2356 -0.158525 16 3.46251 16 8.00152C16 10.3719 14.9625 12.5724 13.1981 14.0832L13.6302 14.4458C14.235 14.954 13.9128 15.9218 13.1568 15.9955L13.064 16L7.82512 15.9998C3.27156 15.9027 -0.292875 12.0235 0.0190132 7.44282ZM12.1169 13.0015C13.6014 11.7761 14.4762 9.96193 14.4762 8.00152C14.4762 4.26809 11.3316 1.30251 7.58243 1.53687C4.37684 1.73717 1.75736 4.34183 1.5393 7.54629C1.28659 11.2579 4.17167 14.3977 7.84135 14.4762H11.4499L11.4149 14.3891C11.2918 14.0266 11.3839 13.6068 11.6876 13.3341L11.7757 13.2636C11.8899 13.1821 12.004 13.0943 12.1169 13.0015Z" fill="#1E1E1E"/>
</svg>
