<?xml version="1.0" encoding="UTF-8"?>
<svg xmlns="http://www.w3.org/2000/svg" xmlns:xlink="http://www.w3.org/1999/xlink" width="32" height="32" viewBox="0 0 32 32">
<path fill-rule="nonzero" fill="rgb(88.626099%, 59.214783%, 75.292969%)" fill-opacity="1" d="M 32 16 C 32 24.835938 24.835938 32 16 32 C 7.164062 32 0 24.835938 0 16 C 0 7.164062 7.164062 0 16 0 C 24.835938 0 32 7.164062 32 16 Z M 32 16 "/>
<path fill-rule="nonzero" fill="rgb(100%, 100%, 100%)" fill-opacity="1" d="M 22.667969 11 L 20.851562 11 C 20.941406 10.742188 21 10.457031 21 10.167969 C 21 8.785156 19.882812 7.667969 18.5 7.667969 C 17.625 7.667969 16.867188 8.117188 16.417969 8.792969 L 16 9.351562 L 15.582031 8.785156 C 15.132812 8.117188 14.375 7.667969 13.5 7.667969 C 12.117188 7.667969 11 8.785156 11 10.167969 C 11 10.457031 11.058594 10.742188 11.148438 11 L 9.332031 11 C 8.410156 11 7.675781 11.742188 7.675781 12.667969 L 7.667969 21.832031 C 7.667969 22.757812 8.410156 23.5 9.332031 23.5 L 22.667969 23.5 C 23.589844 23.5 24.332031 22.757812 24.332031 21.832031 L 24.332031 12.667969 C 24.332031 11.742188 23.589844 11 22.667969 11 Z M 18.5 9.332031 C 18.957031 9.332031 19.332031 9.707031 19.332031 10.167969 C 19.332031 10.625 18.957031 11 18.5 11 C 18.042969 11 17.667969 10.625 17.667969 10.167969 C 17.667969 9.707031 18.042969 9.332031 18.5 9.332031 Z M 13.5 9.332031 C 13.957031 9.332031 14.332031 9.707031 14.332031 10.167969 C 14.332031 10.625 13.957031 11 13.5 11 C 13.042969 11 12.667969 10.625 12.667969 10.167969 C 12.667969 9.707031 13.042969 9.332031 13.5 9.332031 Z M 22.667969 21.832031 L 9.332031 21.832031 L 9.332031 20.167969 L 22.667969 20.167969 Z M 22.667969 17.667969 L 9.332031 17.667969 L 9.332031 12.667969 L 13.566406 12.667969 L 11.832031 15.023438 L 13.183594 16 L 16 12.167969 L 18.816406 16 L 20.167969 15.023438 L 18.433594 12.667969 L 22.667969 12.667969 Z M 22.667969 17.667969 "/>
</svg>
