<?xml version="1.0" encoding="UTF-8"?>
<svg xmlns="http://www.w3.org/2000/svg" xmlns:xlink="http://www.w3.org/1999/xlink" width="17" height="16" viewBox="0 0 17 16">
<path fill-rule="nonzero" fill="rgb(100%, 59.2%, 22.3%)" fill-opacity="1" d="M 15.207031 4.035156 L 12 4.035156 C 12.203125 3.902344 12.390625 3.75 12.566406 3.582031 C 13.378906 2.761719 13.378906 1.421875 12.566406 0.597656 C 11.742188 -0.195312 10.417969 -0.195312 9.59375 0.597656 C 9.152344 1.039062 7.984375 2.835938 8.148438 4.035156 L 8.074219 4.035156 C 8.234375 2.835938 7.066406 1.039062 6.628906 0.597656 C 5.804688 -0.195312 4.480469 -0.195312 3.65625 0.597656 C 2.84375 1.421875 2.84375 2.761719 3.65625 3.582031 C 3.828125 3.75 4.019531 3.902344 4.222656 4.035156 L 1.015625 4.035156 C 0.457031 4.035156 0 4.492188 0 5.050781 L 0 7.585938 C 0 7.863281 0.230469 8.09375 0.507812 8.09375 L 1.015625 8.09375 L 1.015625 14.175781 C 1.015625 14.730469 1.472656 15.183594 2.027344 15.1875 L 14.195312 15.1875 C 14.75 15.183594 15.207031 14.726562 15.207031 14.171875 L 15.207031 8.085938 L 15.714844 8.085938 C 15.992188 8.085938 16.222656 7.855469 16.222656 7.578125 L 16.222656 5.050781 C 16.222656 4.492188 15.765625 4.035156 15.207031 4.035156 Z M 4.375 1.3125 C 4.578125 1.109375 4.855469 0.992188 5.144531 0.992188 C 5.429688 0.992188 5.707031 1.109375 5.910156 1.3125 C 6.59375 2 7.273438 3.757812 7.035156 4.003906 C 6.980469 4.03125 6.914062 4.042969 6.847656 4.035156 C 5.929688 3.882812 5.074219 3.480469 4.375 2.867188 C 3.953125 2.4375 3.953125 1.742188 4.375 1.3125 Z M 7.601562 14.175781 L 2.027344 14.175781 L 2.027344 8.085938 L 7.601562 8.085938 Z M 7.601562 7.074219 L 1.015625 7.074219 L 1.015625 5.050781 L 7.601562 5.050781 Z M 10.308594 1.3125 C 10.511719 1.109375 10.789062 0.996094 11.074219 0.996094 C 11.675781 0.996094 12.167969 1.488281 12.167969 2.085938 C 12.167969 2.378906 12.050781 2.660156 11.84375 2.863281 C 11.144531 3.476562 10.285156 3.882812 9.367188 4.03125 C 9.304688 4.039062 9.238281 4.027344 9.179688 4 C 8.949219 3.757812 9.628906 2.003906 10.3125 1.3125 Z M 14.191406 14.171875 L 8.617188 14.171875 L 8.617188 8.085938 L 14.195312 8.085938 Z M 15.203125 7.070312 L 8.617188 7.070312 L 8.617188 5.050781 L 15.207031 5.050781 Z M 15.203125 7.070312 "/>
</svg>
