<?xml version="1.0" encoding="UTF-8"?>
<svg xmlns="http://www.w3.org/2000/svg" xmlns:xlink="http://www.w3.org/1999/xlink" width="34" height="34" viewBox="0 0 34 34">
<path fill-rule="nonzero" fill="rgb(96.078491%, 37.254333%, 14.117432%)" fill-opacity="1" d="M 20.320312 22.976562 L 19.65625 22.976562 L 19.65625 14.34375 C 19.65625 13.976562 19.359375 13.679688 18.992188 13.679688 L 13.679688 13.679688 C 13.3125 13.679688 13.015625 13.976562 13.015625 14.34375 L 13.015625 17 C 13.015625 17.367188 13.3125 17.664062 13.679688 17.664062 L 14.34375 17.664062 L 14.34375 22.976562 L 13.679688 22.976562 C 13.3125 22.976562 13.015625 23.273438 13.015625 23.640625 L 13.015625 26.296875 C 13.015625 26.664062 13.3125 26.960938 13.679688 26.960938 L 20.320312 26.960938 C 20.6875 26.960938 20.984375 26.664062 20.984375 26.296875 L 20.984375 23.640625 C 20.984375 23.273438 20.6875 22.976562 20.320312 22.976562 Z M 19.65625 25.632812 L 14.34375 25.632812 L 14.34375 24.304688 L 15.007812 24.304688 C 15.375 24.304688 15.671875 24.007812 15.671875 23.640625 L 15.671875 17 C 15.671875 16.632812 15.375 16.335938 15.007812 16.335938 L 14.34375 16.335938 L 14.34375 15.007812 L 18.328125 15.007812 L 18.328125 23.640625 C 18.328125 24.007812 18.625 24.304688 18.992188 24.304688 L 19.65625 24.304688 Z M 19.65625 25.632812 "/>
<path fill-rule="nonzero" fill="rgb(96.078491%, 37.254333%, 14.117432%)" fill-opacity="1" d="M 17 12.351562 C 18.464844 12.351562 19.65625 11.160156 19.65625 9.695312 C 19.65625 8.230469 18.464844 7.039062 17 7.039062 C 15.535156 7.039062 14.34375 8.230469 14.34375 9.695312 C 14.34375 11.160156 15.535156 12.351562 17 12.351562 Z M 17 8.367188 C 17.730469 8.367188 18.328125 8.964844 18.328125 9.695312 C 18.328125 10.425781 17.730469 11.023438 17 11.023438 C 16.269531 11.023438 15.671875 10.425781 15.671875 9.695312 C 15.671875 8.964844 16.269531 8.367188 17 8.367188 Z M 17 8.367188 "/>
<path fill-rule="nonzero" fill="rgb(96.078491%, 37.254333%, 14.117432%)" fill-opacity="1" d="M 17 0 C 7.835938 0 0 7.824219 0 17 C 0 20.136719 0.898438 23.46875 2.414062 25.992188 L 0.0351562 33.125 C -0.046875 33.363281 0.015625 33.628906 0.195312 33.804688 C 0.375 33.984375 0.636719 34.046875 0.875 33.964844 L 8.011719 31.585938 C 10.53125 33.101562 13.863281 34 17 34 C 26.164062 34 34 26.175781 34 17 C 34 7.835938 26.175781 0 17 0 Z M 17 32.671875 C 13.992188 32.671875 10.796875 31.785156 8.449219 30.296875 C 8.285156 30.191406 8.078125 30.164062 7.882812 30.230469 L 1.714844 32.285156 L 3.769531 26.117188 C 3.835938 25.925781 3.808594 25.71875 3.703125 25.550781 C 2.214844 23.203125 1.328125 20.007812 1.328125 17 C 1.328125 8.503906 8.503906 1.328125 17 1.328125 C 25.496094 1.328125 32.671875 8.503906 32.671875 17 C 32.671875 25.496094 25.496094 32.671875 17 32.671875 Z M 17 32.671875 "/>
</svg>
