<svg width="21" height="17" viewBox="0 0 21 17" fill="none" xmlns="http://www.w3.org/2000/svg">
<g id="Group">
<path id="Path" d="M10.7284 8.05292C10.4959 8.05292 10.2633 7.96412 10.0871 7.78695L6.52414 4.21194C6.17339 3.86016 6.1764 3.29236 6.53059 2.94395C6.88478 2.59554 7.45647 2.59857 7.80726 2.95036L11.3702 6.52536C11.721 6.87715 11.718 7.44494 11.3638 7.79335C11.1875 7.96667 10.958 8.05292 10.7285 8.05292L10.7284 8.05292Z" fill="#F55F24"/>
<path id="Path_2" d="M0.823079 15.21H0.82739L5.44452 15.2352C5.8991 15.2377 6.26552 15.6346 6.26317 16.1219C6.26082 16.6075 5.89284 16.9994 5.44022 16.9994H5.43591L0.818775 16.9742C0.364194 16.9717 -0.00222254 16.5747 0.000124931 16.0875C0.00286818 15.6019 0.370846 15.21 0.823079 15.21Z" fill="#F55F24"/>
<path id="Path_3" d="M19.6713 6.26307H19.6667C19.1794 6.26072 18.7867 5.89042 18.7892 5.43585L18.8144 0.8186C18.8169 0.365612 19.2113 0 19.6965 0H19.7011C20.1884 0.00235111 20.5811 0.372655 20.5786 0.827217L20.5534 5.44447C20.5509 5.89746 20.1564 6.26307 19.6713 6.26307Z" fill="#F55F24"/>
</g>
</svg>
