<svg width="30" height="30" viewBox="0 0 30 30" fill="none" xmlns="http://www.w3.org/2000/svg">
<circle cx="15" cy="15" r="15" fill="#FFEADC"/>
<path d="M20.4472 10.2913H19.3359V8.19089C19.3359 7.01193 18.8675 5.88125 18.0339 5.0476C17.2002 4.21395 16.0695 3.74561 14.8906 3.74561C13.7116 3.74561 12.5809 4.21395 11.7473 5.0476C10.9136 5.88125 10.4453 7.01193 10.4453 8.19089V10.2913H9.33396C8.44974 10.2913 7.60174 10.6425 6.9765 11.2678C6.35126 11.893 6 12.741 6 13.6253V22.5158C6 23.4 6.35126 24.2481 6.9765 24.8733C7.60174 25.4985 8.44974 25.8498 9.33396 25.8498H20.4472C21.3314 25.8498 22.1794 25.4985 22.8046 24.8733C23.4299 24.2481 23.7811 23.4 23.7811 22.5158V13.6253C23.7811 12.741 23.4299 11.893 22.8046 11.2678C22.1794 10.6425 21.3314 10.2913 20.4472 10.2913ZM12.6679 8.19089C12.653 7.58555 12.8785 6.99894 13.295 6.55947C13.7116 6.12 14.2853 5.86346 14.8906 5.846C15.4958 5.86346 16.0696 6.12 16.4861 6.55947C16.9027 6.99894 17.1282 7.58555 17.1132 8.19089V10.2913H12.6679V8.19089ZM21.5585 22.5158C21.5585 22.8106 21.4414 23.0932 21.233 23.3016C21.0246 23.5101 20.7419 23.6271 20.4472 23.6271H9.33396C9.03922 23.6271 8.75656 23.5101 8.54814 23.3016C8.33973 23.0932 8.22264 22.8106 8.22264 22.5158V13.6253C8.22264 13.3305 8.33973 13.0478 8.54814 12.8394C8.75656 12.631 9.03922 12.5139 9.33396 12.5139H20.4472C20.7419 12.5139 21.0246 12.631 21.233 12.8394C21.4414 13.0478 21.5585 13.3305 21.5585 13.6253V22.5158Z" fill="#FF9739"/>
<path d="M14.8906 14.7366C14.2312 14.7366 13.5866 14.9321 13.0384 15.2984C12.4901 15.6648 12.0628 16.1855 11.8104 16.7947C11.5581 17.4039 11.4921 18.0742 11.6207 18.721C11.7493 19.3677 12.0669 19.9617 12.5331 20.428C12.9994 20.8943 13.5935 21.2118 14.2402 21.3404C14.8869 21.4691 15.5573 21.4031 16.1665 21.1507C16.7757 20.8984 17.2964 20.4711 17.6627 19.9228C18.029 19.3745 18.2246 18.7299 18.2246 18.0705C18.2246 17.1863 17.8733 16.3383 17.2481 15.7131C16.6228 15.0878 15.7748 14.7366 14.8906 14.7366ZM14.8906 19.1819C14.6708 19.1819 14.4559 19.1167 14.2732 18.9946C14.0904 18.8725 13.948 18.6989 13.8639 18.4958C13.7798 18.2928 13.7578 18.0693 13.8006 17.8537C13.8435 17.6382 13.9494 17.4401 14.1048 17.2847C14.2602 17.1293 14.4582 17.0234 14.6738 16.9806C14.8894 16.9377 15.1128 16.9597 15.3159 17.0438C15.519 17.1279 15.6925 17.2704 15.8146 17.4531C15.9368 17.6359 16.0019 17.8507 16.0019 18.0705C16.0019 18.3653 15.8848 18.6479 15.6764 18.8564C15.468 19.0648 15.1853 19.1819 14.8906 19.1819Z" fill="#FF9739"/>
</svg>
