<?xml version="1.0" encoding="UTF-8"?>
<svg xmlns="http://www.w3.org/2000/svg" xmlns:xlink="http://www.w3.org/1999/xlink" width="28" height="28" viewBox="0 0 28 28">
<defs>
<clipPath id="clip-0">
<path clip-rule="nonzero" d="M 4 4 L 24 4 L 24 24 L 4 24 Z M 4 4 "/>
</clipPath>
<clipPath id="clip-1">
<path clip-rule="nonzero" d="M 14 4.101562 C 8.53125 4.101562 4.101562 8.53125 4.101562 14 C 4.101562 19.46875 8.53125 23.898438 14 23.898438 C 19.46875 23.898438 23.898438 19.46875 23.898438 14 C 23.898438 8.53125 19.46875 4.101562 14 4.101562 Z M 21.425781 14 C 21.425781 18.101562 18.101562 21.425781 14 21.425781 C 9.898438 21.425781 6.574219 18.101562 6.574219 14 C 6.574219 9.898438 9.898438 6.574219 14 6.574219 C 18.101562 6.574219 21.425781 9.898438 21.425781 14 Z M 21.425781 14 "/>
</clipPath>
<clipPath id="clip-2">
<path clip-rule="nonzero" d="M 9 5 L 19 5 L 19 24 L 9 24 Z M 9 5 "/>
</clipPath>
<clipPath id="clip-3">
<path clip-rule="nonzero" d="M 16.289062 5.105469 C 17.898438 6.765625 19 10.125 19 14 C 19 17.300781 18.199219 20.226562 16.96875 22.046875 C 16.136719 23.273438 15.113281 22.980469 14 22.980469 C 12.898438 22.980469 11.882812 23.289062 11.054688 22.082031 C 9.808594 20.261719 9 17.320312 9 14 C 9 10.105469 10.113281 6.730469 11.738281 5.082031 M 14 6.5 C 13.777344 6.5 13.253906 6.941406 12.699219 8.046875 C 11.953125 9.542969 11.5 11.683594 11.5 14 C 11.5 16.316406 11.953125 18.457031 12.699219 19.953125 C 13.253906 21.058594 13.777344 21.5 14 21.5 C 14.222656 21.5 14.746094 21.058594 15.300781 19.953125 C 16.046875 18.457031 16.5 16.316406 16.5 14 C 16.5 11.683594 16.046875 9.542969 15.300781 8.046875 C 14.746094 6.941406 14.222656 6.5 14 6.5 Z M 14 6.5 "/>
</clipPath>
<clipPath id="clip-4">
<path clip-rule="nonzero" d="M 5 15 L 23 15 L 23 20 L 5 20 Z M 5 15 "/>
</clipPath>
<clipPath id="clip-5">
<path clip-rule="nonzero" d="M 22.5 17.640625 L 21.101562 19.5 C 19.527344 18.445312 16.847656 17.777344 13.898438 17.777344 C 11.195312 17.777344 8.710938 18.339844 7.097656 19.253906 L 6.839844 19.40625 L 5.5 17.511719 C 7.53125 16.238281 10.597656 15.5 13.898438 15.5 C 17.160156 15.5 20.1875 16.21875 22.21875 17.460938 Z M 22.5 17.640625 "/>
</clipPath>
<clipPath id="clip-6">
<path clip-rule="nonzero" d="M 5 8 L 23 8 L 23 13 L 5 13 Z M 5 8 "/>
</clipPath>
<clipPath id="clip-7">
<path clip-rule="nonzero" d="M 5.5 10.359375 L 6.898438 8.5 C 8.472656 9.554688 11.152344 10.222656 14.101562 10.222656 C 16.804688 10.222656 19.289062 9.660156 20.902344 8.746094 L 21.160156 8.59375 L 22.5 10.488281 C 20.46875 11.761719 17.402344 12.5 14.101562 12.5 C 10.839844 12.5 7.8125 11.78125 5.78125 10.539062 Z M 5.5 10.359375 "/>
</clipPath>
</defs>
<g clip-path="url(#clip-0)">
<g clip-path="url(#clip-1)">
<path fill-rule="nonzero" fill="rgb(100%, 59.2%, 22.3%)" fill-opacity="1" d="M 14 -7.214844 L 35.214844 14 L 14 35.214844 L -7.214844 14 Z M 14 -7.214844 "/>
</g>
</g>
<g clip-path="url(#clip-2)">
<g clip-path="url(#clip-3)">
<path fill-rule="nonzero" fill="rgb(100%, 59.2%, 22.3%)" fill-opacity="1" d="M 8 4.082031 L 20 4.082031 L 20 24.289062 L 8 24.289062 Z M 8 4.082031 "/>
</g>
</g>
<g clip-path="url(#clip-4)">
<g clip-path="url(#clip-5)">
<path fill-rule="nonzero" fill="rgb(100%, 59.2%, 22.3%)" fill-opacity="1" d="M 23.5 14.5 L 23.5 20.5 L 4.5 20.5 L 4.5 14.5 Z M 23.5 14.5 "/>
</g>
</g>
<g clip-path="url(#clip-6)">
<g clip-path="url(#clip-7)">
<path fill-rule="nonzero" fill="rgb(100%, 59.2%, 22.3%)" fill-opacity="1" d="M 4.5 13.5 L 4.5 7.5 L 23.5 7.5 L 23.5 13.5 Z M 4.5 13.5 "/>
</g>
</g>
</svg>
