<?xml version="1.0" encoding="UTF-8"?>
<svg xmlns="http://www.w3.org/2000/svg" xmlns:xlink="http://www.w3.org/1999/xlink" width="20" height="20" viewBox="0 0 20 20">
<path fill="none" stroke-width="2" stroke-linecap="butt" stroke-linejoin="miter" stroke="rgb(96.078491%, 37.254333%, 14.117432%)" stroke-opacity="1" stroke-miterlimit="10" d="M 11.222656 0 L 6.777344 0 C 3.050781 0 0 3.050781 0 6.777344 L 0 11.222656 C 0 14.949219 3.050781 18 6.777344 18 L 11.222656 18 C 14.949219 18 18 14.949219 18 11.222656 L 18 6.777344 C 18 3.050781 14.949219 0 11.222656 0 Z M 11.222656 0 " transform="matrix(1, 0, 0, 1, 1, 1)"/>
<path fill="none" stroke-width="2" stroke-linecap="round" stroke-linejoin="round" stroke="rgb(96.078491%, 37.254333%, 14.117432%)" stroke-opacity="1" stroke-miterlimit="10" d="M 1.05 0 L 1.05 6 " transform="matrix(1, 0, 0, 1, 8.95, 7)"/>
<path fill="none" stroke-width="2" stroke-linecap="round" stroke-linejoin="round" stroke="rgb(96.078491%, 37.254333%, 14.117432%)" stroke-opacity="1" stroke-miterlimit="10" d="M 6.011719 0.5 L 0 0.5 " transform="matrix(1, 0, 0, 1, 7, 9.5)"/>
</svg>
