<?xml version="1.0" encoding="UTF-8"?>
<svg xmlns="http://www.w3.org/2000/svg" xmlns:xlink="http://www.w3.org/1999/xlink" width="34" height="34" viewBox="0 0 34 34">
<path fill-rule="nonzero" fill="rgb(96.078491%, 37.254333%, 14.117432%)" fill-opacity="1" d="M 30.710938 6.582031 L 31.804688 6.582031 L 31.804688 7.675781 L 30.710938 7.675781 Z M 30.710938 6.582031 "/>
<path fill-rule="nonzero" fill="rgb(96.078491%, 37.254333%, 14.117432%)" fill-opacity="1" d="M 28.515625 6.582031 L 29.613281 6.582031 L 29.613281 7.675781 L 28.515625 7.675781 Z M 28.515625 6.582031 "/>
<path fill-rule="nonzero" fill="rgb(96.078491%, 37.254333%, 14.117432%)" fill-opacity="1" d="M 26.324219 6.582031 L 27.417969 6.582031 L 27.417969 7.675781 L 26.324219 7.675781 Z M 26.324219 6.582031 "/>
<path fill-rule="nonzero" fill="rgb(96.078491%, 37.254333%, 14.117432%)" fill-opacity="1" d="M 19.742188 6.582031 L 25.226562 6.582031 L 25.226562 7.675781 L 19.742188 7.675781 Z M 19.742188 6.582031 "/>
<path fill-rule="nonzero" fill="rgb(96.078491%, 37.254333%, 14.117432%)" fill-opacity="1" d="M 19.742188 4.386719 L 31.804688 4.386719 L 31.804688 5.484375 L 19.742188 5.484375 Z M 19.742188 4.386719 "/>
<path fill-rule="nonzero" fill="rgb(96.078491%, 37.254333%, 14.117432%)" fill-opacity="1" d="M 19.742188 2.195312 L 31.804688 2.195312 L 31.804688 3.289062 L 19.742188 3.289062 Z M 19.742188 2.195312 "/>
<path fill-rule="nonzero" fill="rgb(96.078491%, 37.254333%, 14.117432%)" fill-opacity="1" d="M 32.902344 0 L 18.644531 0 C 18.039062 0 17.546875 0.492188 17.546875 1.097656 L 17.546875 4.761719 C 15.886719 3.800781 14.011719 3.289062 12.066406 3.289062 C 6.015625 3.289062 1.097656 8.210938 1.097656 14.257812 C 1.097656 17.542969 2.554688 20.484375 4.847656 22.496094 L 0.226562 30.707031 C 0.078125 30.972656 0 31.277344 0 31.582031 L 0 31.695312 C 0 32.292969 0.296875 32.847656 0.792969 33.175781 L 1.578125 33.699219 C 1.871094 33.898438 2.214844 34 2.566406 34 C 3.210938 34 3.808594 33.648438 4.121094 33.085938 L 8.769531 24.71875 C 9.808594 25.046875 10.917969 25.226562 12.066406 25.226562 C 18.113281 25.226562 23.03125 20.304688 23.03125 14.257812 C 23.03125 12.746094 22.714844 11.246094 22.113281 9.871094 L 23.871094 9.871094 L 26.226562 12.695312 C 26.472656 12.992188 26.835938 13.160156 27.222656 13.160156 C 27.933594 13.160156 28.515625 12.578125 28.515625 11.867188 L 28.515625 9.871094 L 32.902344 9.871094 C 33.507812 9.871094 34 9.378906 34 8.773438 L 34 1.097656 C 34 0.492188 33.507812 0 32.902344 0 Z M 9.871094 10.96875 C 9.871094 9.757812 10.855469 8.773438 12.066406 8.773438 C 13.273438 8.773438 14.257812 9.757812 14.257812 10.96875 C 14.257812 12.175781 13.273438 13.160156 12.066406 13.160156 C 10.855469 13.160156 9.871094 12.175781 9.871094 10.96875 Z M 16.453125 20.550781 C 15.207031 21.421875 13.695312 21.933594 12.066406 21.933594 C 10.433594 21.933594 8.921875 21.421875 7.675781 20.550781 L 7.675781 18.644531 C 7.675781 16.226562 9.644531 14.257812 12.066406 14.257812 C 14.484375 14.257812 16.453125 16.226562 16.453125 18.644531 Z M 14.089844 13.554688 C 14.859375 12.953125 15.355469 12.015625 15.355469 10.96875 C 15.355469 9.152344 13.878906 7.675781 12.066406 7.675781 C 10.25 7.675781 8.773438 9.152344 8.773438 10.96875 C 8.773438 12.015625 9.269531 12.953125 10.039062 13.554688 C 8.015625 14.363281 6.582031 16.335938 6.582031 18.644531 L 6.582031 19.621094 C 5.226562 18.234375 4.386719 16.34375 4.386719 14.257812 C 4.386719 10.023438 7.832031 6.582031 12.066406 6.582031 C 14.132812 6.582031 16.121094 7.429688 17.5625 8.910156 C 17.617188 9.339844 17.917969 9.691406 18.320312 9.816406 C 19.246094 11.117188 19.742188 12.648438 19.742188 14.257812 C 19.742188 16.34375 18.902344 18.234375 17.546875 19.621094 L 17.546875 18.644531 C 17.546875 16.335938 16.113281 14.363281 14.089844 13.554688 Z M 3.164062 32.550781 C 2.976562 32.886719 2.507812 33 2.1875 32.789062 L 1.402344 32.265625 C 1.210938 32.136719 1.097656 31.925781 1.097656 31.695312 L 1.097656 31.582031 C 1.097656 31.464844 1.128906 31.347656 1.183594 31.246094 L 4.253906 25.785156 L 6.253906 26.984375 Z M 6.789062 26.027344 L 4.792969 24.828125 L 5.71875 23.1875 C 6.34375 23.632812 7.015625 24.019531 7.730469 24.328125 Z M 21.933594 14.257812 C 21.933594 19.699219 17.507812 24.128906 12.066406 24.128906 C 6.621094 24.128906 2.195312 19.699219 2.195312 14.257812 C 2.195312 8.816406 6.621094 4.386719 12.066406 4.386719 C 14.035156 4.386719 15.921875 4.96875 17.546875 6.058594 L 17.546875 7.425781 C 16 6.183594 14.066406 5.484375 12.066406 5.484375 C 7.226562 5.484375 3.289062 9.421875 3.289062 14.257812 C 3.289062 19.097656 7.226562 23.03125 12.066406 23.03125 C 16.902344 23.03125 20.839844 19.097656 20.839844 14.257812 C 20.839844 12.695312 20.429688 11.199219 19.65625 9.871094 L 20.902344 9.871094 C 21.578125 11.226562 21.933594 12.734375 21.933594 14.257812 Z M 32.902344 8.773438 L 27.417969 8.773438 L 27.417969 11.867188 C 27.417969 12.035156 27.175781 12.121094 27.070312 11.992188 L 24.386719 8.773438 L 18.644531 8.773438 L 18.644531 1.097656 L 32.902344 1.097656 Z M 32.902344 8.773438 "/>
<path fill-rule="nonzero" fill="rgb(96.078491%, 37.254333%, 14.117432%)" fill-opacity="1" d="M 23.554688 19.742188 L 26.308594 19.742188 C 26.289062 20.152344 26.246094 20.5625 26.179688 20.96875 C 25.558594 24.722656 22.949219 27.648438 18.421875 29.660156 L 15.5625 30.929688 L 18.683594 30.707031 C 25.972656 30.1875 30.347656 26.222656 30.691406 19.832031 C 30.695312 19.804688 30.695312 19.773438 30.695312 19.742188 L 33.476562 19.742188 L 28.515625 13.363281 Z M 29.613281 18.644531 L 29.613281 19.195312 C 29.613281 19.386719 29.609375 19.582031 29.597656 19.773438 C 29.332031 24.683594 26.554688 27.929688 21.683594 29.140625 C 24.820312 27.082031 26.730469 24.359375 27.261719 21.144531 C 27.367188 20.503906 27.417969 19.847656 27.417969 19.195312 L 27.417969 18.644531 L 25.800781 18.644531 L 28.515625 15.152344 L 31.234375 18.644531 Z M 29.613281 18.644531 "/>
</svg>
