<?xml version="1.0" encoding="UTF-8"?>
<svg xmlns="http://www.w3.org/2000/svg" xmlns:xlink="http://www.w3.org/1999/xlink" width="36" height="36" viewBox="0 0 36 36">
<path fill-rule="nonzero" fill="rgb(96.078491%, 37.254333%, 14.117432%)" fill-opacity="1" stroke-width="0.3" stroke-linecap="butt" stroke-linejoin="miter" stroke="rgb(96.078491%, 37.254333%, 14.117432%)" stroke-opacity="1" stroke-miterlimit="4" d="M 18 35 C 8.632812 35 1 27.367188 1 18 C 1 8.632812 8.632812 1 18 1 C 27.367188 1 35 8.632812 35 18 C 35 27.367188 27.367188 35 18 35 Z M 18 1.570312 C 8.949219 1.570312 1.570312 8.941406 1.570312 18 C 1.570312 27.058594 8.941406 34.429688 18 34.429688 C 27.050781 34.429688 34.429688 27.058594 34.429688 18 C 34.429688 8.941406 27.050781 1.570312 18 1.570312 Z M 18 1.570312 " transform="matrix(1, 0, 0, -1, 0, 36)"/>
<path fill-rule="nonzero" fill="rgb(96.078491%, 37.254333%, 14.117432%)" fill-opacity="1" stroke-width="0.3" stroke-linecap="butt" stroke-linejoin="miter" stroke="rgb(96.078491%, 37.254333%, 14.117432%)" stroke-opacity="1" stroke-miterlimit="4" d="M 25.445312 21.738281 C 25.445312 25.859375 22.101562 29.167969 18.019531 29.167969 C 13.898438 29.167969 10.589844 25.820312 10.589844 21.738281 C 10.589844 20.710938 11.425781 19.875 12.453125 19.875 C 13.484375 19.875 14.320312 20.710938 14.320312 21.738281 C 14.320312 23.761719 15.957031 25.410156 17.988281 25.410156 C 20.011719 25.410156 21.660156 23.769531 21.660156 21.738281 C 21.660156 19.707031 20.019531 18.070312 17.988281 18.070312 C 16.960938 18.070312 16.125 17.234375 16.125 16.207031 L 16.125 13.378906 C 16.125 12.347656 16.960938 11.515625 17.988281 11.515625 C 19.019531 11.515625 19.855469 12.347656 19.921875 13.378906 L 19.921875 14.566406 L 19.914062 14.566406 C 23.230469 15.371094 25.445312 18.238281 25.445312 21.738281 Z M 19.453125 15.144531 C 19.304688 15.117188 19.207031 14.988281 19.207031 14.820312 L 19.207031 13.410156 C 19.207031 12.730469 18.65625 12.183594 17.980469 12.183594 C 17.300781 12.183594 16.753906 12.730469 16.753906 13.410156 L 16.753906 16.234375 C 16.753906 16.910156 17.300781 17.460938 17.980469 17.460938 C 20.363281 17.460938 22.289062 19.394531 22.289062 21.769531 C 22.289062 24.144531 20.355469 26.078125 17.980469 26.078125 C 15.605469 26.078125 13.671875 24.144531 13.601562 21.738281 C 13.601562 21.0625 13.054688 20.511719 12.375 20.511719 C 11.699219 20.511719 11.148438 21.0625 11.148438 21.738281 C 11.148438 25.496094 14.203125 28.53125 17.941406 28.53125 C 21.699219 28.53125 24.730469 25.476562 24.730469 21.738281 C 24.730469 18.460938 22.609375 15.792969 19.453125 15.144531 Z M 19.453125 15.144531 " transform="matrix(1, 0, 0, -1, 0, 36)"/>
<path fill-rule="nonzero" fill="rgb(96.078491%, 37.254333%, 14.117432%)" fill-opacity="1" stroke-width="0.3" stroke-linecap="butt" stroke-linejoin="miter" stroke="rgb(96.078491%, 37.254333%, 14.117432%)" stroke-opacity="1" stroke-miterlimit="4" d="M 19.332031 9.738281 C 18.980469 10.09375 18.5 10.289062 18.019531 10.289062 C 17.539062 10.289062 17.058594 10.089844 16.703125 9.738281 C 16.351562 9.386719 16.15625 8.90625 16.15625 8.421875 C 16.15625 7.941406 16.351562 7.460938 16.703125 7.109375 C 17.058594 6.753906 17.539062 6.558594 18.019531 6.558594 C 18.5 6.558594 18.980469 6.753906 19.332031 7.109375 C 19.6875 7.460938 19.882812 7.941406 19.882812 8.421875 C 19.882812 8.90625 19.6875 9.386719 19.332031 9.738281 Z M 18.890625 7.558594 C 18.667969 7.335938 18.34375 7.207031 18.027344 7.207031 C 17.714844 7.207031 17.378906 7.335938 17.164062 7.558594 C 16.9375 7.785156 16.8125 8.109375 16.8125 8.421875 C 16.8125 8.738281 16.9375 9.070312 17.164062 9.285156 C 17.390625 9.511719 17.714844 9.640625 18.027344 9.640625 C 18.34375 9.640625 18.675781 9.511719 18.890625 9.285156 C 19.109375 9.0625 19.246094 8.746094 19.246094 8.421875 C 19.246094 8.101562 19.117188 7.777344 18.890625 7.558594 Z M 18.890625 7.558594 " transform="matrix(1, 0, 0, -1, 0, 36)"/>
</svg>
