<?xml version="1.0" encoding="UTF-8"?>
<svg xmlns="http://www.w3.org/2000/svg" xmlns:xlink="http://www.w3.org/1999/xlink" width="32" height="32" viewBox="0 0 32 32">
<path fill-rule="nonzero" fill="rgb(7.450867%, 71.37146%, 52.548218%)" fill-opacity="1" d="M 32 16 C 32 24.835938 24.835938 32 16 32 C 7.164062 32 0 24.835938 0 16 C 0 7.164062 7.164062 0 16 0 C 24.835938 0 32 7.164062 32 16 Z M 32 16 "/>
<path fill-rule="nonzero" fill="rgb(100%, 100%, 100%)" fill-opacity="1" d="M 15.167969 13.5 L 13.5 13.5 L 13.5 7.667969 L 11.832031 7.667969 L 11.832031 13.5 L 10.167969 13.5 L 10.167969 7.667969 L 8.5 7.667969 L 8.5 13.5 C 8.5 15.265625 9.882812 16.699219 11.625 16.808594 L 11.625 24.332031 L 13.707031 24.332031 L 13.707031 16.808594 C 15.449219 16.699219 16.832031 15.265625 16.832031 13.5 L 16.832031 7.667969 L 15.167969 7.667969 Z M 19.332031 11 L 19.332031 17.667969 L 21.417969 17.667969 L 21.417969 24.332031 L 23.5 24.332031 L 23.5 7.667969 C 21.199219 7.667969 19.332031 9.535156 19.332031 11 Z M 19.332031 11 "/>
</svg>
