<?xml version="1.0" encoding="UTF-8"?>
<svg xmlns="http://www.w3.org/2000/svg" xmlns:xlink="http://www.w3.org/1999/xlink" width="32" height="32" viewBox="0 0 32 32">
<path fill-rule="nonzero" fill="rgb(93.72406%, 67.842102%, 11.764526%)" fill-opacity="1" d="M 32 16 C 32 24.835938 24.835938 32 16 32 C 7.164062 32 0 24.835938 0 16 C 0 7.164062 7.164062 0 16 0 C 24.835938 0 32 7.164062 32 16 Z M 32 16 "/>
<path fill-rule="nonzero" fill="rgb(100%, 100%, 100%)" fill-opacity="1" d="M 17.667969 11 L 17.667969 9.332031 L 14.332031 9.332031 L 14.332031 11 Z M 9.332031 12.667969 L 9.332031 21.832031 L 22.667969 21.832031 L 22.667969 12.667969 Z M 22.667969 11 C 23.589844 11 24.332031 11.742188 24.332031 12.667969 L 24.332031 21.832031 C 24.332031 22.757812 23.589844 23.5 22.667969 23.5 L 9.332031 23.5 C 8.410156 23.5 7.667969 22.757812 7.667969 21.832031 L 7.675781 12.667969 C 7.675781 11.742188 8.410156 11 9.332031 11 L 12.667969 11 L 12.667969 9.332031 C 12.667969 8.410156 13.410156 7.667969 14.332031 7.667969 L 17.667969 7.667969 C 18.589844 7.667969 19.332031 8.410156 19.332031 9.332031 L 19.332031 11 Z M 22.667969 11 "/>
</svg>
