<svg width="30" height="25" viewBox="0 0 30 25" fill="none" xmlns="http://www.w3.org/2000/svg">
<circle cx="3.57422" cy="8.78906" r="3.51562" fill="black"/>
<path d="M21.9781 4.18336C21.9781 1.79812 20.2932 0 18.059 0C16.9321 0 15.8755 0.50127 15 1.43168C14.1246 0.50127 13.0679 0 11.941 0C9.70684 0 8.02197 1.79812 8.02197 4.18336C8.02197 6.67418 10.0244 8.3642 12.7967 10.7022C14.5109 12.1509 14.4233 12.0936 15 12.5896C15.7014 11.9863 15.3839 12.2399 17.2033 10.7022C19.9756 8.3642 21.9781 6.67418 21.9781 4.18336Z" fill="black"/>
<circle cx="26.4258" cy="8.78906" r="3.51562" fill="black"/>
<path d="M27.3632 14.0625H24.6679C22.463 14.0625 20.5832 12.7285 19.7955 10.7913C19.0467 11.4506 18.4313 11.9644 18.2014 12.1596C17.8396 12.4659 17.4473 12.8008 17.0537 13.1393C19.6951 17.7287 24.4405 17.5408 24.6679 17.615V24.6094H29.9999V16.6992C29.9999 15.2453 28.8172 14.0625 27.3632 14.0625Z" fill="black"/>
<path d="M5.33203 17.615C5.5766 17.5353 10.294 17.7479 12.9464 13.1389C12.5527 12.8008 10.973 11.468 10.2045 10.7911C9.41672 12.7285 7.53691 14.0625 5.33203 14.0625H2.63672C1.18277 14.0625 0 15.2453 0 16.6992V24.6094H5.33203V17.615Z" fill="black"/>
</svg>
