<?xml version="1.0" encoding="UTF-8"?>
<svg xmlns="http://www.w3.org/2000/svg" xmlns:xlink="http://www.w3.org/1999/xlink" width="20" height="10" viewBox="0 0 20 10">
<path fill-rule="nonzero" fill="rgb(96.076965%, 37.254333%, 14.117432%)" fill-opacity="1" d="M 1.898438 5 C 1.898438 3.289062 3.289062 1.898438 5 1.898438 L 9 1.898438 L 9 0 L 5 0 C 2.238281 0 0 2.238281 0 5 C 0 7.761719 2.238281 10 5 10 L 9 10 L 9 8.101562 L 5 8.101562 C 3.289062 8.101562 1.898438 6.710938 1.898438 5 Z M 6 6 L 14 6 L 14 4 L 6 4 Z M 15 0 L 11 0 L 11 1.898438 L 15 1.898438 C 16.710938 1.898438 18.101562 3.289062 18.101562 5 C 18.101562 6.710938 16.710938 8.101562 15 8.101562 L 11 8.101562 L 11 10 L 15 10 C 17.761719 10 20 7.761719 20 5 C 20 2.238281 17.761719 0 15 0 Z M 15 0 "/>
</svg>
