<?xml version="1.0" encoding="UTF-8"?>
<svg xmlns="http://www.w3.org/2000/svg" xmlns:xlink="http://www.w3.org/1999/xlink" width="32" height="32" viewBox="0 0 32 32">
<path fill-rule="nonzero" fill="rgb(33.72345%, 71.879578%, 77.082825%)" fill-opacity="1" d="M 32 16 C 32 24.835938 24.835938 32 16 32 C 7.164062 32 0 24.835938 0 16 C 0 7.164062 7.164062 0 16 0 C 24.835938 0 32 7.164062 32 16 Z M 32 16 "/>
<path fill-rule="nonzero" fill="rgb(100%, 100%, 100%)" fill-opacity="1" d="M 10.582031 24.332031 L 10.582031 18.082031 L 9.332031 18.082031 L 9.332031 13.5 C 9.332031 12.582031 10.082031 11.832031 11 11.832031 L 13.5 11.832031 C 14.417969 11.832031 15.167969 12.582031 15.167969 13.5 L 15.167969 18.082031 L 13.917969 18.082031 L 13.917969 24.332031 Z M 21 24.332031 L 21 19.332031 L 23.5 19.332031 L 21.382812 12.976562 C 21.148438 12.292969 20.515625 11.832031 19.800781 11.832031 L 19.699219 11.832031 C 18.984375 11.832031 18.339844 12.292969 18.117188 12.976562 L 16 19.332031 L 18.5 19.332031 L 18.5 24.332031 Z M 12.25 11 C 13.175781 11 13.917969 10.257812 13.917969 9.332031 C 13.917969 8.410156 13.175781 7.667969 12.25 7.667969 C 11.324219 7.667969 10.582031 8.410156 10.582031 9.332031 C 10.582031 10.257812 11.324219 11 12.25 11 Z M 19.75 11 C 20.675781 11 21.417969 10.257812 21.417969 9.332031 C 21.417969 8.410156 20.675781 7.667969 19.75 7.667969 C 18.824219 7.667969 18.082031 8.410156 18.082031 9.332031 C 18.082031 10.257812 18.824219 11 19.75 11 Z M 19.75 11 "/>
</svg>
