<?xml version="1.0" encoding="UTF-8"?>
<svg xmlns="http://www.w3.org/2000/svg" xmlns:xlink="http://www.w3.org/1999/xlink" width="25" height="25" viewBox="0 0 25 25">
<path fill-rule="evenodd" fill="rgb(96.078491%, 37.254333%, 14.117432%)" fill-opacity="1" d="M 3.785156 3.472656 L 3.6875 3.570312 C 3.585938 3.675781 3.484375 3.789062 3.371094 3.925781 L 3.242188 4.082031 C 1.203125 6.695312 0.523438 10.253906 2.691406 14.425781 C 4.453125 17.804688 7.175781 20.078125 10.265625 21.46875 C 11.828125 22.167969 13.609375 22.167969 15.175781 21.46875 C 18.265625 20.078125 20.988281 17.804688 22.746094 14.425781 C 24.914062 10.253906 24.238281 6.695312 22.203125 4.09375 L 21.984375 3.824219 L 21.820312 3.640625 C 21.792969 3.613281 21.769531 3.589844 21.75 3.566406 L 21.660156 3.480469 C 21.414062 3.238281 21.078125 2.964844 20.65625 2.683594 C 20.019531 2.261719 19.3125 1.921875 18.542969 1.707031 L 18.285156 1.640625 C 16.472656 1.210938 14.597656 1.558594 12.78125 2.851562 L 12.71875 2.898438 L 12.65625 2.851562 C 10.757812 1.496094 8.789062 1.179688 6.898438 1.707031 C 6.125 1.921875 5.417969 2.261719 4.78125 2.683594 C 4.359375 2.964844 4.023438 3.238281 3.785156 3.472656 Z M 3.785156 3.472656 "/>
</svg>
