<?xml version="1.0" encoding="UTF-8"?>
<svg xmlns="http://www.w3.org/2000/svg" xmlns:xlink="http://www.w3.org/1999/xlink" width="34" height="34" viewBox="0 0 34 34">
<defs>
<clipPath id="clip-0">
<path clip-rule="nonzero" d="M 6 13 L 28 13 L 28 33 L 6 33 Z M 6 13 "/>
</clipPath>
<clipPath id="clip-1">
<path clip-rule="nonzero" d="M 10.257812 14.5625 C 9.765625 14.859375 9.382812 15.160156 9.109375 15.414062 L 8.960938 15.5625 C 8.28125 16.253906 7.601562 17.273438 7.175781 18.628906 C 6.507812 20.742188 6.691406 23.097656 7.964844 25.558594 C 9.515625 28.554688 11.914062 30.566406 14.628906 31.789062 C 16.140625 32.46875 17.859375 32.46875 19.367188 31.789062 C 22.085938 30.566406 24.480469 28.554688 26.03125 25.558594 C 27.308594 23.097656 27.492188 20.742188 26.824219 18.628906 C 26.445312 17.425781 25.867188 16.484375 25.273438 15.8125 L 24.988281 15.511719 C 24.292969 14.832031 23.3125 14.179688 22.046875 13.828125 L 21.683594 13.738281 C 20.234375 13.421875 18.738281 13.632812 17.296875 14.445312 L 17 14.625 L 16.835938 14.519531 C 14.570312 13.164062 12.261719 13.359375 10.257812 14.5625 Z M 22.597656 17.929688 L 22.640625 17.972656 C 23.828125 19.175781 24.460938 21.199219 23.011719 23.996094 C 21.851562 26.238281 20.042969 27.757812 17.972656 28.691406 C 17.351562 28.96875 16.648438 28.96875 16.027344 28.691406 C 13.957031 27.757812 12.144531 26.238281 10.984375 23.996094 C 9.601562 21.320312 10.121094 19.355469 11.21875 18.125 L 11.386719 17.949219 C 11.488281 17.839844 11.703125 17.664062 12.007812 17.476562 C 13.21875 16.75 14.433594 16.75 15.878906 18.019531 C 16.519531 18.582031 17.480469 18.582031 18.121094 18.019531 C 19.953125 16.410156 21.476562 16.835938 22.597656 17.929688 Z M 22.597656 17.929688 "/>
</clipPath>
<clipPath id="clip-2">
<path clip-rule="nonzero" d="M 11 1 L 23 1 L 23 12 L 11 12 Z M 11 1 "/>
</clipPath>
<clipPath id="clip-3">
<path clip-rule="nonzero" d="M 17 1.699219 C 14.183594 1.699219 11.898438 3.984375 11.898438 6.800781 C 11.898438 9.617188 14.183594 11.898438 17 11.898438 C 19.816406 11.898438 22.101562 9.617188 22.101562 6.800781 C 22.101562 3.984375 19.816406 1.699219 17 1.699219 Z M 17 5.101562 C 17.9375 5.101562 18.699219 5.863281 18.699219 6.800781 C 18.699219 7.738281 17.9375 8.5 17 8.5 C 16.0625 8.5 15.300781 7.738281 15.300781 6.800781 C 15.300781 5.863281 16.0625 5.101562 17 5.101562 Z M 17 5.101562 "/>
</clipPath>
</defs>
<g clip-path="url(#clip-0)">
<g clip-path="url(#clip-1)">
<path fill-rule="nonzero" fill="rgb(94.509888%, 37.254333%, 14.117432%)" fill-opacity="1" d="M 5.507812 12.164062 L 28.492188 12.164062 L 28.492188 33.46875 L 5.507812 33.46875 Z M 5.507812 12.164062 "/>
</g>
</g>
<g clip-path="url(#clip-2)">
<g clip-path="url(#clip-3)">
<path fill-rule="nonzero" fill="rgb(94.509888%, 37.254333%, 14.117432%)" fill-opacity="1" d="M 10.898438 0.699219 L 23.101562 0.699219 L 23.101562 12.898438 L 10.898438 12.898438 Z M 10.898438 0.699219 "/>
</g>
</g>
</svg>
