<?xml version="1.0" encoding="UTF-8"?>
<svg xmlns="http://www.w3.org/2000/svg" xmlns:xlink="http://www.w3.org/1999/xlink" width="30" height="30" viewBox="0 0 30 30">
<path fill-rule="nonzero" fill="rgb(100%, 100%, 100%)" fill-opacity="1" d="M 30 15.003906 L 26.671875 11.199219 L 27.136719 6.167969 L 22.214844 5.050781 L 19.636719 0.699219 L 15 2.691406 L 10.363281 0.699219 L 7.785156 5.050781 L 2.863281 6.15625 L 3.328125 11.199219 L 0 15.003906 L 3.328125 18.808594 L 2.863281 23.855469 L 7.785156 24.972656 L 10.363281 29.335938 L 15 27.332031 L 19.636719 29.324219 L 22.214844 24.972656 L 27.136719 23.855469 L 26.671875 18.824219 Z M 24.613281 17.023438 L 23.851562 17.910156 L 23.960938 19.066406 L 24.203125 21.726562 L 21.613281 22.3125 L 20.46875 22.574219 L 19.867188 23.582031 L 18.519531 25.871094 L 16.089844 24.824219 L 15 24.359375 L 13.921875 24.824219 L 11.496094 25.871094 L 10.144531 23.59375 L 9.546875 22.585938 L 8.398438 22.328125 L 5.808594 21.742188 L 6.054688 19.066406 L 6.164062 17.910156 L 5.398438 17.023438 L 3.640625 15.019531 L 5.398438 13 L 6.164062 12.113281 L 6.039062 10.941406 L 5.796875 8.296875 L 8.386719 7.710938 L 9.53125 7.449219 L 10.132812 6.441406 L 11.480469 4.148438 L 13.910156 5.199219 L 15 5.664062 L 16.078125 5.199219 L 18.503906 4.148438 L 19.855469 6.441406 L 20.453125 7.449219 L 21.601562 7.710938 L 24.191406 8.296875 L 23.945312 10.953125 L 23.835938 12.113281 L 24.601562 13 L 26.359375 15.003906 Z M 24.613281 17.023438 "/>
<path fill-rule="nonzero" fill="rgb(100%, 100%, 100%)" fill-opacity="1" d="M 12.625 17.003906 L 9.460938 13.824219 L 7.445312 15.855469 L 12.625 21.050781 L 22.632812 11.015625 L 20.617188 8.984375 Z M 12.625 17.003906 "/>
</svg>
