<?xml version="1.0" encoding="UTF-8"?><svg id="Calque_5" xmlns="http://www.w3.org/2000/svg" viewBox="0 0 700 700"><defs><style>.cls-1{fill:#ffeadc;}.cls-1,.cls-2{stroke-width:0px;}.cls-2{fill:#f55f24;}</style></defs><circle class="cls-1" cx="350" cy="350" r="281.37"/><path class="cls-2" d="M350,361.31c40.8,0,74,33.2,74,74s-33.2,74-74,74-74-33.2-74-74,33.2-74,74-74M350,310.15c-69.12,0-125.16,56.03-125.16,125.16s56.03,125.16,125.16,125.16,125.16-56.03,125.16-125.16-56.03-125.16-125.16-125.16h0Z"/><rect class="cls-2" x="324.42" y="139.54" width="51.16" height="196.95" rx="9.49" ry="9.49"/><rect class="cls-2" x="267.05" y="195.68" width="165.9" height="51.16" rx="9.49" ry="9.49" transform="translate(-63.47 198.89) rotate(-29.2)"/><rect class="cls-2" x="324.42" y="138.31" width="51.16" height="165.9" rx="9.49" ry="9.49" transform="translate(-13.91 418.8) rotate(-60.79)"/></svg>