<?xml version="1.0" encoding="UTF-8"?>
<svg xmlns="http://www.w3.org/2000/svg" xmlns:xlink="http://www.w3.org/1999/xlink" width="20" height="20" viewBox="0 0 20 20">
<defs>
<clipPath id="clip-0">
<path clip-rule="nonzero" d="M 0 2 L 20 2 L 20 20 L 0 20 Z M 0 2 "/>
</clipPath>
<clipPath id="clip-1">
<path clip-rule="nonzero" d="M 16.941406 2.390625 C 18.5625 2.390625 19.902344 3.628906 19.996094 5.203125 L 20 5.382812 L 20 9.992188 C 20 10.546875 19.550781 10.992188 19 10.992188 C 18.488281 10.992188 18.0625 10.609375 18.007812 10.109375 L 18 9.992188 L 18 5.382812 C 18 4.875 17.59375 4.449219 17.058594 4.394531 L 16.941406 4.390625 L 3.054688 4.390625 C 2.503906 4.390625 2.0625 4.78125 2.007812 5.273438 L 2 5.382812 L 2 17.007812 C 2 17.511719 2.40625 17.9375 2.941406 17.992188 L 3.054688 18 L 9.378906 18 C 9.929688 18 10.378906 18.449219 10.378906 19 C 10.378906 19.511719 9.992188 19.933594 9.496094 19.992188 L 9.378906 20 L 3.054688 20 C 1.433594 20 0.0976562 18.761719 0.00390625 17.183594 L 0 17.007812 L 0 5.382812 C 0 3.78125 1.277344 2.484375 2.878906 2.394531 L 3.054688 2.390625 Z M 16.941406 2.390625 "/>
</clipPath>
<clipPath id="clip-2">
<path clip-rule="nonzero" d="M 0 8 L 20 8 L 20 11 L 0 11 Z M 0 8 "/>
</clipPath>
<clipPath id="clip-3">
<path clip-rule="nonzero" d="M 19 8.078125 C 19.550781 8.078125 20 8.527344 20 9.078125 C 20 9.589844 19.613281 10.015625 19.117188 10.070312 L 19 10.078125 L 1 10.078125 C 0.449219 10.078125 0 9.628906 0 9.078125 C 0 8.566406 0.386719 8.144531 0.882812 8.085938 L 1 8.078125 Z M 19 8.078125 "/>
</clipPath>
<clipPath id="clip-4">
<path clip-rule="nonzero" d="M 4 0 L 7 0 L 7 7 L 4 7 Z M 4 0 "/>
</clipPath>
<clipPath id="clip-5">
<path clip-rule="nonzero" d="M 5.765625 0 C 6.28125 0 6.703125 0.386719 6.761719 0.882812 L 6.765625 1 L 6.765625 5.328125 C 6.765625 5.878906 6.320312 6.328125 5.765625 6.328125 C 5.253906 6.328125 4.832031 5.941406 4.773438 5.441406 L 4.765625 5.328125 L 4.765625 1 C 4.765625 0.449219 5.214844 0 5.765625 0 Z M 5.765625 0 "/>
</clipPath>
<clipPath id="clip-6">
<path clip-rule="nonzero" d="M 13 0 L 16 0 L 16 7 L 13 7 Z M 13 0 "/>
</clipPath>
<clipPath id="clip-7">
<path clip-rule="nonzero" d="M 14.214844 0 C 14.726562 0 15.148438 0.386719 15.207031 0.882812 L 15.214844 1 L 15.214844 5.328125 C 15.214844 5.878906 14.765625 6.328125 14.214844 6.328125 C 13.703125 6.328125 13.277344 5.941406 13.222656 5.441406 L 13.214844 5.328125 L 13.214844 1 C 13.214844 0.449219 13.660156 0 14.214844 0 Z M 14.214844 0 "/>
</clipPath>
<clipPath id="clip-8">
<path clip-rule="nonzero" d="M 11 11 L 20 11 L 20 20 L 11 20 Z M 11 11 "/>
</clipPath>
<clipPath id="clip-9">
<path clip-rule="nonzero" d="M 18.304688 12.230469 C 18.699219 11.84375 19.332031 11.855469 19.71875 12.25 C 20.074219 12.617188 20.089844 13.183594 19.78125 13.574219 L 19.695312 13.664062 L 13.449219 19.71875 C 13.054688 20.101562 12.421875 20.09375 12.035156 19.695312 C 11.679688 19.328125 11.664062 18.761719 11.972656 18.375 L 12.058594 18.28125 Z M 18.304688 12.230469 "/>
</clipPath>
<clipPath id="clip-10">
<path clip-rule="nonzero" d="M 11 11 L 20 11 L 20 20 L 11 20 Z M 11 11 "/>
</clipPath>
<clipPath id="clip-11">
<path clip-rule="nonzero" d="M 12.035156 12.25 C 12.390625 11.886719 12.957031 11.847656 13.355469 12.148438 L 13.449219 12.230469 L 19.695312 18.28125 C 20.09375 18.667969 20.101562 19.300781 19.71875 19.695312 C 19.363281 20.0625 18.796875 20.097656 18.398438 19.800781 L 18.304688 19.71875 L 12.058594 13.664062 C 11.660156 13.28125 11.652344 12.648438 12.035156 12.25 Z M 12.035156 12.25 "/>
</clipPath>
</defs>
<g clip-path="url(#clip-0)">
<g clip-path="url(#clip-1)">
<path fill-rule="nonzero" fill="rgb(43.920898%, 43.920898%, 43.920898%)" fill-opacity="1" d="M -1 1.390625 L 21 1.390625 L 21 21 L -1 21 Z M -1 1.390625 "/>
</g>
</g>
<g clip-path="url(#clip-2)">
<g clip-path="url(#clip-3)">
<path fill-rule="nonzero" fill="rgb(43.920898%, 43.920898%, 43.920898%)" fill-opacity="1" d="M -1 7.078125 L 21 7.078125 L 21 11.078125 L -1 11.078125 Z M -1 7.078125 "/>
</g>
</g>
<g clip-path="url(#clip-4)">
<g clip-path="url(#clip-5)">
<path fill-rule="nonzero" fill="rgb(43.920898%, 43.920898%, 43.920898%)" fill-opacity="1" d="M 3.765625 -1 L 7.765625 -1 L 7.765625 7.328125 L 3.765625 7.328125 Z M 3.765625 -1 "/>
</g>
</g>
<g clip-path="url(#clip-6)">
<g clip-path="url(#clip-7)">
<path fill-rule="nonzero" fill="rgb(43.920898%, 43.920898%, 43.920898%)" fill-opacity="1" d="M 12.214844 -1 L 16.214844 -1 L 16.214844 7.328125 L 12.214844 7.328125 Z M 12.214844 -1 "/>
</g>
</g>
<g clip-path="url(#clip-8)">
<g clip-path="url(#clip-9)">
<path fill-rule="nonzero" fill="rgb(43.920898%, 43.920898%, 43.920898%)" fill-opacity="1" d="M 10.664062 10.84375 L 21 10.84375 L 21 21 L 10.664062 21 Z M 10.664062 10.84375 "/>
</g>
</g>
<g clip-path="url(#clip-10)">
<g clip-path="url(#clip-11)">
<path fill-rule="nonzero" fill="rgb(43.920898%, 43.920898%, 43.920898%)" fill-opacity="1" d="M 10.652344 10.847656 L 21 10.847656 L 21 21 L 10.652344 21 Z M 10.652344 10.847656 "/>
</g>
</g>
</svg>
