<?xml version="1.0" encoding="UTF-8"?>
<svg xmlns="http://www.w3.org/2000/svg" xmlns:xlink="http://www.w3.org/1999/xlink" width="24" height="21" viewBox="0 0 24 21">
<path fill-rule="evenodd" fill="rgb(79.60968%, 79.60968%, 79.60968%)" fill-opacity="1" d="M 2.464844 2.035156 L 2.363281 2.132812 C 2.261719 2.238281 2.15625 2.355469 2.042969 2.492188 L 1.914062 2.648438 C -0.15625 5.296875 -0.84375 8.902344 1.355469 13.125 C 3.140625 16.550781 5.90625 18.855469 9.039062 20.261719 C 10.628906 20.972656 12.4375 20.972656 14.023438 20.261719 C 17.160156 18.855469 19.921875 16.550781 21.707031 13.125 C 23.90625 8.902344 23.21875 5.296875 21.15625 2.664062 L 20.933594 2.390625 L 20.765625 2.203125 C 20.742188 2.175781 20.71875 2.152344 20.695312 2.128906 L 20.605469 2.039062 C 20.355469 1.796875 20.015625 1.515625 19.589844 1.234375 C 18.941406 0.804688 18.222656 0.460938 17.441406 0.242188 L 17.179688 0.175781 C 15.339844 -0.257812 13.4375 0.09375 11.597656 1.40625 L 11.53125 1.449219 L 11.46875 1.40625 C 9.539062 0.03125 7.542969 -0.289062 5.621094 0.242188 C 4.839844 0.460938 4.121094 0.804688 3.476562 1.234375 C 3.046875 1.515625 2.707031 1.796875 2.464844 2.035156 Z M 2.464844 2.035156 "/>
</svg>
