<?xml version="1.0" encoding="UTF-8"?>
<svg xmlns="http://www.w3.org/2000/svg" xmlns:xlink="http://www.w3.org/1999/xlink" width="20" height="20" viewBox="0 0 20 20">
<path fill-rule="evenodd" fill="rgb(43.920898%, 43.920898%, 43.920898%)" fill-opacity="1" d="M 27 6.75 C 27 3.023438 23.976562 0 20.25 0 L 6.75 0 C 3.023438 0 0 3.023438 0 6.75 L 0 20.25 C 0 23.972656 3.023438 27 6.75 27 L 20.25 27 C 23.976562 27 27 23.972656 27 20.25 Z M 25 6.75 L 25 20.25 C 25 22.871094 22.871094 25 20.25 25 C 20.25 25 6.75 25 6.75 25 C 4.128906 25 2 22.871094 2 20.25 L 2 6.75 C 2 4.128906 4.128906 2 6.75 2 L 20.25 2 C 22.871094 2 25 4.128906 25 6.75 Z M 25 6.75 "/>
</svg>
