<?xml version="1.0" encoding="UTF-8"?>
<svg xmlns="http://www.w3.org/2000/svg" xmlns:xlink="http://www.w3.org/1999/xlink" width="75" height="66" viewBox="0 0 75 66">
<defs>
<clipPath id="clip-0">
<path clip-rule="nonzero" d="M 0.824219 4.605469 L 53.011719 4.605469 L 53.011719 56.789062 L 0.824219 56.789062 Z M 0.824219 4.605469 "/>
</clipPath>
<clipPath id="clip-1">
<path clip-rule="evenodd" d="M 52.949219 28.875 C 53.972656 43.917969 42.246094 56.476562 27.492188 56.789062 L 8.664062 56.789062 C 8.265625 56.789062 8.085938 56.292969 8.390625 56.035156 L 11.753906 53.210938 C 12.167969 52.867188 12.148438 52.222656 11.710938 51.90625 C 11.238281 51.570312 10.777344 51.214844 10.328125 50.84375 C 4.523438 46.054688 0.824219 38.816406 0.824219 30.703125 C 0.824219 15.734375 13.425781 3.707031 28.59375 4.65625 C 41.527344 5.464844 52.070312 15.945312 52.949219 28.875 "/>
</clipPath>
<clipPath id="clip-2">
<path clip-rule="nonzero" d="M 31 19 L 75 19 L 75 63 L 31 63 Z M 31 19 "/>
</clipPath>
<clipPath id="clip-3">
<path clip-rule="evenodd" d="M 52.539062 62.929688 L 68.046875 62.929688 C 68.375 62.929688 68.523438 62.519531 68.269531 62.308594 L 65.5 59.984375 C 65.160156 59.699219 65.175781 59.167969 65.535156 58.910156 C 65.925781 58.628906 66.304688 58.335938 66.671875 58.035156 C 71.453125 54.089844 74.5 48.128906 74.5 41.445312 C 74.5 29.117188 64.125 19.214844 51.632812 19.996094 C 40.980469 20.660156 32.300781 29.292969 31.574219 39.941406 C 30.730469 52.328125 40.390625 62.671875 52.539062 62.929688 Z M 52.539062 62.929688 "/>
</clipPath>
<clipPath id="clip-4">
<path clip-rule="nonzero" d="M 51 39 L 55 39 L 55 43 L 51 43 Z M 51 39 "/>
</clipPath>
<clipPath id="clip-5">
<path clip-rule="evenodd" d="M 54.546875 41.441406 C 54.546875 42.289062 53.859375 42.976562 53.011719 42.976562 C 52.164062 42.976562 51.476562 42.289062 51.476562 41.441406 C 51.476562 40.59375 52.164062 39.90625 53.011719 39.90625 C 53.859375 39.90625 54.546875 40.59375 54.546875 41.441406 "/>
</clipPath>
<clipPath id="clip-6">
<path clip-rule="nonzero" d="M 45 39 L 49 39 L 49 43 L 45 43 Z M 45 39 "/>
</clipPath>
<clipPath id="clip-7">
<path clip-rule="evenodd" d="M 48.40625 41.441406 C 48.40625 42.289062 47.71875 42.976562 46.871094 42.976562 C 46.023438 42.976562 45.335938 42.289062 45.335938 41.441406 C 45.335938 40.59375 46.023438 39.90625 46.871094 39.90625 C 47.71875 39.90625 48.40625 40.59375 48.40625 41.441406 "/>
</clipPath>
<clipPath id="clip-8">
<path clip-rule="nonzero" d="M 57 39 L 61 39 L 61 43 L 57 43 Z M 57 39 "/>
</clipPath>
<clipPath id="clip-9">
<path clip-rule="evenodd" d="M 60.6875 41.441406 C 60.6875 42.289062 60 42.976562 59.152344 42.976562 C 58.304688 42.976562 57.617188 42.289062 57.617188 41.441406 C 57.617188 40.59375 58.304688 39.90625 59.152344 39.90625 C 60 39.90625 60.6875 40.59375 60.6875 41.441406 "/>
</clipPath>
<clipPath id="clip-10">
<path clip-rule="nonzero" d="M 23 29 L 27 29 L 27 33 L 23 33 Z M 23 29 "/>
</clipPath>
<clipPath id="clip-11">
<path clip-rule="evenodd" d="M 26.917969 30.699219 C 26.917969 31.546875 26.230469 32.234375 25.382812 32.234375 C 24.535156 32.234375 23.847656 31.546875 23.847656 30.699219 C 23.847656 29.851562 24.535156 29.164062 25.382812 29.164062 C 26.230469 29.164062 26.917969 29.851562 26.917969 30.699219 "/>
</clipPath>
<clipPath id="clip-12">
<path clip-rule="nonzero" d="M 17 29 L 21 29 L 21 33 L 17 33 Z M 17 29 "/>
</clipPath>
<clipPath id="clip-13">
<path clip-rule="evenodd" d="M 20.777344 30.699219 C 20.777344 31.546875 20.09375 32.234375 19.246094 32.234375 C 18.398438 32.234375 17.710938 31.546875 17.710938 30.699219 C 17.710938 29.851562 18.398438 29.164062 19.246094 29.164062 C 20.09375 29.164062 20.777344 29.851562 20.777344 30.699219 "/>
</clipPath>
<clipPath id="clip-14">
<path clip-rule="nonzero" d="M 29 29 L 34 29 L 34 33 L 29 33 Z M 29 29 "/>
</clipPath>
<clipPath id="clip-15">
<path clip-rule="evenodd" d="M 33.058594 30.699219 C 33.058594 31.546875 32.371094 32.234375 31.523438 32.234375 C 30.675781 32.234375 29.988281 31.546875 29.988281 30.699219 C 29.988281 29.851562 30.675781 29.164062 31.523438 29.164062 C 32.371094 29.164062 33.058594 29.851562 33.058594 30.699219 "/>
</clipPath>
</defs>
<g clip-path="url(#clip-0)">
<g clip-path="url(#clip-1)">
<path fill-rule="nonzero" fill="rgb(93.333435%, 37.254333%, 14.117432%)" fill-opacity="1" d="M -0.175781 3.605469 L 54.011719 3.605469 L 54.011719 57.789062 L -0.175781 57.789062 Z M -0.175781 3.605469 "/>
</g>
</g>
<g clip-path="url(#clip-2)">
<g clip-path="url(#clip-3)">
<path fill-rule="nonzero" fill="rgb(97.647095%, 90.588379%, 85.882568%)" fill-opacity="1" d="M 29.730469 18.214844 L 75.5 18.214844 L 75.5 63.929688 L 29.730469 63.929688 Z M 29.730469 18.214844 "/>
</g>
</g>
<g clip-path="url(#clip-4)">
<g clip-path="url(#clip-5)">
<path fill-rule="nonzero" fill="rgb(96.078491%, 37.254333%, 14.117432%)" fill-opacity="1" d="M 50.476562 38.90625 L 55.546875 38.90625 L 55.546875 43.976562 L 50.476562 43.976562 Z M 50.476562 38.90625 "/>
</g>
</g>
<g clip-path="url(#clip-6)">
<g clip-path="url(#clip-7)">
<path fill-rule="nonzero" fill="rgb(96.078491%, 37.254333%, 14.117432%)" fill-opacity="1" d="M 44.335938 38.90625 L 49.40625 38.90625 L 49.40625 43.976562 L 44.335938 43.976562 Z M 44.335938 38.90625 "/>
</g>
</g>
<g clip-path="url(#clip-8)">
<g clip-path="url(#clip-9)">
<path fill-rule="nonzero" fill="rgb(96.078491%, 37.254333%, 14.117432%)" fill-opacity="1" d="M 56.617188 38.90625 L 61.6875 38.90625 L 61.6875 43.976562 L 56.617188 43.976562 Z M 56.617188 38.90625 "/>
</g>
</g>
<g clip-path="url(#clip-10)">
<g clip-path="url(#clip-11)">
<path fill-rule="nonzero" fill="rgb(100%, 98.823547%, 98.039246%)" fill-opacity="1" d="M 22.847656 28.164062 L 27.917969 28.164062 L 27.917969 33.234375 L 22.847656 33.234375 Z M 22.847656 28.164062 "/>
</g>
</g>
<g clip-path="url(#clip-12)">
<g clip-path="url(#clip-13)">
<path fill-rule="nonzero" fill="rgb(100%, 98.823547%, 98.039246%)" fill-opacity="1" d="M 16.710938 28.164062 L 21.777344 28.164062 L 21.777344 33.234375 L 16.710938 33.234375 Z M 16.710938 28.164062 "/>
</g>
</g>
<g clip-path="url(#clip-14)">
<g clip-path="url(#clip-15)">
<path fill-rule="nonzero" fill="rgb(100%, 98.823547%, 98.039246%)" fill-opacity="1" d="M 28.988281 28.164062 L 34.058594 28.164062 L 34.058594 33.234375 L 28.988281 33.234375 Z M 28.988281 28.164062 "/>
</g>
</g>
</svg>
