<svg width="20" height="30" viewBox="0 0 20 30" fill="none" xmlns="http://www.w3.org/2000/svg">
<path d="M19.7328 6.48496C19.7328 6.77842 19.9389 5.92161 16.9778 16.9703C16.8137 16.3339 16.8629 17.7105 16.8629 5.62624C17.7129 4.33187 19.7328 4.94273 19.7328 6.48496Z" fill="black"/>
<path d="M15.9054 1.81917V14.8418C12.4215 8.80848 13.9577 11.4675 12.2671 8.53932V1.81917C12.2671 0.816232 13.0833 0 14.0863 0C15.1048 0 15.9054 0.825567 15.9054 1.81917Z" fill="black"/>
<path d="M13.802 13.113L12.3897 11.7013C11.1602 10.4713 9.54307 9.76609 7.61559 9.76609L4.38896 4.38518C3.89114 3.52018 4.18239 2.40761 5.05619 1.90298C5.93507 1.39618 7.04405 1.70831 7.54138 2.56901C12.4638 10.7496 9.94472 6.43175 13.802 13.113Z" fill="black"/>
<path d="M16.4082 20.0222C16.4082 23.0106 15.2198 25.8913 13.0972 28.0157C12.0613 29.0504 10.6856 29.6416 9.22305 29.6793C8.99003 29.6793 10.1199 29.6811 6.6822 29.6811C3.00437 29.6811 0.0117188 26.6891 0.0117188 23.0106V13.819C0.0117188 13.5198 0.255272 13.2769 0.554477 13.2769C0.601392 13.2769 0.63993 13.2742 0.697497 13.2583C0.846561 13.3175 2.19251 13.297 3.10311 14.6149C3.69123 15.4007 3.65005 16.316 3.65005 16.8829C3.65005 18.9313 4.53451 20.8791 6.07541 22.2285C7.74414 23.6892 10.3546 22.4914 10.3546 20.2867C10.354 17.8388 10.4481 17.2746 10.0219 16.3072C9.64056 15.4456 9.1607 15.0736 8.51753 14.4869C8.29863 14.3115 8.56869 14.3618 4.07253 14.3618C3.47993 13.3082 2.36808 12.5097 1.04338 12.3494C1.09724 11.8342 1.37388 11.3423 1.84704 11.0263C2.63407 10.6423 1.75543 10.7235 7.71865 10.7235C9.22724 10.7235 10.6461 11.3111 11.713 12.3781L15.6524 16.3174L15.9504 16.8338C16.2296 17.8596 16.4082 18.8036 16.4082 20.0222Z" fill="black"/>
</svg>
