<?xml version="1.0" encoding="UTF-8"?>
<svg xmlns="http://www.w3.org/2000/svg" xmlns:xlink="http://www.w3.org/1999/xlink" width="34" height="34" viewBox="0 0 34 34">
<defs>
<clipPath id="clip-0">
<path clip-rule="nonzero" d="M 11 13 L 22 13 L 22 22 L 11 22 Z M 11 13 "/>
</clipPath>
<clipPath id="clip-1">
<path clip-rule="evenodd" d="M 20.238281 13.972656 C 20.238281 13.972656 18.550781 12.207031 16.554688 13.972656 C 14.5625 12.207031 12.871094 13.972656 12.871094 13.972656 C 12.871094 13.972656 11.109375 15.660156 12.492188 18.34375 C 13.359375 20.035156 14.746094 20.90625 15.652344 21.316406 C 16.230469 21.578125 16.882812 21.578125 17.457031 21.316406 C 18.367188 20.90625 19.75 20.035156 20.621094 18.34375 C 22 15.660156 20.238281 13.972656 20.238281 13.972656 "/>
</clipPath>
<clipPath id="clip-2">
<path clip-rule="nonzero" d="M 3 0 L 31 0 L 31 34 L 3 34 Z M 3 0 "/>
</clipPath>
<clipPath id="clip-3">
<path clip-rule="nonzero" d="M 21.757812 0 L 12.242188 0 C 7.375 0 3.398438 3.824219 3.398438 8.578125 L 3.398438 25.414062 C 3.398438 30.167969 7.375 33.992188 12.242188 33.992188 L 21.757812 33.992188 C 26.625 33.992188 30.601562 30.167969 30.601562 25.414062 L 30.601562 8.578125 C 30.601562 3.824219 26.625 0 21.757812 0 Z M 12.242188 3.398438 L 21.757812 3.398438 C 24.777344 3.398438 27.199219 5.730469 27.199219 8.578125 L 27.199219 25.414062 C 27.199219 28.261719 24.777344 30.59375 21.757812 30.59375 L 12.242188 30.59375 C 9.222656 30.59375 6.800781 28.261719 6.800781 25.414062 L 6.800781 8.578125 C 6.800781 5.730469 9.222656 3.398438 12.242188 3.398438 Z M 12.242188 3.398438 "/>
</clipPath>
<clipPath id="clip-4">
<path clip-rule="nonzero" d="M 10 6 L 16 6 L 16 11 L 10 11 Z M 10 6 "/>
</clipPath>
<clipPath id="clip-5">
<path clip-rule="nonzero" d="M 13.527344 6.8125 C 14.464844 6.8125 15.226562 7.574219 15.226562 8.511719 C 15.226562 9.386719 14.570312 10.101562 13.722656 10.203125 L 13.527344 10.214844 L 11.921875 10.214844 C 10.984375 10.214844 10.222656 9.453125 10.222656 8.511719 C 10.222656 7.640625 10.878906 6.921875 11.722656 6.824219 L 11.921875 6.8125 Z M 13.527344 6.8125 "/>
</clipPath>
<clipPath id="clip-6">
<path clip-rule="nonzero" d="M 18 23 L 24 23 L 24 28 L 18 28 Z M 18 23 "/>
</clipPath>
<clipPath id="clip-7">
<path clip-rule="nonzero" d="M 22.101562 23.800781 C 23.039062 23.800781 23.800781 24.5625 23.800781 25.5 C 23.800781 26.371094 23.144531 27.089844 22.300781 27.191406 L 22.101562 27.199219 L 20.496094 27.199219 C 19.558594 27.199219 18.796875 26.441406 18.796875 25.5 C 18.796875 24.628906 19.453125 23.910156 20.300781 23.8125 L 20.496094 23.800781 Z M 22.101562 23.800781 "/>
</clipPath>
</defs>
<g clip-path="url(#clip-0)">
<g clip-path="url(#clip-1)">
<path fill-rule="nonzero" fill="rgb(94.509888%, 37.254333%, 14.117432%)" fill-opacity="1" d="M 10.109375 11.207031 L 23 11.207031 L 23 22.578125 L 10.109375 22.578125 Z M 10.109375 11.207031 "/>
</g>
</g>
<g clip-path="url(#clip-2)">
<g clip-path="url(#clip-3)">
<path fill-rule="nonzero" fill="rgb(94.509888%, 37.254333%, 14.117432%)" fill-opacity="1" d="M 2.398438 -1 L 31.601562 -1 L 31.601562 34.992188 L 2.398438 34.992188 Z M 2.398438 -1 "/>
</g>
</g>
<g clip-path="url(#clip-4)">
<g clip-path="url(#clip-5)">
<path fill-rule="nonzero" fill="rgb(94.509888%, 37.254333%, 14.117432%)" fill-opacity="1" d="M 9.222656 5.8125 L 16.226562 5.8125 L 16.226562 11.214844 L 9.222656 11.214844 Z M 9.222656 5.8125 "/>
</g>
</g>
<g clip-path="url(#clip-6)">
<g clip-path="url(#clip-7)">
<path fill-rule="nonzero" fill="rgb(94.509888%, 37.254333%, 14.117432%)" fill-opacity="1" d="M 17.796875 22.800781 L 24.800781 22.800781 L 24.800781 28.199219 L 17.796875 28.199219 Z M 17.796875 22.800781 "/>
</g>
</g>
</svg>
