<?xml version="1.0" encoding="UTF-8"?>
<svg xmlns="http://www.w3.org/2000/svg" xmlns:xlink="http://www.w3.org/1999/xlink" width="23.740784" height="20.778076" viewBox="0 0 23.740784 20.778076">
<defs>
<clipPath id="clip-0">
<path clip-rule="nonzero" d="M 0 0 L 23.742188 0 L 23.742188 20.777344 L 0 20.777344 Z M 0 0 "/>
</clipPath>
</defs>
<g clip-path="url(#clip-0)">
<path fill-rule="evenodd" fill="rgb(79.606628%, 79.606628%, 79.606628%)" fill-opacity="1" d="M 20.929688 10.109375 L 20.929688 16.523438 C 20.929688 18.863281 18.996094 20.777344 16.636719 20.777344 L 14.699219 20.777344 C 14.328125 20.777344 14.023438 20.480469 14.023438 20.109375 L 14.023438 15.066406 C 14.023438 13.933594 13.160156 12.941406 12.015625 12.867188 C 10.761719 12.785156 9.714844 13.769531 9.714844 14.992188 L 9.714844 20.109375 C 9.714844 20.480469 9.414062 20.777344 9.042969 20.777344 L 7.109375 20.777344 C 4.746094 20.777344 2.8125 18.863281 2.8125 16.523438 L 2.8125 10.109375 L 0.972656 10.109375 C 0.0195312 10.109375 -0.363281 8.894531 0.417969 8.359375 L 11.320312 0.167969 C 11.652344 -0.0546875 12.089844 -0.0546875 12.421875 0.167969 L 23.320312 8.359375 C 24.101562 8.894531 23.71875 10.109375 22.769531 10.109375 Z M 20.929688 10.109375 "/>
</g>
</svg>
