<svg width="45" height="38" viewBox="0 0 45 38" fill="none" xmlns="http://www.w3.org/2000/svg">
<g clip-path="url(#clip0_2889_3424)">
<path d="M0.615217 8.90902L3.29233 7.78786C3.85308 7.54288 13.8713 7.87273 18.6582 7.78794L27.4387 31.3333C26.3399 31.0679 21.9156 31.6425 19.5287 32.3162C17.1228 32.9899 9.32893 36.9393 9.32893 36.9393L0.615217 8.90902Z" fill="#F55F24"/>
<path d="M27.6222 31.5214C27.1003 30.5316 25.8825 30.5316 25.0127 30.4326C24.0462 30.2941 20.4702 30.8286 20.4702 30.8286C18.4985 31.1651 11.5242 34.1365 11.5242 34.1365L2.5127 6.93397C2.5127 6.93397 6.398 5.62739 11.3658 5.33044C16.3529 5.03349 18.9044 7.09234 18.9044 7.09234L26.7717 29.324" fill="white"/>
<path d="M18.9043 7.09227C19.0203 6.24102 22.9829 4.45932 24.6259 3.72684C26.269 2.97456 34.9481 0.519775 34.9481 0.519775L45.019 25.3052C45.019 25.3052 39.2393 26.493 35.5473 27.6214C31.8553 28.7498 27.7574 31.2442 27.6414 31.5412" fill="#F3C8B3"/>
<path fill-rule="evenodd" clip-rule="evenodd" d="M34.0606 14.561L29.3648 16.5578C28.2066 17.0505 26.8929 16.489 26.4296 15.3037L24.552 10.4984C24.0888 9.31362 24.6522 7.95375 25.8105 7.46153L30.5062 5.46432C31.6641 4.97213 32.9782 5.53361 33.4415 6.71842L35.3191 11.5237C35.7819 12.709 35.2185 14.0689 34.0606 14.561Z" fill="#FFFAF8"/>
<path d="M36.7679 17.3182C35.1216 17.8788 30.7314 19.5607 29.6338 20.1213" stroke="#653825" stroke-width="0.66" stroke-linecap="round"/>
<path d="M37.8656 19.5605C36.2193 20.1212 31.829 21.803 30.7314 22.3636" stroke="#653825" stroke-width="0.66" stroke-linecap="round"/>
<path d="M38.9632 21.803C37.3169 22.3636 32.9267 24.0454 31.8291 24.606" stroke="#653825" stroke-width="0.66" stroke-linecap="round"/>
<path fill-rule="evenodd" clip-rule="evenodd" d="M30.9346 8.88647C30.9346 8.88647 29.8609 8.39825 29.2825 9.58893C28.0711 9.15969 27.6304 10.2914 27.6304 10.2914C27.6304 10.2914 27.1415 11.4033 28.243 12.3723C28.9361 12.9826 29.714 13.1175 30.1952 13.1335C30.5 13.1436 30.7937 13.0185 31.0052 12.7889C31.3386 12.4264 31.8042 11.7631 31.8912 10.8211C32.029 9.32471 30.9346 8.88647 30.9346 8.88647Z" fill="#EF5F24"/>
<path d="M7.80957 12.3384C9.72323 11.883 14.2658 11.0516 17.1652 11.4475" stroke="#653825" stroke-width="0.66" stroke-miterlimit="10" stroke-linecap="round"/>
<path d="M9.12402 15.5851C11.0377 15.1496 15.5802 14.3973 18.4797 14.7338" stroke="#653825" stroke-width="0.66" stroke-miterlimit="10" stroke-linecap="round"/>
<path d="M10.3604 18.7327C12.274 18.2972 16.8165 17.5449 19.716 17.8814" stroke="#653825" stroke-width="0.66" stroke-miterlimit="10" stroke-linecap="round"/>
<path d="M11.5781 22.0388C13.4918 21.6033 18.0343 20.851 20.9338 21.1876" stroke="#653825" stroke-width="0.66" stroke-miterlimit="10" stroke-linecap="round"/>
<path d="M12.6611 25.3449C14.5748 24.9093 19.1173 24.1571 22.0168 24.4936" stroke="#653825" stroke-width="0.66" stroke-miterlimit="10" stroke-linecap="round"/>
</g>
<defs>
<clipPath id="clip0_2889_3424">
<rect width="45" height="37" fill="white" transform="translate(0 0.5)"/>
</clipPath>
</defs>
</svg>
