<?xml version="1.0" encoding="UTF-8"?>
<svg xmlns="http://www.w3.org/2000/svg" xmlns:xlink="http://www.w3.org/1999/xlink" width="32" height="32" viewBox="0 0 32 32">
<path fill-rule="nonzero" fill="rgb(83.920288%, 21.176147%, 28.627014%)" fill-opacity="1" d="M 32 16 C 32 24.835938 24.835938 32 16 32 C 7.164062 32 0 24.835938 0 16 C 0 7.164062 7.164062 0 16 0 C 24.835938 0 32 7.164062 32 16 Z M 32 16 "/>
<path fill-rule="nonzero" fill="rgb(100%, 100%, 100%)" fill-opacity="1" d="M 21.832031 8.5 L 10.167969 8.5 C 9.25 8.5 8.507812 9.25 8.507812 10.167969 L 8.5 21.832031 C 8.5 22.75 9.25 23.5 10.167969 23.5 L 21.832031 23.5 C 22.75 23.5 23.5 22.75 23.5 21.832031 L 23.5 10.167969 C 23.5 9.25 22.75 8.5 21.832031 8.5 Z M 21 17.667969 L 17.667969 17.667969 L 17.667969 21 L 14.332031 21 L 14.332031 17.667969 L 11 17.667969 L 11 14.332031 L 14.332031 14.332031 L 14.332031 11 L 17.667969 11 L 17.667969 14.332031 L 21 14.332031 Z M 21 17.667969 "/>
</svg>
