<?xml version="1.0" encoding="UTF-8"?>
<svg xmlns="http://www.w3.org/2000/svg" xmlns:xlink="http://www.w3.org/1999/xlink" width="20" height="20" viewBox="0 0 20 20">
<defs>
<clipPath id="clip-0">
<path clip-rule="nonzero" d="M 11 4 L 17 4 L 17 10 L 11 10 Z M 11 4 "/>
</clipPath>
<clipPath id="clip-1">
<path clip-rule="nonzero" d="M 14 4 C 12.34375 4 11 5.34375 11 7 C 11 8.65625 12.34375 10 14 10 C 15.65625 10 17 8.65625 17 7 C 17 5.34375 15.65625 4 14 4 Z M 14 6 C 14.550781 6 15 6.449219 15 7 C 15 7.550781 14.550781 8 14 8 C 13.449219 8 13 7.550781 13 7 C 13 6.449219 13.449219 6 14 6 Z M 14 6 "/>
</clipPath>
<clipPath id="clip-2">
<path clip-rule="nonzero" d="M 8 11 L 20 11 L 20 19 L 8 19 Z M 8 11 "/>
</clipPath>
<clipPath id="clip-3">
<path clip-rule="nonzero" d="M 14 11 C 16.511719 11 18.738281 12.613281 19.769531 15.050781 C 20.515625 16.816406 19.367188 18.875 17.535156 18.996094 L 17.367188 19 L 10.632812 19 C 8.703125 19 7.464844 16.871094 8.230469 15.050781 L 8.335938 14.816406 L 8.449219 14.582031 L 10.230469 15.488281 C 10.175781 15.601562 10.121094 15.714844 10.074219 15.828125 C 9.855469 16.347656 10.15625 16.921875 10.550781 16.992188 L 10.632812 17 L 17.367188 17 C 17.800781 17 18.160156 16.382812 17.925781 15.828125 C 17.199219 14.101562 15.675781 13 14 13 C 13.238281 13 12.503906 13.226562 11.855469 13.648438 L 11.640625 13.796875 L 10.449219 12.1875 C 11.488281 11.417969 12.714844 11 14 11 Z M 14 11 "/>
</clipPath>
<clipPath id="clip-4">
<path clip-rule="nonzero" d="M 3 1 L 9 1 L 9 7 L 3 7 Z M 3 1 "/>
</clipPath>
<clipPath id="clip-5">
<path clip-rule="nonzero" d="M 6 1 C 4.34375 1 3 2.34375 3 4 C 3 5.65625 4.34375 7 6 7 C 7.65625 7 9 5.65625 9 4 C 9 2.34375 7.65625 1 6 1 Z M 6 3 C 6.550781 3 7 3.449219 7 4 C 7 4.550781 6.550781 5 6 5 C 5.449219 5 5 4.550781 5 4 C 5 3.449219 5.449219 3 6 3 Z M 6 3 "/>
</clipPath>
<clipPath id="clip-6">
<path clip-rule="nonzero" d="M 0 8 L 12 8 L 12 16 L 0 16 Z M 0 8 "/>
</clipPath>
<clipPath id="clip-7">
<path clip-rule="nonzero" d="M 6 8 C 3.484375 8 1.261719 9.613281 0.230469 12.050781 C -0.535156 13.871094 0.703125 16 2.632812 16 L 9.367188 16 C 11.296875 16 12.535156 13.871094 11.769531 12.050781 C 10.738281 9.613281 8.511719 8 6 8 Z M 6 10 C 7.675781 10 9.199219 11.101562 9.925781 12.828125 C 10.160156 13.382812 9.800781 14 9.367188 14 L 2.632812 14 C 2.199219 14 1.839844 13.382812 2.074219 12.828125 C 2.800781 11.101562 4.324219 10 6 10 Z M 6 10 "/>
</clipPath>
</defs>
<g clip-path="url(#clip-0)">
<g clip-path="url(#clip-1)">
<path fill-rule="nonzero" fill="rgb(43.920898%, 43.920898%, 43.920898%)" fill-opacity="1" d="M 10 3 L 18 3 L 18 11 L 10 11 Z M 10 3 "/>
</g>
</g>
<g clip-path="url(#clip-2)">
<g clip-path="url(#clip-3)">
<path fill-rule="nonzero" fill="rgb(43.920898%, 43.920898%, 43.920898%)" fill-opacity="1" d="M 6.464844 10 L 21 10 L 21 20 L 6.464844 20 Z M 6.464844 10 "/>
</g>
</g>
<g clip-path="url(#clip-4)">
<g clip-path="url(#clip-5)">
<path fill-rule="nonzero" fill="rgb(43.920898%, 43.920898%, 43.920898%)" fill-opacity="1" d="M 2 0 L 10 0 L 10 8 L 2 8 Z M 2 0 "/>
</g>
</g>
<g clip-path="url(#clip-6)">
<g clip-path="url(#clip-7)">
<path fill-rule="nonzero" fill="rgb(43.920898%, 43.920898%, 43.920898%)" fill-opacity="1" d="M -1 7 L 13.535156 7 L 13.535156 17 L -1 17 Z M -1 7 "/>
</g>
</g>
</svg>
