<?xml version="1.0" encoding="UTF-8"?>
<svg xmlns="http://www.w3.org/2000/svg" xmlns:xlink="http://www.w3.org/1999/xlink" width="26" height="24" viewBox="0 0 26 24">
<defs>
<clipPath id="clip-0">
<path clip-rule="nonzero" d="M 0 0 L 26 0 L 26 21 L 0 21 Z M 0 0 "/>
</clipPath>
<clipPath id="clip-1">
<path clip-rule="nonzero" d="M 12.703125 0.00390625 C 7.785156 0.15625 3.808594 3.949219 3.652344 8.691406 L 3.644531 8.96875 L 3.644531 13.25 C 3.644531 14.582031 3.035156 15.855469 1.972656 16.742188 L 1.757812 16.914062 C 0.253906 18.042969 1.109375 20.398438 2.992188 20.398438 L 23.007812 20.398438 C 24.757812 20.398438 25.671875 18.320312 24.4375 17.082031 L 24.285156 16.945312 L 24.058594 16.765625 C 22.957031 15.839844 22.355469 14.574219 22.355469 13.25 L 22.355469 9.054688 L 22.359375 8.980469 C 22.359375 4.007812 18.160156 0 13.003906 0 Z M 13.277344 2.40625 C 16.914062 2.539062 19.816406 5.304688 19.957031 8.722656 L 19.957031 13.25 L 19.964844 13.558594 C 20.039062 15.207031 20.710938 16.765625 21.84375 17.976562 L 21.867188 18 L 4.125 18 L 4.207031 17.917969 C 5.386719 16.628906 6.042969 14.976562 6.042969 13.25 L 6.042969 9.023438 L 6.046875 8.980469 C 6.046875 5.359375 9.148438 2.398438 13.003906 2.398438 Z M 13.277344 2.40625 "/>
</clipPath>
<clipPath id="clip-2">
<path clip-rule="nonzero" d="M 8 18 L 18 18 L 18 24 L 8 24 Z M 8 18 "/>
</clipPath>
<clipPath id="clip-3">
<path clip-rule="nonzero" d="M 16.601562 18 C 17.261719 18 17.800781 18.539062 17.800781 19.199219 C 17.800781 21.851562 15.652344 24 13 24 C 10.347656 24 8.199219 21.851562 8.199219 19.199219 C 8.199219 18.539062 8.738281 18 9.398438 18 C 10.0625 18 10.601562 18.539062 10.601562 19.199219 C 10.601562 20.527344 11.675781 21.601562 13 21.601562 C 14.265625 21.601562 15.300781 20.621094 15.394531 19.378906 L 15.398438 19.199219 C 15.398438 18.539062 15.9375 18 16.601562 18 Z M 16.601562 18 "/>
</clipPath>
</defs>
<g clip-path="url(#clip-0)">
<g clip-path="url(#clip-1)">
<path fill-rule="nonzero" fill="rgb(96.078491%, 37.254333%, 14.117432%)" fill-opacity="1" d="M -0.746094 -1 L 26.671875 -1 L 26.671875 21.398438 L -0.746094 21.398438 Z M -0.746094 -1 "/>
</g>
</g>
<g clip-path="url(#clip-2)">
<g clip-path="url(#clip-3)">
<path fill-rule="nonzero" fill="rgb(96.078491%, 37.254333%, 14.117432%)" fill-opacity="1" d="M 7.199219 17 L 18.800781 17 L 18.800781 25 L 7.199219 25 Z M 7.199219 17 "/>
</g>
</g>
</svg>
