<?xml version="1.0" encoding="UTF-8"?>
<svg xmlns="http://www.w3.org/2000/svg" xmlns:xlink="http://www.w3.org/1999/xlink" width="64" height="56" viewBox="0 0 64 56">
<defs>
<clipPath id="clip-0">
<path clip-rule="nonzero" d="M 2 19 L 62 19 L 62 55 L 2 55 Z M 2 19 "/>
</clipPath>
<clipPath id="clip-1">
<path clip-rule="evenodd" d="M 2.082031 19.941406 L 61.917969 19.941406 L 61.917969 46.464844 C 61.917969 50.882812 58.335938 54.464844 53.917969 54.464844 L 10.082031 54.464844 C 5.664062 54.464844 2.082031 50.882812 2.082031 46.464844 Z M 2.082031 19.941406 "/>
</clipPath>
<clipPath id="clip-2">
<path clip-rule="nonzero" d="M 2 6 L 62 6 L 62 20 L 2 20 Z M 2 6 "/>
</clipPath>
<clipPath id="clip-3">
<path clip-rule="evenodd" d="M 10.082031 6.902344 L 53.917969 6.902344 C 58.335938 6.902344 61.917969 10.484375 61.917969 14.902344 L 61.917969 19.941406 L 2.082031 19.941406 L 2.082031 14.902344 C 2.082031 10.484375 5.664062 6.902344 10.082031 6.902344 Z M 10.082031 6.902344 "/>
</clipPath>
<clipPath id="clip-4">
<path clip-rule="nonzero" d="M 51 42 L 59 42 L 59 49 L 51 49 Z M 51 42 "/>
</clipPath>
<clipPath id="clip-5">
<path clip-rule="evenodd" d="M 53.945312 42.191406 L 56.082031 42.191406 C 57.1875 42.191406 58.082031 43.085938 58.082031 44.191406 L 58.082031 46.328125 C 58.082031 47.429688 57.1875 48.328125 56.082031 48.328125 L 53.945312 48.328125 C 52.839844 48.328125 51.945312 47.429688 51.945312 46.328125 L 51.945312 44.191406 C 51.945312 43.085938 52.839844 42.191406 53.945312 42.191406 Z M 53.945312 42.191406 "/>
</clipPath>
<clipPath id="clip-6">
<path clip-rule="nonzero" d="M 42 42 L 49 42 L 49 49 L 42 49 Z M 42 42 "/>
</clipPath>
<clipPath id="clip-7">
<path clip-rule="evenodd" d="M 44.738281 42.191406 L 46.875 42.191406 C 47.980469 42.191406 48.875 43.085938 48.875 44.191406 L 48.875 46.328125 C 48.875 47.429688 47.980469 48.328125 46.875 48.328125 L 44.738281 48.328125 C 43.636719 48.328125 42.738281 47.429688 42.738281 46.328125 L 42.738281 44.191406 C 42.738281 43.085938 43.636719 42.191406 44.738281 42.191406 Z M 44.738281 42.191406 "/>
</clipPath>
<clipPath id="clip-8">
<path clip-rule="nonzero" d="M 33 42 L 40 42 L 40 49 L 33 49 Z M 33 42 "/>
</clipPath>
<clipPath id="clip-9">
<path clip-rule="evenodd" d="M 35.535156 42.191406 L 37.671875 42.191406 C 38.777344 42.191406 39.671875 43.085938 39.671875 44.191406 L 39.671875 46.328125 C 39.671875 47.429688 38.777344 48.328125 37.671875 48.328125 L 35.535156 48.328125 C 34.429688 48.328125 33.535156 47.429688 33.535156 46.328125 L 33.535156 44.191406 C 33.535156 43.085938 34.429688 42.191406 35.535156 42.191406 Z M 35.535156 42.191406 "/>
</clipPath>
<clipPath id="clip-10">
<path clip-rule="nonzero" d="M 24 42 L 31 42 L 31 49 L 24 49 Z M 24 42 "/>
</clipPath>
<clipPath id="clip-11">
<path clip-rule="evenodd" d="M 26.328125 42.191406 L 28.464844 42.191406 C 29.570312 42.191406 30.464844 43.085938 30.464844 44.191406 L 30.464844 46.328125 C 30.464844 47.429688 29.570312 48.328125 28.464844 48.328125 L 26.328125 48.328125 C 25.222656 48.328125 24.328125 47.429688 24.328125 46.328125 L 24.328125 44.191406 C 24.328125 43.085938 25.222656 42.191406 26.328125 42.191406 Z M 26.328125 42.191406 "/>
</clipPath>
<clipPath id="clip-12">
<path clip-rule="nonzero" d="M 15 42 L 22 42 L 22 49 L 15 49 Z M 15 42 "/>
</clipPath>
<clipPath id="clip-13">
<path clip-rule="evenodd" d="M 17.125 42.191406 L 19.261719 42.191406 C 20.363281 42.191406 21.261719 43.085938 21.261719 44.191406 L 21.261719 46.328125 C 21.261719 47.429688 20.363281 48.328125 19.261719 48.328125 L 17.125 48.328125 C 16.019531 48.328125 15.125 47.429688 15.125 46.328125 L 15.125 44.191406 C 15.125 43.085938 16.019531 42.191406 17.125 42.191406 Z M 17.125 42.191406 "/>
</clipPath>
<clipPath id="clip-14">
<path clip-rule="nonzero" d="M 5 42 L 13 42 L 13 49 L 5 49 Z M 5 42 "/>
</clipPath>
<clipPath id="clip-15">
<path clip-rule="evenodd" d="M 7.917969 42.191406 L 10.054688 42.191406 C 11.160156 42.191406 12.054688 43.085938 12.054688 44.191406 L 12.054688 46.328125 C 12.054688 47.429688 11.160156 48.328125 10.054688 48.328125 L 7.917969 48.328125 C 6.8125 48.328125 5.917969 47.429688 5.917969 46.328125 L 5.917969 44.191406 C 5.917969 43.085938 6.8125 42.191406 7.917969 42.191406 Z M 7.917969 42.191406 "/>
</clipPath>
<clipPath id="clip-16">
<path clip-rule="nonzero" d="M 51 32 L 59 32 L 59 40 L 51 40 Z M 51 32 "/>
</clipPath>
<clipPath id="clip-17">
<path clip-rule="evenodd" d="M 53.945312 32.984375 L 56.082031 32.984375 C 57.1875 32.984375 58.082031 33.878906 58.082031 34.984375 L 58.082031 37.121094 C 58.082031 38.226562 57.1875 39.121094 56.082031 39.121094 L 53.945312 39.121094 C 52.839844 39.121094 51.945312 38.226562 51.945312 37.121094 L 51.945312 34.984375 C 51.945312 33.878906 52.839844 32.984375 53.945312 32.984375 Z M 53.945312 32.984375 "/>
</clipPath>
<clipPath id="clip-18">
<path clip-rule="nonzero" d="M 42 32 L 49 32 L 49 40 L 42 40 Z M 42 32 "/>
</clipPath>
<clipPath id="clip-19">
<path clip-rule="evenodd" d="M 44.738281 32.984375 L 46.875 32.984375 C 47.980469 32.984375 48.875 33.878906 48.875 34.984375 L 48.875 37.121094 C 48.875 38.226562 47.980469 39.121094 46.875 39.121094 L 44.738281 39.121094 C 43.636719 39.121094 42.738281 38.226562 42.738281 37.121094 L 42.738281 34.984375 C 42.738281 33.878906 43.636719 32.984375 44.738281 32.984375 Z M 44.738281 32.984375 "/>
</clipPath>
<clipPath id="clip-20">
<path clip-rule="nonzero" d="M 33 32 L 40 32 L 40 40 L 33 40 Z M 33 32 "/>
</clipPath>
<clipPath id="clip-21">
<path clip-rule="evenodd" d="M 35.535156 32.984375 L 37.671875 32.984375 C 38.777344 32.984375 39.671875 33.878906 39.671875 34.984375 L 39.671875 37.121094 C 39.671875 38.226562 38.777344 39.121094 37.671875 39.121094 L 35.535156 39.121094 C 34.429688 39.121094 33.535156 38.226562 33.535156 37.121094 L 33.535156 34.984375 C 33.535156 33.878906 34.429688 32.984375 35.535156 32.984375 Z M 35.535156 32.984375 "/>
</clipPath>
<clipPath id="clip-22">
<path clip-rule="nonzero" d="M 24 32 L 31 32 L 31 40 L 24 40 Z M 24 32 "/>
</clipPath>
<clipPath id="clip-23">
<path clip-rule="evenodd" d="M 26.328125 32.984375 L 28.464844 32.984375 C 29.570312 32.984375 30.464844 33.878906 30.464844 34.984375 L 30.464844 37.121094 C 30.464844 38.226562 29.570312 39.121094 28.464844 39.121094 L 26.328125 39.121094 C 25.222656 39.121094 24.328125 38.226562 24.328125 37.121094 L 24.328125 34.984375 C 24.328125 33.878906 25.222656 32.984375 26.328125 32.984375 Z M 26.328125 32.984375 "/>
</clipPath>
<clipPath id="clip-24">
<path clip-rule="nonzero" d="M 15 32 L 22 32 L 22 40 L 15 40 Z M 15 32 "/>
</clipPath>
<clipPath id="clip-25">
<path clip-rule="evenodd" d="M 17.125 32.984375 L 19.261719 32.984375 C 20.363281 32.984375 21.261719 33.878906 21.261719 34.984375 L 21.261719 37.121094 C 21.261719 38.226562 20.363281 39.121094 19.261719 39.121094 L 17.125 39.121094 C 16.019531 39.121094 15.125 38.226562 15.125 37.121094 L 15.125 34.984375 C 15.125 33.878906 16.019531 32.984375 17.125 32.984375 Z M 17.125 32.984375 "/>
</clipPath>
<clipPath id="clip-26">
<path clip-rule="nonzero" d="M 5 32 L 13 32 L 13 40 L 5 40 Z M 5 32 "/>
</clipPath>
<clipPath id="clip-27">
<path clip-rule="evenodd" d="M 7.917969 32.984375 L 10.054688 32.984375 C 11.160156 32.984375 12.054688 33.878906 12.054688 34.984375 L 12.054688 37.121094 C 12.054688 38.226562 11.160156 39.121094 10.054688 39.121094 L 7.917969 39.121094 C 6.8125 39.121094 5.917969 38.226562 5.917969 37.121094 L 5.917969 34.984375 C 5.917969 33.878906 6.8125 32.984375 7.917969 32.984375 Z M 7.917969 32.984375 "/>
</clipPath>
<clipPath id="clip-28">
<path clip-rule="nonzero" d="M 51 23 L 59 23 L 59 30 L 51 30 Z M 51 23 "/>
</clipPath>
<clipPath id="clip-29">
<path clip-rule="evenodd" d="M 53.945312 23.777344 L 56.082031 23.777344 C 57.1875 23.777344 58.082031 24.675781 58.082031 25.777344 L 58.082031 27.914062 C 58.082031 29.019531 57.1875 29.914062 56.082031 29.914062 L 53.945312 29.914062 C 52.839844 29.914062 51.945312 29.019531 51.945312 27.914062 L 51.945312 25.777344 C 51.945312 24.675781 52.839844 23.777344 53.945312 23.777344 Z M 53.945312 23.777344 "/>
</clipPath>
<clipPath id="clip-30">
<path clip-rule="nonzero" d="M 42 23 L 49 23 L 49 30 L 42 30 Z M 42 23 "/>
</clipPath>
<clipPath id="clip-31">
<path clip-rule="evenodd" d="M 44.738281 23.777344 L 46.875 23.777344 C 47.980469 23.777344 48.875 24.675781 48.875 25.777344 L 48.875 27.914062 C 48.875 29.019531 47.980469 29.914062 46.875 29.914062 L 44.738281 29.914062 C 43.636719 29.914062 42.738281 29.019531 42.738281 27.914062 L 42.738281 25.777344 C 42.738281 24.675781 43.636719 23.777344 44.738281 23.777344 Z M 44.738281 23.777344 "/>
</clipPath>
<clipPath id="clip-32">
<path clip-rule="nonzero" d="M 33 23 L 40 23 L 40 30 L 33 30 Z M 33 23 "/>
</clipPath>
<clipPath id="clip-33">
<path clip-rule="evenodd" d="M 35.535156 23.777344 L 37.671875 23.777344 C 38.777344 23.777344 39.671875 24.675781 39.671875 25.777344 L 39.671875 27.914062 C 39.671875 29.019531 38.777344 29.914062 37.671875 29.914062 L 35.535156 29.914062 C 34.429688 29.914062 33.535156 29.019531 33.535156 27.914062 L 33.535156 25.777344 C 33.535156 24.675781 34.429688 23.777344 35.535156 23.777344 Z M 35.535156 23.777344 "/>
</clipPath>
<clipPath id="clip-34">
<path clip-rule="nonzero" d="M 24 23 L 31 23 L 31 30 L 24 30 Z M 24 23 "/>
</clipPath>
<clipPath id="clip-35">
<path clip-rule="evenodd" d="M 26.328125 23.777344 L 28.464844 23.777344 C 29.570312 23.777344 30.464844 24.675781 30.464844 25.777344 L 30.464844 27.914062 C 30.464844 29.019531 29.570312 29.914062 28.464844 29.914062 L 26.328125 29.914062 C 25.222656 29.914062 24.328125 29.019531 24.328125 27.914062 L 24.328125 25.777344 C 24.328125 24.675781 25.222656 23.777344 26.328125 23.777344 Z M 26.328125 23.777344 "/>
</clipPath>
<clipPath id="clip-36">
<path clip-rule="nonzero" d="M 15 23 L 22 23 L 22 30 L 15 30 Z M 15 23 "/>
</clipPath>
<clipPath id="clip-37">
<path clip-rule="evenodd" d="M 17.125 23.777344 L 19.261719 23.777344 C 20.363281 23.777344 21.261719 24.675781 21.261719 25.777344 L 21.261719 27.914062 C 21.261719 29.019531 20.363281 29.914062 19.261719 29.914062 L 17.125 29.914062 C 16.019531 29.914062 15.125 29.019531 15.125 27.914062 L 15.125 25.777344 C 15.125 24.675781 16.019531 23.777344 17.125 23.777344 Z M 17.125 23.777344 "/>
</clipPath>
<clipPath id="clip-38">
<path clip-rule="nonzero" d="M 5 23 L 13 23 L 13 30 L 5 30 Z M 5 23 "/>
</clipPath>
<clipPath id="clip-39">
<path clip-rule="evenodd" d="M 7.917969 23.777344 L 10.054688 23.777344 C 11.160156 23.777344 12.054688 24.675781 12.054688 25.777344 L 12.054688 27.914062 C 12.054688 29.019531 11.160156 29.914062 10.054688 29.914062 L 7.917969 29.914062 C 6.8125 29.914062 5.917969 29.019531 5.917969 27.914062 L 5.917969 25.777344 C 5.917969 24.675781 6.8125 23.777344 7.917969 23.777344 Z M 7.917969 23.777344 "/>
</clipPath>
<clipPath id="clip-40">
<path clip-rule="nonzero" d="M 13 32 L 22 32 L 22 40 L 13 40 Z M 13 32 "/>
</clipPath>
<clipPath id="clip-41">
<path clip-rule="evenodd" d="M 17.425781 39.273438 L 16.714844 39.824219 C 16.347656 40.109375 15.824219 40.039062 15.542969 39.675781 C 15.429688 39.53125 15.371094 39.355469 15.367188 39.171875 L 15.363281 38.269531 C 15.363281 37.777344 15.117188 37.316406 14.710938 37.035156 L 13.964844 36.53125 C 13.582031 36.269531 13.484375 35.75 13.746094 35.371094 C 13.847656 35.21875 14 35.105469 14.171875 35.046875 L 15.027344 34.765625 C 15.496094 34.609375 15.859375 34.234375 15.996094 33.761719 L 16.25 32.898438 C 16.378906 32.453125 16.84375 32.199219 17.285156 32.328125 C 17.460938 32.382812 17.613281 32.488281 17.722656 32.636719 L 18.257812 33.363281 C 18.546875 33.761719 19.015625 33.992188 19.511719 33.976562 L 20.410156 33.949219 C 20.871094 33.933594 21.257812 34.296875 21.269531 34.757812 C 21.277344 34.941406 21.222656 35.121094 21.113281 35.269531 L 20.585938 36 C 20.300781 36.402344 20.226562 36.917969 20.394531 37.382812 L 20.699219 38.230469 C 20.851562 38.664062 20.628906 39.140625 20.195312 39.296875 C 20.019531 39.359375 19.832031 39.363281 19.660156 39.304688 L 18.800781 39.03125 C 18.328125 38.882812 17.816406 38.972656 17.425781 39.273438 Z M 17.425781 39.273438 "/>
</clipPath>
<clipPath id="clip-42">
<path clip-rule="nonzero" d="M 33 42 L 40 42 L 40 49 L 33 49 Z M 33 42 "/>
</clipPath>
<clipPath id="clip-43">
<path clip-rule="evenodd" d="M 35.667969 47.828125 L 34.929688 48.105469 C 34.59375 48.234375 34.21875 48.0625 34.09375 47.730469 C 34.042969 47.59375 34.039062 47.449219 34.078125 47.3125 L 34.304688 46.554688 C 34.402344 46.242188 34.335938 45.898438 34.128906 45.640625 L 33.632812 45.027344 C 33.410156 44.746094 33.453125 44.335938 33.734375 44.113281 C 33.84375 44.023438 33.984375 43.972656 34.125 43.972656 L 34.914062 43.953125 C 35.246094 43.945312 35.550781 43.777344 35.730469 43.503906 L 36.164062 42.84375 C 36.359375 42.542969 36.761719 42.457031 37.0625 42.65625 C 37.179688 42.734375 37.269531 42.847656 37.320312 42.984375 L 37.578125 43.730469 C 37.6875 44.039062 37.941406 44.277344 38.261719 44.363281 L 39.023438 44.570312 C 39.367188 44.667969 39.570312 45.023438 39.476562 45.371094 C 39.4375 45.507812 39.359375 45.628906 39.242188 45.714844 L 38.617188 46.191406 C 38.351562 46.390625 38.207031 46.707031 38.222656 47.035156 L 38.257812 47.824219 C 38.277344 48.183594 38 48.488281 37.640625 48.503906 C 37.5 48.511719 37.359375 48.472656 37.242188 48.390625 L 36.59375 47.941406 C 36.320312 47.753906 35.976562 47.710938 35.667969 47.828125 Z M 35.667969 47.828125 "/>
</clipPath>
<clipPath id="clip-44">
<path clip-rule="nonzero" d="M 43 24 L 48 24 L 48 30 L 43 30 Z M 43 24 "/>
</clipPath>
<clipPath id="clip-45">
<path clip-rule="evenodd" d="M 44.246094 28.128906 L 43.8125 28.113281 C 43.554688 28.101562 43.351562 27.882812 43.359375 27.621094 C 43.363281 27.519531 43.402344 27.417969 43.46875 27.339844 L 43.746094 27.007812 C 43.957031 26.753906 44.027344 26.414062 43.9375 26.097656 L 43.820312 25.683594 C 43.75 25.433594 43.898438 25.171875 44.148438 25.101562 C 44.246094 25.070312 44.355469 25.078125 44.449219 25.117188 L 44.851562 25.277344 C 45.15625 25.398438 45.503906 25.359375 45.777344 25.179688 L 46.136719 24.9375 C 46.351562 24.792969 46.644531 24.851562 46.789062 25.070312 C 46.847656 25.15625 46.875 25.257812 46.867188 25.363281 L 46.839844 25.792969 C 46.820312 26.121094 46.960938 26.4375 47.21875 26.644531 L 47.558594 26.910156 C 47.761719 27.070312 47.796875 27.367188 47.636719 27.574219 C 47.570312 27.65625 47.480469 27.710938 47.382812 27.738281 L 46.964844 27.84375 C 46.644531 27.925781 46.386719 28.160156 46.273438 28.46875 L 46.121094 28.871094 C 46.03125 29.117188 45.761719 29.242188 45.515625 29.152344 C 45.417969 29.113281 45.335938 29.046875 45.28125 28.960938 L 45.050781 28.59375 C 44.875 28.316406 44.574219 28.144531 44.246094 28.128906 Z M 44.246094 28.128906 "/>
</clipPath>
<clipPath id="clip-46">
<path clip-rule="nonzero" d="M 4 31 L 9 31 L 9 36 L 4 36 Z M 4 31 "/>
</clipPath>
<clipPath id="clip-47">
<path clip-rule="evenodd" d="M 6.691406 35.070312 C 7.683594 35.070312 8.492188 34.265625 8.492188 33.269531 C 8.492188 32.273438 7.683594 31.46875 6.691406 31.46875 C 5.695312 31.46875 4.890625 32.273438 4.890625 33.269531 C 4.890625 34.265625 5.695312 35.070312 6.691406 35.070312 Z M 6.691406 35.070312 "/>
</clipPath>
</defs>
<g clip-path="url(#clip-0)">
<g clip-path="url(#clip-1)">
<path fill-rule="nonzero" fill="rgb(100%, 98.823547%, 98.039246%)" fill-opacity="1" d="M 1.082031 18.941406 L 62.917969 18.941406 L 62.917969 55.464844 L 1.082031 55.464844 Z M 1.082031 18.941406 "/>
</g>
</g>
<g clip-path="url(#clip-2)">
<g clip-path="url(#clip-3)">
<path fill-rule="nonzero" fill="rgb(96.078491%, 37.254333%, 14.117432%)" fill-opacity="1" d="M 1.082031 5.902344 L 62.917969 5.902344 L 62.917969 20.941406 L 1.082031 20.941406 Z M 1.082031 5.902344 "/>
</g>
</g>
<g clip-path="url(#clip-4)">
<g clip-path="url(#clip-5)">
<path fill-rule="nonzero" fill="rgb(100%, 91.764832%, 86.274719%)" fill-opacity="1" d="M 50.945312 41.191406 L 59.082031 41.191406 L 59.082031 49.328125 L 50.945312 49.328125 Z M 50.945312 41.191406 "/>
</g>
</g>
<g clip-path="url(#clip-6)">
<g clip-path="url(#clip-7)">
<path fill-rule="nonzero" fill="rgb(100%, 91.764832%, 86.274719%)" fill-opacity="1" d="M 41.738281 41.191406 L 49.875 41.191406 L 49.875 49.328125 L 41.738281 49.328125 Z M 41.738281 41.191406 "/>
</g>
</g>
<g clip-path="url(#clip-8)">
<g clip-path="url(#clip-9)">
<path fill-rule="nonzero" fill="rgb(100%, 91.764832%, 86.274719%)" fill-opacity="1" d="M 32.535156 41.191406 L 40.671875 41.191406 L 40.671875 49.328125 L 32.535156 49.328125 Z M 32.535156 41.191406 "/>
</g>
</g>
<g clip-path="url(#clip-10)">
<g clip-path="url(#clip-11)">
<path fill-rule="nonzero" fill="rgb(100%, 91.764832%, 86.274719%)" fill-opacity="1" d="M 23.328125 41.191406 L 31.464844 41.191406 L 31.464844 49.328125 L 23.328125 49.328125 Z M 23.328125 41.191406 "/>
</g>
</g>
<g clip-path="url(#clip-12)">
<g clip-path="url(#clip-13)">
<path fill-rule="nonzero" fill="rgb(100%, 91.764832%, 86.274719%)" fill-opacity="1" d="M 14.125 41.191406 L 22.261719 41.191406 L 22.261719 49.328125 L 14.125 49.328125 Z M 14.125 41.191406 "/>
</g>
</g>
<g clip-path="url(#clip-14)">
<g clip-path="url(#clip-15)">
<path fill-rule="nonzero" fill="rgb(100%, 91.764832%, 86.274719%)" fill-opacity="1" d="M 4.917969 41.191406 L 13.054688 41.191406 L 13.054688 49.328125 L 4.917969 49.328125 Z M 4.917969 41.191406 "/>
</g>
</g>
<g clip-path="url(#clip-16)">
<g clip-path="url(#clip-17)">
<path fill-rule="nonzero" fill="rgb(100%, 91.764832%, 86.274719%)" fill-opacity="1" d="M 50.945312 31.984375 L 59.082031 31.984375 L 59.082031 40.121094 L 50.945312 40.121094 Z M 50.945312 31.984375 "/>
</g>
</g>
<g clip-path="url(#clip-18)">
<g clip-path="url(#clip-19)">
<path fill-rule="nonzero" fill="rgb(100%, 91.764832%, 86.274719%)" fill-opacity="1" d="M 41.738281 31.984375 L 49.875 31.984375 L 49.875 40.121094 L 41.738281 40.121094 Z M 41.738281 31.984375 "/>
</g>
</g>
<g clip-path="url(#clip-20)">
<g clip-path="url(#clip-21)">
<path fill-rule="nonzero" fill="rgb(100%, 91.764832%, 86.274719%)" fill-opacity="1" d="M 32.535156 31.984375 L 40.671875 31.984375 L 40.671875 40.121094 L 32.535156 40.121094 Z M 32.535156 31.984375 "/>
</g>
</g>
<g clip-path="url(#clip-22)">
<g clip-path="url(#clip-23)">
<path fill-rule="nonzero" fill="rgb(100%, 91.764832%, 86.274719%)" fill-opacity="1" d="M 23.328125 31.984375 L 31.464844 31.984375 L 31.464844 40.121094 L 23.328125 40.121094 Z M 23.328125 31.984375 "/>
</g>
</g>
<g clip-path="url(#clip-24)">
<g clip-path="url(#clip-25)">
<path fill-rule="nonzero" fill="rgb(100%, 98.823547%, 98.039246%)" fill-opacity="1" d="M 14.125 31.984375 L 22.261719 31.984375 L 22.261719 40.121094 L 14.125 40.121094 Z M 14.125 31.984375 "/>
</g>
</g>
<g clip-path="url(#clip-26)">
<g clip-path="url(#clip-27)">
<path fill-rule="nonzero" fill="rgb(100%, 91.764832%, 86.274719%)" fill-opacity="1" d="M 4.917969 31.984375 L 13.054688 31.984375 L 13.054688 40.121094 L 4.917969 40.121094 Z M 4.917969 31.984375 "/>
</g>
</g>
<g clip-path="url(#clip-28)">
<g clip-path="url(#clip-29)">
<path fill-rule="nonzero" fill="rgb(100%, 91.764832%, 86.274719%)" fill-opacity="1" d="M 50.945312 22.777344 L 59.082031 22.777344 L 59.082031 30.914062 L 50.945312 30.914062 Z M 50.945312 22.777344 "/>
</g>
</g>
<g clip-path="url(#clip-30)">
<g clip-path="url(#clip-31)">
<path fill-rule="nonzero" fill="rgb(100%, 91.764832%, 86.274719%)" fill-opacity="1" d="M 41.738281 22.777344 L 49.875 22.777344 L 49.875 30.914062 L 41.738281 30.914062 Z M 41.738281 22.777344 "/>
</g>
</g>
<g clip-path="url(#clip-32)">
<g clip-path="url(#clip-33)">
<path fill-rule="nonzero" fill="rgb(100%, 91.764832%, 86.274719%)" fill-opacity="1" d="M 32.535156 22.777344 L 40.671875 22.777344 L 40.671875 30.914062 L 32.535156 30.914062 Z M 32.535156 22.777344 "/>
</g>
</g>
<g clip-path="url(#clip-34)">
<g clip-path="url(#clip-35)">
<path fill-rule="nonzero" fill="rgb(100%, 91.764832%, 86.274719%)" fill-opacity="1" d="M 23.328125 22.777344 L 31.464844 22.777344 L 31.464844 30.914062 L 23.328125 30.914062 Z M 23.328125 22.777344 "/>
</g>
</g>
<g clip-path="url(#clip-36)">
<g clip-path="url(#clip-37)">
<path fill-rule="nonzero" fill="rgb(100%, 91.764832%, 86.274719%)" fill-opacity="1" d="M 14.125 22.777344 L 22.261719 22.777344 L 22.261719 30.914062 L 14.125 30.914062 Z M 14.125 22.777344 "/>
</g>
</g>
<g clip-path="url(#clip-38)">
<g clip-path="url(#clip-39)">
<path fill-rule="nonzero" fill="rgb(100%, 91.764832%, 86.274719%)" fill-opacity="1" d="M 4.917969 22.777344 L 13.054688 22.777344 L 13.054688 30.914062 L 4.917969 30.914062 Z M 4.917969 22.777344 "/>
</g>
</g>
<g clip-path="url(#clip-40)">
<g clip-path="url(#clip-41)">
<path fill-rule="nonzero" fill="rgb(76.863098%, 92.549133%, 88.627625%)" fill-opacity="1" d="M 10.976562 31.628906 L 21.851562 29.710938 L 23.785156 40.679688 L 12.910156 42.597656 Z M 10.976562 31.628906 "/>
</g>
</g>
<path fill="none" stroke-width="1" stroke-linecap="butt" stroke-linejoin="miter" stroke="rgb(11.764526%, 49.803162%, 31.764221%)" stroke-opacity="1" stroke-miterlimit="10" d="M 4.14208 7.998923 L 3.346301 8.417884 C 2.935175 8.634947 2.431899 8.474808 2.218005 8.068208 C 2.131543 7.906201 2.104363 7.722916 2.132397 7.541433 L 2.285241 6.652119 C 2.370708 6.167409 2.208394 5.670741 1.857154 5.323219 L 1.209898 4.697411 C 0.878348 4.373193 0.872391 3.844597 1.19593 3.516894 C 1.322404 3.384501 1.492104 3.299395 1.671543 3.271537 L 2.562854 3.143111 C 3.051615 3.070632 3.474495 2.764412 3.691213 2.322678 L 4.091169 1.516602 C 4.295444 1.100439 4.797316 0.93111 5.209632 1.134707 C 5.373247 1.219088 5.504961 1.349408 5.586899 1.514584 L 5.987759 2.323037 C 6.203242 2.765616 6.62485 3.073981 7.11612 3.144739 L 8.005656 3.273823 C 8.462304 3.338476 8.780065 3.763392 8.711565 4.219361 C 8.687378 4.401523 8.602319 4.568984 8.468829 4.696173 L 7.822653 5.323972 C 7.471962 5.670687 7.309334 6.16559 7.394031 6.652539 L 7.546896 7.540226 C 7.621633 7.993687 7.319605 8.424346 6.865466 8.502929 C 6.681502 8.533955 6.496172 8.505243 6.337083 8.417694 L 5.538246 7.999182 C 5.098546 7.770923 4.579001 7.770543 4.14208 7.998923 Z M 4.14208 7.998923 " transform="matrix(0.984808, -0.173648, 0.173648, 0.984808, 11.95763, 32.1153)"/>
<path fill="none" stroke-width="3" stroke-linecap="round" stroke-linejoin="miter" stroke="rgb(100%, 61.177063%, 36.470032%)" stroke-opacity="1" stroke-miterlimit="10" d="M 0.38528 0.0006525 L 0.38528 5.371746 " transform="matrix(1, 0, 0, 1, 13.27097, 4.19466)"/>
<path fill="none" stroke-width="3" stroke-linecap="round" stroke-linejoin="miter" stroke="rgb(100%, 61.177063%, 36.470032%)" stroke-opacity="1" stroke-miterlimit="10" d="M 0.385177 0.0006525 L 0.385177 5.371746 " transform="matrix(1, 0, 0, 1, 49.32576, 4.19466)"/>
<g clip-path="url(#clip-42)">
<g clip-path="url(#clip-43)">
<path fill-rule="nonzero" fill="rgb(76.863098%, 92.549133%, 88.627625%)" fill-opacity="1" d="M 32.628906 40.597656 L 41.417969 41.675781 L 40.351562 50.371094 L 31.5625 49.292969 Z M 32.628906 40.597656 "/>
</g>
</g>
<path fill="none" stroke-width="1" stroke-linecap="butt" stroke-linejoin="miter" stroke="rgb(11.764526%, 49.803162%, 31.764221%)" stroke-opacity="1" stroke-miterlimit="10" d="M 3.302319 6.189056 L 2.603341 6.554306 C 2.285617 6.723192 1.892466 6.598299 1.727933 6.283976 C 1.660869 6.154465 1.639378 6.011487 1.661487 5.871027 L 1.794007 5.091252 C 1.852851 4.76918 1.745047 4.436085 1.50814 4.205425 L 0.941004 3.657174 C 0.685731 3.405155 0.678394 2.99282 0.930413 2.737548 C 1.028024 2.635044 1.161412 2.567503 1.300989 2.550366 L 2.081789 2.434817 C 2.410393 2.386599 2.69234 2.18275 2.837364 1.889452 L 3.187273 1.181375 C 3.344474 0.859033 3.733345 0.724703 4.056163 0.885781 C 4.181998 0.949042 4.284978 1.050529 4.352042 1.18004 L 4.698859 1.889153 C 4.845027 2.182118 5.12608 2.387679 5.454478 2.43394 L 6.23575 2.546598 C 6.588839 2.601634 6.83377 2.929698 6.783088 3.286188 C 6.760978 3.426648 6.698193 3.556361 6.592352 3.655939 L 6.030089 4.205118 C 5.790723 4.435223 5.685829 4.766885 5.741326 5.09066 L 5.872383 5.869556 C 5.935565 6.223872 5.697421 6.560088 5.342629 6.619393 C 5.204004 6.644286 5.059667 6.622652 4.933356 6.555514 L 4.235006 6.188668 C 3.940756 6.035889 3.594331 6.035134 3.302319 6.189056 Z M 3.302319 6.189056 " transform="matrix(0.992546, 0.121869, -0.121869, 0.992546, 33.14452, 41.28275)"/>
<g clip-path="url(#clip-44)">
<g clip-path="url(#clip-45)">
<path fill="none" stroke-width="2" stroke-linecap="butt" stroke-linejoin="miter" stroke="rgb(11.764526%, 49.803162%, 31.764221%)" stroke-opacity="1" stroke-miterlimit="5" d="M 2.275842 4.564907 L 1.892526 4.768172 C 1.663395 4.886929 1.378108 4.799049 1.254015 4.568488 C 1.206617 4.478579 1.189664 4.371092 1.208111 4.27023 L 1.282283 3.844011 C 1.338007 3.518653 1.228977 3.189183 0.992967 2.960089 L 0.684449 2.660095 C 0.498556 2.478745 0.496247 2.177871 0.677597 1.991978 C 0.746545 1.916087 0.845173 1.868165 0.945894 1.855119 L 1.374412 1.792647 C 1.698826 1.745173 1.980374 1.537516 2.127334 1.245183 L 2.317468 0.855755 C 2.431263 0.623166 2.714278 0.527425 2.948821 0.644602 C 3.042533 0.68973 3.116995 0.764013 3.162963 0.859258 L 3.354127 1.24505 C 3.501275 1.538981 3.781263 1.742684 4.10805 1.793072 L 4.535176 1.853188 C 4.791166 1.890325 4.97005 2.129848 4.934866 2.389221 C 4.918372 2.493465 4.867909 2.585748 4.797008 2.658256 L 4.487771 2.958579 C 4.251387 3.189777 4.145303 3.521658 4.201495 3.845548 L 4.270734 4.27016 C 4.315973 4.528205 4.145053 4.771224 3.887007 4.816464 C 3.782903 4.831463 3.678659 4.814969 3.588329 4.767889 L 3.205144 4.565129 C 2.914241 4.412833 2.567819 4.414376 2.275842 4.564907 Z M 2.275842 4.564907 " transform="matrix(0.866025, 0.5, -0.5, 0.866025, 44.55761, 23.03766)"/>
</g>
</g>
<path fill="none" stroke-width="1" stroke-linecap="round" stroke-linejoin="round" stroke="rgb(94.902039%, 37.254333%, 14.117432%)" stroke-opacity="1" stroke-miterlimit="10" d="M -0.00001875 25.934239 C 2.929669 25.934239 4.773419 24.582676 5.527325 21.879551 C 6.656231 17.82877 8.1367 13.438145 11.343731 13.438145 C 14.554669 13.438145 14.996075 15.371739 14.621075 16.469395 C 14.246075 17.567051 11.85545 18.820957 9.121075 17.121739 C 6.390606 15.42252 5.531231 10.313145 8.437481 7.387364 C 11.343731 4.461582 13.109356 5.442051 15.578106 4.461582 C 17.222638 3.809239 18.109356 2.320957 18.238263 0.000645 " transform="matrix(1, 0, 0, 1, 41.0508, 25.92123)"/>
<path fill="none" stroke-width="1" stroke-linecap="round" stroke-linejoin="round" stroke="rgb(100%, 61.177063%, 36.470032%)" stroke-opacity="1" stroke-miterlimit="10" d="M 0.00019069 27.371975 C 1.533328 23.439678 4.861664 21.474628 9.983609 21.473258 C 17.667322 21.472987 20.735363 11.461092 16.297344 8.06219 C 13.071604 5.590188 7.439207 5.587926 7.437389 7.658282 C 7.43914 9.727049 10.666847 11.569614 15.200958 9.076271 C 16.877262 8.154619 18.115873 6.893351 18.921948 5.294446 C 20.797109 1.573323 25.028196 -0.323306 29.057765 0.756035 " transform="matrix(-0.913546, -0.406737, 0.406737, -0.913546, 33.52324, 38.06031)"/>
<g clip-path="url(#clip-46)">
<g clip-path="url(#clip-47)">
<path fill-rule="nonzero" fill="rgb(100%, 61.177063%, 36.470032%)" fill-opacity="1" d="M 3.890625 30.46875 L 9.492188 30.46875 L 9.492188 36.070312 L 3.890625 36.070312 Z M 3.890625 30.46875 "/>
</g>
</g>
</svg>
