<?xml version="1.0" encoding="UTF-8"?>
<svg xmlns="http://www.w3.org/2000/svg" xmlns:xlink="http://www.w3.org/1999/xlink" width="20" height="22" viewBox="0 0 20 22">
<defs>
<clipPath id="clip-0">
<path clip-rule="nonzero" d="M 1 0 L 8 0 L 8 13 L 1 13 Z M 1 0 "/>
</clipPath>
<clipPath id="clip-1">
<path clip-rule="nonzero" d="M 5.96875 9.5 C 5.03125 8.496094 4.09375 7.492188 3.15625 6.492188 C 2.9375 6.257812 2.722656 6.027344 2.503906 5.796875 L 2.503906 7.125 C 3.097656 6.5 3.691406 5.875 4.285156 5.25 C 5.222656 4.261719 6.160156 3.269531 7.097656 2.28125 C 7.3125 2.054688 7.53125 1.824219 7.746094 1.597656 C 8.074219 1.25 8.097656 0.613281 7.746094 0.269531 C 7.390625 -0.078125 6.84375 -0.101562 6.492188 0.269531 C 5.898438 0.894531 5.304688 1.519531 4.710938 2.144531 C 3.777344 3.132812 2.839844 4.125 1.902344 5.113281 C 1.6875 5.34375 1.46875 5.570312 1.253906 5.796875 C 0.914062 6.15625 0.917969 6.765625 1.253906 7.125 C 1.84375 7.757812 2.4375 8.390625 3.03125 9.027344 C 3.96875 10.027344 4.90625 11.03125 5.84375 12.03125 C 6.0625 12.265625 6.277344 12.496094 6.496094 12.726562 C 6.824219 13.078125 7.425781 13.101562 7.75 12.726562 C 8.070312 12.351562 8.097656 11.769531 7.746094 11.398438 C 7.15625 10.765625 6.5625 10.132812 5.96875 9.5 Z M 5.96875 9.5 "/>
</clipPath>
<clipPath id="clip-2">
<path clip-rule="nonzero" d="M 0 5 L 20 5 L 20 22 L 0 22 Z M 0 5 "/>
</clipPath>
<clipPath id="clip-3">
<path clip-rule="nonzero" d="M 3.445312 6.972656 C 4.253906 6.972656 5.058594 6.972656 5.867188 6.972656 C 6.820312 6.976562 7.773438 6.976562 8.726562 6.980469 C 9.496094 6.980469 10.261719 6.980469 11.03125 6.980469 C 11.457031 6.980469 11.890625 6.96875 12.316406 7 C 12.480469 7.007812 12.644531 7.027344 12.808594 7.046875 C 12.722656 7.035156 12.640625 7.023438 12.554688 7.011719 C 13.179688 7.101562 13.792969 7.273438 14.371094 7.527344 C 14.296875 7.496094 14.222656 7.460938 14.144531 7.429688 C 14.726562 7.683594 15.269531 8.015625 15.765625 8.410156 C 15.699219 8.359375 15.636719 8.308594 15.574219 8.257812 C 16.066406 8.65625 16.507812 9.117188 16.890625 9.628906 C 16.839844 9.5625 16.792969 9.496094 16.742188 9.429688 C 17.125 9.949219 17.441406 10.515625 17.683594 11.117188 C 17.652344 11.039062 17.621094 10.960938 17.589844 10.878906 C 17.832031 11.488281 18 12.121094 18.082031 12.773438 C 18.070312 12.6875 18.058594 12.597656 18.050781 12.511719 C 18.132812 13.171875 18.132812 13.839844 18.050781 14.5 C 18.0625 14.414062 18.074219 14.324219 18.082031 14.238281 C 18 14.886719 17.832031 15.527344 17.589844 16.132812 C 17.621094 16.050781 17.652344 15.972656 17.683594 15.894531 C 17.441406 16.5 17.121094 17.0625 16.742188 17.582031 C 16.792969 17.515625 16.839844 17.449219 16.890625 17.382812 C 16.507812 17.894531 16.066406 18.355469 15.574219 18.753906 C 15.636719 18.703125 15.699219 18.652344 15.765625 18.601562 C 15.265625 19 14.722656 19.328125 14.144531 19.582031 C 14.222656 19.550781 14.296875 19.515625 14.371094 19.484375 C 13.792969 19.738281 13.183594 19.910156 12.554688 20 C 12.640625 19.988281 12.722656 19.972656 12.808594 19.964844 C 12.238281 20.042969 11.664062 20.03125 11.09375 20.03125 L 2.390625 20.03125 C 1.914062 20.03125 1.441406 20.023438 0.96875 20.03125 L 0.945312 20.03125 C 0.453125 20.03125 -0.0234375 20.484375 0 21.015625 C 0.0234375 21.550781 0.417969 22 0.945312 22 L 11.851562 22 C 13.03125 21.996094 14.167969 21.71875 15.242188 21.21875 C 17.320312 20.253906 18.925781 18.308594 19.621094 16.066406 C 20.339844 13.757812 20.023438 11.136719 18.796875 9.078125 C 17.605469 7.066406 15.589844 5.570312 13.34375 5.160156 C 12.316406 4.972656 11.277344 5.011719 10.238281 5.011719 C 8.78125 5.007812 7.324219 5.003906 5.867188 5.003906 C 4.773438 5.003906 3.683594 5.003906 2.59375 5 L 2.421875 5 C 1.929688 5 1.453125 5.453125 1.476562 5.984375 C 1.5 6.519531 1.894531 6.96875 2.421875 6.96875 C 2.761719 6.96875 3.101562 6.96875 3.445312 6.972656 Z M 3.445312 6.972656 "/>
</clipPath>
</defs>
<g clip-path="url(#clip-0)">
<g clip-path="url(#clip-1)">
<path fill-rule="nonzero" fill="rgb(96.078491%, 37.254333%, 14.117432%)" fill-opacity="1" d="M -0.0859375 -1 L 9.097656 -1 L 9.097656 14.101562 L -0.0859375 14.101562 Z M -0.0859375 -1 "/>
</g>
</g>
<g clip-path="url(#clip-2)">
<g clip-path="url(#clip-3)">
<path fill-rule="nonzero" fill="rgb(96.078491%, 37.254333%, 14.117432%)" fill-opacity="1" d="M -1 3.972656 L 21 3.972656 L 21 23 L -1 23 Z M -1 3.972656 "/>
</g>
</g>
</svg>
