<?xml version="1.0" encoding="UTF-8"?>
<svg xmlns="http://www.w3.org/2000/svg" xmlns:xlink="http://www.w3.org/1999/xlink" viewBox="0 0 1170 460.2">
  <defs>
    <style>
      .cls-1, .cls-2, .cls-3, .cls-4, .cls-5, .cls-6, .cls-7, .cls-8, .cls-9, .cls-10, .cls-11, .cls-12, .cls-13, .cls-14, .cls-15, .cls-16, .cls-17, .cls-18, .cls-19, .cls-20, .cls-21, .cls-22, .cls-23, .cls-24, .cls-25, .cls-26, .cls-27, .cls-28 {
        fill: none;
      }

      .cls-2 {
        stroke-width: 1.09px;
      }

      .cls-2, .cls-3, .cls-4, .cls-5, .cls-6, .cls-7, .cls-8, .cls-9, .cls-10, .cls-11, .cls-12, .cls-13, .cls-15, .cls-16, .cls-17, .cls-18, .cls-19, .cls-20, .cls-21, .cls-22, .cls-23, .cls-24, .cls-25, .cls-26, .cls-27, .cls-28 {
        stroke-linecap: round;
      }

      .cls-2, .cls-3, .cls-4, .cls-5, .cls-7, .cls-8, .cls-9, .cls-10, .cls-12, .cls-14, .cls-15, .cls-16, .cls-17, .cls-18, .cls-21, .cls-22, .cls-23, .cls-24, .cls-25, .cls-27 {
        stroke-miterlimit: 10;
      }

      .cls-2, .cls-4, .cls-7, .cls-8, .cls-9, .cls-15, .cls-16, .cls-24, .cls-25, .cls-27 {
        stroke: #653825;
      }

      .cls-3, .cls-4 {
        stroke-width: 3px;
      }

      .cls-3, .cls-5, .cls-17, .cls-22 {
        stroke: #3d1000;
      }

      .cls-5 {
        stroke-width: 1.73px;
      }

      .cls-6 {
        stroke: #e1804b;
        stroke-width: 3.45px;
      }

      .cls-6, .cls-11, .cls-13, .cls-19, .cls-20, .cls-26, .cls-28 {
        stroke-linejoin: round;
      }

      .cls-7 {
        stroke-width: 2.27px;
      }

      .cls-29 {
        fill: #f4b696;
      }

      .cls-30 {
        fill: #FF9739;
      }

      .cls-31 {
        fill: #f5b797;
      }

      .cls-32 {
        fill: #f6b898;
      }

      .cls-33 {
        fill: #FF9739;
      }

      .cls-34 {
        fill: #fff;
      }

      .cls-35 {
        fill: #f35f24;
      }

      .cls-36 {
        fill: #ffc449;
      }

      .cls-37 {
        fill: #e85223;
      }

      .cls-38 {
        fill: #90d9e0;
      }

      .cls-39 {
        fill: #333;
      }

      .cls-40 {
        fill: #aa5b45;
      }

      .cls-41 {
        fill: #b37764;
      }

      .cls-42 {
        fill: #d28b72;
      }

      .cls-43 {
        fill: #d26f3a;
      }

      .cls-44 {
        fill: #e2caaf;
      }

      .cls-45 {
        fill: #d48d72;
      }

      .cls-46 {
        fill: #1a1a1a;
      }

      .cls-47 {
        fill: #653825;
      }

      .cls-48 {
        fill: #3d1000;
      }

      .cls-8 {
        stroke-width: 3.44px;
      }

      .cls-9 {
        stroke-width: 1.65px;
      }

      .cls-10 {
        stroke: #fff;
        stroke-width: 3.59px;
      }

      .cls-49 {
        fill: url(#Dégradé_sans_nom_17);
      }

      .cls-11, .cls-13, .cls-23 {
        stroke-width: 3.29px;
      }

      .cls-11, .cls-26, .cls-28 {
        stroke: #eda72b;
      }

      .cls-12, .cls-18, .cls-21 {
        stroke: #b37764;
      }

      .cls-13 {
        stroke: #cbae92;
      }

      .cls-14 {
        stroke: #1a1a1a;
        stroke-width: .75px;
      }

      .cls-15 {
        stroke-width: 2.18px;
      }

      .cls-16 {
        stroke-width: 1.6px;
      }

      .cls-17 {
        stroke-width: 1.61px;
      }

      .cls-18 {
        stroke-width: 1.23px;
      }

      .cls-19 {
        stroke: #80bec1;
      }

      .cls-19, .cls-20 {
        stroke-width: 2.39px;
      }

      .cls-20 {
        stroke: #de4d14;
      }

      .cls-21 {
        stroke-width: 1.2px;
      }

      .cls-22 {
        stroke-width: 3.29px;
      }

      .cls-23 {
        stroke: #ffc449;
      }

      .cls-24 {
        stroke-width: 1.01px;
      }

      .cls-25 {
        stroke-width: 1.03px;
      }

      .cls-26 {
        stroke-width: 1.68px;
      }

      .cls-27 {
        stroke-width: 1.14px;
      }

      .cls-28 {
        stroke-width: 2.28px;
      }
    </style>
    <linearGradient id="Dégradé_sans_nom_17" data-name="Dégradé sans nom 17" x1="212.75" y1="174.88" x2="245.11" y2="181.62" gradientTransform="translate(50.26 -47.68) rotate(18.23)" gradientUnits="userSpaceOnUse">
      <stop offset="0" stop-color="#fff"/>
      <stop offset=".03" stop-color="#fff" stop-opacity=".93"/>
      <stop offset=".14" stop-color="#fff" stop-opacity=".71"/>
      <stop offset=".26" stop-color="#fff" stop-opacity=".52"/>
      <stop offset=".37" stop-color="#fff" stop-opacity=".36"/>
      <stop offset=".49" stop-color="#fff" stop-opacity=".23"/>
      <stop offset=".61" stop-color="#fff" stop-opacity=".13"/>
      <stop offset=".73" stop-color="#fff" stop-opacity=".06"/>
      <stop offset=".86" stop-color="#fff" stop-opacity=".01"/>
      <stop offset="1" stop-color="#fff" stop-opacity="0"/>
    </linearGradient>
  </defs>
  <g id="Calque_6" data-name="Calque 6">
    <path class="cls-30" d="m661.11,316.8s-10.69-8.92-1.44-19.79c.68-.8,1.36-1.68,2.33-2.09,16.86-6.98,16.73,9.63,37.35,10.96,13.83,35.89,54.67-18.94,93.02-12.87,10.3,1.63,3.63-.89,50.64,9.46,33.6,7.4-102.4,28.5-181.9,14.31Z"/>
    <path class="cls-33" d="m830.95,396.81c-3.97-16-34.6-71.56-45.8-77.3-3.77-1.93-25.68-14.51-36.99-18.39-18.84-6.47-30.94-3.07-39.31-4.02-8.78-.63-25.49,2.75-40.79,5.92-5.83,1.21-25.61,17.92-29.72,22.24-25.8,27.11-43.52,1.58-47.69,38.59l36.91,50.71c11.06-.65,20.71-7.71,24.69-18.05l11.55-30.06c.18,14.51-8.79,130.01-7.58,129.79,1.28-.23,6.67,2.85,7.13,3.86,3.3,7.36,25.46,6.06,32.38,6.18,14.19.23,29.44-8.19,42.54-13.63,28.24-11.74,30.63,10.1,37.86,4.52,10.51-8.12-4.84-74.66-5.03-81.3-.21-7.38-1.75-35.87-1.75-35.87,3.57,5.35,25.08,17.04,29.73,27.88,3.9,9.1,8.53,81.39,8.17,81.75,2.94.56,13.11,1.93,22.41,1.5,3.67-.17,4.56-81.21,1.3-94.31Z"/>
    <path class="cls-47" d="m737.7,304.02c2.44,1.08,5.06,1.61,7.53,2.6,2.47,1,4.9,2.59,6.15,5.14,1.25,2.54.89,6.18-1.32,7.75-.97.69-2.15.92-3.3,1.13-8.18,1.51-16.36,3.02-24.54,4.52-2.5.46-5.03.92-7.57.83-8.59-.31-15.83-6.78-22.36-12.93-1.86-1.76-3.83-3.69-4.41-6.3-.58-2.62,1.05-5.46,3.48-5.82,16.03-2.37,32.62-3.02,46.33,3.07Z"/>
    <path class="cls-47" d="m699.35,313.06h51.23c-10.59-7.29-13.73-27.6-4.32-40.34l-46.91,7.24v33.1Z"/>
    <circle class="cls-48" cx="755.34" cy="255.88" r="8.48"/>
    <circle class="cls-48" cx="690.01" cy="227.06" r="13.3"/>
    <path class="cls-47" d="m687.51,238.27c-2.05,6.18-4.47,27.78-3.35,34.47,2.01,12.04,18.99,17.95,25.03,18.42,10.93.84,20.23-4.92,27.98-8.3,4.69-2.04,9.08-8.6,15.17-22.65,10.26-23.71-.56-44.93-21.12-50.96-9.82-2.88-22.19-3.12-30.8,5.34-5.04,4.95-10.79,17.31-12.91,23.68Z"/>
    <path class="cls-47" d="m755.96,262.49c1.69-3.16,1.54-6.54-.34-7.55-1.88-1-4.77.75-6.46,3.91-1.69,3.16-3.73,7.68-1.85,8.68s6.96-1.88,8.65-5.04Z"/>
    <g>
      <path class="cls-5" d="m705.02,242.56s.92,4.29-4.65,6.94c0,0-3.88,1.43-4.66,7.09,0,0-.37,4.77,2.37,6.63"/>
      <ellipse class="cls-48" cx="717.76" cy="247.1" rx="2.24" ry="1.34" transform="translate(393.47 933.46) rotate(-83.71)"/>
      <ellipse class="cls-48" cx="693.01" cy="243.06" rx="2.24" ry="1.34" transform="translate(375.45 905.25) rotate(-83.71)"/>
      <path class="cls-22" d="m714.14,237.19s11.32-2.91,15.62,8.09"/>
      <path class="cls-22" d="m701.36,234.76s-9.71-5.56-14.74,1.36"/>
      <path class="cls-5" d="m723.87,247.7s-2.66-6.22-8.66-3.58"/>
      <path class="cls-5" d="m697.37,241.48s-4.17-4.42-7.36-.81"/>
      <path class="cls-17" d="m713.02,267.88s-9.53,5.95-19.33.61"/>
      <path class="cls-5" d="m707.09,275.54s-4.34,1.29-7.21-.79"/>
    </g>
    <path class="cls-48" d="m708.39,289.27c4.72.1,7.39-.76,10.86-2.58,2.87-1.51,5.75-3.03,8.62-4.54-.38.86-.76,1.72-1.14,2.58-.85,1.92-1.72,3.88-3.13,5.44-1.06,1.18-2.46,1.97-3.7,2.97-5.63,4.54-19.66,7.15-20.55,7.36v-13.16c1.15.15,8.22,1.92,9.04,1.94Z"/>
    <line class="cls-6" x1="663.79" y1="366.46" x2="658.89" y2="394.03"/>
    <path class="cls-6" d="m762.46,374.74c.85.34,11.87,9.95,11.87,9.95,0,0,16.1,12.64,16.35,12.87s8.48,5.36,10.15,18.11c1.67,12.75,2.19,17.57,2.19,17.57"/>
    <circle class="cls-48" cx="691.31" cy="212.38" r="11.79"/>
    <circle class="cls-48" cx="717.23" cy="210.53" r="13.3"/>
    <circle class="cls-48" cx="706.43" cy="202.48" r="13.3"/>
    <circle class="cls-48" cx="733.55" cy="220.4" r="13.3"/>
    <circle class="cls-48" cx="747.77" cy="245.28" r="9.96"/>
    <circle class="cls-48" cx="757.8" cy="248.04" r="8.48"/>
    <circle class="cls-48" cx="749.33" cy="229.02" r="13.3"/>
    <circle class="cls-48" cx="726.77" cy="199.1" r="13.3"/>
    <circle class="cls-48" cx="743.06" cy="201.53" r="13.3"/>
    <circle class="cls-48" cx="752.09" cy="214.83" r="13.3"/>
    <circle class="cls-48" cx="756.26" cy="229.2" r="13.3"/>
    <circle class="cls-48" cx="757.73" cy="237.71" r="11.35"/>
    <path class="cls-17" d="m746.86,262.26s2.75-5.77,5.94-3.46"/>
    <g>
      <path class="cls-43" d="m661.94,298.8c-5.61,2.94-4.59,11.14.31,16.85l11.68,12.64s2.48,1.43,2.45-1.46c0-.77-3.88-4.73-5.65-6.69l7.1,7.86c.47.52,1.15.85,1.85.81.8-.04,1.33-.42,1.56-1.14s.02-1.46-.42-2.05l-7.06-9.42,6.69,8.39c1.93,1.35,3.83-.13,3-2.41l-1.07-1.85c1.07,1.85,3.45-.24,2.28-2.24l-4.53-6.94c2.77,3.34,5.52.36,5.03-2.19l-5.78-8.58c-11.56-5.65-13.12-3.85-17.47-1.57Z"/>
      <path class="cls-2" d="m662.25,315.64l11.68,12.64s2.48,1.43,2.45-1.46c0-.77-3.88-4.73-5.65-6.69l7.1,7.86c.47.52,1.15.85,1.85.81.8-.04,1.33-.42,1.56-1.14s.02-1.46-.42-2.05l-7.06-9.42,6.69,8.39c1.93,1.35,3.83-.13,3-2.41l-1.07-1.85c1.07,1.85,3.45-.24,2.28-2.24l-4.53-6.94c2.77,3.34,5.52.36,5.03-2.19l-5.78-8.58"/>
      <line class="cls-2" x1="676.97" y1="312.57" x2="682.4" y2="320.32"/>
    </g>
  </g>
  <g id="Calque_18_-_copie" data-name="Calque 18 - copie">
    <path class="cls-29" d="m153.97,225.06c-.2,0,12.59,21.83,12.59,21.83l14.68-15.31s-7.56-7.59-12.17-7.59l-15.09,1.08Z"/>
    <path class="cls-29" d="m172.03,221.89c-.6.86-1.35,1.64-2.29,2.1s-2.1.54-3.03.05c-.51-.27-.92-.7-1.29-1.13-.93-1.07-1.75-2.27-2.13-3.63-.34-1.21-.32-2.49-.3-3.74,0-.49.03-1.01.29-1.42.25-.38.67-.6,1.07-.81,1.49-.77,3.03-1.54,4.69-1.77.68-.1,1.38-.09,2.06-.16.6-.06,1.45-.51,2-.45,1.18.12,1.03,2.12,1.06,2.99.1,2.79-.52,5.66-2.14,7.98Z"/>
    <polygon class="cls-49" points="196.2 187.43 225.92 178.45 216.79 217.88 193.52 205.5 196.2 187.43"/>
    <g>
      <path class="cls-46" d="m199.45,206.13l-38.52,6.85c-1.56.28-3.98-.78-3.6-2.61l3.04-13.3c.75-.92,2.79-6.68,4.36-6.96l37.09-6.74c1.56-.28,3.61.49,3.36,2.33l-3.4,17.08c-.31,1.5-.7,3-2.33,3.36Z"/>
      <path class="cls-39" d="m197.3,204.53l-37.09,6.74c-1.56.28-3.68-.8-3.36-2.33l3.43-15.13c.33-1.56.76-3.08,2.33-3.36l37.09-6.74c1.56-.28,3.67.76,3.36,2.33l-3.43,15.13c-.37,1.59-.76,3.08-2.33,3.36Z"/>
      <path class="cls-14" d="m197.04,195.17l-6.63,1.2c-.57.14-1.54-.12-1.39-.97l1.18-6.17c.16-.82.43-1.66,1.68-1.88l6.54-1.19c1.36-.2,2.03.85,1.67,2.13l-1.15,4.99c-.16.8-.53,1.64-1.9,1.88Z"/>
      <ellipse class="cls-46" cx="197.04" cy="189.24" rx="1.41" ry="1.11" transform="translate(-37.96 328.56) rotate(-74.5)"/>
      <ellipse class="cls-46" cx="193.2" cy="189.78" rx="1.41" ry="1.11" transform="translate(-41.3 325.26) rotate(-74.5)"/>
      <circle class="cls-46" cx="197.04" cy="192.18" r=".46"/>
    </g>
    <path class="cls-38" d="m347,285.99c-18-2.58-42.45,4.81-52.39,9.04-58.82,25.04-8.32,21.31-35.73,17.07-3.05-.47,6.33,18.75,12.49,23.93,10.75,9.04.85,22.96,2.61,36.22,0,0,49.68-42.63,64.87-46.97,6.76-1.93,13.99-3.59,19.04-8.48,5.01-4.85,5.78-12.23,3.88-18.84-2.26-7.84-7.03-10.86-14.78-11.97Z"/>
    <path class="cls-38" d="m378,365.17c2.63,12.07,8.92,22.5,10.54,34.75,3.2,24.24-6.82,42.04-9.54,71.59-39.68-1.5-45.15,4.84-84.69,1.22-5.06-.46-12.6,1.44-17.46.82-.9-99.25-5.26-118.57-3.91-147.15,0,0,14.24-6.16,16.74-8.92,2.94-3.25-2.87-.99,1.43-1.86,22.71-4.6,45.73-7.66,68.85-9.15,2-.13,4.1-.23,5.92.61,1.61.75,2.81,2.15,3.95,3.52,6.46,7.79,8.66,13.75,4.76,22.94-4.03,9.48,1.35,22.12,3.43,31.63Z"/>
    <path class="cls-38" d="m354.72,288.33c12.83,2.2,32.2,5.34,46.87,17.5,27.41,14.3,74.95-3.77,74.95-3.77,0,0-38.85,108.32-43.21,119.2-3.78,7.98-9.92,13.4-20.16,12.78-24.93-1.5-49.87-3-74.8-4.49-1.64-8.38-1.24-8.84-2.01-17.35-.12-1.33-.2-2.77.53-3.88.78-1.19,2.27-1.67,3.66-1.99,15.03-3.49,28.87-6.07,44.17-4.1l-17.93-71.53-12.05-42.36Z"/>
    <path class="cls-29" d="m316.86,292.67c13.9,6.6,28.35,6.87,43.42,0,0,0-10.87-14.35-2.95-33.44l1.89-4.22-42.36,12.03v25.64Z"/>
    <path class="cls-40" d="m301.49,217.36c-1.61,2.43-2.84,5.1-3.9,7.82.54-4.59,1.33-9.15,2.38-13.65.24-1.03.7-2.25,1.74-2.41.33-.05.66.02.99.09.9.2,1.82.37,2.7.65-.82,2.89-2.37,4.95-3.9,7.5Z"/>
    <path class="cls-29" d="m306.47,208.79s-14.71,9.46-14.25,39c0,0-4.44,32.08,31.7,31.61,0,0,46.18-15.56,42.95-50.33,0,0-19.15-52.12-60.4-20.28Z"/>
    <path class="cls-47" d="m345.7,207.8c-5.21,1.34-6.94,5.26-3.69,8.33l-6.64-3.31c6.3,4.96,5.14,12.57,6.21,15.01,2.3,5.27,7.64,6.34,7.5,12.43-.04,1.6-.06,3.24.19,4.84.18,1.17,2.84,1.47,3.45.4.63-1.1,1.23-2.22,1.48-3.68.25-1.46,1.34-3.35,3.54-3.02,1.14.17,1.89.91,2.46,1.59,1.82,2.19,1.48,3.01,2.19,5.43,5.81-8.83,7.61-17.34,3.42-26.95-1.22-2.81-2.51-5.63-4.58-8.24-3.51-4.43-7.97-4.5-11.7-3.82l-3.84.99Z"/>
    <path class="cls-29" d="m369.28,245.74c2.01-3.84.54-8.58-3.29-10.58-3.83-2.01-8.56-.52-10.57,3.32-2.01,3.84-4.18,9.44-.35,11.44s12.21-.34,14.22-4.18Z"/>
    <path class="cls-21" d="m366.22,240.88s-6-3.67-7,6.31"/>
    <path class="cls-21" d="m330.26,234.96s-4.86-6.1-10.71-4.52"/>
    <path class="cls-21" d="m304.81,230.44s-5.77-6.35-9.87-1.99"/>
    <path class="cls-47" d="m353.21,194.06c-4.46-2.07-9.5-2.66-14.5-2.41-.79.04-1.58.1-2.34-.07-1.84-.4-3.16-2.03-4.13-3.76-.96-1.73-1.7-3.65-2.96-5.12-2.12-2.49-5.39-3.33-8.49-4.06-1.81-.43-3.67-.85-5.55-.43-1.87.43-3.77,1.94-4.19,4.01-1.87-1.51-4.66-.45-6.87.83-1.51.88-3.02,1.87-4.15,3.32-1.12,1.45-1.8,3.43-1.37,5.15-2.1,0-4.12,1.62-5.35,3.63-1.23,2.01-1.8,4.38-2.23,6.7-1.09-.82-2.74.3-3.43,1.68-1.07,2.13-.76,4.78.42,6.6,1.18,1.83,3.11,2.9,5.13,3.4,1.91.47,3.95.46,5.93-.03,2.08-.51,4.06-1.52,6.09-2.26,7.44-2.68,15.28-1.55,22.46.65,7.18,2.2,14.04,5.42,21.42,6.93,2.85.59,5.29.44,8.01-1.22,1.85-1.13,4.49-2.31,5.95-4.08,3.63-4.39-.26-11.25-2.9-14.29-1.95-2.24-4.35-3.98-6.96-5.19Z"/>
    <path class="cls-45" d="m330.43,278.25c-.53.77-5.29,11.47-13.56,9.93v-9.14c5.35.8,11.33.67,13.56-.79Z"/>
    <path class="cls-1" d="m323.03,426.59c.27.35.43.77.46,1.21"/>
    <g>
      <path class="cls-21" d="m311.62,228.93s1.38,4.14-3.83,7.36c0,0-3.68,1.84-3.83,7.51,0,0,.15,4.75,3.07,6.29"/>
      <ellipse class="cls-41" cx="322.63" cy="233.98" rx="1.34" ry="2.22"/>
      <ellipse class="cls-41" cx="298.12" cy="230.44" rx="1.34" ry="2.22"/>
      <path class="cls-4" d="m321.91,223.43s10.29-.77,11.89,5.83"/>
      <path class="cls-4" d="m304.07,220.5s-6.59-1.84-8.28,1.38"/>
      <path class="cls-21" d="m324.93,256.53s-9.66,5.98-22.24,1.99"/>
      <path class="cls-21" d="m317.26,262.21s-4.15,1.74-7.21,0"/>
    </g>
    <path class="cls-38" d="m165.61,245.26l14.96-14.46,54.15,63.51,70.12.7-3.93,61.08-72.34-19.08c-8.99-1.68-14.84-8.49-18.74-15.47l-44.23-76.29Z"/>
    <path class="cls-19" d="m272.11,348.49l-39.86-10.14s-16.82-2.79-23.55-17.39c-7.72-16.74,0,0,0,0"/>
    <line class="cls-19" x1="272.11" y1="342.87" x2="276.24" y2="434.09"/>
    <path class="cls-29" d="m159.37,200.22c-1.78,1.44-1.92,1.53-5.4,3.04-1.44.63-2.8,2.74-1.58,5.3.72,1.51-.47,8.17.98,14.7.1.46.66,2.29.96,2.69,1.36,1.88,2.88,3.81,5.04,4.67,1.21.48,2.53.58,3.83.56,1.77-.03,2.57-.07,4.15-.89s2.89-2.26,3.25-3.99c.33-1.56-.14-3.2-.97-4.56s-3.46-4.85-4.26-5c1.74-1.21,7.58-2.82,8.31-3.45.82-.71,5.96-1.18,5.66-2.35-.42-1.9-8.59-.24-10.71.17-1.24.24-2.51.38-3.78.4-.85.02-1.34-.95-.82-1.61.93-1.16,1.89-2.39,3.01-3.13,4.23-2.78,7.86-9.75,11.98-12.68.61-.43,1.35-1.45.63-1.97s-1.92-.67-2.72-1.31c-1.06-.84-2.65-.12-3.04,0-1.87.56-5.92,2.77-7.79,3.33-.34.1-.68.2-1,.36-.55.28-5.74,5.74-5.74,5.74Z"/>
    <path class="cls-12" d="m166.48,230.44s6.7-2.53,3.15-8.96l-3.15-4.76"/>
    <path class="cls-12" d="m164.44,217.28c.16.12,11.2-4.68,11.2-4.68,0,0,3.7-.05,3.7-1.67.01-1.32-2.09-1.1-3.48-.87"/>
    <path class="cls-12" d="m160.4,207.78c-.63-1.04-.66-.82-1.76-.95-1.1-.14-1.28-1.42-1.49-1.77-.51-.88-1.31-.86-1.75-.84"/>
  </g>
  <g id="Calque_16" data-name="Calque 16">
    <g>
      <g>
        <path class="cls-34" d="m473.26,356.98c1.04,19.46,2.09,38.92,3.13,58.39.26,4.82.52,9.64.78,14.46.11,2.07.3,4.32,1.71,5.83.97,1.04,2.37,1.55,3.73,1.96,5.66,1.69,11.67,2.16,17.52,1.39-.8,13.26-1.61,26.51-2.41,39.77-.07,1.19-.2,2.51-1.08,3.32-.59.54-1.42.74-2.2.91-17.22,3.73-35.12,2.82-52.53,5.56-19.92,3.13-39.43,11.03-59.53,9.39,3.84-24.08,5.16-48.21,6.57-72.55,3.91,3.03,5.61,4.19,10.5,3.39.58-.1,1.2-.24,1.61-.67.44-.46.73-1.15.61-1.77-1.83-8.8-1.73-33.2-2-44.31-.49-20.19,3.95-48.9,1.71-79.52,3.37-1.57,7.5-3.67,11.41-4.55,1.68,7.01,3.59,14.9,5.27,21.91.48,2.01,1.03,4.14,2.55,5.54,1.22,1.13,2.88,1.61,4.49,2.02,9.51,2.42,33.79,4.08,36.74-1.14,2.95-5.23,2.84-10.68,7.21-15.45,3.13-3.42,6.51-9.09,9.64-12.5.77-.84,3.94,5.26,3.14,7.11-2.08,4.82-7.13,14-7.93,19.18-1.65,10.69-1.2,21.59-.62,32.34Z"/>
        <g>
          <path class="cls-29" d="m434.22,410.78c-1.05-.19-2.13-.38-3.18-.19-1.55.27-2.86,1.32-3.86,2.54-1,1.21-1.75,2.61-2.66,3.89-1.95,2.73-4.63,4.95-6.15,7.94-1.25,2.48-1.61,5.3-1.95,8.05-.25,2.06-.46,4.3.66,6.05.1.15.21.31.37.4.19.11.42.12.64.09,1.1-.15,1.9-1.14,2.36-2.16.46-1.02.69-2.14,1.3-3.07.03,1.93,1.09,3.82,2.73,4.84.8.5,1.81.8,2.67.42s1.3-1.64.63-2.3c1.8.91,3.74,1.54,5.72,1.87.31.05.64.09.92-.04.22-.1.39-.3.54-.49,1.51-1.82,3.01-3.64,4.52-5.46.31-.38.74-.95,1.19-.77.72.3,9.08-1.01,10.03-1.22,1.6-.36.08-.91.99-2.28.96-1.43-.62-2.05-.68-3.77-.08-2.06.24-3.71,0-5.77-.31-2.66.02-5.6-.58-5.6-1.09.01-1.33-.33-2.4-.52-2.17-.39-4.35-.78-6.52-1.17-2.43-.44-4.87-.87-7.3-1.31Z"/>
          <path class="cls-42" d="m439.24,433.33c-1.23,2-2.47,3.89-3.83,5.84-.87,1.25-2.56.6-3.63,0-.86-.43-1.61-1.62-1.27-2.63.42-1.44.87-2.8,1.57-4.15,1-2.23,3.3-3.31,4.84-5.07.57-.58,1.52-1.66,2.18-2.14.06-.07.22-.12.17-.22-.02-.01-.09.03-.04.05-.05-.01,0-.08.05-.06.1.1-.08.21-.13.28,0,0-.29.32-.29.32-1.25,1.54-2.49,3.35-4.04,4.57-1.7,1.48-2.5,3.65-3.19,5.83-.47,1.13-.43,1.86.6,2.5.79.41,1.94,1.15,2.67.28,1.26-1.62,3.03-3.86,4.35-5.4h0Z"/>
          <path class="cls-42" d="m430.02,437.88c-.89.2-2,.26-2.64-.56-.78-1.17-1.05-2.69-.94-4.04,0-.91-.41-1.77-.23-2.75.1-.55.38-1.01.63-1.36.93-1.29,2.31-3.1,3.36-4.27,1.16-1.37,2.36-2.71,3.61-4.01-1.46,2.28-3.04,4.46-4.67,6.61-.42.68-1.94,2.44-2.07,3.2-.14.82.21,1.71.16,2.6-.16,1.3-.06,2.6.51,3.77.44.77,1.47.8,2.29.81h0Z"/>
          <path class="cls-42" d="m427.78,437.76c-.14.12-.01.3.05.43.29.48-.05,1.09-.51,1.31-2,.98-4.26-.48-5.04-2.37-1.04-2.51-.96-5.19-.99-7.84.04-.63-.02-1.36.35-2.09,1.09-1.72,2.2-3.21,3.4-4.83,1.57-2.07,3.32-4.05,5.35-5.69-2.59,2.73-4.88,6.18-6.94,9.32-.78,1.12-1.39,1.84-1.27,3.3.13,3.27-.6,8.67,3.21,10,.84.28,2.69.17,2.37-1.11-.04-.14-.15-.35,0-.46h0Z"/>
          <path class="cls-42" d="m421.52,434.96c-.35,1.23-.86,2.42-1.45,3.57-.29.56-.75,1.22-1.52,1.4-.76.24-1.52-.42-1.85-1.03-.85-1.09-.92-2.56-.87-3.89.18-2.65.81-5,1.09-7.65,1.08-3.79,4.22-6.55,6.92-9.24-2.23,2.97-5.14,5.79-6.09,9.42-.19,2.44-.86,5.06-1.07,7.51-.06,1.24-.09,2.49.6,3.47.3.56.64.95,1.16.85.52-.08.93-.54,1.26-1.07.7-1.06,1.28-2.19,1.82-3.35h0Z"/>
          <path class="cls-45" d="m433.96,432.94c.37.44.58.74.84,1.25-.69.26-1.34-.71-.84-1.25h0Z"/>
          <path class="cls-45" d="m428.14,430.12c.61-.75,2.05-.42,2.26.54-.78-.27-1.44-.43-2.26-.54h0Z"/>
          <path class="cls-45" d="m425.06,428.34c-.68-.04-1.18-.02-1.85.08.17-.86,1.6-.92,1.85-.08h0Z"/>
          <path class="cls-45" d="m426.11,437.23c.35.2.03.72-.29.77-.31.06-.44-.04-.73-.15.04-.17.18-.26.29-.32.26-.18.57-.05.72-.3h0Z"/>
        </g>
        <rect class="cls-29" x="425.69" y="271.14" width="42.45" height="32.9" transform="translate(893.83 575.18) rotate(180)"/>
        <path class="cls-29" d="m475.54,296.84c.68.38,1.43.88,1.51,1.65.04.41-.13.82-.31,1.19-2.98,5.94-10.25,8.15-16.82,9.17-12.25,1.91-24.98,1.75-36.83-1.88-2.77-.85-5.54-1.92-7.77-3.76-.82-.68-1.61-1.59-1.54-2.65.09-1.44,1.63-2.27,2.96-2.82,4.84-2,9.76-4.03,14.97-4.64,7.84-.93,15.69,1.39,23.58,1.51,4.02.06,7.99-1.52,11.86-1.5,3.14.02,5.64,2.17,8.4,3.73Z"/>
        <path class="cls-45" d="m430.92,286.96c4.59.97,7.36.64,11.08-.5,3.09-.94,6.18-1.88,9.26-2.82-.53.77-1.06,1.54-1.6,2.31-1.19,1.72-2.41,3.46-4.07,4.72-1.26.95-2.77,1.47-4.16,2.21-6.34,3.39-14.84.96-15.74,1l.42-7.32c1.1.36,4.01.24,4.8.41Z"/>
        <path class="cls-30" d="m461.76,290.09c-18-2.58-42.17,5.53-52.39,9.04-10.38,3.56-31.37,17.69-35.65,22.2-7.66,8.05-24.28,128.68-24.28,145.53,3.33,4.99,37.75,25.92,43.75,25.82,6.38-.11-1.89-52.79,3.64-60.86,5.53-8.08-10.47-12.92-6.53-21.88,10.83-24.57,4.92-45,21.45-59.11,12.02-10.26,26.67-17.1,41.86-21.43,6.76-1.93,13.99-3.59,19.04-8.48,5.01-4.85,5.78-12.23,3.88-18.84-2.26-7.84-7.03-10.86-14.78-11.97Z"/>
        <path class="cls-30" d="m524.17,379.43c1.75,8.04-11.41,20.33-15.5,45.97-2.05,12.85,4.57,39.8,3.66,49.66-39.68-1.5-63.73,5.39-103.27,1.76-5.06-.46-12.6,1.44-17.46.82-24.53-33.6,1.65-73.83-3.91-147.15-.28-3.71,14.24-6.16,16.74-8.92,2.94-3.25-2.87-.99,1.43-1.86,22.71-4.6,55.43-16.75,78.55-18.24,2-.13,4.56,5.17,6.38,6.01,1.61.75,8.21,7.23,9.35,8.6,6.46,7.79,14.35-2.42,10.44,6.77-4.03,9.48,11.51,47.06,13.59,56.57Z"/>
        <path class="cls-30" d="m469.55,292.47c14.51,7.2,35.22,10.69,47.42,19.98,5.9,4.49,43.6,66.88,38.41,87.21-4.07,6.44-11.14,10.89-21.68,10.31-21.4-1.19-23.8-12.47-45.83-23.55-1.76-6.76-16.88-7.74-17.47-10.65-.21-1.06.63-15.51,2.12-15.77,16.16-2.81,48.38,6.36,48.38,6.36l-23.3-34.19-22.33-28.15-5.73-11.54Z"/>
        <rect class="cls-29" x="425.69" y="271.14" width="42.45" height="32.9" transform="translate(893.83 575.18) rotate(180)"/>
        <path class="cls-29" d="m475.54,296.84c.68.38,1.43.88,1.51,1.65.04.41-.13.82-.31,1.19-2.98,5.94-10.25,8.15-16.82,9.17-12.25,1.91-24.98,1.75-36.83-1.88-2.77-.85-5.54-1.92-7.77-3.76-.82-.68-1.61-1.59-1.54-2.65.09-1.44,1.63-2.27,2.96-2.82,4.84-2,9.76-4.03,14.97-4.64,7.84-.93,15.69,1.39,23.58,1.51,4.02.06,7.99-1.52,11.86-1.5,3.14.02,5.64,2.17,8.4,3.73Z"/>
        <g>
          <path class="cls-34" d="m413.67,227.79c-1.61,2.43-.7,12.86-3.9,7.82.54-4.59-.52-5.69.53-10.19.24-1.03,2.01-4.41,3.59-5.65.26-.21,1.81-.84,2.14-.83,1.05.05,1.87.54,2.63,1.11-.82,2.89-3.46,5.18-4.99,7.73Z"/>
          <path class="cls-29" d="m410.23,237.58c-1.36,6.33-1.39,27.93.44,34.42,3.3,11.68,20.71,15.67,26.73,15.47,10.89-.36,19.45-7.06,26.74-11.25,4.41-2.53,8.04-9.48,12.51-24.03,7.56-24.54-5.45-44.33-26.41-48.04-10.02-1.77-22.26-.67-29.84,8.63-4.44,5.44-8.78,18.28-10.17,24.8Z"/>
          <path class="cls-34" d="m468.21,224.22c-3.77,1.35-5.21,4.82-3.07,7.36l.05.05c1.66,1.97-.45,9.27.18,11.35,1.35,4.48,3.92,3.98,3.5,9.26-.11,1.39-.21,2.81-.12,4.19.07,1,1.94,1.17,2.43.22.51-.98,1-1.97,1.25-3.25.25-1.28,1.13-2.95,2.68-2.75.8.11,1.29.72,1.66,1.29,1.17,1.83.89,2.56,1.27,4.63,4.6-7.87,6.33-15.32,3.87-23.5-.72-2.39-1.48-4.79-2.81-6.98-2.26-3.71-5.42-3.61-8.1-2.88l-2.78,1Z"/>
          <path class="cls-29" d="m480.56,253.13c.55-3.52-.7-6.64-2.8-6.97s-4.23,2.27-4.78,5.79c-.55,3.52-.98,8.43,1.12,8.75,2.09.33,5.91-4.05,6.46-7.57Z"/>
        </g>
        <path class="cls-45" d="m430.92,286.96c4.59.97,7.36.64,11.08-.5,3.09-.94,6.18-1.88,9.26-2.82-.53.77-1.06,1.54-1.6,2.31-1.19,1.72-2.41,3.46-4.07,4.72-1.26.95-2.77,1.47-4.16,2.21-6.34,3.39-14.84.96-15.74,1v-8.64c1.1.36,4.43,1.56,5.23,1.72Z"/>
      </g>
      <g>
        <path class="cls-21" d="m428,239.91s1.38,4.14-3.83,7.36c0,0-3.68,1.84-3.83,7.51,0,0,.15,4.75,3.07,6.29"/>
        <ellipse class="cls-41" cx="441.18" cy="243.94" rx="1.34" ry="2.22"/>
        <ellipse class="cls-41" cx="416.19" cy="241.72" rx="1.34" ry="2.22"/>
        <path class="cls-10" d="m440.23,233.88s8.07-2.67,11.03,4.93"/>
        <path class="cls-10" d="m420.45,230.53s-6.59-1.84-8.28,1.38"/>
        <path class="cls-21" d="m446.52,244.56s-3.53-5.14-8.28-4.22"/>
        <path class="cls-21" d="m420.33,239.68s-4.6-3.91-7.36,0"/>
        <path class="cls-21" d="m441.3,267.51s-9.66,5.98-22.24,1.99"/>
        <path class="cls-21" d="m433.64,272.27s-4.15,1.74-7.21,0"/>
      </g>
      <path class="cls-34" d="m422.94,262.86c-1.69.01-5.73,2.79-3.75,4.44,1.21,1.01,3.64,1.06,5.18,1.21,2.24.22,4.55.19,6.77-.2,1.02-.18,1.99-.5,2.96-.76.83-.22-.88-2.7-.32-2.83s1.38,2.55,1.91,2.38c.91-.28,2.49-.61,2.65-1.71.11-.77-.85-1.72-1.43-2.22-.96-.82-1.85-1.51-3.1-1.29-2.3.4-4.55.74-6.85,1.06-.95.13-2.7.32-4.01-.07Z"/>
      <path class="cls-21" d="m474.31,255.75s1.48-6.68,4.52-5.25"/>
      <path class="cls-20" d="m393.35,367.05s-20.78,56.52-4.19,92.91"/>
      <path class="cls-38" d="m509.3,311.44s6.23-12.45-6.6-18.71c-.94-.46-1.94-.79-2.97-.98-4.22-.79-10-1.75-20.55,5.75l30.12,13.93Z"/>
      <g>
        <path class="cls-29" d="m503.54,297.44c5.53,3.09,4.29,11.26-.76,16.83l-12.02,12.32s-2.52,1.36-2.41-1.53c.03-.77,4-4.62,5.82-6.53l-7.31,7.66c-.48.51-1.17.82-1.87.76-.8-.06-1.31-.45-1.53-1.19s.02-1.46.47-2.04l7.31-9.23-6.91,8.21c-1.97,1.3-3.82-.23-2.94-2.49l1.12-1.82c-1.12,1.82-3.45-.33-2.22-2.3l4.71-6.82c-2.85,3.27-5.53.22-4.97-2.33l6.01-8.42c11.7-5.34,13.22-3.49,17.51-1.1Z"/>
        <path class="cls-21" d="m502.78,314.27l-12.02,12.32s-2.52,1.36-2.41-1.53c.03-.77,4-4.62,5.82-6.53l-7.31,7.66c-.48.51-1.17.82-1.87.76-.8-.06-1.31-.45-1.53-1.19s.02-1.46.47-2.04l7.31-9.23-6.91,8.21c-1.97,1.3-3.82-.23-2.94-2.49l1.12-1.82c-1.12,1.82-3.45-.33-2.22-2.3l4.71-6.82c-2.85,3.27-5.53.22-4.97-2.33l6.01-8.42"/>
        <line class="cls-21" x1="488.15" y1="310.8" x2="482.51" y2="318.4"/>
      </g>
    </g>
  </g>
  <g id="Calque_17" data-name="Calque 17">
    <g>
      <path class="cls-43" d="m618.69,305.31c-.08-.28-12.77-5.19-12.77-5.19-18.87-2.52-13.89-21.72-15.28-39.47h-32.91l-.11,42.25c-.84.24-8.93,2.64-9.55,3.33-4.12,4.49,1.38,11.14,2.33,17.16.19,1.17.47,2.34.96,3.42.55,1.22,1.33,2.31,2.05,3.42,1.44,2.21,2.72,4.61,4.79,6.25,1.99,1.57,4.54,2.28,6.61,3.74.85.6,1.63,1.32,2.6,1.68.89.33,1.86.32,2.8.31,2.53-.03,5.06-.05,7.59-.08,2.85-.03,5.72-.06,8.53-.55,8.37-1.47,15.45-6.85,22.17-12.06,2.4-1.86,4.8-3.73,6.94-5.88,1.18-1.19,2.28-2.47,3.37-3.74,1.08-1.26,2.16-2.51,3.24-3.77,2.2-2.56-2.5-7.56-3.37-10.82Z"/>
      <path class="cls-43" d="m591.13,260.66c-.9,3.54-2.61,10.85-3.99,13.29-1.87,3.28-14.05,18.25-30.6,18.19-6.51-.03-12.62-4.99-16.36-13.23-2.87-6.33-2.33-10.36-3.57-18.24-1.04-6.59-2.13-13.96-.59-19.99,5.77-22.64,27.6-28,42.87-24.4,15.27,3.61,18.03,21.75,12.25,44.39Z"/>
      <path class="cls-47" d="m573.82,224.17c-.26,1.27-.54,2.58-1.24,3.65s-1.94,1.85-3.14,1.57c-1.45-.34-2.33-2.03-3.77-2.42-.55,2-1.13,4.05-2.28,5.74-1.96,2.89-5.28,2.7-7.59,5.06-2.24,2.29-5.4,5.66-8.73,3.12-2.29-1.74-2.71-4.68-5.01-1.8-1.7,2.13-1.4,5.35-3.75,7.53-2.35,2.18-5.64,3.19-8.72,2.68-1.21-.2-2.37-.62-3.49-1.13-3.23-1.49-6.1-3.84-8.27-6.76,2.69.84,5.85-.48,7.27-3.05,1.42-2.57.96-6.13-1.05-8.19-.54-.55-1.18-1.03-1.47-1.75-.38-.96-.02-2.06.49-2.95,2.05-3.54,6.77-5.01,10.3-3.21-.17-2.97-.34-6.03.59-8.84.93-2.81,3.23-5.34,6.03-5.47,2.36-.11,4.59,1.56,6.89,1.42,2.2-.13,4.5-1.67,6.54-2.49,4.88-1.95,9.95-3.56,15.2-3.76,10.36-.39,18.16,4.56,24.85,12.25,6.36,7.31,11.21,15.17,8.11,25.68,1.19-.61,2.68.4,3.08,1.73.4,1.33-.03,2.79-.63,4.03s-1.4,2.39-1.83,3.71c-.17.52-.27,1.1-.11,1.62.53,1.7,2.91,1.24,4.43.44.44,1.07.37,2.36-.18,3.38-.28.52-.69.99-.83,1.58-.3,1.28,1.17,2.58,2.3,2.03-1.52,1.34-3.89,1.46-5.51.29-3.14-2.27-1.4-7.37-4.46-10.02-3.09-2.67-8.67-.44-9.76-6.22-.37-1.98.39-3.97.76-5.96.37-1.98.17-4.41-1.46-5.46-1.45-.94-3.3-.34-5-.35-3.91-.02-7.22-3.53-8.29-7.5-1.07-3.97-.3-8.25.96-12.17"/>
      <ellipse class="cls-43" cx="593.06" cy="254.39" rx="8.25" ry="5.84" transform="translate(107.53 679.47) rotate(-64.42)"/>
      <circle class="cls-47" cx="591.3" cy="203.56" r="13.8"/>
      <circle class="cls-47" cx="576.84" cy="196.27" r="13.8"/>
      <path class="cls-47" d="m557.64,297.85c-.05-3.48-.14-2.25.01-5.73,1.73-.14,3.52-.39,5.21-.79,1.75-.41,4.82-1.62,7.21-2.65.95-.41,1.96.45,1.69,1.45-1.12,4.22-4.15,6.96-14.13,7.72Z"/>
      <path class="cls-36" d="m556.41,303.26c-6.58,1.74-23.15,10.44-29.61,12.59-2.89.96-5.81,1.99-8.24,3.83-2.82,2.14-4.76,5.22-6.37,8.37-8.86,17.23-20.08,64.67-23.64,81.81-.88,4.25-.28,8.7,1.87,12.47,4.33,7.6,3.77-7.43,6.14-9.08,6.38-4.45,16.42-4.67,21,1.62-1.14-5.06,6.61-18.68,5.47-23.74.34,2.37,5.4,13.08,5.4,13.08-2.41,30.83-3.13,45.38-4.1,50.81,35.72,50.8,27.79,43.63,49.6,38.26,16.24-4,33.39-4.18,50.02-2.39,11.26,1.21,22.47,4.56,33.71,3.24.81-5.93-9.59-5.81-10.84-11.67-.62-2.9-7.05-65.49-9.29-91.5-.15-1.7,2.25-2.24,2.83-.63,4.72,12.91,12.12,32.11,14.91,34.88,8.68,8.63,19.32,1.29,18.61-8.33-.73-9.96-16.68-80.53-17.35-82.63-2.07-6.48-6.21-13.69-12.21-16.92-5.98-3.22-35.1-16.37-34.13-15.91,3.09,1.48,2.42,3.92,2.09,4.78-.7,1.82-2.67,2.77-4.49,3.47-14.8,5.66-15.54,6.98-32.57,6.58-8.72-.21-24.07-3.95-25.8-8.42-.42-2.1,3.84-3.45,6.99-4.58Z"/>
      <line class="cls-28" x1="517.11" y1="412.24" x2="523.21" y2="393.25"/>
      <path class="cls-28" d="m524.33,463.56l4.1-59.35c-7.58-8.99-7.52-24.96-3.85-34.8l2.92-16.56"/>
      <ellipse class="cls-47" cx="567.21" cy="253.91" rx="1.62" ry="2.69"/>
      <ellipse class="cls-47" cx="543.95" cy="253.25" rx="1.62" ry="2.69"/>
      <path class="cls-7" d="m565.12,244.99s8.84-3.86,14.46,2.44"/>
      <path class="cls-15" d="m549.57,243.57s-7.4-3.43-11.55,1.18"/>
      <path class="cls-24" d="m564.99,274.68s-7.64,5.44-17.58,1.81"/>
      <path class="cls-2" d="m559.33,279.88s-3.78,1.59-6.56,0"/>
      <path class="cls-2" d="m555.71,259.1s-.16,3.79-2.97,5.37c-.83.47-1.35,1.36-1.35,2.31,0,1.35.7,3.06,3.83,3.77"/>
      <path class="cls-25" d="m574.62,254.3s-4.16-6.01-9.84-2.95"/>
      <path class="cls-2" d="m550.31,252.84s-5.83-5.71-9.49-1.34"/>
      <path class="cls-26" d="m562.49,412.98c12.74,2.43,26.45-7.32,39.91-6.23,10.4.84,5.96,3.08-.47,4.18-6.45,1.11-13.38,1.76-20.25,2.1"/>
      <path class="cls-27" d="m591.21,255.58c.52-1.54.8-3.28,2.58-3.98.93-.36,1.9-.29,2.86-.03"/>
    </g>
    <path class="cls-30" d="m516.84,416.7c0,29.38-8.61,53.2-19.23,53.2s-19.23-23.82-19.23-53.2,22.87-79.78,24.4-69.27c4.38,30.14,14.06,39.89,14.06,69.27Z"/>
    <rect class="cls-33" x="653.04" y="332.51" width="33.29" height="138.32" rx="13.65" ry="13.65" transform="translate(35.25 -53.64) rotate(4.71)"/>
    <path class="cls-47" d="m538.06,250.33s1.62,3.13,3.84.83l1.36-1.01c-.79.07-.69-.41-1.43-.02-.99.53-2.85.72-3.77.21Z"/>
    <path class="cls-47" d="m561.7,250.63s1.49,3.2,3.8,1l1.4-.96c-.79.03-.68-.44-1.42-.08-1.01.48-2.87.6-3.78.04Z"/>
  </g>
  <g id="Calque_5" data-name="Calque 5">
    <rect class="cls-44" x="844" y="307.16" width="60.53" height="25.41" rx="12" ry="12" transform="translate(-42.12 155.86) rotate(-9.95)"/>
    <path class="cls-43" d="m780.36,371.03c-3.75-3.64-10.58-8.23-15.09-3.25-.61.67-1.05,1.67-.7,2.58.32.83.73,1.63,1.23,2.4-1.13.56-1.95,1.7-2.32,3.62-.32,1.68.14,3.28,1.06,4.76-2.22.56-4.06,1.8-3.76,4.54.14,1.27.84,2.35,1.79,3.29-.86.52-1.49,1.34-1.67,2.59-.66,4.77,5.1,8.12,11.04,9.8,1.94,1.3,4.13,2.66,6.32,2.69,1.39.02,2.7-.63,3.9-1.61.07-.01.15-.02.22-.03.37-.08.51-.35.51-.63,2.73-2.66,4.74-7.04,5.28-9.67,1.52-7.44-2.49-15.92-7.81-21.08Z"/>
    <path class="cls-30" d="m873.37,378.49c1.75-9.31.55-50.55-7.96-59.07-8.85-8.86-20.17-15.78-22.41-16.94-16.13-8.34-49.84-3.29-64.07,5.09-12.07,7.11-25.26,38.75-23.5,63.52.43,6.03,2.14,121.58-.15,121.57l122.39,6.76s-7.35-104.77-4.31-120.94Z"/>
    <g>
      <path class="cls-43" d="m799.23,302.49c14.01,6.65,28.58,6.93,43.77,0,0,0-10.95-14.47-2.98-33.71l1.9-4.26-42.7,12.12v25.84Z"/>
      <path class="cls-43" d="m788.76,217.93s-14.83,9.54-14.36,39.31c0,0-4.48,32.33,31.96,31.87,0,0,46.55-15.68,43.29-50.74,0,0-19.31-52.54-60.89-20.44Z"/>
      <path class="cls-9" d="m812.74,244.3s-4.9-6.15-10.8-4.56"/>
      <path class="cls-9" d="m787.08,239.99s-5.81-6.4-9.95-2"/>
      <path class="cls-47" d="m828.6,275.93c-.5.77-11.34,29.96-29.37,22.02v-9.21c5.01.81,27.29-11.33,29.37-12.81Z"/>
      <g>
        <path class="cls-9" d="m793.95,238.47s1.39,4.17-3.86,7.42c0,0-3.71,1.86-3.86,7.58,0,0,.15,4.79,3.09,6.34"/>
        <ellipse class="cls-47" cx="805.05" cy="243.56" rx="1.35" ry="2.24"/>
        <ellipse class="cls-47" cx="780.33" cy="239.99" rx="1.35" ry="2.24"/>
        <path class="cls-8" d="m804.32,232.93s10.37-.77,11.99,5.87"/>
        <path class="cls-8" d="m786.34,229.97s-6.65-1.86-8.35,1.39"/>
        <path class="cls-9" d="m807.36,266.29s-9.74,6.03-22.42,2.01"/>
        <path class="cls-9" d="m799.63,272.02s-4.18,1.76-7.27,0"/>
      </g>
    </g>
    <path class="cls-47" d="m852.63,238.8c0,16.19-17,17.08-20.49,14.32-8.24-3.8-1.72-17.27-10.23-25.07-.48-.38,2.31-2.96,1.83-3.31-.43-.31-4.13,1.61-4.56,1.31-22.2-15.14-40.89-2.43-36.97-8.18,6.9-10.1,18.64-16.74,31.97-16.74,10.62,0,21.44,1.02,27.19,11.03,10.15,3.73,11.26,16.23,11.26,26.63Z"/>
    <path class="cls-43" d="m852.07,255.18c2.03-3.87.54-8.64-3.32-10.67-3.86-2.02-8.63-.52-10.66,3.34-2.03,3.87-4.22,9.51-.36,11.53s12.3-.34,14.33-4.21Z"/>
    <path class="cls-9" d="m848.98,250.27s-6.05-3.7-7.05,6.36"/>
    <path class="cls-30" d="m843,302.49c14.05,9.3,31.56,11.83,43.38,23.83,4.29,4.35,34.32,84.76,34.32,84.76,0,0,7.43,16.52,2.89,27.86-3.94,8.31-10.34,13.95-21,13.31-25.97-1.56-51.95-3.12-77.92-4.68-1.71-8.73-1.29-9.21-2.1-18.07-.13-1.38,0-6.02.75-7.18.81-1.24,2.16,1.4,3.6,1.06,15.65-3.63,30.07-6.32,46.01-4.27l-18.67-74.51-11.26-42.11Z"/>
    <path class="cls-43" d="m770.47,248.4c-2.33,21.31,1.82,41.51,26.52,42.17,20.47.55,36.79-12.78,41.08-34.3,4.19-21.02-12.3-40.52-32.66-42.89-20.36-2.37-32.61,13.7-34.94,35.01Z"/>
    <path class="cls-48" d="m827.08,263.1c.37,1.04-.2-1.75.17-.71.95-3.44,1.36-1.68,4.91-1.77s2.38-2.98,3.53.41c2.02,5.95-3.98,10.99,2.15,14.86,7.79-5.02,4.73-10.94,8.56-19.42,1.59-3.53,2.77-7.28,3.16-11.15,1.03-10.31-3.85-20.74-11.56-27.65-7.71-6.91-17.95-10.52-28.21-11.47-12-1.11-24.63,1.11-35.74-3.62l8.28,7.8-11.37,2.43c2.16,2.94,5.5,4.97,9.09,5.51-1.58,2.88-3.57,5.52-5.89,7.82,8.66.9,17.27,2.35,25.75,4.34,3.19.75,6.85.86,6.91,4.43.06,6.48,7.91,12.19,11.66,13.2,1.59.43,3.21,1.61,3.45,3.57.11,1.01,1.11,8.48,1.43,10.29.24,1.38,2.76,2.63,3.34,2.02l.38-.89Z"/>
    <path class="cls-35" d="m804.79,200.51c-.95.08,2.25-.96,3.05-1.48,6.65-4.32,15.35-3.07,23.07-1.23,7.99,1.9,16.42,4.63,21.41,11.2,4.97,6.55,5.38,15.51,4.32,23.66-.28,2.11.4,7.2-.68,9.02-2.35,3.97-4.16,12.2-6.06,16.4"/>
    <path class="cls-37" d="m834.89,221.46c-14.67-17.76-32.55-27.15-39.93-20.99-1.48,1.23-4.22,3.98-3.4,5.26,15.59,1.14,34.52,25.51,38.75,31.71,5.13,7.52,10.38,15.32,12.68,24.2.22.86.41,6.64.41,6.64,3.52.62,2.56-1.73,4.68-3.5,7.38-6.17,1.47-25.57-13.2-43.32Z"/>
    <ellipse class="cls-43" cx="833.68" cy="263.78" rx="8.73" ry="6.5" transform="translate(20.93 586.32) rotate(-39.2)"/>
    <ellipse class="cls-47" cx="799.35" cy="246.85" rx="2.57" ry="1.4" transform="translate(316.99 930.39) rotate(-71.95)"/>
    <ellipse class="cls-47" cx="776.54" cy="243.71" rx="2.57" ry="1.4" transform="translate(304.23 906.53) rotate(-71.95)"/>
    <path class="cls-16" d="m789.62,241.59c-.91,3.03-3.3,5.61-5.55,7.68-1.38,1.27-2.77,2.39-3.64,4.84-.74,2.1-.73,3.05.03,4.33.58.98,2.78,1.95,2.16,3.7"/>
    <path class="cls-3" d="m786.37,239.07c-2.11-4.48-9.21-5.83-12.59-2.96"/>
    <path class="cls-3" d="m797.98,239.28c9.04-2.77,12.02,4.08,12.86,5.24"/>
    <path class="cls-16" d="m837.56,262.34c-2.79-2.21-7.21-.11-6.61,3.47"/>
    <path class="cls-16" d="m807.24,247.55s-4.18-6.1-9.22-4.52"/>
    <path class="cls-16" d="m783.26,243.37s-4.96-6.35-8.5-1.99"/>
    <path class="cls-16" d="m796.68,270.62s-10.34,4.42-19.19-2.37"/>
    <path class="cls-16" d="m789.64,277.28s-4.49.6-7-1.89"/>
  </g>
  <g id="Calque_8_-_copie" data-name="Calque 8 - copie">
    <path class="cls-44" d="m848.73,368.53c-.71,17.29,13.58,21.99,14.28,30.06,1.83,21.02,20.42,68.81,35.59,76.43,47.36,23.79,80.23,28.1,76.76,5.05-3.95-26.27-37.38-48.01-31.22-81.02,12.25-65.59-14.58-105.35-17.22-107.58-5.66-4.79-31.47,12.66-41.39,17.43-16.81,18.95-36.8,36.49-36.8,59.63Z"/>
    <path class="cls-34" d="m887.56,311.83c-6.88-.15-25.51,39.08-23.96,40.24,4.1,1.51,25.73-12.44,40.56-25.2l9.91-15.04h-26.5Z"/>
    <path class="cls-32" d="m906.53,315.23l-9.72,1.38c-5.51.86-16.13,13.89-16.13,9.03,14.05-19.24,9.12-43.76,7.81-67.27l31.11,2.36v26.86c0,16.2-.02,24.61-13.06,27.65Z"/>
    <path class="cls-41" d="m890.19,291.63s14.62-4.36,15.96-7.42-13.49,22.12-17.11,21.67c0,0,1.68-10.64,1.15-14.25Z"/>
    <path class="cls-32" d="m921.1,266.88c-12.98,20.87-34.49,30.96-48.04,22.54-13.55-8.43-17.89-44.76-4.91-65.64,12.98-20.87,38.37-18.38,51.92-9.95,13.55,8.43,14.01,32.18,1.03,53.05Z"/>
    <path class="cls-13" d="m877.39,445.37c-12.05-14.51-11.71-50.54-11.71-50.54-8.87-12.85-5.32-34.02-5.32-34.02,0,0,11.15-40.76,27.2-48.98l1.31-5.08"/>
    <path class="cls-31" d="m821.63,364.61c4.46,1.92,9.87,9.02,10.73,9.57,4.92,2.93,8.06,8.24,9.3,11.54,3.4.37,15.56-7.2,17.89-9.07-2.3-.62-9.25-4.22-8.61-9.43.95-7.65-6.23-13.12-3.95-18.49,2.59-6.08,2.9-11.86.97-14.81-.41-1.17-1.6-3.13-2.9-2.85-.02,0,0,0-.02,0-1.32.31-1.86,1.71-1.44,2.91,0,0,1.42,3.42-.4,9.24l-5.44-13.35c-.62-1.76-2.14-4.53-3.81-2.35-.62.81-.72,1.82-.4,2.73,0,0,2.25,12.66,2.14,12.4-1.92-2.34-2.98-3.35-11.46-9.96-1.72-1.2-2.85-1.93-4.06-1.72-.13.02-.22.04-.32.07-1.44.4-1.39,2.68-.47,3.33,6.33,5.25,10.67,9.5,11.77,12.12-1.85-2.88-8.47-.47-8.47-.47-.53.4-4.52,1.54-4.73,2.93-.15.98-1.28,4.52-.68,5.14-1.95-.4-4.05.23-3.83,1.43l1.05,1.71c.58,3.18,2.66,5.43,7.11,7.35Zm.5-6.31c-.15-.83-2.59-2.38-3.43-2.97,2.5-.72,3.24-4.42,3.24-4.42,2.86-.35,4.51-1.31,4.51-1.31,1.39,1.88,4.24,2.51,4.61,3.65.2.6,1.59,2.24,1.21,3.89s-2.48,3.33-3.67,3.36c-2.08.4-5.76-3.01-6.47-2.19Z"/>
    <path class="cls-44" d="m919.59,444.29s-16.98,16.28-28.56,17.46c-8.76.35-16.36-2.56-20.53-11.86-10.17-22.63-20.33-45.26-30.5-67.89,6.62-5.3,7.21-5.16,14.34-9.76,1.11-.72,65.26,72.04,65.26,72.04Z"/>
    <polyline class="cls-13" points="854.36 373.48 896.98 421.92 896.98 363.86"/>
    <path class="cls-13" d="m910.58,461.72c19.25,1.43,22.64-23.41,22.64-23.41l10.72-44.43"/>
    <g>
      <path class="cls-13" d="m861.5,354.73c59.38-32.39,63.03-52.29,63.91-56"/>
      <path class="cls-13" d="m926.32,299.02l15.81,24.63h-33.63s17.82,11.77,17.82,11.77c0,0-37.48,18.46-63.45,19.31,0,0-2.09-14.47.73-22.72"/>
    </g>
    <path class="cls-32" d="m856.57,255.25c-1.07,1.47-2.25,3.13-1.64,4.75.4,1.07,1.55,1.88,2.82,2.36s2.69.66,4.09.85c.37.05.77.09,1.09-.06.32-.16.45-.46.54-.75,1.25-3.69.59-7.6-.09-11.38-.31-1.72-.61-3.44-.99-5.14-.44-1.98-1.27-1.55-1.5.15-.46,3.29-2.26,6.38-4.32,9.23Z"/>
    <path class="cls-18" d="m871.38,247.83s-3.14-4.57-7.37-3.76"/>
    <path class="cls-23" d="m863.1,237.99c7.41-1.87,12.97,6.5,13.35,8.97"/>
    <path class="cls-18" d="m865.68,270.94c2.75.38,5.55.35,8.29-.08,1.25-.2,2.23,1.06,1.7,2.21-.49,1.05-1.17,2.01-2,2.81"/>
    <ellipse class="cls-41" cx="865.86" cy="247.83" rx="1.28" ry="2.14"/>
    <path class="cls-36" d="m876.52,204.32c-4.52,2.43-10.89,8.69-10.84,15.88.05,6.59,3.57,19.66,7.53,25.1,6.38,8.75,22.69,12.37,24.13,19.21,3.3,15.72,2.44,16.41.96,32.38-1.06,11.33-1.47,24.72,7.9,31.79,4.29,3.24,9.57,5.08,14.39,7.49,17.64,8.8,27.79,39.68,25.57,50.37,26.58-29.34,1.26-49.19,7.35-72.86,6.07-23.61,2.13-44.72-5.16-71.99-16.51-61.74-67.3-39.8-71.82-37.37Z"/>
    <path class="cls-11" d="m886.77,234.97c9.31,9.47,12.2,27.89,13.06,40.24.43,6.17.03,12.37-1,18.47-1.86,10.98-3.11,33.71,16.74,39.78"/>
    <path class="cls-11" d="m956.39,339.21s-11.16-31.47-6.71-44.41"/>
  </g>
</svg>