<svg width="387" height="400" viewBox="0 0 387 400" fill="none" xmlns="http://www.w3.org/2000/svg">
<path fill-rule="evenodd" clip-rule="evenodd" d="M-4.00027 279.813C48.0202 306.842 97.6241 341.017 151.553 364.354C224.889 396.088 307.009 406.637 386.161 395.924L386 -3.00003L-3.8392 -3.00003L-4.00027 279.813Z" fill="#FFEADC"/>
<path opacity="0.25" fill-rule="evenodd" clip-rule="evenodd" d="M259.935 41.7641C257.756 26.4365 267.369 -3.27409 267.369 -3.27409L386 -2.99999C386 -2.99999 386.161 68.0856 386.161 75.4252C386.161 82.7648 386.198 89.9267 386 90.0635C377.874 95.6782 372.065 97.3497 365.014 100.298C356.073 104.038 346.787 106.971 337.183 108.272C333.96 108.709 328.44 108.821 319.773 107.095C289.21 99.9717 264.354 72.8329 259.935 41.7641Z" fill="#FF9739"/>
<path fill-rule="evenodd" clip-rule="evenodd" d="M-4.00015 245.267C-4.00015 245.267 -2.02437 246.238 -1.04147 246.704C61.7304 276.484 110.961 254.119 160.31 229.936C180.366 220.104 198.43 207.17 214.295 191.9C265.374 142.738 292.308 68.0767 292.308 -2.6971C292.308 -3.00005 -3.83909 -3.00002 -3.83909 -3.00002L-4.00015 245.267Z" fill="#FF9739"/>
</svg>
