<svg width="56" height="56" viewBox="0 0 56 56" fill="none" xmlns="http://www.w3.org/2000/svg">
<g clip-path="url(#clip0_256_1495)">
<path d="M27.77 37.6799C19.06 37.6799 12 36.1599 12 34.2899C12 32.4199 19.06 30.8999 27.77 30.8999C36.48 30.8999 43.54 32.4199 43.54 34.2899C43.54 36.1599 36.48 37.6799 27.77 37.6799Z" fill="#F3C8B3"/>
<path d="M34.8 34.0099L27.19 34.6099L19.24 33.6099C19.24 33.6099 17.87 33.3399 17.87 31.3899V15.1899H37.61V31.3899C37.61 33.3399 37.1 33.2399 34.79 34.0099H34.8Z" fill="#F55F24"/>
<path d="M17.93 32.6101C17.93 33.7201 22.34 34.6101 27.78 34.6101C33.22 34.6101 36.94 33.2401 38.28 32.9601" stroke="#F55F24" stroke-width="0.66" stroke-miterlimit="10" stroke-linecap="round"/>
<path d="M17.93 29.8899C17.93 30.9999 22.34 31.8899 27.78 31.8899C33.22 31.8899 37.63 30.9899 37.63 29.8899" stroke="#653825" stroke-width="0.66" stroke-miterlimit="10" stroke-linecap="round"/>
<path d="M17.88 27.8701C17.98 28.9701 22.45 29.4801 27.86 28.9901C33.28 28.5101 37.59 27.2201 37.49 26.1201" stroke="#653825" stroke-width="0.66" stroke-miterlimit="10" stroke-linecap="round"/>
<path d="M17.88 24.4199C17.98 25.5199 22.45 26.0299 27.86 25.5399C33.28 25.0599 37.59 23.7699 37.49 22.6699" stroke="#653825" stroke-width="0.66" stroke-miterlimit="10" stroke-linecap="round"/>
<path d="M17.88 20.8101C17.98 21.9101 22.45 22.4201 27.86 21.9301C33.27 21.4401 37.59 20.1601 37.49 19.0601" stroke="#653825" stroke-width="0.66" stroke-miterlimit="10" stroke-linecap="round"/>
<path d="M27.77 17.79C19.06 17.79 12 16.27 12 14.39C12 12.51 19.06 11 27.77 11C36.48 11 43.54 12.52 43.54 14.39C43.54 16.26 36.48 17.78 27.77 17.78V17.79Z" fill="#F3C8B3"/>
<path d="M27.77 15.3599C25.3 15.3599 23.29 14.9299 23.29 14.3999C23.29 13.8699 25.29 13.4399 27.77 13.4399C30.25 13.4399 32.25 13.8699 32.25 14.3999C32.25 14.9299 30.25 15.3599 27.77 15.3599Z" fill="white"/>
<path d="M36.93 33.2399C47.65 30.5199 52.67 39.8699 41.63 39.8399C30.59 39.8099 19.14 37.9399 18.31 39.8399C17.48 41.7399 25.53 45.6599 28.14 46.1899C36.3 47.8499 39.15 44.6099 38.44 42.3099C37.88 40.4899 16.88 41.3999 13.01 40.5699" stroke="#F55F24" stroke-width="0.66" stroke-miterlimit="10" stroke-linecap="round"/>
</g>
<defs>
<clipPath id="clip0_256_1495">
<rect width="36.17" height="35.98" fill="white" transform="translate(12 11)"/>
</clipPath>
</defs>
</svg>
