<?xml version="1.0" encoding="UTF-8"?>
<svg xmlns="http://www.w3.org/2000/svg" xmlns:xlink="http://www.w3.org/1999/xlink" width="35" height="35" viewBox="0 0 35 35">
<defs>
<clipPath id="clip-0">
<path clip-rule="evenodd" d="M 0.464844 19.78125 C -0.484375 13.109375 3.019531 6.027344 8.894531 2.730469 C 11.164062 1.453125 13.710938 0.722656 16.289062 0.359375 C 19.863281 -0.136719 23.605469 0.0859375 26.921875 1.515625 C 30.234375 2.945312 33.078125 5.671875 34.167969 9.113281 C 35.046875 11.871094 34.773438 14.851562 34.40625 17.722656 C 34.039062 20.597656 33.550781 23.558594 31.972656 25.996094 C 29.957031 29.113281 26.457031 30.914062 23.027344 32.347656 C 21.105469 33.152344 19.113281 33.78125 17.050781 34.0625 C 16.359375 34.15625 15.175781 34.179688 13.3125 33.808594 C 6.75 32.277344 1.414062 26.453125 0.464844 19.78125 Z M 0.464844 19.78125 "/>
</clipPath>
</defs>
<g clip-path="url(#clip-0)">
<rect x="-3.5" y="-3.5" width="42" height="42" fill="rgb(100%, 91.764832%, 86.274719%)" fill-opacity="1"/>
</g>
</svg>
