<svg width="56" height="56" viewBox="0 0 56 56" fill="none" xmlns="http://www.w3.org/2000/svg">
<g clip-path="url(#clip0_2491_5757)">
<path d="M29.3459 23.9912L24.741 21.3171C24.3986 21.118 24.1838 20.7464 24.1838 20.3549V16.6523C24.1838 16.0352 23.6803 15.5309 23.0494 15.5309H18.827C18.2028 15.5309 17.6926 16.0285 17.6926 16.6523V20.3549C17.6926 20.7464 17.4845 21.1114 17.1421 21.3171L12.5909 23.9912C12.2486 24.1903 12.0405 24.5552 12.0405 24.9533V40.8786C12.0405 41.4957 12.5439 42 13.1749 42H28.7753C29.3996 42 29.9098 41.5024 29.9098 40.8786V24.96C29.9098 24.5618 29.695 24.1969 29.3526 23.9978L29.3459 23.9912Z" fill="#F3C8B3"/>
<path d="M25.2108 32.8761C25.7075 33.7254 25.4122 34.8136 24.5529 35.3047C23.6937 35.7957 22.5928 35.5037 22.0961 34.6544L15.229 22.9029C13.7723 22.9825 12.3156 22.2658 11.5369 20.9321C10.8187 19.7045 10.8455 18.258 11.4698 17.0968C11.5504 16.9508 11.7585 16.9574 11.839 17.0968L13.2554 19.5254C13.2957 19.5917 13.3561 19.6315 13.4299 19.6382L15.3364 19.7974C15.4303 19.8041 15.5176 19.7576 15.5579 19.6714L16.3768 17.9594C16.4104 17.893 16.4037 17.8134 16.3701 17.7537L14.9604 15.3184C14.8732 15.1725 14.9739 14.9933 15.1417 14.9999C16.4708 15.0464 17.7529 15.7498 18.4645 16.9773C19.2432 18.3177 19.1492 19.9169 18.3437 21.1245L25.2108 32.8761Z" fill="white"/>
<path d="M12.0405 25.1921H33.8367V42H13.1346C12.5305 42 12.0405 41.5156 12.0405 40.9184V25.1921Z" fill="#F55F24"/>
<path d="M36.072 18.1519H20.9684" stroke="#653825" stroke-width="2" stroke-miterlimit="10" stroke-linecap="round"/>
<path d="M44.4428 23.9912L39.8379 21.3171C39.4955 21.118 39.2807 20.7464 39.2807 20.3549V16.6523C39.2807 16.0352 38.7773 15.5309 38.1463 15.5309H33.924C33.2997 15.5309 32.7895 16.0285 32.7895 16.6523V20.3549C32.7895 20.7464 32.5814 21.1114 32.2391 21.3171L27.6878 23.9912C27.3455 24.1903 27.1374 24.5552 27.1374 24.9533V40.8786C27.1374 41.4957 27.6408 42 28.2718 42H43.8722C44.4965 42 45.0067 41.5024 45.0067 40.8786V24.96C45.0067 24.5618 44.7919 24.1969 44.4495 23.9978L44.4428 23.9912Z" fill="#F55F24"/>
<path d="M16.3836 17.9528L15.5714 19.6714L13.4367 19.6382" stroke="#653825" stroke-width="0.66" stroke-miterlimit="10" stroke-linecap="round"/>
<path d="M26.9226 25.1921V42" stroke="#653825" stroke-width="0.66" stroke-miterlimit="10"/>
</g>
<defs>
<clipPath id="clip0_2491_5757">
<rect width="34" height="27" fill="white" transform="translate(11 15)"/>
</clipPath>
</defs>
</svg>
