<?xml version="1.0" encoding="UTF-8"?>
<svg xmlns="http://www.w3.org/2000/svg" xmlns:xlink="http://www.w3.org/1999/xlink" width="56" height="56" viewBox="0 0 56 56">
<defs>
<filter id="filter-remove-color" x="0%" y="0%" width="100%" height="100%">
<feColorMatrix color-interpolation-filters="sRGB" values="0 0 0 0 1 0 0 0 0 1 0 0 0 0 1 0 0 0 1 0" />
</filter>
<clipPath id="clip-0">
<rect x="0" y="0" width="56" height="56"/>
</clipPath>
<g id="source-13" clip-path="url(#clip-0)">
<path fill-rule="nonzero" fill="rgb(0%, 0%, 0%)" fill-opacity="1" d="M 0 28 C 0 12.535156 12.535156 0 28 0 C 43.464844 0 56 12.535156 56 28 C 56 43.464844 43.464844 56 28 56 C 12.535156 56 0 43.464844 0 28 Z M 0 28 "/>
</g>
<mask id="mask-0">
<g filter="url(#filter-remove-color)">
<use xlink:href="#source-13"/>
</g>
</mask>
<clipPath id="clip-1">
<rect x="0" y="0" width="56" height="56"/>
</clipPath>
<g id="source-9" clip-path="url(#clip-1)">
<path fill-rule="nonzero" fill="rgb(0%, 0%, 0%)" fill-opacity="1" d="M 12 18 L 44 18 L 44 44 L 12 44 Z M 12 18 "/>
</g>
<mask id="mask-1">
<g filter="url(#filter-remove-color)">
<use xlink:href="#source-9"/>
</g>
</mask>
<clipPath id="clip-2">
<rect x="0" y="0" width="56" height="56"/>
</clipPath>
<g id="source-8" clip-path="url(#clip-2)">
<path fill-rule="nonzero" fill="rgb(100%, 100%, 100%)" fill-opacity="1" d="M 28.132812 43.734375 C 36.894531 43.734375 44 41.246094 44 38.175781 C 44 35.105469 36.894531 32.617188 28.132812 32.617188 C 19.371094 32.617188 12.265625 35.105469 12.265625 38.175781 C 12.265625 41.246094 19.371094 43.734375 28.132812 43.734375 Z M 28.132812 43.734375 "/>
<path fill-rule="nonzero" fill="rgb(39.607239%, 21.960449%, 14.509583%)" fill-opacity="1" d="M 12.597656 38.175781 C 12.597656 37.992188 12.449219 37.84375 12.265625 37.84375 C 12.085938 37.84375 11.9375 37.992188 11.9375 38.175781 Z M 28.132812 44.0625 C 28.316406 44.0625 28.464844 43.914062 28.464844 43.734375 C 28.464844 43.550781 28.316406 43.402344 28.132812 43.402344 Z M 11.9375 38.175781 C 11.9375 39.078125 12.460938 39.894531 13.304688 40.589844 C 14.148438 41.289062 15.347656 41.90625 16.804688 42.414062 C 19.71875 43.4375 23.726562 44.0625 28.132812 44.0625 L 28.132812 43.402344 C 23.78125 43.402344 19.851562 42.785156 17.023438 41.792969 C 15.609375 41.296875 14.484375 40.714844 13.722656 40.082031 C 12.960938 39.449219 12.597656 38.804688 12.597656 38.175781 Z M 11.9375 38.175781 "/>
<path fill-rule="nonzero" fill="rgb(96.099854%, 37.298584%, 14.099121%)" fill-opacity="1" d="M 17.289062 20.386719 L 38.976562 20.386719 L 38.976562 31.65625 C 38.976562 35.878906 35.554688 39.300781 31.347656 39.300781 L 24.925781 39.300781 C 20.710938 39.300781 17.296875 35.871094 17.296875 31.65625 L 17.296875 20.386719 Z M 17.289062 20.386719 "/>
<path fill-rule="nonzero" fill="rgb(95.298767%, 78.399658%, 70.199585%)" fill-opacity="1" d="M 28.132812 22.773438 C 34.121094 22.773438 38.976562 21.703125 38.976562 20.386719 C 38.976562 19.070312 34.121094 18 28.132812 18 C 22.144531 18 17.289062 19.070312 17.289062 20.386719 C 17.289062 21.703125 22.144531 22.773438 28.132812 22.773438 Z M 28.132812 22.773438 "/>
<path fill-rule="nonzero" fill="rgb(96.099854%, 37.298584%, 14.099121%)" fill-opacity="1" d="M 28.132812 18.808594 C 33.832031 18.808594 37.425781 19.773438 38.105469 20.386719 C 37.425781 21 33.84375 21.964844 28.132812 21.964844 C 22.425781 21.964844 18.839844 21 18.160156 20.386719 C 18.839844 19.773438 22.425781 18.808594 28.132812 18.808594 Z M 28.132812 18 C 22.148438 18 17.289062 19.066406 17.289062 20.386719 C 17.289062 21.703125 22.140625 22.773438 28.132812 22.773438 C 34.125 22.773438 38.976562 21.703125 38.976562 20.386719 C 38.976562 19.066406 34.125 18 28.132812 18 Z M 28.132812 18 "/>
<path fill-rule="nonzero" fill="rgb(100%, 100%, 100%)" fill-opacity="1" d="M 31.175781 29.542969 C 31.175781 29.316406 31.273438 29.097656 31.445312 28.953125 L 33.851562 26.882812 L 36.199219 28.558594 C 36.402344 28.703125 36.523438 28.9375 36.523438 29.1875 L 36.523438 32.300781 C 36.523438 32.691406 36.238281 33.015625 35.859375 33.070312 L 32.074219 33.636719 C 31.605469 33.710938 31.183594 33.347656 31.183594 32.867188 L 31.183594 29.542969 Z M 31.175781 29.542969 "/>
<path fill-rule="nonzero" fill="rgb(39.607239%, 21.960449%, 14.509583%)" fill-opacity="1" d="M 34.140625 21.515625 C 34.136719 21.335938 33.988281 21.1875 33.808594 21.1875 C 33.625 21.191406 33.480469 21.339844 33.480469 21.519531 Z M 33.519531 27.824219 C 33.519531 28.003906 33.671875 28.152344 33.851562 28.152344 C 34.035156 28.148438 34.179688 28 34.179688 27.820312 Z M 33.480469 21.519531 L 33.519531 27.824219 L 34.179688 27.820312 L 34.140625 21.515625 Z M 33.480469 21.519531 "/>
<path fill-rule="nonzero" fill="rgb(96.099854%, 37.298584%, 14.099121%)" fill-opacity="1" d="M 38.121094 24.359375 C 38.570312 25.253906 38.570312 25.253906 38.570312 25.253906 C 38.566406 25.253906 38.566406 25.253906 38.566406 25.253906 C 38.570312 25.25 38.578125 25.25 38.589844 25.242188 C 38.609375 25.234375 38.644531 25.21875 38.691406 25.199219 C 38.78125 25.160156 38.917969 25.109375 39.078125 25.0625 C 39.417969 24.960938 39.804688 24.894531 40.148438 24.9375 C 40.464844 24.976562 40.714844 25.09375 40.910156 25.371094 C 41.128906 25.679688 41.367188 26.308594 41.34375 27.535156 L 43.34375 27.570312 C 43.371094 26.117188 43.101562 25.003906 42.539062 24.210938 C 41.953125 23.386719 41.144531 23.042969 40.390625 22.953125 C 39.664062 22.863281 38.980469 23.007812 38.511719 23.144531 C 38.269531 23.214844 38.066406 23.292969 37.925781 23.351562 C 37.851562 23.382812 37.792969 23.40625 37.75 23.425781 C 37.730469 23.4375 37.714844 23.445312 37.699219 23.453125 C 37.691406 23.453125 37.6875 23.457031 37.683594 23.460938 C 37.679688 23.460938 37.679688 23.460938 37.675781 23.460938 C 37.675781 23.460938 37.675781 23.464844 37.675781 23.464844 C 37.671875 23.464844 37.671875 23.464844 38.121094 24.359375 Z M 41.34375 27.535156 C 41.324219 28.738281 41.0625 29.523438 40.746094 30.035156 C 40.4375 30.539062 40.039062 30.84375 39.636719 31.027344 C 39.222656 31.21875 38.800781 31.289062 38.46875 31.308594 C 38.304688 31.320312 38.171875 31.316406 38.082031 31.3125 C 38.039062 31.308594 38.007812 31.308594 37.988281 31.304688 C 37.980469 31.304688 37.972656 31.304688 37.972656 31.304688 C 37.972656 31.304688 37.972656 31.304688 37.976562 31.304688 C 37.976562 31.304688 37.980469 31.304688 37.839844 32.292969 C 37.699219 33.285156 37.699219 33.285156 37.699219 33.285156 C 37.699219 33.285156 37.703125 33.285156 37.703125 33.285156 C 37.707031 33.285156 37.710938 33.285156 37.710938 33.285156 C 37.71875 33.285156 37.722656 33.289062 37.730469 33.289062 C 37.746094 33.289062 37.765625 33.292969 37.789062 33.292969 C 37.835938 33.300781 37.898438 33.304688 37.972656 33.308594 C 38.128906 33.316406 38.339844 33.320312 38.589844 33.304688 C 39.089844 33.277344 39.773438 33.167969 40.476562 32.84375 C 41.1875 32.515625 41.910156 31.964844 42.453125 31.082031 C 42.992188 30.199219 43.316406 29.050781 43.34375 27.570312 Z M 41.34375 27.535156 "/>
</g>
<clipPath id="clip-3">
<rect x="0" y="0" width="56" height="56"/>
</clipPath>
<g id="source-12" clip-path="url(#clip-3)">
<g mask="url(#mask-1)">
<use xlink:href="#source-8"/>
</g>
<path fill-rule="nonzero" fill="rgb(100%, 100%, 100%)" fill-opacity="0.6" d="M 23.625 17.476562 C 23.90625 16.769531 24.492188 16.183594 24.730469 15.460938 C 24.902344 14.9375 24.875 14.363281 24.664062 13.859375 C 24.367188 13.164062 23.75 12.648438 23.378906 11.988281 C 22.683594 10.75 23 9.148438 23.878906 8.011719 C 24.597656 7.078125 25.714844 6.273438 25.773438 5.117188 C 26.148438 4.933594 26.601562 5 27.011719 5.078125 C 27.789062 5.214844 28.566406 5.351562 29.34375 5.488281 C 30.148438 5.632812 31.007812 5.796875 31.582031 6.347656 C 32.132812 6.871094 32.324219 7.640625 32.339844 8.378906 C 32.351562 8.929688 32.277344 9.5 31.964844 9.964844 C 31.707031 10.347656 31.3125 10.632812 31.046875 11.011719 C 30.535156 11.730469 30.597656 12.769531 31.179688 13.429688 C 31.40625 13.683594 31.699219 13.882812 31.902344 14.152344 C 32.285156 14.671875 32.269531 15.425781 31.859375 15.933594 C 31.476562 16.410156 30.753906 16.792969 30.867188 17.382812 C 30.925781 17.695312 31.214844 17.90625 31.445312 18.136719 C 31.988281 18.675781 32.265625 19.519531 31.914062 20.191406 C 31.472656 21.035156 30.339844 21.242188 29.363281 21.351562 C 28.703125 21.421875 28.042969 21.496094 27.386719 21.566406 C 27.175781 21.59375 26.964844 21.613281 26.757812 21.570312 C 26.261719 21.476562 25.746094 21.132812 25.277344 20.953125 C 24.8125 20.777344 24.464844 20.566406 24.148438 20.203125 C 23.503906 19.464844 23.253906 18.394531 23.617188 17.480469 Z M 23.625 17.476562 "/>
</g>
</defs>
<g mask="url(#mask-0)">
<use xlink:href="#source-12"/>
</g>
</svg>
