<?xml version="1.0" encoding="UTF-8"?>
<svg xmlns="http://www.w3.org/2000/svg" xmlns:xlink="http://www.w3.org/1999/xlink" width="32" height="32" viewBox="0 0 32 32">
<path fill-rule="nonzero" fill="rgb(33.72345%, 71.879578%, 77.082825%)" fill-opacity="1" d="M 32 16 C 32 24.835938 24.835938 32 16 32 C 7.164062 32 0 24.835938 0 16 C 0 7.164062 7.164062 0 16 0 C 24.835938 0 32 7.164062 32 16 Z M 32 16 "/>
<path fill-rule="nonzero" fill="rgb(100%, 100%, 100%)" fill-opacity="1" d="M 21 7.675781 L 11 7.667969 C 10.074219 7.667969 9.332031 8.410156 9.332031 9.332031 L 9.332031 22.667969 C 9.332031 23.589844 10.074219 24.332031 11 24.332031 L 21 24.332031 C 21.925781 24.332031 22.667969 23.589844 22.667969 22.667969 L 22.667969 9.332031 C 22.667969 8.410156 21.925781 7.675781 21 7.675781 Z M 21 22.667969 L 11 22.667969 L 10.992188 9.332031 L 21 9.332031 Z M 21 22.667969 "/>
<path fill-rule="nonzero" fill="rgb(100%, 100%, 100%)" fill-opacity="1" d="M 12.667969 11.832031 C 13.125 11.832031 13.5 11.460938 13.5 11 C 13.5 10.539062 13.125 10.167969 12.667969 10.167969 C 12.207031 10.167969 11.832031 10.539062 11.832031 11 C 11.832031 11.460938 12.207031 11.832031 12.667969 11.832031 Z M 12.667969 11.832031 "/>
<path fill-rule="nonzero" fill="rgb(100%, 100%, 100%)" fill-opacity="1" d="M 15.167969 11.832031 C 15.625 11.832031 16 11.460938 16 11 C 16 10.539062 15.625 10.167969 15.167969 10.167969 C 14.707031 10.167969 14.332031 10.539062 14.332031 11 C 14.332031 11.460938 14.707031 11.832031 15.167969 11.832031 Z M 15.167969 11.832031 "/>
<path fill-rule="nonzero" fill="rgb(100%, 100%, 100%)" fill-opacity="1" d="M 16 21.832031 C 18.300781 21.832031 20.167969 19.964844 20.167969 17.667969 C 20.167969 15.367188 18.300781 13.5 16 13.5 C 13.699219 13.5 11.832031 15.367188 11.832031 17.667969 C 11.832031 19.964844 13.699219 21.832031 16 21.832031 Z M 17.964844 15.699219 C 19.050781 16.785156 19.050781 18.550781 17.964844 19.632812 C 16.882812 20.714844 15.117188 20.714844 14.035156 19.632812 Z M 17.964844 15.699219 "/>
</svg>
