<?xml version="1.0" encoding="UTF-8"?>
<svg xmlns="http://www.w3.org/2000/svg" xmlns:xlink="http://www.w3.org/1999/xlink" width="24" height="24" viewBox="0 0 24 24">
<defs>
<clipPath id="clip-0">
<path clip-rule="evenodd" d="M 24 12 C 24 18.628906 18.628906 24 12 24 C 5.371094 24 0 18.628906 0 12 C 0 5.371094 5.371094 0 12 0 C 18.628906 0 24 5.371094 24 12 "/>
</clipPath>
<clipPath id="clip-1">
<path clip-rule="nonzero" d="M 6 13 L 18 13 L 18 17 L 6 17 Z M 6 13 "/>
</clipPath>
<clipPath id="clip-2">
<path clip-rule="nonzero" d="M 12.039062 13.042969 C 13.859375 13.042969 15.621094 13.804688 17.058594 15.203125 C 17.265625 15.402344 17.269531 15.734375 17.070312 15.9375 C 16.871094 16.144531 16.539062 16.152344 16.332031 15.949219 C 15.082031 14.738281 13.578125 14.085938 12.039062 14.085938 C 10.46875 14.085938 8.933594 14.761719 7.671875 16.023438 C 7.46875 16.226562 7.136719 16.222656 6.933594 16.019531 C 6.730469 15.816406 6.730469 15.484375 6.9375 15.28125 C 8.386719 13.835938 10.183594 13.042969 12.039062 13.042969 Z M 12.039062 13.042969 "/>
</clipPath>
<clipPath id="clip-3">
<path clip-rule="nonzero" d="M 7 10 L 10 10 L 10 13 L 7 13 Z M 7 10 "/>
</clipPath>
<clipPath id="clip-4">
<path clip-rule="evenodd" d="M 9.390625 11.476562 C 9.390625 12.054688 8.925781 12.523438 8.347656 12.523438 C 7.773438 12.523438 7.304688 12.054688 7.304688 11.476562 C 7.304688 10.902344 7.773438 10.433594 8.347656 10.433594 C 8.925781 10.433594 9.390625 10.902344 9.390625 11.476562 "/>
</clipPath>
<clipPath id="clip-5">
<path clip-rule="nonzero" d="M 14 10 L 17 10 L 17 13 L 14 13 Z M 14 10 "/>
</clipPath>
<clipPath id="clip-6">
<path clip-rule="evenodd" d="M 16.695312 11.476562 C 16.695312 12.054688 16.226562 12.523438 15.652344 12.523438 C 15.074219 12.523438 14.609375 12.054688 14.609375 11.476562 C 14.609375 10.902344 15.074219 10.433594 15.652344 10.433594 C 16.226562 10.433594 16.695312 10.902344 16.695312 11.476562 "/>
</clipPath>
</defs>
<g clip-path="url(#clip-0)">
<rect x="-2.4" y="-2.4" width="28.8" height="28.8" fill="rgb(43.920898%, 43.920898%, 43.920898%)" fill-opacity="0.2001"/>
</g>
<g clip-path="url(#clip-1)">
<g clip-path="url(#clip-2)">
<path fill-rule="nonzero" fill="rgb(43.920898%, 43.920898%, 43.920898%)" fill-opacity="1" d="M 5.730469 12.042969 L 18.269531 12.042969 L 18.269531 17.226562 L 5.730469 17.226562 Z M 5.730469 12.042969 "/>
</g>
</g>
<g clip-path="url(#clip-3)">
<g clip-path="url(#clip-4)">
<path fill-rule="nonzero" fill="rgb(43.920898%, 43.920898%, 43.920898%)" fill-opacity="1" d="M 6.304688 9.433594 L 10.390625 9.433594 L 10.390625 13.523438 L 6.304688 13.523438 Z M 6.304688 9.433594 "/>
</g>
</g>
<g clip-path="url(#clip-5)">
<g clip-path="url(#clip-6)">
<path fill-rule="nonzero" fill="rgb(43.920898%, 43.920898%, 43.920898%)" fill-opacity="1" d="M 13.609375 9.433594 L 17.695312 9.433594 L 17.695312 13.523438 L 13.609375 13.523438 Z M 13.609375 9.433594 "/>
</g>
</g>
</svg>
