<?xml version="1.0" encoding="UTF-8" standalone="no"?>
<!DOCTYPE svg PUBLIC "-//W3C//DTD SVG 1.1//EN" "http://www.w3.org/Graphics/SVG/1.1/DTD/svg11.dtd">
<svg width="100%" height="100%" viewBox="0 0 45 45" version="1.1" xmlns="http://www.w3.org/2000/svg" xmlns:xlink="http://www.w3.org/1999/xlink" xml:space="preserve" xmlns:serif="http://www.serif.com/" style="fill-rule:evenodd;clip-rule:evenodd;stroke-linejoin:round;stroke-miterlimit:2;">
    <g transform="matrix(0.5,0,0,0.5,0,0)">
        <path d="M45,90C69.853,90 90,69.853 90,45C90,20.147 69.853,0 45,0C20.147,0 0,20.147 0,45C0,69.853 20.147,90 45,90Z" style="fill:rgb(245,95,36);"/>
    </g>
    <g transform="matrix(0.5,0,0,0.5,0,0)">
        <path d="M32.557,15L59.442,15C68.572,15 76,22.428 76,31.558L76,58.442C76,67.572 68.572,75 59.442,75L32.557,75C23.428,75 16,67.572 16,58.442L16,31.558C16,22.428 23.428,15 32.557,15ZM59.442,69.677C65.637,69.677 70.677,64.637 70.677,58.442L70.677,58.442L70.677,31.558C70.677,25.363 65.637,20.324 59.442,20.324L32.557,20.324C26.363,20.324 21.324,25.363 21.324,31.558L21.324,58.442C21.324,64.637 26.363,69.677 32.557,69.677L59.442,69.677ZM30.571,45C30.571,36.493 37.493,29.571 46,29.571C54.507,29.571 61.429,36.493 61.429,45C61.429,53.508 54.507,60.429 46,60.429C37.493,60.429 30.571,53.508 30.571,45ZM35.884,45C35.884,50.578 40.422,55.116 46,55.116C51.578,55.116 56.116,50.578 56.116,45C56.116,39.422 51.578,34.884 46,34.884C40.422,34.884 35.884,39.422 35.884,45ZM59.133,26.415C59.848,25.696 60.844,25.286 61.857,25.286C62.874,25.286 63.87,25.696 64.585,26.415C65.304,27.13 65.714,28.126 65.714,29.143C65.714,30.156 65.304,31.152 64.585,31.871C63.866,32.586 62.874,33 61.857,33C60.844,33 59.848,32.586 59.133,31.871C58.414,31.152 58,30.157 58,29.143C58,28.126 58.413,27.13 59.133,26.415Z" style="fill:white;"/>
    </g>
</svg>
