<?xml version="1.0" encoding="UTF-8"?>
<svg xmlns="http://www.w3.org/2000/svg" xmlns:xlink="http://www.w3.org/1999/xlink" width="24" height="21" viewBox="0 0 24 21">
<defs>
<clipPath id="clip-0">
<path clip-rule="nonzero" d="M 23.824219 10.355469 C 24.058594 10.597656 24.058594 10.984375 23.824219 11.226562 L 19.023438 16.152344 C 18.90625 16.273438 18.753906 16.332031 18.601562 16.332031 C 18.449219 16.332031 18.292969 16.273438 18.175781 16.152344 C 17.941406 15.914062 17.941406 15.523438 18.175781 15.28125 L 21.953125 11.40625 L 12.601562 11.40625 C 12.269531 11.40625 12 11.132812 12 10.792969 C 12 10.449219 12.269531 10.175781 12.601562 10.175781 L 21.953125 10.175781 L 18.175781 6.300781 C 17.941406 6.0625 17.941406 5.671875 18.175781 5.429688 C 18.410156 5.191406 18.789062 5.191406 19.023438 5.429688 Z M 10.125 21 C 4.542969 21 0 16.289062 0 10.5 C 0 4.710938 4.542969 0 10.125 0 C 11.871094 0 13.601562 0.476562 15.128906 1.378906 C 15.414062 1.546875 15.511719 1.921875 15.351562 2.21875 C 15.1875 2.515625 14.824219 2.617188 14.539062 2.449219 C 13.191406 1.65625 11.667969 1.234375 10.125 1.234375 C 5.199219 1.234375 1.191406 5.390625 1.191406 10.5 C 1.191406 15.609375 5.199219 19.765625 10.125 19.765625 C 11.667969 19.765625 13.191406 19.34375 14.539062 18.550781 C 14.824219 18.382812 15.1875 18.484375 15.351562 18.78125 C 15.511719 19.078125 15.414062 19.453125 15.128906 19.625 C 13.601562 20.523438 11.871094 21 10.125 21 Z M 10.125 21 "/>
</clipPath>
</defs>
<g clip-path="url(#clip-0)">
<rect x="-2.4" y="-2.1" width="28.8" height="25.2" fill="rgb(100%, 59.2%, 22.3%)" fill-opacity="1"/>
</g>
</svg>
