<?xml version="1.0" encoding="UTF-8"?>
<svg xmlns="http://www.w3.org/2000/svg" xmlns:xlink="http://www.w3.org/1999/xlink" width="34" height="34" viewBox="0 0 34 34">
<path fill-rule="nonzero" fill="rgb(96.078491%, 37.254333%, 14.117432%)" fill-opacity="1" d="M 5.339844 27.554688 C 6.480469 26.480469 6.535156 24.6875 5.464844 23.546875 C 4.394531 22.410156 2.601562 22.351562 1.460938 23.425781 C 0.320312 24.496094 0.265625 26.289062 1.335938 27.429688 C 1.375 27.472656 1.417969 27.511719 1.460938 27.554688 C 0.5625 28.039062 0.00390625 28.972656 0 29.992188 L 0 33.433594 C 0 33.746094 0.253906 34 0.566406 34 L 6.234375 34 C 6.546875 34 6.800781 33.746094 6.800781 33.433594 L 6.800781 29.992188 C 6.796875 28.972656 6.238281 28.039062 5.339844 27.554688 Z M 3.398438 23.800781 C 4.339844 23.800781 5.101562 24.5625 5.101562 25.5 C 5.101562 26.4375 4.339844 27.199219 3.398438 27.199219 C 2.460938 27.199219 1.699219 26.4375 1.699219 25.5 C 1.699219 24.5625 2.460938 23.800781 3.398438 23.800781 Z M 5.667969 32.867188 L 1.132812 32.867188 L 1.132812 29.992188 C 1.132812 29.078125 1.875 28.335938 2.792969 28.332031 L 4.007812 28.332031 C 4.921875 28.335938 5.664062 29.078125 5.667969 29.992188 Z M 5.667969 32.867188 "/>
<path fill-rule="nonzero" fill="rgb(96.078491%, 37.254333%, 14.117432%)" fill-opacity="1" d="M 14.40625 27.554688 C 15.546875 26.480469 15.601562 24.6875 14.53125 23.546875 C 13.460938 22.410156 11.667969 22.351562 10.527344 23.425781 C 9.386719 24.496094 9.332031 26.289062 10.402344 27.429688 C 10.441406 27.472656 10.484375 27.511719 10.527344 27.554688 C 9.628906 28.039062 9.070312 28.972656 9.066406 29.992188 L 9.066406 33.433594 C 9.066406 33.746094 9.320312 34 9.632812 34 L 15.300781 34 C 15.613281 34 15.867188 33.746094 15.867188 33.433594 L 15.867188 29.992188 C 15.863281 28.972656 15.304688 28.039062 14.40625 27.554688 Z M 12.464844 23.800781 C 13.40625 23.800781 14.167969 24.5625 14.167969 25.5 C 14.167969 26.4375 13.40625 27.199219 12.464844 27.199219 C 11.527344 27.199219 10.765625 26.4375 10.765625 25.5 C 10.769531 24.5625 11.527344 23.800781 12.464844 23.800781 Z M 14.734375 32.867188 L 10.199219 32.867188 L 10.199219 29.992188 C 10.199219 29.078125 10.941406 28.335938 11.859375 28.332031 L 13.074219 28.332031 C 13.992188 28.335938 14.734375 29.078125 14.734375 29.992188 Z M 14.734375 32.867188 "/>
<path fill-rule="nonzero" fill="rgb(96.078491%, 37.254333%, 14.117432%)" fill-opacity="1" d="M 23.472656 27.554688 C 24.613281 26.480469 24.667969 24.6875 23.597656 23.546875 C 22.527344 22.410156 20.734375 22.351562 19.59375 23.425781 C 18.453125 24.496094 18.398438 26.289062 19.46875 27.429688 C 19.507812 27.472656 19.550781 27.511719 19.59375 27.554688 C 18.695312 28.039062 18.136719 28.972656 18.132812 29.992188 L 18.132812 33.433594 C 18.132812 33.746094 18.386719 34 18.699219 34 L 24.367188 34 C 24.679688 34 24.933594 33.746094 24.933594 33.433594 L 24.933594 29.992188 C 24.929688 28.972656 24.371094 28.039062 23.472656 27.554688 Z M 21.535156 23.800781 C 22.472656 23.800781 23.234375 24.5625 23.234375 25.5 C 23.234375 26.4375 22.472656 27.199219 21.535156 27.199219 C 20.59375 27.199219 19.832031 26.4375 19.832031 25.5 C 19.835938 24.5625 20.59375 23.800781 21.535156 23.800781 Z M 23.800781 32.867188 L 19.265625 32.867188 L 19.265625 29.992188 C 19.265625 29.078125 20.007812 28.335938 20.925781 28.332031 L 22.140625 28.332031 C 23.058594 28.335938 23.800781 29.078125 23.800781 29.992188 Z M 23.800781 32.867188 "/>
<path fill-rule="nonzero" fill="rgb(96.078491%, 37.254333%, 14.117432%)" fill-opacity="1" d="M 32.539062 27.554688 C 33.679688 26.480469 33.734375 24.6875 32.664062 23.546875 C 31.59375 22.410156 29.800781 22.351562 28.660156 23.425781 C 27.519531 24.496094 27.464844 26.289062 28.535156 27.429688 C 28.574219 27.472656 28.617188 27.511719 28.660156 27.554688 C 27.761719 28.039062 27.203125 28.972656 27.199219 29.992188 L 27.199219 33.433594 C 27.199219 33.746094 27.453125 34 27.765625 34 L 33.433594 34 C 33.746094 34 34 33.746094 34 33.433594 L 34 29.992188 C 33.996094 28.972656 33.4375 28.039062 32.539062 27.554688 Z M 30.601562 23.800781 C 31.539062 23.800781 32.300781 24.5625 32.300781 25.5 C 32.300781 26.4375 31.539062 27.199219 30.601562 27.199219 C 29.660156 27.199219 28.898438 26.4375 28.898438 25.5 C 28.902344 24.5625 29.660156 23.800781 30.601562 23.800781 Z M 32.867188 32.867188 L 28.332031 32.867188 L 28.332031 29.992188 C 28.335938 29.078125 29.078125 28.335938 29.992188 28.332031 L 31.207031 28.332031 C 32.125 28.335938 32.867188 29.078125 32.867188 29.992188 Z M 32.867188 32.867188 "/>
<path fill-rule="nonzero" fill="rgb(96.078491%, 37.254333%, 14.117432%)" fill-opacity="1" d="M 20.402344 2.832031 L 12.464844 2.832031 C 12.152344 2.832031 11.898438 3.085938 11.898438 3.398438 L 11.898438 13.601562 C 11.898438 13.914062 12.152344 14.167969 12.464844 14.167969 L 20.398438 14.167969 C 20.710938 14.167969 20.964844 13.914062 20.964844 13.601562 L 20.964844 3.398438 C 20.96875 3.085938 20.714844 2.832031 20.402344 2.832031 Z M 19.832031 13.035156 L 13.035156 13.035156 L 13.035156 3.964844 L 19.832031 3.964844 Z M 19.832031 13.035156 "/>
<path fill-rule="nonzero" fill="rgb(96.078491%, 37.254333%, 14.117432%)" fill-opacity="1" d="M 29.988281 2.992188 C 29.964844 2.96875 29.941406 2.945312 29.914062 2.917969 C 29 2.050781 27.566406 2.050781 26.652344 2.917969 L 26.632812 2.9375 L 26.613281 2.917969 C 25.699219 2.050781 24.265625 2.050781 23.351562 2.917969 C 22.46875 3.761719 22.433594 5.164062 23.277344 6.046875 C 23.300781 6.074219 23.328125 6.097656 23.351562 6.121094 L 26.238281 8.90625 C 26.460938 9.121094 26.808594 9.121094 27.027344 8.90625 L 29.914062 6.121094 C 30.796875 5.277344 30.832031 3.878906 29.988281 2.992188 Z M 29.171875 5.261719 C 29.15625 5.277344 29.144531 5.292969 29.128906 5.308594 L 26.632812 7.710938 L 24.140625 5.308594 C 23.707031 4.898438 23.683594 4.214844 24.09375 3.78125 C 24.109375 3.765625 24.125 3.75 24.140625 3.734375 C 24.613281 3.285156 25.355469 3.285156 25.828125 3.734375 L 26.238281 4.132812 C 26.460938 4.34375 26.808594 4.34375 27.027344 4.132812 L 27.4375 3.734375 C 27.914062 3.285156 28.652344 3.285156 29.128906 3.734375 C 29.5625 4.144531 29.582031 4.828125 29.171875 5.261719 Z M 29.171875 5.261719 "/>
<path fill-rule="nonzero" fill="rgb(96.078491%, 37.254333%, 14.117432%)" fill-opacity="1" d="M 18.585938 8.160156 L 16.886719 5.894531 C 16.679688 5.644531 16.3125 5.605469 16.0625 5.8125 C 16.03125 5.835938 16.003906 5.863281 15.980469 5.894531 L 14.28125 8.160156 C 14.128906 8.363281 14.128906 8.636719 14.28125 8.839844 L 15.980469 11.105469 C 16.167969 11.355469 16.523438 11.40625 16.773438 11.21875 C 16.816406 11.1875 16.855469 11.148438 16.886719 11.105469 L 18.585938 8.839844 C 18.738281 8.636719 18.738281 8.363281 18.585938 8.160156 Z M 16.433594 9.820312 L 15.441406 8.5 L 16.433594 7.179688 L 17.425781 8.5 Z M 16.433594 9.820312 "/>
<path fill-rule="nonzero" fill="rgb(96.078491%, 37.254333%, 14.117432%)" fill-opacity="1" d="M 26.632812 10.199219 C 24.128906 10.199219 22.101562 12.230469 22.101562 14.734375 C 22.101562 17.238281 24.128906 19.265625 26.632812 19.265625 C 29.136719 19.265625 31.167969 17.238281 31.167969 14.734375 C 31.164062 12.230469 29.136719 10.203125 26.632812 10.199219 Z M 26.632812 18.132812 C 24.753906 18.132812 23.234375 16.609375 23.234375 14.734375 C 23.234375 12.855469 24.753906 11.332031 26.632812 11.332031 C 28.511719 11.332031 30.035156 12.855469 30.035156 14.734375 C 30.03125 16.609375 28.511719 18.132812 26.632812 18.132812 Z M 26.632812 18.132812 "/>
<path fill-rule="nonzero" fill="rgb(96.078491%, 37.254333%, 14.117432%)" fill-opacity="1" d="M 27.199219 15.867188 C 27.199219 16.179688 26.945312 16.433594 26.632812 16.433594 C 26.320312 16.433594 26.066406 16.179688 26.066406 15.867188 L 24.933594 15.867188 C 24.933594 16.804688 25.695312 17.566406 26.632812 17.566406 C 27.570312 17.566406 28.332031 16.804688 28.332031 15.867188 Z M 27.199219 15.867188 "/>
<path fill-rule="nonzero" fill="rgb(96.078491%, 37.254333%, 14.117432%)" fill-opacity="1" d="M 28.050781 13.035156 C 27.582031 13.035156 27.199219 13.414062 27.199219 13.882812 C 27.199219 14.351562 27.582031 14.734375 28.050781 14.734375 C 28.519531 14.734375 28.898438 14.351562 28.898438 13.882812 C 28.898438 13.414062 28.519531 13.035156 28.050781 13.035156 Z M 28.050781 14.167969 C 27.894531 14.167969 27.765625 14.039062 27.765625 13.882812 C 27.765625 13.726562 27.894531 13.601562 28.050781 13.601562 C 28.207031 13.601562 28.332031 13.726562 28.332031 13.882812 C 28.332031 14.039062 28.207031 14.167969 28.050781 14.167969 Z M 28.050781 14.167969 "/>
<path fill-rule="nonzero" fill="rgb(96.078491%, 37.254333%, 14.117432%)" fill-opacity="1" d="M 25.214844 13.035156 C 24.746094 13.035156 24.367188 13.414062 24.367188 13.882812 C 24.367188 14.351562 24.746094 14.734375 25.214844 14.734375 C 25.6875 14.734375 26.066406 14.351562 26.066406 13.882812 C 26.066406 13.414062 25.6875 13.035156 25.214844 13.035156 Z M 25.214844 14.167969 C 25.058594 14.167969 24.933594 14.039062 24.933594 13.882812 C 24.933594 13.726562 25.058594 13.601562 25.214844 13.601562 C 25.375 13.601562 25.5 13.726562 25.5 13.882812 C 25.5 14.039062 25.375 14.167969 25.214844 14.167969 Z M 25.214844 14.167969 "/>
<path fill-rule="nonzero" fill="rgb(96.078491%, 37.254333%, 14.117432%)" fill-opacity="1" d="M 10.199219 11.332031 L 3.398438 11.332031 C 3.085938 11.332031 2.832031 11.585938 2.832031 11.898438 L 2.832031 15.867188 C 2.832031 16.179688 3.085938 16.433594 3.398438 16.433594 L 5.460938 16.433594 L 8.703125 19.136719 C 8.945312 19.335938 9.300781 19.304688 9.5 19.0625 C 9.613281 18.929688 9.65625 18.757812 9.621094 18.589844 L 9.191406 16.433594 L 10.199219 16.433594 C 10.511719 16.433594 10.765625 16.179688 10.765625 15.867188 L 10.765625 11.898438 C 10.765625 11.585938 10.511719 11.332031 10.199219 11.332031 Z M 9.632812 15.300781 L 8.5 15.300781 C 8.1875 15.300781 7.933594 15.554688 7.933594 15.867188 C 7.933594 15.902344 7.9375 15.941406 7.945312 15.976562 L 8.195312 17.238281 L 6.03125 15.429688 C 5.925781 15.347656 5.800781 15.300781 5.667969 15.300781 L 3.964844 15.300781 L 3.964844 12.464844 L 9.632812 12.464844 Z M 9.632812 15.300781 "/>
<path fill-rule="nonzero" fill="rgb(96.078491%, 37.254333%, 14.117432%)" fill-opacity="1" d="M 27.429688 0 L 6.570312 0 C 2.945312 0.00390625 0.00390625 2.945312 0 6.570312 L 0 14.960938 C 0.00390625 18.589844 2.945312 21.53125 6.570312 21.535156 L 27.429688 21.535156 C 31.054688 21.53125 33.996094 18.589844 34 14.960938 L 34 6.570312 C 33.996094 2.945312 31.054688 0.00390625 27.429688 0 Z M 32.867188 14.960938 C 32.863281 17.964844 30.429688 20.398438 27.429688 20.398438 L 6.570312 20.398438 C 3.570312 20.398438 1.136719 17.964844 1.132812 14.960938 L 1.132812 6.570312 C 1.136719 3.570312 3.570312 1.136719 6.570312 1.132812 L 27.429688 1.132812 C 30.429688 1.136719 32.863281 3.570312 32.867188 6.570312 Z M 32.867188 14.960938 "/>
<path fill-rule="nonzero" fill="rgb(96.078491%, 37.254333%, 14.117432%)" fill-opacity="1" d="M 7.417969 2.316406 C 7.214844 2.28125 7.007812 2.265625 6.800781 2.265625 C 5.117188 2.269531 3.621094 3.332031 3.0625 4.917969 L 3.058594 4.921875 L 3.058594 4.933594 C 2.988281 5.132812 2.933594 5.339844 2.898438 5.546875 C 2.894531 5.570312 2.890625 5.589844 2.886719 5.613281 C 2.546875 7.777344 4.023438 9.804688 6.183594 10.148438 C 8.347656 10.488281 10.378906 9.011719 10.71875 6.847656 C 11.058594 4.6875 9.582031 2.65625 7.417969 2.316406 Z M 6.1875 8.996094 C 4.695312 8.683594 3.730469 7.234375 4.015625 5.738281 C 5.3125 6.027344 6.230469 7.175781 6.234375 8.5 C 6.234375 8.667969 6.214844 8.832031 6.1875 8.996094 Z M 7.324219 9.015625 C 7.347656 8.84375 7.363281 8.671875 7.367188 8.5 C 7.363281 6.710938 6.164062 5.144531 4.4375 4.675781 C 4.851562 4.046875 5.5 3.609375 6.234375 3.457031 C 6.269531 5.324219 7.597656 6.914062 9.425781 7.285156 C 9.066406 8.183594 8.273438 8.832031 7.324219 9.015625 Z M 7.371094 3.457031 C 8.664062 3.726562 9.597656 4.851562 9.625 6.167969 C 8.339844 5.898438 7.40625 4.773438 7.371094 3.457031 Z M 7.371094 3.457031 "/>
</svg>
