<?xml version="1.0" encoding="UTF-8"?>
<svg xmlns="http://www.w3.org/2000/svg" xmlns:xlink="http://www.w3.org/1999/xlink" width="20" height="20" viewBox="0 0 20 20">
<path fill-rule="nonzero" fill="rgb(96.076965%, 37.254333%, 14.117432%)" fill-opacity="1" d="M 9 16 L 11 16 L 11 14 L 9 14 Z M 10 0 C 4.480469 0 0 4.480469 0 10 C 0 15.519531 4.480469 20 10 20 C 15.519531 20 20 15.519531 20 10 C 20 4.480469 15.519531 0 10 0 Z M 10 18 C 5.589844 18 2 14.410156 2 10 C 2 5.589844 5.589844 2 10 2 C 14.410156 2 18 5.589844 18 10 C 18 14.410156 14.410156 18 10 18 Z M 10 4 C 7.789062 4 6 5.789062 6 8 L 8 8 C 8 6.898438 8.898438 6 10 6 C 11.101562 6 12 6.898438 12 8 C 12 10 9 9.75 9 13 L 11 13 C 11 10.75 14 10.5 14 8 C 14 5.789062 12.210938 4 10 4 Z M 10 4 "/>
</svg>
