<?xml version="1.0" encoding="UTF-8" standalone="no"?>
<!DOCTYPE svg PUBLIC "-//W3C//DTD SVG 1.1//EN" "http://www.w3.org/Graphics/SVG/1.1/DTD/svg11.dtd">
<svg width="100%" height="100%" viewBox="0 0 45 45" version="1.1" xmlns="http://www.w3.org/2000/svg" xmlns:xlink="http://www.w3.org/1999/xlink" xml:space="preserve" xmlns:serif="http://www.serif.com/" style="fill-rule:evenodd;clip-rule:evenodd;stroke-linejoin:round;stroke-miterlimit:2;">
    <g transform="matrix(0.5,0,0,0.5,0,0)">
        <path d="M45,90C69.853,90 90,69.853 90,45C90,20.147 69.853,0 45,0C20.147,0 0,20.147 0,45C0,69.853 20.147,90 45,90Z" style="fill:rgb(245,95,36);"/>
    </g>
    <g transform="matrix(0.5,0,0,0.5,0,0)">
        <path d="M77,26.151C74.644,27.195 72.117,27.902 69.461,28.219C72.173,26.595 74.249,24.019 75.232,20.96C72.689,22.464 69.881,23.555 66.89,24.147C64.494,21.592 61.087,20 57.307,20C50.057,20 44.178,25.879 44.178,33.126C44.178,34.153 44.294,35.157 44.518,36.117C33.608,35.569 23.934,30.342 17.459,22.4C16.327,24.335 15.683,26.591 15.683,28.998C15.683,33.554 18.003,37.573 21.522,39.924C19.371,39.852 17.347,39.26 15.576,38.277L15.576,38.441C15.576,44.799 20.103,50.106 26.106,51.314C25.006,51.61 23.846,51.774 22.646,51.774C21.798,51.774 20.979,51.69 20.175,51.53C21.846,56.749 26.693,60.544 32.436,60.648C27.945,64.168 22.282,66.259 16.131,66.259C15.072,66.259 14.028,66.195 13,66.079C18.811,69.811 25.71,71.986 33.124,71.986C57.276,71.986 70.477,51.982 70.477,34.633L70.433,32.934C73.013,31.094 75.244,28.782 77,26.151Z" style="fill:white;fill-rule:nonzero;"/>
    </g>
</svg>
