<svg width="56" height="56" viewBox="0 0 56 56" fill="none" xmlns="http://www.w3.org/2000/svg">
<g clip-path="url(#clip0_268_3187)">
<path d="M29.346 23.9911L24.741 21.317C24.3987 21.1179 24.1839 20.7463 24.1839 20.3548V16.6522C24.1839 16.0351 23.6804 15.5308 23.0494 15.5308H18.8271C18.2028 15.5308 17.6926 16.0284 17.6926 16.6522V20.3548C17.6926 20.7463 17.4846 21.1112 17.1422 21.317L12.591 23.9911C12.2486 24.1901 12.0405 24.5551 12.0405 24.9532V40.8785C12.0405 41.4956 12.544 41.9999 13.175 41.9999H28.7754C29.3997 41.9999 29.9098 41.5023 29.9098 40.8785V24.9599C29.9098 24.5617 29.695 24.1968 29.3527 23.9977L29.346 23.9911Z" fill="#F3C8B3"/>
<path d="M25.2107 32.8761C25.7075 33.7254 25.4121 34.8136 24.5529 35.3047C23.6937 35.7957 22.5928 35.5037 22.096 34.6544L15.2289 22.9029C13.7722 22.9825 12.3156 22.2658 11.5369 20.9321C10.8186 19.7045 10.8455 18.258 11.4698 17.0968C11.5503 16.9508 11.7584 16.9574 11.839 17.0968L13.2553 19.5254C13.2956 19.5917 13.356 19.6315 13.4299 19.6382L15.3363 19.7974C15.4303 19.8041 15.5175 19.7576 15.5578 19.6714L16.3768 17.9594C16.4103 17.893 16.4036 17.8134 16.3701 17.7537L14.9604 15.3184C14.8731 15.1725 14.9738 14.9933 15.1416 14.9999C16.4707 15.0464 17.7529 15.7498 18.4644 16.9773C19.2431 18.3177 19.1491 19.9169 18.3436 21.1245L25.2107 32.8761Z" fill="white"/>
<path d="M12.0405 25.1921H33.8368V42H13.1347C12.5306 42 12.0405 41.5156 12.0405 40.9184V25.1921Z" fill="#FF9739"/>
<path d="M36.0722 18.1519H20.9685" stroke="#653825" stroke-width="2" stroke-miterlimit="10" stroke-linecap="round"/>
<path d="M44.4429 23.9911L39.8379 21.317C39.4956 21.1179 39.2808 20.7463 39.2808 20.3548V16.6522C39.2808 16.0351 38.7773 15.5308 38.1463 15.5308H33.924C33.2997 15.5308 32.7896 16.0284 32.7896 16.6522V20.3548C32.7896 20.7463 32.5815 21.1112 32.2391 21.317L27.6879 23.9911C27.3455 24.1901 27.1375 24.5551 27.1375 24.9532V40.8785C27.1375 41.4956 27.6409 41.9999 28.2719 41.9999H43.8723C44.4966 41.9999 45.0067 41.5023 45.0067 40.8785V24.9599C45.0067 24.5617 44.7919 24.1968 44.4496 23.9977L44.4429 23.9911Z" fill="#FF9739"/>
<path d="M16.3837 17.9529L15.5714 19.6715L13.4368 19.6383" stroke="#653825" stroke-width="0.66" stroke-miterlimit="10" stroke-linecap="round"/>
<path d="M26.9226 25.1921V42" stroke="#653825" stroke-width="0.66" stroke-miterlimit="10"/>
</g>
<defs>
<clipPath id="clip0_268_3187">
<rect width="34" height="27" fill="white" transform="translate(11 15)"/>
</clipPath>
</defs>
</svg>
