<?xml version="1.0" encoding="UTF-8"?>
<svg xmlns="http://www.w3.org/2000/svg" xmlns:xlink="http://www.w3.org/1999/xlink" width="10" height="11" viewBox="0 0 10 11">
<defs>
<clipPath id="clip-0">
<path clip-rule="nonzero" d="M 0 1 L 10 1 L 10 10 L 0 10 Z M 0 1 "/>
</clipPath>
<clipPath id="clip-1">
<path clip-rule="evenodd" d="M 5 1 C 7.484375 1 9.5 3.015625 9.5 5.5 C 9.5 6.351562 9.261719 7.167969 8.820312 7.875 C 8.675781 8.109375 8.367188 8.183594 8.132812 8.035156 C 7.898438 7.890625 7.828125 7.582031 7.972656 7.347656 C 8.316406 6.796875 8.5 6.164062 8.5 5.5 C 8.5 3.566406 6.933594 2 5 2 C 3.066406 2 1.5 3.566406 1.5 5.5 C 1.5 7.433594 3.066406 9 5 9 C 5.277344 9 5.5 9.222656 5.5 9.5 C 5.5 9.777344 5.277344 10 5 10 C 2.515625 10 0.5 7.984375 0.5 5.5 C 0.5 3.015625 2.515625 1 5 1 Z M 5 1 "/>
</clipPath>
<clipPath id="clip-2">
<path clip-rule="nonzero" d="M 6 6 L 10 6 L 10 9 L 6 9 Z M 6 6 "/>
</clipPath>
<clipPath id="clip-3">
<path clip-rule="evenodd" d="M 7.210938 6.464844 C 7.445312 6.363281 7.714844 6.460938 7.835938 6.679688 L 7.863281 6.734375 L 8.308594 7.796875 L 9.339844 7.445312 C 9.582031 7.363281 9.84375 7.480469 9.953125 7.707031 L 9.972656 7.761719 C 10.058594 8.003906 9.941406 8.265625 9.714844 8.371094 L 9.660156 8.394531 L 8.1875 8.894531 C 7.957031 8.972656 7.707031 8.875 7.589844 8.667969 L 7.566406 8.613281 L 6.941406 7.117188 C 6.835938 6.863281 6.953125 6.570312 7.210938 6.464844 Z M 7.210938 6.464844 "/>
</clipPath>
</defs>
<g clip-path="url(#clip-0)">
<g clip-path="url(#clip-1)">
<rect x="-1" y="-1.1" width="12" height="13.2" fill="rgb(100%, 0%, 0%)" fill-opacity="1"/>
</g>
</g>
<g clip-path="url(#clip-2)">
<g clip-path="url(#clip-3)">
<path fill-rule="nonzero" fill="rgb(100%, 0%, 0%)" fill-opacity="1" d="M 5.835938 5.363281 L 11 5.363281 L 11 9.972656 L 5.835938 9.972656 Z M 5.835938 5.363281 "/>
</g>
</g>
</svg>
