<svg width="30" height="30" viewBox="0 0 30 30" fill="none" xmlns="http://www.w3.org/2000/svg">
<path d="M6.25 13.75H1.25V27.5H6.25V13.75Z" fill="#1E1E1E"/>
<path d="M20 4.0625C20.8125 3.1125 22.075 2.5 23.375 2.5C25.6875 2.5 27.5 4.3125 27.5 6.625C27.5 9.4625 23.8625 12.75 20 16.25C16.1375 12.7375 12.5 9.45 12.5 6.625C12.5 4.3125 14.3125 2.5 16.625 2.5C17.925 2.5 19.1875 3.1125 20 4.0625Z" fill="#1E1E1E"/>
<path d="M25 21.25H16.25L13.6375 20.3375L14.05 19.1625L16.25 20H19.775C20.5875 20 21.25 19.3375 21.25 18.525C21.25 17.9125 20.8625 17.3625 20.2875 17.1375L11.2125 13.75H8.75V25.025L17.5 27.5L27.5125 23.75C27.5 22.375 26.3875 21.25 25 21.25Z" fill="#1E1E1E"/>
</svg>
