<?xml version="1.0" encoding="UTF-8"?>
<svg xmlns="http://www.w3.org/2000/svg" xmlns:xlink="http://www.w3.org/1999/xlink" width="31.900391" height="32" viewBox="0 0 31.900391 32">
<path fill-rule="nonzero" fill="rgb(97.647095%, 62.35199%, 48.626709%)" fill-opacity="1" d="M 31.898438 16 C 31.898438 24.835938 24.757812 32 15.949219 32 C 7.140625 32 0 24.835938 0 16 C 0 7.164062 7.140625 0 15.949219 0 C 24.757812 0 31.898438 7.164062 31.898438 16 Z M 31.898438 16 "/>
<path fill-rule="nonzero" fill="rgb(100%, 100%, 100%)" fill-opacity="1" d="M 25.167969 15.992188 L 23.132812 13.667969 L 23.417969 10.589844 L 20.410156 9.910156 L 18.832031 7.25 L 16 8.464844 L 13.167969 7.25 L 11.589844 9.910156 L 8.582031 10.582031 L 8.867188 13.667969 L 6.832031 15.992188 L 8.867188 18.316406 L 8.582031 21.398438 L 11.589844 22.082031 L 13.167969 24.75 L 16 23.523438 L 18.832031 24.742188 L 20.410156 22.082031 L 23.417969 21.398438 L 23.132812 18.324219 Z M 21.875 17.226562 L 21.410156 17.765625 L 21.476562 18.476562 L 21.625 20.101562 L 20.042969 20.457031 L 19.339844 20.617188 L 18.976562 21.234375 L 18.148438 22.632812 L 16.667969 21.992188 L 16 21.707031 L 15.339844 21.992188 L 13.859375 22.632812 L 13.035156 21.242188 L 12.667969 20.625 L 11.964844 20.464844 L 10.382812 20.109375 L 10.535156 18.476562 L 10.601562 17.765625 L 10.132812 17.226562 L 9.058594 16 L 10.132812 14.765625 L 10.601562 14.226562 L 10.523438 13.507812 L 10.375 11.890625 L 11.957031 11.535156 L 12.660156 11.375 L 13.023438 10.757812 L 13.851562 9.359375 L 15.332031 10 L 16 10.285156 L 16.660156 10 L 18.140625 9.359375 L 18.964844 10.757812 L 19.332031 11.375 L 20.035156 11.535156 L 21.617188 11.890625 L 21.464844 13.515625 L 21.398438 14.226562 L 21.867188 14.765625 L 22.941406 15.992188 Z M 21.875 17.226562 "/>
<path fill-rule="nonzero" fill="rgb(100%, 100%, 100%)" fill-opacity="1" d="M 14.410156 17.457031 L 12.476562 15.515625 L 11.242188 16.757812 L 14.410156 19.933594 L 20.523438 13.800781 L 19.292969 12.558594 Z M 14.410156 17.457031 "/>
</svg>
