<?xml version="1.0" encoding="UTF-8"?>
<svg xmlns="http://www.w3.org/2000/svg" xmlns:xlink="http://www.w3.org/1999/xlink" width="91" height="66" viewBox="0 0 91 66">
<defs>
<clipPath id="clip-0">
<path clip-rule="nonzero" d="M 23 38 L 35 38 L 35 48 L 23 48 Z M 23 38 "/>
</clipPath>
<clipPath id="clip-1">
<path clip-rule="evenodd" d="M 34.984375 43.671875 C 34.949219 43.90625 34.835938 44.121094 34.65625 44.292969 L 34.574219 44.375 C 34.027344 44.902344 33.367188 45.316406 32.644531 45.597656 L 26.332031 48 L 23 40.625 L 25.382812 39.285156 C 26.308594 38.761719 27.34375 38.433594 28.421875 38.324219 L 31.425781 38.011719 C 32.050781 37.945312 32.679688 38.148438 33.128906 38.5625 L 34.097656 39.453125 C 34.296875 39.632812 34.390625 39.886719 34.359375 40.140625 L 34.28125 40.730469 C 34.25 40.976562 34.175781 41.222656 34.058594 41.449219 L 33.773438 42.007812 L 33.746094 42.0625 L 33.867188 42.046875 C 34.367188 41.984375 34.824219 42.308594 34.898438 42.773438 L 34.988281 43.332031 C 35.003906 43.445312 35.003906 43.5625 34.984375 43.671875 "/>
</clipPath>
<clipPath id="clip-2">
<path clip-rule="nonzero" d="M 25 35 L 33 35 L 33 37 L 25 37 Z M 25 35 "/>
</clipPath>
<clipPath id="clip-3">
<path clip-rule="evenodd" d="M 33 36 C 33 35.980469 31.210938 35.964844 29 35.964844 C 26.789062 35.964844 25 35.980469 25 36 C 25 36.019531 26.789062 36.035156 29 36.035156 C 31.210938 36.035156 33 36.019531 33 36 "/>
</clipPath>
<clipPath id="clip-4">
<path clip-rule="nonzero" d="M 26 43 L 32 43 L 32 45 L 26 45 Z M 26 43 "/>
</clipPath>
<clipPath id="clip-5">
<path clip-rule="evenodd" d="M 32 44 C 32 43.984375 30.65625 43.96875 29 43.96875 C 27.34375 43.96875 26 43.984375 26 44 C 26 44.015625 27.34375 44.03125 29 44.03125 C 30.65625 44.03125 32 44.015625 32 44 "/>
</clipPath>
<clipPath id="clip-6">
<path clip-rule="nonzero" d="M 25 36 L 33 36 L 33 44 L 25 44 Z M 25 36 "/>
</clipPath>
<clipPath id="clip-7">
<path clip-rule="evenodd" d="M 33 36 L 25 36 L 25.695312 44 L 32.296875 44 Z M 33 36 "/>
</clipPath>
<clipPath id="clip-8">
<path clip-rule="nonzero" d="M 26 40 L 31 40 L 31 46 L 26 46 Z M 26 40 "/>
</clipPath>
<clipPath id="clip-9">
<path clip-rule="evenodd" d="M 26 42.367188 L 30.085938 40.078125 C 30.148438 40.042969 30.214844 40.019531 30.289062 40.007812 C 30.695312 39.945312 31.046875 40.304688 30.996094 40.726562 L 30.984375 40.8125 C 30.878906 41.667969 30.53125 42.476562 29.988281 43.132812 L 27.609375 46 "/>
</clipPath>
<clipPath id="clip-10">
<path clip-rule="nonzero" d="M 32 39 L 34 39 L 34 43 L 32 43 Z M 32 39 "/>
</clipPath>
<clipPath id="clip-11">
<path clip-rule="evenodd" d="M 34 41.175781 L 33.589844 42.355469 C 33.460938 42.738281 33.164062 42.988281 32.832031 43 C 32.609375 43.007812 32.390625 42.898438 32.234375 42.695312 C 31.996094 42.390625 31.933594 41.933594 32.074219 41.546875 L 33 39 "/>
</clipPath>
<clipPath id="clip-12">
<path clip-rule="nonzero" d="M 32 41 L 35 41 L 35 44 L 32 44 Z M 32 41 "/>
</clipPath>
<clipPath id="clip-13">
<path clip-rule="evenodd" d="M 34.984375 42.902344 L 34.59375 43.308594 C 34.324219 43.589844 33.984375 43.789062 33.605469 43.898438 L 33.378906 43.960938 C 33.277344 43.988281 33.179688 44 33.078125 44 C 32.597656 44 32.148438 43.6875 32.019531 43.210938 C 31.980469 43.070312 32 42.925781 32.074219 42.800781 L 32.203125 42.574219 C 32.328125 42.359375 32.480469 42.164062 32.65625 41.984375 L 33.652344 41 L 33.621094 41.0625 L 33.757812 41.046875 C 34.304688 40.976562 34.804688 41.347656 34.886719 41.875 L 34.984375 42.511719 C 35.003906 42.640625 35.003906 42.773438 34.984375 42.902344 "/>
</clipPath>
<clipPath id="clip-14">
<path clip-rule="nonzero" d="M 20 41 L 26 41 L 26 54 L 20 54 Z M 20 41 "/>
</clipPath>
<clipPath id="clip-15">
<path clip-rule="evenodd" d="M 26 49.957031 L 24.136719 54 L 20 43.597656 L 22.503906 41 Z M 26 49.957031 "/>
</clipPath>
<clipPath id="clip-16">
<path clip-rule="nonzero" d="M 58 11 L 76 11 L 76 32 L 58 32 Z M 58 11 "/>
</clipPath>
<clipPath id="clip-17">
<path clip-rule="evenodd" d="M 76 28.226562 L 64.851562 32 L 64.359375 30.488281 L 64.132812 29.800781 C 64.132812 29.800781 63.605469 28.421875 62.035156 28.167969 C 61.9375 28.15625 61.832031 28.144531 61.722656 28.136719 C 60.546875 28.070312 59.84375 27.375 59.492188 26.886719 C 59.300781 26.628906 59.210938 26.308594 59.207031 25.988281 L 59.175781 22.230469 C 59.175781 22.101562 59.105469 21.980469 58.992188 21.914062 L 58.277344 21.503906 C 57.992188 21.339844 57.914062 20.964844 58.105469 20.699219 L 60.046875 17.984375 L 60.058594 16.335938 C 60.058594 15.921875 60.113281 15.519531 60.222656 15.132812 C 60.597656 13.765625 61.582031 12.625 62.925781 12.089844 C 65.550781 11.042969 69.488281 10.15625 72.582031 12.394531 C 76.632812 15.328125 75.730469 21.570312 75.179688 24.03125 C 75.125 24.289062 75.09375 24.550781 75.085938 24.808594 C 75.078125 25.265625 75.144531 25.722656 75.292969 26.160156 Z M 76 28.226562 "/>
</clipPath>
<clipPath id="clip-18">
<path clip-rule="nonzero" d="M 6 9 L 27 9 L 27 34 L 6 34 Z M 6 9 "/>
</clipPath>
<clipPath id="clip-19">
<path clip-rule="evenodd" d="M 26.730469 19.5 L 26.027344 19.914062 C 25.917969 19.976562 25.847656 20.097656 25.847656 20.226562 L 25.832031 22.34375 L 25.824219 22.824219 L 25.816406 23.988281 C 25.8125 24.304688 25.726562 24.625 25.535156 24.882812 C 25.191406 25.367188 24.5 26.066406 23.351562 26.132812 C 23.246094 26.136719 23.140625 26.152344 23.042969 26.167969 C 21.503906 26.417969 20.988281 27.800781 20.988281 27.800781 L 20.910156 28.03125 L 20.769531 28.484375 L 18.925781 33.804688 L 6 34 L 10.050781 24.160156 C 10.0625 24.125 10.074219 24.09375 10.085938 24.054688 C 10.207031 23.648438 10.261719 23.226562 10.253906 22.804688 C 10.25 22.550781 10.21875 22.289062 10.164062 22.03125 C 9.625 19.566406 8.742188 13.328125 12.707031 10.394531 C 15.742188 8.15625 19.601562 9.042969 22.171875 10.089844 C 22.855469 10.367188 23.441406 10.804688 23.894531 11.355469 C 24.328125 11.863281 24.648438 12.472656 24.820312 13.132812 C 24.925781 13.519531 24.980469 13.921875 24.980469 14.335938 L 24.992188 15.984375 L 26.898438 18.699219 C 27.085938 18.964844 27.003906 19.339844 26.730469 19.5 "/>
</clipPath>
<clipPath id="clip-20">
<path clip-rule="nonzero" d="M 61 11 L 76 11 L 76 25 L 61 25 Z M 61 11 "/>
</clipPath>
<clipPath id="clip-21">
<path clip-rule="evenodd" d="M 75.523438 24.210938 C 75.472656 24.472656 75.4375 24.734375 75.433594 25 L 73.355469 23.945312 C 73.355469 23.945312 71.898438 22.546875 72.121094 19.277344 C 72.230469 17.644531 71.621094 17.285156 70.980469 17.332031 C 70.226562 17.386719 69.667969 18.101562 69.648438 18.902344 L 69.621094 20.164062 L 68.523438 20.207031 L 68.675781 14.25 C 68.679688 14.003906 68.429688 13.859375 68.234375 13.988281 C 65.730469 15.582031 62.605469 15.421875 61 15.191406 C 61.363281 13.804688 62.320312 12.648438 63.625 12.101562 C 66.175781 11.042969 70 10.144531 73.003906 12.414062 C 76.933594 15.386719 76.058594 21.714844 75.523438 24.210938 "/>
</clipPath>
<clipPath id="clip-22">
<path clip-rule="nonzero" d="M 60 9 L 77 9 L 77 22 L 60 22 Z M 60 9 "/>
</clipPath>
<clipPath id="clip-23">
<path clip-rule="evenodd" d="M 76.074219 22 L 60 14.023438 C 62.191406 9.5625 67.5625 7.730469 72 9.933594 C 76.441406 12.136719 78.261719 17.539062 76.074219 22 "/>
</clipPath>
<clipPath id="clip-24">
<path clip-rule="nonzero" d="M 59 12 L 77 12 L 77 23 L 59 23 Z M 59 12 "/>
</clipPath>
<clipPath id="clip-25">
<path clip-rule="evenodd" d="M 75.574219 22.953125 L 59.238281 14.503906 C 59.023438 14.394531 58.9375 14.125 59.046875 13.90625 L 59.847656 12.246094 C 59.953125 12.027344 60.214844 11.9375 60.425781 12.046875 L 65.539062 14.691406 L 76.761719 20.496094 C 76.976562 20.605469 77.0625 20.875 76.953125 21.09375 L 76.152344 22.753906 C 76.046875 22.972656 75.785156 23.0625 75.574219 22.953125 "/>
</clipPath>
<clipPath id="clip-26">
<path clip-rule="nonzero" d="M 56 28 L 90 28 L 90 65 L 56 65 Z M 56 28 "/>
</clipPath>
<clipPath id="clip-27">
<path clip-rule="evenodd" d="M 65.152344 31.722656 L 74.691406 28.347656 C 78.121094 27.136719 81.835938 29.195312 82.648438 32.761719 L 90 65 L 56 65 L 61 36.640625 C 61.402344 34.367188 62.988281 32.488281 65.152344 31.722656 "/>
</clipPath>
<clipPath id="clip-28">
<path clip-rule="nonzero" d="M 49 45 L 66 45 L 66 65 L 49 65 Z M 49 45 "/>
</clipPath>
<clipPath id="clip-29">
<path clip-rule="evenodd" d="M 49 50.542969 L 55.480469 45 L 66 65 L 54.09375 65 Z M 49 50.542969 "/>
</clipPath>
<clipPath id="clip-30">
<path clip-rule="nonzero" d="M 41 34 L 55 34 L 55 51 L 41 51 Z M 41 34 "/>
</clipPath>
<clipPath id="clip-31">
<path clip-rule="evenodd" d="M 55 45.582031 L 50.089844 35.71875 C 49.941406 35.421875 49.582031 35.296875 49.28125 35.4375 C 48.894531 35.613281 48.671875 36.027344 48.734375 36.445312 L 49.003906 38.203125 L 43.652344 34.121094 C 43.382812 33.914062 42.992188 33.980469 42.808594 34.269531 L 42.597656 34.597656 L 42.234375 34.203125 C 42.046875 33.996094 41.703125 34.074219 41.625 34.34375 L 41.507812 34.738281 C 41.421875 35.023438 41.472656 35.328125 41.644531 35.570312 L 45.9375 41.589844 C 45.976562 41.640625 45.90625 41.703125 45.859375 41.660156 L 41.84375 38.265625 C 41.5625 38.03125 41.132812 38.207031 41.101562 38.574219 L 41.011719 39.707031 C 40.9375 40.613281 41.21875 41.511719 41.792969 42.214844 L 44.53125 45.582031 L 48.625 51 L 50.890625 49.078125 Z M 55 45.582031 "/>
</clipPath>
<clipPath id="clip-32">
<path clip-rule="nonzero" d="M 62 27 L 68 27 L 68 30 L 62 30 Z M 62 27 "/>
</clipPath>
<clipPath id="clip-33">
<path clip-rule="evenodd" d="M 67.925781 27.324219 L 64.28125 30 L 64.058594 29.402344 C 64.058594 29.402344 63.542969 28.191406 62 27.972656 L 67.761719 27.003906 C 67.964844 26.96875 68.085938 27.203125 67.925781 27.324219 "/>
</clipPath>
<clipPath id="clip-34">
<path clip-rule="nonzero" d="M 10 9 L 25 9 L 25 24 L 10 24 Z M 10 9 "/>
</clipPath>
<clipPath id="clip-35">
<path clip-rule="evenodd" d="M 21.695312 13.867188 L 22.042969 16.84375 C 22.082031 17.183594 21.898438 17.507812 21.589844 17.65625 L 21.21875 17.839844 C 20.835938 18.027344 20.371094 17.894531 20.148438 17.539062 L 18.804688 15.390625 C 18.441406 14.808594 17.75 14.472656 17.066406 14.605469 C 16.457031 14.726562 15.941406 15.203125 16.332031 16.636719 C 16.332031 16.636719 17.996094 19.703125 14.667969 21.902344 C 13.367188 22.765625 11.820312 23.464844 10.425781 24 C 10.550781 23.597656 10.613281 23.175781 10.605469 22.757812 C 10.597656 22.496094 10.5625 22.238281 10.503906 21.980469 C 9.9375 19.527344 9.003906 13.308594 13.191406 10.390625 C 16.390625 8.160156 20.464844 9.042969 23.179688 10.085938 C 23.898438 10.359375 24.515625 10.796875 25 11.34375 L 23.035156 11.902344 C 22.160156 12.152344 21.59375 12.980469 21.695312 13.867188 "/>
</clipPath>
<clipPath id="clip-36">
<path clip-rule="nonzero" d="M 0 30 L 28 30 L 28 65 L 0 65 Z M 0 30 "/>
</clipPath>
<clipPath id="clip-37">
<path clip-rule="evenodd" d="M 19.148438 33.386719 L 7.417969 30 L 4.0625 37.585938 C 2.679688 40.722656 1.820312 44.070312 1.519531 47.496094 L 0 64.910156 L 28 65 Z M 19.148438 33.386719 "/>
</clipPath>
<clipPath id="clip-38">
<path clip-rule="nonzero" d="M 12 55 L 38 55 L 38 65 L 12 65 Z M 12 55 "/>
</clipPath>
<clipPath id="clip-39">
<path clip-rule="evenodd" d="M 20.542969 55 L 27.386719 56.976562 L 38 60.039062 L 38 65 L 12 65 Z M 20.542969 55 "/>
</clipPath>
<clipPath id="clip-40">
<path clip-rule="nonzero" d="M 38 60 L 53 60 L 53 65 L 38 65 Z M 38 60 "/>
</clipPath>
<clipPath id="clip-41">
<path clip-rule="evenodd" d="M 38 65 L 52.855469 65 C 52.992188 65 53.050781 64.828125 52.945312 64.742188 L 51.214844 63.316406 C 50.804688 62.980469 50.324219 62.75 49.808594 62.636719 L 47.925781 62.234375 L 46.753906 61.605469 C 46.398438 61.417969 46.011719 61.296875 45.609375 61.261719 C 44.320312 61.140625 41.113281 60.789062 38 60 Z M 38 65 "/>
</clipPath>
<clipPath id="clip-42">
<path clip-rule="nonzero" d="M 24 21 L 27 21 L 27 22 L 24 22 Z M 24 21 "/>
</clipPath>
<clipPath id="clip-43">
<path clip-rule="evenodd" d="M 27 21.527344 L 26.996094 22 C 25.125 21.996094 24.171875 21.457031 24.117188 21.429688 C 23.996094 21.355469 23.964844 21.210938 24.042969 21.105469 C 24.128906 20.996094 24.292969 20.96875 24.410156 21.039062 C 24.433594 21.050781 25.292969 21.523438 27 21.527344 "/>
</clipPath>
<clipPath id="clip-44">
<path clip-rule="nonzero" d="M 17 25 L 24 25 L 24 28 L 17 28 Z M 17 25 "/>
</clipPath>
<clipPath id="clip-45">
<path clip-rule="evenodd" d="M 24 26.203125 C 23.882812 26.210938 23.769531 26.222656 23.660156 26.234375 C 21.96875 26.472656 21.402344 27.777344 21.402344 27.777344 L 21.320312 28 L 17 25 Z M 24 26.203125 "/>
</clipPath>
<clipPath id="clip-46">
<path clip-rule="nonzero" d="M 54 54 L 62 54 L 62 56 L 54 56 Z M 54 54 "/>
</clipPath>
<clipPath id="clip-47">
<path clip-rule="evenodd" d="M 62 55 C 62 54.980469 60.210938 54.964844 58 54.964844 C 55.789062 54.964844 54 54.980469 54 55 C 54 55.019531 55.789062 55.035156 58 55.035156 C 60.210938 55.035156 62 55.019531 62 55 "/>
</clipPath>
<clipPath id="clip-48">
<path clip-rule="nonzero" d="M 55 62 L 61 62 L 61 64 L 55 64 Z M 55 62 "/>
</clipPath>
<clipPath id="clip-49">
<path clip-rule="evenodd" d="M 61 63 C 61 62.984375 59.65625 62.96875 58 62.96875 C 56.34375 62.96875 55 62.984375 55 63 C 55 63.015625 56.34375 63.03125 58 63.03125 C 59.65625 63.03125 61 63.015625 61 63 "/>
</clipPath>
<clipPath id="clip-50">
<path clip-rule="nonzero" d="M 54 55 L 62 55 L 62 63 L 54 63 Z M 54 55 "/>
</clipPath>
<clipPath id="clip-51">
<path clip-rule="evenodd" d="M 62 55 L 54 55 L 54.695312 63 L 61.296875 63 Z M 62 55 "/>
</clipPath>
<clipPath id="clip-52">
<path clip-rule="nonzero" d="M 53 56 L 70 56 L 70 66 L 53 66 Z M 53 56 "/>
</clipPath>
<clipPath id="clip-53">
<path clip-rule="evenodd" d="M 70 65.1875 L 63.542969 65.582031 L 59.425781 65.984375 C 58.566406 66.070312 57.707031 65.804688 57.023438 65.25 L 56.171875 64.554688 C 55.894531 64.328125 55.980469 63.878906 56.316406 63.78125 L 61.121094 62.34375 C 61.179688 62.328125 61.164062 62.238281 61.105469 62.238281 L 54.066406 62.464844 C 53.785156 62.476562 53.515625 62.351562 53.332031 62.125 L 53.078125 61.8125 C 52.910156 61.601562 53.027344 61.277344 53.289062 61.234375 L 53.792969 61.152344 L 53.640625 60.800781 C 53.507812 60.492188 53.660156 60.132812 53.96875 60.023438 L 60.023438 57.867188 L 61.402344 57.382812 L 61.507812 56 L 69.035156 56.992188 L 69.65625 62.277344 Z M 70 65.1875 "/>
</clipPath>
<clipPath id="clip-54">
<path clip-rule="nonzero" d="M 69 33 L 91 33 L 91 65 L 69 65 Z M 69 33 "/>
</clipPath>
<clipPath id="clip-55">
<path clip-rule="evenodd" d="M 83.203125 33 L 90.65625 54.28125 C 91.378906 56.34375 90.941406 58.636719 89.511719 60.273438 C 88.636719 61.273438 87.457031 61.949219 86.160156 62.1875 L 70.890625 65 L 69 57 L 81.589844 52.648438 "/>
</clipPath>
<clipPath id="clip-56">
<path clip-rule="nonzero" d="M 29 0 L 52 0 L 52 23 L 29 23 Z M 29 0 "/>
</clipPath>
<clipPath id="clip-57">
<path clip-rule="evenodd" d="M 51.972656 10.695312 C 52.421875 17.328125 47.253906 22.859375 40.753906 23 L 32.453125 23 C 32.277344 23 32.199219 22.78125 32.332031 22.667969 L 33.816406 21.421875 C 34 21.269531 33.992188 20.984375 33.796875 20.847656 C 33.589844 20.699219 33.386719 20.542969 33.1875 20.378906 C 30.628906 18.269531 29 15.078125 29 11.503906 C 29 4.90625 34.554688 -0.394531 41.238281 0.0234375 C 46.9375 0.378906 51.585938 5 51.972656 10.695312 "/>
</clipPath>
<clipPath id="clip-58">
<path clip-rule="nonzero" d="M 38 7 L 57 7 L 57 26 L 38 26 Z M 38 7 "/>
</clipPath>
<clipPath id="clip-59">
<path clip-rule="evenodd" d="M 38.023438 15.835938 C 37.648438 21.3125 41.921875 25.886719 47.292969 26 L 54.144531 26 C 54.292969 26 54.355469 25.820312 54.246094 25.726562 L 53.019531 24.699219 C 52.871094 24.570312 52.878906 24.335938 53.035156 24.222656 C 53.210938 24.097656 53.375 23.96875 53.539062 23.835938 C 55.652344 22.09375 57 19.457031 57 16.5 C 57 11.050781 52.414062 6.671875 46.890625 7.019531 C 42.183594 7.3125 38.34375 11.128906 38.023438 15.835938 "/>
</clipPath>
<clipPath id="clip-60">
<path clip-rule="nonzero" d="M 20 39 L 27 39 L 27 54 L 20 54 Z M 20 39 "/>
</clipPath>
<clipPath id="clip-61">
<path clip-rule="evenodd" d="M 27 46.96875 L 25.792969 49.789062 L 23.992188 54 L 20 43.164062 L 22.417969 40.453125 L 23.710938 39 Z M 27 46.96875 "/>
</clipPath>
</defs>
<g clip-path="url(#clip-0)">
<g clip-path="url(#clip-1)">
<path fill-rule="nonzero" fill="rgb(83.921814%, 43.528748%, 22.744751%)" fill-opacity="1" d="M 22 36.945312 L 36.003906 36.945312 L 36.003906 49 L 22 49 Z M 22 36.945312 "/>
</g>
</g>
<g clip-path="url(#clip-2)">
<g clip-path="url(#clip-3)">
<path fill-rule="nonzero" fill="rgb(16.862488%, 72.941589%, 47.842407%)" fill-opacity="1" d="M 24 34.964844 L 34 34.964844 L 34 37.035156 L 24 37.035156 Z M 24 34.964844 "/>
</g>
</g>
<g clip-path="url(#clip-4)">
<g clip-path="url(#clip-5)">
<path fill-rule="nonzero" fill="rgb(16.862488%, 72.941589%, 47.842407%)" fill-opacity="1" d="M 25 42.96875 L 33 42.96875 L 33 45.03125 L 25 45.03125 Z M 25 42.96875 "/>
</g>
</g>
<g clip-path="url(#clip-6)">
<g clip-path="url(#clip-7)">
<path fill-rule="nonzero" fill="rgb(16.862488%, 72.941589%, 47.842407%)" fill-opacity="1" d="M 24 35 L 34 35 L 34 45 L 24 45 Z M 24 35 "/>
</g>
</g>
<g clip-path="url(#clip-8)">
<g clip-path="url(#clip-9)">
<path fill-rule="nonzero" fill="rgb(83.921814%, 43.528748%, 22.744751%)" fill-opacity="1" d="M 25 38.945312 L 32.046875 38.945312 L 32.046875 47 L 25 47 Z M 25 38.945312 "/>
</g>
</g>
<g clip-path="url(#clip-10)">
<g clip-path="url(#clip-11)">
<path fill-rule="nonzero" fill="rgb(83.921814%, 43.528748%, 22.744751%)" fill-opacity="1" d="M 30.933594 38 L 35 38 L 35 44.007812 L 30.933594 44.007812 Z M 30.933594 38 "/>
</g>
</g>
<g clip-path="url(#clip-12)">
<g clip-path="url(#clip-13)">
<path fill-rule="nonzero" fill="rgb(83.921814%, 43.528748%, 22.744751%)" fill-opacity="1" d="M 30.980469 39.976562 L 36.003906 39.976562 L 36.003906 45 L 30.980469 45 Z M 30.980469 39.976562 "/>
</g>
</g>
<path fill="none" stroke-width="1" stroke-linecap="round" stroke-linejoin="round" stroke="rgb(39.607239%, 21.960449%, 14.509583%)" stroke-opacity="1" stroke-miterlimit="10" d="M 0 2.3125 L 4.097656 0.0742188 C 4.160156 0.0390625 4.230469 0.015625 4.300781 0.0078125 C 4.707031 -0.0507812 5.050781 0.316406 4.992188 0.742188 L 4.980469 0.828125 C 4.863281 1.691406 4.507812 2.5 3.957031 3.148438 L 1.542969 6 " transform="matrix(1, 0, 0, 1, 26, 40)"/>
<path fill="none" stroke-width="1" stroke-linecap="round" stroke-linejoin="round" stroke="rgb(39.607239%, 21.960449%, 14.509583%)" stroke-opacity="1" stroke-miterlimit="10" d="M 2 2.175781 L 1.589844 3.355469 C 1.460938 3.738281 1.164062 3.988281 0.832031 4 C 0.609375 4.007812 0.390625 3.898438 0.234375 3.695312 C -0.00390625 3.390625 -0.0664062 2.933594 0.0742188 2.546875 L 1 0 " transform="matrix(1, 0, 0, 1, 32, 39)"/>
<path fill="none" stroke-width="1" stroke-linecap="round" stroke-linejoin="round" stroke="rgb(39.607239%, 21.960449%, 14.509583%)" stroke-opacity="1" stroke-miterlimit="10" d="M 0.132812 0.121094 L 0.0664062 0.207031 C 0 0.289062 -0.015625 0.386719 0.015625 0.476562 C 0.160156 0.859375 0.703125 1.082031 1.222656 0.972656 L 1.425781 0.929688 C 1.761719 0.863281 2.0625 0.726562 2.300781 0.542969 L 3 0 " transform="matrix(1, 0, 0, 1, 33, 43)"/>
<g clip-path="url(#clip-14)">
<g clip-path="url(#clip-15)">
<path fill-rule="nonzero" fill="rgb(100%, 70.588684%, 12.156677%)" fill-opacity="1" d="M 19 40 L 27 40 L 27 55 L 19 55 Z M 19 40 "/>
</g>
</g>
<g clip-path="url(#clip-16)">
<g clip-path="url(#clip-17)">
<path fill-rule="nonzero" fill="rgb(100%, 71.372986%, 61.177063%)" fill-opacity="1" d="M 56.914062 9.15625 L 77.632812 9.15625 L 77.632812 33 L 56.914062 33 Z M 56.914062 9.15625 "/>
</g>
</g>
<g clip-path="url(#clip-18)">
<g clip-path="url(#clip-19)">
<path fill-rule="nonzero" fill="rgb(83.921814%, 43.528748%, 22.744751%)" fill-opacity="1" d="M 5 7.15625 L 28.085938 7.15625 L 28.085938 35 L 5 35 Z M 5 7.15625 "/>
</g>
</g>
<g clip-path="url(#clip-20)">
<g clip-path="url(#clip-21)">
<path fill-rule="nonzero" fill="rgb(61.569214%, 39.215088%, 27.842712%)" fill-opacity="1" d="M 60 9.144531 L 77.933594 9.144531 L 77.933594 26 L 60 26 Z M 60 9.144531 "/>
</g>
</g>
<g clip-path="url(#clip-22)">
<g clip-path="url(#clip-23)">
<path fill-rule="nonzero" fill="rgb(100%, 61.177063%, 36.470032%)" fill-opacity="1" d="M 59 6.730469 L 79.261719 6.730469 L 79.261719 23 L 59 23 Z M 59 6.730469 "/>
</g>
</g>
<g clip-path="url(#clip-24)">
<g clip-path="url(#clip-25)">
<path fill-rule="nonzero" fill="rgb(100%, 61.177063%, 36.470032%)" fill-opacity="1" d="M 57.9375 10.9375 L 78.0625 10.9375 L 78.0625 24.0625 L 57.9375 24.0625 Z M 57.9375 10.9375 "/>
</g>
</g>
<g clip-path="url(#clip-26)">
<g clip-path="url(#clip-27)">
<path fill-rule="nonzero" fill="rgb(16.862488%, 72.941589%, 47.842407%)" fill-opacity="1" d="M 55 26.136719 L 91 26.136719 L 91 66 L 55 66 Z M 55 26.136719 "/>
</g>
</g>
<g clip-path="url(#clip-28)">
<g clip-path="url(#clip-29)">
<path fill-rule="nonzero" fill="rgb(16.862488%, 72.941589%, 47.842407%)" fill-opacity="1" d="M 48 44 L 67 44 L 67 66 L 48 66 Z M 48 44 "/>
</g>
</g>
<g clip-path="url(#clip-30)">
<g clip-path="url(#clip-31)">
<path fill-rule="nonzero" fill="rgb(100%, 71.372986%, 61.177063%)" fill-opacity="1" d="M 39.9375 32.914062 L 56 32.914062 L 56 52 L 39.9375 52 Z M 39.9375 32.914062 "/>
</g>
</g>
<path fill="none" stroke-width="1" stroke-linecap="round" stroke-linejoin="miter" stroke="rgb(79.216003%, 52.157593%, 39.99939%)" stroke-opacity="1" stroke-miterlimit="10" d="M 0.09375 9.316406 C 0.09375 9.316406 -0.371094 7.085938 0.761719 4.96875 L 0.195312 1.042969 C 0.136719 0.632812 0.339844 0.230469 0.703125 0.0546875 C 0.980469 -0.0820312 1.3125 0.0429688 1.449219 0.332031 L 6 10 " transform="matrix(1, 0, 0, 1, 49, 35)"/>
<path fill="none" stroke-width="1" stroke-linecap="round" stroke-linejoin="miter" stroke="rgb(79.216003%, 52.157593%, 39.99939%)" stroke-opacity="1" stroke-miterlimit="10" d="M 0 0 L 4 4 " transform="matrix(1, 0, 0, 1, 41, 39)"/>
<path fill="none" stroke-width="1" stroke-linecap="round" stroke-linejoin="miter" stroke="rgb(79.216003%, 52.157593%, 39.99939%)" stroke-opacity="1" stroke-miterlimit="10" d="M 0 1 L 1 0 " transform="matrix(1, 0, 0, 1, 46, 41)"/>
<path fill="none" stroke-width="1" stroke-linecap="round" stroke-linejoin="miter" stroke="rgb(79.216003%, 52.157593%, 39.99939%)" stroke-opacity="1" stroke-miterlimit="10" d="M 0 0 L 5 6 " transform="matrix(1, 0, 0, 1, 43, 33)"/>
<path fill="none" stroke-width="1" stroke-linecap="round" stroke-linejoin="miter" stroke="rgb(12.548828%, 51.765442%, 32.940674%)" stroke-opacity="1" stroke-miterlimit="10" d="M 3 12 L 0 0 " transform="matrix(1, 0, 0, 1, 75, 42)"/>
<path fill="none" stroke-width="1" stroke-linecap="round" stroke-linejoin="miter" stroke="rgb(12.548828%, 51.765442%, 32.940674%)" stroke-opacity="1" stroke-miterlimit="10" d="M 0 28 L 5 0 " transform="matrix(1, 0, 0, 1, 56, 37)"/>
<path fill="none" stroke-width="1" stroke-linecap="round" stroke-linejoin="miter" stroke="rgb(79.216003%, 52.157593%, 39.99939%)" stroke-opacity="1" stroke-miterlimit="10" d="M 0 0.0148437 L 3 0.0851562 " transform="matrix(1, 0, 0, 1, 59, 23.95)"/>
<g clip-path="url(#clip-32)">
<g clip-path="url(#clip-33)">
<path fill-rule="nonzero" fill="rgb(79.216003%, 52.157593%, 39.99939%)" fill-opacity="1" d="M 61 25.96875 L 69.085938 25.96875 L 69.085938 31 L 61 31 Z M 61 25.96875 "/>
</g>
</g>
<g clip-path="url(#clip-34)">
<g clip-path="url(#clip-35)">
<path fill-rule="nonzero" fill="rgb(39.607239%, 21.960449%, 14.509583%)" fill-opacity="1" d="M 8.003906 7.160156 L 26 7.160156 L 26 25 L 8.003906 25 Z M 8.003906 7.160156 "/>
</g>
</g>
<g clip-path="url(#clip-36)">
<g clip-path="url(#clip-37)">
<path fill-rule="nonzero" fill="rgb(100%, 78.431702%, 28.627014%)" fill-opacity="1" d="M -1 29 L 29 29 L 29 66 L -1 66 Z M -1 29 "/>
</g>
</g>
<g clip-path="url(#clip-38)">
<g clip-path="url(#clip-39)">
<path fill-rule="nonzero" fill="rgb(100%, 78.431702%, 28.627014%)" fill-opacity="1" d="M 11 54 L 39 54 L 39 66 L 11 66 Z M 11 54 "/>
</g>
</g>
<g clip-path="url(#clip-40)">
<g clip-path="url(#clip-41)">
<path fill-rule="nonzero" fill="rgb(83.921814%, 43.528748%, 22.744751%)" fill-opacity="1" d="M 37 59 L 54.050781 59 L 54.050781 66 L 37 66 Z M 37 59 "/>
</g>
</g>
<g clip-path="url(#clip-42)">
<g clip-path="url(#clip-43)">
<path fill-rule="nonzero" fill="rgb(39.607239%, 21.960449%, 14.509583%)" fill-opacity="1" d="M 22.964844 19.96875 L 28 19.96875 L 28 23 L 22.964844 23 Z M 22.964844 19.96875 "/>
</g>
</g>
<g clip-path="url(#clip-44)">
<g clip-path="url(#clip-45)">
<path fill-rule="nonzero" fill="rgb(39.607239%, 21.960449%, 14.509583%)" fill-opacity="1" d="M 16 24 L 25 24 L 25 29 L 16 29 Z M 16 24 "/>
</g>
</g>
<g clip-path="url(#clip-46)">
<g clip-path="url(#clip-47)">
<path fill-rule="nonzero" fill="rgb(100%, 100%, 100%)" fill-opacity="1" d="M 53 53.964844 L 63 53.964844 L 63 56.035156 L 53 56.035156 Z M 53 53.964844 "/>
</g>
</g>
<g clip-path="url(#clip-48)">
<g clip-path="url(#clip-49)">
<path fill-rule="nonzero" fill="rgb(100%, 100%, 100%)" fill-opacity="1" d="M 54 61.96875 L 62 61.96875 L 62 64.03125 L 54 64.03125 Z M 54 61.96875 "/>
</g>
</g>
<g clip-path="url(#clip-50)">
<g clip-path="url(#clip-51)">
<path fill-rule="nonzero" fill="rgb(100%, 100%, 100%)" fill-opacity="1" d="M 53 54 L 63 54 L 63 64 L 53 64 Z M 53 54 "/>
</g>
</g>
<path fill="none" stroke-width="1" stroke-linecap="round" stroke-linejoin="round" stroke="rgb(39.607239%, 21.960449%, 14.509583%)" stroke-opacity="1" stroke-miterlimit="10" d="M 4 0.05 L 0 0.05 " transform="matrix(1, 0, 0, 1, 47, 61.95)"/>
<g clip-path="url(#clip-52)">
<g clip-path="url(#clip-53)">
<path fill-rule="nonzero" fill="rgb(100%, 71.372986%, 61.177063%)" fill-opacity="1" d="M 52 55 L 71 55 L 71 67 L 52 67 Z M 52 55 "/>
</g>
</g>
<path fill="none" stroke-width="1" stroke-linecap="round" stroke-linejoin="miter" stroke="rgb(79.216003%, 52.157593%, 39.99939%)" stroke-opacity="1" stroke-miterlimit="10" d="M 0 1 L 5 0 " transform="matrix(1, 0, 0, 1, 57, 64)"/>
<path fill="none" stroke-width="1" stroke-linecap="round" stroke-linejoin="miter" stroke="rgb(79.216003%, 52.157593%, 39.99939%)" stroke-opacity="1" stroke-miterlimit="10" d="M 0 1 L 7 0 " transform="matrix(1, 0, 0, 1, 54, 60)"/>
<path fill="none" stroke-width="1" stroke-linecap="round" stroke-linejoin="miter" stroke="rgb(79.216003%, 52.157593%, 39.99939%)" stroke-opacity="1" stroke-miterlimit="10" d="M 0 0.065625 L 1 0.034375 " transform="matrix(1, 0, 0, 1, 61, 56.95)"/>
<g clip-path="url(#clip-54)">
<g clip-path="url(#clip-55)">
<path fill-rule="nonzero" fill="rgb(16.862488%, 72.941589%, 47.842407%)" fill-opacity="1" d="M 68 32 L 92 32 L 92 66 L 68 66 Z M 68 32 "/>
</g>
</g>
<path fill="none" stroke-width="1" stroke-linecap="round" stroke-linejoin="miter" stroke="rgb(12.548828%, 51.765442%, 32.940674%)" stroke-opacity="1" stroke-miterlimit="10" d="M 21.660156 1.585938 C 22.378906 3.585938 21.941406 5.816406 20.511719 7.40625 C 19.636719 8.378906 18.457031 9.035156 17.160156 9.265625 L 1.890625 12 L 0 4.226562 L 12.589844 0 " transform="matrix(1, 0, 0, 1, 69, 53)"/>
<g clip-path="url(#clip-56)">
<g clip-path="url(#clip-57)">
<path fill-rule="nonzero" fill="rgb(100%, 59.2%, 22.3%)" fill-opacity="1" d="M 28 -1 L 53.421875 -1 L 53.421875 24 L 28 24 Z M 28 -1 "/>
</g>
</g>
<g clip-path="url(#clip-58)">
<g clip-path="url(#clip-59)">
<path fill-rule="nonzero" fill="rgb(100%, 61.177063%, 36.470032%)" fill-opacity="1" d="M 36.648438 5.671875 L 58 5.671875 L 58 27 L 36.648438 27 Z M 36.648438 5.671875 "/>
</g>
</g>
<path fill="none" stroke-width="1" stroke-linecap="round" stroke-linejoin="miter" stroke="rgb(100%, 70.588684%, 12.156677%)" stroke-opacity="1" stroke-miterlimit="10" d="M 0 0 L 4.859375 17.707031 L 16 21 " transform="matrix(1, 0, 0, 1, 16, 37)"/>
<path fill="none" stroke-width="1" stroke-linecap="round" stroke-linejoin="miter" stroke="rgb(100%, 70.588684%, 12.156677%)" stroke-opacity="1" stroke-miterlimit="10" d="M 7 2 L 0 0 " transform="matrix(1, 0, 0, 1, 17, 54)"/>
<path fill="none" stroke-width="1" stroke-linecap="round" stroke-linejoin="miter" stroke="rgb(100%, 70.588684%, 12.156677%)" stroke-opacity="1" stroke-miterlimit="10" d="M 0 0 L 5 19 " transform="matrix(1, 0, 0, 1, 6, 46)"/>
<path fill="none" stroke-width="1" stroke-linecap="round" stroke-linejoin="round" stroke="rgb(100%, 59.2%, 22.3%)" stroke-opacity="1" stroke-miterlimit="10" d="M 14 7 L 0 0 " transform="matrix(1, 0, 0, 1, 61, 12)"/>
<g clip-path="url(#clip-60)">
<g clip-path="url(#clip-61)">
<path fill-rule="nonzero" fill="rgb(100%, 78.431702%, 28.627014%)" fill-opacity="1" d="M 19 38 L 28 38 L 28 55 L 19 55 Z M 19 38 "/>
</g>
</g>
</svg>
