<?xml version="1.0" encoding="UTF-8"?>
<svg xmlns="http://www.w3.org/2000/svg" xmlns:xlink="http://www.w3.org/1999/xlink" width="124" height="124" viewBox="0 0 124 124">
<defs>
<clipPath id="clip-0">
<path clip-rule="nonzero" d="M 36 30 L 87 30 L 87 81 L 36 81 Z M 36 30 "/>
</clipPath>
<clipPath id="clip-1">
<path clip-rule="evenodd" d="M 62.003906 124.15625 C 96.246094 124.15625 124.007812 96.398438 124.007812 62.15625 C 124.007812 27.914062 96.246094 0.15625 62.003906 0.15625 C 27.765625 0.15625 0.00390625 27.914062 0.00390625 62.15625 C 0.00390625 96.398438 27.765625 124.15625 62.003906 124.15625 Z M 62.003906 124.15625 "/>
</clipPath>
<clipPath id="clip-2">
<path clip-rule="evenodd" d="M 61.804688 80.351562 C 47.953125 80.351562 36.726562 69.121094 36.726562 55.269531 C 36.726562 41.417969 47.953125 30.191406 61.804688 30.191406 C 75.65625 30.191406 86.886719 41.417969 86.886719 55.269531 C 86.886719 69.121094 75.65625 80.351562 61.804688 80.351562 Z M 61.804688 80.351562 "/>
</clipPath>
<clipPath id="clip-3">
<path clip-rule="nonzero" d="M 20 88 L 104 88 L 104 123.691406 L 20 123.691406 Z M 20 88 "/>
</clipPath>
<clipPath id="clip-4">
<path clip-rule="evenodd" d="M 62.003906 124.15625 C 96.246094 124.15625 124.007812 96.398438 124.007812 62.15625 C 124.007812 27.914062 96.246094 0.15625 62.003906 0.15625 C 27.765625 0.15625 0.00390625 27.914062 0.00390625 62.15625 C 0.00390625 96.398438 27.765625 124.15625 62.003906 124.15625 Z M 62.003906 124.15625 "/>
</clipPath>
<clipPath id="clip-5">
<path clip-rule="evenodd" d="M 33.65625 134.691406 C 23.820312 134.691406 17.074219 124.199219 21.277344 115.070312 C 28.449219 99.492188 43.894531 88.710938 61.800781 88.710938 C 79.703125 88.710938 95.15625 99.488281 102.332031 115.066406 C 106.535156 124.195312 99.792969 134.691406 89.957031 134.691406 Z M 33.65625 134.691406 "/>
</clipPath>
</defs>
<path fill-rule="evenodd" fill="rgb(100%, 91.764832%, 86.66687%)" fill-opacity="1" d="M -1.261719 125.378906 L 123.492188 125.378906 L 123.492188 -0.988281 L -1.261719 -0.988281 Z M -1.261719 125.378906 "/>
<g clip-path="url(#clip-0)">
<g clip-path="url(#clip-1)">
<g clip-path="url(#clip-2)">
<path fill-rule="evenodd" fill="rgb(97.647095%, 46.273804%, 18.03894%)" fill-opacity="1" d="M 35.726562 81.351562 L 87.886719 81.351562 L 87.886719 29.191406 L 35.726562 29.191406 Z M 35.726562 81.351562 "/>
</g>
</g>
</g>
<g clip-path="url(#clip-3)">
<g clip-path="url(#clip-4)">
<g clip-path="url(#clip-5)">
<path fill-rule="evenodd" fill="rgb(97.647095%, 46.273804%, 18.03894%)" fill-opacity="1" d="M 16.074219 124.691406 L 107.535156 124.691406 L 107.535156 87.710938 L 16.074219 87.710938 Z M 16.074219 124.691406 "/>
</g>
</g>
</g>
</svg>
