<?xml version="1.0" encoding="UTF-8"?>
<svg xmlns="http://www.w3.org/2000/svg" xmlns:xlink="http://www.w3.org/1999/xlink" width="12" height="12" viewBox="0 0 12 12">
<defs>
<clipPath id="clip-0">
<path clip-rule="evenodd" d="M 1.28125 1.65625 L 1.230469 1.707031 C 1.175781 1.761719 1.121094 1.824219 1.0625 1.894531 L 0.996094 1.976562 C -0.0820312 3.351562 -0.4375 5.222656 0.707031 7.417969 C 1.632812 9.195312 3.070312 10.394531 4.703125 11.121094 C 5.53125 11.492188 6.46875 11.492188 7.296875 11.121094 C 8.925781 10.394531 10.367188 9.195312 11.292969 7.417969 C 12.4375 5.222656 12.082031 3.351562 11.007812 1.984375 L 10.890625 1.839844 L 10.804688 1.742188 C 10.792969 1.730469 10.777344 1.71875 10.765625 1.707031 L 10.722656 1.660156 C 10.589844 1.53125 10.414062 1.386719 10.191406 1.242188 C 9.855469 1.019531 9.480469 0.839844 9.074219 0.726562 L 8.9375 0.691406 C 7.980469 0.464844 6.992188 0.648438 6.035156 1.328125 L 6 1.355469 L 5.964844 1.328125 C 4.964844 0.617188 3.925781 0.449219 2.925781 0.726562 C 2.519531 0.839844 2.144531 1.019531 1.808594 1.242188 C 1.585938 1.386719 1.410156 1.53125 1.28125 1.65625 Z M 5.628906 2.558594 L 6 2.882812 L 6.371094 2.558594 C 7.195312 1.84375 7.976562 1.675781 8.738281 1.882812 C 9.175781 2.003906 9.546875 2.230469 9.796875 2.449219 L 9.890625 2.539062 L 9.941406 2.589844 L 10.011719 2.667969 L 10.066406 2.738281 C 10.871094 3.761719 11.136719 5.148438 10.230469 6.878906 C 9.445312 8.382812 8.21875 9.402344 6.820312 10.023438 C 6.296875 10.257812 5.703125 10.257812 5.179688 10.023438 C 3.78125 9.402344 2.554688 8.382812 1.769531 6.878906 C 0.863281 5.148438 1.128906 3.761719 1.9375 2.734375 L 2.027344 2.625 L 2.089844 2.554688 L 2.125 2.519531 C 2.371094 2.28125 2.773438 2.019531 3.261719 1.882812 C 4.023438 1.675781 4.804688 1.84375 5.628906 2.558594 Z M 5.628906 2.558594 "/>
</clipPath>
</defs>
<g clip-path="url(#clip-0)">
<rect x="-1.2" y="-1.2" width="14.4" height="14.4" fill="rgb(96.078491%, 37.254333%, 14.117432%)" fill-opacity="1"/>
</g>
</svg>
