<svg width="204" height="116" viewBox="0 0 204 116" fill="none" xmlns="http://www.w3.org/2000/svg">
<g clip-path="url(#clip0_630_14857)">
<path d="M127.833 41.8587L100.189 76.3701L109.392 83.7545L137.035 49.2431L127.833 41.8587Z" fill="#F55F24"/>
<path d="M79.8204 42.1348L70.501 72.5659L79.1491 75.4262L90.4149 51.8643" fill="#245B59"/>
<path d="M105.311 78.8161L73.3176 72.5625C69.9011 72.6676 66.8859 74.8635 65.847 78.0053C65.0332 80.4602 65.5583 83.1103 67.2384 85.0585L84.3884 104.69C85.9373 106.488 87.0211 111.777 89.4813 111.657L118.88 106.03C120.399 105.955 122.24 105.084 123.496 104.24C126.301 102.355 132.219 101.473 133.948 96.2783C135.002 93.1064 135.31 89.623 135.313 86.6463C135.313 82.5886 131.976 79.3304 127.745 79.2478L105.731 78.8124C105.592 78.8124 105.45 78.8124 105.311 78.8124V78.8161Z" fill="#666666"/>
<path d="M82.5879 105.681L85.1793 112.321C85.1793 112.321 88.4833 111.409 88.3708 111.101C88.2583 110.793 86.3157 105.347 86.3157 105.347L82.5879 105.685V105.681Z" fill="#1A1A1A"/>
<path d="M74.0379 107.651C73.0291 108.102 71.9865 108.665 71.469 109.547C70.9515 110.425 71.0752 111.42 71.3115 112.309C71.559 113.24 71.9378 114.164 72.6766 114.824C73.7754 115.808 75.538 116.078 77.2144 115.879C78.5383 115.722 80.5784 115.335 81.711 114.254C83.1849 113.758 84.6512 113.695 85.7463 113.075C87.8615 111.882 85.2288 110.707 84.6925 109.246C83.8787 107.024 85.2063 105.2 84.1524 105.44C82.9673 105.711 83.2899 105.177 79.2771 106.758C76.2693 106.608 75.478 106.923 74.0379 107.651Z" fill="white"/>
<path d="M82.6413 106.607L83.7664 111.829L81.2837 107.67L81.3212 112.321L79.6374 108.098L79.2773 111.375" stroke="#918080" stroke-linecap="round" stroke-linejoin="round"/>
<path d="M71.5736 113.312C71.9561 114.239 72.6349 114.956 73.415 115.545C74.3488 116.247 76.404 115.921 76.8877 115.94C72.1436 114.036 72.6349 109.13 73.7263 107.58C73.7263 107.58 72.5299 108.222 71.9786 108.894C70.831 110.215 70.9473 111.788 71.5736 113.312Z" fill="#F3F3F3"/>
<path d="M73.7267 107.798C73.7267 107.798 70.8052 113.136 76.8881 115.778" stroke="#D9D9D9" stroke-linecap="round" stroke-linejoin="round"/>
<path d="M127.746 82.8545C123.782 82.877 118.734 84.2997 111.484 88.5413C111.484 88.5413 84.9812 103.342 85.4987 103.342C86.0162 103.342 88.7652 112.719 88.7652 111.915C88.7652 111.112 119.945 105.343 119.945 105.343" stroke="#4D4D4D" stroke-linecap="round" stroke-linejoin="round"/>
<path d="M99.1646 94.7541L88.54 86.4697" stroke="#4D4D4D" stroke-linecap="round" stroke-linejoin="round"/>
<path d="M124.746 53.8282C124.746 53.8282 119.147 41.5386 116.777 38.4869C111.882 33.4006 106.054 35.27 99.8365 32.2595C92.3847 28.6522 100.452 25.608 92.7785 28.2543C87.8169 29.966 82.7353 36.9103 80.0388 41.6174C77.8711 45.3974 84.5354 55.4948 85.0004 58.7793C86.4143 68.7077 80.4438 66.0201 81.8577 75.9486C82.049 77.3037 85.3267 81.3539 87.6781 81.8006C96.09 83.4072 104.427 85.5017 112.947 85.0625C119.098 84.7435 123.118 81.1662 123.422 72.4239C124.168 71.8346 128.541 72.6116 129.239 66.0314C129.677 62.4128 124.746 53.8282 124.746 53.8282Z" fill="#245B59"/>
<path d="M109.767 79.5784C109.767 79.5784 103.819 77.2511 105.529 71.1101L94.6568 70.3105C96.3669 76.4478 90.4189 78.7788 90.4189 78.7788" stroke="#1F4946" stroke-linecap="round" stroke-linejoin="round"/>
<path d="M86.9014 36.854C86.9014 36.854 91.0604 41.2946 95.2795 40.1498C95.2795 40.1498 101.107 43.3629 103.425 35.7617" stroke="#1F4946" stroke-linecap="round" stroke-linejoin="round"/>
<path d="M96.3038 39.0048C95.2162 40.3599 95.2687 42.1166 95.6513 43.7269C96.0825 45.5437 97.0539 47.6045 95.9775 49.38C95.82 49.639 96.2251 49.8755 96.3826 49.6164C98.3552 46.362 94.1436 42.4432 96.6376 39.3351C96.8251 39.1024 96.4951 38.7683 96.3076 39.0048H96.3038Z" fill="#1F4946"/>
<path d="M94.8523 39.0535C93.7685 40.5925 93.4722 42.4957 93.9597 44.3049C94.4473 46.1142 95.7224 48.2838 94.6085 50.1569C94.4548 50.4159 94.8598 50.6524 95.0136 50.3934C96.0074 48.723 95.2948 46.8237 94.7173 45.1495C94.3835 44.1848 94.1248 43.2126 94.2035 42.1841C94.2823 41.1556 94.6573 40.1459 95.2611 39.29C95.4336 39.0423 95.0286 38.8095 94.8561 39.0535H94.8523Z" fill="#1F4946"/>
<path opacity="0.48" d="M91.7135 55.07C91.976 54.4319 92.5235 53.9064 92.7448 53.2533C92.9023 52.784 92.8798 52.266 92.681 51.8118C92.4073 51.1887 91.8297 50.7233 91.4847 50.1302C90.8397 49.0154 91.1322 47.5739 91.9497 46.5492C92.621 45.7084 93.6599 44.9839 93.7161 43.9441C94.0649 43.779 94.4849 43.839 94.8675 43.9066C95.5913 44.0305 96.3151 44.1543 97.0389 44.2782C97.7889 44.4058 98.5877 44.556 99.124 45.0515C99.6341 45.5207 99.8141 46.2151 99.8291 46.8795C99.8403 47.375 99.7691 47.8893 99.4803 48.3059C99.2403 48.6512 98.8728 48.9103 98.6252 49.2481C98.149 49.8975 98.2052 50.8321 98.749 51.4252C98.959 51.6542 99.2328 51.8344 99.4203 52.0784C99.7766 52.5438 99.7616 53.2232 99.3828 53.6812C99.0265 54.1091 98.3515 54.4544 98.4565 54.9837C98.5127 55.2652 98.7827 55.4567 98.9965 55.6631C99.5028 56.1473 99.7578 56.9093 99.4315 57.5137C99.0228 58.2719 97.9652 58.4596 97.0576 58.5572C96.4426 58.621 95.8275 58.6886 95.2162 58.7524C95.0212 58.7749 94.8225 58.7937 94.6312 58.7562C94.1699 58.6698 93.6899 58.362 93.2548 58.2006C92.8198 58.0392 92.4973 57.8515 92.201 57.525C91.601 56.8605 91.3684 55.8959 91.706 55.0738L91.7135 55.07Z" fill="url(#paint0_linear_630_14857)"/>
<path d="M90.9893 56.2522C90.5655 56.4474 90.303 56.8754 90.318 57.3408C90.3817 59.6043 91.3456 66.2633 92.4444 68.8946C93.0069 70.2422 99.1124 71.297 100.177 68.9585C101.186 66.7513 100.815 63.5944 100.901 61.1658C100.954 59.6944 100.954 58.1854 100.474 56.8003C100.365 56.485 99.8887 55.7905 99.1349 55.5803C96.7872 54.9272 92.7819 55.4264 90.9893 56.2522Z" fill="#EFEFE3"/>
<path d="M91.5064 57.6454C90.9364 57.1349 92.1065 56.5455 92.624 56.3654C93.2353 56.1514 93.8841 56.0238 94.5329 55.9337C95.568 55.7948 96.6443 55.7573 97.5556 55.9975C98.4669 56.2377 99.4345 56.4442 99.1457 57.2963C98.8569 58.1484 93.2615 58.8916 91.5027 57.6416L91.5064 57.6454Z" fill="#9E6B54"/>
<path d="M102.435 64.2143C104.434 64.2143 106.054 62.5926 106.054 60.592C106.054 58.5915 104.434 56.9697 102.435 56.9697C100.437 56.9697 98.8164 58.5915 98.8164 60.592C98.8164 62.5926 100.437 64.2143 102.435 64.2143Z" fill="#EFEFE3"/>
<path d="M98.4296 62.1275C95.7369 63.7979 94.8969 63.978 91.8554 64.5861C91.4354 64.6687 90.9816 64.7588 90.6966 65.0629C90.4115 65.3669 91.1353 67.2212 91.5554 67.3151C91.8254 67.3751 92.1179 67.2025 92.3804 67.285C92.6242 67.3639 92.7367 67.6229 92.823 67.8556C93.543 69.7662 94.0343 70.4719 96.0144 71.2264C97.5933 71.8308 99.476 71.5192 100.864 70.5808C101.925 69.8638 102.72 68.8203 103.815 68.1484C104.52 67.7167 105.386 67.3977 105.761 66.6845C105.986 66.2565 105.994 65.7573 105.994 65.2768C105.994 64.2108 105.994 63.1447 105.994 62.0824C105.994 61.4068 105.953 60.641 105.409 60.2056C104.985 59.864 104.378 59.8377 103.875 59.6088C103.433 59.4098 102.645 59.3347 102.172 59.2184C101.284 58.9969 100.361 59.6538 99.911 60.4158C99.6785 60.8062 99.9372 60.7987 99.6935 61.099" fill="#AA5943"/>
<path d="M121.854 72.0405L106.122 66.8679C106.122 66.8679 105.987 62.7464 105.739 60.7006C107.487 59.841 117.751 59.1729 117.751 59.1729" stroke="#1F4946" stroke-linecap="round" stroke-linejoin="round"/>
<path d="M112.545 59.1769L108.825 51.8047" stroke="#1F4946" stroke-linecap="round" stroke-linejoin="round"/>
<path d="M168.159 98.3798C168.83 97.8919 171.02 96.8221 171.53 96.1652C172.04 95.5083 173.42 94.5961 174.208 94.3259C174.992 94.0556 176.878 95.8911 176.113 96.3266C174.763 97.0961 176.477 98.56 177.827 99.0743C178.108 99.1831 176.822 98.7777 177.122 98.8115C179.822 99.1381 181.739 98.2635 184.105 99.6073C184.559 99.8663 188.489 102.134 191.489 104.082C192.719 104.877 190.199 106.679 188.849 106.236C188.257 106.041 185.181 105.076 184.559 105.091C179.447 105.208 172.592 104.536 167.54 103.77" fill="#AD5832"/>
<path d="M177.114 100.599C177.726 99.9754 179.781 98.5153 180.212 97.7307C180.643 96.9425 181.911 95.7638 182.661 95.3659C183.411 94.968 185.492 96.751 184.784 97.3291C183.527 98.3501 185.399 99.7427 186.797 100.141C187.09 100.223 185.766 99.9379 186.066 99.9417C188.785 99.9567 190.589 98.7518 193.094 99.9342C193.574 100.159 197.741 102.16 200.944 103.928C202.256 104.653 199.961 106.954 198.566 106.634C197.955 106.496 194.789 105.824 194.174 105.918C189.111 106.695 182.222 106.822 177.114 106.619" fill="#AD5832"/>
<path d="M119.42 28.8774C118.52 29.4029 117.065 27.9615 117.05 26.9179C117.042 26.445 117.766 26.3061 118.441 25.3151C118.779 24.8196 119.154 23.1718 119.278 22.1357" fill="#653825"/>
<path d="M122.233 92.5586H166.317C168.8 92.5586 170.817 94.5781 170.817 97.063V102.198C170.817 104.683 168.8 106.702 166.317 106.702H122.233C118.332 106.702 115.167 103.534 115.167 99.6305C115.167 95.7267 118.332 92.5586 122.233 92.5586Z" fill="#FFC449"/>
<path d="M130.724 95.7568H174.808C177.291 95.7568 179.309 97.7763 179.309 100.261V105.396C179.309 107.881 177.291 109.901 174.808 109.901H130.724C126.823 109.901 123.658 106.733 123.658 102.829C123.658 98.9249 126.823 95.7568 130.724 95.7568Z" fill="#FFC449"/>
<path d="M129.264 96.7021C123.361 96.7021 123.658 102.261 123.658 102.261C123.827 109.926 130.723 109.904 130.723 109.904H172.479" stroke="#EDA72B" stroke-width="2" stroke-linecap="round" stroke-linejoin="round"/>
<path d="M164.854 95.7568H172.479" stroke="#EDA72B" stroke-width="2" stroke-linecap="round" stroke-linejoin="round"/>
<path d="M135.992 83.3954C135.085 84.4952 133.697 85.1558 132.373 85.8052C127.689 88.0987 123.17 90.67 118.854 93.5003C127.097 97.1789 135.467 100.745 145.06 100.347C145.525 100.328 152.527 100.351 156.48 100.366C158.449 100.373 160.377 99.7727 161.982 98.6316C167.393 94.7991 170.859 90.5612 171.417 84.7054C171.695 81.8151 166.692 71.0232 163.861 64.9085C157.92 52.0784 151.736 39.5111 143.594 39.1733C131.601 35.7612 128.901 40.5734 126.902 43.0621L127.547 44.312C126.977 46.7332 128.447 51.1775 128.683 54.6422C129.418 65.3589 139.653 60.4604 137.376 79.4765C137.211 80.8616 136.904 82.288 135.992 83.3916V83.3954Z" fill="#F55F24"/>
<path d="M129.137 35.476C130.386 37.3754 133.438 40.4571 131.979 47.2776C131.702 48.5726 133.165 49.5898 134.26 48.8504C136.851 47.1011 135.88 40.3708 140.53 37.533C141.235 37.1013 134.818 38.3175 135.167 37.5668C135.842 36.1179 134.203 35.1532 133.427 32.7471" fill="#653825"/>
<path d="M137.973 28.3179C135.359 35.6225 129.291 40.1269 124.42 38.3815C119.548 36.636 117.662 24.9696 120.276 17.6649C122.889 10.3602 129.014 10.1801 133.885 11.9255C138.757 13.671 140.587 21.0094 137.973 28.3141V28.3179Z" fill="#653825"/>
<path d="M24.6018 97.7455C24.7255 98.0083 24.8793 98.3761 24.8793 98.3761C24.8793 98.3761 24.2492 98.5939 24.148 98.6201C22.6779 98.9655 21.5228 100.069 20.4465 101.128C19.9214 101.642 19.3776 102.19 19.1901 102.899C19.0701 103.342 19.1039 103.815 18.9726 104.254C18.8038 104.825 18.3763 105.29 17.885 105.621C17.3937 105.951 16.8275 106.161 16.2724 106.368C15.5149 106.649 14.6898 106.935 13.9135 106.713C13.1522 106.495 12.5971 105.831 12.2484 105.122C11.8996 104.412 11.7046 103.635 11.3708 102.914C11.3145 102.79 11.2508 102.659 11.262 102.524C11.277 102.359 11.3971 102.227 11.5096 102.107C12.4546 101.124 13.471 100.212 14.551 99.3784C14.8361 99.1607 15.1248 98.9429 15.3611 98.6727C15.4961 98.515 15.6124 98.3424 15.7586 98.196C16.0849 97.8731 16.5649 97.7117 17.0187 97.7756C17.4838 97.8394 17.8925 98.1171 18.3426 98.241C18.8639 98.3874 19.4226 98.3273 19.9477 98.196C20.5065 98.0571 21.0203 97.7455 21.5903 97.6629C24.3243 97.2726 24.103 96.7095 24.6018 97.7568V97.7455Z" fill="white"/>
<path d="M7.88623 111.21C7.5412 111.586 7.25993 112.048 6.79865 112.262C6.60363 112.352 6.34111 112.378 6.1986 112.22C6.01484 112.018 6.1461 111.698 6.28861 111.466C7.28993 109.799 8.41502 108.204 9.64886 106.702C9.69386 106.646 9.74636 106.586 9.81762 106.575C9.87387 106.567 9.93388 106.59 9.98263 106.62C10.3764 106.86 10.4664 107.378 10.6689 107.795C10.9652 108.395 11.4527 108.587 11.989 108.891C11.6965 109.401 10.4589 109.671 9.93763 109.9C9.19132 110.227 8.44877 110.606 7.88998 111.214L7.88623 111.21Z" fill="white"/>
<path d="M24.3244 97.2616C23.2931 97.8472 22.183 98.2939 21.0317 98.5867C20.4054 98.7481 19.7641 98.8607 19.1265 98.9733C18.7665 99.0371 18.399 99.1009 18.0314 99.0709C17.4201 99.0184 16.8351 98.6768 16.4863 98.17C18.0952 97.2316 19.5916 96.1017 20.9342 94.8142C21.1104 94.6453 21.5042 94.2061 21.7855 94.2962C22.033 94.3751 22.363 95.0319 22.528 95.2384C23.0906 95.9441 23.6906 96.6198 24.3207 97.2654L24.3244 97.2616Z" fill="#27363E"/>
<path d="M22.2244 107.04C22.3331 107.036 22.4494 107.028 22.5281 106.957C22.6594 106.844 22.6407 106.638 22.6182 106.465C22.5657 106.09 22.5582 105.703 22.5919 105.324C22.6294 104.908 22.7082 104.442 22.4644 104.1C22.3069 103.883 22.0519 103.766 21.8231 103.635C21.4218 103.406 21.0618 103.106 20.7655 102.753C20.4842 103.087 20.383 103.534 20.1917 103.928C19.873 104.577 18.4966 105.763 18.8341 106.585C18.9916 106.976 19.993 106.95 20.3792 106.987C20.9943 107.047 21.6093 107.062 22.2244 107.04Z" fill="#1D282D"/>
<path d="M6.13536 112.46C5.67783 112.471 5.22779 112.265 4.89402 111.95C4.83776 111.897 4.78526 111.837 4.76651 111.762C4.74401 111.668 4.624 111.398 4.6615 111.308C4.91277 110.726 5.01778 110.238 5.2728 109.652C5.41906 109.315 5.87284 109.056 6.0641 108.744C6.32662 108.32 6.43163 107.723 6.76916 107.359C7.97674 106.053 9.67562 104.213 9.64562 104.307C9.61937 104.401 9.75438 104.724 9.78063 104.818C9.94939 105.411 10.1144 106.004 10.2832 106.597C10.4032 107.025 10.5344 107.472 10.8495 107.787C10.4407 107.644 10.3094 107.021 9.88189 106.98C9.66437 106.961 9.46185 107.115 9.3531 107.306C9.24434 107.498 9.20308 107.715 9.14308 107.926C9.03057 108.331 8.83931 108.718 8.58804 109.056C8.33302 109.401 8.018 109.694 7.73298 110.017C7.22294 110.602 6.82541 111.274 6.43538 111.942C6.36788 112.059 6.33787 112.257 6.46913 112.272C6.51039 112.276 6.54789 112.257 6.58539 112.239C6.77291 112.141 6.97542 112.013 7.16669 111.965C6.93417 112.272 6.51789 112.46 6.13536 112.46Z" fill="#27363E"/>
<path d="M10.8423 108.222C10.9661 108.496 11.1236 108.796 11.4049 108.902C11.5699 108.962 11.7499 108.943 11.9187 108.909C12.6312 108.755 13.235 108.297 13.9213 108.061C14.5364 107.851 15.1964 107.824 15.8452 107.745C16.9253 107.614 17.9866 107.329 18.9804 106.908C19.0404 106.882 19.1042 106.856 19.1492 106.803C19.213 106.728 19.2242 106.623 19.2392 106.525C19.3255 106.026 19.693 105.595 20.1693 105.429C20.4093 105.347 20.6868 105.321 20.8668 105.148C21.1293 104.893 21.0693 104.457 21.0056 104.089C20.9343 103.658 20.8931 103.218 20.8781 102.783C20.8706 102.535 20.8743 102.276 20.9868 102.062C21.1031 101.841 21.3169 101.694 21.5231 101.559C22.5319 100.891 23.8295 100.152 24.8984 99.5849C24.9959 99.5324 25.1009 99.4761 25.1534 99.3785C25.2321 99.2358 25.1796 99.0519 25.1234 98.8942C25.0484 98.6765 24.8571 98.2861 24.8571 98.2861C24.8571 98.2861 23.9608 98.3988 23.702 98.4926C22.8807 98.7929 22.0519 99.0932 21.2944 99.5286C20.5368 99.964 19.8505 100.546 19.4117 101.3C18.8304 102.306 18.7367 103.534 18.2266 104.574C18.0541 104.923 17.8178 105.264 17.4653 105.433C17.0265 105.643 16.5015 105.538 16.0102 105.591C15.3164 105.666 14.7051 106.052 14.0338 106.225C13.9438 106.248 13.8463 106.266 13.76 106.225C13.6963 106.199 13.6475 106.143 13.6025 106.09C12.7137 105.047 11.8099 103.924 11.5774 102.584C11.6074 102.757 10.4486 103.68 10.2873 103.842C9.96477 104.168 9.61975 104.386 9.68725 104.874C9.83351 105.989 10.3848 107.194 10.8423 108.218V108.222Z" fill="#27363E"/>
<path d="M14.8059 100.118C13.7746 101.094 12.1207 102.325 10.9131 103.406C8.04417 105.985 4.64642 110.531 4.77018 111.875C4.18888 111.537 3.42758 110.884 3.42383 110.212C3.42383 109.54 3.6826 108.89 4.00887 108.301C4.77393 106.916 5.90276 105.775 7.01659 104.652C8.74547 102.911 10.4781 101.169 12.207 99.4236C13.5721 98.046 14.9409 96.6722 16.306 95.2946C16.8911 94.7052 17.4761 94.1159 18.1324 93.6129C18.7587 93.1324 19.445 92.7308 20.1726 92.4192C20.2626 92.3817 20.3601 92.3442 20.4576 92.3479C20.5738 92.3554 20.6788 92.423 20.7726 92.4943C21.2751 92.8734 22.0852 93.7368 21.7027 94.3411C21.3201 94.9455 20.1351 95.8538 19.5238 96.278C17.8474 97.4379 16.291 98.7142 14.8097 100.114L14.8059 100.118Z" fill="#F3F2F2"/>
<path d="M11.8096 108.328C11.9858 108.47 12.1958 108.564 12.4171 108.602C12.4584 108.609 12.5071 108.613 12.5446 108.602C12.6271 108.572 12.6571 108.474 12.6721 108.388C12.7021 108.223 12.7171 108.054 12.7096 107.885C13.0284 107.99 13.3509 108.095 13.6697 108.2C13.8647 107.915 13.9847 107.573 14.011 107.228C14.2097 107.457 14.4535 107.648 14.7273 107.78C14.746 107.791 14.7723 107.798 14.791 107.787C14.8135 107.776 14.8173 107.75 14.8173 107.723C14.8323 107.524 14.851 107.322 14.866 107.123C15.2448 107.299 15.6011 107.517 15.9274 107.78C16.2011 107.521 16.2536 107.115 16.2911 106.74C16.5537 106.999 16.8162 107.258 17.0787 107.513C17.315 107.235 17.45 106.875 17.4575 106.511C17.7238 106.665 17.9188 106.943 17.9713 107.247C18.3163 106.984 18.5338 106.567 18.5563 106.132C18.7888 106.305 18.9763 106.533 19.1039 106.792" stroke="#1D282D" stroke-width="1.43" stroke-linecap="round" stroke-linejoin="round"/>
<path d="M28.8471 96.0338L65.1123 94.7275C68.9976 94.7275 72.1778 97.9107 72.1778 101.799C72.1778 105.688 68.9976 108.871 65.1123 108.871L28.1046 108.943C25.6182 108.943 20.4053 107.118 20.4053 104.63V102.302C20.4053 99.8138 26.3607 96.0301 28.8471 96.0301V96.0338Z" fill="#C6C6C5"/>
<path d="M48.0529 108.144C48.1354 107.911 48.2666 107.596 48.2666 107.596C48.2666 107.596 48.7804 107.844 48.8554 107.893C49.9505 108.572 51.3156 108.606 52.6019 108.617C53.2282 108.625 53.8883 108.621 54.4283 108.309C54.7658 108.114 55.0321 107.81 55.3771 107.622C55.8234 107.378 56.3597 107.356 56.8585 107.457C57.3573 107.558 57.8223 107.769 58.2836 107.983C58.9099 108.272 59.5812 108.595 59.915 109.199C60.245 109.788 60.1775 110.528 59.96 111.17C59.7425 111.811 59.3899 112.397 59.1574 113.031C59.1162 113.14 59.0749 113.257 58.9849 113.332C58.8761 113.422 58.7224 113.429 58.5836 113.433C57.421 113.456 56.2547 113.392 55.0996 113.242C54.7958 113.204 54.4883 113.155 54.1845 113.181C54.0083 113.197 53.832 113.23 53.6558 113.23C53.2657 113.23 52.8795 113.035 52.6394 112.724C52.3957 112.404 52.3169 111.992 52.1219 111.642C51.8969 111.241 51.5219 110.937 51.1243 110.7C50.7043 110.449 50.2055 110.325 49.8117 110.028C47.9253 108.61 47.7191 109.086 48.0491 108.152L48.0529 108.144Z" fill="white"/>
<path d="M66.271 110.115C66.706 110.096 67.1561 109.987 67.5611 110.137C67.7336 110.201 67.9061 110.344 67.8986 110.528C67.8874 110.761 67.6173 110.873 67.3886 110.929C65.776 111.331 64.1371 111.613 62.4832 111.778C62.4232 111.785 62.3557 111.789 62.3032 111.751C62.2619 111.721 62.2432 111.673 62.2319 111.624C62.1382 111.241 62.397 110.873 62.5245 110.498C62.7082 109.957 62.5282 109.544 62.3895 109.038C62.8732 108.906 63.7846 109.492 64.2383 109.668C64.8871 109.923 65.5622 110.141 66.2672 110.115H66.271Z" fill="white"/>
<path d="M47.9285 108.602C48.9073 108.872 49.8486 109.273 50.7187 109.791C51.195 110.073 51.6487 110.392 52.1025 110.711C52.3613 110.891 52.6201 111.075 52.8226 111.315C53.1601 111.717 53.3064 112.276 53.2126 112.794C51.675 112.389 50.0886 112.164 48.4985 112.134C48.2885 112.13 47.7897 112.156 47.6735 111.931C47.5722 111.736 47.7672 111.139 47.7935 110.914C47.8797 110.148 47.9247 109.379 47.9322 108.605L47.9285 108.602Z" fill="#27363E"/>
<path d="M55.0994 103.966C55.0318 103.902 54.9568 103.838 54.8631 103.831C54.7131 103.819 54.6043 103.955 54.5143 104.075C54.3193 104.334 54.0905 104.57 53.843 104.777C53.5692 105.006 53.2392 105.238 53.183 105.595C53.1455 105.82 53.2317 106.045 53.2917 106.267C53.3967 106.646 53.4305 107.044 53.3967 107.438C53.768 107.408 54.098 107.198 54.4506 107.078C55.0356 106.879 56.5807 106.995 56.8732 106.293C57.012 105.963 56.3932 105.37 56.1832 105.115C55.8494 104.709 55.4856 104.322 55.0994 103.966Z" fill="#1D282D"/>
<path d="M68.0867 110.418C68.3718 110.689 68.518 111.083 68.5293 111.477C68.5293 111.541 68.5293 111.612 68.4918 111.668C68.4505 111.74 68.3568 111.976 68.2818 112.006C67.7755 112.205 67.4192 112.438 66.9129 112.637C66.6204 112.753 66.1891 112.637 65.8853 112.708C65.4728 112.806 65.049 113.102 64.6252 113.117C63.1064 113.177 60.9725 113.26 61.0437 113.222C61.115 113.181 61.2312 112.907 61.2687 112.832C61.5275 112.374 61.7825 111.912 62.0413 111.454C62.2251 111.124 62.4163 110.775 62.4163 110.396C62.5776 110.726 62.2776 111.184 62.5138 111.469C62.6338 111.612 62.8476 111.642 63.0276 111.593C63.2076 111.544 63.3651 111.436 63.5302 111.345C63.8452 111.169 64.1902 111.053 64.5465 110.996C64.9065 110.944 65.2778 110.955 65.6416 110.933C66.3016 110.888 66.9467 110.722 67.588 110.553C67.6967 110.523 67.8355 110.422 67.768 110.332C67.7455 110.306 67.7117 110.291 67.678 110.283C67.5055 110.231 67.3067 110.186 67.1642 110.099C67.4905 110.054 67.8542 110.193 68.0867 110.426V110.418Z" fill="#27363E"/>
<path d="M62.6862 110.133C62.7799 109.893 62.8662 109.615 62.7574 109.382C62.6937 109.247 62.5737 109.15 62.4499 109.067C61.9249 108.729 61.2873 108.643 60.7285 108.369C60.2297 108.125 59.8135 107.742 59.3747 107.397C58.6434 106.822 57.8296 106.353 56.9745 106.008C56.922 105.985 56.8658 105.966 56.8095 105.97C56.727 105.974 56.6557 106.034 56.5882 106.083C56.2357 106.334 55.7519 106.372 55.3656 106.184C55.1706 106.09 54.9906 105.936 54.7731 105.933C54.4581 105.929 54.2368 106.229 54.0493 106.488C53.8318 106.792 53.5918 107.081 53.3367 107.355C53.1942 107.509 53.033 107.663 52.8342 107.727C52.6317 107.791 52.4142 107.749 52.2079 107.708C51.1953 107.502 49.9652 107.164 48.9752 106.86C48.8852 106.834 48.7877 106.804 48.6939 106.83C48.5589 106.867 48.4839 107.01 48.4201 107.141C48.3339 107.318 48.2139 107.671 48.2139 107.671C48.2139 107.671 48.8214 108.144 49.0352 108.245C49.714 108.56 50.3928 108.879 51.1128 109.074C51.8329 109.27 52.5979 109.333 53.318 109.142C54.2743 108.887 55.0731 108.2 56.0107 107.881C56.3257 107.772 56.6745 107.708 56.9895 107.821C57.3833 107.96 57.6383 108.339 57.9646 108.602C58.4296 108.977 59.0297 109.112 59.5397 109.412C59.6072 109.454 59.6785 109.502 59.7047 109.574C59.7272 109.63 59.7235 109.69 59.716 109.75C59.6222 110.918 59.4909 112.145 58.8234 113.091C58.9097 112.967 60.1697 113.113 60.361 113.11C60.751 113.11 61.0923 113.181 61.3473 112.851C61.9324 112.089 62.3262 111.026 62.6674 110.133H62.6862Z" fill="#27363E"/>
<path d="M55.4032 112.633C56.6145 112.667 58.3546 112.926 59.7385 113.001C63.0275 113.181 67.8203 112.486 68.5591 111.601C68.7091 112.156 68.7729 113.012 68.3679 113.417C67.9628 113.823 67.4153 114.059 66.864 114.217C65.5664 114.592 64.1976 114.6 62.8475 114.604C60.7511 114.611 58.6547 114.615 56.5582 114.622C54.9006 114.626 53.2468 114.634 51.5891 114.637C50.8803 114.637 50.1715 114.641 49.4702 114.551C48.8027 114.465 48.1426 114.292 47.5163 114.04C47.4376 114.01 47.3588 113.973 47.3026 113.909C47.2351 113.834 47.2163 113.729 47.2013 113.631C47.1301 113.098 47.1601 112.089 47.7526 111.953C48.3489 111.818 49.6127 111.987 50.239 112.1C51.9529 112.411 53.663 112.584 55.4032 112.633Z" fill="#F3F2F2"/>
<path d="M62.1651 109.484C62.1464 109.292 62.0751 109.108 61.9626 108.951C61.9401 108.921 61.9176 108.89 61.8839 108.875C61.8164 108.845 61.7414 108.887 61.6776 108.928C61.5576 109.011 61.4488 109.104 61.3513 109.206C61.2201 108.951 61.0926 108.692 60.9613 108.436C60.6688 108.493 60.3912 108.624 60.1662 108.815C60.185 108.556 60.1512 108.294 60.065 108.05C60.0575 108.031 60.05 108.012 60.0312 108.008C60.0125 108.001 59.9937 108.016 59.9787 108.031C59.8475 108.144 59.7162 108.252 59.5849 108.365C59.4612 108.031 59.3787 107.682 59.3412 107.329C59.0224 107.321 58.7411 107.535 58.4936 107.738C58.4936 107.423 58.4899 107.107 58.4861 106.796C58.4149 107.175 60.9538 111.526 57.6498 107.171C57.5823 106.916 57.6348 106.631 57.7848 106.417C57.4173 106.368 57.0348 106.488 56.761 106.736C56.7235 106.492 56.7497 106.237 56.8285 106.004" stroke="#1D282D" stroke-width="1.43" stroke-linecap="round" stroke-linejoin="round"/>
<path d="M68.5142 111.619C67.7454 112.576 62.495 113.053 61.3887 113.053C58.051 113.049 54.3307 112.584 52.1555 112.419C50.4304 112.287 49.3541 111.814 47.7002 111.991" stroke="#D9D9D9" stroke-width="0.72" stroke-miterlimit="10" stroke-linecap="round"/>
<path d="M31.4273 84.4874L66.3987 94.1832C70.1039 95.3544 72.1778 99.3483 71.004 103.057C69.8339 106.766 65.8436 108.841 62.1384 107.666L28.3371 96.9684C25.9669 96.2177 24.6543 93.6877 25.4044 91.3154L25.7794 87.4191C26.5295 85.0467 29.0572 83.733 31.4273 84.4837V84.4874Z" fill="#C6C6C5"/>
<path d="M47.2905 102.944L59.1677 68.6244C60.5703 64.9983 64.6843 63.1778 68.3071 64.5817C71.9299 65.9855 76.5427 72.4944 73.2425 78.489L59.5427 106.814C58.6464 109.134 56.0399 110.286 53.7223 109.389L49.8632 108.766C47.5456 107.869 46.3942 105.26 47.2905 102.941V102.944Z" fill="#C6C6C5"/>
<path d="M48.7835 88.6095C48.7835 96.6875 41.178 101.109 32.2373 101.109C23.2966 101.109 18.3838 95.2761 18.3838 87.1982C18.3838 79.1202 23.6567 73.9814 32.5973 73.9814C35.2 73.9814 37.664 74.537 39.8429 75.5242C45.1458 77.9266 48.7873 82.8852 48.7873 88.6095H48.7835Z" fill="#C6C6C5"/>
<path d="M62.5059 64.5487L38.9092 75.1303C38.9092 75.1303 42.2807 98.3243 42.5882 98.3243C42.5882 98.3243 52.2714 91.4776 52.3352 91.5039C57.4393 93.5872 64.5048 71.3053 64.5048 71.3053L62.5059 64.5449V64.5487Z" fill="#C6C6C5"/>
<path d="M69.7924 59.1431C67.9848 56.2377 60.5292 44.3198 58.1141 42.5368C55.1738 40.3634 51.8361 39.181 48.3858 37.7546C45.3331 36.4934 41.5978 37.0602 38.7214 38.8394C36.7225 40.0744 35.2711 42.1427 33.9473 44.2072C25.6254 57.1724 20.6676 69.7773 18.3799 85.5615C18.3799 85.5615 34.8548 90.8767 46.9832 78.452L52.7849 61.2114L62.2619 67.4012C66.3159 70.3403 73.2239 64.6723 69.7887 59.1469L69.7924 59.1431Z" fill="#56BEC5"/>
<path d="M48.4647 37.0752C54.4194 37.0752 59.2467 31.089 59.2467 23.7046C59.2467 16.3202 54.4194 10.334 48.4647 10.334C42.5099 10.334 37.6826 16.3202 37.6826 23.7046C37.6826 31.089 42.5099 37.0752 48.4647 37.0752Z" fill="#F7B999"/>
<path d="M41.1594 10.5708C43.297 8.97176 49.1287 9.35839 52.9015 10.3831C54.6266 10.8524 56.8168 11.3891 57.9231 9.9815C58.2494 9.56484 58.4294 9.01305 58.8682 8.71651C59.5995 8.22102 60.717 8.82536 60.8783 9.69622C61.0396 10.5671 60.4208 11.4454 59.6107 11.7983C60.642 11.483 61.8459 12.3914 61.8309 13.4687C61.8159 14.546 60.5858 15.4206 59.562 15.0752C60.7546 15.0377 60.9458 17.0347 59.9707 17.7216C58.9957 18.4085 57.6756 18.1795 56.498 17.9956C54.8854 17.7441 53.254 17.639 51.6226 17.6765C50.4225 17.7066 49.0162 17.9468 48.4874 19.0279C47.5948 20.8597 49.9913 23.2545 48.6899 25.2402C47.6998 24.4632 47.1523 23.491 45.9185 23.7312C44.6846 23.9715 43.6608 25.3791 44.2008 26.5165C44.4446 27.027 44.9434 27.4023 45.0821 27.9504C45.2059 28.4346 45.7797 29.3505 45.5922 29.816C45.2697 30.623 44.3808 31.4938 44.0583 32.3009C43.7433 33.0854 43.1845 33.4533 42.4645 33.8962C41.0093 34.7858 39.1642 33.5171 38.1816 32.1207C35.4289 28.2094 35.2189 24.1854 35.1102 19.3995C35.0727 17.6916 35.0502 15.9011 35.8227 14.3733C36.5953 12.8493 37.2816 11.4717 40.0305 11.2765L41.1594 10.5746V10.5708Z" fill="#E5A534"/>
<path d="M57.6982 28.7943L58.1783 28.8168C59.2846 28.8694 61.066 28.3776 60.7697 27.3078C60.4022 25.979 59.1758 24.0609 59.0296 22.6758" fill="#F7B999"/>
<path d="M30.7522 38.5991C29.6496 42.4955 28.217 47.5967 30.6547 48.3137C33.0886 49.0306 42.1043 43.0923 44.2607 41.6997C45.8883 40.6487 47.4747 39.1509 49.3761 39.2598C53.1489 39.4775 55.8941 41.1066 55.8941 41.1066C56.7416 40.705 52.9126 36.3995 52.1138 36.2644C48.1573 35.5924 44.872 32.2029 40.8667 31.9777C38.6166 31.85 36.2389 31.9401 33.8875 32.7059C33.2837 32.9048 32.7999 33.3628 32.5524 33.9483C32.0086 35.2434 31.0372 37.5969 30.7522 38.5991Z" fill="#469D9F"/>
<path d="M96.4642 27.0228C96.5805 27.049 96.6743 27.2667 96.6743 27.3869C96.6743 27.5746 96.5093 27.6834 96.3705 27.7772C96.153 27.9236 95.9205 28.0475 95.7142 28.2127C95.5004 28.3891 95.3054 28.5918 95.1254 28.802C94.7804 29.2036 94.4879 29.6466 94.1241 30.0332C93.7603 30.4198 93.299 30.6864 92.7777 30.8102C92.5677 30.859 92.3164 31.0692 92.3802 31.3057C92.444 31.5422 92.7665 31.5872 92.9727 31.5384C93.7115 31.3658 94.3603 30.9791 94.8891 30.4349C95.3467 29.9656 95.6879 29.3951 96.1455 28.9259C96.5768 28.4792 97.2406 28.2915 97.5556 27.7285C97.9156 27.0866 97.4431 26.4109 96.7943 26.257C96.5618 26.2045 96.2467 26.3471 96.153 26.5686C96.0517 26.8126 96.2505 26.9702 96.4642 27.019V27.0228Z" fill="#DDA68E"/>
<path d="M97.1656 26.6545C97.4431 26.7109 97.6494 26.9286 97.7057 27.2101C97.7582 27.4766 97.6194 27.7056 97.4244 27.8707C97.2069 28.0547 96.9444 28.1823 96.7156 28.3587C96.4756 28.5426 96.2618 28.7566 96.063 28.9856C95.2792 29.9015 94.7092 31.0876 93.4528 31.4217C93.3478 31.448 92.9616 31.5644 93.0066 31.7295C93.0516 31.8947 93.4603 31.7971 93.5466 31.7708C94.3192 31.5644 95.043 31.189 95.613 30.6222C96.123 30.1117 96.4943 29.4811 96.9594 28.933C97.1844 28.6703 97.4281 28.4375 97.7207 28.2461C97.9907 28.0697 98.2794 27.9008 98.4857 27.6493C98.9057 27.1238 98.632 26.3843 97.9682 26.2529C97.7394 26.2079 97.4806 26.2642 97.2744 26.373C97.1919 26.4143 96.9293 26.6133 97.1619 26.6583L97.1656 26.6545Z" fill="#DDA68E"/>
<path d="M104.34 22.7168C105.097 30.0515 101.028 37.7878 96.0142 38.3059C91.0038 38.8239 85.3784 31.5717 84.6209 24.2333C83.8633 16.8986 88.4237 13.7343 93.434 13.2125C98.4444 12.6945 103.582 15.3784 104.34 22.7131V22.7168Z" fill="#A65E48"/>
<path d="M92.489 18.7606C93.7341 21.2643 87.6549 25.1719 83.9121 25.0143C83.9121 25.0143 88.1349 15.9716 92.489 18.7606Z" fill="#20090A"/>
<path opacity="0.48" d="M127.262 65.4001C127.525 64.762 128.072 64.2365 128.294 63.5833C128.451 63.1141 128.429 62.5961 128.23 62.1419C127.956 61.5188 127.379 61.0534 127.034 60.4603C126.388 59.3454 126.681 57.904 127.499 56.8793C128.17 56.0384 129.209 55.314 129.265 54.2742C129.614 54.109 130.034 54.1691 130.416 54.2367C131.14 54.3605 131.864 54.4844 132.588 54.6083C133.338 54.7359 134.137 54.8861 134.673 55.3815C135.183 55.8508 135.363 56.5452 135.378 57.2096C135.389 57.7051 135.318 58.2193 135.029 58.636C134.789 58.9813 134.422 59.2403 134.174 59.5782C133.698 60.2276 133.754 61.1622 134.298 61.7553C134.508 61.9843 134.782 62.1644 134.969 62.4084C135.325 62.8739 135.31 63.5533 134.932 64.0113C134.575 64.4392 133.9 64.7845 134.005 65.3138C134.062 65.5953 134.332 65.7867 134.545 65.9932C135.052 66.4774 135.307 67.2394 134.98 67.8438C134.572 68.602 133.514 68.7897 132.606 68.8873C131.991 68.9511 131.376 69.0187 130.765 69.0825C130.57 69.105 130.371 69.1238 130.18 69.0862C129.719 68.9999 129.239 68.6921 128.804 68.5307C128.369 68.3693 128.046 68.1816 127.75 67.855C127.15 67.1906 126.917 66.2259 127.255 65.4039L127.262 65.4001Z" fill="url(#paint1_linear_630_14857)"/>
<path d="M126.538 66.5823C126.114 66.7775 125.852 67.2054 125.867 67.6709C125.931 69.9344 126.894 76.5934 127.993 79.2247C128.556 80.5723 134.661 81.6271 135.726 79.2885C136.735 77.0814 136.364 73.9245 136.45 71.4959C136.503 70.0245 136.503 68.5155 136.023 67.1304C135.914 66.8151 135.438 66.1206 134.684 65.9104C132.336 65.2573 128.331 65.7565 126.538 66.5823Z" fill="#EFEFE3"/>
<path d="M127.055 67.9754C126.485 67.4649 127.655 66.8756 128.173 66.6954C128.784 66.4815 129.433 66.3538 130.082 66.2638C131.117 66.1249 132.193 66.0873 133.104 66.3276C134.016 66.5678 134.983 66.7743 134.695 67.6263C134.406 68.4784 128.81 69.2217 127.051 67.9717L127.055 67.9754Z" fill="#9E6B54"/>
<path d="M137.984 74.5444C139.983 74.5444 141.603 72.9227 141.603 70.9221C141.603 68.9216 139.983 67.2998 137.984 67.2998C135.986 67.2998 134.365 68.9216 134.365 70.9221C134.365 72.9227 135.986 74.5444 137.984 74.5444Z" fill="#EFEFE3"/>
<path d="M85.5174 28.5427C84.0248 27.7394 82.2621 26.0315 82.1271 24.47C81.9321 22.1765 83.4997 19.9843 83.556 17.6758C83.571 16.9889 83.451 16.3057 83.451 15.6188C83.451 14.7892 83.6122 13.9634 83.8298 13.1526C84.2085 11.7412 84.7861 10.2998 85.9787 9.29758C87.0212 8.42297 88.4201 7.98004 89.8002 7.66848C91.4841 7.28936 93.2317 7.06414 94.9456 7.2218C96.6595 7.37945 98.3508 7.93499 99.6034 8.96726C100.571 9.76304 101.242 10.7953 101.899 11.8125C103.301 13.9859 104.708 16.1668 105.735 18.5054C106.309 19.8154 106.766 21.1855 106.826 22.6006C106.89 24.0158 106.53 25.4872 105.6 26.6584C105.371 26.9474 104.711 27.4654 104.351 27.3378C104.216 27.289 104.044 27.2214 104.025 27.0938C103.845 25.6749 103.14 24.0758 102.045 22.8221C100.95 21.5684 98.7259 20.6224 97.0307 20.1082C95.7894 19.7328 94.4355 19.7216 93.1154 19.8267C91.4503 19.9618 89.7664 20.2846 88.3151 21.0504C86.8637 21.8161 85.6711 23.0736 85.3674 24.5375C85.1274 25.6937 85.4649 27.2852 85.6224 28.2499" fill="white"/>
<path d="M85.5024 27.3006C85.2211 28.7646 85.0299 28.7195 84.2761 29.3088C83.5223 29.9019 82.7009 30.8666 82.9222 32.0903C82.9747 32.3869 83.0872 32.6646 83.1097 32.9649C83.1547 33.5956 82.7947 34.1023 82.4047 34.3913C82.0146 34.6804 81.5234 34.8268 81.2608 35.2847C80.2745 37.0039 81.3584 38.0249 81.7109 38.4528C82.2434 37.8597 83.1322 38.2051 83.616 38.9633C84.1036 39.7216 84.2686 40.7576 84.3361 41.741C84.4186 42.9197 83.8898 42.6757 84.3473 43.708C84.8049 44.744 85.9899 45.292 86.485 44.3836C86.7775 45.4159 87.2163 46.3768 87.7713 47.1914C88.1951 47.8145 88.8964 48.3775 89.3502 47.8821C89.5977 47.6155 89.6615 47.1313 89.7065 46.6884C89.8152 45.6299 89.8977 44.4287 89.4102 43.5391C89.1102 42.9873 88.6114 42.5969 88.4801 41.94C88.3414 41.2418 88.6939 40.5924 88.7426 39.8867C88.7839 39.3312 88.2101 37.3642 88.3414 36.8462C89.3164 33.0062 86.4925 30.9417 85.4949 27.2969" fill="#20090A"/>
<path d="M103.89 26.4705C104.539 27.8369 104.745 27.7506 105.739 28.1597C106.733 28.5689 108.237 27.9457 108.255 29.1882C108.259 29.4885 108.192 29.7888 108.233 30.0853C108.319 30.7122 108.848 31.1251 109.354 31.3241C109.86 31.523 110.412 31.5981 110.862 31.9434C111.312 32.2888 111.616 33.062 111.304 33.5575C110.562 33.0958 109.275 35.0177 108.889 35.866C108.503 36.7143 108.54 37.7654 108.679 38.7376C108.848 39.9087 109.14 41.1287 108.848 42.2435C108.552 43.3584 107.322 44.1579 106.553 43.3771C106.448 44.4507 106.159 45.4867 105.705 46.4063C105.356 47.112 104.681 47.814 104.051 47.4349C103.706 47.2284 103.53 46.7705 103.38 46.35C103.02 45.3403 102.66 44.1879 103.02 43.2045C103.241 42.6001 103.725 42.1084 103.729 41.4365C103.729 40.7233 103.185 40.1677 102.971 39.4883C102.802 38.9553 103.02 36.9058 102.754 36.4291C100.785 32.8931 103.56 30.2505 103.894 26.4668" fill="#20090A"/>
<path d="M121.704 10.353C120.163 10.5256 119.732 12.8755 120.609 14.2193C121.483 15.5668 123.043 16.1862 124.427 16.9369C125.807 17.6877 127.228 18.8776 127.3 20.4992C127.352 21.6741 126.662 22.7702 126.688 23.9451C126.752 26.8391 130.761 28.0779 131.35 30.9119C131.564 31.9404 131.275 32.9989 131.29 34.05C131.343 37.0379 133.9 39.444 136.627 40.3824C140.984 41.8801 146.107 40.3899 149.051 36.7676C149.963 39.17 152.813 40.4875 155.164 39.7593C157.519 39.0311 159.158 36.4936 159.143 33.9223C159.125 31.3473 157.572 28.8924 155.404 27.6462C157.197 25.4203 156.713 21.6028 154.422 19.8986C152.28 18.3033 148.714 18.033 148.208 15.3454C148.046 14.5008 148.283 13.6412 148.365 12.7854C148.583 10.4994 147.607 8.11203 145.871 6.67812C144.135 5.24422 141.69 4.81254 139.619 5.57454C138.761 3.69019 136.807 2.40268 134.819 2.41019C132.831 2.4177 130.911 3.72022 130.105 5.61208C129.771 6.3966 129.576 7.32 128.905 7.81549C127.881 8.57373 126.49 7.88306 125.241 7.66534C123.992 7.44763 122.304 8.62629 123.043 9.70359" fill="#3D1000"/>
<path d="M134.642 71.8192C131.616 72.7651 130.761 72.7314 127.663 72.5624C127.236 72.5399 126.774 72.5099 126.422 72.7351C126.069 72.9603 126.309 74.9348 126.692 75.13C126.939 75.2576 127.266 75.16 127.498 75.3064C127.716 75.4415 127.757 75.723 127.787 75.967C128.012 77.994 128.312 78.8011 130.037 80.0285C131.417 81.0082 133.315 81.1734 134.894 80.6103C136.101 80.1787 137.129 79.3679 138.359 78.9887C139.15 78.7448 140.065 78.6547 140.609 78.0578C140.935 77.6975 141.063 77.217 141.183 76.7516C141.449 75.7193 141.715 74.687 141.978 73.6585C142.147 73.0054 142.297 72.2509 141.88 71.6953C141.554 71.2599 140.973 71.0835 140.545 70.7382C140.167 70.4341 139.424 70.1676 138.993 69.9386C138.186 69.5032 137.129 69.9086 136.506 70.5355C136.184 70.8583 136.439 70.9108 136.127 71.1436" fill="#653825"/>
<path d="M146.759 69.4682L138.236 72.3291L140.428 78.8703L148.951 76.0094L146.759 69.4682Z" fill="#F55F24"/>
<path d="M97.7694 26.2015C98.054 26.146 98.2099 25.7167 98.1177 25.2425C98.0254 24.7684 97.7199 24.429 97.4353 24.4845C97.1507 24.54 96.9947 24.9693 97.087 25.4434C97.1792 25.9176 97.4847 26.2569 97.7694 26.2015Z" fill="#653825"/>
<path d="M90.3201 27.4437C90.6047 27.3882 90.7607 26.9588 90.6684 26.4847C90.5762 26.0106 90.2707 25.6712 89.9861 25.7267C89.7014 25.7822 89.5455 26.2115 89.6377 26.6856C89.73 27.1598 90.0355 27.4991 90.3201 27.4437Z" fill="#653825"/>
<path d="M96.0479 22.4768C96.0479 22.4768 98.5343 20.8702 100.544 22.5031" stroke="#20090A" stroke-linecap="round" stroke-linejoin="round"/>
<path d="M91.2741 22.8149C91.2741 22.8149 88.8664 22.143 87.8389 23.7421" stroke="#20090A" stroke-linecap="round" stroke-linejoin="round"/>
<path d="M98.1857 32.1016C98.1857 32.1016 96.0893 34.3125 92.6953 33.772" stroke="#653825" stroke-width="0.5" stroke-miterlimit="10" stroke-linecap="round"/>
<path d="M96.708 34.1133C96.708 34.1133 95.6017 34.8528 94.6191 34.5224" stroke="#653825" stroke-width="0.5" stroke-miterlimit="10" stroke-linecap="round"/>
<path d="M94.263 27.71C94.263 27.71 94.4468 28.9299 93.6479 29.6056C93.4117 29.8045 93.3029 30.1236 93.3629 30.4276C93.4492 30.8593 93.7755 31.3585 94.818 31.3923" stroke="#653825" stroke-width="0.5" stroke-miterlimit="10" stroke-linecap="round"/>
<path d="M99.9302 24.8795C99.9302 24.8795 97.83 23.0214 96.2324 24.8795" stroke="#653825" stroke-width="0.5" stroke-miterlimit="10" stroke-linecap="round"/>
<path d="M92.1557 25.9639C92.1557 25.9639 89.793 24.4662 88.6904 26.1441" stroke="#653825" stroke-width="0.5" stroke-miterlimit="10" stroke-linecap="round"/>
<path d="M54.6191 23.8889C54.6191 23.8889 56.0217 22.1321 57.7094 22.5563" stroke="#B47764" stroke-width="0.5" stroke-miterlimit="10" stroke-linecap="round"/>
<path d="M58.1142 21.1522C56.3403 19.8309 53.9289 21.4562 53.5576 22.0756" stroke="#EDA72B" stroke-miterlimit="10" stroke-linecap="round"/>
<path d="M56.9518 30.1611C56.1568 30.27 55.3467 30.2625 54.5554 30.1386C54.1954 30.0823 53.9103 30.4464 54.0641 30.7767C54.2066 31.0808 54.4016 31.3586 54.6416 31.5913" stroke="#B47764" stroke-width="0.5" stroke-miterlimit="10" stroke-linecap="round"/>
<path d="M56.6962 24.2826C56.9178 24.2826 57.0975 23.9835 57.0975 23.6144C57.0975 23.2454 56.9178 22.9463 56.6962 22.9463C56.4746 22.9463 56.2949 23.2454 56.2949 23.6144C56.2949 23.9835 56.4746 24.2826 56.6962 24.2826Z" fill="#B47764"/>
<path d="M48.7873 27.8771C49.5689 26.7319 49.0269 24.9996 47.5766 24.0079C46.1264 23.0163 44.3171 23.1407 43.5354 24.2859C42.7538 25.431 43.2958 27.1633 44.7461 28.155C46.1963 29.1467 48.0056 29.0222 48.7873 27.8771Z" fill="#F7B999"/>
<path d="M44.291 25.5288C46.2974 24.6129 47.0025 26.3546 47.0812 26.6925" stroke="#B47764" stroke-width="0.5" stroke-linecap="round" stroke-linejoin="round"/>
<path d="M36.7979 76.7215C36.7979 76.7215 42.3633 76.2598 41.9957 71.7666L43.6459 74.1877" stroke="#469D9F" stroke-linecap="round" stroke-linejoin="round"/>
<path d="M123.932 23.1037C123.932 23.1037 122.529 21.347 120.842 21.7712" stroke="#3D1000" stroke-width="0.5" stroke-miterlimit="10" stroke-linecap="round"/>
<path d="M120.437 20.3708C123.039 19.087 125.267 21.1515 125.638 21.7709" stroke="#3D1000" stroke-miterlimit="10" stroke-linecap="round"/>
<path d="M121.453 32.2852C122.248 32.394 123.058 32.3865 123.85 32.2626C124.21 32.2063 124.495 32.5704 124.341 32.9008C124.198 33.2048 124.003 33.4826 123.763 33.7153" stroke="#3D1000" stroke-width="0.5" stroke-miterlimit="10" stroke-linecap="round"/>
<path d="M122.256 22.8332C122.256 23.2011 122.076 23.5013 121.854 23.5013C121.633 23.5013 121.453 23.2011 121.453 22.8332C121.453 22.4653 121.633 22.165 121.854 22.165C122.076 22.165 122.256 22.4653 122.256 22.8332Z" fill="#3D1000"/>
<path d="M121.873 21.9106C121.873 21.9106 120.474 22.3235 119.972 21.3926C119.972 21.3926 120.827 21.6891 121.536 21.5615C122.304 21.6478 121.877 21.9106 121.877 21.9106H121.873Z" fill="#3D1000"/>
<path d="M138.501 72.4233L151.736 66.0421L144.378 55.8809" stroke="#DE4D14" stroke-linecap="round" stroke-linejoin="round"/>
<path d="M140.53 78.3318L160.56 74.6232C162.837 74.1915 163.951 72.6413 164.487 71.0309C165.158 69.0039 164.888 66.7818 163.861 64.9087L158.187 54.541" stroke="#DE4D14" stroke-linecap="round" stroke-linejoin="round"/>
<path d="M131.661 61.5042C131.661 61.5042 127.967 58.8504 128.368 50.123" stroke="#DE4D14" stroke-linecap="round" stroke-linejoin="round"/>
<path d="M60.1429 84.082C59.4604 85.9476 55.2563 88.9918 55.2563 88.9918L45.8806 96.4617C44.5605 97.5127 43.1092 98.3873 41.5566 99.0329C37.1012 100.891 28.1306 103.575 22.8202 97.9932L20.1875 94.75" stroke="#999999" stroke-linecap="round" stroke-linejoin="round"/>
<path d="M48.9482 58.7793L61.2679 66.6245C61.2679 66.6245 65.697 70.5171 69.5598 65.611C69.5598 65.611 71.7574 63.1899 69.7885 59.1434" stroke="#469D9F" stroke-linecap="round" stroke-linejoin="round"/>
<path d="M54.26 40.2514C54.26 40.2514 54.1959 40.2287 54.0791 40.2021" stroke="white" stroke-width="0.5" stroke-linecap="round" stroke-linejoin="round"/>
<path d="M53.712 40.1384C52.1631 39.9244 47.629 40.052 43.9237 47.6495L39.2959 57.3452" stroke="white" stroke-width="0.5" stroke-linecap="round" stroke-linejoin="round"/>
<path d="M39.2134 57.5215L39.1309 57.6904L39.3109 57.7467" stroke="white" stroke-width="0.5" stroke-linecap="round" stroke-linejoin="round"/>
<path d="M39.6631 57.8594L52.204 61.7745" stroke="white" stroke-width="0.5" stroke-linecap="round" stroke-linejoin="round"/>
<path d="M52.3809 61.8271L52.5618 61.8839" stroke="white" stroke-width="0.5" stroke-linecap="round" stroke-linejoin="round"/>
<path d="M40.8857 58.2384L32.5976 55.4532C32.5976 55.4532 28.6073 54.1319 29.2374 52.1875" stroke="white" stroke-width="0.5" stroke-linecap="round" stroke-linejoin="round"/>
<path d="M81.6514 72.566C81.6514 72.566 81.8052 69.0976 83.5753 66.669C86.0805 63.2381 84.7791 59.233 84.7791 59.233L81.5352 48.8428" stroke="#1F4946" stroke-linecap="round" stroke-linejoin="round"/>
<path d="M53.5198 90.6143L48.2656 107.592" stroke="#999999" stroke-width="2" stroke-linecap="round" stroke-linejoin="round"/>
<path d="M59.543 106.818L67.8986 90.1855" stroke="#999999" stroke-linecap="round" stroke-linejoin="round"/>
</g>
<defs>
<linearGradient id="paint0_linear_630_14857" x1="96.1611" y1="61.2671" x2="95.3915" y2="46.0353" gradientUnits="userSpaceOnUse">
<stop offset="0.18" stop-color="white"/>
<stop offset="0.33" stop-color="white" stop-opacity="0.76"/>
<stop offset="0.61" stop-color="white" stop-opacity="0.36"/>
<stop offset="0.81" stop-color="white" stop-opacity="0.1"/>
<stop offset="0.9" stop-color="white" stop-opacity="0"/>
</linearGradient>
<linearGradient id="paint1_linear_630_14857" x1="131.709" y1="71.5919" x2="130.94" y2="56.3639" gradientUnits="userSpaceOnUse">
<stop offset="0.18" stop-color="white"/>
<stop offset="0.33" stop-color="white" stop-opacity="0.76"/>
<stop offset="0.61" stop-color="white" stop-opacity="0.36"/>
<stop offset="0.81" stop-color="white" stop-opacity="0.1"/>
<stop offset="0.9" stop-color="white" stop-opacity="0"/>
</linearGradient>
<clipPath id="clip0_630_14857">
<rect width="204" height="116" fill="white"/>
</clipPath>
</defs>
</svg>
