<svg width="19" height="19" viewBox="0 0 19 19" fill="none" xmlns="http://www.w3.org/2000/svg">
<path fill-rule="evenodd" clip-rule="evenodd" d="M16.15 8.075C16.15 3.6153 12.5347 0 8.075 0C3.6153 0 0 3.6153 0 8.075C0 12.5347 3.6153 16.15 8.075 16.15C12.5347 16.15 16.15 12.5347 16.15 8.075ZM1.9 8.075C1.9 4.66464 4.66464 1.9 8.075 1.9C11.4854 1.9 14.25 4.66464 14.25 8.075C14.25 11.4854 11.4854 14.25 8.075 14.25C4.66464 14.25 1.9 11.4854 1.9 8.075Z" fill="#FF9739"/>
<path d="M8.075 2.84998C10.9607 2.84998 13.3 5.18929 13.3 8.07498C13.3 8.59965 12.8747 9.02498 12.35 9.02498C11.8253 9.02498 11.4 8.59965 11.4 8.07498C11.4 6.23863 9.91135 4.74998 8.075 4.74998C7.55033 4.74998 7.125 4.32465 7.125 3.79998C7.125 3.27531 7.55033 2.84998 8.075 2.84998Z" fill="#FF9739"/>
<path d="M12.6283 12.6282C12.9707 12.2858 13.5096 12.2594 13.8823 12.5492L13.9718 12.6282L18.7218 17.3782C19.0928 17.7492 19.0928 18.3507 18.7218 18.7217C18.3793 19.0642 17.8404 19.0905 17.4678 18.8008L17.3783 18.7217L12.6283 13.9717C12.2573 13.6007 12.2573 12.9992 12.6283 12.6282Z" fill="#FF9739"/>
</svg>
