<svg width="30" height="25" viewBox="0 0 30 25" fill="none" xmlns="http://www.w3.org/2000/svg">
<path d="M6.604 4.89282C7.94555 4.89282 9.03363 3.80572 9.03363 2.46411C9.03363 1.12158 7.94561 0.0345459 6.604 0.0345459C5.26147 0.0345459 4.1748 1.12158 4.1748 2.46411C4.17487 3.80572 5.26147 4.89282 6.604 4.89282Z" fill="#F55F24"/>
<path d="M13.1195 2.26697L11.8106 4.05579L8.51367 5.37092C8.49539 5.36999 8.48002 5.36036 8.46169 5.36036C8.46169 5.36036 4.64959 5.38302 4.60052 5.38975C4.17243 5.34938 3.74718 5.56863 3.55817 5.98191L0.093975 13.5719C-0.144111 14.0937 0.0857651 14.7104 0.607679 14.9486C1.1291 15.1866 1.74484 14.9582 1.98435 14.4348L3.6583 10.7676V14.7258C3.6583 14.7301 3.65589 23.6998 3.65589 23.6998C3.65589 24.3886 4.21391 24.9465 4.90268 24.9465C5.59144 24.9465 6.14953 24.3886 6.14953 23.6998V16.2689H7.05867V23.6998C7.05867 24.3886 7.61663 24.9465 8.30546 24.9465C8.99428 24.9465 9.55225 24.3886 9.55225 23.6998L9.54891 7.19499L12.8579 5.87512C13.0392 5.80289 13.1964 5.68117 13.3114 5.52339L14.2595 4.22759L13.4563 3.12987C13.2639 2.86684 13.1584 2.56894 13.1195 2.26697Z" fill="#F55F24"/>
<path d="M22.9448 4.89282C24.2873 4.89282 25.3739 3.80572 25.3739 2.46411C25.3739 1.12158 24.2873 0.0345459 22.9448 0.0345459C21.6032 0.0345459 20.5151 1.12158 20.5151 2.46411C20.5151 3.80572 21.6032 4.89282 22.9448 4.89282Z" fill="#F55F24"/>
<path d="M29.4547 13.5719L25.9904 5.98188C25.8013 5.5691 25.3771 5.34935 24.9486 5.38972C24.899 5.38305 21.0532 5.37002 21.0349 5.37089L17.7381 4.05577L15.8039 1.41212C15.4648 0.948913 14.8149 0.846444 14.3521 1.187C13.8888 1.52558 13.7878 2.17595 14.127 2.63873L16.2373 5.52336C16.3522 5.6812 16.5095 5.80286 16.6909 5.87509L19.9999 7.19496C19.9999 8.69237 19.9969 21.908 19.9964 23.6998C19.9964 24.3885 20.5545 24.9465 21.2433 24.9465C21.9321 24.9465 22.4901 24.3885 22.4901 23.6998V16.2689H23.3993V23.6998C23.3993 24.3885 23.9573 24.9465 24.6461 24.9465C25.3349 24.9465 25.8929 24.3885 25.8929 23.6998L25.8905 10.7676L27.5645 14.4348C27.8039 14.9582 28.4197 15.1866 28.9411 14.9485C29.4629 14.7105 29.6929 14.0938 29.4547 13.5719Z" fill="#F55F24"/>
</svg>
