<?xml version="1.0" encoding="UTF-8"?>
<svg xmlns="http://www.w3.org/2000/svg" xmlns:xlink="http://www.w3.org/1999/xlink" width="32" height="32" viewBox="0 0 32 32">
<path fill-rule="nonzero" fill="rgb(20.391846%, 25.097656%, 33.332825%)" fill-opacity="1" d="M 32 16 C 32 24.835938 24.835938 32 16 32 C 7.164062 32 0 24.835938 0 16 C 0 7.164062 7.164062 0 16 0 C 24.835938 0 32 7.164062 32 16 Z M 32 16 "/>
<path fill-rule="nonzero" fill="rgb(100%, 100%, 100%)" fill-opacity="1" d="M 24.089844 15.410156 L 16.589844 7.910156 C 16.265625 7.582031 15.742188 7.582031 15.417969 7.910156 L 7.917969 15.410156 C 7.589844 15.734375 7.589844 16.257812 7.917969 16.582031 L 15.417969 24.082031 C 15.742188 24.410156 16.265625 24.410156 16.589844 24.082031 L 24.089844 16.582031 C 24.417969 16.265625 24.417969 15.742188 24.089844 15.410156 Z M 17.667969 18.082031 L 17.667969 16 L 14.332031 16 L 14.332031 18.5 L 12.667969 18.5 L 12.667969 15.167969 C 12.667969 14.707031 13.042969 14.332031 13.5 14.332031 L 17.667969 14.332031 L 17.667969 12.25 L 20.582031 15.167969 Z M 17.667969 18.082031 "/>
</svg>
