<svg width="182" height="182" viewBox="0 0 182 182" fill="none" xmlns="http://www.w3.org/2000/svg">
<mask id="mask0_630_601" style="mask-type:alpha" maskUnits="userSpaceOnUse" x="0" y="0" width="182" height="182">
<rect width="182" height="182" fill="#D9D9D9"/>
</mask>
<g mask="url(#mask0_630_601)">
<path fill-rule="evenodd" clip-rule="evenodd" d="M153.399 145.468L126.385 156.814L125.928 156.99L125.507 156.849L91.8188 146.697L91.3621 146.557L90.9406 146.697L57.2175 156.849L56.7608 156.99L56.3393 156.814L29.3257 145.468C26.8316 144.589 25.4616 141.92 26.1993 139.426L27.5341 134.859L28.5177 131.522L40.4964 90.9486C41.3044 88.2437 44.22 86.7332 46.8898 87.6817L61.468 92.8455L61.8895 92.9861L62.3462 92.8104L90.9406 82.6935L91.3621 82.553L91.8188 82.7286L120.378 92.8104L120.835 92.9861L121.256 92.8455L135.834 87.6817C138.504 86.7332 141.42 88.2437 142.228 90.9486L154.171 131.522L155.155 134.859L156.49 139.426C157.227 141.92 155.857 144.589 153.399 145.468" fill="#FFEADC"/>
<path fill-rule="evenodd" clip-rule="evenodd" d="M61.8901 92.9867L61.4686 92.8462L57.5693 141.601L57.2532 145.222L56.3398 156.815L56.7614 156.99L57.218 156.85L58.1314 145.293L58.4475 141.534L62.3468 92.811L61.8901 92.9867Z" fill="white"/>
<path fill-rule="evenodd" clip-rule="evenodd" d="M124.277 141.532L124.558 145.291L125.506 156.852L125.931 156.989L126.384 156.816L125.436 145.221L125.155 141.602L121.259 92.8445L120.838 92.985L120.377 92.8093L124.277 141.532Z" fill="white"/>
<path fill-rule="evenodd" clip-rule="evenodd" d="M90.9413 82.6928V146.696L91.3629 146.556L91.8195 146.696V82.7314L91.3629 82.5522L90.9413 82.6928Z" fill="white"/>
<path fill-rule="evenodd" clip-rule="evenodd" d="M155.155 134.859L125.436 145.222C125.155 145.292 124.839 145.362 124.558 145.292C124.488 145.292 124.418 145.257 124.348 145.257L91.8188 135.14L91.3621 134.999L90.9406 135.14L58.3767 145.257C58.3065 145.257 58.2011 145.292 58.1308 145.292C58.0255 145.327 57.9552 145.327 57.8498 145.327C57.6391 145.327 57.4634 145.292 57.2526 145.222L27.5342 134.859L28.5178 131.522C28.5529 131.487 28.588 131.522 28.6232 131.522L57.5688 141.603L57.885 141.709L58.447 141.533L90.8352 131.487H90.9406C91.2216 131.381 91.5378 131.381 91.8188 131.487H91.8891L124.277 141.533L124.839 141.709L125.155 141.603L154.066 131.522C154.101 131.522 154.136 131.487 154.171 131.522L155.155 134.859Z" fill="#FFFAF8"/>
<path fill-rule="evenodd" clip-rule="evenodd" d="M91.0085 82.2051C82.2654 82.2051 75.1796 75.1193 75.1796 66.4187C75.1796 57.6756 82.2654 50.5897 91.0085 50.5897C99.7091 50.5897 106.795 57.6756 106.795 66.4187C106.795 75.1193 99.7091 82.2051 91.0085 82.2051M106.222 28.785C101.422 26.9626 96.2603 26 91.0086 26C85.7143 26 80.5954 26.9626 75.7477 28.785C57.3028 35.6801 47.6551 53.7153 51.3813 72.5725C52.9069 80.1543 56.9467 87.2332 62.8256 93.3062L82.929 113.943C87.3727 118.464 94.6018 118.464 99.0403 113.943L119.149 93.3062C125.028 87.2332 129.116 80.1543 130.593 72.5725C134.319 53.7153 124.672 35.6801 106.222 28.785" fill="#FFC449"/>
<path fill-rule="evenodd" clip-rule="evenodd" d="M67.6295 103.226C66.2279 103.226 65.0862 104.364 65.0862 105.769C65.0862 107.171 66.2279 108.309 67.6295 108.309C69.0311 108.309 70.1728 107.171 70.1728 105.769C70.1728 104.364 69.0311 103.226 67.6295 103.226M67.6295 109.187C65.7431 109.187 64.208 107.656 64.208 105.769C64.208 103.883 65.7431 102.348 67.6295 102.348C69.5159 102.348 71.051 103.883 71.051 105.769C71.051 107.656 69.5159 109.187 67.6295 109.187" fill="#E36838"/>
<path fill-rule="evenodd" clip-rule="evenodd" d="M132.733 131.854C132.621 131.854 132.508 131.811 132.42 131.727C132.252 131.555 132.252 131.274 132.42 131.102L138.213 125.313C138.382 125.141 138.663 125.141 138.835 125.313C139.003 125.485 139.003 125.766 138.835 125.934L133.046 131.727C132.958 131.811 132.845 131.854 132.733 131.854" fill="#E36838"/>
<path fill-rule="evenodd" clip-rule="evenodd" d="M138.524 131.854C138.411 131.854 138.299 131.811 138.211 131.727L132.422 125.934C132.253 125.766 132.253 125.485 132.422 125.313C132.594 125.141 132.875 125.141 133.044 125.313L138.836 131.102C139.005 131.274 139.005 131.555 138.836 131.727C138.748 131.811 138.636 131.854 138.524 131.854" fill="#E36838"/>
</g>
</svg>
