<svg width="30" height="34" viewBox="0 0 30 34" fill="none" xmlns="http://www.w3.org/2000/svg">
<path d="M9.3091 5.03963C10.6881 5.30042 12.0173 4.39335 12.2776 3.01397C12.5377 1.63453 11.6319 0.305243 10.2529 0.0445271C8.87296 -0.215704 7.54257 0.691294 7.28234 2.07081C7.02114 3.45074 7.9291 4.77891 9.3091 5.03963Z" fill="black"/>
<path d="M29.9074 31.4084L28.5037 26.3721L28.6305 22.1576C28.6402 21.8328 28.6147 21.508 28.5544 21.1889L27.0514 13.2309C26.9433 12.6603 26.614 12.1561 26.1346 11.8289C25.6552 11.5018 25.0645 11.3786 24.4944 11.486L23.5766 11.6599C22.9859 11.7711 22.4967 12.1107 22.1804 12.5696C22.5087 12.5194 22.9234 12.4487 23.2299 12.4243L19.2704 13.8093L14.7254 13.1603C14.1834 13.083 13.6996 13.4264 13.5485 13.9329C12.4687 12.9513 13.2569 13.6683 10.6492 11.2981L8.73796 7.73478C8.8978 7.88866 9.52198 8.6645 9.67309 8.84914L9.74106 8.48796C9.96561 7.30016 9.18388 6.15558 7.99607 5.93159L7.07826 5.75776C5.89261 5.53425 4.74699 6.31224 4.52127 7.50274L3.04482 15.3195C2.96723 15.7305 2.96251 16.152 3.03111 16.5646L3.66935 20.4085L1.70307 25.5656C1.44713 26.2389 1.78406 26.9925 2.45792 27.2495C3.12408 27.5049 3.88219 27.1739 4.14131 26.4952L6.23182 21.011C6.31281 20.7966 6.33658 20.5644 6.3009 20.3383L6.04177 18.7358L7.8494 20.8775L7.78676 26.0147C7.7781 26.735 8.35468 27.3262 9.07503 27.3348C9.08044 27.3348 9.0857 27.3348 9.09111 27.3348C9.80487 27.3348 10.3869 26.7614 10.3955 26.0461L10.4635 20.4236C10.4668 20.1104 10.3577 19.8059 10.1558 19.5668L8.10748 17.1394L8.76284 13.6674L8.47891 13.4093C8.2888 13.2365 8.15279 13.1387 8.07512 12.8915C7.98873 12.6107 6.8851 9.06302 6.83002 8.77577L8.82235 12.4908C8.8784 12.5961 8.95295 12.6836 9.03492 12.7619C9.04032 12.7678 9.04254 12.7753 9.04898 12.7814L12.3445 15.7762C12.7905 16.1817 13.4761 16.1439 13.88 15.7027C14.0117 15.558 14.0797 15.3847 14.1197 15.2065C14.2147 15.2509 14.3097 15.2967 14.4188 15.3123L19.226 15.9991C19.386 16.0229 19.5662 16.0088 19.7379 15.9494L23.9556 14.4739C23.744 14.6181 22.3154 15.4301 22.0855 15.5624L23.2127 21.5288L20.8383 22.5244C20.4333 22.6939 20.1418 23.0551 20.0608 23.486L19.1409 28.3693C19.007 29.0772 19.4735 29.7591 20.1807 29.8924C20.2627 29.908 20.3438 29.9157 20.4236 29.9157C21.0392 29.9157 21.5866 29.4783 21.7042 28.8521L22.4947 24.6587L25.9598 23.2052L25.8907 26.5099C25.8885 26.6373 25.9048 26.7648 25.9383 26.8879L27.3939 32.1093C27.5548 32.6858 28.0795 33.0637 28.6497 33.0637C28.7663 33.0637 28.884 33.0481 29.0006 33.0151C29.6947 32.8218 30.1007 32.1027 29.9074 31.4084Z" fill="black"/>
<path d="M23.7546 10.4316C25.1346 10.1708 26.0427 8.84265 25.7813 7.46265C25.5212 6.08321 24.1909 5.17614 22.8108 5.43637C21.432 5.69716 20.526 7.02637 20.7863 8.40582C21.0465 9.78533 22.3757 10.6923 23.7546 10.4316Z" fill="black"/>
<path d="M23.7947 30.3458H17.4508V28.2634C17.4508 27.9125 17.1658 27.6279 16.8148 27.6279H0.0595703V30.3458V31.4515V33.0636H24.4307V30.9812C24.4307 30.6304 24.1456 30.3458 23.7947 30.3458Z" fill="black"/>
</svg>
