<?xml version="1.0" encoding="UTF-8"?>
<svg xmlns="http://www.w3.org/2000/svg" xmlns:xlink="http://www.w3.org/1999/xlink" width="21" height="20" viewBox="0 0 21 20">
<defs>
<clipPath id="clip-0">
<path clip-rule="nonzero" d="M 11 4 L 18 4 L 18 10 L 11 10 Z M 11 4 "/>
</clipPath>
<clipPath id="clip-1">
<path clip-rule="nonzero" d="M 14.5 4 C 12.84375 4 11.5 5.34375 11.5 7 C 11.5 8.65625 12.84375 10 14.5 10 C 16.15625 10 17.5 8.65625 17.5 7 C 17.5 5.34375 16.15625 4 14.5 4 Z M 14.5 6 C 15.050781 6 15.5 6.449219 15.5 7 C 15.5 7.550781 15.050781 8 14.5 8 C 13.949219 8 13.5 7.550781 13.5 7 C 13.5 6.449219 13.949219 6 14.5 6 Z M 14.5 6 "/>
</clipPath>
<clipPath id="clip-2">
<path clip-rule="nonzero" d="M 8 11 L 21 11 L 21 19 L 8 19 Z M 8 11 "/>
</clipPath>
<clipPath id="clip-3">
<path clip-rule="nonzero" d="M 14.5 11 C 17.011719 11 19.238281 12.613281 20.269531 15.050781 C 21.015625 16.816406 19.867188 18.875 18.035156 18.996094 L 17.867188 19 L 11.132812 19 C 9.203125 19 7.964844 16.871094 8.730469 15.050781 L 8.835938 14.816406 L 8.949219 14.582031 L 10.730469 15.488281 C 10.675781 15.601562 10.621094 15.714844 10.574219 15.828125 C 10.355469 16.347656 10.65625 16.921875 11.050781 16.992188 L 11.132812 17 L 17.867188 17 C 18.300781 17 18.660156 16.382812 18.425781 15.828125 C 17.699219 14.101562 16.175781 13 14.5 13 C 13.738281 13 13.003906 13.226562 12.355469 13.648438 L 12.140625 13.796875 L 10.949219 12.1875 C 11.988281 11.417969 13.214844 11 14.5 11 Z M 14.5 11 "/>
</clipPath>
<clipPath id="clip-4">
<path clip-rule="nonzero" d="M 3 1 L 10 1 L 10 7 L 3 7 Z M 3 1 "/>
</clipPath>
<clipPath id="clip-5">
<path clip-rule="nonzero" d="M 6.5 1 C 4.84375 1 3.5 2.34375 3.5 4 C 3.5 5.65625 4.84375 7 6.5 7 C 8.15625 7 9.5 5.65625 9.5 4 C 9.5 2.34375 8.15625 1 6.5 1 Z M 6.5 3 C 7.050781 3 7.5 3.449219 7.5 4 C 7.5 4.550781 7.050781 5 6.5 5 C 5.949219 5 5.5 4.550781 5.5 4 C 5.5 3.449219 5.949219 3 6.5 3 Z M 6.5 3 "/>
</clipPath>
<clipPath id="clip-6">
<path clip-rule="nonzero" d="M 0 8 L 13 8 L 13 16 L 0 16 Z M 0 8 "/>
</clipPath>
<clipPath id="clip-7">
<path clip-rule="nonzero" d="M 6.5 8 C 3.984375 8 1.761719 9.613281 0.730469 12.050781 C -0.0351562 13.871094 1.203125 16 3.132812 16 L 9.867188 16 C 11.796875 16 13.035156 13.871094 12.269531 12.050781 C 11.238281 9.613281 9.011719 8 6.5 8 Z M 6.5 10 C 8.175781 10 9.699219 11.101562 10.425781 12.828125 C 10.660156 13.382812 10.300781 14 9.867188 14 L 3.132812 14 C 2.699219 14 2.339844 13.382812 2.574219 12.828125 C 3.300781 11.101562 4.824219 10 6.5 10 Z M 6.5 10 "/>
</clipPath>
</defs>
<g clip-path="url(#clip-0)">
<g clip-path="url(#clip-1)">
<path fill-rule="nonzero" fill="rgb(100%, 59.2%, 22.3%)" fill-opacity="1" d="M 10.5 3 L 18.5 3 L 18.5 11 L 10.5 11 Z M 10.5 3 "/>
</g>
</g>
<g clip-path="url(#clip-2)">
<g clip-path="url(#clip-3)">
<path fill-rule="nonzero" fill="rgb(100%, 59.2%, 22.3%)" fill-opacity="1" d="M 6.964844 10 L 22 10 L 22 20 L 6.964844 20 Z M 6.964844 10 "/>
</g>
</g>
<g clip-path="url(#clip-4)">
<g clip-path="url(#clip-5)">
<path fill-rule="nonzero" fill="rgb(100%, 59.2%, 22.3%)" fill-opacity="1" d="M 2.5 0 L 10.5 0 L 10.5 8 L 2.5 8 Z M 2.5 0 "/>
</g>
</g>
<g clip-path="url(#clip-6)">
<g clip-path="url(#clip-7)">
<path fill-rule="nonzero" fill="rgb(100%, 59.2%, 22.3%)" fill-opacity="1" d="M -1 7 L 14.035156 7 L 14.035156 17 L -1 17 Z M -1 7 "/>
</g>
</g>
</svg>
