<?xml version="1.0" encoding="UTF-8"?>
<svg xmlns="http://www.w3.org/2000/svg" xmlns:xlink="http://www.w3.org/1999/xlink" width="23.808411" height="23.764404" viewBox="0 0 23.808411 23.764404">
<defs>
<filter id="filter-remove-color" x="0%" y="0%" width="100%" height="100%">
<feColorMatrix color-interpolation-filters="sRGB" values="0 0 0 0 1 0 0 0 0 1 0 0 0 0 1 0 0 0 1 0" />
</filter>
<clipPath id="clip-0">
<rect x="0" y="0" width="24" height="24"/>
</clipPath>
<g id="source-7" clip-path="url(#clip-0)">
<path fill-rule="evenodd" fill="rgb(0%, 0%, 0%)" fill-opacity="1" d="M 1.488281 1.484375 L 22.320312 1.484375 L 22.320312 22.277344 L 1.488281 22.277344 Z M 1.488281 1.484375 "/>
</g>
<mask id="mask-0">
<g filter="url(#filter-remove-color)">
<use xlink:href="#source-7"/>
</g>
</mask>
<clipPath id="clip-1">
<rect x="0" y="0" width="24" height="24"/>
</clipPath>
<g id="source-6" clip-path="url(#clip-1)">
<path fill-rule="evenodd" fill="rgb(79.606628%, 79.606628%, 79.606628%)" fill-opacity="1" d="M 1.511719 11.15625 C 1.105469 17.152344 5.785156 22.152344 11.675781 22.277344 L 19.191406 22.277344 C 19.351562 22.277344 19.421875 22.082031 19.300781 21.980469 L 17.957031 20.855469 C 17.792969 20.714844 17.800781 20.457031 17.976562 20.332031 C 18.164062 20.199219 18.347656 20.058594 18.527344 19.910156 C 20.84375 18 22.320312 15.117188 22.320312 11.882812 C 22.320312 5.917969 17.289062 1.128906 11.234375 1.507812 C 6.074219 1.828125 1.863281 6.003906 1.511719 11.15625 "/>
</g>
</defs>
<g mask="url(#mask-0)">
<use xlink:href="#source-6"/>
</g>
<path fill-rule="evenodd" fill="rgb(100%, 100%, 100%)" fill-opacity="1" d="M 8.183594 12.625 C 8.183594 13.445312 7.519531 14.109375 6.695312 14.109375 C 5.875 14.109375 5.207031 13.445312 5.207031 12.625 C 5.207031 11.804688 5.875 11.140625 6.695312 11.140625 C 7.519531 11.140625 8.183594 11.804688 8.183594 12.625 "/>
<path fill-rule="evenodd" fill="rgb(100%, 100%, 100%)" fill-opacity="1" d="M 13.390625 12.625 C 13.390625 13.445312 12.726562 14.109375 11.902344 14.109375 C 11.082031 14.109375 10.417969 13.445312 10.417969 12.625 C 10.417969 11.804688 11.082031 11.140625 11.902344 11.140625 C 12.726562 11.140625 13.390625 11.804688 13.390625 12.625 "/>
<path fill-rule="evenodd" fill="rgb(100%, 100%, 100%)" fill-opacity="1" d="M 18.601562 12.625 C 18.601562 13.445312 17.933594 14.109375 17.113281 14.109375 C 16.289062 14.109375 15.625 13.445312 15.625 12.625 C 15.625 11.804688 16.289062 11.140625 17.113281 11.140625 C 17.933594 11.140625 18.601562 11.804688 18.601562 12.625 "/>
</svg>
