<?xml version="1.0" encoding="UTF-8"?>
<svg xmlns="http://www.w3.org/2000/svg" xmlns:xlink="http://www.w3.org/1999/xlink" width="20" height="20" viewBox="0 0 20 20">
<path fill-rule="evenodd" fill="rgb(59.214783%, 59.214783%, 59.214783%)" fill-opacity="1" d="M 7 10 C 7 8.34375 5.65625 7 4 7 C 2.34375 7 1 8.34375 1 10 C 1 11.65625 2.34375 13 4 13 C 5.65625 13 7 11.65625 7 10 Z M 3 10 C 3 9.449219 3.449219 9 4 9 C 4.550781 9 5 9.449219 5 10 C 5 10.550781 4.550781 11 4 11 C 3.449219 11 3 10.550781 3 10 Z M 3 10 "/>
<path fill-rule="evenodd" fill="rgb(59.214783%, 59.214783%, 59.214783%)" fill-opacity="1" d="M 19 17 C 19 15.34375 17.65625 14 16 14 C 14.34375 14 13 15.34375 13 17 C 13 18.65625 14.34375 20 16 20 C 17.65625 20 19 18.65625 19 17 Z M 15 17 C 15 16.449219 15.449219 16 16 16 C 16.550781 16 17 16.449219 17 17 C 17 17.550781 16.550781 18 16 18 C 15.449219 18 15 17.550781 15 17 Z M 15 17 "/>
<path fill-rule="evenodd" fill="rgb(59.214783%, 59.214783%, 59.214783%)" fill-opacity="1" d="M 19 3 C 19 1.34375 17.65625 0 16 0 C 14.34375 0 13 1.34375 13 3 C 13 4.65625 14.34375 6 16 6 C 17.65625 6 19 4.65625 19 3 Z M 15 3 C 15 2.449219 15.449219 2 16 2 C 16.550781 2 17 2.449219 17 3 C 17 3.550781 16.550781 4 16 4 C 15.449219 4 15 3.550781 15 3 Z M 15 3 "/>
<path fill-rule="nonzero" fill="rgb(59.214783%, 59.214783%, 59.214783%)" fill-opacity="1" d="M 14.863281 3.496094 C 15.140625 3.972656 14.980469 4.582031 14.503906 4.863281 L 6.253906 9.695312 C 5.777344 9.972656 5.164062 9.8125 4.886719 9.335938 C 4.605469 8.859375 4.765625 8.246094 5.242188 7.96875 L 13.496094 3.136719 C 13.972656 2.859375 14.582031 3.019531 14.863281 3.496094 Z M 14.863281 3.496094 "/>
<path fill-rule="nonzero" fill="rgb(59.214783%, 59.214783%, 59.214783%)" fill-opacity="1" d="M 4.890625 10.484375 C 5.152344 10.042969 5.703125 9.878906 6.160156 10.085938 L 6.261719 10.140625 L 14.515625 15.085938 C 14.988281 15.367188 15.140625 15.984375 14.859375 16.457031 C 14.59375 16.894531 14.046875 17.058594 13.589844 16.855469 L 13.484375 16.800781 L 5.234375 11.855469 C 4.761719 11.574219 4.605469 10.957031 4.890625 10.484375 Z M 4.890625 10.484375 "/>
</svg>
