<svg width="56" height="56" viewBox="0 0 56 56" fill="none" xmlns="http://www.w3.org/2000/svg">
<g clip-path="url(#clip0_256_1663)">
<path d="M12 13C20.5528 13 27.5032 19.944 27.5032 28.5032H13.8187C12.8139 28.5032 12 27.6892 12 26.6845V13Z" fill="#F3C8B3"/>
<path d="M27.5032 28.5032H41.1813C42.1861 28.5032 43 29.3171 43 30.3219V44C34.4472 44 27.4968 37.056 27.4968 28.4968L27.5032 28.5032Z" fill="#F55F24"/>
<path d="M25.2012 36.2516C25.2012 33.2401 22.7599 30.7988 19.7484 30.7988C16.7369 30.7988 14.2956 33.2401 14.2956 36.2516C14.2956 39.2632 16.7369 41.7045 19.7484 41.7045C22.7599 41.7045 25.2012 39.2632 25.2012 36.2516Z" fill="white"/>
<path d="M40.7044 20.7485C40.7044 17.737 38.2631 15.2957 35.2516 15.2957C32.2401 15.2957 29.7988 17.737 29.7988 20.7485C29.7988 23.76 32.2401 26.2013 35.2516 26.2013C38.2631 26.2013 40.7044 23.76 40.7044 20.7485Z" stroke="#653825" stroke-width="0.66" stroke-miterlimit="10" stroke-linecap="round"/>
</g>
<defs>
<clipPath id="clip0_256_1663">
<rect width="31" height="31" fill="white" transform="translate(12 13)"/>
</clipPath>
</defs>
</svg>
