<?xml version="1.0" encoding="UTF-8"?><svg id="Calque_2" xmlns="http://www.w3.org/2000/svg" xmlns:xlink="http://www.w3.org/1999/xlink" viewBox="0 0 700 700"><defs><style>.cls-1{fill:#d48d72;}.cls-1,.cls-2,.cls-3,.cls-4,.cls-5,.cls-6,.cls-7,.cls-8,.cls-9,.cls-10,.cls-11,.cls-12,.cls-13,.cls-14,.cls-15,.cls-16,.cls-17,.cls-18,.cls-19{stroke-width:0px;}.cls-20,.cls-21,.cls-22,.cls-4,.cls-23,.cls-24,.cls-25,.cls-26,.cls-27,.cls-28,.cls-29,.cls-30,.cls-31,.cls-32,.cls-33,.cls-34,.cls-35,.cls-36,.cls-37,.cls-38,.cls-39{fill:none;}.cls-20,.cls-21,.cls-22,.cls-23,.cls-24,.cls-25,.cls-26,.cls-27,.cls-28,.cls-29,.cls-30,.cls-31,.cls-32,.cls-33,.cls-34,.cls-35,.cls-36,.cls-37,.cls-38,.cls-39{stroke-linecap:round;}.cls-20,.cls-22,.cls-23,.cls-24,.cls-25,.cls-26,.cls-27,.cls-28,.cls-30,.cls-32,.cls-33,.cls-34,.cls-35,.cls-37,.cls-39{stroke-miterlimit:10;}.cls-20,.cls-23,.cls-39{stroke:#b36248;}.cls-20,.cls-27,.cls-31{stroke-width:3.33px;}.cls-2{fill:#ffd8b5;}.cls-21{stroke:#ef6c00;}.cls-21,.cls-23,.cls-24,.cls-30,.cls-34,.cls-38{stroke-width:2.67px;}.cls-21,.cls-29,.cls-31,.cls-36,.cls-38{stroke-linejoin:round;}.cls-3{fill:#a85b45;}.cls-22{stroke-width:3.62px;}.cls-22,.cls-30{stroke:#653825;}.cls-40{clip-path:url(#clippath);}.cls-5{fill:#f6b898;}.cls-6{fill:#b07764;}.cls-24,.cls-27,.cls-32,.cls-37{stroke:#3d1000;}.cls-7{fill:#e0e0e0;}.cls-25{stroke:#2b0a00;stroke-width:2px;}.cls-26{stroke:#f0f0f0;}.cls-26,.cls-28{stroke-width:1.33px;}.cls-28{stroke:#ffc449;}.cls-8{fill:#ff9739;}.cls-41{clip-path:url(#clippath-1);}.cls-42{clip-path:url(#clippath-3);}.cls-43{clip-path:url(#clippath-2);}.cls-9{fill:#000;}.cls-29,.cls-31{stroke:#de4d14;}.cls-29,.cls-32{stroke-width:1.87px;}.cls-10{fill:#af6248;}.cls-11{fill:#3d1000;}.cls-12{fill:#d26f3a;}.cls-13{fill:#b36248;}.cls-14{fill:#653825;}.cls-33{stroke:#fff;stroke-width:4.73px;}.cls-15{fill:#f1b393;}.cls-34{stroke:#b07764;}.cls-35{stroke:#9b523e;stroke-width:2.12px;}.cls-36{stroke:#ffeadc;stroke-width:4.93px;}.cls-16{fill:#ffb688;}.cls-17{fill:#f55f24;}.cls-37{stroke-width:1.72px;}.cls-38{stroke:#e3e3e3;}.cls-18{fill:#fff;}.cls-19{fill:#ff9739;}.cls-39{stroke-width:1.79px;}</style><clipPath id="clippath"><path class="cls-4" d="M620.92,546.37c-22.32,0-40.41-18.09-40.41-40.41s18.09-40.41,40.41-40.41c7.86,0,15.19,2.25,21.4,6.14v-98.29c0-6.43-5.21-11.64-11.64-11.64h-99.65c4.17-6.36,6.6-13.95,6.6-22.12,0-22.32-18.09-40.41-40.41-40.41s-40.41,18.09-40.41,40.41c0,8.17,2.43,15.76,6.6,22.12h-98.96c-6.43,0-11.64,5.21-11.64,11.64v97.55c5.94-3.43,12.82-5.4,20.17-5.4,22.32,0,40.41,18.09,40.41,40.41s-18.09,40.41-40.41,40.41c-7.35,0-14.23-1.97-20.17-5.4v98.66c0,6.43,5.21,11.64,11.64,11.64h266.24c6.43,0,11.64-5.21,11.64-11.64v-99.4c-6.21,3.88-13.54,6.14-21.4,6.14Z"/></clipPath><clipPath id="clippath-1"><path class="cls-4" d="M659.59,175.92c-6.25,0-12.18,1.42-17.46,3.96v-96.67c0-6.43-5.21-11.64-11.64-11.64h-87.72c0-22.32-18.09-40.41-40.41-40.41s-40.41,18.09-40.41,40.41h-97.7c-6.43,0-11.64,5.21-11.64,11.64v99.81c-6.5-4.48-14.38-7.1-22.87-7.1-22.32,0-40.41,18.09-40.41,40.41s18.09,40.41,40.41,40.41c8.49,0,16.37-2.62,22.87-7.1v99.81c0,6.43,5.21,11.64,11.64,11.64h98.91c-4.02-6.28-6.36-13.74-6.36-21.74,0-22.32,18.09-40.41,40.41-40.41s40.41,18.09,40.41,40.41c0,8.01-2.34,15.46-6.36,21.74h99.22c6.43,0,11.64-5.21,11.64-11.64v-96.67c5.29,2.54,11.21,3.96,17.46,3.96,22.32,0,40.41-18.09,40.41-40.41s-18.09-40.41-40.41-40.41Z"/></clipPath><clipPath id="clippath-2"><path class="cls-4" d="M329.85,175.92c8.53,0,16.43,2.65,22.95,7.16v-99.86c0-6.43-5.21-11.64-11.64-11.64H74.92c-6.43,0-11.64,5.21-11.64,11.64v99.81c-6.5-4.48-14.38-7.1-22.87-7.1-22.32,0-40.41,18.09-40.41,40.41s18.09,40.41,40.41,40.41c8.49,0,16.37-2.62,22.87-7.1v99.81c0,6.43,5.21,11.64,11.64,11.64h99.79c-4.24-6.39-6.71-14.06-6.71-22.3,0-22.32,18.09-40.41,40.41-40.41s40.41,18.09,40.41,40.41c0,8.24-2.47,15.91-6.71,22.3h99.06c6.43,0,11.64-5.21,11.64-11.64v-99.86c-6.52,4.51-14.43,7.16-22.95,7.16-22.32,0-40.41-18.09-40.41-40.41s18.09-40.41,40.41-40.41Z"/></clipPath><clipPath id="clippath-3"><path class="cls-4" d="M372.97,465.93c-7.35,0-14.23,1.97-20.17,5.4v-98.11c0-6.43-5.21-11.64-11.64-11.64h-99.63c4.37-6.45,6.92-14.24,6.92-22.62,0-22.32-18.09-40.41-40.41-40.41s-40.41,18.09-40.41,40.41c0,8.38,2.55,16.16,6.92,22.62h-99.63c-6.43,0-11.64,5.21-11.64,11.64v98.11c-5.94-3.43-12.82-5.4-20.17-5.4-22.32,0-40.41,18.09-40.41,40.41s18.09,40.41,40.41,40.41c7.35,0,14.23-1.97,20.17-5.4v98.11c0,6.43,5.21,11.64,11.64,11.64h266.24c6.43,0,11.64-5.21,11.64-11.64v-98.11c5.94,3.43,12.82,5.4,20.17,5.4,22.32,0,40.41-18.09,40.41-40.41s-18.09-40.41-40.41-40.41Z"/></clipPath></defs><path class="cls-17" d="M620.92,546.37c-22.32,0-40.41-18.09-40.41-40.41s18.09-40.41,40.41-40.41c7.86,0,15.19,2.25,21.4,6.14v-98.29c0-6.43-5.21-11.64-11.64-11.64h-99.65c4.17-6.36,6.6-13.95,6.6-22.12,0-22.32-18.09-40.41-40.41-40.41s-40.41,18.09-40.41,40.41c0,8.17,2.43,15.76,6.6,22.12h-98.96c-6.43,0-11.64,5.21-11.64,11.64v97.55c5.94-3.43,12.82-5.4,20.17-5.4,22.32,0,40.41,18.09,40.41,40.41s-18.09,40.41-40.41,40.41c-7.35,0-14.23-1.97-20.17-5.4v98.66c0,6.43,5.21,11.64,11.64,11.64h266.24c6.43,0,11.64-5.21,11.64-11.64v-99.4c-6.21,3.88-13.54,6.14-21.4,6.14Z"/><path class="cls-13" d="M534.92,416.28c18.76-12.59,36.5-1.69,41.18,17.81,4,16.67-4.66,39.17,7.51,52.69,6.63,7.36,16.56,14.86,35.57,14.16,1.79-.07,3.34,1.3,3.41,3.09,1.12,33.01-38.06,40.36-49.56,32.57-9.72-6.59-15.49-20.15-17.24-31.74-2.41-15.95,1.82-31.95-7.12-46.48-8.08-13.12-22.74-27.7-10.69-42.72"/><g class="cls-40"><polygon class="cls-5" points="415.85 618.62 414.13 718.27 449.56 731.06 455.47 699.32 456.7 663.4 450.05 623.29 415.85 618.62"/><path class="cls-8" d="M474.54,520.39c-33.26,8.1-51.64,21.03-59.07,39.63-3.47,8.68-2.28,55.26-1.36,58.88,2.8,11.06,25.82,7.52,31.4,8.55,1.17,15.45,3.57,31.95,14.02,43.39,3.58,3.92,8.03,7.14,10.71,11.73,3.34,5.72,3.43,12.71,3.37,19.33-.23,29.75-1.42,59.48-3.58,89.15-.1,1.34-.16,2.8.65,3.87.67.88,1.79,1.27,2.85,1.62,18.2,5.91,37.09,10.67,56.22,10.15,14.15-.38,28.1-3.64,42.25-3.97,16.69-.39,33.71,3.26,49.91-.79,2.09-.52,4.29-1.26,5.61-2.97,1.09-1.41,1.4-3.24,1.66-5,3.29-22.23,3.72-45.91-6.16-66.09-3.63-7.4-30.57-55.09-38.03-63.28-13.23-14.55-23.38-28.25-36.61-42.8,19.74,1.32,33.29,1.71,49.95-8.97.83-24.76-6.29-73.27-36.43-87.32-11-5.13-22.13-9.91-33.99-12.49-6.14-1.34-13.64-2.07-17.67,2.75"/><path class="cls-21" d="M450.91,656.43s-5.05-14.07-5.41-28.98l-1.08-27.4s2.46-31.9-8.61-42.85"/><path class="cls-5" d="M548.37,621.79c.65,1.67,3.56,62.28,3.56,62.28l-97.02,27.66.59,28.88,107.82-17.09s32.19,1.4,32.19-30.24l2.8-80.47s-23.95,12.7-49.95,8.97Z"/><path class="cls-21" d="M445.32,622.65s1.88-5.4-8.23-12.7"/><path class="cls-21" d="M548.37,621.79l-1.67-22.46s-6.72-38.93,10.34-51.06"/><path class="cls-21" d="M480.13,680.99s88.59,3.46,11.82,8.92"/></g><path class="cls-5" d="M473.03,503.17c1.09,21.22,1.51,17.22.74,30.61-.86,15.01,10.46,18.98,16.64,17.29,6.19-1.69,16.56-4.77,24.24-11.64,9.34-8.35,20.83-24.44,19.51-24.86-23.93-7.57-5.15-39.67.73-47.83"/><path class="cls-1" d="M473.18,505.74c10.03,0,20.52-3.39,24.55-5.49.34-.18.7.2.5.53-6.02,10.09-13.87,16.45-23.7,19.62-.06-.47-1.67-14.39-1.36-14.66Z"/><path class="cls-5" d="M542.2,416.34c-4.95-10.44-16.51-15.87-27.52-19.38-6.49-2.07-13.23-3.77-20.03-3.4s-24.46,6.19-25.52,5.72c-31.77,15.97-36.03,106.46,3.8,106.46,35.2,0,70.08-36.54,71.97-71.68.32-6.03-.12-12.26-2.7-17.71Z"/><path class="cls-13" d="M471.68,396.19c12.23-8.27,28.53-7.46,42.75-3.48,5.29,1.48,10.53,3.38,15.07,6.47,9.19,6.27,14.58,16.87,17.44,27.62,3.01,11.31,2.98,24.96-5.16,33.28-3.69,3.89-6.82,8.45-8.25,13.62-.79,2.85-1.05,5.84-1.96,8.66-.91,2.82-2.65,5.58-5.38,6.72-1.32.55-2.96.64-4.11-.22-1.17-.87-1.54-2.46-1.58-3.92-.09-2.81,1.16-8.52,5.81-11.78,11.66-11.66,6.78-18.36-11.58-16.95-3.02.23-5.38-2.84-5.84-5.83-.46-2.99-.14-3.05-.14-6.07,0-6.7-4.7-11.06-7.4-12.44-1.05-.54-2.29-.71-3.27-1.37-1.45-.98-2.07-3.03-1.39-4.65s4.05-2.15,5.77-1.79c.65-4.92-.52-7.91-4.55-10.8-5.81-4.16-12.13-7.62-18.78-10.26-1.84-.73-3.78-1.44-5.18-2.85-1.4-1.41-2.09-3.75-2.29-3.96Z"/><path class="cls-18" d="M471.54,392.84c-6.12,1.54-21.37,16-14.62,16,28.93,0,37.32,14.86,53.6,25.64,16.28,10.79,23.7,37.9,23.7,37.9,0,0,7.41-11.08,7.9-15.37,2.76-24.29-40.17-71.84-70.59-64.17Z"/><path class="cls-7" d="M449.96,404.15s-15.35-1.62-20.07,10.99c-4.06,10.87,6.53,13,6.53,13l12.12.88,4.58-10.76c1.25-2.93,3.4-5.38,6.15-6.99l6.51-3.81-15.81-3.31Z"/><path class="cls-18" d="M493.95,428.65c-17.37,0-24.95-22.22-46.11-24.22,45.33-6.7,60.93,25.46,60.93,25.46"/><path class="cls-26" d="M491.39,411.98s-13.09-11.96-37.43-8.46"/><ellipse class="cls-5" cx="523.29" cy="463.48" rx="14.1" ry="9.89" transform="translate(-174.46 505.77) rotate(-45)"/><path class="cls-39" d="M518.71,465.9c1.54-1.72,3.14-3.45,5.13-4.63s4.46-1.75,6.65-1.01"/><path class="cls-35" d="M543.61,457.95s12.85-17.31-2.16-45.14"/><path class="cls-20" d="M460.45,435.16s-9.55-3.52-14.77,2.44"/><path class="cls-20" d="M476.64,438.82s14.21-2.95,20.4,7.48"/><path class="cls-23" d="M484.2,480.06s-12.04,7.45-27.71,2.48"/><path class="cls-23" d="M474.65,487.14s-5.17,2.17-8.98,0"/><path class="cls-23" d="M467.62,445.67s1.72,5.16-4.78,9.17c0,0-4.59,2.29-4.78,9.36,0,0,.19,5.92,3.82,7.83"/><ellipse class="cls-13" cx="451.11" cy="447.83" rx="2.12" ry="3.53"/><ellipse class="cls-13" cx="481.34" cy="451.96" rx="2.12" ry="3.53"/><path class="cls-23" d="M459.14,447.55s-7.19-7.91-12.3-2.47"/><path class="cls-13" d="M448.02,445.43c-.11,1.28-1.69,1.14-2.78.67-1.08-.47-1.76-1.5-1.94-2.56,1.63.04,2.12,1.38,4.51-.18.67-.44,1.79.49,2.59.45-.51.7-1.66,1.29-2.38,1.61Z"/><path class="cls-23" d="M490.85,453.18s-6.06-7.6-13.35-5.64"/><path class="cls-13" d="M474.94,449.21c-2.07,0-2.11-2.02-2.34-3.33,2.3.86,3.29.81,5.38.25.95-.25,2.32.45,3.3.4-.62.87-2.68,2.68-6.34,2.68Z"/><path class="cls-2" d="M659.59,175.92c-6.25,0-12.18,1.42-17.46,3.96v-96.67c0-6.43-5.21-11.64-11.64-11.64h-87.72c0-22.32-18.09-40.41-40.41-40.41s-40.41,18.09-40.41,40.41h-97.7c-6.43,0-11.64,5.21-11.64,11.64v99.81c-6.5-4.48-14.38-7.1-22.87-7.1-22.32,0-40.41,18.09-40.41,40.41s18.09,40.41,40.41,40.41c8.49,0,16.37-2.62,22.87-7.1v99.81c0,6.43,5.21,11.64,11.64,11.64h98.91c-4.02-6.28-6.36-13.74-6.36-21.74,0-22.32,18.09-40.41,40.41-40.41s40.41,18.09,40.41,40.41c0,8.01-2.34,15.46-6.36,21.74h99.22c6.43,0,11.64-5.21,11.64-11.64v-96.67c5.29,2.54,11.21,3.96,17.46,3.96,22.32,0,40.41-18.09,40.41-40.41s-18.09-40.41-40.41-40.41Z"/><g class="cls-41"><path class="cls-1" d="M482.84,222.62c6.06,1.28,9.71.84,14.62-.65,4.08-1.24,8.15-2.48,12.23-3.73-.7,1.01-1.4,2.03-2.11,3.04-1.57,2.27-3.18,4.57-5.37,6.23-1.66,1.25-3.66,1.94-5.49,2.92-8.37,4.47-19.58,1.27-20.77,1.32l.56-9.67c1.45.48,5.29.31,6.34.54Z"/><path class="cls-19" d="M523.54,226.75c-23.76-3.41-55.66,7.3-69.15,11.93-13.7,4.7-42.01,22.84-47.06,29.3-14.45,18.48-32.04,169.84-32.04,192.08,4.39,6.59,49.83,34.21,57.75,34.07,8.43-.14-2.49-69.67,4.81-80.33,7.3-10.66-13.82-17.06-8.61-28.88,14.29-32.43,6.49-59.39,28.31-78.02,15.86-13.55,35.2-22.57,55.26-28.29,8.92-2.54,18.47-4.74,25.13-11.19,6.61-6.4,7.63-16.15,5.12-24.87-2.99-10.35-9.28-14.33-19.5-15.8Z"/><path class="cls-19" d="M489.88,225.86c23.76-3.41,55.66,7.3,69.15,11.93,13.7,4.7,42.01,22.84,47.06,29.3,14.45,18.48,32.04,169.84,32.04,192.08-4.39,6.59-49.83,34.21-57.75,34.07-8.43-.14,2.49-69.67-4.81-80.33-7.3-10.66,13.82-17.06,8.61-28.88-14.29-32.43-6.49-59.39-28.31-78.02-15.86-13.55-35.2-22.57-55.26-28.29-8.92-2.54-18.47-4.74-25.13-11.19-6.61-6.4-7.63-16.15-5.12-24.87,2.99-10.35,9.28-14.33,19.5-15.8Z"/><path class="cls-19" d="M605.92,344.66c2.32,10.61-15.06,26.84-20.46,60.67-2.71,16.96,6.04,52.53,4.83,65.55-52.37-1.98-84.11,7.11-136.3,2.33-6.68-.61-16.63,1.9-23.04,1.08-32.37-44.35,2.18-97.45-5.16-194.22-.37-4.89,18.8-8.13,22.09-11.77,3.88-4.29-3.78-1.3,1.88-2.45,29.97-6.07,73.16-22.11,103.68-24.07,2.64-.17,6.02,6.82,8.42,7.93,2.13.99,10.84,9.54,12.34,11.35,8.52,10.28,18.94-3.19,13.79,8.94-5.31,12.51,15.2,62.12,17.93,74.67Z"/><rect class="cls-15" x="475.94" y="201.74" width="56.03" height="43.42" transform="translate(1007.9 446.9) rotate(180)"/><path class="cls-15" d="M541.73,235.66c.89.5,1.89,1.16,1.99,2.18.06.55-.17,1.08-.42,1.57-3.93,7.84-13.53,10.76-22.2,12.11-16.17,2.52-32.97,2.31-48.62-2.48-3.66-1.12-7.31-2.53-10.26-4.97-1.08-.89-2.13-2.1-2.04-3.5.12-1.9,2.15-2.99,3.91-3.72,6.39-2.64,12.88-5.32,19.75-6.13,10.34-1.23,20.7,1.84,31.12,1.99,5.3.08,10.55-2.01,15.66-1.98,4.15.02,7.45,2.86,11.09,4.92Z"/><path class="cls-18" d="M472.3,191.48c-2.23.02-7.57,3.68-4.95,5.86,1.6,1.33,4.8,1.4,6.83,1.59,2.96.29,6,.24,8.93-.26,1.34-.23,2.62-.66,3.91-1.01,1.1-.29-1.15-3.57-.43-3.73s1.82,3.36,2.52,3.14c1.2-.38,3.29-.8,3.49-2.26.14-1.01-1.12-2.27-1.88-2.93-1.27-1.09-2.44-1.99-4.09-1.7-3.03.53-6,.98-9.05,1.4-1.25.17-3.57.42-5.29-.1Z"/><path class="cls-21" d="M433.25,328.32s-27.42,74.59-5.53,122.63"/><path class="cls-21" d="M577.79,325.84s27.42,74.59,5.53,122.63"/></g><rect class="cls-15" x="475.94" y="201.74" width="56.03" height="43.42" transform="translate(1007.9 446.9) rotate(180)"/><path class="cls-15" d="M541.73,235.66c.89.5,1.89,1.16,1.99,2.18.06.55-.17,1.08-.42,1.57-3.93,7.84-13.53,10.76-22.2,12.11-16.17,2.52-32.97,2.31-48.62-2.48-3.66-1.12-7.31-2.53-10.26-4.97-1.08-.89-2.13-2.1-2.04-3.5.12-1.9,2.15-2.99,3.91-3.72,6.39-2.64,12.88-5.32,19.75-6.13,10.34-1.23,20.7,1.84,31.12,1.99,5.3.08,10.55-2.01,15.66-1.98,4.15.02,7.45,2.86,11.09,4.92Z"/><path class="cls-1" d="M482.84,222.62c6.06,1.28,9.71.84,14.62-.65,4.08-1.24,8.15-2.48,12.23-3.73-.7,1.01-1.4,2.03-2.11,3.04-1.57,2.27-3.18,4.57-5.37,6.23-1.66,1.25-3.66,1.94-5.49,2.92-8.37,4.47-19.58,1.27-20.77,1.32v-11.41c1.45.48,5.85,2.05,6.9,2.28Z"/><path class="cls-18" d="M460.07,144.52c-2.13,3.21-.92,16.97-5.15,10.33.71-6.06-.68-7.5.7-13.45.32-1.36,2.65-5.82,4.73-7.45.35-.27,2.39-1.11,2.83-1.1,1.39.06,2.47.71,3.47,1.46-1.08,3.81-4.56,6.84-6.58,10.2Z"/><path class="cls-15" d="M455.54,157.44c-1.79,8.36-1.83,36.86.58,45.42,4.35,15.41,27.34,20.68,35.28,20.41,14.38-.48,25.67-9.32,35.29-14.84,5.82-3.34,10.61-12.52,16.52-31.71,9.97-32.39-7.19-58.51-34.86-63.41-13.22-2.34-29.38-.88-39.39,11.4-5.86,7.18-11.58,24.13-13.42,32.73Z"/><path class="cls-18" d="M532.06,139.81c-4.97,1.79-6.88,6.36-4.05,9.72l.06.07c2.18,2.6-.59,12.23.24,14.98,1.78,5.92,5.18,5.25,4.62,12.23-.15,1.84-.28,3.71-.16,5.53.09,1.33,2.56,1.55,3.21.29.67-1.29,1.31-2.6,1.65-4.29.33-1.68,1.5-3.9,3.53-3.63,1.05.14,1.71.94,2.19,1.7,1.55,2.42,1.17,3.38,1.67,6.11,6.07-10.39,8.36-20.22,5.11-31.01-.95-3.15-1.95-6.32-3.71-9.21-2.98-4.9-7.15-4.76-10.7-3.8l-3.67,1.32Z"/><path class="cls-15" d="M548.36,177.97c.72-4.65-.93-8.77-3.69-9.2-2.76-.43-5.59,2.99-6.31,7.64s-1.29,11.12,1.47,11.55c2.76.43,7.8-5.34,8.53-9.99Z"/><path class="cls-34" d="M540.11,181.42s1.95-8.82,5.96-6.93"/><path class="cls-34" d="M478.98,160.52s1.82,5.47-5.06,9.72c0,0-4.86,2.43-5.06,9.92,0,0,.2,6.27,4.05,8.3"/><path class="cls-34" d="M496.55,198.28s-12.75,7.89-29.35,2.63"/><path class="cls-34" d="M486.43,206.56s-5.48,2.3-9.51,0"/><path class="cls-34" d="M468.86,160.22s-6.07-5.16-9.72,0"/><path class="cls-34" d="M503.43,166.65s-4.66-6.78-10.93-5.57"/><ellipse class="cls-6" cx="463.39" cy="162.9" rx="1.76" ry="2.93"/><ellipse class="cls-6" cx="496.39" cy="165.84" rx="1.76" ry="2.93"/><path class="cls-33" d="M469.02,148.13s-8.7-2.43-10.93,1.82"/><path class="cls-33" d="M495.13,152.56s10.66-3.52,14.56,6.51"/><path class="cls-16" d="M329.85,175.92c8.53,0,16.43,2.65,22.95,7.16v-99.86c0-6.43-5.21-11.64-11.64-11.64H74.92c-6.43,0-11.64,5.21-11.64,11.64v99.81c-6.5-4.48-14.38-7.1-22.87-7.1-22.32,0-40.41,18.09-40.41,40.41s18.09,40.41,40.41,40.41c8.49,0,16.37-2.62,22.87-7.1v99.81c0,6.43,5.21,11.64,11.64,11.64h99.79c-4.24-6.39-6.71-14.06-6.71-22.3,0-22.32,18.09-40.41,40.41-40.41s40.41,18.09,40.41,40.41c0,8.24-2.47,15.91-6.71,22.3h99.06c6.43,0,11.64-5.21,11.64-11.64v-99.86c-6.52,4.51-14.43,7.16-22.95,7.16-22.32,0-40.41-18.09-40.41-40.41s18.09-40.41,40.41-40.41Z"/><g class="cls-43"><path class="cls-14" d="M174.93,243.27s-36.72,10.35-40.81,22.64c0,0-32.42,15.7-36.01,54.65-.58,6.33-2.65,12.43-6.02,17.82-8.06,12.93-20.94,36.78-13.01,46.38l61.91-7.03,22.41-2.34s-31.64,66.03-28.12,73.41l80.93,31.39,32.59,1.57,4.79-13.81s13.59-80.27,9.11-81.44c-4.48-1.17,1.27-13.23,1.27-13.23l8.3-68.32s4.51-23.41-11.8-30.94l-23.5-19.48-62.06-11.28Z"/><path class="cls-32" d="M153.12,266.77c31.27,10.59,50.46,2.66,50.46,2.66,0,0,4.73-2.26,6.37,4.61"/><path class="cls-32" d="M233.08,270.4s11.71,6.92,28.41,6.62"/><path class="cls-18" d="M143.96,256.07s59.82,34.43,23.52,76c0,0-17.57,18.39-26.49,12.88.88,9.16-2.55,16.58-5.12,25.32v20.35s116.48,2.18,127.62-2.13l3.28-8.99s31.28-18.15,9.62-57.96l-14.9-44.52c-.65-1.95-1.84-3.68-3.42-4.99l-21.08-17.47s29.78,45.65,7.5,50.42c0,0-30.01,7.53-56.15-27.62-11.38-15.31-33.98-26.87-33.98-26.87l-10.4,5.58Z"/><path class="cls-9" d="M135.29,448.81s104.08,40.81,118.31,19.15c0,0-2.94,30.03,6.45,52.29l-157.54,6.9s-3.14-46.91,23.85-69.58l8.93-8.77Z"/><path class="cls-29" d="M277.93,368.39s-11.3,18.13-31.18,7.71c0,0-12.11-7.71-25.37.48"/><polyline class="cls-38" points="171.28 343.02 153.78 343.02 166.41 338.45"/><path class="cls-38" d="M153.12,343.39s-4.6,3.28-11.44,1.93"/><path class="cls-37" d="M136.91,369.44s6.96-16.97,2.49-33.85c0,0,5.67-2.79,6.07-6.38"/><path class="cls-32" d="M153.12,266.77s-3.03-3.53-19.01-.85"/></g><path class="cls-14" d="M239.04,231.32c-1.14,22.25-5.31,29.91,1.41,55.18,4.05,15.23-10.97,19.9-17.45,18.13-6.49-1.77-13.24-3.47-18.1-8.12-28.9-27.64-31.23-52.52-29.96-53.23,11.29-6.33,9.65-17.03,9.48-20.7-.48-10.53-4.09-20.9-10.25-29.45"/><path class="cls-11" d="M238.88,234c-10.52,0-21.51-3.55-25.74-5.76-.36-.18-.73.21-.53.56,6.31,10.58,14.55,17.25,24.85,20.57.07-.5,1.75-15.09,1.42-15.37Z"/><path class="cls-14" d="M242.86,122.38c41.16,20.37,37.78,111.62-3.99,111.62-36.9,0-73.48-38.31-75.46-75.16-.34-6.32,10.75-10.36,13.46-16.08,5.19-10.95,6.69-19.13,18.23-22.81,6.8-2.17,13.87-3.96,21-3.57,7.13.39,25.65,6.49,26.76,6Z"/><circle class="cls-11" cx="266.3" cy="144.16" r="4.55"/><path class="cls-11" d="M242.46,129.7c-3.55-8.28-20.03-36.06-70.28,4.02,0,0-28.47,50.19-4.07,69.15,0,0-14.47,5.55-28.7,56.39l32.58-15.1c10.12-2.16,19.89-13.45,21.38-28.6l2.03-34.94c16.47.56,9.9-46.92,45.69-48.76,1.09-.06,1.81-1.17,1.38-2.17Z"/><circle class="cls-11" cx="238.09" cy="130.18" r="4.55"/><circle class="cls-11" cx="231.09" cy="132.85" r="4.55"/><circle class="cls-11" cx="224.93" cy="136" r="4.55"/><circle class="cls-11" cx="219.54" cy="139.6" r="4.55"/><circle class="cls-11" cx="214.99" cy="144.78" r="4.55"/><circle class="cls-11" cx="212.2" cy="149.33" r="4.55"/><circle class="cls-11" cx="208.99" cy="155.37" r="4.55"/><circle class="cls-11" cx="205.89" cy="161.68" r="4.55"/><circle class="cls-11" cx="204.43" cy="167.01" r="4.55"/><circle class="cls-11" cx="202.14" cy="171.69" r="4.55"/><circle class="cls-11" cx="200.85" cy="175.17" r="4.55"/><circle class="cls-11" cx="198.17" cy="177.43" r="4.55"/><ellipse class="cls-11" cx="205.32" cy="110.69" rx="4.81" ry="3.69"/><ellipse class="cls-11" cx="199.23" cy="113.1" rx="4.81" ry="3.69"/><ellipse class="cls-11" cx="193.15" cy="115.51" rx="4.81" ry="3.69"/><ellipse class="cls-11" cx="188.34" cy="118.58" rx="4.81" ry="3.69"/><ellipse class="cls-11" cx="183.53" cy="123.39" rx="4.81" ry="3.69"/><path class="cls-11" d="M184.42,128.62c-.51,2-3.03,3.3-5.64,2.92-2.61-.39-4.31-2.32-3.81-4.32.51-2,3.03-3.3,5.64-2.92,2.61.39,4.31,2.32,3.81,4.32Z"/><path class="cls-11" d="M182.43,133.02c-.51,2-3.03,3.3-5.64,2.92-2.61-.39-4.31-2.32-3.81-4.32.51-2,3.03-3.3,5.64-2.92,2.61.39,4.31,2.32,3.81,4.32Z"/><path class="cls-11" d="M179.63,137.39c-.51,2-3.03,3.3-5.64,2.92-2.61-.39-4.31-2.32-3.81-4.32.51-2,3.03-3.3,5.64-2.92,2.61.39,4.31,2.32,3.81,4.32Z"/><path class="cls-11" d="M177.8,141.79c-.51,2-3.03,3.3-5.64,2.92-2.61-.39-4.31-2.32-3.81-4.32.51-2,3.03-3.3,5.64-2.92s4.31,2.32,3.81,4.32Z"/><path class="cls-11" d="M175.02,146.16c-.51,2-3.03,3.3-5.64,2.92-2.61-.39-4.31-2.32-3.81-4.32.51-2,3.03-3.3,5.64-2.92,2.61.39,4.31,2.32,3.81,4.32Z"/><path class="cls-11" d="M172.25,149.85c-.51,2-3.03,3.3-5.64,2.92-2.61-.39-4.31-2.32-3.81-4.32.51-2,3.03-3.3,5.64-2.92,2.61.39,4.31,2.32,3.81,4.32Z"/><path class="cls-11" d="M170.21,154.55c-.51,2-3.03,3.3-5.64,2.92-2.61-.39-4.31-2.32-3.81-4.32.51-2,3.03-3.3,5.64-2.92,2.61.39,4.31,2.32,3.81,4.32Z"/><path class="cls-11" d="M168.17,158.69c-.51,2-3.03,3.3-5.64,2.92-2.61-.39-4.31-2.32-3.81-4.32.51-2,3.03-3.3,5.64-2.92,2.61.39,4.31,2.32,3.81,4.32Z"/><path class="cls-11" d="M166.95,163.49c-.51,2-3.03,3.3-5.64,2.92-2.61-.39-4.31-2.32-3.81-4.32s3.03-3.3,5.64-2.92c2.61.39,4.31,2.32,3.81,4.32Z"/><path class="cls-11" d="M165.71,168.41c-.51,2-3.03,3.3-5.64,2.92s-4.31-2.32-3.81-4.32,3.03-3.3,5.64-2.92,4.31,2.32,3.81,4.32Z"/><path class="cls-11" d="M165.4,172.72c-.51,2-3.03,3.3-5.64,2.92-2.61-.39-4.31-2.32-3.81-4.32.51-2,3.03-3.3,5.64-2.92,2.61.39,4.31,2.32,3.81,4.32Z"/><path class="cls-11" d="M165.09,178.13c-.51,2-3.03,3.3-5.64,2.92s-4.31-2.32-3.81-4.32c.51-2,3.03-3.3,5.64-2.92,2.61.39,4.31,2.32,3.81,4.32Z"/><path class="cls-11" d="M164.51,183.68c-.51,2-3.03,3.3-5.64,2.92s-4.31-2.32-3.81-4.32c.51-2,3.03-3.3,5.64-2.92,2.61.39,4.31,2.32,3.81,4.32Z"/><path class="cls-11" d="M165.4,188.38c-.51,2-3.03,3.3-5.64,2.92-2.61-.39-4.31-2.32-3.81-4.32.51-2,3.03-3.3,5.64-2.92,2.61.39,4.31,2.32,3.81,4.32Z"/><path class="cls-11" d="M166.95,193.88c-.51,2-3.03,3.3-5.64,2.92s-4.31-2.32-3.81-4.32c.51-2,3.03-3.3,5.64-2.92s4.31,2.32,3.81,4.32Z"/><path class="cls-11" d="M169.32,198.14c-.51,2-3.03,3.3-5.64,2.92-2.61-.39-4.31-2.32-3.81-4.32s3.03-3.3,5.64-2.92c2.61.39,4.31,2.32,3.81,4.32Z"/><path class="cls-11" d="M172.25,202.27c-.51,2-3.03,3.3-5.64,2.92-2.61-.39-4.31-2.32-3.81-4.32.51-2,3.03-3.3,5.64-2.92,2.61.39,4.31,2.32,3.81,4.32Z"/><path class="cls-11" d="M176.34,205.96c-.51,2-3.03,3.3-5.64,2.92-2.61-.39-4.31-2.32-3.81-4.32.51-2,3.03-3.3,5.64-2.92,2.61.39,4.31,2.32,3.81,4.32Z"/><path class="cls-11" d="M171.53,208.71c-.51,2-3.03,3.3-5.64,2.92s-4.31-2.32-3.81-4.32,3.03-3.3,5.64-2.92c2.61.39,4.31,2.32,3.81,4.32Z"/><circle class="cls-11" cx="162.72" cy="212.86" r="4.66"/><circle class="cls-11" cx="159.73" cy="217.52" r="4.66"/><circle class="cls-11" cx="156.17" cy="222.87" r="4.66"/><circle class="cls-11" cx="153.48" cy="228.41" r="4.66"/><circle class="cls-11" cx="151.52" cy="233.4" r="4.66"/><circle class="cls-11" cx="149.5" cy="238.84" r="4.66"/><circle class="cls-11" cx="146.86" cy="243.5" r="4.66"/><circle class="cls-11" cx="145.51" cy="248.39" r="4.66"/><circle class="cls-11" cx="143.76" cy="254.06" r="4.66"/><circle class="cls-11" cx="142.2" cy="258.72" r="4.66"/><circle class="cls-11" cx="212.41" cy="111.82" r="4.66"/><circle class="cls-11" cx="218.57" cy="111.82" r="4.66"/><circle class="cls-11" cx="225.53" cy="111.67" r="4.66"/><circle class="cls-11" cx="232.46" cy="111.67" r="4.66"/><circle class="cls-11" cx="239.95" cy="112.79" r="4.66"/><circle class="cls-11" cx="246.96" cy="114.74" r="4.66"/><circle class="cls-11" cx="252.19" cy="117.45" r="4.66"/><circle class="cls-11" cx="256.28" cy="120.97" r="4.66"/><circle class="cls-11" cx="260.11" cy="124.9" r="4.66"/><circle class="cls-11" cx="263.33" cy="129.56" r="4.66"/><circle class="cls-11" cx="264.76" cy="134.36" r="4.66"/><circle class="cls-11" cx="266.4" cy="139.02" r="4.66"/><ellipse class="cls-14" cx="188.16" cy="187.86" rx="10.22" ry="14.2" transform="translate(-77.72 188.07) rotate(-45)"/><path class="cls-24" d="M193.62,191.27c-1.71-1.91-3.49-3.83-5.69-5.14-2.21-1.31-4.95-1.95-7.38-1.12"/><path class="cls-11" d="M242.41,130.45c9.48.34,19.4,5.31,25.01,23.11,0,0,4.72-33.31-33.49-40.94,0,0-27.17-5.75-45.58,7.27l54.07,10.56Z"/><path class="cls-25" d="M241.37,127.48s-9.63-14.39-31.27-12.37"/><path class="cls-24" d="M257.35,173s7.53-8.29,12.9-2.59"/><path class="cls-11" d="M269.42,169.87c.1,1.18,1.59,1.21,2.59.77,1-.43,1.62-1.39,1.79-2.36-1.5.04-2.79.8-4.64.26-.71-.21-1.18.02-1.92-.01.47.65,1.51,1.04,2.18,1.34Z"/><path class="cls-24" d="M224.1,178.9s6.35-7.97,14-5.91"/><path class="cls-11" d="M241.06,174.59c1.62-.17,2.06-1.93,2.22-2.9-2.22.96-3.08,1.24-5.39.76-.73-.15-.86.73-1.6.7,2.31.29,2.01,1.74,4.77,1.45Z"/><path class="cls-24" d="M231.06,207.08s12.62,7.81,29.05,2.6"/><path class="cls-24" d="M241.08,214.5s5.42,2.28,9.42,0"/><path class="cls-24" d="M251.63,178.35s-1.8,4.32,5.01,7.69c0,0,4.81,1.92,5.01,7.85,0,0-.2,4.96-4.01,6.56"/><ellipse class="cls-11" cx="266.46" cy="173.29" rx="2.22" ry="3.7"/><ellipse class="cls-11" cx="235.2" cy="177.53" rx="2.22" ry="3.7"/><path class="cls-27" d="M256.53,164.98s4.95-6.99,12.89-4.54"/><path class="cls-27" d="M240.74,165.98s-8.89-7.82-22.51,3.56"/><path class="cls-8" d="M372.97,465.93c-7.35,0-14.23,1.97-20.17,5.4v-98.11c0-6.43-5.21-11.64-11.64-11.64h-99.63c4.37-6.45,6.92-14.24,6.92-22.62,0-22.32-18.09-40.41-40.41-40.41s-40.41,18.09-40.41,40.41c0,8.38,2.55,16.16,6.92,22.62h-99.63c-6.43,0-11.64,5.21-11.64,11.64v98.11c-5.94-3.43-12.82-5.4-20.17-5.4-22.32,0-40.41,18.09-40.41,40.41s18.09,40.41,40.41,40.41c7.35,0,14.23-1.97,20.17-5.4v98.11c0,6.43,5.21,11.64,11.64,11.64h266.24c6.43,0,11.64-5.21,11.64-11.64v-98.11c5.94,3.43,12.82,5.4,20.17,5.4,22.32,0,40.41-18.09,40.41-40.41s-18.09-40.41-40.41-40.41Z"/><g class="cls-42"><path class="cls-17" d="M118.96,844.5l166.52-9.2c-3.12.02-.78-181.42-.2-189.62,2.4-33.7-15.55-76.75-31.97-86.42-19.36-11.41-65.23-18.27-87.17-6.93-3.05,1.57-18.44,10.99-30.48,23.04-11.58,11.6-13.21,67.71-10.83,80.37,4.14,22-5.87,188.76-5.87,188.76Z"/><path class="cls-17" d="M166.15,552.32c-19.12,12.65-42.93,16.1-59.02,32.42-5.83,5.92-46.7,115.32-46.7,115.32,0,0-10.1,22.48-3.93,37.9,5.36,11.31,14.07,18.99,28.58,18.11,35.34-2.12,70.68-4.25,106.01-6.37,2.33-11.87,1.75-12.53,2.85-24.58.17-1.88.01-8.19-1.02-9.77-1.11-1.69-2.94,1.9-4.9,1.45-21.3-4.94-40.91-8.6-62.6-5.81l25.41-101.38,15.32-57.29Z"/><line class="cls-31" x1="130.37" y1="690.84" x2="150.52" y2="635.93"/></g><path class="cls-12" d="M225.7,552.32c-19.06,9.05-38.88,9.43-59.56,0,0,0,14.9-19.68,4.05-45.86l-2.59-5.79,58.1,16.49v35.16Z"/><path class="cls-14" d="M207.1,532.54c.73,1.05,7.26,15.73,18.6,13.62v-12.53c-7.34,1.1-15.54.92-18.6-1.09Z"/><path class="cls-3" d="M246.79,449.03c2.21,3.34,3.9,7,5.35,10.73-.73-6.3-1.82-12.55-3.26-18.72-.33-1.41-.95-3.09-2.39-3.31-.45-.07-.91.03-1.36.13-1.24.27-2.5.51-3.7.89,1.13,3.96,3.25,6.79,5.35,10.29Z"/><path class="cls-12" d="M239.96,437.28s20.17,12.98,19.54,53.49c0,0,6.09,43.99-43.48,43.36,0,0-63.33-21.34-58.9-69.03,0,0,26.27-71.49,82.84-27.81Z"/><path class="cls-10" d="M186.15,435.91c7.14,1.84,9.52,7.21,5.06,11.43l9.11-4.54c-8.64,6.8-7.05,17.24-8.52,20.59-3.15,7.22-10.47,8.7-10.28,17.05.05,2.2.08,4.44-.27,6.64-.25,1.6-3.89,2.02-4.73.55s-1.69-3.05-2.03-5.05c-.34-2-1.84-4.59-4.86-4.14-1.56.23-2.59,1.24-3.37,2.18-2.49,3-2.03,4.13-3.01,7.45-7.97-12.11-10.44-23.78-4.69-36.96,1.68-3.85,3.44-7.72,6.28-11.3,4.82-6.07,10.93-6.17,16.05-5.24l5.26,1.35Z"/><path class="cls-12" d="M153.81,487.96c-2.76-5.26-.74-11.76,4.51-14.51,5.25-2.75,11.74-.71,14.5,4.55,2.76,5.26,5.73,12.94.48,15.69-5.25,2.75-16.74-.47-19.5-5.73Z"/><path class="cls-30" d="M158.01,481.29s8.23-5.03,9.59,8.66"/><path class="cls-14" d="M175.84,417.07c6.12-2.84,13.03-3.65,19.89-3.3,1.08.05,2.17.13,3.21-.09,2.52-.54,4.34-2.78,5.66-5.15,1.32-2.37,2.34-5.01,4.05-7.02,2.91-3.42,7.39-4.56,11.64-5.57,2.48-.59,5.04-1.17,7.61-.59,2.57.58,5.17,2.66,5.75,5.5,2.56-2.07,6.39-.62,9.43,1.14,2.07,1.2,4.15,2.57,5.69,4.55s2.47,4.71,1.88,7.07c2.88.01,5.65,2.22,7.33,4.98,1.68,2.76,2.46,6.01,3.06,9.19,1.5-1.12,3.76.41,4.7,2.3,1.46,2.92,1.04,6.55-.58,9.05-1.62,2.5-4.26,3.98-7.04,4.66-2.62.64-5.42.63-8.14-.04-2.85-.7-5.57-2.09-8.36-3.1-10.2-3.68-20.95-2.12-30.8.89-9.85,3.01-19.26,7.44-29.37,9.51-3.91.8-7.26.6-10.99-1.67-2.54-1.54-6.16-3.17-8.17-5.6-4.97-6.01.36-15.43,3.98-19.59,2.67-3.07,5.96-5.46,9.55-7.12Z"/><path class="cls-28" d="M162.4,491.35c1.36.22,2.28,1.5,2.06,2.85-.22,1.36-1.5,2.28-2.85,2.06s-2.28-1.5-2.06-2.85"/><path class="cls-30" d="M225.16,510.87s5.69,2.39,9.89,0"/><path class="cls-30" d="M214.64,503.08s13.25,8.2,30.5,2.73"/><path class="cls-30" d="M232.89,465.23s-1.89,5.68,5.26,10.1c0,0,5.05,2.52,5.26,10.31,0,0-.21,6.52-4.21,8.62"/><path class="cls-30" d="M242.23,467.29s7.91-8.71,13.54-2.72"/><path class="cls-30" d="M207.32,473.16s6.67-8.36,14.69-6.2"/><path class="cls-22" d="M243.25,453.66s9.04-2.52,11.36,1.89"/><path class="cls-22" d="M218.78,457.68s-14.12-1.05-16.31,7.99"/><ellipse class="cls-14" cx="251.41" cy="467.29" rx="1.83" ry="3.05"/><ellipse class="cls-14" cx="217.79" cy="472.15" rx="1.83" ry="3.05"/><path class="cls-18" d="M395.1,139.03l-60.5.16c-4.96.01-9.86,1.18-14.29,3.39l-16.74,8.36c-2.9,1.45-6.31-.66-6.31-3.91v-51.18c0-23.75,19.44-43.18,43.18-43.18h54.66c23.75,0,43.18,19.44,43.18,43.18h0c0,23.75-19.44,43.18-43.18,43.18h0Z"/><line class="cls-36" x1="329.22" y1="82.84" x2="406.31" y2="82.84"/><line class="cls-36" x1="329.22" y1="94.35" x2="406.31" y2="94.35"/><line class="cls-36" x1="329.22" y1="105.74" x2="386.67" y2="105.74"/><path class="cls-18" d="M325.47,472.37c-23.74,0-43.18-19.42-43.18-43.18h0c0-23.74,19.42-43.18,43.18-43.18h54.66c23.74,0,43.18,19.42,43.18,43.18v51.18c0,3.25-3.41,5.36-6.31,3.91l-16.74-8.36c-4.44-2.22-9.33-3.38-14.29-3.39l-60.5-.16h0Z"/><line class="cls-36" x1="391.35" y1="416.17" x2="314.26" y2="416.17"/><line class="cls-36" x1="391.35" y1="427.68" x2="314.26" y2="427.68"/><line class="cls-36" x1="391.35" y1="439.07" x2="333.9" y2="439.07"/></svg>