<?xml version="1.0" encoding="UTF-8"?>
<svg xmlns="http://www.w3.org/2000/svg" xmlns:xlink="http://www.w3.org/1999/xlink" width="20" height="19" viewBox="0 0 20 19">
<defs>
<clipPath id="clip-0">
<path clip-rule="evenodd" d="M -1 -72 L 297 -72 C 308.046875 -72 317 -63.046875 317 -52 L 317 24 C 317 35.046875 308.046875 44 297 44 L -1 44 C -12.046875 44 -21 35.046875 -21 24 L -21 -52 C -21 -63.046875 -12.046875 -72 -1 -72 Z M -1 -72 "/>
</clipPath>
<clipPath id="clip-1">
<path clip-rule="evenodd" d="M 2.136719 2.261719 L 2.050781 2.347656 C 1.960938 2.4375 1.871094 2.539062 1.773438 2.65625 L 1.660156 2.792969 C -0.136719 5.085938 -0.730469 8.207031 1.175781 11.863281 C 2.722656 14.828125 5.121094 16.820312 7.839844 18.039062 C 9.214844 18.652344 10.785156 18.652344 12.160156 18.039062 C 14.878906 16.820312 17.277344 14.828125 18.824219 11.863281 C 20.730469 8.207031 20.136719 5.085938 18.347656 2.804688 L 18.152344 2.570312 L 18.007812 2.40625 C 17.984375 2.382812 17.964844 2.363281 17.945312 2.34375 L 17.867188 2.265625 C 17.652344 2.054688 17.355469 1.8125 16.984375 1.566406 C 16.425781 1.195312 15.800781 0.898438 15.125 0.710938 L 14.894531 0.652344 C 13.300781 0.277344 11.652344 0.582031 10.054688 1.714844 L 10 1.757812 L 9.945312 1.714844 C 8.273438 0.527344 6.539062 0.25 4.875 0.710938 C 4.195312 0.898438 3.574219 1.195312 3.015625 1.566406 C 2.644531 1.8125 2.347656 2.054688 2.136719 2.261719 Z M 2.136719 2.261719 "/>
</clipPath>
</defs>
<g clip-path="url(#clip-0)">
<g clip-path="url(#clip-1)">
<rect x="-2" y="-1.9" width="24" height="22.8" fill="rgb(96.078491%, 37.254333%, 14.117432%)" fill-opacity="1"/>
</g>
</g>
</svg>
