<?xml version="1.0" encoding="UTF-8"?>
<svg xmlns="http://www.w3.org/2000/svg" xmlns:xlink="http://www.w3.org/1999/xlink" width="50" height="50" viewBox="0 0 50 50">
<path fill-rule="evenodd" fill="rgb(88.235474%, 88.235474%, 88.235474%)" fill-opacity="1" d="M 25 0.5 C 38.523438 0.5 49.5 11.476562 49.5 25 C 49.5 38.523438 38.523438 49.5 25 49.5 C 11.476562 49.5 0.5 38.523438 0.5 25 C 0.5 11.476562 11.476562 0.5 25 0.5 Z M 25 0.5 "/>
<path fill-rule="evenodd" fill="rgb(100%, 100%, 100%)" fill-opacity="1" d="M 25 0.988281 C 38.25 0.988281 49.011719 11.75 49.011719 25 C 49.011719 38.25 38.25 49.011719 25 49.011719 C 11.75 49.011719 0.988281 38.25 0.988281 25 C 0.988281 11.75 11.75 0.988281 25 0.988281 Z M 25 0.988281 "/>
<path fill-rule="nonzero" fill="rgb(100%, 59.2%, 22.3%)" fill-opacity="1" d="M 31 29.25 L 31 24.25 C 31 21.179688 29.359375 18.609375 26.5 17.929688 L 26.5 17.25 C 26.5 16.421875 25.828125 15.75 25 15.75 C 24.171875 15.75 23.5 16.421875 23.5 17.25 L 23.5 17.929688 C 20.628906 18.609375 19 21.171875 19 24.25 L 19 29.25 L 17 31.25 L 17 32.25 L 33 32.25 L 33 31.25 Z M 25 35.25 C 26.101562 35.25 27 34.351562 27 33.25 L 23 33.25 C 23 34.351562 23.890625 35.25 25 35.25 Z M 25 35.25 "/>
</svg>
