<?xml version="1.0" encoding="UTF-8"?>
<svg xmlns="http://www.w3.org/2000/svg" xmlns:xlink="http://www.w3.org/1999/xlink" width="251" height="94" viewBox="0 0 251 94">
<defs>
<clipPath id="clip-0">
<path clip-rule="nonzero" d="M 12.136719 42.046875 L 69.410156 42.046875 L 69.410156 92.300781 L 12.136719 92.300781 Z M 12.136719 42.046875 "/>
</clipPath>
<clipPath id="clip-1">
<path clip-rule="nonzero" d="M 1 42 L 70 42 L 70 60 L 1 60 Z M 1 42 "/>
</clipPath>
<clipPath id="clip-2">
<path clip-rule="evenodd" d="M 1.253906 59.355469 L 58.527344 59.355469 L 69.410156 42.046875 L 12.136719 42.046875 Z M 1.253906 59.355469 "/>
</clipPath>
<clipPath id="clip-3">
<path clip-rule="nonzero" d="M 69.410156 42.046875 L 90.410156 42.046875 L 90.410156 92.300781 L 69.410156 92.300781 Z M 69.410156 42.046875 "/>
</clipPath>
<clipPath id="clip-4">
<path clip-rule="nonzero" d="M 157.421875 42.046875 L 214.695312 42.046875 L 214.695312 92.300781 L 157.421875 92.300781 Z M 157.421875 42.046875 "/>
</clipPath>
<clipPath id="clip-5">
<path clip-rule="nonzero" d="M 214.695312 42.046875 L 243.511719 42.046875 L 243.511719 92.300781 L 214.695312 92.300781 Z M 214.695312 42.046875 "/>
</clipPath>
<clipPath id="clip-6">
<path clip-rule="nonzero" d="M 69 42 L 138 42 L 138 60 L 69 60 Z M 69 42 "/>
</clipPath>
<clipPath id="clip-7">
<path clip-rule="evenodd" d="M 137.5625 59.355469 L 80.289062 59.355469 L 69.410156 42.046875 L 126.679688 42.046875 Z M 137.5625 59.355469 "/>
</clipPath>
<clipPath id="clip-8">
<path clip-rule="nonzero" d="M 88.796875 19.789062 L 190.441406 19.789062 L 190.441406 92.300781 L 88.796875 92.300781 Z M 88.796875 19.789062 "/>
</clipPath>
<clipPath id="clip-9">
<path clip-rule="nonzero" d="M 148.410156 19.789062 L 190.441406 19.789062 L 190.441406 92.300781 L 148.410156 92.300781 Z M 148.410156 19.789062 "/>
</clipPath>
<clipPath id="clip-10">
<path clip-rule="nonzero" d="M 78 1 L 149 1 L 149 20 L 78 20 Z M 78 1 "/>
</clipPath>
<clipPath id="clip-11">
<path clip-rule="evenodd" d="M 78.214844 1 L 137.828125 1 L 148.410156 19.789062 L 88.796875 19.789062 Z M 78.214844 1 "/>
</clipPath>
<clipPath id="clip-12">
<path clip-rule="nonzero" d="M 190 19 L 201 19 L 201 37 L 190 37 Z M 190 19 "/>
</clipPath>
<clipPath id="clip-13">
<path clip-rule="evenodd" d="M 190.441406 19.792969 L 200.464844 36.335938 L 190.441406 36.335938 Z M 190.441406 19.792969 "/>
</clipPath>
<clipPath id="clip-14">
<path clip-rule="nonzero" d="M 214 42 L 250 42 L 250 54 L 214 54 Z M 214 42 "/>
</clipPath>
<clipPath id="clip-15">
<path clip-rule="evenodd" d="M 249.808594 53.257812 L 220.992188 53.257812 L 214.695312 42.046875 L 243.511719 42.046875 Z M 249.808594 53.257812 "/>
</clipPath>
<clipPath id="clip-16">
<path clip-rule="nonzero" d="M 106 40 L 133 40 L 133 67 L 106 67 Z M 106 40 "/>
</clipPath>
<clipPath id="clip-17">
<path clip-rule="evenodd" d="M 128.382812 62.097656 L 117.09375 65.78125 C 114.3125 66.691406 111.320312 65.171875 110.410156 62.386719 L 106.726562 51.101562 C 105.816406 48.316406 107.335938 45.324219 110.121094 44.417969 L 121.410156 40.730469 C 124.191406 39.824219 127.183594 41.34375 128.09375 44.125 L 131.777344 55.414062 C 132.6875 58.199219 131.164062 61.191406 128.382812 62.097656 "/>
</clipPath>
<clipPath id="clip-18">
<path clip-rule="nonzero" d="M 113 47 L 125 47 L 125 58 L 113 58 Z M 113 47 "/>
</clipPath>
<clipPath id="clip-19">
<path clip-rule="evenodd" d="M 122.035156 48.316406 C 122.035156 48.316406 119.59375 47.007812 118.0625 49.613281 C 115.289062 48.414062 114.09375 50.910156 114.09375 50.910156 C 114.09375 50.910156 112.78125 53.351562 115.21875 55.761719 C 116.75 57.277344 118.550781 57.726562 119.675781 57.851562 C 120.386719 57.929688 121.09375 57.699219 121.621094 57.214844 C 122.457031 56.453125 123.644531 55.027344 123.988281 52.898438 C 124.53125 49.515625 122.035156 48.316406 122.035156 48.316406 "/>
</clipPath>
</defs>
<g clip-path="url(#clip-0)">
<path fill-rule="nonzero" fill="rgb(43.920898%, 43.920898%, 43.920898%)" fill-opacity="0.2" d="M 11.136719 41.046875 L 70.410156 41.046875 L 70.410156 93.300781 L 11.136719 93.300781 Z M 11.136719 41.046875 "/>
</g>
<g clip-path="url(#clip-1)">
<g clip-path="url(#clip-2)">
<path fill-rule="nonzero" fill="rgb(43.920898%, 43.920898%, 43.920898%)" fill-opacity="1" d="M 0.253906 41.046875 L 70.410156 41.046875 L 70.410156 60.355469 L 0.253906 60.355469 Z M 0.253906 41.046875 "/>
</g>
</g>
<g clip-path="url(#clip-3)">
<path fill-rule="nonzero" fill="rgb(43.920898%, 43.920898%, 43.920898%)" fill-opacity="0.35" d="M 68.410156 41.046875 L 91.410156 41.046875 L 91.410156 93.300781 L 68.410156 93.300781 Z M 68.410156 41.046875 "/>
</g>
<g clip-path="url(#clip-4)">
<path fill-rule="nonzero" fill="rgb(43.920898%, 43.920898%, 43.920898%)" fill-opacity="0.6" d="M 156.421875 41.046875 L 215.695312 41.046875 L 215.695312 93.300781 L 156.421875 93.300781 Z M 156.421875 41.046875 "/>
</g>
<g clip-path="url(#clip-5)">
<path fill-rule="nonzero" fill="rgb(43.920898%, 43.920898%, 43.920898%)" fill-opacity="0.2" d="M 213.695312 41.046875 L 244.511719 41.046875 L 244.511719 93.300781 L 213.695312 93.300781 Z M 213.695312 41.046875 "/>
</g>
<g clip-path="url(#clip-6)">
<g clip-path="url(#clip-7)">
<path fill-rule="nonzero" fill="rgb(43.920898%, 43.920898%, 43.920898%)" fill-opacity="1" d="M 68.410156 41.046875 L 138.5625 41.046875 L 138.5625 60.355469 L 68.410156 60.355469 Z M 68.410156 41.046875 "/>
</g>
</g>
<g clip-path="url(#clip-8)">
<path fill-rule="nonzero" fill="rgb(100%, 100%, 100%)" fill-opacity="1" d="M 87.796875 18.789062 L 191.441406 18.789062 L 191.441406 93.300781 L 87.796875 93.300781 Z M 87.796875 18.789062 "/>
<path fill-rule="nonzero" fill="rgb(43.920898%, 43.920898%, 43.920898%)" fill-opacity="0.6" d="M 87.796875 18.789062 L 191.441406 18.789062 L 191.441406 93.300781 L 87.796875 93.300781 Z M 87.796875 18.789062 "/>
</g>
<g clip-path="url(#clip-9)">
<path fill-rule="nonzero" fill="rgb(43.920898%, 43.920898%, 43.920898%)" fill-opacity="1" d="M 147.410156 18.789062 L 191.441406 18.789062 L 191.441406 93.300781 L 147.410156 93.300781 Z M 147.410156 18.789062 "/>
</g>
<g clip-path="url(#clip-10)">
<g clip-path="url(#clip-11)">
<path fill-rule="nonzero" fill="rgb(43.920898%, 43.920898%, 43.920898%)" fill-opacity="0.35" d="M 77.214844 0 L 149.410156 0 L 149.410156 20.789062 L 77.214844 20.789062 Z M 77.214844 0 "/>
</g>
</g>
<g clip-path="url(#clip-12)">
<g clip-path="url(#clip-13)">
<path fill-rule="nonzero" fill="rgb(43.920898%, 43.920898%, 43.920898%)" fill-opacity="0.35" d="M 189.441406 18.792969 L 201.464844 18.792969 L 201.464844 37.335938 L 189.441406 37.335938 Z M 189.441406 18.792969 "/>
</g>
</g>
<g clip-path="url(#clip-14)">
<g clip-path="url(#clip-15)">
<path fill-rule="nonzero" fill="rgb(100%, 100%, 100%)" fill-opacity="1" d="M 213.695312 41.046875 L 250.808594 41.046875 L 250.808594 54.257812 L 213.695312 54.257812 Z M 213.695312 41.046875 "/>
<path fill-rule="nonzero" fill="rgb(43.920898%, 43.920898%, 43.920898%)" fill-opacity="0.35" d="M 213.695312 41.046875 L 250.808594 41.046875 L 250.808594 54.257812 L 213.695312 54.257812 Z M 213.695312 41.046875 "/>
</g>
</g>
<g clip-path="url(#clip-16)">
<g clip-path="url(#clip-17)">
<path fill-rule="nonzero" fill="rgb(100%, 98.039246%, 97.254944%)" fill-opacity="1" d="M 104.816406 38.824219 L 133.6875 38.824219 L 133.6875 67.691406 L 104.816406 67.691406 Z M 104.816406 38.824219 "/>
</g>
</g>
<g clip-path="url(#clip-18)">
<g clip-path="url(#clip-19)">
<path fill-rule="nonzero" fill="rgb(43.920898%, 43.920898%, 43.920898%)" fill-opacity="1" d="M 111.78125 46.007812 L 125.53125 46.007812 L 125.53125 58.929688 L 111.78125 58.929688 Z M 111.78125 46.007812 "/>
</g>
</g>
</svg>
