<svg width="21" height="20" viewBox="0 0 21 20" fill="none" xmlns="http://www.w3.org/2000/svg">
<g id="Group">
<path id="Path" d="M10.8304 9.30494C10.6215 9.27693 10.4245 9.16055 10.2899 8.96303L7.56699 4.97652C7.29891 4.58422 7.37739 4.0196 7.74202 3.71559C8.10664 3.41159 8.6197 3.48348 8.88781 3.87578L11.6107 7.86229C11.8788 8.25459 11.8003 8.8192 11.4357 9.12321C11.2543 9.27444 11.0366 9.3326 10.8305 9.30495L10.8304 9.30494Z" fill="white"/>
<path id="Path_2" d="M0.978197 15.2341L0.982069 15.2346L5.12561 15.816C5.53356 15.8732 5.80967 16.3124 5.74253 16.7969C5.67561 17.2798 5.29279 17.6255 4.88627 17.5709L4.88239 17.5704L0.738854 16.9891C0.330907 16.9318 0.0547887 16.4927 0.121935 16.0081C0.18921 15.5253 0.572022 15.1796 0.978197 15.2341Z" fill="white"/>
<path id="Path_3" d="M19.1011 8.60193L19.0969 8.60137C18.6596 8.54033 18.3563 8.12454 18.4192 7.67254L19.0581 3.08124C19.1209 2.6308 19.5239 2.31452 19.9597 2.37297L19.9638 2.37353C20.4011 2.43457 20.7045 2.85035 20.6415 3.30236L20.0026 7.89366C19.9399 8.3441 19.5368 8.66038 19.1011 8.60193Z" fill="white"/>
</g>
</svg>
