<svg width="27" height="25" viewBox="0 0 27 25" fill="none" xmlns="http://www.w3.org/2000/svg">
<circle cx="12.6853" cy="3.01866" r="1.85911" fill="#F55F24"/>
<path d="M18.4557 1.03168C18.5383 0.998834 18.622 0.973656 18.7061 0.955229L18.706 0.93274C18.7051 0.437949 18.3036 0.0374756 17.8091 0.0374756C17.8085 0.0374756 17.8079 0.0374756 17.8073 0.0374756C17.3119 0.0384909 16.911 0.440893 16.9121 0.936294L16.9183 4.0653L14.4155 5.47039C12.8766 5.47039 13.6959 5.47039 10.979 5.47039L8.47624 4.0653L8.48243 0.936294C8.48345 0.440893 8.08262 0.0384909 7.58722 0.0374756C7.58656 0.0374756 7.58605 0.0374756 7.58539 0.0374756C7.15273 0.0374756 6.79135 0.343985 6.70703 0.752022C6.7447 0.758368 6.78242 0.765576 6.82013 0.774714C7.68088 0.983098 8.20973 1.84983 8.0013 2.71058L7.33086 5.47973L10.2991 7.14614V14.0467L9.76848 22.6044C9.73172 23.1977 10.1829 23.7086 10.7762 23.7453C10.7989 23.7468 10.8214 23.7474 10.8438 23.7474C11.4079 23.7474 11.8818 23.3082 11.9172 22.7376C12.0692 20.2782 12.4515 14.1524 12.4515 14.0669H12.9189C12.9189 14.1523 13.3012 20.2781 13.4531 22.7376C13.4886 23.3083 13.9624 23.7474 14.5265 23.7474C14.5489 23.7474 14.5715 23.7467 14.5942 23.7453C15.1875 23.7086 15.6387 23.1977 15.6019 22.6044L15.0699 14.0243L15.0614 7.16411C15.1014 7.1435 18.4114 5.26073 18.4114 5.26073L17.558 3.1143C17.2309 2.29127 17.6328 1.3589 18.4557 1.03168Z" fill="#F55F24"/>
<path d="M4.19953 4.78348C3.97515 4.00147 3.25523 3.42896 2.40108 3.42896C1.36759 3.42896 0.529785 4.26676 0.529785 5.30025C0.529785 6.33374 1.36759 7.17154 2.40108 7.17154C2.57393 7.17154 2.74114 7.14763 2.90003 7.10372L4.00688 5.57909L4.19953 4.78348Z" fill="#F55F24"/>
<path d="M6.66215 1.42692C6.16157 1.3057 5.65754 1.61328 5.53632 2.11385L4.68324 5.6372L2.2009 7.75429H1.26411C0.565962 7.75429 0 8.32025 0 9.01845C0 9.01845 0.000456871 21.2532 0.000456871 23.5684C0.000456871 24.1668 0.485553 24.6519 1.08395 24.6519C1.68235 24.6519 2.16745 24.1668 2.16745 23.5684C2.16745 21.2522 2.16745 17.9452 2.16745 15.5045C2.16745 15.5044 2.16745 15.5043 2.16745 15.5043H2.51822C2.73016 16.1236 3.39176 18.0565 3.71391 18.9977L4.10006 23.6578C4.1492 24.2505 4.66892 24.6976 5.26935 24.6482C5.86572 24.5987 6.30909 24.0753 6.2597 23.4789L5.86242 18.6847C5.85501 18.5956 5.83663 18.5078 5.80775 18.4233C5.56576 17.7163 5.02432 16.1344 4.78263 15.4282V9.01845C4.78263 8.779 4.71603 8.55513 4.60039 8.36426L4.00737 8.66509L6.12375 6.86009C6.27325 6.73252 6.37874 6.56099 6.42498 6.36997L7.34918 2.55276C7.47025 2.05218 7.16273 1.54815 6.66215 1.42692Z" fill="#F55F24"/>
<path d="M26.0091 9.01835C26.0091 8.3202 25.4432 7.75424 24.745 7.75424H23.8083L21.2718 5.591L19.9146 2.17726C19.7244 1.69866 19.182 1.46495 18.7035 1.65521C18.2249 1.84547 17.9912 2.38772 18.1815 2.86632L19.6241 6.495C19.6802 6.63617 19.7699 6.76146 19.8855 6.86004L22.0019 8.66503L21.4088 8.36421C21.2932 8.55508 21.2266 8.77895 21.2266 9.0184V15.3446L20.2094 18.1181C20.1395 18.3085 20.1246 18.5148 20.1662 18.7134L21.23 23.7904C21.3531 24.3778 21.9285 24.751 22.5126 24.6286C23.0984 24.5059 23.4736 23.9316 23.3509 23.346L22.3507 18.5728L23.4762 15.5043H23.842C23.842 15.506 23.8418 15.5076 23.8418 15.5093V23.5684C23.8418 24.1668 24.3269 24.6519 24.9253 24.6519C25.5237 24.6519 26.0088 24.1668 26.0088 23.5684L26.0091 9.01835Z" fill="#F55F24"/>
<path d="M25.4792 5.30025C25.4792 4.26676 24.6414 3.42896 23.6079 3.42896C22.6754 3.42896 21.9024 4.11117 21.7603 5.00364L21.9733 5.5394L23.109 7.10377C23.2679 7.14763 23.4351 7.17159 23.6079 7.17159C24.6414 7.17159 25.4792 6.33374 25.4792 5.30025Z" fill="#F55F24"/>
</svg>
