<svg width="56" height="56" viewBox="0 0 56 56" fill="none" xmlns="http://www.w3.org/2000/svg">
<g clip-path="url(#clip0_268_3167)">
<path d="M28.1332 43.733C36.8962 43.733 44 41.2448 44 38.1755C44 35.1061 36.8962 32.6179 28.1332 32.6179C19.3703 32.6179 12.2665 35.1061 12.2665 38.1755C12.2665 41.2448 19.3703 43.733 28.1332 43.733Z" fill="white"/>
<path d="M12.2665 38.1755C12.2665 41.2415 19.3722 43.7331 28.1332 43.7331" stroke="#653825" stroke-width="0.66" stroke-miterlimit="10" stroke-linecap="round"/>
<path d="M17.2889 20.3865H38.9776V31.6553C38.9776 35.8781 35.5539 39.3 31.347 39.3H24.9276C20.7126 39.3 17.297 35.87 17.297 31.6553V20.3865H17.2889Z" fill="#FF9739"/>
<path d="M28.1332 22.7729C34.1224 22.7729 38.9776 21.7044 38.9776 20.3864C38.9776 19.0684 34.1224 18 28.1332 18C22.1441 18 17.2889 19.0684 17.2889 20.3864C17.2889 21.7044 22.1441 22.7729 28.1332 22.7729Z" fill="#F3C8B3"/>
<path d="M28.1332 18.809C33.834 18.809 37.4272 19.7716 38.1055 20.3864C37.4272 21.0012 33.8421 21.9639 28.1332 21.9639C22.4244 21.9639 18.8393 21.0012 18.161 20.3864C18.8393 19.7716 22.4244 18.809 28.1332 18.809ZM28.1332 18C22.1499 18 17.2889 19.0678 17.2889 20.3864C17.2889 21.705 22.1418 22.7729 28.1332 22.7729C34.1247 22.7729 38.9776 21.705 38.9776 20.3864C38.9776 19.0678 34.1247 18 28.1332 18Z" fill="#FF9739"/>
<path d="M31.1774 29.5438C31.1774 29.3173 31.2743 29.0989 31.4438 28.9533L33.8501 26.8823L36.1998 28.5569C36.4017 28.7025 36.5228 28.9371 36.5228 29.1879V32.3024C36.5228 32.6907 36.2402 33.0142 35.8607 33.0709L32.0737 33.6371C31.6053 33.71 31.1854 33.3459 31.1854 32.8686V29.5438H31.1774Z" fill="white"/>
<path d="M33.8098 21.519L33.8501 27.8208" stroke="#653825" stroke-width="0.66" stroke-miterlimit="10" stroke-linecap="round"/>
<path d="M38.1216 24.3583C38.1216 24.3583 42.4416 22.1903 42.3447 27.5537C42.2478 32.9171 37.839 32.2942 37.839 32.2942" stroke="#FF9739" stroke-width="2" stroke-miterlimit="10"/>
</g>
<path d="M23.6237 17.4772C23.9056 16.7684 24.4937 16.1846 24.7314 15.4591C24.9006 14.9378 24.8764 14.3624 24.6629 13.8579C24.3689 13.1657 23.7485 12.6486 23.378 11.9898C22.6851 10.7514 22.9993 9.15019 23.8774 8.01184C24.5985 7.07781 25.7143 6.27305 25.7747 5.11802C26.1493 4.93455 26.6004 5.00127 27.0113 5.07632C27.7887 5.21392 28.5661 5.35153 29.3436 5.48913C30.1492 5.6309 31.0072 5.79769 31.5832 6.3481C32.131 6.86932 32.3244 7.64073 32.3405 8.37878C32.3526 8.92919 32.276 9.50045 31.9659 9.9633C31.7081 10.3469 31.3133 10.6346 31.0475 11.0099C30.5359 11.7313 30.5963 12.7696 31.1804 13.4284C31.406 13.6827 31.7 13.8829 31.9014 14.1539C32.2841 14.671 32.268 15.4257 31.8611 15.9344C31.4785 16.4098 30.7534 16.7934 30.8662 17.3813C30.9266 17.6941 31.2166 17.9067 31.4462 18.1361C31.99 18.674 32.2639 19.5204 31.9135 20.1918C31.4744 21.034 30.3385 21.2425 29.3637 21.3509C28.7031 21.4218 28.0425 21.4969 27.3859 21.5678C27.1765 21.5928 26.963 21.6136 26.7575 21.5719C26.2621 21.476 25.7465 21.1341 25.2792 20.9548C24.812 20.7755 24.4656 20.567 24.1473 20.2043C23.5028 19.4662 23.2531 18.3946 23.6156 17.4814L23.6237 17.4772Z" fill="white" fill-opacity="0.6"/>
<defs>
<clipPath id="clip0_268_3167">
<rect width="32" height="26" fill="white" transform="translate(12 18)"/>
</clipPath>
</defs>
</svg>
