<?xml version="1.0" encoding="UTF-8"?>
<svg xmlns="http://www.w3.org/2000/svg" xmlns:xlink="http://www.w3.org/1999/xlink" width="35" height="35" viewBox="0 0 35 35">
<defs>
<clipPath id="clip-0">
<path clip-rule="nonzero" d="M 7 14 L 12 14 L 12 20 L 7 20 Z M 7 14 "/>
</clipPath>
<clipPath id="clip-1">
<path clip-rule="evenodd" d="M 11.902344 17.371094 C 11.902344 18.691406 10.832031 19.757812 9.515625 19.757812 C 8.195312 19.757812 7.128906 18.691406 7.128906 17.371094 C 7.128906 16.054688 8.195312 14.988281 9.515625 14.988281 C 10.832031 14.988281 11.902344 16.054688 11.902344 17.371094 Z M 11.902344 17.371094 "/>
</clipPath>
<clipPath id="clip-2">
<path clip-rule="nonzero" d="M 15 14 L 21 14 L 21 20 L 15 20 Z M 15 14 "/>
</clipPath>
<clipPath id="clip-3">
<path clip-rule="evenodd" d="M 20.578125 17.371094 C 20.578125 18.691406 19.507812 19.757812 18.191406 19.757812 C 16.871094 19.757812 15.804688 18.691406 15.804688 17.371094 C 15.804688 16.054688 16.871094 14.988281 18.191406 14.988281 C 19.507812 14.988281 20.578125 16.054688 20.578125 17.371094 Z M 20.578125 17.371094 "/>
</clipPath>
<clipPath id="clip-4">
<path clip-rule="nonzero" d="M 24 14 L 30 14 L 30 20 L 24 20 Z M 24 14 "/>
</clipPath>
<clipPath id="clip-5">
<path clip-rule="evenodd" d="M 29.253906 17.371094 C 29.253906 18.691406 28.183594 19.757812 26.867188 19.757812 C 25.546875 19.757812 24.480469 18.691406 24.480469 17.371094 C 24.480469 16.054688 25.546875 14.988281 26.867188 14.988281 C 28.183594 14.988281 29.253906 16.054688 29.253906 17.371094 Z M 29.253906 17.371094 "/>
</clipPath>
</defs>
<g clip-path="url(#clip-0)">
<g clip-path="url(#clip-1)">
<path fill-rule="evenodd" fill="rgb(94.499207%, 37.298584%, 14.099121%)" fill-opacity="1" d="M 5.75 21.136719 L 13.277344 21.136719 L 13.277344 13.609375 L 5.75 13.609375 Z M 5.75 21.136719 "/>
</g>
</g>
<g clip-path="url(#clip-2)">
<g clip-path="url(#clip-3)">
<path fill-rule="evenodd" fill="rgb(94.499207%, 37.298584%, 14.099121%)" fill-opacity="1" d="M 14.425781 21.136719 L 21.957031 21.136719 L 21.957031 13.609375 L 14.425781 13.609375 Z M 14.425781 21.136719 "/>
</g>
</g>
<g clip-path="url(#clip-4)">
<g clip-path="url(#clip-5)">
<path fill-rule="evenodd" fill="rgb(94.499207%, 37.298584%, 14.099121%)" fill-opacity="1" d="M 23.101562 21.136719 L 30.632812 21.136719 L 30.632812 13.609375 L 23.101562 13.609375 Z M 23.101562 21.136719 "/>
</g>
</g>
</svg>
