<svg width="57" height="57" viewBox="0 0 57 57" fill="none" xmlns="http://www.w3.org/2000/svg">
<g clip-path="url(#clip0_2751_4813)">
<path fill-rule="evenodd" clip-rule="evenodd" d="M48.4487 39.7162L39.767 43.4409L39.6223 43.5L39.4873 43.4507L28.6641 40.1202L28.5194 40.0709L28.3844 40.1202L17.5419 43.4507L17.3973 43.5L17.2622 43.4409L8.58053 39.7162C7.77989 39.4304 7.33616 38.5534 7.57732 37.7355L8.00176 36.2378L8.32008 35.144L12.169 21.8217C12.4294 20.9348 13.3651 20.4422 14.2236 20.7476L18.9117 22.4425L19.0468 22.4917L19.1915 22.4326L28.3844 19.1119L28.5194 19.0626L28.6641 19.1217L37.8474 22.4326L37.9921 22.4917L38.1272 22.4425L42.8153 20.7476C43.6738 20.4323 44.6095 20.9348 44.8699 21.8217L48.7092 35.144L49.0275 36.2378L49.4519 37.7355C49.6931 38.5534 49.2493 39.4304 48.4583 39.7162H48.4487Z" fill="#F3C8B3"/>
<path fill-rule="evenodd" clip-rule="evenodd" d="M19.0365 22.4819L18.9015 22.4326L17.6475 38.4351L17.5413 39.6274L17.252 43.431L17.387 43.4901L17.5317 43.4408L17.8211 39.6471L17.9272 38.4154L19.1812 22.4227L19.0365 22.4819Z" fill="white"/>
<path fill-rule="evenodd" clip-rule="evenodd" d="M39.0821 38.4253L39.169 39.657L39.4776 43.4507L39.6127 43.5L39.7574 43.4409L39.4487 39.6373L39.3619 38.445L38.1079 22.4425L37.9728 22.4917L37.8281 22.4326L39.0821 38.4253Z" fill="white"/>
<path fill-rule="evenodd" clip-rule="evenodd" d="M28.375 19.102V40.1103L28.51 40.061L28.6547 40.1103V19.1217L28.51 19.0626L28.375 19.1119V19.102Z" fill="white"/>
<path fill-rule="evenodd" clip-rule="evenodd" d="M49.0083 36.2279L39.4584 39.6275C39.3716 39.6472 39.2655 39.6767 39.1787 39.6472C39.1594 39.6472 39.1305 39.6373 39.1112 39.6373L28.6546 36.3166L28.5099 36.2673L28.3748 36.3166L17.9086 39.6373C17.9086 39.6373 17.8507 39.6472 17.8314 39.6472C17.7928 39.657 17.7735 39.657 17.7446 39.657C17.6771 39.657 17.6192 39.6472 17.5517 39.6275L7.99219 36.2279L8.31052 35.1341C8.31052 35.1341 8.32981 35.1341 8.3491 35.1341L17.6481 38.445L17.7542 38.4844L17.9375 38.4253L28.3459 35.1243H28.3845C28.4713 35.0849 28.5774 35.0849 28.6642 35.1243H28.6835L39.0919 38.4253L39.2751 38.4844L39.3813 38.445L48.6706 35.1341C48.6706 35.1341 48.6899 35.1243 48.6996 35.1341L49.0179 36.2279H49.0083Z" fill="#FFFAF8"/>
<path fill-rule="evenodd" clip-rule="evenodd" d="M19.1824 12.8646C18.5747 12.6281 17.9187 12.5 17.2531 12.5C16.5875 12.5 15.9316 12.6281 15.3239 12.8646C12.9895 13.7514 11.7644 16.0868 12.2371 18.5207C12.43 19.4962 12.9412 20.4126 13.684 21.2009L16.2306 23.8713C16.7901 24.4526 17.7065 24.4526 18.266 23.8713L20.8126 21.2009C21.5554 20.4126 22.0763 19.4962 22.2596 18.5207C22.7322 16.0868 21.5072 13.7514 19.1728 12.8646H19.1824Z" fill="#F55F24"/>
<path d="M17.1092 16.9047C17.903 16.9047 18.5465 16.2473 18.5465 15.4365C18.5465 14.6256 17.903 13.9683 17.1092 13.9683C16.3154 13.9683 15.6719 14.6256 15.6719 15.4365C15.6719 16.2473 16.3154 16.9047 17.1092 16.9047Z" fill="white"/>
<path d="M16.8006 17.4368H17.7073C18.942 17.4368 19.9356 18.4616 19.9356 19.713C19.9356 20.2747 19.4919 20.7279 18.942 20.7279H15.5658C15.016 20.7279 14.5723 20.2747 14.5723 19.713C14.5723 18.4517 15.5755 17.4368 16.8006 17.4368Z" fill="white"/>
<path fill-rule="evenodd" clip-rule="evenodd" d="M43.8466 16.7666C43.0749 16.471 42.2453 16.3134 41.4061 16.3134C40.5669 16.3134 39.7373 16.471 38.9559 16.7666C35.9945 17.8998 34.4511 20.8559 35.0492 23.9402C35.2903 25.1818 35.9463 26.3445 36.882 27.3397L40.1039 30.7196C40.8177 31.4586 41.9752 31.4586 42.6891 30.7196L45.9109 27.3397C46.8563 26.3445 47.5122 25.1818 47.7437 23.9402C48.3418 20.8461 46.7984 17.89 43.837 16.7666H43.8466Z" fill="#F55F24"/>
<path d="M41.2216 21.9004C42.2285 21.9004 43.0447 21.0666 43.0447 20.038C43.0447 19.0095 42.2285 18.1757 41.2216 18.1757C40.2147 18.1757 39.3984 19.0095 39.3984 20.038C39.3984 21.0666 40.2147 21.9004 41.2216 21.9004Z" fill="white"/>
<path d="M40.8264 22.5704H41.9839C43.5466 22.5704 44.8103 23.8613 44.8103 25.4576C44.8103 26.1671 44.2412 26.7484 43.5466 26.7484H39.2637C38.5691 26.7484 38 26.1671 38 25.4576C38 23.8613 39.2637 22.5704 40.8264 22.5704Z" fill="white"/>
<path d="M16.7994 26.0391C16.7994 26.0391 16.6643 26.4135 16.5293 26.985" stroke="#653825" stroke-width="0.66" stroke-miterlimit="10" stroke-linecap="round"/>
<path d="M16.2597 28.9361C16.2211 30.631 16.7517 32.5131 19.1826 32.9565C21.488 33.3802 28.0861 24.6399 30.7292 26.7092C33.3723 28.7785 33.517 34.7203 36.2276 35.4101C38.1568 35.8929 39.5459 35.3411 40.4044 34.5429" stroke="#653825" stroke-width="0.66" stroke-miterlimit="10" stroke-linecap="round" stroke-dasharray="1.32 1.32"/>
<path d="M41.0215 33.794C41.2144 33.4787 41.3495 33.1732 41.4073 32.8973" stroke="#653825" stroke-width="0.66" stroke-miterlimit="10" stroke-linecap="round"/>
</g>
<defs>
<clipPath id="clip0_2751_4813">
<rect width="42" height="31" fill="white" transform="translate(7.5 12.5)"/>
</clipPath>
</defs>
</svg>
