<?xml version="1.0" encoding="utf-8"?>
<!-- Generator: Adobe Illustrator 27.8.0, SVG Export Plug-In . SVG Version: 6.00 Build 0)  -->
<svg version="1.1" xmlns="http://www.w3.org/2000/svg" xmlns:xlink="http://www.w3.org/1999/xlink" x="0px" y="0px"
	 viewBox="0 0 56 56" style="enable-background:new 0 0 56 56;" xml:space="preserve">
<style type="text/css">
	.st0{clip-path:url(#SVGID_00000038372635559502353530000003424468249762924724_);fill:#FFEADC;}
	
		.st1{clip-path:url(#SVGID_00000038372635559502353530000003424468249762924724_);fill-rule:evenodd;clip-rule:evenodd;fill:#FFD2B3;}
	
		.st2{clip-path:url(#SVGID_00000038372635559502353530000003424468249762924724_);fill-rule:evenodd;clip-rule:evenodd;fill:none;stroke:#FFFFFF;stroke-width:2;stroke-miterlimit:10;}
	.st3{clip-path:url(#SVGID_00000038372635559502353530000003424468249762924724_);}
	.st4{clip-path:url(#SVGID_00000156584628336220936060000012099638012749366953_);}
	.st5{fill:#F3C8B3;}
	.st6{fill:none;stroke:#E0A28C;stroke-width:0.66;stroke-linecap:round;stroke-miterlimit:10;}
	.st7{fill:none;stroke:#E0A28C;stroke-width:0.5972;stroke-linecap:round;stroke-miterlimit:10;}
	.st8{fill-rule:evenodd;clip-rule:evenodd;fill:#FF9739;}
	.st9{fill:none;stroke:#FFFFFF;stroke-width:0.66;stroke-linecap:round;stroke-linejoin:round;}
	.st10{fill:#FF9739;}
	.st11{filter:url(#Adobe_OpacityMaskFilter);}
	.st12{fill-rule:evenodd;clip-rule:evenodd;fill:#FFFFFF;}
	
		.st13{mask:url(#m51bllx66b_00000012457874808388898590000017511104711889795968_);fill-rule:evenodd;clip-rule:evenodd;fill:#FF9739;}
	.st14{fill-rule:evenodd;clip-rule:evenodd;fill:#FFFCFA;}
	.st15{display:none;fill-rule:evenodd;clip-rule:evenodd;fill:#FFFFFF;}
	.st16{display:none;}
	.st17{display:inline;fill-rule:evenodd;clip-rule:evenodd;fill:#FF9739;}
</style>
<g id="Calque_2">
</g>
<g id="Calque_1">
	<g>
		<defs>
			<path id="SVGID_1_" d="M28,0L28,0c15.5,0,28,12.5,28,28l0,0c0,15.5-12.5,28-28,28l0,0C12.5,56,0,43.5,0,28l0,0
				C0,12.5,12.5,0,28,0z"/>
		</defs>
		<clipPath id="SVGID_00000062184888402121807620000004585761089696204986_">
			<use xlink:href="#SVGID_1_"  style="overflow:visible;"/>
		</clipPath>
		
			<rect x="-16.9" y="-21" style="clip-path:url(#SVGID_00000062184888402121807620000004585761089696204986_);fill:#FFEADC;" width="86.7" height="94.4"/>
		
			<rect x="27.7" y="-2.5" transform="matrix(0.8373 0.5468 -0.5468 0.8373 25.7876 -19.1065)" style="clip-path:url(#SVGID_00000062184888402121807620000004585761089696204986_);fill-rule:evenodd;clip-rule:evenodd;fill:#FFD2B3;" width="34.5" height="72.5"/>
		
			<line style="clip-path:url(#SVGID_00000062184888402121807620000004585761089696204986_);fill-rule:evenodd;clip-rule:evenodd;fill:none;stroke:#FFFFFF;stroke-width:2;stroke-miterlimit:10;" x1="12.8" y1="51.5" x2="43.4" y2="4.6"/>
		<g style="clip-path:url(#SVGID_00000062184888402121807620000004585761089696204986_);">
			<g>
				<defs>
					
						<rect id="SVGID_00000067945415079563835950000016700310471373297794_" x="4" y="6.4" transform="matrix(0.975 -0.2224 0.2224 0.975 -3.6245 3.6794)" width="21.1" height="23.2"/>
				</defs>
				<clipPath id="SVGID_00000142137372066838558110000017977037757023424148_">
					<use xlink:href="#SVGID_00000067945415079563835950000016700310471373297794_"  style="overflow:visible;"/>
				</clipPath>
				<g style="clip-path:url(#SVGID_00000142137372066838558110000017977037757023424148_);">
					<path class="st5" d="M10.2,12.2c0.4-1.3,3-1.1,4.3,1.2c1.3,2.3,2,3.9,2,3.9c0.7-0.4,5.2-2.4,5.8-2.4c0.5-0.1,2-0.2,2.7,1.2
						c0.4,1.6,0.1,1.9-0.2,2c0.7,0.2,1.4,1.8,0.6,2.7c0.5,1.2,0.5,2.3,0,2.5c0.7,0.8,1.4,2.2-1.1,3.5c-2.4,1.2-3.1,1.4-3.4,0.7
						c-1.5,0.6-6.1,1.5-6.5,1.6c-0.4,0.1-4.8-8.1-4.8-8.1s2.6-2.3,2.6-3.4c0.1-1-1.5-4.2-1.6-4.5C10.5,12.7,10.1,12.4,10.2,12.2
						L10.2,12.2z"/>
					<path class="st6" d="M9.9,20.7c0,0,1.9-1.9,2.4-2.9c0.5-1-1.5-4.8-1.5-4.8"/>
					<path class="st7" d="M23.1,21.9c-1.6,0.6-2,1.1-2.8,1c-0.8-0.1-1.4-1.2-1.1-1.8c0.2-0.4,3.3-1.7,3.3-1.7"/>
					<path class="st7" d="M22.6,19.5c-1.3,0.5-2,1.1-2.8,1c-0.8-0.1-1.4-1.2-1.1-1.8c0.2-0.4,3.5-1.8,3.5-1.8"/>
					<path class="st7" d="M23.9,24.2c-1.5,0.7-2.2,1.3-3,1.2c-0.8-0.1-1.4-1.2-1.1-1.8c0.2-0.4,3.5-1.8,3.5-1.8"/>
					<path class="st7" d="M21.5,27.7c-0.8-0.1-1.4-1.2-1.1-1.8c0.2-0.4,3.5-1.8,3.5-1.8"/>
					<path class="st5" d="M11.3,29.7c0.8-0.2,3-0.7,3-0.7l-4.8-8.1c0,0-3.8,1-4.1,2C4.7,25,9,30.7,9.7,30.3
						C10.3,30.1,11.2,29.8,11.3,29.7z"/>
					<path class="st8" d="M21.7,7.4c0,0-1.1-1.5-2.8-0.3C17.5,5.6,16,6.8,16,6.8s-1.5,1.1-0.7,3.3c0.5,1.4,1.5,2.1,2.1,2.5
						c0.4,0.2,0.9,0.3,1.4,0.2c0.7-0.2,1.9-0.8,2.7-2C22.8,8.9,21.7,7.4,21.7,7.4z"/>
					<path class="st9" d="M20.2,7.6c0.3,0.2,0.8,0.6,1,1.2"/>
				</g>
			</g>
			<path class="st10" d="M9.1,20.9l-15.3,2.9l5.5,11c4-1.4,12.2-4.4,12.4-4.5c0.8-0.3-1.6-6.3-2.4-9.3C9.3,20.9,9.2,20.8,9.1,20.9z"
				/>
		</g>
		<g style="clip-path:url(#SVGID_00000062184888402121807620000004585761089696204986_);">
			<g transform="translate(0 4.605)">
				<defs>
					<filter id="Adobe_OpacityMaskFilter" filterUnits="userSpaceOnUse" x="29.8" y="22.3" width="19.1" height="19.1">
						<feColorMatrix  type="matrix" values="1 0 0 0 0  0 1 0 0 0  0 0 1 0 0  0 0 0 1 0"/>
					</filter>
				</defs>
				
					<mask maskUnits="userSpaceOnUse" x="29.8" y="22.3" width="19.1" height="19.1" id="m51bllx66b_00000012457874808388898590000017511104711889795968_">
					<g class="st11">
						<path id="i8rui6xp3a_00000060020567872583663250000006250660917146121614_" class="st12" d="M29.8,22.3h19.1v19.1H29.8V22.3z"
							/>
					</g>
				</mask>
				<path class="st13" d="M48.9,31.2c0.4,5.5-3.9,10.1-9.3,10.2h-6.9c-0.1,0-0.2-0.1-0.2-0.2c0,0,0-0.1,0.1-0.1l1.2-1
					c0.1-0.1,0.1-0.3,0-0.4c0,0,0,0-0.1-0.1c-0.2-0.1-0.3-0.3-0.5-0.4c-2.1-1.8-3.5-4.4-3.5-7.4c0-5.5,4.6-9.9,10.2-9.5
					C44.7,22.6,48.6,26.4,48.9,31.2"/>
			</g>
			<g>
				<path class="st14" d="M40.1,36.4c0,0.4-0.3,0.7-0.7,0.7c-0.4,0-0.7-0.3-0.7-0.7c0,0,0,0,0,0c0-0.4,0.3-0.7,0.7-0.7
					C39.8,35.7,40.1,36,40.1,36.4 M37.2,36.4c0,0.4-0.3,0.7-0.7,0.7s-0.7-0.3-0.7-0.7c0,0,0,0,0,0c0-0.4,0.3-0.7,0.7-0.7
					C36.9,35.7,37.2,36,37.2,36.4 M43,36.4c0,0.4-0.3,0.7-0.7,0.7c-0.4,0-0.7-0.3-0.7-0.7c0,0,0,0,0,0c0-0.4,0.3-0.7,0.7-0.7
					C42.7,35.7,43,36,43,36.4"/>
			</g>
			<path class="st15" d="M39.2,44h6.5c0.1,0,0.2-0.2,0.1-0.3l-1.2-1c-0.1-0.1-0.1-0.3,0-0.4c0,0,0,0,0.1,0c0.2-0.1,0.3-0.2,0.5-0.4
				c2-1.7,3.3-4.2,3.3-7c0-5.2-4.4-9.4-9.7-9.1c-4.5,0.3-8.2,3.9-8.5,8.4C30,39.5,34.1,43.9,39.2,44L39.2,44z"/>
			<g class="st16">
				<path class="st17" d="M40,34.9c0,0.4-0.3,0.7-0.6,0.7c-0.4,0-0.7-0.3-0.7-0.6c0,0,0,0,0,0c0-0.4,0.3-0.6,0.6-0.6
					C39.7,34.3,40,34.6,40,34.9 M37.4,34.9c0,0.4-0.3,0.6-0.6,0.6c-0.4,0-0.6-0.3-0.6-0.6c0,0,0,0,0,0c0-0.4,0.3-0.6,0.6-0.6
					C37.1,34.3,37.4,34.6,37.4,34.9 M42.6,34.9c0,0.4-0.3,0.6-0.6,0.6c-0.4,0-0.6-0.3-0.6-0.6c0,0,0,0,0,0c0-0.4,0.3-0.6,0.6-0.6
					C42.3,34.3,42.6,34.6,42.6,34.9"/>
			</g>
		</g>
	</g>
</g>
</svg>
