<?xml version="1.0" encoding="UTF-8"?>
<svg xmlns="http://www.w3.org/2000/svg" xmlns:xlink="http://www.w3.org/1999/xlink" width="10.399902" height="5.600098" viewBox="0 0 10.399902 5.600098">
<defs>
<clipPath id="clip-0">
<path clip-rule="nonzero" d="M 0 0 L 10.398438 0 L 10.398438 5.601562 L 0 5.601562 Z M 0 0 "/>
</clipPath>
</defs>
<g clip-path="url(#clip-0)">
<path fill-rule="evenodd" fill="rgb(0%, 0%, 0%)" fill-opacity="1" d="M 10.078125 0.164062 C 10.410156 0.410156 10.496094 0.859375 10.289062 1.203125 L 10.230469 1.285156 L 5.851562 5.285156 C 5.546875 5.675781 4.960938 5.703125 4.617188 5.363281 L 4.546875 5.285156 L 0.167969 1.285156 C -0.105469 0.933594 -0.0390625 0.429688 0.324219 0.164062 C 0.65625 -0.0820312 1.121094 -0.0429688 1.40625 0.238281 L 1.472656 0.316406 L 5.199219 3.480469 L 8.925781 0.316406 C 9.179688 -0.0078125 9.636719 -0.09375 9.992188 0.109375 Z M 10.078125 0.164062 "/>
</g>
</svg>
