<svg width="56" height="56" viewBox="0 0 56 56" fill="none" xmlns="http://www.w3.org/2000/svg">
<g clip-path="url(#clip0_268_3072)">
<path fill-rule="evenodd" clip-rule="evenodd" d="M12.4918 41.1228L34.2944 41.0176L34.3924 15.0643L12.5898 15.1694L12.4918 41.1228Z" fill="#F3C8B3"/>
<path fill-rule="evenodd" clip-rule="evenodd" d="M34.2943 41.0183L45.1956 40.9657L45.2936 15.0114L34.3923 15.064L34.2943 41.0183Z" fill="#F55F24"/>
<path d="M34.3999 41.1226L34.3999 21.1226" stroke="#653825" stroke-width="0.66"/>
<path fill-rule="evenodd" clip-rule="evenodd" d="M47.976 21.8501L36.5363 21.8986L34.3923 15.0579L45.8321 15.0093L47.976 21.8501Z" fill="#FFFAF8"/>
<path fill-rule="evenodd" clip-rule="evenodd" d="M24.2981 36.3861L19.0196 34.5164C17.7175 34.0553 17.0502 32.6366 17.5282 31.3469L19.4669 26.1186C19.9446 24.8293 21.3875 24.1579 22.6893 24.6193L27.9681 26.4886C29.2695 26.9497 29.9372 28.3688 29.4594 29.6581L27.5208 34.8864C27.0424 36.1757 25.5995 36.8472 24.2981 36.3861Z" fill="#FFFAF8"/>
<path fill-rule="evenodd" clip-rule="evenodd" d="M8.59631 22.0172L30.2493 21.9253L34.3924 15.0579L12.7395 15.1498L8.59631 22.0172Z" fill="#FFFAF8"/>
<path fill-rule="evenodd" clip-rule="evenodd" d="M25.8454 29.5415C25.8454 29.5415 25.3212 28.3585 23.9884 28.8836C23.3091 27.6462 22.1313 28.2258 22.1313 28.2258C22.1313 28.2258 20.9285 28.7539 21.128 30.3419C21.2531 31.3415 21.7911 32.0235 22.1726 32.3916C22.4143 32.6247 22.7446 32.7414 23.0833 32.7139C23.6175 32.6702 24.4772 32.4835 25.2289 31.7945C26.4228 30.6998 25.8454 29.5415 25.8454 29.5415Z" fill="#EF5F24"/>
</g>
<defs>
<clipPath id="clip0_268_3072">
<rect width="56" height="56" rx="28" fill="white"/>
</clipPath>
</defs>
</svg>
