<?xml version="1.0" encoding="UTF-8"?>
<svg xmlns="http://www.w3.org/2000/svg" xmlns:xlink="http://www.w3.org/1999/xlink" width="11" height="10" viewBox="0 0 11 10">
<defs>
<clipPath id="clip-0">
<path clip-rule="nonzero" d="M 0 0 L 10 0 L 10 10 L 0 10 Z M 0 0 "/>
</clipPath>
<clipPath id="clip-1">
<path clip-rule="nonzero" d="M 5.039062 0 C 4.453125 0 3.878906 0.101562 3.339844 0.300781 C 1.289062 1.058594 0.210938 3.035156 0.628906 5.097656 C 0.796875 5.929688 1.246094 6.703125 1.902344 7.367188 L 4.140625 9.625 C 4.636719 10.125 5.445312 10.125 5.9375 9.625 L 8.179688 7.367188 C 8.835938 6.703125 9.285156 5.929688 9.453125 5.097656 C 9.871094 3.035156 8.792969 1.058594 6.738281 0.300781 C 6.199219 0.101562 5.628906 0 5.039062 0 Z M 5.039062 1 C 5.507812 1 5.964844 1.082031 6.394531 1.242188 C 7.980469 1.824219 8.792969 3.316406 8.472656 4.898438 C 8.347656 5.523438 7.996094 6.132812 7.46875 6.664062 L 5.230469 8.921875 C 5.125 9.027344 4.957031 9.027344 4.851562 8.921875 L 2.613281 6.664062 C 2.085938 6.132812 1.734375 5.523438 1.609375 4.898438 C 1.289062 3.316406 2.101562 1.824219 3.6875 1.242188 C 4.117188 1.082031 4.574219 1 5.039062 1 Z M 5.039062 1 "/>
</clipPath>
<clipPath id="clip-2">
<path clip-rule="nonzero" d="M 3 2 L 8 2 L 8 7 L 3 7 Z M 3 2 "/>
</clipPath>
<clipPath id="clip-3">
<path clip-rule="evenodd" d="M 5.039062 2.5 C 3.9375 2.5 3.039062 3.394531 3.039062 4.5 C 3.039062 5.605469 3.9375 6.5 5.039062 6.5 C 6.144531 6.5 7.039062 5.605469 7.039062 4.5 C 7.039062 3.394531 6.144531 2.5 5.039062 2.5 Z M 5.039062 3.5 C 5.59375 3.5 6.039062 3.949219 6.039062 4.5 C 6.039062 5.050781 5.59375 5.5 5.039062 5.5 C 4.488281 5.5 4.039062 5.050781 4.039062 4.5 C 4.039062 3.949219 4.488281 3.5 5.039062 3.5 Z M 5.039062 3.5 "/>
</clipPath>
</defs>
<g clip-path="url(#clip-0)">
<g clip-path="url(#clip-1)">
<path fill-rule="nonzero" fill="rgb(43.920898%, 43.920898%, 43.920898%)" fill-opacity="1" d="M -0.789062 -1 L 10.871094 -1 L 10.871094 11 L -0.789062 11 Z M -0.789062 -1 "/>
</g>
</g>
<g clip-path="url(#clip-2)">
<g clip-path="url(#clip-3)">
<path fill-rule="nonzero" fill="rgb(43.920898%, 43.920898%, 43.920898%)" fill-opacity="1" d="M 2.039062 1.5 L 8.039062 1.5 L 8.039062 7.5 L 2.039062 7.5 Z M 2.039062 1.5 "/>
</g>
</g>
</svg>
