<?xml version="1.0" encoding="UTF-8"?>
<svg xmlns="http://www.w3.org/2000/svg" xmlns:xlink="http://www.w3.org/1999/xlink" width="103" height="91" viewBox="0 0 103 91">
<defs>
<clipPath id="clip-0">
<path clip-rule="nonzero" d="M 2 32 L 100 32 L 100 89 L 2 89 Z M 2 32 "/>
</clipPath>
<clipPath id="clip-1">
<path clip-rule="evenodd" d="M 2.492188 32.402344 L 99.699219 32.402344 L 99.699219 80.484375 C 99.699219 84.902344 96.117188 88.484375 91.699219 88.484375 L 10.492188 88.484375 C 6.074219 88.484375 2.492188 84.902344 2.492188 80.484375 Z M 2.492188 32.402344 "/>
</clipPath>
<clipPath id="clip-2">
<path clip-rule="nonzero" d="M 2 11 L 100 11 L 100 33 L 2 33 Z M 2 11 "/>
</clipPath>
<clipPath id="clip-3">
<path clip-rule="evenodd" d="M 10.492188 11.214844 L 91.699219 11.214844 C 96.117188 11.214844 99.699219 14.796875 99.699219 19.214844 L 99.699219 32.402344 L 2.492188 32.402344 L 2.492188 19.214844 C 2.492188 14.796875 6.074219 11.214844 10.492188 11.214844 Z M 10.492188 11.214844 "/>
</clipPath>
<clipPath id="clip-4">
<path clip-rule="nonzero" d="M 83 68 L 94 68 L 94 79 L 83 79 Z M 83 68 "/>
</clipPath>
<clipPath id="clip-5">
<path clip-rule="evenodd" d="M 85.5 68.542969 L 91.46875 68.542969 C 92.574219 68.542969 93.46875 69.4375 93.46875 70.542969 L 93.46875 76.515625 C 93.46875 77.617188 92.574219 78.515625 91.46875 78.515625 L 85.5 78.515625 C 84.394531 78.515625 83.5 77.617188 83.5 76.515625 L 83.5 70.542969 C 83.5 69.4375 84.394531 68.542969 85.5 68.542969 Z M 85.5 68.542969 "/>
</clipPath>
<clipPath id="clip-6">
<path clip-rule="nonzero" d="M 68 68 L 79 68 L 79 79 L 68 79 Z M 68 68 "/>
</clipPath>
<clipPath id="clip-7">
<path clip-rule="evenodd" d="M 70.542969 68.542969 L 76.515625 68.542969 C 77.617188 68.542969 78.515625 69.4375 78.515625 70.542969 L 78.515625 76.515625 C 78.515625 77.617188 77.617188 78.515625 76.515625 78.515625 L 70.542969 78.515625 C 69.4375 78.515625 68.542969 77.617188 68.542969 76.515625 L 68.542969 70.542969 C 68.542969 69.4375 69.4375 68.542969 70.542969 68.542969 Z M 70.542969 68.542969 "/>
</clipPath>
<clipPath id="clip-8">
<path clip-rule="nonzero" d="M 53 68 L 64 68 L 64 79 L 53 79 Z M 53 68 "/>
</clipPath>
<clipPath id="clip-9">
<path clip-rule="evenodd" d="M 55.589844 68.542969 L 61.558594 68.542969 C 62.664062 68.542969 63.558594 69.4375 63.558594 70.542969 L 63.558594 76.515625 C 63.558594 77.617188 62.664062 78.515625 61.558594 78.515625 L 55.589844 78.515625 C 54.484375 78.515625 53.589844 77.617188 53.589844 76.515625 L 53.589844 70.542969 C 53.589844 69.4375 54.484375 68.542969 55.589844 68.542969 Z M 55.589844 68.542969 "/>
</clipPath>
<clipPath id="clip-10">
<path clip-rule="nonzero" d="M 38 68 L 49 68 L 49 79 L 38 79 Z M 38 68 "/>
</clipPath>
<clipPath id="clip-11">
<path clip-rule="evenodd" d="M 40.632812 68.542969 L 46.605469 68.542969 C 47.707031 68.542969 48.605469 69.4375 48.605469 70.542969 L 48.605469 76.515625 C 48.605469 77.617188 47.707031 78.515625 46.605469 78.515625 L 40.632812 78.515625 C 39.527344 78.515625 38.632812 77.617188 38.632812 76.515625 L 38.632812 70.542969 C 38.632812 69.4375 39.527344 68.542969 40.632812 68.542969 Z M 40.632812 68.542969 "/>
</clipPath>
<clipPath id="clip-12">
<path clip-rule="nonzero" d="M 23 68 L 34 68 L 34 79 L 23 79 Z M 23 68 "/>
</clipPath>
<clipPath id="clip-13">
<path clip-rule="evenodd" d="M 25.679688 68.542969 L 31.648438 68.542969 C 32.753906 68.542969 33.648438 69.4375 33.648438 70.542969 L 33.648438 76.515625 C 33.648438 77.617188 32.753906 78.515625 31.648438 78.515625 L 25.679688 78.515625 C 24.574219 78.515625 23.679688 77.617188 23.679688 76.515625 L 23.679688 70.542969 C 23.679688 69.4375 24.574219 68.542969 25.679688 68.542969 Z M 25.679688 68.542969 "/>
</clipPath>
<clipPath id="clip-14">
<path clip-rule="nonzero" d="M 8 68 L 19 68 L 19 79 L 8 79 Z M 8 68 "/>
</clipPath>
<clipPath id="clip-15">
<path clip-rule="evenodd" d="M 10.722656 68.542969 L 16.695312 68.542969 C 17.796875 68.542969 18.695312 69.4375 18.695312 70.542969 L 18.695312 76.515625 C 18.695312 77.617188 17.796875 78.515625 16.695312 78.515625 L 10.722656 78.515625 C 9.621094 78.515625 8.722656 77.617188 8.722656 76.515625 L 8.722656 70.542969 C 8.722656 69.4375 9.621094 68.542969 10.722656 68.542969 Z M 10.722656 68.542969 "/>
</clipPath>
<clipPath id="clip-16">
<path clip-rule="nonzero" d="M 83 53 L 94 53 L 94 64 L 83 64 Z M 83 53 "/>
</clipPath>
<clipPath id="clip-17">
<path clip-rule="evenodd" d="M 85.5 53.589844 L 91.46875 53.589844 C 92.574219 53.589844 93.46875 54.484375 93.46875 55.589844 L 93.46875 61.558594 C 93.46875 62.664062 92.574219 63.558594 91.46875 63.558594 L 85.5 63.558594 C 84.394531 63.558594 83.5 62.664062 83.5 61.558594 L 83.5 55.589844 C 83.5 54.484375 84.394531 53.589844 85.5 53.589844 Z M 85.5 53.589844 "/>
</clipPath>
<clipPath id="clip-18">
<path clip-rule="nonzero" d="M 68 53 L 79 53 L 79 64 L 68 64 Z M 68 53 "/>
</clipPath>
<clipPath id="clip-19">
<path clip-rule="evenodd" d="M 70.542969 53.589844 L 76.515625 53.589844 C 77.617188 53.589844 78.515625 54.484375 78.515625 55.589844 L 78.515625 61.558594 C 78.515625 62.664062 77.617188 63.558594 76.515625 63.558594 L 70.542969 63.558594 C 69.4375 63.558594 68.542969 62.664062 68.542969 61.558594 L 68.542969 55.589844 C 68.542969 54.484375 69.4375 53.589844 70.542969 53.589844 Z M 70.542969 53.589844 "/>
</clipPath>
<clipPath id="clip-20">
<path clip-rule="nonzero" d="M 53 53 L 64 53 L 64 64 L 53 64 Z M 53 53 "/>
</clipPath>
<clipPath id="clip-21">
<path clip-rule="evenodd" d="M 55.589844 53.589844 L 61.558594 53.589844 C 62.664062 53.589844 63.558594 54.484375 63.558594 55.589844 L 63.558594 61.558594 C 63.558594 62.664062 62.664062 63.558594 61.558594 63.558594 L 55.589844 63.558594 C 54.484375 63.558594 53.589844 62.664062 53.589844 61.558594 L 53.589844 55.589844 C 53.589844 54.484375 54.484375 53.589844 55.589844 53.589844 Z M 55.589844 53.589844 "/>
</clipPath>
<clipPath id="clip-22">
<path clip-rule="nonzero" d="M 38 53 L 49 53 L 49 64 L 38 64 Z M 38 53 "/>
</clipPath>
<clipPath id="clip-23">
<path clip-rule="evenodd" d="M 40.632812 53.589844 L 46.605469 53.589844 C 47.707031 53.589844 48.605469 54.484375 48.605469 55.589844 L 48.605469 61.558594 C 48.605469 62.664062 47.707031 63.558594 46.605469 63.558594 L 40.632812 63.558594 C 39.527344 63.558594 38.632812 62.664062 38.632812 61.558594 L 38.632812 55.589844 C 38.632812 54.484375 39.527344 53.589844 40.632812 53.589844 Z M 40.632812 53.589844 "/>
</clipPath>
<clipPath id="clip-24">
<path clip-rule="nonzero" d="M 23 53 L 34 53 L 34 64 L 23 64 Z M 23 53 "/>
</clipPath>
<clipPath id="clip-25">
<path clip-rule="evenodd" d="M 25.679688 53.589844 L 31.648438 53.589844 C 32.753906 53.589844 33.648438 54.484375 33.648438 55.589844 L 33.648438 61.558594 C 33.648438 62.664062 32.753906 63.558594 31.648438 63.558594 L 25.679688 63.558594 C 24.574219 63.558594 23.679688 62.664062 23.679688 61.558594 L 23.679688 55.589844 C 23.679688 54.484375 24.574219 53.589844 25.679688 53.589844 Z M 25.679688 53.589844 "/>
</clipPath>
<clipPath id="clip-26">
<path clip-rule="nonzero" d="M 8 53 L 19 53 L 19 64 L 8 64 Z M 8 53 "/>
</clipPath>
<clipPath id="clip-27">
<path clip-rule="evenodd" d="M 10.722656 53.589844 L 16.695312 53.589844 C 17.796875 53.589844 18.695312 54.484375 18.695312 55.589844 L 18.695312 61.558594 C 18.695312 62.664062 17.796875 63.558594 16.695312 63.558594 L 10.722656 63.558594 C 9.621094 63.558594 8.722656 62.664062 8.722656 61.558594 L 8.722656 55.589844 C 8.722656 54.484375 9.621094 53.589844 10.722656 53.589844 Z M 10.722656 53.589844 "/>
</clipPath>
<clipPath id="clip-28">
<path clip-rule="nonzero" d="M 83 38 L 94 38 L 94 49 L 83 49 Z M 83 38 "/>
</clipPath>
<clipPath id="clip-29">
<path clip-rule="evenodd" d="M 85.5 38.632812 L 91.46875 38.632812 C 92.574219 38.632812 93.46875 39.527344 93.46875 40.632812 L 93.46875 46.605469 C 93.46875 47.707031 92.574219 48.605469 91.46875 48.605469 L 85.5 48.605469 C 84.394531 48.605469 83.5 47.707031 83.5 46.605469 L 83.5 40.632812 C 83.5 39.527344 84.394531 38.632812 85.5 38.632812 Z M 85.5 38.632812 "/>
</clipPath>
<clipPath id="clip-30">
<path clip-rule="nonzero" d="M 68 38 L 79 38 L 79 49 L 68 49 Z M 68 38 "/>
</clipPath>
<clipPath id="clip-31">
<path clip-rule="evenodd" d="M 70.542969 38.632812 L 76.515625 38.632812 C 77.617188 38.632812 78.515625 39.527344 78.515625 40.632812 L 78.515625 46.605469 C 78.515625 47.707031 77.617188 48.605469 76.515625 48.605469 L 70.542969 48.605469 C 69.4375 48.605469 68.542969 47.707031 68.542969 46.605469 L 68.542969 40.632812 C 68.542969 39.527344 69.4375 38.632812 70.542969 38.632812 Z M 70.542969 38.632812 "/>
</clipPath>
<clipPath id="clip-32">
<path clip-rule="nonzero" d="M 53 38 L 64 38 L 64 49 L 53 49 Z M 53 38 "/>
</clipPath>
<clipPath id="clip-33">
<path clip-rule="evenodd" d="M 55.589844 38.632812 L 61.558594 38.632812 C 62.664062 38.632812 63.558594 39.527344 63.558594 40.632812 L 63.558594 46.605469 C 63.558594 47.707031 62.664062 48.605469 61.558594 48.605469 L 55.589844 48.605469 C 54.484375 48.605469 53.589844 47.707031 53.589844 46.605469 L 53.589844 40.632812 C 53.589844 39.527344 54.484375 38.632812 55.589844 38.632812 Z M 55.589844 38.632812 "/>
</clipPath>
<clipPath id="clip-34">
<path clip-rule="nonzero" d="M 38 38 L 49 38 L 49 49 L 38 49 Z M 38 38 "/>
</clipPath>
<clipPath id="clip-35">
<path clip-rule="evenodd" d="M 40.632812 38.632812 L 46.605469 38.632812 C 47.707031 38.632812 48.605469 39.527344 48.605469 40.632812 L 48.605469 46.605469 C 48.605469 47.707031 47.707031 48.605469 46.605469 48.605469 L 40.632812 48.605469 C 39.527344 48.605469 38.632812 47.707031 38.632812 46.605469 L 38.632812 40.632812 C 38.632812 39.527344 39.527344 38.632812 40.632812 38.632812 Z M 40.632812 38.632812 "/>
</clipPath>
<clipPath id="clip-36">
<path clip-rule="nonzero" d="M 23 38 L 34 38 L 34 49 L 23 49 Z M 23 38 "/>
</clipPath>
<clipPath id="clip-37">
<path clip-rule="evenodd" d="M 25.679688 38.632812 L 31.648438 38.632812 C 32.753906 38.632812 33.648438 39.527344 33.648438 40.632812 L 33.648438 46.605469 C 33.648438 47.707031 32.753906 48.605469 31.648438 48.605469 L 25.679688 48.605469 C 24.574219 48.605469 23.679688 47.707031 23.679688 46.605469 L 23.679688 40.632812 C 23.679688 39.527344 24.574219 38.632812 25.679688 38.632812 Z M 25.679688 38.632812 "/>
</clipPath>
<clipPath id="clip-38">
<path clip-rule="nonzero" d="M 8 38 L 19 38 L 19 49 L 8 49 Z M 8 38 "/>
</clipPath>
<clipPath id="clip-39">
<path clip-rule="evenodd" d="M 10.722656 38.632812 L 16.695312 38.632812 C 17.796875 38.632812 18.695312 39.527344 18.695312 40.632812 L 18.695312 46.605469 C 18.695312 47.707031 17.796875 48.605469 16.695312 48.605469 L 10.722656 48.605469 C 9.621094 48.605469 8.722656 47.707031 8.722656 46.605469 L 8.722656 40.632812 C 8.722656 39.527344 9.621094 38.632812 10.722656 38.632812 Z M 10.722656 38.632812 "/>
</clipPath>
<clipPath id="clip-40">
<path clip-rule="nonzero" d="M 21 52 L 34 52 L 34 65 L 21 65 Z M 21 52 "/>
</clipPath>
<clipPath id="clip-41">
<path clip-rule="evenodd" d="M 27.808594 63.507812 L 26.261719 64.703125 C 25.667969 65.160156 24.820312 65.054688 24.359375 64.460938 C 24.179688 64.226562 24.078125 63.9375 24.078125 63.640625 L 24.070312 61.683594 C 24.066406 61.1875 23.820312 60.726562 23.414062 60.449219 L 21.796875 59.347656 C 21.179688 58.925781 21.019531 58.085938 21.441406 57.464844 C 21.605469 57.21875 21.851562 57.035156 22.132812 56.941406 L 23.992188 56.328125 C 24.460938 56.175781 24.824219 55.800781 24.960938 55.324219 L 25.511719 53.445312 C 25.71875 52.730469 26.472656 52.316406 27.191406 52.527344 C 27.476562 52.609375 27.726562 52.785156 27.902344 53.023438 L 29.058594 54.601562 C 29.351562 55 29.820312 55.230469 30.316406 55.214844 L 32.269531 55.15625 C 33.019531 55.132812 33.640625 55.722656 33.664062 56.46875 C 33.675781 56.765625 33.585938 57.058594 33.410156 57.300781 L 32.269531 58.890625 C 31.980469 59.289062 31.90625 59.804688 32.074219 60.269531 L 32.734375 62.113281 C 32.988281 62.816406 32.621094 63.59375 31.917969 63.84375 C 31.636719 63.945312 31.332031 63.949219 31.046875 63.859375 L 29.183594 63.265625 C 28.714844 63.113281 28.199219 63.203125 27.808594 63.507812 Z M 27.808594 63.507812 "/>
</clipPath>
<clipPath id="clip-42">
<path clip-rule="nonzero" d="M 53 69 L 64 69 L 64 79 L 53 79 Z M 53 69 "/>
</clipPath>
<clipPath id="clip-43">
<path clip-rule="evenodd" d="M 57.363281 77.585938 L 55.753906 78.195312 C 55.234375 78.390625 54.660156 78.128906 54.464844 77.613281 C 54.386719 77.410156 54.378906 77.183594 54.441406 76.972656 L 54.9375 75.324219 C 55.03125 75.007812 54.964844 74.664062 54.757812 74.410156 L 53.679688 73.066406 C 53.335938 72.636719 53.40625 72.003906 53.835938 71.660156 C 54.007812 71.523438 54.21875 71.445312 54.4375 71.441406 L 56.160156 71.402344 C 56.492188 71.394531 56.792969 71.226562 56.976562 70.949219 L 57.921875 69.511719 C 58.222656 69.050781 58.84375 68.921875 59.304688 69.222656 C 59.488281 69.34375 59.628906 69.523438 59.699219 69.730469 L 60.269531 71.355469 C 60.378906 71.664062 60.632812 71.902344 60.949219 71.988281 L 62.609375 72.445312 C 63.144531 72.589844 63.457031 73.140625 63.3125 73.671875 C 63.253906 73.882812 63.128906 74.070312 62.953125 74.203125 L 61.582031 75.246094 C 61.320312 75.445312 61.171875 75.761719 61.1875 76.089844 L 61.269531 77.8125 C 61.296875 78.363281 60.871094 78.832031 60.320312 78.855469 C 60.101562 78.867188 59.882812 78.804688 59.703125 78.679688 L 58.285156 77.699219 C 58.015625 77.511719 57.671875 77.46875 57.363281 77.585938 Z M 57.363281 77.585938 "/>
</clipPath>
<clipPath id="clip-44">
<path clip-rule="nonzero" d="M 69 40 L 77 40 L 77 48 L 69 48 Z M 69 40 "/>
</clipPath>
<clipPath id="clip-45">
<path clip-rule="evenodd" d="M 71.316406 45.714844 L 70.289062 45.675781 C 69.867188 45.660156 69.535156 45.300781 69.554688 44.878906 C 69.558594 44.710938 69.621094 44.546875 69.730469 44.417969 L 70.386719 43.628906 C 70.597656 43.375 70.667969 43.035156 70.582031 42.71875 L 70.300781 41.726562 C 70.1875 41.320312 70.425781 40.894531 70.832031 40.78125 C 70.992188 40.734375 71.167969 40.746094 71.324219 40.808594 L 72.277344 41.1875 C 72.585938 41.308594 72.929688 41.273438 73.203125 41.089844 L 74.058594 40.519531 C 74.414062 40.285156 74.890625 40.378906 75.125 40.730469 C 75.21875 40.871094 75.261719 41.039062 75.25 41.207031 L 75.183594 42.234375 C 75.164062 42.5625 75.304688 42.878906 75.5625 43.082031 L 76.371094 43.71875 C 76.703125 43.984375 76.761719 44.464844 76.496094 44.796875 C 76.394531 44.929688 76.25 45.023438 76.085938 45.066406 L 75.085938 45.320312 C 74.769531 45.402344 74.511719 45.632812 74.394531 45.941406 L 74.039062 46.90625 C 73.894531 47.304688 73.453125 47.507812 73.054688 47.359375 C 72.894531 47.304688 72.761719 47.195312 72.671875 47.050781 L 72.121094 46.179688 C 71.945312 45.902344 71.644531 45.730469 71.316406 45.714844 Z M 71.316406 45.714844 "/>
</clipPath>
<clipPath id="clip-46">
<path clip-rule="nonzero" d="M 7 51 L 13 51 L 13 57 L 7 57 Z M 7 51 "/>
</clipPath>
<clipPath id="clip-47">
<path clip-rule="evenodd" d="M 9.976562 56.976562 C 11.59375 56.976562 12.902344 55.667969 12.902344 54.050781 C 12.902344 52.4375 11.59375 51.125 9.976562 51.125 C 8.363281 51.125 7.050781 52.4375 7.050781 54.050781 C 7.050781 55.667969 8.363281 56.976562 9.976562 56.976562 Z M 9.976562 56.976562 "/>
</clipPath>
</defs>
<g clip-path="url(#clip-0)">
<g clip-path="url(#clip-1)">
<path fill-rule="nonzero" fill="rgb(100%, 98.823547%, 98.039246%)" fill-opacity="1" d="M 1.492188 31.402344 L 100.699219 31.402344 L 100.699219 89.484375 L 1.492188 89.484375 Z M 1.492188 31.402344 "/>
</g>
</g>
<g clip-path="url(#clip-2)">
<g clip-path="url(#clip-3)">
<path fill-rule="nonzero" fill="rgb(100%, 59.2%, 22.3%)" fill-opacity="1" d="M 1.492188 10.214844 L 100.699219 10.214844 L 100.699219 33.402344 L 1.492188 33.402344 Z M 1.492188 10.214844 "/>
</g>
</g>
<g clip-path="url(#clip-4)">
<g clip-path="url(#clip-5)">
<path fill-rule="nonzero" fill="rgb(100%, 91.764832%, 86.274719%)" fill-opacity="1" d="M 82.5 67.542969 L 94.46875 67.542969 L 94.46875 79.515625 L 82.5 79.515625 Z M 82.5 67.542969 "/>
</g>
</g>
<g clip-path="url(#clip-6)">
<g clip-path="url(#clip-7)">
<path fill-rule="nonzero" fill="rgb(100%, 91.764832%, 86.274719%)" fill-opacity="1" d="M 67.542969 67.542969 L 79.515625 67.542969 L 79.515625 79.515625 L 67.542969 79.515625 Z M 67.542969 67.542969 "/>
</g>
</g>
<g clip-path="url(#clip-8)">
<g clip-path="url(#clip-9)">
<path fill-rule="nonzero" fill="rgb(100%, 91.764832%, 86.274719%)" fill-opacity="1" d="M 52.589844 67.542969 L 64.558594 67.542969 L 64.558594 79.515625 L 52.589844 79.515625 Z M 52.589844 67.542969 "/>
</g>
</g>
<g clip-path="url(#clip-10)">
<g clip-path="url(#clip-11)">
<path fill-rule="nonzero" fill="rgb(100%, 91.764832%, 86.274719%)" fill-opacity="1" d="M 37.632812 67.542969 L 49.605469 67.542969 L 49.605469 79.515625 L 37.632812 79.515625 Z M 37.632812 67.542969 "/>
</g>
</g>
<g clip-path="url(#clip-12)">
<g clip-path="url(#clip-13)">
<path fill-rule="nonzero" fill="rgb(100%, 91.764832%, 86.274719%)" fill-opacity="1" d="M 22.679688 67.542969 L 34.648438 67.542969 L 34.648438 79.515625 L 22.679688 79.515625 Z M 22.679688 67.542969 "/>
</g>
</g>
<g clip-path="url(#clip-14)">
<g clip-path="url(#clip-15)">
<path fill-rule="nonzero" fill="rgb(100%, 91.764832%, 86.274719%)" fill-opacity="1" d="M 7.722656 67.542969 L 19.695312 67.542969 L 19.695312 79.515625 L 7.722656 79.515625 Z M 7.722656 67.542969 "/>
</g>
</g>
<g clip-path="url(#clip-16)">
<g clip-path="url(#clip-17)">
<path fill-rule="nonzero" fill="rgb(100%, 91.764832%, 86.274719%)" fill-opacity="1" d="M 82.5 52.589844 L 94.46875 52.589844 L 94.46875 64.558594 L 82.5 64.558594 Z M 82.5 52.589844 "/>
</g>
</g>
<g clip-path="url(#clip-18)">
<g clip-path="url(#clip-19)">
<path fill-rule="nonzero" fill="rgb(100%, 91.764832%, 86.274719%)" fill-opacity="1" d="M 67.542969 52.589844 L 79.515625 52.589844 L 79.515625 64.558594 L 67.542969 64.558594 Z M 67.542969 52.589844 "/>
</g>
</g>
<g clip-path="url(#clip-20)">
<g clip-path="url(#clip-21)">
<path fill-rule="nonzero" fill="rgb(100%, 91.764832%, 86.274719%)" fill-opacity="1" d="M 52.589844 52.589844 L 64.558594 52.589844 L 64.558594 64.558594 L 52.589844 64.558594 Z M 52.589844 52.589844 "/>
</g>
</g>
<g clip-path="url(#clip-22)">
<g clip-path="url(#clip-23)">
<path fill-rule="nonzero" fill="rgb(100%, 91.764832%, 86.274719%)" fill-opacity="1" d="M 37.632812 52.589844 L 49.605469 52.589844 L 49.605469 64.558594 L 37.632812 64.558594 Z M 37.632812 52.589844 "/>
</g>
</g>
<g clip-path="url(#clip-24)">
<g clip-path="url(#clip-25)">
<path fill-rule="nonzero" fill="rgb(100%, 98.823547%, 98.039246%)" fill-opacity="1" d="M 22.679688 52.589844 L 34.648438 52.589844 L 34.648438 64.558594 L 22.679688 64.558594 Z M 22.679688 52.589844 "/>
</g>
</g>
<g clip-path="url(#clip-26)">
<g clip-path="url(#clip-27)">
<path fill-rule="nonzero" fill="rgb(100%, 91.764832%, 86.274719%)" fill-opacity="1" d="M 7.722656 52.589844 L 19.695312 52.589844 L 19.695312 64.558594 L 7.722656 64.558594 Z M 7.722656 52.589844 "/>
</g>
</g>
<g clip-path="url(#clip-28)">
<g clip-path="url(#clip-29)">
<path fill-rule="nonzero" fill="rgb(100%, 91.764832%, 86.274719%)" fill-opacity="1" d="M 82.5 37.632812 L 94.46875 37.632812 L 94.46875 49.605469 L 82.5 49.605469 Z M 82.5 37.632812 "/>
</g>
</g>
<g clip-path="url(#clip-30)">
<g clip-path="url(#clip-31)">
<path fill-rule="nonzero" fill="rgb(100%, 91.764832%, 86.274719%)" fill-opacity="1" d="M 67.542969 37.632812 L 79.515625 37.632812 L 79.515625 49.605469 L 67.542969 49.605469 Z M 67.542969 37.632812 "/>
</g>
</g>
<g clip-path="url(#clip-32)">
<g clip-path="url(#clip-33)">
<path fill-rule="nonzero" fill="rgb(100%, 91.764832%, 86.274719%)" fill-opacity="1" d="M 52.589844 37.632812 L 64.558594 37.632812 L 64.558594 49.605469 L 52.589844 49.605469 Z M 52.589844 37.632812 "/>
</g>
</g>
<g clip-path="url(#clip-34)">
<g clip-path="url(#clip-35)">
<path fill-rule="nonzero" fill="rgb(100%, 91.764832%, 86.274719%)" fill-opacity="1" d="M 37.632812 37.632812 L 49.605469 37.632812 L 49.605469 49.605469 L 37.632812 49.605469 Z M 37.632812 37.632812 "/>
</g>
</g>
<g clip-path="url(#clip-36)">
<g clip-path="url(#clip-37)">
<path fill-rule="nonzero" fill="rgb(100%, 91.764832%, 86.274719%)" fill-opacity="1" d="M 22.679688 37.632812 L 34.648438 37.632812 L 34.648438 49.605469 L 22.679688 49.605469 Z M 22.679688 37.632812 "/>
</g>
</g>
<g clip-path="url(#clip-38)">
<g clip-path="url(#clip-39)">
<path fill-rule="nonzero" fill="rgb(100%, 91.764832%, 86.274719%)" fill-opacity="1" d="M 7.722656 37.632812 L 19.695312 37.632812 L 19.695312 49.605469 L 7.722656 49.605469 Z M 7.722656 37.632812 "/>
</g>
</g>
<g clip-path="url(#clip-40)">
<g clip-path="url(#clip-41)">
<path fill-rule="nonzero" fill="rgb(76.863098%, 92.549133%, 88.627625%)" fill-opacity="1" d="M 17.664062 51.894531 L 34.105469 48.992188 L 37.027344 65.585938 L 20.589844 68.484375 Z M 17.664062 51.894531 "/>
</g>
</g>
<path fill="none" stroke-width="1" stroke-linecap="butt" stroke-linejoin="miter" stroke="rgb(11.764526%, 49.803162%, 31.764221%)" stroke-opacity="1" stroke-miterlimit="10" d="M 7.164293 12.768358 L 5.433354 13.676899 C 4.769262 14.023884 3.952798 13.772823 3.601967 13.108053 C 3.465708 12.846036 3.415884 12.543729 3.467436 12.251364 L 3.799577 10.322708 C 3.881876 9.833473 3.719562 9.336804 3.367644 8.993129 L 1.966309 7.627481 C 1.431756 7.104841 1.41987 6.249946 1.943188 5.711546 C 2.147492 5.49768 2.421727 5.359609 2.714984 5.316122 L 4.652606 5.035035 C 5.140689 4.966403 5.563569 4.660183 5.780965 4.214602 L 6.649647 2.459883 C 6.977665 1.79185 7.792018 1.514992 8.46322 1.847535 C 8.7298 1.977837 8.945477 2.194359 9.077211 2.459545 L 9.941856 4.214475 C 10.161186 4.657733 10.582794 4.966098 11.074065 5.036856 L 13.007692 5.318309 C 13.750368 5.425464 14.2596 6.114198 14.153124 6.853027 C 14.113113 7.147427 13.97376 7.420343 13.758594 7.628327 L 12.359224 8.99595 C 12.005366 9.33814 11.842737 9.833043 11.927435 10.319992 L 12.257398 12.250366 C 12.38535 12.9869 11.888757 13.688672 11.152902 13.812778 C 10.858289 13.863959 10.557552 13.814897 10.292329 13.676902 L 8.560459 12.768617 C 8.125284 12.53719 7.601892 12.536131 7.164293 12.768358 Z M 7.164293 12.768358 " transform="matrix(0.984808, -0.173648, 0.173648, 0.984808, 18.53594, 52.1775)"/>
<path fill="none" stroke-width="3" stroke-linecap="round" stroke-linejoin="miter" stroke="rgb(100%, 61.177063%, 36.470032%)" stroke-opacity="1" stroke-miterlimit="10" d="M 0.623409 -0.00179375 L 0.623409 8.724769 " transform="matrix(1, 0, 0, 1, 20.66956, 6.8182)"/>
<path fill="none" stroke-width="3" stroke-linecap="round" stroke-linejoin="miter" stroke="rgb(100%, 61.177063%, 36.470032%)" stroke-opacity="1" stroke-miterlimit="10" d="M 0.623757 -0.00179375 L 0.623757 8.724769 " transform="matrix(1, 0, 0, 1, 79.24343, 6.8182)"/>
<g clip-path="url(#clip-42)">
<g clip-path="url(#clip-43)">
<path fill-rule="nonzero" fill="rgb(76.863098%, 92.549133%, 88.627625%)" fill-opacity="1" d="M 52.617188 66.582031 L 65.773438 68.199219 L 64.179688 81.207031 L 51.019531 79.589844 Z M 52.617188 66.582031 "/>
</g>
</g>
<path fill="none" stroke-width="1" stroke-linecap="butt" stroke-linejoin="miter" stroke="rgb(11.764526%, 49.803162%, 31.764221%)" stroke-opacity="1" stroke-miterlimit="10" d="M 5.656176 9.899663 L 4.133061 10.70063 C 3.641205 10.957801 3.039371 10.768013 2.782676 10.280034 C 2.680378 10.087944 2.645013 9.864022 2.68134 9.64704 L 2.972842 7.950431 C 3.027333 7.624958 2.91953 7.291864 2.683098 7.065081 L 1.449248 5.862737 C 1.055694 5.478145 1.048362 4.841481 1.432954 4.447927 C 1.586886 4.291281 1.78673 4.188032 2.003374 4.157496 L 3.708429 3.908785 C 4.037033 3.860567 4.315102 3.657194 4.463528 3.359543 L 5.226607 1.817553 C 5.468972 1.323396 6.069727 1.119758 6.563884 1.362123 C 6.760867 1.45994 6.922342 1.62115 7.017362 1.818069 L 7.781461 3.361453 C 7.927628 3.654417 8.208681 3.859979 8.533202 3.906716 L 10.236682 4.158018 C 10.785463 4.236253 11.162757 4.744845 11.084046 5.289749 C 11.051596 5.506255 10.950378 5.707591 10.792093 5.860836 L 9.558325 7.063124 C 9.322836 7.292754 9.214065 7.624892 9.269562 7.948667 L 9.560921 9.648485 C 9.655184 10.191829 9.289703 10.708974 8.745883 10.79936 C 8.530192 10.837651 8.305455 10.802275 8.111874 10.700106 L 6.584985 9.899752 C 6.294613 9.746497 5.948188 9.745741 5.656176 9.899663 Z M 5.656176 9.899663 " transform="matrix(0.992546, 0.121869, -0.121869, 0.992546, 52.95573, 67.07075)"/>
<g clip-path="url(#clip-44)">
<g clip-path="url(#clip-45)">
<path fill="none" stroke-width="2" stroke-linecap="butt" stroke-linejoin="miter" stroke="rgb(11.764526%, 49.803162%, 31.764221%)" stroke-opacity="1" stroke-miterlimit="5" d="M 3.98577 7.265143 L 3.076533 7.744986 C 2.703366 7.942392 2.236131 7.79718 2.042108 7.42206 C 1.961507 7.274641 1.933602 7.101309 1.96387 6.934986 L 2.137668 5.923512 C 2.193392 5.598154 2.084363 5.268685 1.851736 5.037638 L 1.112072 4.319003 C 0.810843 4.023821 0.80431 3.535943 1.099492 3.234713 C 1.214754 3.11404 1.372844 3.036298 1.539411 3.0123 L 2.554294 2.86388 C 2.882091 2.814453 3.162209 2.612132 3.307216 2.316417 L 3.762918 1.394777 C 3.953575 1.014068 4.413165 0.856977 4.791921 1.044251 C 4.943424 1.119161 5.06462 1.243142 5.138456 1.394466 L 5.594618 2.317375 C 5.741766 2.611306 6.021754 2.815009 6.346589 2.862014 L 7.365211 3.009132 C 7.785571 3.073154 8.076549 3.459955 8.012527 3.880315 C 7.990977 4.046116 7.912684 4.199571 7.792086 4.318814 L 7.053014 5.038704 C 6.820014 5.267948 6.711976 5.596446 6.764786 5.92229 L 6.939363 6.935603 C 7.013414 7.352926 6.732707 7.749541 6.313431 7.820209 C 6.147388 7.852926 5.977682 7.824611 5.827609 7.744365 L 4.915072 7.265366 C 4.624169 7.11307 4.277747 7.114613 3.98577 7.265143 Z M 3.98577 7.265143 " transform="matrix(0.866025, 0.5, -0.5, 0.866025, 71.4972, 37.43016)"/>
</g>
</g>
<path fill="none" stroke-width="1" stroke-linecap="round" stroke-linejoin="round" stroke="rgb(94.902039%, 37.254333%, 14.117432%)" stroke-opacity="1" stroke-miterlimit="10" d="M 0.00068125 42.131344 C 4.7624 42.131344 7.754587 39.936031 8.977244 35.549312 C 10.809275 28.967281 13.219431 21.830562 18.430369 21.830562 C 23.645212 21.830562 24.360056 24.971187 23.750681 26.752437 C 23.145212 28.537594 19.258494 30.576656 14.820994 27.814937 C 10.383494 25.053219 8.988962 16.756344 13.711619 12.002437 C 18.430369 7.248531 21.297556 8.842281 25.309275 7.248531 C 27.98115 6.186031 29.422556 3.771969 29.629587 -0.00146875 " transform="matrix(1, 0, 0, 1, 65.8001, 42.11475)"/>
<path fill="none" stroke-width="1" stroke-linecap="round" stroke-linejoin="round" stroke="rgb(100%, 61.177063%, 36.470032%)" stroke-opacity="1" stroke-miterlimit="10" d="M -0.00172306 44.470038 C 2.494782 38.082034 7.901394 34.888086 16.22168 34.886605 C 28.703699 34.887953 33.685301 18.619319 26.476296 13.09754 C 21.237097 9.080436 12.086288 9.079684 12.086108 12.440639 C 12.087517 15.805163 17.328823 18.799383 24.699328 14.743882 C 27.41559 13.248037 29.432647 11.199763 30.743361 8.602236 C 33.789408 2.555361 40.663192 -0.522148 47.203408 1.230992 " transform="matrix(-0.913546, -0.406737, 0.406737, -0.913546, 53.57099, 61.83564)"/>
<g clip-path="url(#clip-46)">
<g clip-path="url(#clip-47)">
<path fill-rule="nonzero" fill="rgb(100%, 61.177063%, 36.470032%)" fill-opacity="1" d="M 6.050781 50.125 L 13.902344 50.125 L 13.902344 57.976562 L 6.050781 57.976562 Z M 6.050781 50.125 "/>
</g>
</g>
</svg>
