<svg width="56" height="56" viewBox="0 0 56 56" fill="none" xmlns="http://www.w3.org/2000/svg">
<g clip-path="url(#clip0_256_1601)">
<path fill-rule="evenodd" clip-rule="evenodd" d="M47.9486 39.216L39.2669 42.9408L39.1222 42.9999L38.9872 42.9506L28.164 39.62L28.0193 39.5708L27.8843 39.62L17.0418 42.9506L16.8971 42.9999L16.7621 42.9408L8.08041 39.216C7.27977 38.9303 6.83604 38.0533 7.0772 37.2354L7.50163 35.7376L7.81996 34.6439L11.6688 21.3216C11.9293 20.4347 12.865 19.942 13.7235 20.2475L18.4116 21.9423L18.5466 21.9916L18.6913 21.9325L27.8843 18.6118L28.0193 18.5625L28.164 18.6216L37.3473 21.9325L37.492 21.9916L37.627 21.9423L42.3151 20.2475C43.1737 19.9322 44.1094 20.4347 44.3698 21.3216L48.209 34.6439L48.5274 35.7376L48.9518 37.2354C49.193 38.0533 48.7492 38.9303 47.9582 39.216H47.9486Z" fill="#F3C8B3"/>
<path fill-rule="evenodd" clip-rule="evenodd" d="M18.537 21.9817L18.402 21.9325L17.1479 37.935L17.0418 39.1273L16.7524 42.9309L16.8875 42.99L17.0322 42.9407L17.3216 39.147L17.4277 37.9153L18.6817 21.9226L18.537 21.9817Z" fill="white"/>
<path fill-rule="evenodd" clip-rule="evenodd" d="M38.582 37.9251L38.6688 39.1568L38.9775 42.9505L39.1126 42.9998L39.2573 42.9406L38.9486 39.1371L38.8618 37.9448L37.6077 21.9422L37.4727 21.9915L37.328 21.9324L38.582 37.9251Z" fill="white"/>
<path fill-rule="evenodd" clip-rule="evenodd" d="M27.8746 18.6019V39.6102L28.0097 39.5609L28.1544 39.6102V18.6216L28.0097 18.5625L27.8746 18.6118V18.6019Z" fill="white"/>
<path fill-rule="evenodd" clip-rule="evenodd" d="M48.5081 35.7277L38.9582 39.1272C38.8714 39.1469 38.7653 39.1765 38.6785 39.1469C38.6592 39.1469 38.6303 39.1371 38.611 39.1371L28.1544 35.8164L28.0097 35.7671L27.8746 35.8164L17.4084 39.1371C17.4084 39.1371 17.3505 39.1469 17.3312 39.1469C17.2926 39.1568 17.2734 39.1568 17.2444 39.1568C17.1769 39.1568 17.119 39.1469 17.0515 39.1272L7.492 35.7277L7.81033 34.6339C7.81033 34.6339 7.82962 34.6339 7.84892 34.6339L17.148 37.9448L17.2541 37.9842L17.4373 37.9251L27.8457 34.624H27.8843C27.9711 34.5846 28.0772 34.5846 28.164 34.624H28.1833L38.5917 37.9251L38.775 37.9842L38.8811 37.9448L48.1705 34.6339C48.1705 34.6339 48.1898 34.624 48.1994 34.6339L48.5177 35.7277H48.5081Z" fill="#FFFAF8"/>
<path fill-rule="evenodd" clip-rule="evenodd" d="M18.6817 12.3646C18.074 12.1281 17.418 12 16.7524 12C16.0868 12 15.4309 12.1281 14.8231 12.3646C12.4887 13.2514 11.2637 15.5868 11.7363 18.0207C11.9293 18.9962 12.4405 19.9126 13.1833 20.7009L15.7299 23.3713C16.2894 23.9526 17.2058 23.9526 17.7653 23.3713L20.3119 20.7009C21.0547 19.9126 21.5756 18.9962 21.7588 18.0207C22.2315 15.5868 21.0064 13.2514 18.672 12.3646H18.6817Z" fill="#F55F24"/>
<path d="M16.6077 16.4047C17.4015 16.4047 18.045 15.7473 18.045 14.9365C18.045 14.1256 17.4015 13.4683 16.6077 13.4683C15.8139 13.4683 15.1704 14.1256 15.1704 14.9365C15.1704 15.7473 15.8139 16.4047 16.6077 16.4047Z" fill="white"/>
<path d="M16.299 16.9368H17.2058C18.4405 16.9368 19.4341 17.9616 19.4341 19.213C19.4341 19.7747 18.9904 20.2279 18.4405 20.2279H15.0643C14.5145 20.2279 14.0707 19.7747 14.0707 19.213C14.0707 17.9517 15.074 16.9368 16.299 16.9368Z" fill="white"/>
<path fill-rule="evenodd" clip-rule="evenodd" d="M43.3473 16.2668C42.5756 15.9711 41.746 15.8135 40.9067 15.8135C40.0675 15.8135 39.2379 15.9711 38.4566 16.2668C35.4952 17.3999 33.9518 20.3561 34.5498 23.4403C34.791 24.6819 35.4469 25.8446 36.3826 26.8399L39.6045 30.2197C40.3183 30.9587 41.4759 30.9587 42.1897 30.2197L45.4116 26.8399C46.3569 25.8446 47.0129 24.6819 47.2444 23.4403C47.8424 20.3462 46.299 17.3901 43.3376 16.2668H43.3473Z" fill="#F55F24"/>
<path d="M40.7234 21.4005C41.7303 21.4005 42.5466 20.5667 42.5466 19.5381C42.5466 18.5096 41.7303 17.6758 40.7234 17.6758C39.7166 17.6758 38.9003 18.5096 38.9003 19.5381C38.9003 20.5667 39.7166 21.4005 40.7234 21.4005Z" fill="white"/>
<path d="M40.328 22.0706H41.4855C43.0482 22.0706 44.3119 23.3614 44.3119 24.9577C44.3119 25.6672 43.7427 26.2486 43.0482 26.2486H38.7653C38.0707 26.2486 37.5016 25.6672 37.5016 24.9577C37.5016 23.3614 38.7653 22.0706 40.328 22.0706Z" fill="white"/>
<path d="M16.2991 25.5391C16.2991 25.5391 16.164 25.9135 16.029 26.485" stroke="#653825" stroke-width="0.66" stroke-miterlimit="10" stroke-linecap="round"/>
<path d="M15.7589 28.436C15.7203 30.1309 16.2508 32.0129 18.6817 32.4564C20.9872 32.8801 27.5852 24.1398 30.2283 26.2091C32.8714 28.2784 33.0161 34.2202 35.7267 34.9099C37.656 35.3928 39.045 34.841 39.9036 34.0428" stroke="#653825" stroke-width="0.66" stroke-miterlimit="10" stroke-linecap="round" stroke-dasharray="1.32 1.32"/>
<path d="M40.5209 33.2939C40.7139 32.9786 40.8489 32.6731 40.9068 32.3972" stroke="#653825" stroke-width="0.66" stroke-miterlimit="10" stroke-linecap="round"/>
</g>
<defs>
<clipPath id="clip0_256_1601">
<rect width="42" height="31" fill="white" transform="translate(7 12)"/>
</clipPath>
</defs>
</svg>
