<svg width="100" height="89" viewBox="0 0 100 89" fill="none" xmlns="http://www.w3.org/2000/svg">
<mask id="mask0_6_12664" style="mask-type:luminance" maskUnits="userSpaceOnUse" x="0" y="0" width="99" height="89">
<path fill-rule="evenodd" clip-rule="evenodd" d="M0.883789 0.0854492H98.7867V88.7961H0.883789V0.0854492Z" fill="white"/>
</mask>
<g mask="url(#mask0_6_12664)">
<path fill-rule="evenodd" clip-rule="evenodd" d="M89.074 8.44067C89.074 8.44067 71.0893 -10.3586 49.8342 8.44067C28.5812 -10.3586 10.5964 8.44067 10.5964 8.44067C10.5964 8.44067 -8.20486 26.4254 6.50956 55.0377C15.7721 73.049 30.5417 82.3157 40.2156 86.7075C46.347 89.4928 53.3235 89.4928 59.4549 86.7075C69.1287 82.3157 83.8984 73.049 93.1609 55.0377C107.875 26.4254 89.074 8.44067 89.074 8.44067Z" fill="#FAE8DC"/>
</g>
<path fill-rule="evenodd" clip-rule="evenodd" d="M66.6313 14.4625C66.6313 14.4625 70.7264 20.6491 77.924 23.3955C82.4222 25.1105 84.7634 28.4893 85.887 30.7834C86.9287 32.9077 88.1156 34.9583 89.5032 36.8738L90.7925 38.6482C91.654 39.8351 93.0047 40.5719 94.47 40.6517C95.8044 40.7233 96.7847 39.4136 96.3365 38.1529L88.7214 16.7587C88.7214 16.7587 83.511 2.32258 73.438 1.11719L66.6313 14.4625Z" fill="#FFB096"/>
<mask id="mask1_6_12664" style="mask-type:luminance" maskUnits="userSpaceOnUse" x="48" y="0" width="37" height="68">
<path fill-rule="evenodd" clip-rule="evenodd" d="M48.5332 0H84.2997V67.9069H48.5332V0Z" fill="white"/>
</mask>
<g mask="url(#mask1_6_12664)">
<path fill-rule="evenodd" clip-rule="evenodd" d="M48.5351 52.4863L48.5494 52.2632V52.2202L49.7364 19.1854L49.7958 17.54C49.7958 17.362 49.8101 17.1839 49.8101 17.0202C49.8694 16.2487 49.9881 15.4792 50.1519 14.7363C51.9753 6.31493 59.4635 -0.000610352 68.4477 -0.000610352C71.6648 -0.000610352 74.6895 0.799576 77.3295 2.22395L77.3582 2.29762V2.31195H77.3725V2.32627L82.8592 24.9239L82.9329 26.6429L82.9492 26.6736L83.1109 30.3205L84.2979 55.423C84.3429 56.4442 83.5264 57.2894 82.5338 57.2894C82.4745 57.2894 82.4151 57.2751 82.3558 57.2751C81.5986 57.2014 80.9907 56.6673 80.8127 55.9408L75.7414 35.9546L75.416 34.6489L75.4754 36.0733L76.6767 65.3568V65.4591C76.6767 66.7934 75.6084 67.8904 74.2598 67.9067C73.0441 67.9211 71.9922 67.0308 71.8142 65.8295L67.4694 37.4076L67.2177 35.8215L67.187 35.6128L66.2088 35.4511L66.1945 35.6885L66.0614 37.2746L64.0292 62.7311C63.9392 63.828 63.0203 64.6589 61.9541 64.6589C61.8947 64.6589 61.819 64.6446 61.7617 64.6446C60.7528 64.5546 59.9669 63.7544 59.8769 62.7618L57.2676 33.7443L57.2532 33.5376L57.2246 33.7013L53.1172 53.0491C52.8942 54.146 51.9303 54.8889 50.8784 54.8889C50.7003 54.8889 50.5223 54.8725 50.3442 54.8295C49.2473 54.5921 48.4901 53.5975 48.5351 52.4863Z" fill="#FFB096"/>
</g>
<path d="M82.945 26.6728C81.7027 25.402 80.0492 24.2068 77.9249 23.3923C70.7314 20.6459 66.6343 14.4613 66.6343 14.4613" stroke="#BB826B" stroke-width="0.75" stroke-linecap="round"/>
<path d="M65.0273 35.4691C65.0273 35.4691 66.6195 35.8559 68.1339 35.8825" stroke="#BB826B" stroke-width="0.75" stroke-linecap="round"/>
<path fill-rule="evenodd" clip-rule="evenodd" d="M32.8693 14.6646C32.8693 14.6646 28.3158 20.5218 20.9299 22.7115C16.315 24.0806 13.7221 27.2712 12.4267 29.4712C11.2274 31.5115 9.889 33.4659 8.35821 35.2689L6.93793 36.943C5.98835 38.0604 4.58649 38.6907 3.11914 38.66C1.78072 38.6293 0.904815 37.2479 1.44714 36.0261L10.6687 15.2745C10.6687 15.2745 16.9617 1.27431 27.0961 0.840454L32.8693 14.6646Z" fill="#FFB096"/>
<path fill-rule="evenodd" clip-rule="evenodd" d="M49.2785 17.8671L49.2928 21.4546V21.471L48.0178 53.065V53.11C47.9441 54.207 47.1276 55.0972 46.047 55.2609C45.9283 55.2752 45.8096 55.2896 45.7052 55.2896C44.5633 55.2896 43.5544 54.4444 43.407 53.2737L40.9451 34.7405L40.9164 34.5031L40.7834 33.5085L40.5746 34.7098L40.5296 35.0066V35.0209L35.9352 62.436C35.7715 63.4306 34.9263 64.1571 33.9173 64.1714H33.858C32.7324 64.1714 31.7971 63.2525 31.7971 62.0963L31.7235 37.9126V37.5279L31.7091 34.9616V34.7262L30.7002 34.8142L30.6552 35.0066L30.0638 37.5565L29.9737 37.9433L23.8055 64.5869C23.5231 65.7882 22.4118 66.5884 21.1962 66.484C19.9212 66.3653 18.9717 65.299 18.9717 64.0527C18.9717 63.9484 18.9717 63.8604 18.988 63.756L22.2481 36.0605L22.3075 35.6001L22.5756 33.2282L21.8491 35.377L21.716 35.7924L15.5908 54.0453C15.3391 54.7554 14.6883 55.2302 13.9454 55.2609H13.9168C12.8485 55.2609 12.0176 54.3257 12.1363 53.2737L15.0424 29.8166L15.1181 29.2538L15.5478 25.695L15.8876 22.9526L22.6349 2.23989L22.7536 1.8838C25.1542 0.756173 27.8392 0.134033 30.6552 0.134033C40.4559 0.134033 48.5069 7.68157 49.2928 17.2736C49.2928 17.4659 49.2785 17.6747 49.2785 17.8671Z" fill="#FFB096"/>
<path d="M15.6743 25.5982C17.0086 24.4256 18.7482 23.3593 20.9298 22.7106C28.3115 20.5188 32.8671 14.6637 32.8671 14.6637" stroke="#BB826B" stroke-width="0.75" stroke-linecap="round"/>
<path d="M32.8698 34.8359C32.8698 34.8359 31.2531 35.0999 29.7407 35.0119" stroke="#BB826B" stroke-width="0.75" stroke-linecap="round"/>
<path d="M48.29 52.2442L49.5036 16.9214" stroke="#BB826B" stroke-width="0.75" stroke-linecap="round"/>
</svg>
