<?xml version="1.0" encoding="UTF-8"?>
<svg xmlns="http://www.w3.org/2000/svg" xmlns:xlink="http://www.w3.org/1999/xlink" width="42" height="47" viewBox="0 0 42 47">
<path fill-rule="nonzero" fill="rgb(96.078491%, 37.254333%, 14.117432%)" fill-opacity="1" d="M 11.796875 5.421875 C 13.460938 5.128906 15.058594 6.246094 15.355469 7.914062 L 17.519531 20.1875 C 17.59375 20.605469 17.3125 21.003906 16.894531 21.078125 C 16.472656 21.148438 16.078125 20.871094 16.003906 20.453125 L 13.839844 8.179688 C 13.695312 7.347656 12.898438 6.789062 12.0625 6.9375 C 11.660156 7.007812 11.304688 7.230469 11.070312 7.566406 C 10.835938 7.902344 10.746094 8.3125 10.816406 8.714844 L 13.65625 24.136719 C 15.398438 23.214844 19.34375 21.503906 24.617188 21.503906 C 30.613281 21.503906 34.191406 24.613281 35.144531 25.570312 C 36.109375 26.535156 36.367188 28.199219 36.121094 29.347656 C 36.023438 29.785156 33.796875 40.164062 33.023438 42.484375 C 32.285156 44.703125 31.390625 46.078125 29.222656 46.078125 L 16.167969 46.078125 C 14.277344 46.078125 12.636719 43.703125 12.457031 43.433594 L 0.699219 24.601562 C 0.226562 23.824219 -0.484375 22.65625 0.738281 21.433594 C 1.476562 20.699219 2.40625 20.320312 3.425781 20.351562 C 4.832031 20.390625 6.324219 21.183594 7.523438 22.527344 L 13.671875 29.441406 C 13.953125 29.757812 13.925781 30.242188 13.605469 30.527344 C 13.289062 30.808594 12.804688 30.777344 12.523438 30.460938 L 6.378906 23.550781 C 5.472656 22.535156 4.355469 21.914062 3.382812 21.886719 C 2.792969 21.871094 2.261719 22.082031 1.824219 22.519531 C 1.519531 22.828125 1.457031 22.890625 2.007812 23.792969 L 13.75 42.601562 C 14.164062 43.222656 15.324219 44.542969 16.167969 44.542969 L 29.316406 44.542969 C 30.171875 44.527344 30.804688 44.285156 31.566406 41.996094 C 32.3125 39.757812 34.59375 29.128906 34.617188 29.023438 C 34.773438 28.304688 34.585938 27.183594 34.058594 26.65625 C 33.207031 25.808594 30.023438 23.039062 24.617188 23.039062 C 18.015625 23.039062 13.566406 25.953125 13.523438 25.984375 C 13.523438 25.984375 13.523438 25.984375 13.519531 25.984375 C 13.476562 26.011719 13.421875 26.023438 13.371094 26.042969 C 13.328125 26.0625 13.285156 26.089844 13.238281 26.097656 C 13.238281 26.097656 13.238281 26.097656 13.234375 26.097656 C 13.1875 26.109375 13.140625 26.113281 13.097656 26.113281 C 13.066406 26.113281 13.039062 26.101562 13.011719 26.097656 C 12.972656 26.09375 12.933594 26.085938 12.898438 26.078125 C 12.84375 26.0625 12.792969 26.039062 12.742188 26.015625 C 12.710938 25.996094 12.679688 25.980469 12.648438 25.957031 C 12.59375 25.917969 12.550781 25.871094 12.507812 25.820312 C 12.492188 25.800781 12.472656 25.789062 12.457031 25.769531 L 12.453125 25.753906 C 12.40625 25.683594 12.375 25.605469 12.355469 25.519531 C 12.351562 25.507812 12.34375 25.496094 12.34375 25.484375 C 12.34375 25.484375 12.339844 25.484375 12.339844 25.484375 L 9.304688 8.988281 C 9.160156 8.171875 9.339844 7.359375 9.8125 6.6875 C 10.28125 6.015625 10.988281 5.566406 11.796875 5.421875 Z M 17.703125 30.71875 L 17.808594 30.726562 C 18.058594 30.761719 23.992188 31.644531 26.121094 38.953125 C 26.238281 39.359375 26.007812 39.785156 25.597656 39.90625 C 25.527344 39.925781 25.453125 39.9375 25.382812 39.9375 C 25.050781 39.9375 24.746094 39.71875 24.648438 39.382812 C 22.804688 33.066406 17.808594 32.277344 17.597656 32.25 C 17.179688 32.1875 16.886719 31.800781 16.945312 31.382812 C 17.003906 30.964844 17.386719 30.671875 17.808594 30.726562 Z M 22.652344 24.707031 C 23.003906 24.472656 23.480469 24.566406 23.71875 24.917969 C 23.746094 24.960938 26.644531 29.183594 31.527344 29.183594 C 31.953125 29.183594 32.296875 29.527344 32.296875 29.953125 C 32.296875 30.375 31.953125 30.71875 31.527344 30.71875 C 25.808594 30.71875 22.578125 25.972656 22.441406 25.769531 C 22.207031 25.417969 22.300781 24.941406 22.652344 24.707031 Z M 36.464844 12.589844 C 36.996094 11.210938 38.425781 10.597656 39.925781 11.140625 C 40.605469 11.386719 41.074219 11.789062 41.324219 12.335938 C 41.613281 12.976562 41.582031 13.742188 41.222656 14.683594 L 37.785156 24.414062 C 37.671875 24.726562 37.375 24.925781 37.058594 24.925781 C 36.976562 24.925781 36.890625 24.910156 36.804688 24.878906 C 36.40625 24.738281 36.195312 24.300781 36.335938 23.902344 L 39.78125 14.152344 C 39.988281 13.613281 40.035156 13.210938 39.925781 12.972656 C 39.898438 12.914062 39.816406 12.734375 39.402344 12.585938 C 38.691406 12.328125 38.125 12.554688 37.878906 13.1875 L 33.992188 21.550781 C 33.8125 21.9375 33.359375 22.105469 32.972656 21.925781 C 32.585938 21.746094 32.421875 21.289062 32.597656 20.90625 Z M 27.734375 6.378906 C 28.03125 4.710938 29.625 3.59375 31.292969 3.886719 C 32.960938 4.183594 34.078125 5.777344 33.785156 7.445312 L 31.511719 20.34375 C 31.445312 20.714844 31.121094 20.976562 30.753906 20.976562 C 30.710938 20.976562 30.667969 20.972656 30.621094 20.964844 C 30.203125 20.894531 29.925781 20.492188 30 20.078125 L 32.273438 7.179688 C 32.417969 6.34375 31.863281 5.546875 31.027344 5.398438 C 30.199219 5.253906 29.394531 5.8125 29.246094 6.644531 L 26.984375 19.46875 C 26.914062 19.886719 26.515625 20.164062 26.097656 20.089844 C 25.679688 20.015625 25.402344 19.621094 25.472656 19.203125 Z M 21.542969 0 C 23.246094 0 24.632812 1.378906 24.632812 3.070312 L 24.632812 19.40625 C 24.632812 19.832031 24.289062 20.175781 23.863281 20.175781 C 23.441406 20.175781 23.097656 19.832031 23.097656 19.40625 L 23.097656 3.070312 C 23.097656 2.226562 22.402344 1.535156 21.542969 1.535156 C 20.707031 1.535156 20.023438 2.226562 20.023438 3.070312 L 20.023438 19.96875 C 20.023438 20.390625 19.679688 20.734375 19.257812 20.734375 C 18.832031 20.734375 18.488281 20.390625 18.488281 19.96875 L 18.488281 3.070312 C 18.488281 1.378906 19.859375 0 21.542969 0 Z M 21.542969 0 "/>
</svg>
