<svg width="30" height="30" viewBox="0 0 30 30" fill="none" xmlns="http://www.w3.org/2000/svg">
<path fill-rule="evenodd" clip-rule="evenodd" d="M22.5 2.5125L7.5 2.5C6.1125 2.5 5 3.6125 5 5V25C5 26.3875 6.1125 27.5 7.5 27.5H22.5C23.8875 27.5 25 26.3875 25 25V5C25 3.6125 23.8875 2.5125 22.5 2.5125ZM13.75 6.25C13.75 5.5625 13.1875 5 12.5 5C11.8125 5 11.25 5.5625 11.25 6.25C11.25 6.9375 11.8125 7.5 12.5 7.5C13.1875 7.5 13.75 6.9375 13.75 6.25ZM11.4625 21.0375C13.4125 22.9875 16.5875 22.9875 18.5375 21.0375C20.4875 19.0875 20.4875 15.9125 18.5375 13.9625L11.4625 21.0375ZM8.75 5C9.4375 5 10 5.5625 10 6.25C10 6.9375 9.4375 7.5 8.75 7.5C8.0625 7.5 7.5 6.9375 7.5 6.25C7.5 5.5625 8.0625 5 8.75 5ZM7.5 17.5C7.5 21.6375 10.8625 25 15 25C19.1375 25 22.5 21.6375 22.5 17.5C22.5 13.3625 19.1375 10 15 10C10.8625 10 7.5 13.3625 7.5 17.5Z" fill="black"/>
</svg>
