<?xml version="1.0" encoding="UTF-8"?>
<svg xmlns="http://www.w3.org/2000/svg" xmlns:xlink="http://www.w3.org/1999/xlink" width="25" height="25" viewBox="0 0 25 25">
<defs>
<clipPath id="clip-0">
<path clip-rule="nonzero" d="M 6 10 L 9 10 L 9 14 L 6 14 Z M 6 10 "/>
</clipPath>
<clipPath id="clip-1">
<path clip-rule="evenodd" d="M 8.953125 12.175781 C 8.953125 12.847656 8.40625 13.394531 7.730469 13.394531 C 7.054688 13.394531 6.507812 12.847656 6.507812 12.175781 C 6.507812 11.5 7.054688 10.953125 7.730469 10.953125 C 8.40625 10.953125 8.953125 11.5 8.953125 12.175781 "/>
</clipPath>
<clipPath id="clip-2">
<path clip-rule="nonzero" d="M 10 10 L 14 10 L 14 14 L 10 14 Z M 10 10 "/>
</clipPath>
<clipPath id="clip-3">
<path clip-rule="evenodd" d="M 13.394531 12.175781 C 13.394531 12.847656 12.847656 13.394531 12.175781 13.394531 C 11.5 13.394531 10.953125 12.847656 10.953125 12.175781 C 10.953125 11.5 11.5 10.953125 12.175781 10.953125 C 12.847656 10.953125 13.394531 11.5 13.394531 12.175781 "/>
</clipPath>
<clipPath id="clip-4">
<path clip-rule="nonzero" d="M 15 10 L 18 10 L 18 14 L 15 14 Z M 15 10 "/>
</clipPath>
<clipPath id="clip-5">
<path clip-rule="evenodd" d="M 17.839844 12.175781 C 17.839844 12.847656 17.292969 13.394531 16.617188 13.394531 C 15.941406 13.394531 15.394531 12.847656 15.394531 12.175781 C 15.394531 11.5 15.941406 10.953125 16.617188 10.953125 C 17.292969 10.953125 17.839844 11.5 17.839844 12.175781 "/>
</clipPath>
<clipPath id="clip-6">
<path clip-rule="nonzero" d="M 14.882812 0 L 9.464844 0 C 4.257812 0 0 4.257812 0 9.464844 L 0 14.882812 C 0 20.089844 4.257812 24.347656 9.464844 24.347656 L 14.882812 24.347656 C 20.09375 24.347656 24.347656 20.09375 24.347656 14.882812 L 24.347656 9.464844 C 24.347656 4.257812 20.09375 0 14.882812 0 Z M 9.464844 2.398438 L 14.882812 2.398438 C 18.765625 2.398438 21.949219 5.582031 21.949219 9.464844 L 21.949219 14.882812 C 21.949219 18.765625 18.765625 21.949219 14.882812 21.949219 L 9.464844 21.949219 C 5.582031 21.949219 2.398438 18.765625 2.398438 14.882812 L 2.398438 9.464844 C 2.398438 5.582031 5.582031 2.398438 9.464844 2.398438 Z M 9.464844 2.398438 "/>
</clipPath>
</defs>
<g clip-path="url(#clip-0)">
<g clip-path="url(#clip-1)">
<path fill-rule="nonzero" fill="rgb(100%, 59.215546%, 22.3526%)" fill-opacity="1" d="M 5.507812 9.953125 L 9.953125 9.953125 L 9.953125 14.394531 L 5.507812 14.394531 Z M 5.507812 9.953125 "/>
</g>
</g>
<g clip-path="url(#clip-2)">
<g clip-path="url(#clip-3)">
<path fill-rule="nonzero" fill="rgb(100%, 59.215546%, 22.3526%)" fill-opacity="1" d="M 9.953125 9.953125 L 14.394531 9.953125 L 14.394531 14.394531 L 9.953125 14.394531 Z M 9.953125 9.953125 "/>
</g>
</g>
<g clip-path="url(#clip-4)">
<g clip-path="url(#clip-5)">
<path fill-rule="nonzero" fill="rgb(100%, 59.215546%, 22.3526%)" fill-opacity="1" d="M 14.394531 9.953125 L 18.839844 9.953125 L 18.839844 14.394531 L 14.394531 14.394531 Z M 14.394531 9.953125 "/>
</g>
</g>
<g clip-path="url(#clip-6)">
<rect x="-2.5" y="-2.5" width="30" height="30" fill="rgb(100%, 59.215546%, 22.3526%)" fill-opacity="1"/>
</g>
</svg>
