<?xml version="1.0" encoding="UTF-8"?>
<svg xmlns="http://www.w3.org/2000/svg" xmlns:xlink="http://www.w3.org/1999/xlink" width="18" height="18" viewBox="0 0 18 18">
<defs>
<clipPath id="clip-0">
<path clip-rule="nonzero" d="M 12.007812 7.511719 C 12.007812 7.78125 11.863281 8.027344 11.632812 8.160156 C 11.398438 8.292969 11.113281 8.292969 10.882812 8.160156 C 10.652344 8.027344 10.507812 7.78125 10.507812 7.511719 C 10.507812 6.71875 10.191406 5.957031 9.628906 5.394531 C 9.066406 4.832031 8.304688 4.515625 7.511719 4.515625 C 7.246094 4.515625 6.996094 4.375 6.863281 4.140625 C 6.730469 3.910156 6.730469 3.625 6.863281 3.394531 C 6.996094 3.160156 7.246094 3.019531 7.511719 3.019531 C 8.703125 3.019531 9.847656 3.492188 10.6875 4.335938 C 11.53125 5.179688 12.003906 6.320312 12.007812 7.511719 Z M 17.777344 17.777344 C 17.636719 17.921875 17.449219 18 17.25 18 C 17.050781 18 16.859375 17.921875 16.71875 17.777344 L 12.25 13.308594 C 10.757812 14.527344 8.859375 15.125 6.9375 14.980469 C 5.019531 14.835938 3.230469 13.960938 1.9375 12.535156 C 0.648438 11.105469 -0.046875 9.238281 0.00390625 7.3125 C 0.0507812 5.390625 0.835938 3.558594 2.195312 2.195312 C 3.558594 0.835938 5.390625 0.0507812 7.3125 0.00390625 C 9.238281 -0.046875 11.105469 0.648438 12.53125 1.9375 C 13.960938 3.230469 14.835938 5.019531 14.980469 6.9375 C 15.125 8.859375 14.527344 10.757812 13.308594 12.25 L 17.777344 16.71875 C 17.921875 16.859375 18 17.050781 18 17.25 C 18 17.449219 17.921875 17.640625 17.777344 17.777344 Z M 13.503906 7.511719 C 13.503906 5.921875 12.871094 4.398438 11.75 3.273438 C 10.625 2.152344 9.101562 1.519531 7.511719 1.519531 C 5.921875 1.519531 4.398438 2.152344 3.277344 3.273438 C 2.152344 4.398438 1.519531 5.921875 1.519531 7.511719 C 1.519531 9.101562 2.152344 10.625 3.277344 11.75 C 4.398438 12.871094 5.921875 13.503906 7.511719 13.503906 C 9.101562 13.503906 10.625 12.871094 11.746094 11.746094 C 12.871094 10.625 13.503906 9.101562 13.503906 7.511719 Z M 13.503906 7.511719 "/>
</clipPath>
</defs>
<g clip-path="url(#clip-0)">
<rect x="-1.8" y="-1.8" width="21.6" height="21.6" fill="rgb(96.078491%, 37.254333%, 14.117432%)" fill-opacity="1"/>
</g>
</svg>
