<?xml version="1.0" encoding="UTF-8"?>
<svg xmlns="http://www.w3.org/2000/svg" xmlns:xlink="http://www.w3.org/1999/xlink" width="20" height="20" viewBox="0 0 20 20">
<defs>
<clipPath id="clip-0">
<path clip-rule="nonzero" d="M 5 1 L 15 1 L 15 11 L 5 11 Z M 5 1 "/>
</clipPath>
<clipPath id="clip-1">
<path clip-rule="evenodd" d="M 10 1 C 12.652344 1 14.800781 3.148438 14.800781 5.800781 C 14.800781 8.449219 12.652344 10.601562 10 10.601562 C 7.347656 10.601562 5.199219 8.449219 5.199219 5.800781 C 5.199219 3.148438 7.347656 1 10 1 Z M 10 3 C 8.453125 3 7.199219 4.253906 7.199219 5.800781 C 7.199219 7.347656 8.453125 8.601562 10 8.601562 C 11.546875 8.601562 12.800781 7.347656 12.800781 5.800781 C 12.800781 4.253906 11.546875 3 10 3 Z M 10 3 "/>
</clipPath>
<clipPath id="clip-2">
<path clip-rule="nonzero" d="M 2 11 L 18 11 L 18 20 L 2 20 Z M 2 11 "/>
</clipPath>
<clipPath id="clip-3">
<path clip-rule="evenodd" d="M 10 11.199219 C 13.425781 11.199219 16.382812 13.261719 17.757812 16.246094 C 18.5625 17.992188 17.269531 20 15.386719 20 L 4.613281 20 C 2.730469 20 1.4375 17.992188 2.242188 16.246094 C 3.617188 13.261719 6.570312 11.199219 10 11.199219 Z M 10 13.199219 C 7.441406 13.199219 5.144531 14.726562 4.058594 17.082031 C 3.878906 17.472656 4.144531 17.933594 4.527344 17.992188 L 4.613281 18 L 15.386719 18 C 15.816406 18 16.132812 17.5 15.941406 17.082031 C 14.855469 14.726562 12.554688 13.199219 10 13.199219 Z M 10 13.199219 "/>
</clipPath>
</defs>
<g clip-path="url(#clip-0)">
<g clip-path="url(#clip-1)">
<path fill-rule="nonzero" fill="rgb(100%, 59.2%, 22.3%)" fill-opacity="1" d="M 4.199219 0 L 15.800781 0 L 15.800781 11.601562 L 4.199219 11.601562 Z M 4.199219 0 "/>
</g>
</g>
<g clip-path="url(#clip-2)">
<g clip-path="url(#clip-3)">
<path fill-rule="nonzero" fill="rgb(100%, 59.2%, 22.3%)" fill-opacity="1" d="M 0.4375 10.199219 L 19.5625 10.199219 L 19.5625 21 L 0.4375 21 Z M 0.4375 10.199219 "/>
</g>
</g>
</svg>
