<?xml version="1.0" encoding="UTF-8"?>
<svg xmlns="http://www.w3.org/2000/svg" xmlns:xlink="http://www.w3.org/1999/xlink" width="34" height="34" viewBox="0 0 34 34">
<defs>
<clipPath id="clip-0">
<path clip-rule="nonzero" d="M 0 5 L 34 5 L 34 31 L 0 31 Z M 0 5 "/>
</clipPath>
<clipPath id="clip-1">
<path clip-rule="evenodd" d="M 12.863281 5.101562 L 9.875 5.101562 C 8.175781 5.101562 6.546875 5.800781 5.351562 7.039062 L 0.476562 12.109375 C -0.160156 12.765625 -0.160156 13.808594 0.476562 14.464844 L 5.675781 19.875 L 5.839844 20.023438 C 6.34375 20.429688 7.03125 20.503906 7.605469 20.242188 L 7.695312 20.195312 L 7.695312 28.898438 C 7.695312 29.839844 8.457031 30.601562 9.394531 30.601562 L 24.605469 30.601562 L 24.800781 30.589844 C 25.648438 30.492188 26.304688 29.773438 26.304688 28.898438 L 26.300781 20.195312 L 26.394531 20.242188 C 27.03125 20.53125 27.808594 20.410156 28.320312 19.875 L 33.523438 14.464844 C 34.160156 13.808594 34.160156 12.765625 33.523438 12.109375 L 28.648438 7.039062 C 27.453125 5.800781 25.824219 5.101562 24.125 5.101562 L 21.136719 5.101562 C 20.367188 5.101562 19.699219 5.613281 19.496094 6.351562 C 19.171875 7.527344 18.152344 8.339844 17 8.339844 C 15.925781 8.339844 14.960938 7.632812 14.574219 6.578125 L 14.5 6.347656 C 14.300781 5.613281 13.628906 5.101562 12.863281 5.101562 Z M 22.125 8.78125 L 22.28125 8.5 L 24.125 8.5 L 24.410156 8.515625 C 25.078125 8.585938 25.710938 8.894531 26.199219 9.398438 L 29.941406 13.289062 L 27.097656 16.242188 L 25.828125 14.925781 L 25.6875 14.792969 C 24.609375 13.890625 22.902344 14.640625 22.902344 16.105469 L 22.902344 27.199219 L 11.09375 27.199219 L 11.09375 16.105469 C 11.09375 14.574219 9.230469 13.824219 8.167969 14.925781 L 6.898438 16.242188 L 4.058594 13.289062 L 7.800781 9.398438 L 8.019531 9.195312 C 8.542969 8.746094 9.199219 8.5 9.875 8.5 L 11.714844 8.5 L 11.875 8.785156 C 12.9375 10.574219 14.851562 11.742188 17 11.742188 C 19.148438 11.742188 21.0625 10.574219 22.125 8.78125 Z M 22.125 8.78125 "/>
</clipPath>
</defs>
<g clip-path="url(#clip-0)">
<g clip-path="url(#clip-1)">
<path fill-rule="nonzero" fill="rgb(96.078491%, 37.254333%, 14.117432%)" fill-opacity="1" d="M -1 4.101562 L 35 4.101562 L 35 31.601562 L -1 31.601562 Z M -1 4.101562 "/>
</g>
</g>
</svg>
