<svg width="20" height="20" viewBox="0 0 20 20" fill="none" xmlns="http://www.w3.org/2000/svg">
<path d="M17 0H4.27001C3.5682 0.000233904 2.88868 0.246509 2.34969 0.695976C1.81069 1.14544 1.44633 1.76965 1.32001 2.46L0.0500073 9.46C-0.0291243 9.89244 -0.0122479 10.337 0.099442 10.7622C0.211132 11.1874 0.414906 11.5828 0.696343 11.9206C0.977781 12.2583 1.33 12.53 1.72809 12.7166C2.12617 12.9031 2.56039 12.9999 3.00001 13H7.56001L7.00001 14.43C6.76707 15.0561 6.6895 15.7294 6.77394 16.3921C6.85838 17.0548 7.10232 17.6871 7.48482 18.2348C7.86732 18.7825 8.37698 19.2292 8.97007 19.5367C9.56316 19.8441 10.222 20.0031 10.89 20C11.0824 19.9996 11.2705 19.9437 11.4319 19.8391C11.5933 19.7344 11.7211 19.5854 11.8 19.41L14.65 13H17C17.7957 13 18.5587 12.6839 19.1213 12.1213C19.6839 11.5587 20 10.7956 20 10V3C20 2.20435 19.6839 1.44129 19.1213 0.87868C18.5587 0.316071 17.7957 0 17 0ZM13 11.79L10.28 17.91C10.0017 17.8258 9.74358 17.6855 9.52155 17.4978C9.29952 17.31 9.11828 17.0788 8.98899 16.8183C8.8597 16.5579 8.78511 16.2737 8.76981 15.9834C8.75451 15.693 8.79881 15.4026 8.90001 15.13L9.43001 13.7C9.54294 13.3977 9.58107 13.0727 9.54113 12.7525C9.5012 12.4323 9.38439 12.1265 9.20067 11.8613C9.01696 11.596 8.77179 11.3791 8.4861 11.2292C8.20041 11.0792 7.88267 11.0006 7.56001 11H3.00001C2.8531 11.0002 2.70794 10.9681 2.57485 10.9059C2.44177 10.8437 2.32403 10.7529 2.23001 10.64C2.13367 10.5287 2.06311 10.3975 2.02335 10.2557C1.98359 10.114 1.97562 9.96518 2.00001 9.82L3.27001 2.82C3.3126 2.58704 3.43649 2.37676 3.61962 2.2266C3.80274 2.07644 4.03322 1.99614 4.27001 2H13V11.79ZM18 10C18 10.2652 17.8947 10.5196 17.7071 10.7071C17.5196 10.8946 17.2652 11 17 11H15V2H17C17.2652 2 17.5196 2.10536 17.7071 2.29289C17.8947 2.48043 18 2.73478 18 3V10Z" fill="#F55F24"/>
</svg>
