<svg width="24" height="24" viewBox="0 0 24 24" fill="none" xmlns="http://www.w3.org/2000/svg">
<path fill-rule="evenodd" clip-rule="evenodd" d="M21.091 8.72728C21.091 11.1374 19.1373 13.0909 16.7275 13.0909C14.3175 13.0909 12.3638 11.1374 12.3638 8.72728C12.3638 6.31717 14.3175 4.36365 16.7275 4.36365C19.1373 4.36365 21.091 6.31717 21.091 8.72728Z" fill="#F55F24"/>
<path fill-rule="evenodd" clip-rule="evenodd" d="M21.6251 22.5454H11.8295C10.1181 22.5454 8.94479 20.7201 9.67595 19.132C10.9237 16.4212 13.6112 14.5454 16.7263 14.5454C19.8412 14.5454 22.5301 16.421 23.7785 19.1315C24.5101 20.7197 23.3368 22.5454 21.6251 22.5454Z" fill="#F55F24"/>
<path fill-rule="evenodd" clip-rule="evenodd" d="M7.27293 10.1818C4.86288 10.1818 2.90918 8.22828 2.90918 5.81816C2.90918 3.40805 4.86288 1.45453 7.27293 1.45453C9.68276 1.45453 11.6365 3.40805 11.6365 5.81816C11.6365 8.22828 9.68276 10.1818 7.27293 10.1818Z" fill="#F55F24"/>
<path fill-rule="evenodd" clip-rule="evenodd" d="M2.37493 19.6364C0.663481 19.6364 -0.509798 17.8111 0.221357 16.2229C1.46907 13.5122 4.15658 11.6364 7.27173 11.6364C10.3867 11.6364 13.0755 13.512 14.3239 16.2224C15.0555 17.8106 13.8822 19.6364 12.1705 19.6364H2.37493Z" fill="#F55F24"/>
<rect width="24" height="24" stroke="#FFEADC"/>
</svg>
