<?xml version="1.0" encoding="UTF-8"?>
<svg xmlns="http://www.w3.org/2000/svg" xmlns:xlink="http://www.w3.org/1999/xlink" width="21" height="20" viewBox="0 0 21 20">
<defs>
<clipPath id="clip-0">
<path clip-rule="nonzero" d="M 0 2 L 21 2 L 21 20 L 0 20 Z M 0 2 "/>
</clipPath>
<clipPath id="clip-1">
<path clip-rule="nonzero" d="M 17.773438 2.390625 C 19.394531 2.390625 20.730469 3.628906 20.824219 5.203125 L 20.832031 5.382812 L 20.832031 9.992188 C 20.832031 10.546875 20.382812 10.992188 19.832031 10.992188 C 19.316406 10.992188 18.894531 10.609375 18.835938 10.109375 L 18.832031 9.992188 L 18.832031 5.382812 C 18.832031 4.875 18.425781 4.449219 17.890625 4.394531 L 17.773438 4.390625 L 3.886719 4.390625 C 3.335938 4.390625 2.894531 4.78125 2.839844 5.273438 L 2.832031 5.382812 L 2.832031 17.007812 C 2.832031 17.511719 3.238281 17.9375 3.773438 17.992188 L 3.886719 18 L 10.210938 18 C 10.761719 18 11.210938 18.449219 11.210938 19 C 11.210938 19.511719 10.824219 19.933594 10.328125 19.992188 L 10.210938 20 L 3.886719 20 C 2.265625 20 0.929688 18.761719 0.835938 17.183594 L 0.832031 17.007812 L 0.832031 5.382812 C 0.832031 3.78125 2.109375 2.484375 3.710938 2.394531 L 3.886719 2.390625 Z M 17.773438 2.390625 "/>
</clipPath>
<clipPath id="clip-2">
<path clip-rule="nonzero" d="M 0 8 L 21 8 L 21 11 L 0 11 Z M 0 8 "/>
</clipPath>
<clipPath id="clip-3">
<path clip-rule="nonzero" d="M 19.832031 8.078125 C 20.382812 8.078125 20.832031 8.527344 20.832031 9.078125 C 20.832031 9.589844 20.445312 10.015625 19.949219 10.070312 L 19.832031 10.078125 L 1.832031 10.078125 C 1.277344 10.078125 0.832031 9.628906 0.832031 9.078125 C 0.832031 8.566406 1.21875 8.144531 1.714844 8.085938 L 1.832031 8.078125 Z M 19.832031 8.078125 "/>
</clipPath>
<clipPath id="clip-4">
<path clip-rule="nonzero" d="M 5 0 L 8 0 L 8 7 L 5 7 Z M 5 0 "/>
</clipPath>
<clipPath id="clip-5">
<path clip-rule="nonzero" d="M 6.597656 0 C 7.109375 0 7.535156 0.386719 7.589844 0.882812 L 7.597656 1 L 7.597656 5.328125 C 7.597656 5.878906 7.152344 6.328125 6.597656 6.328125 C 6.085938 6.328125 5.664062 5.941406 5.605469 5.441406 L 5.597656 5.328125 L 5.597656 1 C 5.597656 0.449219 6.046875 0 6.597656 0 Z M 6.597656 0 "/>
</clipPath>
<clipPath id="clip-6">
<path clip-rule="nonzero" d="M 14 0 L 17 0 L 17 7 L 14 7 Z M 14 0 "/>
</clipPath>
<clipPath id="clip-7">
<path clip-rule="nonzero" d="M 15.046875 0 C 15.558594 0 15.980469 0.386719 16.039062 0.882812 L 16.046875 1 L 16.046875 5.328125 C 16.046875 5.878906 15.597656 6.328125 15.046875 6.328125 C 14.53125 6.328125 14.109375 5.941406 14.050781 5.441406 L 14.046875 5.328125 L 14.046875 1 C 14.046875 0.449219 14.492188 0 15.046875 0 Z M 15.046875 0 "/>
</clipPath>
<clipPath id="clip-8">
<path clip-rule="nonzero" d="M 12 11 L 21 11 L 21 20 L 12 20 Z M 12 11 "/>
</clipPath>
<clipPath id="clip-9">
<path clip-rule="nonzero" d="M 19.136719 12.230469 C 19.53125 11.84375 20.164062 11.855469 20.550781 12.25 C 20.90625 12.617188 20.921875 13.183594 20.613281 13.574219 L 20.527344 13.664062 L 14.28125 19.71875 C 13.882812 20.101562 13.25 20.09375 12.867188 19.695312 C 12.511719 19.328125 12.492188 18.761719 12.804688 18.375 L 12.890625 18.28125 Z M 19.136719 12.230469 "/>
</clipPath>
<clipPath id="clip-10">
<path clip-rule="nonzero" d="M 12 11 L 21 11 L 21 20 L 12 20 Z M 12 11 "/>
</clipPath>
<clipPath id="clip-11">
<path clip-rule="nonzero" d="M 12.867188 12.25 C 13.222656 11.886719 13.789062 11.847656 14.1875 12.148438 L 14.28125 12.230469 L 20.527344 18.28125 C 20.925781 18.667969 20.933594 19.300781 20.550781 19.695312 C 20.195312 20.0625 19.628906 20.097656 19.230469 19.800781 L 19.136719 19.71875 L 12.890625 13.664062 C 12.492188 13.28125 12.484375 12.648438 12.867188 12.25 Z M 12.867188 12.25 "/>
</clipPath>
</defs>
<g clip-path="url(#clip-0)">
<g clip-path="url(#clip-1)">
<path fill-rule="nonzero" fill="rgb(100%, 100%, 100%)" fill-opacity="1" d="M -0.167969 1.390625 L 21.832031 1.390625 L 21.832031 21 L -0.167969 21 Z M -0.167969 1.390625 "/>
</g>
</g>
<g clip-path="url(#clip-2)">
<g clip-path="url(#clip-3)">
<path fill-rule="nonzero" fill="rgb(100%, 100%, 100%)" fill-opacity="1" d="M -0.167969 7.078125 L 21.832031 7.078125 L 21.832031 11.078125 L -0.167969 11.078125 Z M -0.167969 7.078125 "/>
</g>
</g>
<g clip-path="url(#clip-4)">
<g clip-path="url(#clip-5)">
<path fill-rule="nonzero" fill="rgb(100%, 100%, 100%)" fill-opacity="1" d="M 4.597656 -1 L 8.597656 -1 L 8.597656 7.328125 L 4.597656 7.328125 Z M 4.597656 -1 "/>
</g>
</g>
<g clip-path="url(#clip-6)">
<g clip-path="url(#clip-7)">
<path fill-rule="nonzero" fill="rgb(100%, 100%, 100%)" fill-opacity="1" d="M 13.046875 -1 L 17.046875 -1 L 17.046875 7.328125 L 13.046875 7.328125 Z M 13.046875 -1 "/>
</g>
</g>
<g clip-path="url(#clip-8)">
<g clip-path="url(#clip-9)">
<path fill-rule="nonzero" fill="rgb(100%, 100%, 100%)" fill-opacity="1" d="M 11.492188 10.84375 L 21.921875 10.84375 L 21.921875 21 L 11.492188 21 Z M 11.492188 10.84375 "/>
</g>
</g>
<g clip-path="url(#clip-10)">
<g clip-path="url(#clip-11)">
<path fill-rule="nonzero" fill="rgb(100%, 100%, 100%)" fill-opacity="1" d="M 11.484375 10.847656 L 21.933594 10.847656 L 21.933594 21 L 11.484375 21 Z M 11.484375 10.847656 "/>
</g>
</g>
</svg>
