<svg width="16" height="16" viewBox="0 0 16 16" fill="none" xmlns="http://www.w3.org/2000/svg">
<path d="M10.1187 1.08748C8.925 0.74685 7.67812 1.43748 7.3375 2.63123L7.15938 3.25623C7.04375 3.66248 6.83438 4.03748 6.55 4.34998L4.94688 6.11248C4.66875 6.41873 4.69062 6.89373 4.99687 7.17185C5.30312 7.44998 5.77813 7.4281 6.05625 7.12185L7.65938 5.35935C8.1 4.87498 8.42188 4.29685 8.6 3.66873L8.77812 3.04373C8.89062 2.64685 9.30625 2.4156 9.70625 2.5281C10.1062 2.6406 10.3344 3.05623 10.2219 3.45623L10.0437 4.08123C9.86562 4.7031 9.58437 5.2906 9.2125 5.8156C9.05 6.04373 9.03125 6.34373 9.15938 6.59373C9.2875 6.84373 9.54375 6.99998 9.825 6.99998H14C14.275 6.99998 14.5 7.22498 14.5 7.49998C14.5 7.71248 14.3656 7.89685 14.175 7.96873C13.9438 8.05623 13.7688 8.24998 13.7094 8.4906C13.65 8.73123 13.7125 8.98435 13.875 9.16873C13.9531 9.25622 14 9.37185 14 9.49998C14 9.74372 13.825 9.94685 13.5938 9.9906C13.3375 10.0406 13.1219 10.2187 13.0312 10.4656C12.9406 10.7125 12.9812 10.9875 13.1438 11.1937C13.2094 11.2781 13.25 11.3844 13.25 11.5031C13.25 11.7125 13.1187 11.8969 12.9312 11.9687C12.5719 12.1094 12.3781 12.4969 12.4812 12.8687C12.4937 12.9093 12.5 12.9562 12.5 13.0031C12.5 13.2781 12.275 13.5031 12 13.5031H8.95312C8.55937 13.5031 8.17188 13.3875 7.84375 13.1687L5.91563 11.8843C5.57188 11.6531 5.10625 11.7469 4.875 12.0937C4.64375 12.4406 4.7375 12.9031 5.08437 13.1343L7.0125 14.4187C7.5875 14.8031 8.2625 15.0062 8.95312 15.0062H12C13.0844 15.0062 13.9656 14.1437 14 13.0687C14.4563 12.7031 14.75 12.1406 14.75 11.5062C14.75 11.3656 14.7344 11.2312 14.7094 11.1C15.1906 10.7344 15.5 10.1562 15.5 9.50623C15.5 9.3031 15.4688 9.10623 15.4125 8.92185C15.775 8.5531 16 8.0531 16 7.49998C16 6.39685 15.1062 5.49998 14 5.49998H11.1156C11.2625 5.17498 11.3875 4.83748 11.4844 4.49373L11.6625 3.86873C12.0031 2.67498 11.3125 1.4281 10.1187 1.08748ZM1 5.99998C0.446875 5.99998 0 6.44685 0 6.99998V14C0 14.5531 0.446875 15 1 15H3C3.55312 15 4 14.5531 4 14V6.99998C4 6.44685 3.55312 5.99998 3 5.99998H1Z" fill="#FF9739"/>
</svg>
