<?xml version="1.0" encoding="UTF-8"?>
<svg xmlns="http://www.w3.org/2000/svg" xmlns:xlink="http://www.w3.org/1999/xlink" width="8" height="8" viewBox="0 0 8 8">
<defs>
<clipPath id="clip-0">
<path clip-rule="nonzero" d="M 4 0 C 4.46875 0 4.929688 0.0820312 5.359375 0.242188 C 7 0.847656 7.863281 2.425781 7.53125 4.078125 C 7.394531 4.742188 7.035156 5.363281 6.511719 5.894531 L 4.71875 7.699219 C 4.324219 8.101562 3.675781 8.101562 3.28125 7.699219 L 1.492188 5.894531 C 0.964844 5.363281 0.605469 4.742188 0.46875 4.078125 C 0.136719 2.429688 1 0.847656 2.640625 0.242188 C 3.070312 0.0820312 3.53125 0 4 0 Z M 4 0.800781 C 3.625 0.800781 3.261719 0.867188 2.917969 0.992188 C 1.648438 1.460938 1 2.652344 1.253906 3.917969 C 1.355469 4.421875 1.636719 4.90625 2.058594 5.332031 L 3.847656 7.136719 C 3.933594 7.222656 4.070312 7.222656 4.152344 7.136719 L 5.941406 5.332031 C 6.363281 4.90625 6.644531 4.421875 6.746094 3.917969 C 7 2.652344 6.351562 1.460938 5.082031 0.992188 C 4.738281 0.867188 4.375 0.800781 4 0.800781 Z M 4 2 C 4.882812 2 5.601562 2.714844 5.601562 3.601562 C 5.601562 4.484375 4.882812 5.199219 4 5.199219 C 3.117188 5.199219 2.398438 4.484375 2.398438 3.601562 C 2.398438 2.714844 3.117188 2 4 2 Z M 4 2.800781 C 3.558594 2.800781 3.199219 3.15625 3.199219 3.601562 C 3.199219 4.042969 3.558594 4.398438 4 4.398438 C 4.441406 4.398438 4.800781 4.042969 4.800781 3.601562 C 4.800781 3.15625 4.441406 2.800781 4 2.800781 Z M 4 2.800781 "/>
</clipPath>
</defs>
<g clip-path="url(#clip-0)">
<rect x="-0.8" y="-0.8" width="9.6" height="9.6" fill="rgb(0%, 0%, 0%)" fill-opacity="1"/>
</g>
</svg>
