<svg width="30" height="30" viewBox="0 0 30 30" fill="none" xmlns="http://www.w3.org/2000/svg">
<circle cx="15" cy="15" r="15" fill="#FFEADC"/>
<path fill-rule="evenodd" clip-rule="evenodd" d="M15 5C20.5228 5 25 9.47715 25 15C25 20.5228 20.5228 25 15 25C9.47715 25 5 20.5228 5 15C5 9.47715 9.47715 5 15 5ZM15 7C10.5817 7 7 10.5817 7 15C7 19.4183 10.5817 23 15 23C19.4183 23 23 19.4183 23 15C23 10.5817 19.4183 7 15 7Z" fill="#FF9739"/>
<path fill-rule="evenodd" clip-rule="evenodd" d="M20.6705 7.91203C21.061 7.52151 21.6942 7.52151 22.0847 7.91203C22.4452 8.27252 22.4729 8.83975 22.1679 9.23204L22.0847 9.32625L9.32283 22.0881C8.93231 22.4787 8.29914 22.4787 7.90862 22.0881C7.54813 21.7276 7.5204 21.1604 7.82543 20.7681L7.90862 20.6739L20.6705 7.91203Z" fill="#FF9739"/>
</svg>
