<?xml version="1.0" encoding="UTF-8"?>
<svg xmlns="http://www.w3.org/2000/svg" xmlns:xlink="http://www.w3.org/1999/xlink" width="34" height="34" viewBox="0 0 34 34">
<path fill-rule="nonzero" fill="rgb(100%, 59.2%, 22.3%)" fill-opacity="1" d="M 5.824219 11.761719 L 10.277344 11.761719 C 10.644531 11.761719 10.941406 11.464844 10.941406 11.097656 C 10.941406 10.730469 10.644531 10.433594 10.277344 10.433594 L 5.824219 10.433594 C 5.457031 10.433594 5.160156 10.730469 5.160156 11.097656 C 5.160156 11.464844 5.457031 11.761719 5.824219 11.761719 Z M 5.824219 11.761719 "/>
<path fill-rule="nonzero" fill="rgb(100%, 59.2%, 22.3%)" fill-opacity="1" d="M 6.71875 7.992188 L 9.382812 7.992188 C 9.75 7.992188 10.046875 7.695312 10.046875 7.328125 C 10.046875 6.960938 9.75 6.664062 9.382812 6.664062 L 6.71875 6.664062 C 6.351562 6.664062 6.054688 6.960938 6.054688 7.328125 C 6.054688 7.695312 6.351562 7.992188 6.71875 7.992188 Z M 6.71875 7.992188 "/>
<path fill-rule="nonzero" fill="rgb(100%, 59.2%, 22.3%)" fill-opacity="1" d="M 10.375 26.4375 L 14.949219 30.851562 C 15.078125 30.976562 15.242188 31.039062 15.410156 31.039062 C 15.574219 31.039062 15.742188 30.976562 15.871094 30.851562 L 20.445312 26.4375 C 20.449219 26.433594 20.457031 26.429688 20.460938 26.421875 C 21.964844 24.863281 21.964844 22.324219 20.460938 20.761719 C 19.804688 20.085938 18.910156 19.734375 17.941406 19.773438 C 17.03125 19.8125 16.148438 20.1875 15.464844 20.828125 C 15.464844 20.828125 15.414062 20.875 15.410156 20.882812 C 15.402344 20.875 15.351562 20.828125 15.351562 20.828125 C 14.667969 20.1875 13.785156 19.8125 12.875 19.773438 C 11.90625 19.734375 11.007812 20.085938 10.355469 20.761719 C 8.851562 22.324219 8.851562 24.863281 10.355469 26.421875 C 10.363281 26.429688 10.367188 26.433594 10.375 26.4375 Z M 11.3125 21.683594 C 12.195312 20.769531 13.625 21.03125 14.445312 21.800781 C 14.445312 21.800781 15.03125 22.34375 15.410156 22.34375 C 15.789062 22.34375 16.371094 21.796875 16.371094 21.796875 C 17.191406 21.03125 18.621094 20.769531 19.503906 21.683594 C 20.515625 22.734375 20.519531 24.441406 19.511719 25.492188 L 15.410156 29.453125 L 11.304688 25.492188 C 10.296875 24.441406 10.300781 22.734375 11.3125 21.683594 Z M 11.3125 21.683594 "/>
<path fill-rule="nonzero" fill="rgb(100%, 59.2%, 22.3%)" fill-opacity="1" d="M 30.558594 8.007812 L 30.566406 8.007812 C 32.089844 8.007812 33.332031 6.769531 33.335938 5.246094 C 33.339844 3.925781 32.414062 2.816406 31.175781 2.535156 C 30.90625 1.296875 29.800781 0.363281 28.480469 0.359375 L 28.472656 0.359375 C 26.949219 0.359375 25.707031 1.59375 25.703125 3.117188 C 25.699219 3.660156 25.859375 4.1875 26.148438 4.636719 L 23.613281 7.15625 C 23.085938 6.949219 22.601562 7.050781 22.246094 7.207031 C 21.773438 6.800781 21.238281 6.464844 20.757812 6.183594 C 20.394531 5.96875 20.324219 5.503906 20.3125 4.324219 C 20.789062 4.082031 21.117188 3.585938 21.117188 3.015625 L 21.117188 1.46875 C 21.117188 0.660156 20.457031 0 19.648438 0 L 14.898438 0 C 14.089844 0 13.429688 0.660156 13.429688 1.46875 L 13.429688 3.015625 C 13.429688 3.585938 13.757812 4.082031 14.230469 4.324219 C 14.222656 5.503906 14.152344 5.96875 13.789062 6.183594 C 13.558594 6.320312 13.308594 6.472656 13.058594 6.636719 C 12.8125 5.574219 12.480469 4.589844 12.0625 3.726562 C 11.035156 1.59375 9.609375 0.417969 8.050781 0.417969 C 6.492188 0.417969 5.066406 1.59375 4.035156 3.726562 C 3.082031 5.707031 2.554688 8.324219 2.554688 11.097656 C 2.554688 11.933594 2.605469 12.753906 2.699219 13.550781 L 1.96875 13.550781 C 0.882812 13.550781 0 14.433594 0 15.519531 L 0 16.171875 C 0 17.253906 0.878906 18.132812 1.957031 18.140625 L 1.957031 29.90625 C 1.957031 32.164062 3.792969 34 6.050781 34 L 24.765625 34 C 27.023438 34 28.859375 32.164062 28.859375 29.90625 L 28.859375 18.140625 C 29.941406 18.132812 30.816406 17.253906 30.816406 16.171875 L 30.816406 15.519531 C 30.816406 14.433594 29.933594 13.550781 28.847656 13.550781 L 25.117188 13.550781 C 25.207031 13.410156 26.191406 12 26.445312 11.4375 C 26.601562 11.082031 26.703125 10.601562 26.503906 10.070312 L 29.042969 7.546875 C 29.488281 7.839844 30.015625 8.003906 30.558594 8.007812 Z M 14.757812 1.46875 C 14.757812 1.394531 14.820312 1.328125 14.898438 1.328125 L 19.648438 1.328125 C 19.722656 1.328125 19.789062 1.394531 19.789062 1.46875 L 19.789062 3.015625 C 19.789062 3.09375 19.722656 3.15625 19.648438 3.15625 L 14.898438 3.15625 C 14.820312 3.15625 14.757812 3.09375 14.757812 3.015625 Z M 13.328125 8.078125 C 13.691406 7.792969 14.097656 7.542969 14.464844 7.328125 C 15.410156 6.769531 15.542969 5.800781 15.558594 4.484375 L 18.988281 4.484375 C 19.003906 5.800781 19.136719 6.769531 20.082031 7.328125 C 20.382812 7.503906 20.703125 7.703125 21.007812 7.917969 C 20.859375 8.019531 20.710938 8.121094 20.570312 8.21875 C 20.253906 8.433594 19.953125 8.640625 19.761719 8.738281 C 18.511719 9.367188 17.632812 9.542969 16.78125 9.714844 C 15.765625 9.921875 14.796875 10.117188 13.542969 11.058594 C 13.542969 11.058594 13.542969 11.054688 13.542969 11.054688 C 13.542969 10.035156 13.46875 9.035156 13.328125 8.078125 Z M 5.234375 4.304688 C 6.015625 2.679688 7.042969 1.746094 8.050781 1.746094 C 9.058594 1.746094 10.082031 2.679688 10.867188 4.304688 C 11.738281 6.105469 12.214844 8.519531 12.214844 11.097656 C 12.214844 11.5 12.203125 11.898438 12.183594 12.289062 C 11.832031 12.675781 11.53125 13.09375 11.285156 13.550781 L 4.035156 13.550781 C 3.9375 12.757812 3.882812 11.933594 3.882812 11.097656 C 3.882812 8.519531 4.363281 6.105469 5.234375 4.304688 Z M 29.488281 15.519531 L 29.488281 16.171875 C 29.488281 16.523438 29.203125 16.8125 28.847656 16.8125 L 13.480469 16.8125 C 13.113281 16.8125 12.816406 17.109375 12.816406 17.476562 C 12.816406 17.84375 13.113281 18.140625 13.480469 18.140625 L 27.53125 18.140625 L 27.53125 29.90625 C 27.53125 31.429688 26.289062 32.671875 24.765625 32.671875 L 6.050781 32.671875 C 4.527344 32.671875 3.285156 31.429688 3.285156 29.90625 L 3.285156 18.140625 L 15.882812 18.140625 C 16.25 18.140625 16.546875 17.84375 16.546875 17.476562 C 16.546875 17.109375 16.25 16.8125 15.882812 16.8125 L 1.96875 16.8125 C 1.617188 16.8125 1.328125 16.523438 1.328125 16.171875 L 1.328125 15.519531 C 1.328125 15.164062 1.617188 14.878906 1.96875 14.878906 L 28.847656 14.878906 C 29.203125 14.878906 29.488281 15.164062 29.488281 15.519531 Z M 25.234375 10.894531 C 25.03125 11.339844 23.855469 13.027344 23.714844 13.300781 C 23.671875 13.386719 23.628906 13.46875 23.589844 13.550781 L 12.859375 13.550781 C 13.003906 13.355469 13.167969 13.171875 13.339844 12.996094 C 14.902344 11.449219 15.800781 11.269531 17.042969 11.019531 C 17.9375 10.839844 18.949219 10.632812 20.359375 9.921875 C 20.632812 9.785156 20.953125 9.566406 21.324219 9.3125 C 21.792969 8.988281 22.328125 8.621094 22.78125 8.421875 C 22.957031 8.34375 23.132812 8.304688 23.457031 8.628906 C 23.457031 8.628906 25.117188 10.304688 25.152344 10.351562 C 25.160156 10.359375 25.164062 10.367188 25.171875 10.375 C 25.335938 10.601562 25.296875 10.746094 25.234375 10.894531 Z M 28.539062 6.179688 L 25.699219 9 L 24.679688 7.972656 L 27.515625 5.148438 C 27.644531 5.019531 27.71875 4.84375 27.714844 4.664062 C 27.710938 4.480469 27.632812 4.308594 27.496094 4.1875 C 27.195312 3.910156 27.027344 3.53125 27.03125 3.121094 C 27.03125 2.328125 27.679688 1.6875 28.46875 1.6875 L 28.476562 1.6875 C 29.269531 1.691406 29.914062 2.339844 29.910156 3.132812 C 29.910156 3.308594 29.980469 3.476562 30.105469 3.601562 C 30.226562 3.726562 30.398438 3.796875 30.574219 3.796875 C 31.367188 3.800781 32.011719 4.449219 32.007812 5.242188 C 32.003906 6.035156 31.359375 6.679688 30.570312 6.679688 L 30.5625 6.679688 C 30.152344 6.675781 29.773438 6.507812 29.5 6.203125 C 29.378906 6.070312 29.207031 5.992188 29.023438 5.984375 C 28.84375 5.980469 28.667969 6.050781 28.539062 6.179688 Z M 28.539062 6.179688 "/>
</svg>
