<?xml version="1.0" encoding="UTF-8"?>
<svg xmlns="http://www.w3.org/2000/svg" xmlns:xlink="http://www.w3.org/1999/xlink" width="53" height="53" viewBox="0 0 53 53">
<defs>
<clipPath id="clip-0">
<path clip-rule="evenodd" d="M 0.429688 30.191406 C -1.019531 19.988281 4.335938 9.152344 13.320312 4.109375 C 16.792969 2.160156 20.6875 1.039062 24.628906 0.488281 C 30.097656 -0.273438 35.820312 0.0703125 40.890625 2.253906 C 45.960938 4.4375 50.304688 8.609375 51.976562 13.871094 C 53.320312 18.09375 52.898438 22.648438 52.339844 27.042969 C 51.773438 31.441406 51.027344 35.96875 48.621094 39.691406 C 45.535156 44.464844 40.179688 47.21875 34.9375 49.410156 C 32 50.640625 28.949219 51.601562 25.796875 52.03125 C 24.738281 52.171875 22.925781 52.210938 20.078125 51.644531 C 10.042969 49.304688 1.882812 40.390625 0.429688 30.191406 Z M 0.429688 30.191406 "/>
</clipPath>
</defs>
<g clip-path="url(#clip-0)">
<rect x="-5.3" y="-5.3" width="63.6" height="63.6" fill="rgb(100%, 91.764832%, 86.274719%)" fill-opacity="1"/>
</g>
</svg>
