<?xml version="1.0" encoding="UTF-8"?>
<svg xmlns="http://www.w3.org/2000/svg" xmlns:xlink="http://www.w3.org/1999/xlink" width="20" height="20" viewBox="0 0 20 20">
<path fill-rule="evenodd" fill="rgb(43.920898%, 43.920898%, 43.920898%)" fill-opacity="1" d="M 19.976562 -0.25 C 19.976562 -3.976562 16.953125 -7 13.226562 -7 L -0.273438 -7 C -3.996094 -7 -7.023438 -3.976562 -7.023438 -0.25 L -7.023438 13.25 C -7.023438 16.976562 -3.996094 20 -0.273438 20 L 13.226562 20 C 16.953125 20 19.976562 16.976562 19.976562 13.25 Z M 17.976562 -0.25 L 17.976562 13.25 C 17.976562 15.871094 15.851562 18 13.226562 18 C 13.226562 18 -0.273438 18 -0.273438 18 C -2.894531 18 -5.023438 15.871094 -5.023438 13.25 L -5.023438 -0.25 C -5.023438 -2.871094 -2.894531 -5 -0.273438 -5 L 13.226562 -5 C 15.851562 -5 17.976562 -2.871094 17.976562 -0.25 Z M 17.976562 -0.25 "/>
</svg>
