<?xml version="1.0" encoding="UTF-8"?>
<svg xmlns="http://www.w3.org/2000/svg" xmlns:xlink="http://www.w3.org/1999/xlink" width="32" height="32" viewBox="0 0 32 32">
<path fill-rule="nonzero" fill="rgb(33.72345%, 71.879578%, 77.082825%)" fill-opacity="1" d="M 32 16 C 32 24.835938 24.835938 32 16 32 C 7.164062 32 0 24.835938 0 16 C 0 7.164062 7.164062 0 16 0 C 24.835938 0 32 7.164062 32 16 Z M 32 16 "/>
<path fill-rule="nonzero" fill="rgb(100%, 100%, 100%)" fill-opacity="1" d="M 11.832031 13.5 C 12.753906 13.5 13.5 12.753906 13.5 11.832031 C 13.5 10.914062 12.753906 10.167969 11.832031 10.167969 C 10.914062 10.167969 10.167969 10.914062 10.167969 11.832031 C 10.167969 12.753906 10.914062 13.5 11.832031 13.5 Z M 11.832031 13.5 "/>
<path fill-rule="nonzero" fill="rgb(100%, 100%, 100%)" fill-opacity="1" d="M 22.667969 16.832031 L 22.667969 10.023438 C 22.667969 8.726562 21.609375 7.667969 20.308594 7.667969 C 19.683594 7.667969 19.082031 7.917969 18.640625 8.359375 L 17.601562 9.398438 C 17.464844 9.359375 17.324219 9.332031 17.175781 9.332031 C 16.839844 9.332031 16.535156 9.433594 16.273438 9.601562 L 18.574219 11.898438 C 18.742188 11.640625 18.839844 11.332031 18.839844 11 C 18.839844 10.851562 18.816406 10.714844 18.785156 10.574219 L 19.824219 9.535156 C 19.949219 9.410156 20.125 9.332031 20.308594 9.332031 C 20.691406 9.332031 21 9.640625 21 10.023438 L 21 16.832031 L 15.292969 16.832031 C 15.042969 16.660156 14.816406 16.457031 14.609375 16.234375 L 13.441406 14.941406 C 13.285156 14.765625 13.082031 14.625 12.867188 14.523438 C 12.609375 14.398438 12.324219 14.332031 12.035156 14.332031 C 11 14.339844 10.167969 15.175781 10.167969 16.207031 L 10.167969 16.832031 L 7.667969 16.832031 L 7.667969 21.832031 C 7.667969 22.75 8.417969 23.5 9.332031 23.5 C 9.332031 23.957031 9.707031 24.332031 10.167969 24.332031 L 21.832031 24.332031 C 22.292969 24.332031 22.667969 23.957031 22.667969 23.5 C 23.582031 23.5 24.332031 22.75 24.332031 21.832031 L 24.332031 16.832031 Z M 22.667969 21.832031 L 9.332031 21.832031 L 9.332031 18.5 L 22.667969 18.5 Z M 22.667969 21.832031 "/>
</svg>
