<svg width="14" height="14" viewBox="0 0 14 14" fill="none" xmlns="http://www.w3.org/2000/svg">
<path fill-rule="evenodd" clip-rule="evenodd" d="M4.9 6.99999C4.9 5.8402 3.9598 4.89999 2.8 4.89999C1.6402 4.89999 0.699997 5.8402 0.699997 6.99999C0.699997 8.15979 1.6402 9.09999 2.8 9.09999C3.9598 9.09999 4.9 8.15979 4.9 6.99999ZM2.1 6.99999C2.1 6.61339 2.4134 6.29999 2.8 6.29999C3.1866 6.29999 3.5 6.61339 3.5 6.99999C3.5 7.38659 3.1866 7.69999 2.8 7.69999C2.4134 7.69999 2.1 7.38659 2.1 6.99999Z" fill="black"/>
<path fill-rule="evenodd" clip-rule="evenodd" d="M13.3 11.9C13.3 10.7402 12.3598 9.79999 11.2 9.79999C10.0402 9.79999 9.1 10.7402 9.1 11.9C9.1 13.0598 10.0402 14 11.2 14C12.3598 14 13.3 13.0598 13.3 11.9ZM10.5 11.9C10.5 11.5134 10.8134 11.2 11.2 11.2C11.5866 11.2 11.9 11.5134 11.9 11.9C11.9 12.2866 11.5866 12.6 11.2 12.6C10.8134 12.6 10.5 12.2866 10.5 11.9Z" fill="black"/>
<path fill-rule="evenodd" clip-rule="evenodd" d="M13.3 2.1C13.3 0.940202 12.3598 0 11.2 0C10.0402 0 9.1 0.940202 9.1 2.1C9.1 3.2598 10.0402 4.2 11.2 4.2C12.3598 4.2 13.3 3.2598 13.3 2.1ZM10.5 2.1C10.5 1.7134 10.8134 1.4 11.2 1.4C11.5866 1.4 11.9 1.7134 11.9 2.1C11.9 2.4866 11.5866 2.8 11.2 2.8C10.8134 2.8 10.5 2.4866 10.5 2.1Z" fill="black"/>
<path d="M10.4041 2.44629C10.5994 2.7799 10.4873 3.20871 10.1537 3.40406L4.37768 6.78626C4.04406 6.98161 3.61526 6.86952 3.41991 6.53591C3.22456 6.2023 3.33664 5.77349 3.67025 5.57814L9.44629 2.19594C9.7799 2.00059 10.2087 2.11267 10.4041 2.44629Z" fill="black"/>
<path d="M3.42349 7.33937C3.60799 7.03142 3.99185 6.9165 4.31128 7.06074L4.38373 7.09865L10.1598 10.5592C10.4914 10.7579 10.5992 11.1878 10.4005 11.5194C10.216 11.8274 9.83211 11.9423 9.51269 11.7981L9.44024 11.7602L3.66421 8.29961C3.33257 8.10092 3.2248 7.67101 3.42349 7.33937Z" fill="black"/>
</svg>
