<svg width="148" height="29" viewBox="0 0 148 29" fill="none" xmlns="http://www.w3.org/2000/svg">
<path d="M80.8368 21.4119C77.2876 21.4119 74.4038 18.4226 74.4038 14.7435C74.4038 11.0644 77.2876 8.07513 80.8368 8.07513C84.3861 8.07513 87.2699 11.0644 87.2699 14.7435C87.2699 18.4226 84.3861 21.4119 80.8368 21.4119ZM80.8368 10.1987C78.4228 10.1987 76.4525 12.2412 76.4525 14.7435C76.4525 17.2458 78.4228 19.2883 80.8368 19.2883C83.2509 19.2883 85.2212 17.2458 85.2212 14.7435C85.2212 12.2412 83.2509 10.1987 80.8368 10.1987Z" fill="white"/>
<path d="M44.4441 21.4389C40.8949 21.4389 37.998 18.4496 37.998 14.757C37.998 11.0779 40.8818 8.07513 44.4441 8.07513C48.0064 8.07513 50.8902 11.0644 50.8902 14.757C50.8902 18.4496 47.9934 21.4389 44.4441 21.4389ZM44.4441 10.2123C42.0171 10.2123 40.0467 12.2547 40.0467 14.7705C40.0467 17.2864 42.0171 19.3288 44.4441 19.3288C46.8712 19.3288 48.8416 17.2864 48.8416 14.7705C48.8416 12.2547 46.8712 10.2123 44.4441 10.2123Z" fill="white"/>
<path d="M68.4016 21.4392C67.8405 21.4392 67.3838 20.9657 67.3838 20.3841V14.7843C67.3838 11.1052 70.2676 8.11597 73.8168 8.11597C74.3779 8.11597 74.8346 8.58938 74.8346 9.171C74.8346 9.75262 74.3779 10.226 73.8168 10.226C71.4028 10.226 69.4324 12.2685 69.4324 14.7708V20.3706C69.4324 20.9657 68.9627 21.4392 68.4016 21.4392Z" fill="white"/>
<path d="M59.1889 21.4117C55.6396 21.4117 52.7559 18.4225 52.7559 14.7434V9.15708C52.7559 8.57546 53.2126 8.10205 53.7737 8.10205C54.3348 8.10205 54.7915 8.57546 54.7915 9.15708V14.7434C54.7915 17.2457 56.7618 19.2881 59.1758 19.2881C61.5899 19.2881 63.5602 17.2457 63.5602 14.7434V9.15708C63.5602 8.57546 64.0169 8.10205 64.578 8.10205C65.1391 8.10205 65.5958 8.57546 65.5958 9.15708V14.7434C65.6219 18.4225 62.7381 21.4117 59.1889 21.4117Z" fill="white"/>
<path d="M26.2675 21.4527C25.7064 21.4527 25.2497 20.9793 25.2497 20.3976V14.7843C25.2497 12.282 23.2793 10.2396 20.8653 10.2396C18.4513 10.2396 16.4809 12.282 16.4809 14.7843V20.3976C16.4809 20.9793 16.0242 21.4527 15.4631 21.4527C14.902 21.4527 14.4453 20.9793 14.4453 20.3976V14.7843C14.4453 11.1052 17.3291 8.11597 20.8783 8.11597C24.4276 8.11597 27.3114 11.1052 27.3114 14.7843V20.3976C27.2853 20.9657 26.8286 21.4527 26.2675 21.4527Z" fill="white"/>
<path d="M86.239 21.466C85.6779 21.466 85.2212 20.9926 85.2212 20.4109V14.7435C85.2212 14.1619 85.6779 13.6885 86.239 13.6885C86.8001 13.6885 87.2568 14.1619 87.2568 14.7435V20.3974C87.2698 20.9926 86.8131 21.466 86.239 21.466Z" fill="white"/>
<path d="M95.2035 21.4119C91.6543 21.4119 88.7705 18.4226 88.7705 14.7435C88.7705 11.0644 91.6543 8.07513 95.2035 8.07513C97.3435 8.07513 99.34 9.17075 100.54 11.0103C100.854 11.4972 100.736 12.16 100.266 12.4846C99.7967 12.8093 99.1573 12.6875 98.8441 12.2006C98.0221 10.9427 96.665 10.1987 95.2035 10.1987C92.7895 10.1987 90.8192 12.2412 90.8192 14.7435C90.8192 17.2458 92.7895 19.2883 95.2035 19.2883C97.6176 19.2883 99.5879 17.2458 99.5879 14.7435C99.5879 14.1619 100.045 13.6885 100.606 13.6885C101.167 13.6885 101.624 14.1619 101.624 14.7435C101.637 18.4226 98.7528 21.4119 95.2035 21.4119Z" fill="white"/>
<path d="M37.3848 10.226H27.5852C27.0241 10.226 26.5674 9.75262 26.5674 9.171C26.5674 8.58938 27.0241 8.11597 27.5852 8.11597H37.3848C37.9459 8.11597 38.4026 8.58938 38.4026 9.171C38.4026 9.75262 37.9459 10.226 37.3848 10.226Z" fill="white"/>
<path d="M32.5305 21.4391C31.9694 21.4391 31.5127 20.9657 31.5127 20.384V9.40086C31.5127 8.81924 31.9694 8.34583 32.5305 8.34583C33.0916 8.34583 33.5483 8.81924 33.5483 9.40086V20.384C33.5613 20.9657 33.1046 21.4391 32.5305 21.4391Z" fill="white"/>
<path d="M109.427 21.4119C105.877 21.4119 102.994 18.4226 102.994 14.7435C102.994 11.0644 105.877 8.07513 109.427 8.07513C112.911 8.07513 115.794 11.0103 115.86 14.6353C115.873 15.2169 115.416 15.7038 114.855 15.7174H114.842C114.281 15.7174 113.824 15.2575 113.824 14.6759C113.785 12.2141 111.815 10.2123 109.44 10.2123C107.026 10.2123 105.055 12.2547 105.055 14.757C105.055 17.2593 107.026 19.3018 109.44 19.3018C110.993 19.3018 112.441 18.4361 113.224 17.0429C113.511 16.5425 114.137 16.3666 114.62 16.6642C115.103 16.9618 115.273 17.611 114.985 18.1115C113.837 20.1539 111.71 21.4119 109.427 21.4119Z" fill="white"/>
<path d="M114.842 15.7174H104.181C103.62 15.7174 103.163 15.244 103.163 14.6623C103.163 14.0807 103.62 13.6073 104.181 13.6073H114.842C115.403 13.6073 115.86 14.0807 115.86 14.6623C115.86 15.244 115.403 15.7174 114.842 15.7174Z" fill="white"/>
<path d="M100.605 15.7174H93.4026C92.8415 15.7174 92.3848 15.244 92.3848 14.6623C92.3848 14.0807 92.8415 13.6073 93.4026 13.6073H100.605C101.167 13.6073 101.623 14.0807 101.623 14.6623C101.623 15.244 101.18 15.7174 100.605 15.7174Z" fill="white"/>
<path d="M6.43303 21.4119C2.88377 21.4119 0 18.4226 0 14.7435C0 11.0644 2.88377 8.07513 6.43303 8.07513C9.91704 8.07513 12.8008 11.0103 12.8661 14.6353C12.8791 15.2169 12.4224 15.7038 11.8613 15.7174C11.3002 15.7309 10.8305 15.2575 10.8174 14.6759C10.7783 12.2141 8.8079 10.2123 6.43303 10.2123C4.01901 10.2123 2.04865 12.2547 2.04865 14.757C2.04865 17.2593 4.01901 19.3018 6.43303 19.3018C7.98583 19.3018 9.43424 18.4361 10.2172 17.0429C10.5042 16.5425 11.1306 16.3666 11.6134 16.6642C12.0962 16.9618 12.2658 17.611 11.9787 18.1115C10.8435 20.1539 8.70351 21.4119 6.43303 21.4119Z" fill="white"/>
<path d="M11.8349 15.7174H1.17405C0.612956 15.7174 0.15625 15.244 0.15625 14.6623C0.15625 14.0807 0.612956 13.6073 1.17405 13.6073H11.8349C12.396 13.6073 12.8527 14.0807 12.8527 14.6623C12.8527 15.244 12.409 15.7174 11.8349 15.7174Z" fill="white"/>
<path d="M134.428 28.026C141.894 28.026 147.947 21.7522 147.947 14.013C147.947 6.27384 141.894 0 134.428 0C126.962 0 120.91 6.27384 120.91 14.013C120.91 21.7522 126.962 28.026 134.428 28.026Z" fill="#F55F24"/>
<path d="M139.647 18.6389C139.06 18.3143 138.329 18.5578 138.016 19.1665C137.338 20.5191 135.994 21.3712 134.519 21.3712C132.34 21.3712 130.578 19.5317 130.578 17.2863C130.578 15.041 132.353 13.2015 134.519 13.2015C136.176 13.2015 137.664 14.2835 138.225 15.9067C138.447 16.5559 139.138 16.8941 139.765 16.6641C140.391 16.4342 140.717 15.7173 140.496 15.0681C139.895 13.3367 138.643 11.9976 137.077 11.2808L139.647 4.3554C139.882 3.70615 139.582 2.98927 138.956 2.73228C138.329 2.48881 137.638 2.79991 137.39 3.44916L134.702 10.6991C134.637 10.6991 134.571 10.6856 134.506 10.6856C134.35 10.6856 134.193 10.6991 134.036 10.7127L135.955 5.53217C136.189 4.88292 135.889 4.16604 135.263 3.90904C134.637 3.66557 133.945 3.97667 133.697 4.62593L131.061 11.7271C130.722 11.9571 130.409 12.2141 130.122 12.4981L132.014 7.38525C132.249 6.73599 131.949 6.01911 131.322 5.76212C130.696 5.51865 130.004 5.82975 129.756 6.479L128.047 11.0779C128.047 11.0779 126.259 15.3927 126.155 16.84C126.064 18.0709 126.364 18.7742 126.873 19.4776C127.408 20.2215 129.156 22.6021 132.758 23.603C133.123 23.6977 133.488 23.7789 133.88 23.8194C133.88 23.8194 133.88 23.8194 133.893 23.8194C134.089 23.833 134.297 23.8465 134.506 23.8465C136.881 23.8465 139.047 22.4939 140.143 20.3027C140.469 19.7075 140.248 18.95 139.647 18.6389Z" fill="white"/>
<path d="M134.545 19.5993C135.785 19.5993 136.79 18.5577 136.79 17.2728C136.79 15.988 135.785 14.9464 134.545 14.9464C133.306 14.9464 132.301 15.988 132.301 17.2728C132.301 18.5577 133.306 19.5993 134.545 19.5993Z" fill="white"/>
</svg>
