<svg width="56" height="56" viewBox="0 0 56 56" fill="none" xmlns="http://www.w3.org/2000/svg">
<g clip-path="url(#clip0_255_1230)">
<path d="M27.55 40.53L44.1 25L42.44 24.88C34.66 24.33 27.97 30.32 27.65 38.11L27.55 40.53Z" fill="#FF9739"/>
<path d="M27.55 40.53L11 25L12.66 24.88C20.44 24.33 27.13 30.32 27.45 38.11L27.55 40.53Z" fill="#FF9739"/>
<path d="M28.69 9.16L27.74 8H27.7L26.71 9.11C22.09 14.31 21.81 23.29 26.09 28.93L27.32 30.55V30.69L27.37 30.62L27.42 30.69V30.56L28.7 29C33.15 23.57 33.14 14.59 28.7 9.16H28.69Z" fill="#F3C8B3"/>
<path d="M27.42 30.56L28.7 29C33.15 23.57 33.14 14.59 28.7 9.16L27.74 8" fill="white"/>
<path d="M27.55 30.8601L44.1 15.3301L42.44 15.2101C34.66 14.6601 27.97 20.6501 27.65 28.4401L27.55 30.8601Z" fill="#FF9739"/>
<path d="M27.55 30.8601L11 15.3301L12.66 15.2101C20.44 14.6601 27.13 20.6501 27.45 28.4401L27.55 30.8601Z" fill="#FF9739"/>
<path d="M27.55 19.8601V48.0701" stroke="#653825" stroke-width="0.66" stroke-miterlimit="10" stroke-linecap="round"/>
</g>
<defs>
<clipPath id="clip0_255_1230">
<rect width="33.09" height="40.41" fill="white" transform="translate(11 8)"/>
</clipPath>
</defs>
</svg>
