<?xml version="1.0" encoding="UTF-8"?>
<svg xmlns="http://www.w3.org/2000/svg" xmlns:xlink="http://www.w3.org/1999/xlink" width="32" height="34" viewBox="0 0 32 34">
<path fill-rule="nonzero" fill="rgb(100%, 59.2%, 22.3%)" fill-opacity="1" d="M 30.777344 29.234375 C 30.660156 28.988281 30.363281 28.882812 30.117188 29 C 29.871094 29.121094 29.769531 29.414062 29.886719 29.660156 C 30.316406 30.550781 30.535156 31.511719 30.535156 32.507812 L 30.535156 32.675781 C 30.535156 32.75 30.472656 32.8125 30.398438 32.8125 L 10.152344 32.8125 C 10.078125 32.8125 10.019531 32.75 10.019531 32.675781 L 10.019531 32.507812 C 10.019531 28.886719 12.964844 25.9375 16.585938 25.9375 L 23.964844 25.9375 C 25.792969 25.9375 27.488281 26.671875 28.746094 28 C 28.933594 28.199219 29.246094 28.210938 29.445312 28.023438 C 29.640625 27.835938 29.652344 27.523438 29.464844 27.324219 C 28.117188 25.894531 26.320312 25.0625 24.375 24.960938 L 24.375 22.476562 C 24.539062 22.320312 24.691406 22.15625 24.835938 21.980469 C 25.011719 22.070312 25.207031 22.121094 25.421875 22.136719 C 25.457031 22.140625 25.492188 22.140625 25.527344 22.140625 C 26.066406 22.140625 26.59375 21.839844 27.015625 21.28125 C 27.394531 20.789062 27.644531 20.136719 27.6875 19.539062 C 27.769531 18.464844 27.164062 17.683594 26.125 17.472656 L 26.125 14.953125 C 26.125 14.566406 26.222656 14.164062 26.402344 13.800781 C 26.636719 13.320312 26.753906 12.808594 26.753906 12.273438 C 26.753906 10.679688 25.675781 9.292969 24.132812 8.910156 C 23.832031 8.835938 23.511719 8.984375 23.375 9.265625 C 23.0625 9.910156 22.425781 10.308594 21.710938 10.308594 L 18.050781 10.308594 C 18.039062 10.308594 18.027344 10.3125 18.015625 10.3125 L 18.015625 8.332031 C 18.015625 5.976562 16.097656 4.0625 13.746094 4.0625 L 10.636719 4.0625 C 8.28125 4.0625 6.367188 5.976562 6.367188 8.332031 L 6.367188 11.253906 C 5.285156 11.445312 4.652344 12.234375 4.730469 13.332031 C 4.820312 14.539062 5.675781 15.816406 6.742188 15.929688 C 7.035156 16.703125 7.480469 17.390625 8.042969 17.960938 L 8.042969 18.648438 L 7.320312 18.648438 C 3.28125 18.648438 0 21.933594 0 25.96875 L 0 27.054688 C 0 27.664062 0.496094 28.15625 1.101562 28.15625 L 10.410156 28.15625 C 9.539062 29.386719 9.03125 30.890625 9.03125 32.507812 L 9.03125 32.675781 C 9.03125 33.296875 9.535156 33.800781 10.152344 33.800781 L 30.398438 33.800781 C 31.019531 33.800781 31.523438 33.296875 31.523438 32.675781 L 31.523438 32.507812 C 31.523438 31.359375 31.273438 30.257812 30.777344 29.234375 Z M 14.320312 20.683594 C 14.058594 20.339844 13.878906 19.875 13.847656 19.464844 C 13.808594 18.9375 14.03125 18.601562 14.5 18.46875 C 14.515625 19.429688 14.769531 20.335938 15.207031 21.125 C 15.160156 21.136719 15.113281 21.148438 15.058594 21.152344 C 14.832031 21.167969 14.558594 20.992188 14.320312 20.683594 Z M 23.386719 24.949219 L 17.164062 24.949219 L 17.164062 23.1875 C 18.03125 23.730469 19.058594 24.046875 20.15625 24.046875 L 20.46875 24.046875 C 21.535156 24.046875 22.535156 23.75 23.386719 23.234375 Z M 26.703125 19.464844 C 26.671875 19.875 26.492188 20.339844 26.230469 20.683594 C 25.996094 20.992188 25.71875 21.167969 25.496094 21.152344 C 25.464844 21.148438 25.4375 21.144531 25.410156 21.140625 C 25.851562 20.351562 26.105469 19.453125 26.125 18.492188 C 26.542969 18.640625 26.738281 18.964844 26.703125 19.464844 Z M 21.710938 11.300781 C 22.699219 11.300781 23.621094 10.773438 24.132812 9.941406 C 25.105469 10.289062 25.765625 11.214844 25.765625 12.273438 C 25.765625 12.65625 25.679688 13.023438 25.515625 13.363281 C 25.269531 13.863281 25.136719 14.414062 25.136719 14.953125 L 25.136719 18.390625 C 25.136719 20.964844 23.042969 23.058594 20.46875 23.058594 L 20.15625 23.058594 C 17.582031 23.058594 15.488281 20.964844 15.488281 18.390625 L 15.488281 13.859375 C 15.488281 12.449219 16.636719 11.300781 18.050781 11.300781 Z M 10.636719 5.050781 L 13.746094 5.050781 C 15.128906 5.050781 16.316406 5.914062 16.796875 7.128906 C 16.371094 6.847656 15.859375 6.683594 15.3125 6.683594 L 9.070312 6.683594 C 8.523438 6.683594 8.011719 6.847656 7.585938 7.128906 C 8.066406 5.914062 9.253906 5.050781 10.636719 5.050781 Z M 11.027344 19.578125 C 11.058594 19.585938 11.09375 19.589844 11.125 19.589844 C 11.355469 19.589844 11.5625 19.425781 11.609375 19.191406 C 11.664062 18.925781 11.488281 18.664062 11.222656 18.609375 C 9.484375 18.253906 8.082031 16.980469 7.566406 15.28125 C 7.492188 15.039062 7.25 14.890625 7.003906 14.9375 C 6.976562 14.941406 6.949219 14.945312 6.925781 14.945312 C 6.414062 14.988281 5.78125 14.101562 5.71875 13.261719 C 5.671875 12.613281 6.007812 12.257812 6.722656 12.207031 C 6.757812 12.203125 6.792969 12.203125 6.828125 12.207031 C 6.964844 12.214844 7.097656 12.167969 7.199219 12.074219 C 7.300781 11.980469 7.355469 11.847656 7.355469 11.710938 L 7.355469 9.386719 C 7.355469 8.441406 8.125 7.671875 9.070312 7.671875 L 15.3125 7.671875 C 16.257812 7.671875 17.027344 8.441406 17.027344 9.386719 L 17.027344 10.460938 C 16.304688 10.679688 15.679688 11.121094 15.230469 11.707031 C 15.230469 11.699219 15.230469 11.691406 15.230469 11.679688 C 15.230469 11.277344 14.902344 10.949219 14.5 10.949219 C 14.097656 10.949219 13.769531 11.277344 13.769531 11.679688 C 13.769531 12.085938 14.097656 12.410156 14.5 12.410156 C 14.625 12.410156 14.746094 12.378906 14.847656 12.324219 C 14.625 12.789062 14.5 13.308594 14.5 13.859375 L 14.5 17.460938 C 13.417969 17.648438 12.78125 18.4375 12.863281 19.539062 C 12.890625 19.890625 12.988281 20.261719 13.140625 20.609375 L 10.625 20.609375 C 9.746094 20.609375 9.03125 19.894531 9.03125 19.015625 L 9.03125 18.765625 C 9.632812 19.152344 10.304688 19.429688 11.027344 19.578125 Z M 11.152344 27.167969 L 1.101562 27.167969 C 1.039062 27.167969 0.988281 27.117188 0.988281 27.054688 L 0.988281 25.96875 C 0.988281 22.476562 3.828125 19.640625 7.320312 19.640625 L 8.121094 19.640625 C 8.402344 20.761719 9.417969 21.597656 10.625 21.597656 L 13.664062 21.597656 C 13.710938 21.597656 13.761719 21.59375 13.808594 21.59375 C 14.175781 21.949219 14.59375 22.140625 15.023438 22.140625 C 15.058594 22.140625 15.09375 22.140625 15.128906 22.136719 C 15.363281 22.121094 15.578125 22.058594 15.769531 21.957031 C 15.894531 22.113281 16.03125 22.261719 16.175781 22.40625 L 16.175781 24.960938 C 14.25 25.066406 12.515625 25.890625 11.234375 27.175781 C 11.210938 27.171875 11.183594 27.167969 11.152344 27.167969 Z M 11.152344 27.167969 "/>
<path fill-rule="evenodd" fill="rgb(100%, 59.2%, 22.3%)" fill-opacity="1" d="M 9.882812 10.679688 C 10.433594 10.679688 10.882812 11.128906 10.882812 11.679688 C 10.882812 12.234375 10.433594 12.679688 9.882812 12.679688 C 9.328125 12.679688 8.882812 12.234375 8.882812 11.679688 C 8.882812 11.128906 9.328125 10.679688 9.882812 10.679688 Z M 9.882812 10.679688 "/>
<path fill-rule="nonzero" fill="rgb(100%, 59.2%, 22.3%)" fill-opacity="1" d="M 13.796875 15.160156 C 13.957031 14.9375 13.90625 14.628906 13.683594 14.46875 C 13.460938 14.308594 13.152344 14.359375 12.992188 14.582031 C 12.808594 14.839844 12.507812 14.992188 12.191406 14.992188 C 11.875 14.992188 11.574219 14.839844 11.386719 14.582031 C 11.230469 14.359375 10.917969 14.308594 10.699219 14.46875 C 10.476562 14.628906 10.425781 14.9375 10.585938 15.160156 C 10.957031 15.675781 11.558594 15.980469 12.191406 15.980469 C 12.824219 15.980469 13.425781 15.675781 13.796875 15.160156 Z M 13.796875 15.160156 "/>
<path fill-rule="nonzero" fill="rgb(100%, 59.2%, 22.3%)" fill-opacity="1" d="M 18.90625 7.941406 C 18.867188 8.203125 18.976562 8.460938 19.195312 8.613281 C 19.316406 8.699219 19.457031 8.742188 19.59375 8.742188 C 19.710938 8.742188 19.824219 8.714844 19.925781 8.65625 L 21.589844 7.761719 C 22.097656 7.867188 22.660156 7.921875 23.257812 7.921875 C 24.667969 7.921875 25.859375 7.617188 26.703125 7.042969 C 27.707031 6.363281 28.234375 5.308594 28.234375 3.984375 C 28.234375 1.488281 26.375 0 23.257812 0 C 21.960938 0 20.835938 0.269531 20 0.777344 C 19.769531 0.917969 19.695312 1.222656 19.835938 1.457031 C 19.980469 1.691406 20.285156 1.761719 20.515625 1.621094 C 21.195312 1.207031 22.140625 0.988281 23.257812 0.988281 C 24.746094 0.988281 27.246094 1.378906 27.246094 3.984375 C 27.246094 6.550781 24.746094 6.933594 23.257812 6.933594 C 22.660156 6.933594 22.113281 6.875 21.632812 6.757812 C 21.511719 6.730469 21.386719 6.746094 21.28125 6.804688 L 19.972656 7.511719 L 20.144531 6.355469 C 20.167969 6.199219 20.113281 6.042969 20 5.929688 C 19.515625 5.453125 19.269531 4.796875 19.269531 3.984375 C 19.269531 3.691406 19.300781 3.410156 19.363281 3.15625 C 19.433594 2.894531 19.273438 2.625 19.007812 2.554688 C 18.742188 2.488281 18.472656 2.648438 18.40625 2.914062 C 18.320312 3.246094 18.277344 3.609375 18.277344 3.984375 C 18.277344 4.976562 18.566406 5.800781 19.128906 6.449219 Z M 18.90625 7.941406 "/>
</svg>
