<svg width="56" height="56" viewBox="0 0 56 56" fill="none" xmlns="http://www.w3.org/2000/svg">
<g clip-path="url(#clip0_256_1573)">
<path fill-rule="evenodd" clip-rule="evenodd" d="M29.664 37.3665C29.664 37.3665 26.8068 34.4349 22.233 33.3775C19.3749 32.7168 17.7497 31.1201 16.9329 30.0162C16.1757 28.9932 15.3342 28.013 14.3748 27.1116L13.4859 26.2754C12.8905 25.7159 12.0207 25.4062 11.1162 25.4325C10.2912 25.4564 9.76167 26.1614 10.1074 26.7756L15.9662 37.209C15.9662 37.209 19.963 44.2466 26.2178 44.3973L29.664 37.3665Z" fill="#F3C8B3"/>
<mask id="mask0_256_1573" style="mask-type:luminance" maskUnits="userSpaceOnUse" x="16" y="10" width="36" height="52">
<path fill-rule="evenodd" clip-rule="evenodd" d="M16.5408 10.7798H51.4384V61.3489H16.5408V10.7798Z" fill="white"/>
</mask>
<g mask="url(#mask0_256_1573)">
<path fill-rule="evenodd" clip-rule="evenodd" d="M23.735 43.969C23.735 43.969 29.0832 56.209 35.626 58.9078C42.1687 61.6066 49.2556 56.6116 49.2567 52.6107C49.2578 48.6098 43.7333 44.0192 43.7333 44.0192C41.4011 41.4034 40.0466 38.2888 39.8354 35.0535L38.6821 17.3905C38.6455 16.8281 38.1278 16.3669 37.4474 16.2911C36.6553 16.2026 35.9292 16.6631 35.834 17.314L34.3753 27.3319L31.1514 12.7318C31.0407 12.2316 30.5112 11.8671 29.8911 11.8656C29.1749 11.8641 28.5951 12.3426 28.6015 12.9298L28.768 26.7717L28.1515 26.7335L23.6509 11.7239C23.4707 11.1232 22.7765 10.7227 22.0256 10.7864C21.1787 10.8584 20.5705 11.4891 20.6821 12.1821L23.1533 27.5922L18.6682 17.1123C18.5155 16.7561 18.1066 16.5161 17.6466 16.5123C16.9799 16.5071 16.4613 16.9878 16.5509 17.5293L19.1154 32.8344L23.735 43.969Z" fill="#F3C8B3"/>
<path d="M35 25.5C36.1667 26 38.5 27.6 38.5 30" stroke="white"/>
</g>
<path fill-rule="evenodd" clip-rule="evenodd" d="M31.9618 39.2589L31.8804 39.4227C32.6897 39.3247 33.4667 39.0689 34.1439 38.6655C36.0157 37.5494 38.7567 35.4055 39.9222 31.9494C41.7771 26.4537 36.9324 24.0329 36.9324 24.0329C36.9324 24.0329 32.2306 21.4346 28.5299 25.4704C23.1293 22.9975 20.1303 26.9105 20.1303 26.9105C20.1303 26.9105 18.0358 29.3971 19.5806 32.6818C27.2047 34.4496 31.9618 39.2589 31.9618 39.2589Z" fill="#F55F24"/>
<path d="M34.5 26C35.3333 26.3333 37.2 27.4 38 29" stroke="white" stroke-linecap="round"/>
<path d="M26.2169 44.3948C25.3443 44.3723 24.5102 44.2187 23.7319 43.9715" stroke="#653825" stroke-width="0.66" stroke-linecap="round"/>
<path d="M18.9672 31.9531C19.8004 32.5366 20.8824 33.0646 22.2332 33.3788C26.8034 34.437 29.6615 37.3671 29.6615 37.3671" stroke="#653825" stroke-width="0.66" stroke-linecap="round"/>
</g>
<defs>
<clipPath id="clip0_256_1573">
<rect width="56" height="56" rx="28" fill="white"/>
</clipPath>
</defs>
</svg>
