<?xml version="1.0" encoding="UTF-8"?>
<svg xmlns="http://www.w3.org/2000/svg" xmlns:xlink="http://www.w3.org/1999/xlink" width="34" height="34" viewBox="0 0 34 34">
<defs>
<clipPath id="clip-0">
<path clip-rule="nonzero" d="M 5 11 L 29 11 L 29 33 L 5 33 Z M 5 11 "/>
</clipPath>
<clipPath id="clip-1">
<path clip-rule="nonzero" d="M 14.394531 11.972656 C 11.335938 13.351562 8.636719 15.617188 6.890625 18.984375 C 5.457031 21.757812 5.257812 24.398438 6.015625 26.761719 C 6.449219 28.117188 7.105469 29.164062 7.761719 29.894531 L 8.050781 30.191406 C 8.65625 30.78125 9.503906 31.386719 10.589844 31.8125 C 12.335938 32.5 14.230469 32.503906 16.117188 31.585938 C 16.671875 31.316406 17.328125 31.316406 17.882812 31.585938 C 19.769531 32.503906 21.664062 32.5 23.410156 31.8125 C 24.359375 31.4375 25.128906 30.929688 25.703125 30.421875 L 26.007812 30.136719 C 26.746094 29.394531 27.503906 28.269531 27.984375 26.761719 C 28.742188 24.398438 28.542969 21.757812 27.109375 18.984375 C 25.363281 15.617188 22.664062 13.351562 19.605469 11.972656 C 18.070312 11.28125 16.320312 11.230469 14.75 11.824219 Z M 18.207031 15.074219 C 20.621094 16.160156 22.734375 17.933594 24.089844 20.550781 C 25.742188 23.742188 25.089844 26.101562 23.765625 27.5625 L 23.554688 27.777344 C 22.613281 28.695312 21.222656 29.273438 19.664062 28.660156 L 19.371094 28.527344 C 17.984375 27.855469 16.371094 27.804688 14.953125 28.382812 L 14.628906 28.527344 C 13.050781 29.296875 11.621094 28.816406 10.617188 27.9375 L 10.386719 27.722656 C 8.964844 26.289062 8.191406 23.871094 9.910156 20.550781 C 11.265625 17.933594 13.378906 16.160156 15.789062 15.074219 C 16.558594 14.726562 17.441406 14.726562 18.207031 15.074219 Z M 18.207031 15.074219 "/>
</clipPath>
<clipPath id="clip-2">
<path clip-rule="nonzero" d="M 0 7 L 9 7 L 9 17 L 0 17 Z M 0 7 "/>
</clipPath>
<clipPath id="clip-3">
<path clip-rule="nonzero" d="M 4.371094 7.953125 C 2.058594 7.953125 0.183594 9.828125 0.183594 12.144531 C 0.183594 14.457031 2.058594 16.332031 4.371094 16.332031 C 6.683594 16.332031 8.5625 14.457031 8.5625 12.144531 C 8.5625 9.828125 6.683594 7.953125 4.371094 7.953125 Z M 4.371094 10.503906 C 5.277344 10.503906 6.011719 11.238281 6.011719 12.144531 C 6.011719 13.046875 5.277344 13.78125 4.371094 13.78125 C 3.464844 13.78125 2.730469 13.046875 2.730469 12.144531 C 2.730469 11.238281 3.464844 10.503906 4.371094 10.503906 Z M 4.371094 10.503906 "/>
</clipPath>
<clipPath id="clip-4">
<path clip-rule="nonzero" d="M 7 2 L 17 2 L 17 11 L 7 11 Z M 7 2 "/>
</clipPath>
<clipPath id="clip-5">
<path clip-rule="nonzero" d="M 12.144531 2.125 C 9.828125 2.125 7.953125 4 7.953125 6.3125 C 7.953125 8.628906 9.828125 10.503906 12.144531 10.503906 C 14.457031 10.503906 16.332031 8.628906 16.332031 6.3125 C 16.332031 4 14.457031 2.125 12.144531 2.125 Z M 12.144531 4.675781 C 13.046875 4.675781 13.78125 5.410156 13.78125 6.3125 C 13.78125 7.21875 13.046875 7.953125 12.144531 7.953125 C 11.238281 7.953125 10.503906 7.21875 10.503906 6.3125 C 10.503906 5.410156 11.238281 4.675781 12.144531 4.675781 Z M 12.144531 4.675781 "/>
</clipPath>
<clipPath id="clip-6">
<path clip-rule="nonzero" d="M 25 7 L 34 7 L 34 17 L 25 17 Z M 25 7 "/>
</clipPath>
<clipPath id="clip-7">
<path clip-rule="nonzero" d="M 29.628906 7.953125 C 27.316406 7.953125 25.4375 9.828125 25.4375 12.144531 C 25.4375 14.457031 27.316406 16.332031 29.628906 16.332031 C 31.941406 16.332031 33.816406 14.457031 33.816406 12.144531 C 33.816406 9.828125 31.941406 7.953125 29.628906 7.953125 Z M 29.628906 10.503906 C 30.535156 10.503906 31.269531 11.238281 31.269531 12.144531 C 31.269531 13.046875 30.535156 13.78125 29.628906 13.78125 C 28.722656 13.78125 27.988281 13.046875 27.988281 12.144531 C 27.988281 11.238281 28.722656 10.503906 29.628906 10.503906 Z M 29.628906 10.503906 "/>
</clipPath>
<clipPath id="clip-8">
<path clip-rule="nonzero" d="M 17 2 L 27 2 L 27 11 L 17 11 Z M 17 2 "/>
</clipPath>
<clipPath id="clip-9">
<path clip-rule="nonzero" d="M 21.855469 2.125 C 19.542969 2.125 17.667969 4 17.667969 6.3125 C 17.667969 8.628906 19.542969 10.503906 21.855469 10.503906 C 24.171875 10.503906 26.046875 8.628906 26.046875 6.3125 C 26.046875 4 24.171875 2.125 21.855469 2.125 Z M 21.855469 4.675781 C 22.761719 4.675781 23.496094 5.410156 23.496094 6.3125 C 23.496094 7.21875 22.761719 7.953125 21.855469 7.953125 C 20.953125 7.953125 20.21875 7.21875 20.21875 6.3125 C 20.21875 5.410156 20.953125 4.675781 21.855469 4.675781 Z M 21.855469 4.675781 "/>
</clipPath>
</defs>
<g clip-path="url(#clip-0)">
<g clip-path="url(#clip-1)">
<path fill-rule="nonzero" fill="rgb(94.509888%, 37.254333%, 14.117432%)" fill-opacity="1" d="M 4.257812 10.230469 L 29.742188 10.230469 L 29.742188 33.503906 L 4.257812 33.503906 Z M 4.257812 10.230469 "/>
</g>
</g>
<g clip-path="url(#clip-2)">
<g clip-path="url(#clip-3)">
<path fill-rule="nonzero" fill="rgb(94.509888%, 37.254333%, 14.117432%)" fill-opacity="1" d="M -0.816406 6.953125 L 9.5625 6.953125 L 9.5625 17.332031 L -0.816406 17.332031 Z M -0.816406 6.953125 "/>
</g>
</g>
<g clip-path="url(#clip-4)">
<g clip-path="url(#clip-5)">
<path fill-rule="nonzero" fill="rgb(94.509888%, 37.254333%, 14.117432%)" fill-opacity="1" d="M 6.953125 1.125 L 17.332031 1.125 L 17.332031 11.503906 L 6.953125 11.503906 Z M 6.953125 1.125 "/>
</g>
</g>
<g clip-path="url(#clip-6)">
<g clip-path="url(#clip-7)">
<path fill-rule="nonzero" fill="rgb(94.509888%, 37.254333%, 14.117432%)" fill-opacity="1" d="M 24.4375 6.953125 L 34.816406 6.953125 L 34.816406 17.332031 L 24.4375 17.332031 Z M 24.4375 6.953125 "/>
</g>
</g>
<g clip-path="url(#clip-8)">
<g clip-path="url(#clip-9)">
<path fill-rule="nonzero" fill="rgb(94.509888%, 37.254333%, 14.117432%)" fill-opacity="1" d="M 16.667969 1.125 L 27.046875 1.125 L 27.046875 11.503906 L 16.667969 11.503906 Z M 16.667969 1.125 "/>
</g>
</g>
</svg>
