<svg width="30" height="30" viewBox="0 0 30 30" fill="none" xmlns="http://www.w3.org/2000/svg">
<path d="M29.1158 26.0783H28.7074V23.5858C28.7074 23.0193 28.1776 22.5946 27.6182 22.7263C26.2049 23.0618 25.2645 23.2287 24.0604 23.2129C21.9969 23.1859 21.1264 22.7756 18.6656 22.5852C17.093 22.4634 15.8139 23.1906 15 24.2234C14.1861 23.1906 12.907 22.4634 11.3344 22.5852C8.87631 22.7755 8.00127 23.186 5.93965 23.2129C4.73555 23.2287 3.79512 23.0618 2.38184 22.7263C1.82303 22.5948 1.29258 23.0185 1.29258 23.5858V26.0783H0.88418C0.396094 26.0783 0 26.4741 0 26.9618C0 27.4501 0.396094 27.8454 0.88418 27.8454H10.2668C10.6465 29.0913 11.8072 30 13.176 30H16.824C18.1928 30 19.3535 29.0913 19.7332 27.8454H29.1158C29.6039 27.8454 30 27.4501 30 26.9618C30 26.4741 29.6039 26.0783 29.1158 26.0783Z" fill="black"/>
<path d="M10.3717 2.90237C7.97405 5.29598 7.76616 9.02565 9.7635 11.6568C10.568 12.7159 11.1334 13.8835 11.451 15.1388H14.2119V9.93543C14.2119 9.44987 14.6067 9.05717 15.0908 9.05717C15.576 9.05717 15.9698 9.45063 15.9698 9.93543V15.1388H18.7342C19.0535 13.8858 19.6225 12.7113 20.4323 11.6375C22.3934 9.03854 22.232 5.27981 19.7836 2.86674C17.178 0.299279 12.9855 0.291721 10.3717 2.90237Z" fill="black"/>
<path d="M5.827 7.63323C6.31239 7.63323 6.70591 7.24001 6.70591 6.75497C6.70591 6.26993 6.31239 5.87671 5.827 5.87671H2.89673C2.41134 5.87671 2.01782 6.26993 2.01782 6.75497C2.01782 7.24001 2.41134 7.63323 2.89673 7.63323H5.827Z" fill="black"/>
<path d="M26.9425 11.8751L24.4177 10.3888C23.9995 10.1426 23.4607 10.2817 23.2143 10.6997C22.9679 11.1176 23.1072 11.6559 23.5254 11.9021L26.0502 13.3884C26.4687 13.6347 27.0074 13.4952 27.2536 13.0775C27.4999 12.6596 27.3606 12.1213 26.9425 11.8751Z" fill="black"/>
<path d="M5.76406 10.3888L3.23932 11.8751C2.82107 12.1213 2.6818 12.6596 2.92818 13.0775C3.17463 13.4955 3.7134 13.6346 4.13158 13.3884L6.65633 11.9021C7.07457 11.6559 7.21385 11.1176 6.96746 10.6997C6.72102 10.2817 6.18225 10.1426 5.76406 10.3888Z" fill="black"/>
<path d="M24.4177 3.12133L26.9425 1.63504C27.3607 1.38883 27.5 0.850467 27.2536 0.432577C27.0072 0.0146273 26.4683 -0.124474 26.0502 0.121678L23.5254 1.60797C23.1072 1.85418 22.9679 2.39254 23.2143 2.81043C23.4608 3.22849 23.9995 3.36754 24.4177 3.12133Z" fill="black"/>
<path d="M6.65633 1.60797L4.13158 0.121678C3.71334 -0.124474 3.17469 0.0146273 2.92818 0.432577C2.6818 0.850467 2.82107 1.38883 3.23932 1.63504L5.76406 3.12133C6.18254 3.36765 6.72113 3.22814 6.96746 2.81043C7.21379 2.39254 7.07457 1.85418 6.65633 1.60797Z" fill="black"/>
<path d="M27.2848 5.87683H24.3545C23.8691 5.87683 23.4756 6.27005 23.4756 6.75509C23.4756 7.24013 23.8691 7.63335 24.3545 7.63335H27.2848C27.7702 7.63335 28.1637 7.24013 28.1637 6.75509C28.1637 6.27005 27.7702 5.87683 27.2848 5.87683Z" fill="black"/>
<path d="M11.6272 16.8953V17.8309C11.6272 19.1911 12.7709 20.297 14.1784 20.297H15.9889C17.3858 20.297 18.5307 19.1986 18.5413 17.8485L18.5477 16.8953H11.6272V16.8953Z" fill="black"/>
</svg>
