<?xml version="1.0" encoding="UTF-8"?>
<svg xmlns="http://www.w3.org/2000/svg" xmlns:xlink="http://www.w3.org/1999/xlink" width="56" height="246" viewBox="0 0 56 246">
<path fill="none" stroke-width="1" stroke-linecap="butt" stroke-linejoin="miter" stroke="rgb(96.078491%, 37.254333%, 14.117432%)" stroke-opacity="1" stroke-miterlimit="10" d="M 1.401106 178.683594 C -7.216081 118.058594 24.604231 53.679688 78.006575 23.710938 C 98.635481 12.132812 121.780012 5.464844 145.2097 2.191406 C 177.701887 -2.34375 211.7097 -0.304688 241.8347 12.679688 C 271.9597 25.664062 297.776106 50.453125 307.713606 81.71875 C 315.682356 106.796875 313.194075 133.875 309.858137 159.972656 C 306.510481 186.109375 302.076887 213.03125 287.760481 235.15625 C 269.420637 263.507812 237.600325 279.875 206.444075 292.902344 C 188.998762 300.203125 170.877669 305.925781 152.135481 308.460938 C 145.846419 309.316406 135.076887 309.535156 118.166731 306.167969 C 58.526106 292.265625 10.026106 239.308594 1.401106 178.683594 Z M 1.401106 178.683594 " transform="matrix(1, 0, 0, 1, -258.4597, -20)"/>
</svg>
