<?xml version="1.0" encoding="UTF-8"?>
<svg xmlns="http://www.w3.org/2000/svg" xmlns:xlink="http://www.w3.org/1999/xlink" width="375" height="376" viewBox="0 0 375 376">
<path fill-rule="evenodd" fill="rgb(100%, 91.763306%, 86.273193%)" fill-opacity="1" d="M 0 260.585938 C 50.019531 286.539062 97.714844 319.359375 149.570312 341.769531 C 220.085938 372.242188 299.046875 382.375 375.15625 372.085938 L 375 -11 L 0.15625 -11 Z M 0 260.585938 "/>
<path fill-rule="evenodd" fill="rgb(96.099854%, 37.298584%, 14.099121%)" fill-opacity="0.25" d="M 253.785156 31.988281 C 251.6875 17.265625 260.929688 -11.261719 260.929688 -11.261719 C 260.929688 -11.261719 375 -11 375 -11 C 375 -11 375.15625 57.261719 375.15625 64.3125 C 375.15625 71.359375 375.191406 78.238281 375 78.367188 C 367.1875 83.761719 361.601562 85.367188 354.820312 88.195312 C 346.222656 91.789062 337.296875 94.605469 328.0625 95.851562 C 324.960938 96.273438 319.652344 96.382812 311.320312 94.722656 C 281.933594 87.882812 258.03125 61.820312 253.785156 31.988281 Z M 253.785156 31.988281 "/>
<path fill-rule="evenodd" fill="rgb(100%, 61.199951%, 36.499023%)" fill-opacity="1" d="M 0 227.410156 C 0 227.410156 1.898438 228.34375 2.84375 228.789062 C 63.203125 257.386719 110.539062 235.910156 157.992188 212.6875 C 177.273438 203.246094 194.644531 190.824219 209.898438 176.160156 C 259.011719 128.953125 284.910156 57.253906 284.910156 -10.710938 C 284.910156 -11 0.15625 -11 0.15625 -11 Z M 0 227.410156 "/>
</svg>
