<?xml version="1.0" encoding="UTF-8"?>
<svg xmlns="http://www.w3.org/2000/svg" xmlns:xlink="http://www.w3.org/1999/xlink" width="25" height="25" viewBox="0 0 25 25">
<defs>
<clipPath id="clip-0">
<path clip-rule="nonzero" d="M 1 1 L 24 1 L 24 23 L 1 23 Z M 1 1 "/>
</clipPath>
<clipPath id="clip-1">
<path clip-rule="evenodd" d="M 1.957031 11.378906 C 1.539062 17.496094 6.308594 22.597656 12.304688 22.726562 L 19.957031 22.726562 C 20.121094 22.726562 20.195312 22.523438 20.070312 22.421875 L 18.703125 21.273438 C 18.535156 21.132812 18.542969 20.871094 18.71875 20.742188 C 18.910156 20.605469 19.097656 20.460938 19.28125 20.3125 C 21.640625 18.363281 23.144531 15.421875 23.144531 12.125 C 23.144531 6.039062 18.023438 1.152344 11.855469 1.535156 C 6.601562 1.863281 2.316406 6.125 1.957031 11.378906 Z M 1.957031 11.378906 "/>
</clipPath>
</defs>
<g clip-path="url(#clip-0)">
<g clip-path="url(#clip-1)">
<path fill-rule="evenodd" fill="rgb(100%, 59.2%, 22.3%)" fill-opacity="1" d="M 1.933594 22.726562 L 23.144531 22.726562 L 23.144531 1.515625 L 1.933594 1.515625 Z M 1.933594 22.726562 "/>
</g>
</g>
<path fill-rule="evenodd" fill="rgb(100%, 100%, 100%)" fill-opacity="1" d="M 8.75 12.121094 C 8.75 12.957031 8.070312 13.636719 7.234375 13.636719 C 6.398438 13.636719 5.71875 12.957031 5.71875 12.121094 C 5.71875 11.285156 6.398438 10.605469 7.234375 10.605469 C 8.070312 10.605469 8.75 11.285156 8.75 12.121094 Z M 8.75 12.121094 "/>
<path fill-rule="evenodd" fill="rgb(100%, 100%, 100%)" fill-opacity="1" d="M 14.054688 12.121094 C 14.054688 12.957031 13.375 13.636719 12.539062 13.636719 C 11.703125 13.636719 11.023438 12.957031 11.023438 12.121094 C 11.023438 11.285156 11.703125 10.605469 12.539062 10.605469 C 13.375 10.605469 14.054688 11.285156 14.054688 12.121094 Z M 14.054688 12.121094 "/>
<path fill-rule="evenodd" fill="rgb(100%, 100%, 100%)" fill-opacity="1" d="M 19.355469 12.121094 C 19.355469 12.957031 18.675781 13.636719 17.839844 13.636719 C 17.003906 13.636719 16.324219 12.957031 16.324219 12.121094 C 16.324219 11.285156 17.003906 10.605469 17.839844 10.605469 C 18.675781 10.605469 19.355469 11.285156 19.355469 12.121094 Z M 19.355469 12.121094 "/>
</svg>
