<?xml version="1.0" encoding="UTF-8"?>
<svg xmlns="http://www.w3.org/2000/svg" xmlns:xlink="http://www.w3.org/1999/xlink" width="32" height="32" viewBox="0 0 32 32">
<path fill-rule="nonzero" fill="rgb(88.626099%, 59.214783%, 75.292969%)" fill-opacity="1" d="M 32 16 C 32 24.835938 24.835938 32 16 32 C 7.164062 32 0 24.835938 0 16 C 0 7.164062 7.164062 0 16 0 C 24.835938 0 32 7.164062 32 16 Z M 32 16 "/>
<path fill-rule="nonzero" fill="rgb(100%, 100%, 100%)" fill-opacity="1" d="M 20 11.332031 L 18.332031 11.332031 L 18.332031 8.832031 C 18.332031 8.375 17.957031 8 17.5 8 L 14.167969 8 C 13.707031 8 13.332031 8.375 13.332031 8.832031 L 13.332031 11.332031 L 11.667969 11.332031 C 10.75 11.332031 10 12.082031 10 13 L 10 22.167969 C 10 23.082031 10.75 23.832031 11.667969 23.832031 C 11.667969 24.292969 12.042969 24.667969 12.5 24.667969 C 12.957031 24.667969 13.332031 24.292969 13.332031 23.832031 L 18.332031 23.832031 C 18.332031 24.292969 18.707031 24.667969 19.167969 24.667969 C 19.625 24.667969 20 24.292969 20 23.832031 C 20.917969 23.832031 21.667969 23.082031 21.667969 22.167969 L 21.667969 13 C 21.667969 12.082031 20.917969 11.332031 20 11.332031 Z M 13.75 21.332031 L 12.5 21.332031 L 12.5 13.832031 L 13.75 13.832031 Z M 16.457031 21.332031 L 15.207031 21.332031 L 15.207031 13.832031 L 16.457031 13.832031 Z M 17.082031 11.332031 L 14.582031 11.332031 L 14.582031 9.25 L 17.082031 9.25 Z M 19.167969 21.332031 L 17.917969 21.332031 L 17.917969 13.832031 L 19.167969 13.832031 Z M 19.167969 21.332031 "/>
</svg>
