<?xml version="1.0" encoding="UTF-8"?>
<svg xmlns="http://www.w3.org/2000/svg" xmlns:xlink="http://www.w3.org/1999/xlink" width="32" height="32" viewBox="0 0 32 32">
<defs>
<clipPath id="clip-0">
<path clip-rule="evenodd" d="M 16 32 C 24.835938 32 32 24.835938 32 16 C 32 7.164062 24.835938 0 16 0 C 7.164062 0 0 7.164062 0 16 C 0 24.835938 7.164062 32 16 32 Z M 16 32 "/>
</clipPath>
<clipPath id="clip-1">
<path clip-rule="nonzero" d="M 11 11 L 21 11 L 21 21 L 11 21 Z M 11 11 "/>
</clipPath>
<clipPath id="clip-2">
<path clip-rule="evenodd" d="M 12.398438 11.367188 L 12.449219 11.410156 L 16.0625 15.023438 L 19.503906 11.582031 C 19.714844 11.371094 20.066406 11.378906 20.285156 11.601562 C 20.492188 11.808594 20.515625 12.125 20.347656 12.335938 L 20.304688 12.382812 L 16.863281 15.824219 L 20.476562 19.4375 C 20.699219 19.660156 20.707031 20.011719 20.496094 20.222656 C 20.300781 20.417969 19.984375 20.425781 19.761719 20.246094 L 19.714844 20.203125 L 16.101562 16.589844 L 12.660156 20.03125 C 12.449219 20.242188 12.097656 20.234375 11.875 20.011719 C 11.667969 19.804688 11.648438 19.488281 11.8125 19.277344 L 11.855469 19.226562 L 15.296875 15.785156 L 11.683594 12.175781 C 11.460938 11.953125 11.453125 11.601562 11.664062 11.390625 C 11.859375 11.195312 12.175781 11.1875 12.398438 11.367188 Z M 12.398438 11.367188 "/>
</clipPath>
</defs>
<g clip-path="url(#clip-0)">
<rect x="-3.2" y="-3.2" width="38.4" height="38.4" fill="rgb(100%, 100%, 100%)" fill-opacity="1"/>
</g>
<g clip-path="url(#clip-1)">
<g clip-path="url(#clip-2)">
<path fill-rule="nonzero" fill="rgb(96.078491%, 37.254333%, 14.117432%)" fill-opacity="1" d="M 10.453125 10.1875 L 21.707031 10.1875 L 21.707031 21.425781 L 10.453125 21.425781 Z M 10.453125 10.1875 "/>
</g>
</g>
</svg>
