<?xml version="1.0" encoding="UTF-8"?>
<svg xmlns="http://www.w3.org/2000/svg" xmlns:xlink="http://www.w3.org/1999/xlink" width="23" height="23" viewBox="0 0 23 23">
<defs>
<clipPath id="clip-0">
<path clip-rule="nonzero" d="M 15.53125 23 C 17.792969 23 19.609375 21.289062 19.699219 19.089844 L 20.171875 4.78125 L 22.40625 4.78125 C 22.730469 4.78125 23 4.519531 23 4.199219 C 23 3.882812 22.730469 3.621094 22.40625 3.621094 L 16.15625 3.621094 L 16.15625 2.316406 C 16.15625 1.042969 15.085938 0 13.777344 0 L 9.253906 0 C 7.945312 0 6.875 1.042969 6.875 2.316406 L 6.875 3.621094 L 0.59375 3.621094 C 0.269531 3.621094 0 3.882812 0 4.199219 C 0 4.519531 0.269531 4.78125 0.59375 4.78125 L 2.828125 4.78125 L 3.300781 19.089844 C 3.390625 21.289062 5.207031 23 7.46875 23 Z M 8 1.941406 C 8 1.421875 8.542969 1 9.207031 1 L 13.792969 1 C 14.457031 1 15 1.421875 15 1.941406 L 15 3 L 8 3 Z M 4.476562 19.207031 L 4 5 L 19 5 L 18.492188 19.207031 C 18.433594 20.761719 17.121094 22 15.511719 22 L 7.460938 22 C 5.847656 22 4.535156 20.789062 4.476562 19.207031 Z M 4.476562 19.207031 "/>
</clipPath>
<clipPath id="clip-1">
<path clip-rule="nonzero" d="M 11 9 L 12 9 L 12 19 L 11 19 Z M 11 9 "/>
</clipPath>
<clipPath id="clip-2">
<path clip-rule="nonzero" d="M 11.5 19 C 11.773438 19 12 18.734375 12 18.410156 L 12 9.589844 C 12 9.265625 11.773438 9 11.5 9 C 11.226562 9 11 9.265625 11 9.589844 L 11 18.410156 C 11 18.734375 11.226562 19 11.5 19 Z M 11.5 19 "/>
</clipPath>
<clipPath id="clip-3">
<path clip-rule="nonzero" d="M 7 9 L 8 9 L 8 19 L 7 19 Z M 7 9 "/>
</clipPath>
<clipPath id="clip-4">
<path clip-rule="nonzero" d="M 7.5 19 C 7.773438 19 8 18.734375 8 18.410156 L 8 9.589844 C 8 9.265625 7.773438 9 7.5 9 C 7.226562 9 7 9.265625 7 9.589844 L 7 18.410156 C 7 18.734375 7.226562 19 7.5 19 Z M 7.5 19 "/>
</clipPath>
<clipPath id="clip-5">
<path clip-rule="nonzero" d="M 15 9 L 16 9 L 16 19 L 15 19 Z M 15 9 "/>
</clipPath>
<clipPath id="clip-6">
<path clip-rule="nonzero" d="M 15.5 19 C 15.773438 19 16 18.734375 16 18.410156 L 16 9.589844 C 16 9.265625 15.773438 9 15.5 9 C 15.226562 9 15 9.265625 15 9.589844 L 15 18.410156 C 15 18.734375 15.226562 19 15.5 19 Z M 15.5 19 "/>
</clipPath>
</defs>
<g clip-path="url(#clip-0)">
<rect x="-2.3" y="-2.3" width="27.6" height="27.6" fill="rgb(96.078491%, 37.254333%, 14.117432%)" fill-opacity="1"/>
</g>
<g clip-path="url(#clip-1)">
<g clip-path="url(#clip-2)">
<path fill-rule="nonzero" fill="rgb(96.078491%, 37.254333%, 14.117432%)" fill-opacity="1" d="M 10 8 L 13 8 L 13 20 L 10 20 Z M 10 8 "/>
</g>
</g>
<g clip-path="url(#clip-3)">
<g clip-path="url(#clip-4)">
<path fill-rule="nonzero" fill="rgb(96.078491%, 37.254333%, 14.117432%)" fill-opacity="1" d="M 6 8 L 9 8 L 9 20 L 6 20 Z M 6 8 "/>
</g>
</g>
<g clip-path="url(#clip-5)">
<g clip-path="url(#clip-6)">
<path fill-rule="nonzero" fill="rgb(96.078491%, 37.254333%, 14.117432%)" fill-opacity="1" d="M 14 8 L 17 8 L 17 20 L 14 20 Z M 14 8 "/>
</g>
</g>
</svg>
