<?xml version="1.0" encoding="UTF-8"?>
<svg xmlns="http://www.w3.org/2000/svg" xmlns:xlink="http://www.w3.org/1999/xlink" width="20" height="20" viewBox="0 0 20 20">
<defs>
<clipPath id="clip-0">
<path clip-rule="nonzero" d="M 1 0 L 19 0 L 19 20 L 1 20 Z M 1 0 "/>
</clipPath>
<clipPath id="clip-1">
<path clip-rule="nonzero" d="M 10 0 C 8.828125 0 7.679688 0.207031 6.601562 0.605469 C 2.496094 2.121094 0.34375 6.070312 1.175781 10.195312 C 1.511719 11.855469 2.414062 13.410156 3.726562 14.734375 L 8.203125 19.253906 C 9.191406 20.25 10.808594 20.25 11.796875 19.253906 L 16.273438 14.734375 C 17.589844 13.40625 18.488281 11.855469 18.824219 10.195312 C 19.65625 6.070312 17.503906 2.121094 13.398438 0.605469 C 12.320312 0.207031 11.175781 0 10 0 Z M 10 2 C 10.9375 2 11.847656 2.164062 12.707031 2.480469 C 15.878906 3.652344 17.503906 6.632812 16.863281 9.800781 C 16.613281 11.050781 15.90625 12.261719 14.855469 13.328125 L 10.375 17.84375 C 10.171875 18.050781 9.828125 18.050781 9.625 17.84375 L 5.148438 13.328125 C 4.09375 12.261719 3.390625 11.050781 3.136719 9.800781 C 2.496094 6.632812 4.121094 3.652344 7.292969 2.480469 C 8.152344 2.164062 9.0625 2 10 2 Z M 10 2 "/>
</clipPath>
<clipPath id="clip-2">
<path clip-rule="nonzero" d="M 6 5 L 14 5 L 14 13 L 6 13 Z M 6 5 "/>
</clipPath>
<clipPath id="clip-3">
<path clip-rule="evenodd" d="M 10 5 C 7.789062 5 6 6.789062 6 9 C 6 11.210938 7.789062 13 10 13 C 12.210938 13 14 11.210938 14 9 C 14 6.789062 12.210938 5 10 5 Z M 10 7 C 11.105469 7 12 7.894531 12 9 C 12 10.105469 11.105469 11 10 11 C 8.894531 11 8 10.105469 8 9 C 8 7.894531 8.894531 7 10 7 Z M 10 7 "/>
</clipPath>
</defs>
<g clip-path="url(#clip-0)">
<g clip-path="url(#clip-1)">
<rect x="-2" y="-2" width="24" height="24" fill="rgb(96.078491%, 37.254333%, 14.117432%)" fill-opacity="1"/>
</g>
</g>
<g clip-path="url(#clip-2)">
<g clip-path="url(#clip-3)">
<path fill-rule="nonzero" fill="rgb(96.078491%, 37.254333%, 14.117432%)" fill-opacity="1" d="M 5 4 L 15 4 L 15 14 L 5 14 Z M 5 4 "/>
</g>
</g>
</svg>
