<svg width="12" height="14" viewBox="0 0 12 14" fill="none" xmlns="http://www.w3.org/2000/svg">
<path fill-rule="evenodd" clip-rule="evenodd" d="M6.00029 0C5.29604 0 4.6079 0.144488 3.9611 0.423244C1.49819 1.48414 0.205175 4.24854 0.705413 7.13666C0.90695 8.29952 1.44783 9.38589 2.23563 10.3137L4.92221 13.4767C5.51535 14.1744 6.48523 14.1744 7.07818 13.4769L9.76487 10.3138C10.553 9.38562 11.0937 8.29914 11.2946 7.13631C11.7948 4.24837 10.5023 1.48409 8.03938 0.423202C7.39267 0.144488 6.70454 0 6.00029 0ZM6.00029 1.4C6.56216 1.4 7.10954 1.51493 7.62365 1.7365C9.52715 2.55643 10.5024 4.64208 10.1183 6.85936C9.96702 7.73529 9.5447 8.5838 8.91241 9.32849L6.22599 12.4912C6.10264 12.6363 5.89793 12.6363 5.7744 12.491L3.08808 9.32839C2.45597 8.58391 2.03344 7.73524 1.88162 6.85928C1.49764 4.64233 2.47325 2.55651 4.37683 1.73654C4.89104 1.51493 5.43842 1.4 6.00029 1.4ZM3.60001 6.3C3.60001 4.7534 4.67435 3.5 6.00001 3.5C7.32566 3.5 8.40001 4.7534 8.40001 6.3C8.40001 7.8466 7.32566 9.1 6.00001 9.1C4.67435 9.1 3.60001 7.8466 3.60001 6.3ZM7.20001 6.3C7.20001 5.5266 6.66292 4.9 6.00001 4.9C5.33709 4.9 4.80001 5.5266 4.80001 6.3C4.80001 7.0734 5.33709 7.7 6.00001 7.7C6.66292 7.7 7.20001 7.0734 7.20001 6.3Z" fill="#F15F24"/>
</svg>
