<svg width="29" height="25" viewBox="0 0 29 25" fill="none" xmlns="http://www.w3.org/2000/svg">
<path fill-rule="evenodd" clip-rule="evenodd" d="M19.6439 0.0345459H3.21267C1.44098 0.0345459 0 1.47553 0 3.24721V17.646C0 18.3279 0.771207 18.7123 1.31559 18.3235L5.89156 15.0586C6.27552 14.7851 6.72718 14.6403 7.19882 14.6403H17.2635C19.0352 14.6403 20.4762 13.1993 20.4762 11.4276V0.866843C20.4762 0.407415 20.1033 0.0345459 19.6439 0.0345459ZM15.6011 10.117H5.98477C5.52535 10.117 5.15248 9.74469 5.15248 9.2847C5.15248 8.82527 5.52535 8.4524 5.98477 8.4524H15.6011C16.0606 8.4524 16.4334 8.82527 16.4334 9.2847C16.4334 9.74469 16.0606 10.117 15.6011 10.117ZM5.98477 6.23294H15.6011C16.0606 6.23294 16.4334 5.86063 16.4334 5.40065C16.4334 4.94122 16.0606 4.56835 15.6011 4.56835H5.98477C5.52535 4.56835 5.15248 4.94122 5.15248 5.40065C5.15248 5.86063 5.52535 6.23294 5.98477 6.23294Z" fill="#F55F24"/>
<path d="M28.4093 9.70309V24.1013C28.4093 24.7786 27.642 25.1704 27.0937 24.7788L22.5177 21.5145C22.1338 21.241 21.6821 21.0961 21.2105 21.0961H11.1458C9.37409 21.0961 7.93311 19.6546 7.93311 17.8829V16.3049H17.2637C19.9531 16.3049 22.141 14.117 22.141 11.4276V6.48987H25.1966C26.9683 6.48987 28.4093 7.93141 28.4093 9.70309Z" fill="#F55F24"/>
</svg>
