<?xml version="1.0" encoding="UTF-8"?>
<svg xmlns="http://www.w3.org/2000/svg" xmlns:xlink="http://www.w3.org/1999/xlink" width="22" height="22" viewBox="0 0 22 22">
<defs>
<clipPath id="clip-0">
<path clip-rule="nonzero" d="M 2 4 L 18 4 L 18 19 L 2 19 Z M 2 4 "/>
</clipPath>
<clipPath id="clip-1">
<path clip-rule="nonzero" d="M 17.230469 4.507812 L 13.855469 18.535156 C 13.777344 18.851562 13.355469 18.910156 13.191406 18.640625 L 9.273438 12.1875 L 2.644531 8.59375 C 2.347656 8.433594 2.417969 8 2.742188 7.929688 L 16.785156 4.082031 C 17.054688 4.007812 17.292969 4.246094 17.230469 4.507812 Z M 16.21875 5.621094 L 10.003906 11.992188 L 13.355469 17.511719 Z M 9.492188 11.484375 L 15.699219 5.121094 L 3.777344 8.386719 Z M 9.492188 11.484375 "/>
</clipPath>
</defs>
<g clip-path="url(#clip-0)">
<g clip-path="url(#clip-1)">
<path fill-rule="nonzero" fill="rgb(100%, 100%, 100%)" fill-opacity="1" d="M -2.601562 4.296875 L 17 -0.953125 L 22.242188 18.621094 L 2.644531 23.871094 Z M -2.601562 4.296875 "/>
</g>
</g>
</svg>
