<svg width="30" height="30" viewBox="0 0 30 30" fill="none" xmlns="http://www.w3.org/2000/svg">
<circle cx="15" cy="15" r="15" fill="#FFEADC"/>
<path fill-rule="evenodd" clip-rule="evenodd" d="M18.502 6C19.2795 6 19.9192 6.59159 19.9946 7.34985L20.002 7.49388L20.0082 9H23C23.5523 9 24 9.44772 24 10C24 10.5128 23.614 10.9355 23.1166 10.9933L23 11H22.9252L22.2333 20.3041C22.083 22.325 20.4489 23.9028 18.4458 24.0025L18.2443 24.0075H11.7702C9.7448 24.0075 8.05075 22.4965 7.80153 20.5074L7.78147 20.307L7.0826 11H7C6.44772 11 6 10.5523 6 10C6 9.48716 6.38604 9.06449 6.88338 9.00673L7 9H9.99625V7.5C9.99625 6.7203 10.5911 6.07955 11.3518 6.00687L11.4963 6H18.502ZM19.0164 11.0075C18.9734 11.0076 18.931 11.0051 18.8895 11H10.9963H9.08823L9.77585 20.1572C9.85029 21.1486 10.6388 21.9262 11.6147 22.0015L11.7702 22.0075H18.2443C19.239 22.0075 20.0737 21.2787 20.2213 20.3106L20.2388 20.1558L20.9197 11H19.135C19.0961 11.0048 19.0565 11.0073 19.0164 11.0075ZM18.004 7.999L18.0081 9H11.9961L11.996 7.999H18.004ZM15.9932 13.8825C15.935 13.3852 15.512 12.9996 14.9991 13C14.4469 13.0005 13.9995 13.4486 14 14.0009L14.0043 19.0009L14.0111 19.1175C14.0693 19.6148 14.4923 20.0004 15.0051 20C15.5574 19.9995 16.0047 19.5514 16.0043 18.9991L16 13.9991L15.9932 13.8825ZM17.9991 13C18.512 12.9996 18.935 13.3852 18.9932 13.8825L19 13.9991L19.0043 18.9991C19.0047 19.5514 18.5574 19.9995 18.0051 20C17.4923 20.0004 17.0693 19.6148 17.0111 19.1175L17.0043 19.0009L17 14.0009C16.9995 13.4486 17.4469 13.0005 17.9991 13ZM12.9932 13.8825C12.935 13.3852 12.512 12.9996 11.9991 13C11.4469 13.0005 10.9995 13.4486 11 14.0009L11.0043 19.0009L11.0111 19.1175C11.0693 19.6148 11.4923 20.0004 12.0051 20C12.5574 19.9995 13.0047 19.5514 13.0043 18.9991L13 13.9991L12.9932 13.8825Z" fill="#FF9739"/>
</svg>
