<svg width="56" height="56" viewBox="0 0 56 56" fill="none" xmlns="http://www.w3.org/2000/svg">
<g clip-path="url(#clip0_299_2625)">
<g clip-path="url(#clip1_299_2625)">
<path d="M20.1388 18.363C21.192 16.5955 24.78 17.806 25.8391 21.5072C26.8981 25.2084 27.471 27.7419 27.471 27.7419C28.5937 27.4259 35.7002 26.044 36.4988 26.135C37.2974 26.2261 39.5 26.5 39.9942 28.6686C39.9942 31.1325 39.4965 31.4753 38.993 31.486C40 32 40.3935 34.5391 39.0451 35.4925C39.3923 37.3726 39.0451 38.8991 38.2465 39.0384C38.9467 40.4257 39.4965 42.6914 35.596 43.6609C31.6956 44.6304 30.7453 44.5875 30.4965 43.5216C28.1527 43.8912 21.3136 43.7519 20.6596 43.7519C20.0057 43.7519 16.383 30.6397 16.383 30.6397C16.383 30.6397 20.8101 28.1704 21.2326 26.6921C21.655 25.2138 20.5092 20.2645 20.4571 19.7557C20.405 19.2468 20.0115 18.5666 20.1272 18.3684L20.1388 18.363Z" fill="#F3C8B3"/>
<path d="M16.9143 30.4738C16.9143 30.4738 20.2882 28.3795 21.2951 27.0726C22.3021 25.7656 20.7049 19.7505 20.7049 19.7505" stroke="#653825" stroke-width="0.66" stroke-miterlimit="10" stroke-linecap="round"/>
<path d="M35.5 36.5001C33.0128 36.9024 32.3256 37.3939 31.2417 36.9868C30.1578 36.5797 29.6342 34.8786 30.2887 34.1322C30.7181 33.6427 35.5 32.8 35.5 32.8" stroke="#653825" stroke-width="0.597178" stroke-miterlimit="10" stroke-linecap="round"/>
<path d="M35.5 32.8C33.5 33.1 32.3308 33.7205 31.2417 33.3134C30.1525 32.9063 29.6341 31.2051 30.2887 30.4588C30.718 29.9693 35.8966 29 35.8966 29" stroke="#653825" stroke-width="0.597178" stroke-miterlimit="10" stroke-linecap="round"/>
<path d="M35.8967 40C33.5 40.5 32.3256 41.1255 31.2417 40.7184C30.1578 40.3113 29.6342 38.6102 30.2887 37.8638C30.7181 37.3743 35.8967 36.405 35.8967 36.405" stroke="#653825" stroke-width="0.597178" stroke-miterlimit="10" stroke-linecap="round"/>
<path d="M31.2417 44.3004C30.1578 43.8933 29.6342 42.1922 30.2887 41.4459C30.7181 40.9564 35.8967 39.9871 35.8967 39.9871" stroke="#653825" stroke-width="0.597178" stroke-miterlimit="10" stroke-linecap="round"/>
<path d="M16.1216 43.7529C17.3784 43.7529 20.6654 43.7519 20.6654 43.7519L16.3888 30.6396C16.3888 30.6396 10.6423 30.7694 9.83785 32.1138C8.19433 34.8723 12.4391 44.431 13.6081 44.1686C14.4125 43.9918 15.7975 43.9136 16.1216 43.7529Z" fill="#F3C8B3"/>
<path fill-rule="evenodd" clip-rule="evenodd" d="M38.1303 15.2781C38.1303 15.2781 37.0132 12.7769 34.1732 13.8872C32.7257 11.2708 30.2161 12.4963 30.2161 12.4963C30.2161 12.4963 27.653 13.6129 28.0782 16.9705C28.3448 19.084 29.4912 20.5262 30.304 21.3044C30.819 21.7972 31.5229 22.044 32.2446 21.9859C33.3829 21.8935 35.2147 21.4987 36.8166 20.0419C39.3605 17.7272 38.1303 15.2781 38.1303 15.2781Z" fill="#FF9739"/>
<path d="M36 15C36.3333 15.3333 37 16.2 37 17" stroke="white" stroke-width="0.66"/>
</g>
<path d="M15.814 30.425L-7.01855 29.5886L-2.79379 47.1502C3.40853 46.4768 16.057 44.8281 16.4976 44.7385C17.703 44.4932 16.2076 35.2055 16.1049 30.7187C16.1013 30.5584 15.9742 30.4309 15.814 30.425Z" fill="#FF9739"/>
</g>
<defs>
<clipPath id="clip0_299_2625">
<rect width="56" height="56" rx="28" fill="white"/>
</clipPath>
<clipPath id="clip1_299_2625">
<rect width="31" height="34" fill="white" transform="translate(9 11)"/>
</clipPath>
</defs>
</svg>
