<?xml version="1.0" encoding="UTF-8"?>
<svg xmlns="http://www.w3.org/2000/svg" xmlns:xlink="http://www.w3.org/1999/xlink" width="34" height="34" viewBox="0 0 34 34">
<defs>
<clipPath id="clip-0">
<path clip-rule="nonzero" d="M 3 3 L 31 3 L 31 31 L 3 31 Z M 3 3 "/>
</clipPath>
<clipPath id="clip-1">
<path clip-rule="nonzero" d="M 7.382812 7.382812 C 2.074219 12.695312 2.074219 21.304688 7.382812 26.617188 C 12.695312 31.929688 21.304688 31.929688 26.617188 26.617188 C 31.929688 21.304688 31.929688 12.695312 26.617188 7.382812 C 21.304688 2.074219 12.695312 2.074219 7.382812 7.382812 Z M 24.210938 9.785156 C 28.195312 13.769531 28.195312 20.226562 24.210938 24.210938 C 20.230469 28.195312 13.769531 28.195312 9.785156 24.210938 C 5.804688 20.226562 5.804688 13.769531 9.789062 9.785156 C 13.769531 5.804688 20.230469 5.804688 24.210938 9.785156 Z M 24.210938 9.785156 "/>
</clipPath>
<clipPath id="clip-2">
<path clip-rule="nonzero" d="M 7 7 L 27 7 L 27 27 L 7 27 Z M 7 7 "/>
</clipPath>
<clipPath id="clip-3">
<path clip-rule="nonzero" d="M 24.296875 7.296875 L 26.703125 9.703125 L 9.703125 26.703125 L 7.296875 24.296875 Z M 24.296875 7.296875 "/>
</clipPath>
<clipPath id="clip-4">
<path clip-rule="nonzero" d="M 7 7 L 27 7 L 27 27 L 7 27 Z M 7 7 "/>
</clipPath>
<clipPath id="clip-5">
<path clip-rule="nonzero" d="M 9.703125 7.296875 L 26.703125 24.296875 L 24.296875 26.703125 L 7.296875 9.703125 Z M 9.703125 7.296875 "/>
</clipPath>
<clipPath id="clip-6">
<path clip-rule="nonzero" d="M 15 15 L 30 15 L 30 30 L 15 30 Z M 15 15 "/>
</clipPath>
<clipPath id="clip-7">
<path clip-rule="nonzero" d="M 28.417969 15.371094 L 29.382812 18.628906 C 26.859375 19.378906 24.550781 20.738281 22.644531 22.644531 C 20.886719 24.40625 19.589844 26.503906 18.8125 28.804688 L 18.628906 29.382812 L 15.371094 28.417969 C 16.277344 25.351562 17.933594 22.550781 20.242188 20.242188 C 22.394531 18.085938 24.980469 16.5 27.808594 15.5625 Z M 28.417969 15.371094 "/>
</clipPath>
<clipPath id="clip-8">
<path clip-rule="nonzero" d="M 4 4 L 19 4 L 19 21 L 4 21 Z M 4 4 "/>
</clipPath>
<clipPath id="clip-9">
<path clip-rule="nonzero" d="M 15.355469 4.675781 L 18.644531 5.523438 C 17.757812 8.984375 16.117188 12.15625 13.8125 14.777344 C 11.664062 17.214844 9.085938 19.015625 6.253906 20.089844 L 5.644531 20.308594 L 4.554688 17.089844 C 7.054688 16.242188 9.351562 14.699219 11.257812 12.53125 C 13.0625 10.476562 14.394531 8.011719 15.179688 5.304688 Z M 15.355469 4.675781 "/>
</clipPath>
</defs>
<g clip-path="url(#clip-0)">
<g clip-path="url(#clip-1)">
<path fill-rule="nonzero" fill="rgb(95.68634%, 37.254333%, 14.117432%)" fill-opacity="1" d="M 1.074219 1.074219 L 32.929688 1.074219 L 32.929688 32.929688 L 1.074219 32.929688 Z M 1.074219 1.074219 "/>
</g>
</g>
<g clip-path="url(#clip-2)">
<g clip-path="url(#clip-3)">
<path fill-rule="nonzero" fill="rgb(95.68634%, 37.254333%, 14.117432%)" fill-opacity="1" d="M 6.296875 6.296875 L 27.703125 6.296875 L 27.703125 27.703125 L 6.296875 27.703125 Z M 6.296875 6.296875 "/>
</g>
</g>
<g clip-path="url(#clip-4)">
<g clip-path="url(#clip-5)">
<path fill-rule="nonzero" fill="rgb(95.68634%, 37.254333%, 14.117432%)" fill-opacity="1" d="M 6.296875 6.296875 L 27.703125 6.296875 L 27.703125 27.703125 L 6.296875 27.703125 Z M 6.296875 6.296875 "/>
</g>
</g>
<g clip-path="url(#clip-6)">
<g clip-path="url(#clip-7)">
<path fill-rule="nonzero" fill="rgb(95.68634%, 37.254333%, 14.117432%)" fill-opacity="1" d="M 14.371094 14.371094 L 30.382812 14.371094 L 30.382812 30.382812 L 14.371094 30.382812 Z M 14.371094 14.371094 "/>
</g>
</g>
<g clip-path="url(#clip-8)">
<g clip-path="url(#clip-9)">
<path fill-rule="nonzero" fill="rgb(95.68634%, 37.254333%, 14.117432%)" fill-opacity="1" d="M 3.554688 3.675781 L 19.644531 3.675781 L 19.644531 21.308594 L 3.554688 21.308594 Z M 3.554688 3.675781 "/>
</g>
</g>
</svg>
