<?xml version="1.0" encoding="UTF-8"?>
<svg xmlns="http://www.w3.org/2000/svg" xmlns:xlink="http://www.w3.org/1999/xlink" width="14" height="14" viewBox="0 0 14 14">
<defs>
<clipPath id="clip-0">
<path clip-rule="nonzero" d="M 7 0 C 6.179688 0 5.375 0.144531 4.621094 0.421875 C 1.746094 1.484375 0.238281 4.25 0.824219 7.136719 C 1.058594 8.300781 1.6875 9.386719 2.609375 10.3125 L 5.742188 13.476562 C 6.433594 14.175781 7.566406 14.175781 8.257812 13.476562 L 11.390625 10.3125 C 12.3125 9.386719 12.941406 8.300781 13.175781 7.136719 C 13.761719 4.25 12.253906 1.484375 9.378906 0.421875 C 8.625 0.144531 7.820312 0 7 0 Z M 7 1.398438 C 7.65625 1.398438 8.292969 1.515625 8.894531 1.738281 C 11.113281 2.554688 12.253906 4.640625 11.804688 6.859375 C 11.628906 7.734375 11.136719 8.582031 10.398438 9.328125 L 7.261719 12.492188 C 7.121094 12.636719 6.882812 12.636719 6.738281 12.492188 L 3.601562 9.328125 C 2.867188 8.582031 2.371094 7.734375 2.195312 6.859375 C 1.746094 4.640625 2.886719 2.554688 5.105469 1.738281 C 5.707031 1.515625 6.34375 1.398438 7 1.398438 Z M 7 1.398438 "/>
</clipPath>
<clipPath id="clip-1">
<path clip-rule="nonzero" d="M 4 3 L 10 3 L 10 10 L 4 10 Z M 4 3 "/>
</clipPath>
<clipPath id="clip-2">
<path clip-rule="evenodd" d="M 7 3.5 C 5.453125 3.5 4.199219 4.753906 4.199219 6.300781 C 4.199219 7.847656 5.453125 9.101562 7 9.101562 C 8.546875 9.101562 9.800781 7.847656 9.800781 6.300781 C 9.800781 4.753906 8.546875 3.5 7 3.5 Z M 7 4.898438 C 7.773438 4.898438 8.398438 5.527344 8.398438 6.300781 C 8.398438 7.074219 7.773438 7.699219 7 7.699219 C 6.226562 7.699219 5.601562 7.074219 5.601562 6.300781 C 5.601562 5.527344 6.226562 4.898438 7 4.898438 Z M 7 4.898438 "/>
</clipPath>
</defs>
<g clip-path="url(#clip-0)">
<rect x="-1.4" y="-1.4" width="16.8" height="16.8" fill="rgb(100%, 100%, 100%)" fill-opacity="1"/>
</g>
<g clip-path="url(#clip-1)">
<g clip-path="url(#clip-2)">
<path fill-rule="nonzero" fill="rgb(100%, 100%, 100%)" fill-opacity="1" d="M 3.199219 2.5 L 10.800781 2.5 L 10.800781 10.101562 L 3.199219 10.101562 Z M 3.199219 2.5 "/>
</g>
</g>
</svg>
