<?xml version="1.0" encoding="UTF-8"?>
<svg xmlns="http://www.w3.org/2000/svg" xmlns:xlink="http://www.w3.org/1999/xlink" width="32" height="32" viewBox="0 0 32 32">
<path fill-rule="nonzero" fill="rgb(88.626099%, 59.214783%, 75.292969%)" fill-opacity="1" d="M 32 16 C 32 24.835938 24.835938 32 16 32 C 7.164062 32 0 24.835938 0 16 C 0 7.164062 7.164062 0 16 0 C 24.835938 0 32 7.164062 32 16 Z M 32 16 "/>
<path fill-rule="nonzero" fill="rgb(100%, 100%, 100%)" fill-opacity="1" d="M 21.832031 11 L 20.167969 11 C 20.167969 8.699219 18.300781 6.832031 16 6.832031 C 13.699219 6.832031 11.832031 8.699219 11.832031 11 L 10.167969 11 C 9.25 11 8.507812 11.75 8.507812 12.667969 L 8.5 22.667969 C 8.5 23.582031 9.25 24.332031 10.167969 24.332031 L 21.832031 24.332031 C 22.75 24.332031 23.5 23.582031 23.5 22.667969 L 23.5 12.667969 C 23.5 11.75 22.75 11 21.832031 11 Z M 16 8.5 C 17.382812 8.5 18.5 9.617188 18.5 11 L 13.5 11 C 13.5 9.617188 14.617188 8.5 16 8.5 Z M 16 16.832031 C 13.699219 16.832031 11.832031 14.964844 11.832031 12.667969 L 13.5 12.667969 C 13.5 14.050781 14.617188 15.167969 16 15.167969 C 17.382812 15.167969 18.5 14.050781 18.5 12.667969 L 20.167969 12.667969 C 20.167969 14.964844 18.300781 16.832031 16 16.832031 Z M 16 16.832031 "/>
</svg>
