<?xml version="1.0" encoding="UTF-8"?>
<svg xmlns="http://www.w3.org/2000/svg" xmlns:xlink="http://www.w3.org/1999/xlink" width="20" height="20" viewBox="0 0 20 20">
<path fill-rule="evenodd" fill="rgb(96.099854%, 37.298584%, 14.099121%)" fill-opacity="1" d="M 13.503906 1 C 14.28125 1 14.917969 1.589844 14.996094 2.351562 L 15.003906 2.492188 L 15.007812 4 L 18 4 C 18.550781 4 19 4.449219 19 5 C 19 5.511719 18.613281 5.933594 18.117188 5.992188 L 18 6 L 17.925781 6 L 17.234375 15.304688 C 17.082031 17.324219 15.449219 18.902344 13.445312 19.003906 L 13.246094 19.007812 L 6.769531 19.007812 C 4.746094 19.007812 3.050781 17.496094 2.800781 15.507812 L 2.78125 15.308594 L 2.082031 6 L 2 6 C 1.449219 6 1 5.550781 1 5 C 1 4.488281 1.386719 4.066406 1.882812 4.007812 L 2 4 L 4.996094 4 L 4.996094 2.5 C 4.996094 1.71875 5.589844 1.078125 6.351562 1.007812 L 6.496094 1 Z M 14.015625 6.007812 C 13.972656 6.007812 13.929688 6.003906 13.890625 6 L 4.089844 6 L 4.777344 15.15625 C 4.851562 16.148438 5.640625 16.925781 6.613281 17 L 6.769531 17.007812 L 13.246094 17.007812 C 14.238281 17.007812 15.074219 16.277344 15.222656 15.3125 L 15.238281 15.15625 L 15.917969 6 L 14.136719 6 C 14.097656 6.003906 14.054688 6.007812 14.015625 6.007812 Z M 13.003906 3 L 13.007812 4 L 6.996094 4 L 6.996094 3 Z M 10.992188 8.882812 C 10.933594 8.386719 10.511719 8 10 8 C 9.445312 8 9 8.449219 9 9 L 9.003906 14 L 9.011719 14.117188 C 9.070312 14.613281 9.492188 15 10.003906 15 C 10.558594 15 11.003906 14.550781 11.003906 14 L 11 9 Z M 13 8 C 13.511719 8 13.933594 8.386719 13.992188 8.882812 L 14 9 L 14.003906 14 C 14.003906 14.550781 13.558594 15 13.003906 15 C 12.492188 15 12.070312 14.613281 12.011719 14.117188 L 12.003906 14 L 12 9 C 12 8.449219 12.445312 8 13 8 Z M 7.992188 8.882812 C 7.933594 8.386719 7.511719 8 7 8 C 6.445312 8 6 8.449219 6 9 L 6.003906 14 L 6.011719 14.117188 C 6.070312 14.613281 6.492188 15 7.003906 15 C 7.558594 15 8.003906 14.550781 8.003906 14 L 8 9 Z M 7.992188 8.882812 "/>
</svg>
