<?xml version="1.0" encoding="UTF-8"?>
<svg xmlns="http://www.w3.org/2000/svg" xmlns:xlink="http://www.w3.org/1999/xlink" width="27" height="27" viewBox="0 0 27 27">
<path fill="none" stroke-width="2" stroke-linecap="round" stroke-linejoin="miter" stroke="rgb(96.078491%, 37.254333%, 14.117432%)" stroke-opacity="1" stroke-miterlimit="10" d="M 15.960938 25.5 L 10.039062 25.5 C 5.066406 25.5 1 21.433594 1 16.460938 L 1 10.539062 C 1 5.566406 5.066406 1.5 10.039062 1.5 L 15.960938 1.5 C 20.933594 1.5 25 5.566406 25 10.539062 L 25 16.460938 " transform="matrix(1, 0, 0, -1, 0, 27)"/>
<path fill="none" stroke-width="2" stroke-linecap="butt" stroke-linejoin="miter" stroke="rgb(96.078491%, 37.254333%, 14.117432%)" stroke-opacity="1" stroke-miterlimit="10" d="M 25.550781 21.089844 L 13.574219 9.109375 C 13.429688 8.96875 13.242188 8.875 13.039062 8.855469 L 10.003906 8.507812 C 9.425781 8.441406 8.941406 8.925781 9.007812 9.503906 L 9.355469 12.539062 C 9.375 12.742188 9.46875 12.929688 9.613281 13.074219 L 21.589844 25.050781 C 22.1875 25.648438 23.152344 25.648438 23.75 25.050781 L 25.550781 23.25 C 26.148438 22.652344 26.148438 21.6875 25.550781 21.089844 Z M 25.550781 21.089844 " transform="matrix(1, 0, 0, -1, 0, 27)"/>
<path fill="none" stroke-width="2" stroke-linecap="butt" stroke-linejoin="miter" stroke="rgb(96.078491%, 37.254333%, 14.117432%)" stroke-opacity="1" stroke-miterlimit="10" d="M 23 19.5 L 19 23.5 " transform="matrix(1, 0, 0, -1, 0, 27)"/>
</svg>
