<?xml version="1.0" encoding="UTF-8"?>
<svg xmlns="http://www.w3.org/2000/svg" xmlns:xlink="http://www.w3.org/1999/xlink" width="34" height="34" viewBox="0 0 34 34">
<defs>
<clipPath id="clip-0">
<path clip-rule="nonzero" d="M 3 1 L 32 1 L 32 34 L 3 34 Z M 3 1 "/>
</clipPath>
<clipPath id="clip-1">
<path clip-rule="nonzero" d="M 16.710938 1.929688 L 4.25 9.121094 C 3.722656 9.425781 3.398438 9.988281 3.398438 10.59375 L 3.398438 24.984375 C 3.398438 25.589844 3.722656 26.152344 4.25 26.457031 L 16.710938 33.648438 C 17.238281 33.953125 17.886719 33.953125 18.410156 33.648438 L 30.871094 26.457031 C 31.398438 26.152344 31.722656 25.589844 31.722656 24.984375 L 31.722656 10.59375 C 31.722656 9.988281 31.398438 9.425781 30.871094 9.121094 L 18.410156 1.929688 C 17.886719 1.625 17.238281 1.625 16.710938 1.929688 Z M 17.5625 5.363281 L 28.320312 11.578125 L 28.320312 24 L 17.5625 30.210938 L 6.800781 24 L 6.800781 11.574219 Z M 17.5625 5.363281 "/>
</clipPath>
<clipPath id="clip-2">
<path clip-rule="nonzero" d="M 3 8 L 20 8 L 20 34 L 3 34 Z M 3 8 "/>
</clipPath>
<clipPath id="clip-3">
<path clip-rule="nonzero" d="M 3.628906 9.746094 C 4.0625 8.988281 4.992188 8.695312 5.773438 9.03125 L 5.949219 9.121094 L 18.410156 16.316406 C 18.878906 16.585938 19.1875 17.058594 19.25 17.589844 L 19.261719 17.789062 L 19.261719 32.175781 C 19.261719 33.117188 18.5 33.878906 17.5625 33.878906 C 16.6875 33.878906 15.972656 33.222656 15.871094 32.375 L 15.859375 32.175781 L 15.859375 18.769531 L 4.25 12.066406 C 3.496094 11.628906 3.199219 10.703125 3.539062 9.921875 Z M 3.628906 9.746094 "/>
</clipPath>
<clipPath id="clip-4">
<path clip-rule="nonzero" d="M 15 8 L 32 8 L 32 20 L 15 20 Z M 15 8 "/>
</clipPath>
<clipPath id="clip-5">
<path clip-rule="nonzero" d="M 29.171875 9.121094 L 16.710938 16.316406 C 15.898438 16.785156 15.621094 17.824219 16.089844 18.636719 C 16.558594 19.453125 17.597656 19.730469 18.410156 19.261719 L 30.871094 12.066406 C 31.683594 11.597656 31.964844 10.558594 31.496094 9.746094 C 31.023438 8.929688 29.984375 8.652344 29.171875 9.121094 Z M 29.171875 9.121094 "/>
</clipPath>
<clipPath id="clip-6">
<path clip-rule="nonzero" d="M 9 5 L 26 5 L 26 16 L 9 16 Z M 9 5 "/>
</clipPath>
<clipPath id="clip-7">
<path clip-rule="nonzero" d="M 22.941406 5.523438 L 10.480469 12.71875 C 9.667969 13.1875 9.390625 14.226562 9.859375 15.042969 C 10.328125 15.855469 11.367188 16.132812 12.179688 15.664062 L 24.640625 8.46875 C 25.453125 8 25.734375 6.960938 25.265625 6.148438 C 24.792969 5.332031 23.753906 5.054688 22.941406 5.523438 Z M 22.941406 5.523438 "/>
</clipPath>
</defs>
<g clip-path="url(#clip-0)">
<g clip-path="url(#clip-1)">
<path fill-rule="nonzero" fill="rgb(255, 151, 57)" fill-opacity="1" d="M 2.398438 0.625 L 32.722656 0.625 L 32.722656 34.953125 L 2.398438 34.953125 Z M 2.398438 0.625 "/>
</g>
</g>
<g clip-path="url(#clip-2)">
<g clip-path="url(#clip-3)">
<path fill-rule="nonzero" fill="rgb(255, 151, 57)" fill-opacity="1" d="M 2.199219 7.695312 L 20.261719 7.695312 L 20.261719 34.878906 L 2.199219 34.878906 Z M 2.199219 7.695312 "/>
</g>
</g>
<g clip-path="url(#clip-4)">
<g clip-path="url(#clip-5)">
<path fill-rule="nonzero" fill="rgb(255, 151, 57)" fill-opacity="1" d="M 14.621094 7.652344 L 32.964844 7.652344 L 32.964844 20.730469 L 14.621094 20.730469 Z M 14.621094 7.652344 "/>
</g>
</g>
<g clip-path="url(#clip-6)">
<g clip-path="url(#clip-7)">
<path fill-rule="nonzero" fill="rgb(255, 151, 57)" fill-opacity="1" d="M 8.390625 4.054688 L 26.734375 4.054688 L 26.734375 17.132812 L 8.390625 17.132812 Z M 8.390625 4.054688 "/>
</g>
</g>
</svg>
