<svg width="30" height="30" viewBox="0 0 30 30" fill="none" xmlns="http://www.w3.org/2000/svg">
<circle cx="15" cy="15" r="15" fill="#FFEADC"/>
<path fill-rule="evenodd" clip-rule="evenodd" d="M7.20944 12.2421C7.34037 8.29097 10.6546 5.12874 14.7514 5.00383L15.0032 5C19.3002 5 22.801 8.33972 22.801 12.4849L22.7972 12.545L22.7979 16.0406C22.7979 17.1464 23.2979 18.1996 24.2144 18.9719L24.4032 19.1225L24.5308 19.2366C25.5595 20.2681 24.7989 22 23.3405 22H6.66084C5.09266 22 4.37808 20.0361 5.63122 19.0942L5.81218 18.9512C6.69765 18.2124 7.20336 17.1514 7.20336 16.0406V12.4741L7.20944 12.2421ZM20.7967 12.2703C20.6805 9.42111 18.262 7.11497 15.2316 7.00417L15.0032 7C11.7909 7 9.20542 9.46628 9.20542 12.4849L9.20316 12.52L9.20336 16.0406C9.20336 17.4799 8.65527 18.8571 7.67209 19.9318L7.60516 20H22.3902L22.3692 19.9792C21.426 18.9713 20.8664 17.6721 20.8038 16.2989L20.7979 16.0406V12.4741L20.7992 12.433L20.7967 12.2703Z" fill="#FF9739"/>
<path d="M18 20C18.5523 20 19 20.4477 19 21C19 23.2092 17.2091 25 15.0005 25C12.7911 25 11 23.2094 11 21C11 20.4477 11.4477 20 12 20C12.5523 20 13 20.4477 13 21C13 22.1047 13.8956 23 15.0005 23C16.0543 23 16.9182 22.1841 16.9945 21.1493L17 21C17 20.4477 17.4477 20 18 20Z" fill="#FF9739"/>
</svg>
