<?xml version="1.0" encoding="UTF-8"?>
<svg xmlns="http://www.w3.org/2000/svg" xmlns:xlink="http://www.w3.org/1999/xlink" width="20" height="23" viewBox="0 0 20 23">
<defs>
<clipPath id="clip-0">
<path clip-rule="nonzero" d="M 17.554688 14.859375 L 17.53125 14.859375 L 17.53125 10.121094 C 17.515625 8.214844 16.78125 6.382812 15.480469 5 C 14.183594 3.613281 12.410156 2.777344 10.527344 2.660156 L 10.527344 0.53125 C 10.527344 0.238281 10.289062 0 10 0 C 9.707031 0 9.472656 0.238281 9.472656 0.53125 L 9.472656 2.660156 C 7.585938 2.777344 5.816406 3.613281 4.515625 5 C 3.214844 6.382812 2.484375 8.214844 2.464844 10.121094 L 2.464844 14.859375 L 2.445312 14.859375 C 1.570312 14.859375 0.765625 15.332031 0.328125 16.09375 C -0.109375 16.859375 -0.109375 17.800781 0.328125 18.5625 C 0.765625 19.328125 1.570312 19.796875 2.445312 19.796875 L 7.128906 19.796875 L 7.128906 20.011719 C 7.105469 20.796875 7.394531 21.554688 7.9375 22.121094 C 8.476562 22.683594 9.222656 23 9.996094 23 C 10.773438 23 11.515625 22.683594 12.058594 22.121094 C 12.597656 21.554688 12.890625 20.796875 12.867188 20.011719 L 12.867188 19.796875 L 17.554688 19.796875 C 18.429688 19.796875 19.234375 19.328125 19.671875 18.5625 C 20.109375 17.800781 20.109375 16.859375 19.671875 16.09375 C 19.234375 15.332031 18.429688 14.859375 17.554688 14.859375 Z M 3.519531 10.121094 C 3.539062 8.414062 4.222656 6.785156 5.425781 5.582031 C 6.628906 4.382812 8.25 3.707031 9.941406 3.707031 L 10.058594 3.707031 C 11.746094 3.707031 13.371094 4.382812 14.574219 5.582031 C 15.773438 6.785156 16.460938 8.414062 16.480469 10.121094 L 16.480469 14.859375 L 3.519531 14.859375 Z M 11.816406 20.011719 C 11.835938 20.507812 11.652344 20.992188 11.308594 21.351562 C 10.96875 21.710938 10.496094 21.914062 10 21.914062 C 9.507812 21.914062 9.035156 21.710938 8.691406 21.351562 C 8.347656 20.992188 8.164062 20.507812 8.183594 20.011719 L 8.183594 19.792969 L 11.816406 19.792969 Z M 17.554688 18.730469 L 2.441406 18.730469 C 1.945312 18.730469 1.484375 18.460938 1.238281 18.027344 C 0.988281 17.59375 0.988281 17.058594 1.238281 16.625 C 1.484375 16.1875 1.945312 15.921875 2.441406 15.921875 L 17.554688 15.921875 C 18.050781 15.921875 18.511719 16.1875 18.761719 16.625 C 19.007812 17.058594 19.007812 17.59375 18.761719 18.027344 C 18.511719 18.460938 18.050781 18.730469 17.554688 18.730469 Z M 17.554688 18.730469 "/>
</clipPath>
</defs>
<g clip-path="url(#clip-0)">
<rect x="-2" y="-2.3" width="24" height="27.6" fill="rgb(100%, 59.2%, 22.3%)" fill-opacity="1"/>
</g>
</svg>
