<?xml version="1.0" encoding="UTF-8"?>
<svg xmlns="http://www.w3.org/2000/svg" xmlns:xlink="http://www.w3.org/1999/xlink" width="20" height="20" viewBox="0 0 20 20">
<defs>
<clipPath id="clip-0">
<path clip-rule="nonzero" d="M 18.316406 10.003906 C 18.316406 10.242188 18.308594 10.476562 18.289062 10.714844 C 18.28125 10.832031 18.269531 10.945312 18.257812 11.0625 C 18.253906 11.082031 18.253906 11.101562 18.25 11.121094 C 18.234375 11.214844 18.242188 11.199219 18.257812 11.070312 C 18.269531 11.132812 18.230469 11.234375 18.222656 11.296875 C 18.148438 11.75 18.039062 12.191406 17.898438 12.625 C 17.828125 12.839844 17.753906 13.050781 17.667969 13.257812 C 17.597656 13.441406 17.746094 13.085938 17.664062 13.261719 C 17.636719 13.3125 17.617188 13.363281 17.597656 13.414062 C 17.550781 13.515625 17.5 13.617188 17.449219 13.714844 C 17.238281 14.128906 17 14.523438 16.730469 14.898438 C 16.6875 14.957031 16.628906 15.085938 16.566406 15.125 C 16.585938 15.09375 16.605469 15.070312 16.628906 15.039062 C 16.605469 15.070312 16.582031 15.097656 16.558594 15.128906 C 16.527344 15.167969 16.492188 15.210938 16.453125 15.253906 C 16.304688 15.4375 16.144531 15.617188 15.976562 15.789062 C 15.824219 15.949219 15.664062 16.101562 15.5 16.246094 C 15.433594 16.3125 15.359375 16.371094 15.289062 16.429688 C 15.246094 16.460938 15.203125 16.5 15.164062 16.535156 C 15.132812 16.558594 15.101562 16.582031 15.078125 16.601562 C 15.007812 16.65625 15.019531 16.648438 15.117188 16.574219 C 15.070312 16.648438 14.921875 16.714844 14.847656 16.769531 C 14.757812 16.832031 14.664062 16.898438 14.574219 16.957031 C 14.371094 17.085938 14.164062 17.210938 13.953125 17.328125 C 13.773438 17.421875 13.59375 17.515625 13.40625 17.601562 C 13.355469 17.625 13.304688 17.648438 13.253906 17.667969 C 13.074219 17.746094 13.433594 17.597656 13.25 17.671875 C 13.128906 17.722656 13.007812 17.769531 12.882812 17.816406 C 12.460938 17.972656 12.015625 18.09375 11.574219 18.179688 C 11.460938 18.203125 11.347656 18.222656 11.234375 18.242188 C 11.1875 18.25 11.109375 18.273438 11.0625 18.265625 C 11.097656 18.261719 11.132812 18.257812 11.171875 18.253906 C 11.132812 18.257812 11.09375 18.261719 11.058594 18.265625 C 10.824219 18.292969 10.589844 18.3125 10.359375 18.320312 C 9.867188 18.335938 9.378906 18.3125 8.890625 18.261719 C 8.6875 18.242188 9.082031 18.292969 8.882812 18.261719 C 8.824219 18.253906 8.769531 18.246094 8.710938 18.238281 C 8.621094 18.21875 8.523438 18.203125 8.429688 18.1875 C 8.1875 18.140625 7.945312 18.082031 7.710938 18.011719 C 7.492188 17.949219 7.277344 17.882812 7.066406 17.800781 C 6.976562 17.769531 6.890625 17.734375 6.804688 17.703125 C 6.789062 17.691406 6.769531 17.6875 6.753906 17.679688 C 6.667969 17.648438 6.6875 17.652344 6.800781 17.703125 C 6.746094 17.703125 6.644531 17.632812 6.597656 17.609375 C 6.175781 17.414062 5.773438 17.1875 5.386719 16.933594 C 5.308594 16.882812 5.234375 16.832031 5.160156 16.777344 C 5.085938 16.726562 4.9375 16.65625 4.890625 16.582031 C 4.917969 16.601562 4.945312 16.621094 4.972656 16.644531 C 4.945312 16.621094 4.914062 16.597656 4.882812 16.578125 C 4.84375 16.542969 4.800781 16.507812 4.757812 16.472656 C 4.65625 16.386719 4.558594 16.300781 4.46875 16.21875 C 4.140625 15.921875 3.832031 15.601562 3.554688 15.261719 C 3.519531 15.21875 3.484375 15.179688 3.449219 15.136719 C 3.4375 15.125 3.429688 15.105469 3.414062 15.09375 C 3.359375 15.023438 3.367188 15.035156 3.445312 15.132812 C 3.367188 15.085938 3.300781 14.9375 3.246094 14.863281 C 3.121094 14.679688 3 14.496094 2.882812 14.304688 C 2.769531 14.117188 2.660156 13.921875 2.558594 13.71875 C 2.511719 13.621094 2.460938 13.523438 2.414062 13.417969 C 2.386719 13.367188 2.367188 13.316406 2.34375 13.265625 C 2.308594 13.179688 2.316406 13.199219 2.363281 13.3125 C 2.351562 13.277344 2.332031 13.246094 2.320312 13.207031 C 2.152344 12.785156 2.011719 12.355469 1.90625 11.914062 C 1.851562 11.691406 1.8125 11.46875 1.773438 11.238281 C 1.765625 11.191406 1.738281 11.113281 1.746094 11.066406 C 1.75 11.105469 1.757812 11.136719 1.761719 11.175781 C 1.757812 11.136719 1.75 11.101562 1.746094 11.0625 C 1.734375 10.945312 1.722656 10.832031 1.714844 10.710938 C 1.675781 10.222656 1.675781 9.726562 1.71875 9.238281 C 1.726562 9.140625 1.734375 9.042969 1.746094 8.949219 C 1.753906 8.925781 1.753906 8.910156 1.757812 8.890625 C 1.769531 8.796875 1.765625 8.8125 1.746094 8.941406 C 1.738281 8.894531 1.765625 8.8125 1.773438 8.765625 C 1.8125 8.523438 1.863281 8.277344 1.921875 8.039062 C 2.03125 7.601562 2.171875 7.171875 2.339844 6.75 C 2.414062 6.5625 2.261719 6.921875 2.347656 6.746094 C 2.371094 6.695312 2.390625 6.644531 2.414062 6.59375 C 2.460938 6.492188 2.511719 6.390625 2.5625 6.289062 C 2.664062 6.082031 2.78125 5.882812 2.898438 5.683594 C 3.007812 5.503906 3.125 5.324219 3.246094 5.148438 C 3.296875 5.078125 3.367188 4.929688 3.445312 4.878906 C 3.425781 4.910156 3.402344 4.933594 3.382812 4.964844 C 3.402344 4.933594 3.429688 4.902344 3.449219 4.875 C 3.496094 4.816406 3.542969 4.761719 3.589844 4.703125 C 3.871094 4.363281 4.183594 4.042969 4.511719 3.753906 C 4.59375 3.683594 4.675781 3.605469 4.761719 3.539062 C 4.804688 3.503906 4.847656 3.46875 4.890625 3.433594 C 4.902344 3.421875 4.917969 3.414062 4.929688 3.398438 C 5.003906 3.34375 4.988281 3.355469 4.894531 3.429688 C 4.9375 3.355469 5.085938 3.285156 5.164062 3.230469 C 5.25 3.167969 5.34375 3.105469 5.4375 3.046875 C 5.824219 2.792969 6.230469 2.570312 6.652344 2.375 C 6.6875 2.359375 6.765625 2.308594 6.804688 2.308594 C 6.679688 2.304688 6.683594 2.359375 6.785156 2.316406 C 6.878906 2.28125 6.972656 2.242188 7.070312 2.207031 C 7.300781 2.125 7.53125 2.046875 7.769531 1.984375 C 7.988281 1.921875 8.210938 1.871094 8.433594 1.824219 C 8.527344 1.808594 8.625 1.785156 8.714844 1.773438 C 8.773438 1.765625 8.828125 1.757812 8.890625 1.75 C 8.980469 1.734375 8.964844 1.734375 8.839844 1.757812 C 8.875 1.753906 8.914062 1.75 8.953125 1.746094 C 9.441406 1.691406 9.933594 1.671875 10.421875 1.695312 C 10.636719 1.703125 10.851562 1.71875 11.0625 1.746094 C 11.082031 1.75 11.097656 1.75 11.121094 1.753906 C 11.214844 1.765625 11.195312 1.761719 11.070312 1.746094 C 11.117188 1.734375 11.195312 1.761719 11.242188 1.769531 C 11.375 1.789062 11.507812 1.816406 11.636719 1.839844 C 12.085938 1.933594 12.519531 2.054688 12.949219 2.210938 C 13.054688 2.25 13.160156 2.292969 13.261719 2.335938 C 13.449219 2.40625 13.089844 2.253906 13.269531 2.339844 C 13.316406 2.363281 13.367188 2.382812 13.417969 2.40625 C 13.621094 2.5 13.820312 2.601562 14.015625 2.710938 C 14.210938 2.820312 14.398438 2.933594 14.585938 3.054688 C 14.679688 3.113281 14.769531 3.175781 14.859375 3.238281 C 14.90625 3.273438 14.949219 3.304688 14.992188 3.335938 C 15.023438 3.359375 15.054688 3.378906 15.082031 3.402344 C 15.152344 3.457031 15.140625 3.449219 15.042969 3.375 C 15.207031 3.449219 15.378906 3.644531 15.511719 3.761719 C 15.6875 3.921875 15.863281 4.085938 16.03125 4.257812 C 16.179688 4.417969 16.328125 4.582031 16.472656 4.753906 C 16.503906 4.792969 16.542969 4.835938 16.578125 4.878906 C 16.589844 4.890625 16.695312 5.039062 16.613281 4.925781 C 16.535156 4.808594 16.640625 4.957031 16.648438 4.972656 C 16.691406 5.03125 16.738281 5.089844 16.777344 5.152344 C 17.042969 5.53125 17.285156 5.925781 17.492188 6.34375 C 17.53125 6.429688 17.570312 6.511719 17.613281 6.597656 C 17.636719 6.648438 17.660156 6.699219 17.679688 6.75 C 17.761719 6.929688 17.609375 6.570312 17.683594 6.753906 C 17.773438 6.980469 17.863281 7.207031 17.933594 7.4375 C 18.070312 7.875 18.175781 8.320312 18.25 8.769531 C 18.257812 8.816406 18.28125 8.898438 18.273438 8.941406 C 18.269531 8.90625 18.265625 8.871094 18.261719 8.832031 C 18.265625 8.871094 18.269531 8.910156 18.273438 8.949219 C 18.285156 9.066406 18.300781 9.179688 18.308594 9.296875 C 18.308594 9.535156 18.316406 9.769531 18.316406 10.003906 C 18.316406 10.449219 18.703125 10.867188 19.15625 10.847656 C 19.613281 10.828125 20 10.476562 20 10.003906 C 19.992188 7.964844 19.371094 5.921875 18.179688 4.257812 C 16.980469 2.578125 15.324219 1.308594 13.382812 0.589844 C 11.449219 -0.121094 9.261719 -0.183594 7.285156 0.371094 C 5.375 0.910156 3.605469 2.042969 2.335938 3.585938 C 1 5.207031 0.199219 7.171875 0.03125 9.269531 C -0.132812 11.316406 0.375 13.421875 1.4375 15.171875 C 2.464844 16.867188 4.007812 18.273438 5.820312 19.089844 C 7.769531 19.972656 9.921875 20.21875 12.019531 19.804688 C 13.984375 19.410156 15.824219 18.382812 17.207031 16.941406 C 18.597656 15.492188 19.5625 13.621094 19.863281 11.632812 C 19.949219 11.09375 20 10.554688 20 10.003906 C 20 9.5625 19.613281 9.140625 19.15625 9.164062 C 18.703125 9.183594 18.320312 9.535156 18.316406 10.003906 Z M 18.316406 10.003906 "/>
</clipPath>
<clipPath id="clip-1">
<path clip-rule="nonzero" d="M 3 3 L 17 3 L 17 17 L 3 17 Z M 3 3 "/>
</clipPath>
<clipPath id="clip-2">
<path clip-rule="nonzero" d="M 15.628906 3.230469 C 15.214844 3.644531 14.804688 4.054688 14.390625 4.46875 C 13.40625 5.453125 12.417969 6.441406 11.429688 7.429688 C 10.238281 8.621094 9.042969 9.816406 7.855469 11.007812 C 6.824219 12.039062 5.789062 13.074219 4.761719 14.101562 C 4.257812 14.605469 3.742188 15.097656 3.253906 15.613281 C 3.246094 15.621094 3.238281 15.628906 3.230469 15.632812 C 2.933594 15.929688 2.910156 16.476562 3.230469 16.769531 C 3.554688 17.0625 4.054688 17.089844 4.371094 16.769531 C 4.785156 16.355469 5.195312 15.945312 5.609375 15.53125 C 6.59375 14.546875 7.582031 13.558594 8.570312 12.570312 C 9.761719 11.378906 10.957031 10.183594 12.144531 8.992188 L 15.238281 5.898438 C 15.742188 5.394531 16.257812 4.902344 16.746094 4.386719 L 16.769531 4.367188 C 17.066406 4.070312 17.089844 3.523438 16.769531 3.230469 C 16.445312 2.9375 15.945312 2.910156 15.628906 3.230469 Z M 15.628906 3.230469 "/>
</clipPath>
</defs>
<g clip-path="url(#clip-0)">
<rect x="-2" y="-2" width="24" height="24" fill="rgb(96.078491%, 37.254333%, 14.117432%)" fill-opacity="1"/>
</g>
<g clip-path="url(#clip-1)">
<g clip-path="url(#clip-2)">
<path fill-rule="nonzero" fill="rgb(96.078491%, 37.254333%, 14.117432%)" fill-opacity="1" d="M 1.910156 1.910156 L 18.089844 1.910156 L 18.089844 18.089844 L 1.910156 18.089844 Z M 1.910156 1.910156 "/>
</g>
</g>
</svg>
