<?xml version="1.0" encoding="UTF-8"?>
<svg xmlns="http://www.w3.org/2000/svg" xmlns:xlink="http://www.w3.org/1999/xlink" width="215" height="106" viewBox="0 0 215 106">
<defs>
<clipPath id="clip-0">
<path clip-rule="nonzero" d="M 103.546875 0 L 187.09375 0 L 187.09375 71.398438 L 103.546875 71.398438 Z M 103.546875 0 "/>
</clipPath>
<clipPath id="clip-1">
<path clip-rule="evenodd" d="M 103.546875 71.246094 L 110.335938 57.871094 L 118.246094 42.300781 L 118.285156 42.246094 L 121.621094 35.625 L 139.671875 0 L 150.203125 14.320312 L 154 19.46875 L 165.925781 35.714844 L 168.421875 39.125 L 172.492188 44.632812 L 186.09375 63.132812 C 188.585938 66.570312 186.136719 71.402344 181.902344 71.398438 L 167.679688 71.367188 L 161.894531 71.375 L 147.851562 71.335938 L 141.6875 71.324219 L 135.90625 71.300781 L 115.8125 71.265625 L 110 71.269531 Z M 103.546875 71.246094 "/>
</clipPath>
<clipPath id="clip-2">
<path clip-rule="nonzero" d="M 161 39 L 173 39 L 173 72 L 161 72 Z M 161 39 "/>
</clipPath>
<clipPath id="clip-3">
<path clip-rule="evenodd" d="M 161.894531 71.375 C 161.917969 67.957031 162.136719 64.566406 162.554688 61.203125 C 163.425781 54.273438 165.160156 47.449219 167.714844 40.789062 L 168.421875 39.125 L 172.492188 44.628906 C 169.328125 53.320312 167.703125 62.34375 167.679688 71.371094 Z M 161.894531 71.375 "/>
</clipPath>
<clipPath id="clip-4">
<path clip-rule="nonzero" d="M 135 14 L 154 14 L 154 72 L 135 72 Z M 135 14 "/>
</clipPath>
<clipPath id="clip-5">
<path clip-rule="evenodd" d="M 135.90625 71.300781 C 135.910156 66.132812 136.238281 61.179688 136.832031 56.460938 C 138.988281 39.261719 144.582031 25.152344 149.46875 15.542969 L 150.207031 14.320312 L 154 19.46875 C 148.21875 31.101562 141.578125 49.34375 141.691406 71.296875 L 141.6875 71.324219 Z M 135.90625 71.300781 "/>
</clipPath>
<clipPath id="clip-6">
<path clip-rule="nonzero" d="M 109 42 L 119 42 L 119 72 L 109 72 Z M 109 42 "/>
</clipPath>
<clipPath id="clip-7">
<path clip-rule="evenodd" d="M 110 71.269531 C 109.863281 66.78125 109.984375 62.300781 110.335938 57.871094 L 118.246094 42.300781 L 117.042969 50.738281 C 115.992188 57.5 115.566406 64.371094 115.796875 71.175781 L 115.8125 71.265625 Z M 110 71.269531 "/>
</clipPath>
<clipPath id="clip-8">
<path clip-rule="nonzero" d="M 13 62 L 27 62 L 27 72 L 13 72 Z M 13 62 "/>
</clipPath>
<clipPath id="clip-9">
<path clip-rule="nonzero" d="M 22.472656 62.609375 L 26.484375 65.789062 L 24.894531 67.792969 C 22.835938 70.398438 19.878906 71.5625 16.316406 71.28125 L 15.679688 71.21875 L 13.140625 70.902344 L 13.769531 65.824219 L 16.308594 66.140625 C 18.292969 66.382812 19.648438 65.972656 20.644531 64.898438 L 20.882812 64.617188 Z M 22.472656 62.609375 "/>
</clipPath>
<clipPath id="clip-10">
<path clip-rule="nonzero" d="M 0 54 L 96 54 L 96 85 L 0 85 Z M 0 54 "/>
</clipPath>
<clipPath id="clip-11">
<path clip-rule="nonzero" d="M 95.324219 69.867188 C 95.589844 70.523438 95.277344 71.269531 94.621094 71.539062 C 87.640625 74.394531 82.019531 74.152344 77.941406 70.667969 C 76.933594 69.808594 76.199219 69.046875 75.367188 67.988281 L 74.722656 67.128906 L 74.003906 66.121094 L 73.136719 64.871094 C 70.398438 60.964844 67.960938 59.082031 62.265625 57.460938 C 54.847656 55.351562 45.914062 58.84375 41.058594 64.257812 L 40.847656 64.5 L 41.378906 64.574219 C 45.65625 65.214844 48.460938 66.972656 50.085938 70.128906 L 50.28125 70.53125 C 53.710938 77.878906 50.328125 83.3125 44.597656 84.167969 C 39.0625 84.992188 33.59375 78.59375 35.148438 70.230469 C 35.324219 69.277344 35.613281 68.335938 36 67.421875 L 36.234375 66.90625 L 36.132812 66.910156 C 33.128906 66.972656 29.535156 67.378906 25.300781 68.089844 L 22.929688 68.503906 L 20.429688 68.976562 L 19.40625 69.179688 C 10.511719 70.964844 4.101562 67.988281 0.539062 60.355469 C 0.242188 59.714844 0.519531 58.953125 1.160156 58.65625 C 1.800781 58.355469 2.5625 58.632812 2.859375 59.273438 C 5.90625 65.804688 11.132812 68.230469 18.902344 66.671875 C 19.796875 66.492188 20.664062 66.324219 21.515625 66.164062 L 24 65.710938 C 24.40625 65.640625 24.804688 65.570312 25.199219 65.507812 L 27.5 65.144531 C 31.234375 64.589844 34.472656 64.289062 37.253906 64.296875 L 37.761719 64.296875 L 37.800781 64.242188 C 42.769531 57.304688 53.324219 52.632812 62.3125 54.828125 L 62.964844 55 C 68.988281 56.714844 71.917969 58.847656 74.832031 62.847656 L 75.3125 63.519531 L 76.425781 65.117188 C 76.535156 65.269531 76.640625 65.417969 76.746094 65.5625 L 77.335938 66.347656 C 78.085938 67.308594 78.730469 67.976562 79.601562 68.722656 C 82.851562 71.5 87.476562 71.695312 93.652344 69.167969 C 94.308594 68.902344 95.054688 69.214844 95.324219 69.867188 Z M 47.964844 71.613281 C 46.707031 68.914062 44.085938 67.453125 39.832031 67.03125 L 39.082031 66.964844 L 39 67.105469 C 38.441406 68.097656 38.027344 69.125 37.773438 70.171875 L 37.664062 70.699219 C 36.414062 77.40625 40.503906 82.191406 44.222656 81.636719 C 48.335938 81.023438 50.632812 77.332031 47.964844 71.613281 Z M 47.964844 71.613281 "/>
</clipPath>
<clipPath id="clip-12">
<path clip-rule="nonzero" d="M 88 58 L 96 58 L 96 67 L 88 67 Z M 88 58 "/>
</clipPath>
<clipPath id="clip-13">
<path clip-rule="evenodd" d="M 92.03125 66.53125 C 94.152344 66.53125 95.871094 64.8125 95.871094 62.691406 C 95.871094 60.570312 94.152344 58.851562 92.03125 58.851562 C 89.914062 58.851562 88.195312 60.570312 88.195312 62.691406 C 88.195312 64.8125 89.914062 66.53125 92.03125 66.53125 Z M 92.03125 66.53125 "/>
</clipPath>
<clipPath id="clip-14">
<path clip-rule="nonzero" d="M 57 69 L 66 69 L 66 72 L 57 72 Z M 57 69 "/>
</clipPath>
<clipPath id="clip-15">
<path clip-rule="evenodd" d="M 61.328125 71.648438 C 63.445312 71.648438 65.164062 71.074219 65.164062 70.367188 C 65.164062 69.660156 63.445312 69.089844 61.328125 69.089844 C 59.207031 69.089844 57.488281 69.660156 57.488281 70.367188 C 57.488281 71.074219 59.207031 71.648438 61.328125 71.648438 Z M 61.328125 71.648438 "/>
</clipPath>
<clipPath id="clip-16">
<path clip-rule="nonzero" d="M 188 64 L 196 64 L 196 70 L 188 70 Z M 188 64 "/>
</clipPath>
<clipPath id="clip-17">
<path clip-rule="evenodd" d="M 192.945312 68.1875 C 194.679688 66.96875 195.757812 65.515625 195.355469 64.9375 C 194.949219 64.359375 193.210938 64.875 191.476562 66.089844 C 189.738281 67.304688 188.660156 68.761719 189.066406 69.339844 C 189.472656 69.917969 191.207031 69.402344 192.945312 68.1875 Z M 192.945312 68.1875 "/>
</clipPath>
<clipPath id="clip-18">
<path clip-rule="nonzero" d="M 195 69 L 204 69 L 204 72 L 195 72 Z M 195 69 "/>
</clipPath>
<clipPath id="clip-19">
<path clip-rule="evenodd" d="M 199.503906 71.648438 C 201.621094 71.648438 203.339844 71.074219 203.339844 70.367188 C 203.339844 69.660156 201.621094 69.089844 199.503906 69.089844 C 197.382812 69.089844 195.664062 69.660156 195.664062 70.367188 C 195.664062 71.074219 197.382812 71.648438 199.503906 71.648438 Z M 199.503906 71.648438 "/>
</clipPath>
<clipPath id="clip-20">
<path clip-rule="nonzero" d="M 29 55 L 37 55 L 37 60 L 29 60 Z M 29 55 "/>
</clipPath>
<clipPath id="clip-21">
<path clip-rule="evenodd" d="M 32.464844 58.632812 C 34.222656 59.820312 35.964844 60.304688 36.363281 59.71875 C 36.757812 59.132812 35.652344 57.699219 33.894531 56.511719 C 32.136719 55.328125 30.390625 54.839844 29.996094 55.425781 C 29.601562 56.011719 30.707031 57.449219 32.464844 58.632812 Z M 32.464844 58.632812 "/>
</clipPath>
<clipPath id="clip-22">
<path clip-rule="nonzero" d="M 71 64 L 83 64 L 83 74 L 71 74 Z M 71 64 "/>
</clipPath>
<clipPath id="clip-23">
<path clip-rule="nonzero" d="M 79.539062 64.050781 L 82.304688 68.359375 L 73.824219 73.800781 L 71.0625 69.492188 Z M 79.539062 64.050781 "/>
</clipPath>
<clipPath id="clip-24">
<path clip-rule="nonzero" d="M 202 61 L 215 61 L 215 72 L 202 72 Z M 202 61 "/>
</clipPath>
<clipPath id="clip-25">
<path clip-rule="nonzero" d="M 205.328125 61.671875 L 214.113281 66.601562 L 211.609375 71.066406 L 202.824219 66.132812 Z M 205.328125 61.671875 "/>
</clipPath>
</defs>
<g clip-path="url(#clip-0)">
<g clip-path="url(#clip-1)">
<path fill-rule="nonzero" fill="rgb(79.216003%, 91.372681%, 87.843323%)" fill-opacity="1" d="M 102.546875 -1 L 188.09375 -1 L 188.09375 72.398438 L 102.546875 72.398438 Z M 102.546875 -1 "/>
</g>
</g>
<g clip-path="url(#clip-2)">
<g clip-path="url(#clip-3)">
<path fill-rule="nonzero" fill="rgb(24.705505%, 49.411011%, 34.509277%)" fill-opacity="1" d="M 160.894531 38.125 L 173.492188 38.125 L 173.492188 72.375 L 160.894531 72.375 Z M 160.894531 38.125 "/>
</g>
</g>
<g clip-path="url(#clip-4)">
<g clip-path="url(#clip-5)">
<path fill-rule="nonzero" fill="rgb(24.705505%, 49.411011%, 34.509277%)" fill-opacity="1" d="M 134.90625 13.320312 L 155 13.320312 L 155 72.324219 L 134.90625 72.324219 Z M 134.90625 13.320312 "/>
</g>
</g>
<g clip-path="url(#clip-6)">
<g clip-path="url(#clip-7)">
<path fill-rule="nonzero" fill="rgb(24.705505%, 49.411011%, 34.509277%)" fill-opacity="1" d="M 108.863281 41.300781 L 119.246094 41.300781 L 119.246094 72.269531 L 108.863281 72.269531 Z M 108.863281 41.300781 "/>
</g>
</g>
<g clip-path="url(#clip-8)">
<g clip-path="url(#clip-9)">
<path fill-rule="nonzero" fill="rgb(100%, 91.764832%, 86.274719%)" fill-opacity="1" d="M 12.140625 61.609375 L 27.484375 61.609375 L 27.484375 72.5625 L 12.140625 72.5625 Z M 12.140625 61.609375 "/>
</g>
</g>
<g clip-path="url(#clip-10)">
<g clip-path="url(#clip-11)">
<path fill-rule="nonzero" fill="rgb(94.902039%, 37.254333%, 14.117432%)" fill-opacity="1" d="M 79.042969 14.78125 L 109.316406 79.695312 L 16.789062 122.84375 L -13.480469 57.925781 Z M 79.042969 14.78125 "/>
</g>
</g>
<g clip-path="url(#clip-12)">
<g clip-path="url(#clip-13)">
<path fill-rule="nonzero" fill="rgb(100%, 61.177063%, 36.470032%)" fill-opacity="1" d="M 87.195312 57.851562 L 96.871094 57.851562 L 96.871094 67.53125 L 87.195312 67.53125 Z M 87.195312 57.851562 "/>
</g>
</g>
<g clip-path="url(#clip-14)">
<g clip-path="url(#clip-15)">
<path fill-rule="nonzero" fill="rgb(100%, 61.177063%, 36.470032%)" fill-opacity="1" d="M 56.488281 68.089844 L 66.164062 68.089844 L 66.164062 72.648438 L 56.488281 72.648438 Z M 56.488281 68.089844 "/>
</g>
</g>
<g clip-path="url(#clip-16)">
<g clip-path="url(#clip-17)">
<path fill-rule="nonzero" fill="rgb(96.078491%, 37.254333%, 14.117432%)" fill-opacity="1" d="M 184.65625 65.941406 L 193.667969 59.628906 L 199.765625 68.335938 L 190.75 74.648438 Z M 184.65625 65.941406 "/>
</g>
</g>
<g clip-path="url(#clip-18)">
<g clip-path="url(#clip-19)">
<path fill-rule="nonzero" fill="rgb(100%, 61.177063%, 36.470032%)" fill-opacity="1" d="M 194.664062 68.089844 L 204.339844 68.089844 L 204.339844 72.648438 L 194.664062 72.648438 Z M 194.664062 68.089844 "/>
</g>
</g>
<g clip-path="url(#clip-20)">
<g clip-path="url(#clip-21)">
<path fill-rule="nonzero" fill="rgb(100%, 61.177063%, 36.470032%)" fill-opacity="1" d="M 31.570312 50.136719 L 40.679688 56.28125 L 34.789062 65.011719 L 25.679688 58.867188 Z M 31.570312 50.136719 "/>
</g>
</g>
<g clip-path="url(#clip-22)">
<g clip-path="url(#clip-23)">
<path fill-rule="nonzero" fill="rgb(100%, 91.764832%, 86.274719%)" fill-opacity="1" d="M 70.0625 63.050781 L 83.304688 63.050781 L 83.304688 74.800781 L 70.0625 74.800781 Z M 70.0625 63.050781 "/>
</g>
</g>
<g clip-path="url(#clip-24)">
<g clip-path="url(#clip-25)">
<path fill-rule="nonzero" fill="rgb(100%, 91.764832%, 86.274719%)" fill-opacity="1" d="M 201.824219 60.671875 L 215.113281 60.671875 L 215.113281 72.066406 L 201.824219 72.066406 Z M 201.824219 60.671875 "/>
</g>
</g>
</svg>
