<svg width="30" height="30" viewBox="0 0 30 30" fill="none" xmlns="http://www.w3.org/2000/svg">
<path fill-rule="evenodd" clip-rule="evenodd" d="M15 12.75C16.2425 12.75 17.25 13.7575 17.25 15C17.25 16.2425 16.2425 17.25 15 17.25C13.7575 17.25 12.75 16.2425 12.75 15C12.75 13.7575 13.7575 12.75 15 12.75Z" fill="white"/>
<path fill-rule="evenodd" clip-rule="evenodd" d="M15 20.25C16.2425 20.25 17.25 21.2575 17.25 22.5C17.25 23.7425 16.2425 24.75 15 24.75C13.7575 24.75 12.75 23.7425 12.75 22.5C12.75 21.2575 13.7575 20.25 15 20.25Z" fill="white"/>
<path fill-rule="evenodd" clip-rule="evenodd" d="M15 5.25C16.2425 5.25 17.25 6.25747 17.25 7.5C17.25 8.74253 16.2425 9.75 15 9.75C13.7575 9.75 12.75 8.74253 12.75 7.5C12.75 6.25747 13.7575 5.25 15 5.25Z" fill="white"/>
</svg>
