<?xml version="1.0" encoding="UTF-8" standalone="no"?>
<!DOCTYPE svg PUBLIC "-//W3C//DTD SVG 1.1//EN" "http://www.w3.org/Graphics/SVG/1.1/DTD/svg11.dtd">
<svg width="100%" height="100%" viewBox="0 0 375 125" version="1.1" xmlns="http://www.w3.org/2000/svg" xmlns:xlink="http://www.w3.org/1999/xlink" xml:space="preserve" xmlns:serif="http://www.serif.com/" style="fill-rule:evenodd;clip-rule:evenodd;">
    <rect x="-1.555" y="-24.016" width="397.451" height="194.421" style="fill:rgb(220,220,220);"/>
    <g transform="matrix(0,1.36146,1.36146,0,168.393,31.5971)">
        <path d="M34.15,11.65C30.51,11.65 27.65,14.51 27.65,18.15C27.65,21.66 30.51,24.65 34.15,24.65C37.79,24.65 40.65,21.66 40.65,18.15C40.65,14.51 37.79,11.65 34.15,11.65" style="fill:white;fill-rule:nonzero;stroke:white;stroke-width:0.73px;"/>
    </g>
    <g transform="matrix(1.36146,0,0,1.36146,146.609,21.8763)">
        <path d="M48.32,44.54C46.5,43.5 44.16,44.28 43.25,46.1C41.3,49.74 37.53,51.82 33.76,51.82C27.78,51.82 22.97,47.01 22.97,41.03C22.97,35.05 27.78,30.24 33.76,30.24C38.18,30.24 42.34,32.97 43.9,37.39C44.55,39.34 46.76,40.38 48.71,39.6C50.66,38.82 51.7,36.74 50.92,34.79C49.23,30.24 45.98,26.73 41.82,24.65L49.1,5.8C49.88,3.85 48.84,1.64 46.89,0.86C44.94,0.08 42.73,1.12 41.95,3.07L34.54,22.7L32.98,22.7L38.18,8.79C38.96,6.84 37.92,4.63 35.97,3.85C34.02,3.07 31.81,4.11 31.03,6.06L23.49,25.69C22.71,26.21 21.93,26.86 21.15,27.51L26.35,13.86C27.13,11.91 26.09,9.7 24.14,8.92C22.19,8.14 19.98,9.18 19.2,11.13L13.48,26.73C11.4,31.93 9.45,38.3 9.45,41.03C9.45,49.22 21.67,59.36 33.63,59.36C40.13,59.36 46.5,55.85 49.88,49.61C50.92,47.79 50.14,45.58 48.32,44.54" style="fill:white;fill-rule:nonzero;stroke:white;stroke-width:0.73px;"/>
    </g>
</svg>
