<?xml version="1.0" encoding="UTF-8"?>
<svg xmlns="http://www.w3.org/2000/svg" xmlns:xlink="http://www.w3.org/1999/xlink" width="32" height="32" viewBox="0 0 32 32">
<path fill-rule="nonzero" fill="rgb(88.626099%, 59.214783%, 75.292969%)" fill-opacity="1" d="M 32 16 C 32 24.835938 24.835938 32 16 32 C 7.164062 32 0 24.835938 0 16 C 0 7.164062 7.164062 0 16 0 C 24.835938 0 32 7.164062 32 16 Z M 32 16 "/>
<path fill-rule="nonzero" fill="rgb(100%, 100%, 100%)" fill-opacity="1" d="M 13.125 17 C 12.234375 16.410156 11.25 15.941406 10.183594 15.660156 C 11.25 15.941406 12.234375 16.410156 13.125 17 Z M 21.816406 15.660156 C 20.742188 15.941406 19.742188 16.417969 18.839844 17.023438 C 19.742188 16.417969 20.742188 15.941406 21.816406 15.660156 Z M 21.816406 15.660156 "/>
<path fill-rule="nonzero" fill="rgb(100%, 100%, 100%)" fill-opacity="1" d="M 18.910156 15.023438 C 18.757812 12.699219 17.816406 10.433594 16.050781 8.667969 C 14.265625 10.449219 13.285156 12.714844 13.089844 15.023438 C 14.160156 15.589844 15.140625 16.324219 16 17.214844 C 16.859375 16.332031 17.839844 15.601562 18.910156 15.023438 Z M 13.492188 17.234375 C 13.375 17.148438 13.242188 17.074219 13.117188 16.992188 C 13.242188 17.082031 13.375 17.148438 13.492188 17.234375 Z M 18.839844 17.023438 C 18.734375 17.101562 18.617188 17.160156 18.507812 17.242188 C 18.617188 17.160156 18.734375 17.101562 18.839844 17.023438 Z M 16 19.875 C 14.207031 17.140625 11.148438 15.332031 7.667969 15.332031 C 7.667969 19.765625 10.464844 23.515625 14.359375 24.910156 C 14.882812 25.101562 15.433594 25.242188 16 25.332031 C 16.566406 25.234375 17.109375 25.089844 17.640625 24.910156 C 21.535156 23.515625 24.332031 19.765625 24.332031 15.332031 C 20.851562 15.332031 17.792969 17.140625 16 19.875 Z M 16 19.875 "/>
</svg>
