<?xml version="1.0" encoding="UTF-8"?>
<svg xmlns="http://www.w3.org/2000/svg" xmlns:xlink="http://www.w3.org/1999/xlink" width="50" height="50" viewBox="0 0 50 50">
<path fill-rule="evenodd" fill="rgb(88.235474%, 88.235474%, 88.235474%)" fill-opacity="1" d="M 25 0.5 C 38.523438 0.5 49.5 11.476562 49.5 25 C 49.5 38.523438 38.523438 49.5 25 49.5 C 11.476562 49.5 0.5 38.523438 0.5 25 C 0.5 11.476562 11.476562 0.5 25 0.5 Z M 25 0.5 "/>
<path fill-rule="evenodd" fill="rgb(100%, 100%, 100%)" fill-opacity="1" d="M 25 0.988281 C 38.25 0.988281 49.011719 11.75 49.011719 25 C 49.011719 38.25 38.25 49.011719 25 49.011719 C 11.75 49.011719 0.988281 38.25 0.988281 25 C 0.988281 11.75 11.75 0.988281 25 0.988281 Z M 25 0.988281 "/>
<path fill-rule="nonzero" fill="rgb(96.078491%, 37.254333%, 14.117432%)" fill-opacity="1" d="M 32.351562 16.601562 L 27.960938 16.601562 C 27.519531 15.382812 26.363281 14.5 25 14.5 C 23.636719 14.5 22.480469 15.382812 22.039062 16.601562 L 17.648438 16.601562 C 16.496094 16.601562 15.550781 17.546875 15.550781 18.699219 L 15.550781 33.398438 C 15.550781 34.554688 16.496094 35.5 17.648438 35.5 L 32.351562 35.5 C 33.503906 35.5 34.449219 34.554688 34.449219 33.398438 L 34.449219 18.699219 C 34.449219 17.546875 33.503906 16.601562 32.351562 16.601562 Z M 25 16.601562 C 25.578125 16.601562 26.050781 17.074219 26.050781 17.648438 C 26.050781 18.226562 25.578125 18.699219 25 18.699219 C 24.421875 18.699219 23.949219 18.226562 23.949219 17.648438 C 23.949219 17.074219 24.421875 16.601562 25 16.601562 Z M 27.101562 31.300781 L 19.75 31.300781 L 19.75 29.199219 L 27.101562 29.199219 Z M 30.25 27.101562 L 19.75 27.101562 L 19.75 25 L 30.25 25 Z M 30.25 22.898438 L 19.75 22.898438 L 19.75 20.800781 L 30.25 20.800781 Z M 30.25 22.898438 "/>
</svg>
