<svg width="30" height="28" viewBox="0 0 30 28" fill="none" xmlns="http://www.w3.org/2000/svg">
<path fill-rule="evenodd" clip-rule="evenodd" d="M3.70066 0H25.9046C27.9449 0 29.6053 1.66036 29.6053 3.70066V23.4375C29.6053 25.4778 27.9449 27.1382 25.9046 27.1382H3.70066C1.66036 27.1382 0 25.4778 0 23.4375V3.70066C0 1.66036 1.66036 0 3.70066 0ZM3.70066 24.6711H25.9046C26.5843 24.6711 27.1382 24.1184 27.1382 23.4375V6.16776H2.46711V23.4375C2.46711 24.1184 3.02097 24.6711 3.70066 24.6711Z" fill="black"/>
<path fill-rule="evenodd" clip-rule="evenodd" d="M22.6911 10.5962C22.976 10.4408 23.3227 10.4494 23.6039 10.6159C23.8827 10.7837 24.0541 11.0847 24.0541 11.4103V20.662C24.0541 21.0062 23.8629 21.3219 23.5583 21.4823C23.4238 21.5526 23.2758 21.5872 23.129 21.5872C22.9439 21.5872 22.7602 21.5316 22.6023 21.4231L19.7355 19.4383C19.7305 20.9642 18.4884 22.2039 16.9612 22.2039H7.70958C6.17874 22.2039 4.93408 20.9593 4.93408 19.4284V12.6439C4.93408 11.1131 6.17874 9.86841 7.70958 9.86841H16.9612C18.3428 9.86841 19.4826 10.8861 19.6935 12.2109L22.6911 10.5962ZM16.9612 20.3536C17.4719 20.3536 17.8864 19.9391 17.8864 19.4284V12.6439C17.8864 12.1332 17.4719 11.7187 16.9612 11.7187H7.70958C7.19888 11.7187 6.78441 12.1332 6.78441 12.6439V19.4284C6.78441 19.9391 7.19888 20.3536 7.70958 20.3536H16.9612Z" fill="black"/>
</svg>
