<?xml version="1.0" encoding="UTF-8"?>
<svg xmlns="http://www.w3.org/2000/svg" xmlns:xlink="http://www.w3.org/1999/xlink" width="10" height="10" viewBox="0 0 10 10">
<defs>
<clipPath id="clip-0">
<path clip-rule="nonzero" d="M 4 0 L 6 0 L 6 10 L 4 10 Z M 4 0 "/>
</clipPath>
<clipPath id="clip-1">
<path clip-rule="nonzero" d="M 5 0 C 5.257812 0 5.46875 0.191406 5.496094 0.441406 L 5.5 0.5 L 5.5 9.5 C 5.5 9.777344 5.277344 10 5 10 C 4.742188 10 4.53125 9.808594 4.503906 9.558594 L 4.5 9.5 L 4.5 0.5 C 4.5 0.222656 4.722656 0 5 0 Z M 5 0 "/>
</clipPath>
<clipPath id="clip-2">
<path clip-rule="nonzero" d="M 0 4 L 10 4 L 10 6 L 0 6 Z M 0 4 "/>
</clipPath>
<clipPath id="clip-3">
<path clip-rule="nonzero" d="M 9.5 4.5 C 9.777344 4.5 10 4.722656 10 5 C 10 5.257812 9.808594 5.46875 9.558594 5.496094 L 9.5 5.5 L 0.5 5.5 C 0.222656 5.5 0 5.277344 0 5 C 0 4.742188 0.191406 4.53125 0.441406 4.503906 L 0.5 4.5 Z M 9.5 4.5 "/>
</clipPath>
</defs>
<g clip-path="url(#clip-0)">
<g clip-path="url(#clip-1)">
<path fill-rule="nonzero" fill="rgb(100%, 100%, 100%)" fill-opacity="1" d="M 3.5 -1 L 6.5 -1 L 6.5 11 L 3.5 11 Z M 3.5 -1 "/>
</g>
</g>
<g clip-path="url(#clip-2)">
<g clip-path="url(#clip-3)">
<path fill-rule="nonzero" fill="rgb(100%, 100%, 100%)" fill-opacity="1" d="M -1 3.5 L 11 3.5 L 11 6.5 L -1 6.5 Z M -1 3.5 "/>
</g>
</g>
</svg>
