<?xml version="1.0" encoding="UTF-8"?>
<svg xmlns="http://www.w3.org/2000/svg" xmlns:xlink="http://www.w3.org/1999/xlink" width="82" height="73" viewBox="0 0 82 73">
<defs>
<clipPath id="clip-0">
<path clip-rule="nonzero" d="M 17 0 L 82 0 L 82 64 L 17 64 Z M 17 0 "/>
</clipPath>
<clipPath id="clip-1">
<path clip-rule="evenodd" d="M 17.785156 36.574219 C 16.019531 24.164062 22.535156 10.988281 33.464844 4.851562 C 37.6875 2.484375 42.421875 1.117188 47.21875 0.449219 C 53.871094 -0.480469 60.828125 -0.0625 66.996094 2.59375 C 73.160156 5.253906 78.445312 10.328125 80.480469 16.726562 C 82.109375 21.859375 81.601562 27.402344 80.917969 32.742188 C 80.234375 38.09375 79.324219 43.601562 76.394531 48.128906 C 72.640625 53.933594 66.128906 57.285156 59.753906 59.949219 C 56.179688 61.445312 52.472656 62.613281 48.636719 63.132812 C 47.351562 63.308594 45.144531 63.355469 41.683594 62.664062 C 29.476562 59.820312 19.550781 48.980469 17.785156 36.574219 Z M 17.785156 36.574219 "/>
</clipPath>
<clipPath id="clip-2">
<path clip-rule="nonzero" d="M 9 48 L 30 48 L 30 71 L 9 71 Z M 9 48 "/>
</clipPath>
<clipPath id="clip-3">
<path clip-rule="evenodd" d="M 9 54.597656 L 17.003906 48.503906 L 30 70.503906 L 15.292969 70.503906 Z M 9 54.597656 "/>
</clipPath>
<clipPath id="clip-4">
<path clip-rule="nonzero" d="M 0 34.023438 L 18.714844 34.023438 L 18.714844 56.304688 L 0 56.304688 Z M 0 34.023438 "/>
</clipPath>
<clipPath id="clip-5">
<path clip-rule="evenodd" d="M 18.714844 50.144531 L 10.800781 56.304688 L 10.367188 55.121094 L 0.820312 43.023438 C 0.332031 42.417969 0.324219 41.578125 0.78125 40.96875 C 0.824219 40.914062 0.871094 40.855469 0.921875 40.804688 L 0.332031 40.109375 L 0.246094 40.003906 C -0.0898438 39.609375 -0.0820312 39.042969 0.261719 38.65625 C 0.476562 38.414062 0.777344 38.292969 1.082031 38.292969 C 1.351562 38.292969 1.625 38.390625 1.835938 38.59375 L 5.792969 42.359375 L 0.429688 36.042969 C 0.117188 35.671875 0.101562 35.140625 0.394531 34.753906 C 0.605469 34.472656 0.9375 34.324219 1.269531 34.324219 C 1.464844 34.324219 1.667969 34.378906 1.84375 34.488281 C 1.859375 34.496094 1.871094 34.507812 1.886719 34.515625 L 2.347656 34.828125 L 2.515625 34.648438 L 2.699219 34.441406 C 3.148438 33.949219 3.917969 33.882812 4.453125 34.285156 L 8.972656 37.710938 L 9.589844 38.179688 L 9.269531 36.636719 C 9.265625 36.613281 9.261719 36.589844 9.257812 36.566406 C 9.175781 35.960938 9.574219 35.390625 10.195312 35.253906 C 10.28125 35.234375 10.375 35.222656 10.460938 35.222656 C 10.933594 35.222656 11.375 35.492188 11.574219 35.925781 L 17.988281 48.808594 Z M 18.714844 50.144531 "/>
</clipPath>
<clipPath id="clip-6">
<path clip-rule="nonzero" d="M 8 36 L 11 36 L 11 47 L 8 47 Z M 8 36 "/>
</clipPath>
<clipPath id="clip-7">
<path clip-rule="evenodd" d="M 9.792969 41.761719 C 8.84375 43.933594 9.300781 46.046875 9.304688 46.066406 C 9.335938 46.207031 9.242188 46.34375 9.101562 46.375 C 9.082031 46.378906 9.0625 46.378906 9.042969 46.378906 C 8.921875 46.378906 8.8125 46.296875 8.78125 46.175781 C 8.761719 46.085938 8.285156 43.890625 9.300781 41.558594 C 9.511719 41.082031 9.574219 40.542969 9.488281 39.996094 L 8.972656 37.710938 L 9.589844 38.179688 L 9.269531 36.636719 C 9.265625 36.613281 9.261719 36.589844 9.257812 36.566406 L 10.011719 39.90625 C 10.117188 40.5625 10.039062 41.195312 9.792969 41.761719 "/>
</clipPath>
<clipPath id="clip-8">
<path clip-rule="nonzero" d="M 0 40 L 5 40 L 5 45 L 0 45 Z M 0 40 "/>
</clipPath>
<clipPath id="clip-9">
<path clip-rule="evenodd" d="M 4.515625 44.390625 C 4.464844 44.4375 4.394531 44.460938 4.328125 44.460938 C 4.261719 44.460938 4.1875 44.4375 4.136719 44.382812 L 0.78125 40.96875 C 0.824219 40.914062 0.871094 40.855469 0.921875 40.804688 L 0.332031 40.109375 C 0.4375 40.019531 0.59375 40.03125 0.695312 40.128906 L 4.523438 44.027344 C 4.625 44.128906 4.621094 44.292969 4.515625 44.390625 "/>
</clipPath>
<clipPath id="clip-10">
<path clip-rule="nonzero" d="M 1 34 L 8 34 L 8 41 L 1 41 Z M 1 34 "/>
</clipPath>
<clipPath id="clip-11">
<path clip-rule="evenodd" d="M 7.738281 40.335938 C 7.683594 40.382812 7.617188 40.40625 7.550781 40.40625 C 7.480469 40.40625 7.410156 40.378906 7.359375 40.328125 L 1.898438 34.769531 C 1.820312 34.691406 1.804688 34.582031 1.84375 34.488281 C 1.859375 34.496094 1.871094 34.507812 1.886719 34.515625 L 2.347656 34.828125 L 2.515625 34.648438 L 7.746094 39.972656 C 7.847656 40.074219 7.84375 40.238281 7.738281 40.335938 "/>
</clipPath>
<clipPath id="clip-12">
<path clip-rule="nonzero" d="M 14 55 L 23 55 L 23 72 L 14 72 Z M 14 55 "/>
</clipPath>
<clipPath id="clip-13">
<path clip-rule="evenodd" d="M 21.75 55.738281 L 14.710938 67.0625 L 16.359375 71.585938 L 18.769531 71.585938 L 22.839844 57.742188 Z M 21.75 55.738281 "/>
</clipPath>
<clipPath id="clip-14">
<path clip-rule="nonzero" d="M 21 16 L 49 16 L 49 40 L 21 40 Z M 21 16 "/>
</clipPath>
<clipPath id="clip-15">
<path clip-rule="evenodd" d="M 48.5625 39.949219 L 34.347656 39.949219 L 32.601562 34.964844 L 31.746094 32.519531 C 31.746094 32.515625 31.742188 32.511719 31.742188 32.507812 C 31.175781 30.878906 31.480469 29.792969 29.703125 29.816406 L 29.007812 29.828125 L 29.003906 29.828125 L 28.246094 29.839844 C 27.519531 29.796875 26.941406 29.574219 26.488281 29.285156 C 25.929688 28.929688 25.511719 28.402344 25.253906 27.804688 L 24.28125 25.550781 L 24.054688 25.023438 L 23.082031 22.765625 C 23.011719 22.601562 22.890625 22.46875 22.730469 22.378906 L 22.089844 22.027344 C 21.746094 21.835938 21.640625 21.398438 21.878906 21.082031 L 23.550781 18.855469 C 24.023438 18.226562 24.113281 17.554688 24.386719 16.6875 L 31.457031 17.925781 L 32.8125 18.164062 L 35.3125 18.601562 L 37.71875 19.023438 L 38.695312 19.191406 L 43.441406 20.023438 C 43.347656 20.429688 43.265625 20.839844 43.207031 21.25 C 43.207031 21.25 43.203125 21.253906 43.203125 21.253906 C 43.199219 21.285156 43.195312 21.316406 43.191406 21.34375 C 43.140625 21.667969 43.105469 21.988281 43.078125 22.3125 C 43.011719 23.054688 42.996094 23.796875 43.03125 24.539062 C 43.121094 26.472656 43.554688 28.382812 44.320312 30.195312 C 44.339844 30.25 44.367188 30.308594 44.390625 30.367188 Z M 48.5625 39.949219 "/>
</clipPath>
<clipPath id="clip-16">
<path clip-rule="nonzero" d="M 24 9 L 44 9 L 44 29 L 24 29 Z M 24 9 "/>
</clipPath>
<clipPath id="clip-17">
<path clip-rule="evenodd" d="M 24.113281 18.90625 C 24.113281 24.097656 28.453125 28.308594 33.8125 28.308594 C 36.976562 28.308594 39.789062 26.839844 41.558594 24.5625 C 42.316406 23.589844 42.882812 22.46875 43.203125 21.253906 C 43.203125 21.253906 43.207031 21.253906 43.207031 21.253906 C 43.3125 20.851562 43.390625 20.441406 43.441406 20.023438 C 43.488281 19.65625 43.507812 19.285156 43.507812 18.90625 C 43.507812 13.710938 39.167969 9.503906 33.8125 9.503906 C 31.066406 9.503906 28.585938 10.609375 26.820312 12.386719 C 25.648438 13.570312 24.792969 15.042969 24.386719 16.6875 C 24.207031 17.398438 24.113281 18.140625 24.113281 18.90625 "/>
</clipPath>
<clipPath id="clip-18">
<path clip-rule="nonzero" d="M 29 28 L 36 28 L 36 33 L 29 33 Z M 29 28 "/>
</clipPath>
<clipPath id="clip-19">
<path clip-rule="evenodd" d="M 29.007812 29.828125 L 29.703125 29.816406 C 31.480469 29.792969 31.175781 30.878906 31.742188 32.507812 L 35.878906 28.792969 C 36.113281 28.582031 35.882812 28.210938 35.578125 28.3125 C 32.140625 29.484375 29.125 29.8125 29.007812 29.828125 "/>
</clipPath>
<clipPath id="clip-20">
<path clip-rule="nonzero" d="M 26 9 L 44 9 L 44 25 L 26 25 Z M 26 9 "/>
</clipPath>
<clipPath id="clip-21">
<path clip-rule="evenodd" d="M 32.578125 19.195312 C 32.527344 19.472656 32.257812 19.679688 31.949219 19.640625 C 31.664062 19.605469 31.457031 19.351562 31.457031 19.070312 L 31.457031 16.910156 C 31.457031 14.421875 29.382812 12.402344 26.820312 12.386719 C 28.585938 10.609375 31.066406 9.503906 33.8125 9.503906 C 39.167969 9.503906 43.507812 13.710938 43.507812 18.90625 C 43.507812 19.285156 43.488281 19.65625 43.441406 20.023438 C 43.390625 20.441406 43.3125 20.851562 43.207031 21.253906 C 43.207031 21.253906 43.203125 21.253906 43.203125 21.253906 C 43.035156 22.347656 42.976562 23.445312 43.03125 24.539062 C 42.746094 24.570312 42.457031 24.585938 42.160156 24.585938 C 41.957031 24.585938 41.757812 24.578125 41.558594 24.5625 C 40.371094 24.476562 39.253906 24.148438 38.265625 23.625 C 37.101562 23.007812 36.6875 21.585938 37.351562 20.472656 L 37.375 20.433594 C 37.519531 20.191406 37.625 19.921875 37.675781 19.640625 C 37.707031 19.492188 37.722656 19.335938 37.722656 19.175781 C 37.722656 19.125 37.722656 19.074219 37.71875 19.023438 C 37.636719 17.71875 36.519531 16.6875 35.15625 16.6875 C 34.75 16.6875 34.363281 16.777344 34.023438 16.945312 C 33.484375 17.199219 33.054688 17.632812 32.8125 18.164062 C 32.667969 18.472656 32.582031 18.792969 32.582031 19.15625 Z M 32.578125 19.195312 "/>
</clipPath>
<clipPath id="clip-22">
<path clip-rule="nonzero" d="M 18 30 L 54 30 L 54 72 L 18 72 Z M 18 30 "/>
</clipPath>
<clipPath id="clip-23">
<path clip-rule="evenodd" d="M 53.542969 71.507812 L 37.519531 71.558594 L 35.996094 71.566406 L 34.472656 71.570312 L 33.898438 71.570312 L 18.761719 71.617188 L 27.113281 43.191406 C 28.074219 39.929688 30.011719 37.082031 32.601562 34.964844 C 34.449219 33.453125 36.632812 32.308594 39.035156 31.648438 L 44.320312 30.195312 L 44.328125 30.191406 L 48.496094 39.171875 C 49.128906 40.535156 49.671875 41.933594 50.125 43.359375 C 50.90625 45.808594 51.417969 48.335938 51.652344 50.898438 L 53.222656 68.035156 L 53.246094 68.289062 L 53.269531 68.5625 Z M 53.542969 71.507812 "/>
</clipPath>
<clipPath id="clip-24">
<path clip-rule="nonzero" d="M 24 25 L 28 25 L 28 26 L 24 26 Z M 24 25 "/>
</clipPath>
<clipPath id="clip-25">
<path clip-rule="evenodd" d="M 27.148438 25.390625 C 27.144531 25.484375 27.089844 25.566406 27.007812 25.605469 C 26.972656 25.625 26.929688 25.636719 26.882812 25.636719 L 26.875 25.636719 L 24.28125 25.550781 L 24.054688 25.023438 L 26.523438 25.109375 L 26.894531 25.121094 C 27.039062 25.125 27.152344 25.246094 27.148438 25.390625 "/>
</clipPath>
<clipPath id="clip-26">
<path clip-rule="nonzero" d="M 38 48 L 43 48 L 43 61 L 38 61 Z M 38 48 "/>
</clipPath>
<clipPath id="clip-27">
<path clip-rule="evenodd" d="M 42.59375 60.046875 C 42.480469 60.046875 42.375 59.976562 42.339844 59.863281 L 38.914062 49.238281 C 38.871094 49.101562 38.949219 48.957031 39.089844 48.914062 C 39.230469 48.871094 39.378906 48.945312 39.421875 49.082031 L 42.851562 59.710938 C 42.894531 59.847656 42.816406 59.992188 42.675781 60.035156 C 42.648438 60.042969 42.621094 60.046875 42.59375 60.046875 "/>
</clipPath>
<clipPath id="clip-28">
<path clip-rule="nonzero" d="M 16 60 L 25 60 L 25 62 L 16 62 Z M 16 60 "/>
</clipPath>
<clipPath id="clip-29">
<path clip-rule="evenodd" d="M 24.65625 60.988281 C 24.65625 60.886719 22.769531 60.804688 20.4375 60.804688 C 18.109375 60.804688 16.222656 60.886719 16.222656 60.988281 C 16.222656 61.09375 18.109375 61.175781 20.4375 61.175781 C 22.769531 61.175781 24.65625 61.09375 24.65625 60.988281 "/>
</clipPath>
<clipPath id="clip-30">
<path clip-rule="nonzero" d="M 16 69 L 24 69 L 24 70 L 16 70 Z M 16 69 "/>
</clipPath>
<clipPath id="clip-31">
<path clip-rule="evenodd" d="M 23.914062 69.726562 C 23.914062 69.644531 22.359375 69.574219 20.4375 69.574219 C 18.515625 69.574219 16.957031 69.644531 16.957031 69.726562 C 16.957031 69.8125 18.515625 69.878906 20.4375 69.878906 C 22.359375 69.878906 23.914062 69.8125 23.914062 69.726562 "/>
</clipPath>
<clipPath id="clip-32">
<path clip-rule="nonzero" d="M 16 60 L 25 60 L 25 70 L 16 70 Z M 16 60 "/>
</clipPath>
<clipPath id="clip-33">
<path clip-rule="evenodd" d="M 24.65625 60.988281 L 16.222656 60.988281 L 16.957031 69.726562 L 23.914062 69.726562 Z M 24.65625 60.988281 "/>
</clipPath>
<clipPath id="clip-34">
<path clip-rule="nonzero" d="M 16.039062 62.566406 L 36.75 62.566406 L 36.75 72.503906 L 16.039062 72.503906 Z M 16.039062 62.566406 "/>
</clipPath>
<clipPath id="clip-35">
<path clip-rule="evenodd" d="M 36.75 71.617188 L 34.089844 72.238281 L 21.539062 72.503906 C 21.132812 72.511719 20.746094 72.320312 20.511719 72 L 20.460938 71.929688 L 20.296875 71.703125 L 19.835938 71.828125 C 19.589844 71.898438 19.332031 71.855469 19.128906 71.726562 C 18.988281 71.640625 18.875 71.515625 18.800781 71.359375 C 18.75 71.246094 18.726562 71.128906 18.726562 71.011719 C 18.726562 70.632812 18.992188 70.28125 19.402344 70.1875 L 24.070312 69.132812 L 17.078125 69.929688 C 16.628906 69.984375 16.207031 69.710938 16.078125 69.292969 C 16.050781 69.207031 16.039062 69.121094 16.039062 69.035156 C 16.039062 68.625 16.328125 68.253906 16.761719 68.15625 L 16.804688 68.148438 L 16.796875 68.0625 L 16.769531 67.875 C 16.757812 67.761719 16.761719 67.648438 16.785156 67.542969 C 16.851562 67.191406 17.101562 66.890625 17.453125 66.753906 L 24.40625 64.019531 L 24.40625 64.007812 L 24.449219 63.476562 L 24.523438 62.566406 L 31.75 63.09375 L 34.089844 63.65625 Z M 36.75 71.617188 "/>
</clipPath>
<clipPath id="clip-36">
<path clip-rule="nonzero" d="M 19 70 L 26 70 L 26 72 L 19 72 Z M 19 70 "/>
</clipPath>
<clipPath id="clip-37">
<path clip-rule="evenodd" d="M 24.953125 70.8125 L 20.460938 71.929688 L 20.296875 71.703125 L 19.835938 71.828125 C 19.589844 71.898438 19.332031 71.855469 19.128906 71.726562 L 24.820312 70.3125 C 24.960938 70.277344 25.105469 70.359375 25.144531 70.496094 C 25.179688 70.636719 25.09375 70.777344 24.953125 70.8125 "/>
</clipPath>
<clipPath id="clip-38">
<path clip-rule="nonzero" d="M 16 66 L 24 66 L 24 69 L 16 69 Z M 16 66 "/>
</clipPath>
<clipPath id="clip-39">
<path clip-rule="evenodd" d="M 23.390625 66.980469 L 16.796875 68.0625 L 16.769531 67.875 C 16.757812 67.761719 16.761719 67.648438 16.785156 67.542969 L 23.304688 66.472656 C 23.449219 66.449219 23.585938 66.542969 23.609375 66.683594 C 23.636719 66.824219 23.539062 66.957031 23.390625 66.980469 "/>
</clipPath>
<clipPath id="clip-40">
<path clip-rule="nonzero" d="M 24 63 L 26 63 L 26 65 L 24 65 Z M 24 63 "/>
</clipPath>
<clipPath id="clip-41">
<path clip-rule="evenodd" d="M 25.042969 63.90625 L 24.40625 64.007812 L 24.449219 63.476562 L 24.953125 63.394531 C 25.097656 63.371094 25.234375 63.464844 25.261719 63.605469 C 25.285156 63.75 25.1875 63.882812 25.042969 63.90625 "/>
</clipPath>
<clipPath id="clip-42">
<path clip-rule="nonzero" d="M 50 43 L 57 43 L 57 69 L 50 69 Z M 50 43 "/>
</clipPath>
<clipPath id="clip-43">
<path clip-rule="evenodd" d="M 55.316406 66.769531 C 54.820312 67.308594 54.238281 67.761719 53.597656 68.109375 C 53.5625 68.128906 53.523438 68.152344 53.484375 68.171875 C 53.40625 68.210938 53.328125 68.25 53.246094 68.289062 L 53.222656 68.035156 L 51.652344 50.898438 C 51.417969 48.335938 50.90625 45.808594 50.125 43.359375 L 56.613281 60.304688 C 57.429688 62.527344 56.933594 65.007812 55.316406 66.769531 "/>
</clipPath>
<clipPath id="clip-44">
<path clip-rule="nonzero" d="M 32 43 L 54 43 L 54 72 L 32 72 Z M 32 43 "/>
</clipPath>
<clipPath id="clip-45">
<path clip-rule="evenodd" d="M 53.246094 68.289062 C 52.703125 68.542969 52.125 68.726562 51.523438 68.835938 L 35.996094 71.566406 L 34.25 71.871094 L 34.171875 71.570312 L 32.109375 63.242188 L 46.351562 58.542969 L 46.414062 58.296875 L 50.125 43.359375 C 50.90625 45.808594 51.417969 48.335938 51.652344 50.898438 L 53.222656 68.035156 Z M 53.246094 68.289062 "/>
</clipPath>
<clipPath id="clip-46">
<path clip-rule="nonzero" d="M 31 58 L 54 58 L 54 73 L 31 73 Z M 31 58 "/>
</clipPath>
<clipPath id="clip-47">
<path clip-rule="evenodd" d="M 53.269531 68.5625 C 52.730469 68.808594 52.160156 68.984375 51.570312 69.089844 L 37.519531 71.558594 L 34.046875 72.167969 L 33.898438 71.570312 L 31.792969 63.070312 L 46.265625 58.300781 C 46.316406 58.28125 46.367188 58.28125 46.414062 58.296875 C 46.5 58.3125 46.574219 58.375 46.605469 58.460938 C 46.652344 58.597656 46.578125 58.742188 46.4375 58.789062 L 32.425781 63.410156 L 34.445312 71.570312 L 34.449219 71.574219 L 34.472656 71.570312 L 51.476562 68.582031 C 52.046875 68.480469 52.605469 68.304688 53.132812 68.054688 C 53.160156 68.042969 53.191406 68.035156 53.222656 68.035156 L 53.246094 68.289062 Z M 53.269531 68.5625 "/>
</clipPath>
</defs>
<g clip-path="url(#clip-0)">
<g clip-path="url(#clip-1)">
<path fill-rule="nonzero" fill="rgb(100%, 91.764832%, 86.274719%)" fill-opacity="1" d="M 15.019531 -1 L 83 -1 L 83 64.355469 L 15.019531 64.355469 Z M 15.019531 -1 "/>
</g>
</g>
<g clip-path="url(#clip-2)">
<g clip-path="url(#clip-3)">
<path fill-rule="nonzero" fill="rgb(64.706421%, 89.804077%, 77.6474%)" fill-opacity="1" d="M 8 47.503906 L 31 47.503906 L 31 71.503906 L 8 71.503906 Z M 8 47.503906 "/>
</g>
</g>
<g clip-path="url(#clip-4)">
<g clip-path="url(#clip-5)">
<path fill-rule="nonzero" fill="rgb(100%, 71.372986%, 61.177063%)" fill-opacity="1" d="M -1 33.023438 L 19.714844 33.023438 L 19.714844 57.304688 L -1 57.304688 Z M -1 33.023438 "/>
</g>
</g>
<g clip-path="url(#clip-6)">
<g clip-path="url(#clip-7)">
<path fill-rule="nonzero" fill="rgb(79.216003%, 52.157593%, 39.99939%)" fill-opacity="1" d="M 7.285156 35.566406 L 11.117188 35.566406 L 11.117188 47.378906 L 7.285156 47.378906 Z M 7.285156 35.566406 "/>
</g>
</g>
<g clip-path="url(#clip-8)">
<g clip-path="url(#clip-9)">
<path fill-rule="nonzero" fill="rgb(79.216003%, 52.157593%, 39.99939%)" fill-opacity="1" d="M -0.667969 39.019531 L 5.625 39.019531 L 5.625 45.460938 L -0.667969 45.460938 Z M -0.667969 39.019531 "/>
</g>
</g>
<g clip-path="url(#clip-10)">
<g clip-path="url(#clip-11)">
<path fill-rule="nonzero" fill="rgb(79.216003%, 52.157593%, 39.99939%)" fill-opacity="1" d="M 0.804688 33.488281 L 8.847656 33.488281 L 8.847656 41.40625 L 0.804688 41.40625 Z M 0.804688 33.488281 "/>
</g>
</g>
<g clip-path="url(#clip-12)">
<g clip-path="url(#clip-13)">
<path fill-rule="nonzero" fill="rgb(12.548828%, 51.765442%, 32.940674%)" fill-opacity="1" d="M 13.710938 54.738281 L 23.839844 54.738281 L 23.839844 72.585938 L 13.710938 72.585938 Z M 13.710938 54.738281 "/>
</g>
</g>
<g clip-path="url(#clip-14)">
<g clip-path="url(#clip-15)">
<path fill-rule="nonzero" fill="rgb(100%, 71.372986%, 61.177063%)" fill-opacity="1" d="M 20.640625 15.6875 L 49.5625 15.6875 L 49.5625 40.949219 L 20.640625 40.949219 Z M 20.640625 15.6875 "/>
</g>
</g>
<g clip-path="url(#clip-16)">
<g clip-path="url(#clip-17)">
<path fill-rule="nonzero" fill="rgb(100%, 71.372986%, 61.177063%)" fill-opacity="1" d="M 23.113281 8.503906 L 44.507812 8.503906 L 44.507812 29.308594 L 23.113281 29.308594 Z M 23.113281 8.503906 "/>
</g>
</g>
<g clip-path="url(#clip-18)">
<g clip-path="url(#clip-19)">
<path fill-rule="nonzero" fill="rgb(79.216003%, 52.157593%, 39.99939%)" fill-opacity="1" d="M 28.007812 27.210938 L 37.113281 27.210938 L 37.113281 33.507812 L 28.007812 33.507812 Z M 28.007812 27.210938 "/>
</g>
</g>
<g clip-path="url(#clip-20)">
<g clip-path="url(#clip-21)">
<path fill-rule="nonzero" fill="rgb(61.569214%, 39.215088%, 27.842712%)" fill-opacity="1" d="M 25.820312 8.503906 L 44.507812 8.503906 L 44.507812 25.585938 L 25.820312 25.585938 Z M 25.820312 8.503906 "/>
</g>
</g>
<g clip-path="url(#clip-22)">
<g clip-path="url(#clip-23)">
<path fill-rule="nonzero" fill="rgb(64.706421%, 89.804077%, 77.6474%)" fill-opacity="1" d="M 17.761719 29.191406 L 54.542969 29.191406 L 54.542969 72.617188 L 17.761719 72.617188 Z M 17.761719 29.191406 "/>
</g>
</g>
<g clip-path="url(#clip-24)">
<g clip-path="url(#clip-25)">
<path fill-rule="nonzero" fill="rgb(79.216003%, 52.157593%, 39.99939%)" fill-opacity="1" d="M 23.054688 24.023438 L 28.152344 24.023438 L 28.152344 26.636719 L 23.054688 26.636719 Z M 23.054688 24.023438 "/>
</g>
</g>
<g clip-path="url(#clip-26)">
<g clip-path="url(#clip-27)">
<path fill-rule="nonzero" fill="rgb(12.548828%, 51.765442%, 32.940674%)" fill-opacity="1" d="M 37.871094 47.871094 L 43.894531 47.871094 L 43.894531 61.046875 L 37.871094 61.046875 Z M 37.871094 47.871094 "/>
</g>
</g>
<g clip-path="url(#clip-28)">
<g clip-path="url(#clip-29)">
<path fill-rule="nonzero" fill="rgb(100%, 100%, 100%)" fill-opacity="1" d="M 15.222656 59.804688 L 25.65625 59.804688 L 25.65625 62.175781 L 15.222656 62.175781 Z M 15.222656 59.804688 "/>
</g>
</g>
<g clip-path="url(#clip-30)">
<g clip-path="url(#clip-31)">
<path fill-rule="nonzero" fill="rgb(100%, 100%, 100%)" fill-opacity="1" d="M 15.957031 68.574219 L 24.914062 68.574219 L 24.914062 70.878906 L 15.957031 70.878906 Z M 15.957031 68.574219 "/>
</g>
</g>
<g clip-path="url(#clip-32)">
<g clip-path="url(#clip-33)">
<path fill-rule="nonzero" fill="rgb(100%, 100%, 100%)" fill-opacity="1" d="M 15.222656 59.988281 L 25.65625 59.988281 L 25.65625 70.726562 L 15.222656 70.726562 Z M 15.222656 59.988281 "/>
</g>
</g>
<g clip-path="url(#clip-34)">
<g clip-path="url(#clip-35)">
<path fill-rule="nonzero" fill="rgb(100%, 71.372986%, 61.177063%)" fill-opacity="1" d="M 15.039062 61.566406 L 37.75 61.566406 L 37.75 73.503906 L 15.039062 73.503906 Z M 15.039062 61.566406 "/>
</g>
</g>
<g clip-path="url(#clip-36)">
<g clip-path="url(#clip-37)">
<path fill-rule="nonzero" fill="rgb(79.216003%, 52.157593%, 39.99939%)" fill-opacity="1" d="M 18.128906 69.277344 L 26.179688 69.277344 L 26.179688 72.929688 L 18.128906 72.929688 Z M 18.128906 69.277344 "/>
</g>
</g>
<g clip-path="url(#clip-38)">
<g clip-path="url(#clip-39)">
<path fill-rule="nonzero" fill="rgb(79.216003%, 52.157593%, 39.99939%)" fill-opacity="1" d="M 15.757812 65.449219 L 24.636719 65.449219 L 24.636719 69.0625 L 15.757812 69.0625 Z M 15.757812 65.449219 "/>
</g>
</g>
<g clip-path="url(#clip-40)">
<g clip-path="url(#clip-41)">
<path fill-rule="nonzero" fill="rgb(79.216003%, 52.157593%, 39.99939%)" fill-opacity="1" d="M 23.40625 62.371094 L 26.285156 62.371094 L 26.285156 65.007812 L 23.40625 65.007812 Z M 23.40625 62.371094 "/>
</g>
</g>
<g clip-path="url(#clip-42)">
<g clip-path="url(#clip-43)">
<path fill-rule="nonzero" fill="rgb(64.706421%, 89.804077%, 77.6474%)" fill-opacity="1" d="M 49.125 42.359375 L 58.429688 42.359375 L 58.429688 69.289062 L 49.125 69.289062 Z M 49.125 42.359375 "/>
</g>
</g>
<g clip-path="url(#clip-44)">
<g clip-path="url(#clip-45)">
<path fill-rule="nonzero" fill="rgb(64.706421%, 89.804077%, 77.6474%)" fill-opacity="1" d="M 31.109375 42.359375 L 54.246094 42.359375 L 54.246094 72.871094 L 31.109375 72.871094 Z M 31.109375 42.359375 "/>
</g>
</g>
<g clip-path="url(#clip-46)">
<g clip-path="url(#clip-47)">
<path fill-rule="nonzero" fill="rgb(12.548828%, 51.765442%, 32.940674%)" fill-opacity="1" d="M 30.792969 57.28125 L 54.269531 57.28125 L 54.269531 73.167969 L 30.792969 73.167969 Z M 30.792969 57.28125 "/>
</g>
</g>
</svg>
