<svg width="30" height="30" viewBox="0 0 30 30" fill="none" xmlns="http://www.w3.org/2000/svg">
<path fill-rule="evenodd" clip-rule="evenodd" d="M16.2501 14.6875L27.0001 22.75C27.9626 23.475 27.4501 25 26.2501 25H15.0001H3.75008C2.55008 25 2.03758 23.475 3.00008 22.75L13.7501 14.6875V12.4875C13.7501 11.8125 14.2876 11.2375 14.9626 11.25C16.0126 11.275 16.8751 10.425 16.8751 9.37495C16.8751 8.33745 16.0376 7.49995 15.0001 7.49995C13.9626 7.49995 13.1251 8.33745 13.1251 9.37495H10.6251C10.6251 6.62495 13.1751 4.46245 16.0251 5.11245C17.6626 5.48745 18.9626 6.84995 19.2876 8.48745C19.7501 10.8375 18.3126 12.9375 16.2501 13.55V14.6875ZM15.0001 16.875L7.50008 22.5H22.5001L15.0001 16.875Z" fill="black"/>
</svg>
