<?xml version="1.0" encoding="UTF-8"?>
<svg xmlns="http://www.w3.org/2000/svg" xmlns:xlink="http://www.w3.org/1999/xlink" width="21" height="21" viewBox="0 0 21 21">
<defs>
<clipPath id="clip-0">
<path clip-rule="nonzero" d="M 10.515625 0 C 13.421875 0 16.023438 1.167969 17.929688 3.070312 C 19.832031 4.972656 21 7.613281 21 10.515625 C 21 13.386719 19.832031 16.023438 17.929688 17.929688 C 16.027344 19.832031 13.421875 21 10.515625 21 C 7.613281 21 4.976562 19.832031 3.105469 17.929688 C 1.203125 16.023438 0 13.386719 0 10.515625 C 0 7.613281 1.203125 4.976562 3.105469 3.070312 C 4.972656 1.167969 7.613281 0 10.515625 0 Z M 17.128906 3.871094 C 15.425781 2.171875 13.085938 1.136719 10.515625 1.136719 C 7.914062 1.136719 5.574219 2.171875 3.90625 3.871094 C 2.203125 5.574219 1.136719 7.914062 1.136719 10.515625 C 1.136719 13.085938 2.203125 15.425781 3.90625 17.125 C 5.574219 18.828125 7.914062 19.863281 10.515625 19.863281 C 13.085938 19.863281 15.425781 18.828125 17.128906 17.125 C 18.828125 15.425781 19.863281 13.085938 19.863281 10.515625 C 19.863281 7.914062 18.828125 5.574219 17.128906 3.871094 Z M 17.128906 3.871094 "/>
</clipPath>
<clipPath id="clip-1">
<path clip-rule="nonzero" d="M 7 5 L 14 5 L 14 16 L 7 16 Z M 7 5 "/>
</clipPath>
<clipPath id="clip-2">
<path clip-rule="nonzero" d="M 9.84375 13.324219 L 9.84375 12.929688 C 9.84375 12.414062 9.902344 11.957031 10.058594 11.59375 C 10.148438 11.289062 10.332031 11.015625 10.578125 10.710938 C 10.761719 10.5 11.066406 10.195312 11.523438 9.800781 C 12.011719 9.375 12.289062 9.070312 12.441406 8.828125 C 12.5625 8.585938 12.65625 8.3125 12.65625 8.039062 C 12.65625 7.523438 12.441406 7.066406 12.042969 6.671875 C 11.648438 6.277344 11.125 6.0625 10.546875 6.0625 C 9.964844 6.0625 9.507812 6.246094 9.140625 6.609375 C 8.742188 6.976562 8.496094 7.523438 8.375 8.28125 L 7 8.128906 C 7.121094 7.097656 7.488281 6.335938 8.101562 5.789062 C 8.710938 5.242188 9.539062 5 10.515625 5 C 11.585938 5 12.441406 5.273438 13.050781 5.851562 C 13.695312 6.429688 14 7.128906 14 7.949219 C 14 8.402344 13.910156 8.859375 13.695312 9.253906 C 13.449219 9.648438 13.023438 10.136719 12.378906 10.710938 C 11.953125 11.078125 11.644531 11.382812 11.523438 11.5625 C 11.371094 11.746094 11.28125 11.929688 11.21875 12.171875 C 11.15625 12.414062 11.125 12.808594 11.125 13.324219 Z M 9.597656 16 L 9.597656 14.480469 L 11.125 14.480469 L 11.125 16 Z M 9.597656 16 "/>
</clipPath>
</defs>
<g clip-path="url(#clip-0)">
<rect x="-2.1" y="-2.1" width="25.2" height="25.2" fill="rgb(96.078491%, 37.254333%, 14.117432%)" fill-opacity="1"/>
</g>
<g clip-path="url(#clip-1)">
<g clip-path="url(#clip-2)">
<path fill-rule="nonzero" fill="rgb(96.078491%, 37.254333%, 14.117432%)" fill-opacity="1" d="M 6 4 L 15 4 L 15 17 L 6 17 Z M 6 4 "/>
</g>
</g>
</svg>
