<?xml version="1.0" encoding="UTF-8"?>
<svg xmlns="http://www.w3.org/2000/svg" xmlns:xlink="http://www.w3.org/1999/xlink" width="34" height="34" viewBox="0 0 34 34">
<defs>
<clipPath id="clip-0">
<path clip-rule="nonzero" d="M 5 0 L 20 0 L 20 23 L 5 23 Z M 5 0 "/>
</clipPath>
<clipPath id="clip-1">
<path clip-rule="evenodd" d="M 6.296875 15.71875 C 6.671875 14.914062 7.558594 14.53125 8.273438 14.863281 L 12.6875 16.921875 C 13.402344 17.253906 13.679688 18.179688 13.304688 18.984375 C 12.09375 21.582031 9.917969 22.957031 7.675781 21.910156 C 5.433594 20.863281 5.085938 18.316406 6.296875 15.71875 Z M 8.152344 17.839844 C 7.804688 18.582031 7.964844 19.335938 8.710938 19.683594 C 9.460938 20.035156 10.140625 19.671875 10.488281 18.929688 C 10.59375 18.699219 10.488281 18.421875 10.25 18.3125 L 8.777344 17.625 C 8.539062 17.515625 8.257812 17.609375 8.152344 17.839844 Z M 16.667969 1.054688 L 16.921875 1.144531 L 17.164062 1.25 C 19.535156 2.355469 20.449219 5.414062 19.207031 8.078125 C 19.121094 8.257812 19.03125 8.433594 18.925781 8.605469 L 15.539062 14.308594 C 14.703125 15.714844 13.070312 16.3125 11.75 15.699219 L 9.578125 14.683594 C 8.257812 14.066406 7.667969 12.433594 8.207031 10.890625 L 10.398438 4.628906 C 11.367188 1.855469 14.175781 0.257812 16.667969 1.054688 Z M 13.207031 5.304688 L 13.128906 5.503906 L 10.9375 11.765625 L 13.109375 12.78125 L 16.5 7.078125 C 16.542969 7.007812 16.578125 6.9375 16.613281 6.867188 C 17.101562 5.8125 16.742188 4.605469 15.804688 4.167969 L 15.609375 4.089844 C 14.683594 3.792969 13.648438 4.332031 13.207031 5.304688 Z M 13.207031 5.304688 "/>
</clipPath>
<clipPath id="clip-2">
<path clip-rule="nonzero" d="M 12 12 L 29 12 L 29 33 L 12 33 Z M 12 12 "/>
</clipPath>
<clipPath id="clip-3">
<path clip-rule="evenodd" d="M 13.246094 25.96875 C 13.753906 25.242188 14.691406 25.019531 15.339844 25.472656 L 19.328125 28.265625 C 19.976562 28.71875 20.085938 29.675781 19.578125 30.402344 C 17.933594 32.75 15.550781 33.726562 13.527344 32.304688 C 11.5 30.886719 11.601562 28.316406 13.246094 25.96875 Z M 14.703125 28.382812 C 14.230469 29.050781 14.257812 29.824219 14.933594 30.296875 C 15.609375 30.769531 16.34375 30.53125 16.8125 29.859375 C 16.957031 29.652344 16.902344 29.359375 16.683594 29.210938 L 15.355469 28.277344 C 15.140625 28.128906 14.847656 28.171875 14.703125 28.382812 Z M 26.003906 13.332031 L 26.238281 13.460938 L 26.460938 13.609375 C 28.601562 15.109375 28.972656 18.277344 27.285156 20.6875 C 27.171875 20.851562 27.046875 21.007812 26.917969 21.160156 L 22.589844 26.1875 C 21.519531 27.425781 19.8125 27.730469 18.617188 26.898438 L 16.652344 25.519531 C 15.460938 24.683594 15.164062 22.972656 15.960938 21.546875 L 19.207031 15.757812 C 20.644531 13.199219 23.6875 12.109375 26.003906 13.332031 Z M 21.859375 16.914062 L 21.746094 17.097656 L 18.5 22.882812 L 20.464844 24.257812 L 24.792969 19.230469 C 24.84375 19.171875 24.894531 19.109375 24.9375 19.042969 C 25.605469 18.09375 25.460938 16.839844 24.613281 16.246094 L 24.433594 16.136719 C 23.574219 15.683594 22.460938 16.03125 21.859375 16.914062 Z M 21.859375 16.914062 "/>
</clipPath>
</defs>
<g clip-path="url(#clip-0)">
<g clip-path="url(#clip-1)">
<path fill-rule="evenodd" fill="rgb(96.078491%, 37.254333%, 14.117432%)" fill-opacity="1" d="M 3.296875 24.746094 L 22.238281 24.746094 L 22.238281 -1.53125 L 3.296875 -1.53125 Z M 3.296875 24.746094 "/>
</g>
</g>
<g clip-path="url(#clip-2)">
<g clip-path="url(#clip-3)">
<path fill-rule="evenodd" fill="rgb(96.078491%, 37.254333%, 14.117432%)" fill-opacity="1" d="M 9.710938 35.515625 L 30.761719 35.515625 L 30.761719 10.320312 L 9.710938 10.320312 Z M 9.710938 35.515625 "/>
</g>
</g>
</svg>
