<?xml version="1.0" encoding="UTF-8"?>
<svg xmlns="http://www.w3.org/2000/svg" xmlns:xlink="http://www.w3.org/1999/xlink" width="34" height="34" viewBox="0 0 34 34">
<defs>
<clipPath id="clip-0">
<path clip-rule="nonzero" d="M 1 6 L 33 6 L 33 28 L 1 28 Z M 1 6 "/>
</clipPath>
<clipPath id="clip-1">
<path clip-rule="nonzero" d="M 30.601562 6.800781 L 3.398438 6.800781 C 2.460938 6.800781 1.699219 7.5625 1.699219 8.5 L 1.699219 25.5 C 1.699219 26.4375 2.460938 27.199219 3.398438 27.199219 L 30.601562 27.199219 C 31.539062 27.199219 32.300781 26.4375 32.300781 25.5 L 32.300781 8.5 C 32.300781 7.5625 31.539062 6.800781 30.601562 6.800781 Z M 30.601562 8.5 L 30.601562 25.5 L 3.398438 25.5 L 3.398438 8.5 Z M 30.601562 8.5 "/>
</clipPath>
<clipPath id="clip-2">
<path clip-rule="nonzero" d="M 18 25 L 23 25 L 23 29 L 18 29 Z M 18 25 "/>
</clipPath>
<clipPath id="clip-3">
<path clip-rule="evenodd" d="M 20.398438 28.898438 C 21.339844 28.898438 22.101562 28.140625 22.101562 27.199219 C 22.101562 26.261719 21.339844 25.5 20.398438 25.5 C 19.460938 25.5 18.699219 26.261719 18.699219 27.199219 C 18.699219 28.140625 19.460938 28.898438 20.398438 28.898438 Z M 20.398438 28.898438 "/>
</clipPath>
<clipPath id="clip-4">
<path clip-rule="nonzero" d="M 18 5 L 23 5 L 23 9 L 18 9 Z M 18 5 "/>
</clipPath>
<clipPath id="clip-5">
<path clip-rule="evenodd" d="M 20.398438 8.5 C 21.339844 8.5 22.101562 7.738281 22.101562 6.800781 C 22.101562 5.859375 21.339844 5.101562 20.398438 5.101562 C 19.460938 5.101562 18.699219 5.859375 18.699219 6.800781 C 18.699219 7.738281 19.460938 8.5 20.398438 8.5 Z M 20.398438 8.5 "/>
</clipPath>
<clipPath id="clip-6">
<path clip-rule="nonzero" d="M 15 25 L 19 25 L 19 29 L 15 29 Z M 15 25 "/>
</clipPath>
<clipPath id="clip-7">
<path clip-rule="evenodd" d="M 17 28.898438 C 17.9375 28.898438 18.699219 28.140625 18.699219 27.199219 C 18.699219 26.261719 17.9375 25.5 17 25.5 C 16.0625 25.5 15.300781 26.261719 15.300781 27.199219 C 15.300781 28.140625 16.0625 28.898438 17 28.898438 Z M 17 28.898438 "/>
</clipPath>
<clipPath id="clip-8">
<path clip-rule="nonzero" d="M 15 5 L 19 5 L 19 9 L 15 9 Z M 15 5 "/>
</clipPath>
<clipPath id="clip-9">
<path clip-rule="evenodd" d="M 17 8.5 C 17.9375 8.5 18.699219 7.738281 18.699219 6.800781 C 18.699219 5.859375 17.9375 5.101562 17 5.101562 C 16.0625 5.101562 15.300781 5.859375 15.300781 6.800781 C 15.300781 7.738281 16.0625 8.5 17 8.5 Z M 17 8.5 "/>
</clipPath>
<clipPath id="clip-10">
<path clip-rule="nonzero" d="M 11 25 L 16 25 L 16 29 L 11 29 Z M 11 25 "/>
</clipPath>
<clipPath id="clip-11">
<path clip-rule="evenodd" d="M 13.601562 28.898438 C 14.539062 28.898438 15.300781 28.140625 15.300781 27.199219 C 15.300781 26.261719 14.539062 25.5 13.601562 25.5 C 12.660156 25.5 11.898438 26.261719 11.898438 27.199219 C 11.898438 28.140625 12.660156 28.898438 13.601562 28.898438 Z M 13.601562 28.898438 "/>
</clipPath>
<clipPath id="clip-12">
<path clip-rule="nonzero" d="M 11 5 L 16 5 L 16 9 L 11 9 Z M 11 5 "/>
</clipPath>
<clipPath id="clip-13">
<path clip-rule="evenodd" d="M 13.601562 8.5 C 14.539062 8.5 15.300781 7.738281 15.300781 6.800781 C 15.300781 5.859375 14.539062 5.101562 13.601562 5.101562 C 12.660156 5.101562 11.898438 5.859375 11.898438 6.800781 C 11.898438 7.738281 12.660156 8.5 13.601562 8.5 Z M 13.601562 8.5 "/>
</clipPath>
<clipPath id="clip-14">
<path clip-rule="nonzero" d="M 8 25 L 12 25 L 12 29 L 8 29 Z M 8 25 "/>
</clipPath>
<clipPath id="clip-15">
<path clip-rule="evenodd" d="M 10.199219 28.898438 C 11.140625 28.898438 11.898438 28.140625 11.898438 27.199219 C 11.898438 26.261719 11.140625 25.5 10.199219 25.5 C 9.261719 25.5 8.5 26.261719 8.5 27.199219 C 8.5 28.140625 9.261719 28.898438 10.199219 28.898438 Z M 10.199219 28.898438 "/>
</clipPath>
<clipPath id="clip-16">
<path clip-rule="nonzero" d="M 8 5 L 12 5 L 12 9 L 8 9 Z M 8 5 "/>
</clipPath>
<clipPath id="clip-17">
<path clip-rule="evenodd" d="M 10.199219 8.5 C 11.140625 8.5 11.898438 7.738281 11.898438 6.800781 C 11.898438 5.859375 11.140625 5.101562 10.199219 5.101562 C 9.261719 5.101562 8.5 5.859375 8.5 6.800781 C 8.5 7.738281 9.261719 8.5 10.199219 8.5 Z M 10.199219 8.5 "/>
</clipPath>
<clipPath id="clip-18">
<path clip-rule="nonzero" d="M 5 25 L 9 25 L 9 29 L 5 29 Z M 5 25 "/>
</clipPath>
<clipPath id="clip-19">
<path clip-rule="evenodd" d="M 6.800781 28.898438 C 7.738281 28.898438 8.5 28.140625 8.5 27.199219 C 8.5 26.261719 7.738281 25.5 6.800781 25.5 C 5.859375 25.5 5.101562 26.261719 5.101562 27.199219 C 5.101562 28.140625 5.859375 28.898438 6.800781 28.898438 Z M 6.800781 28.898438 "/>
</clipPath>
<clipPath id="clip-20">
<path clip-rule="nonzero" d="M 5 5 L 9 5 L 9 9 L 5 9 Z M 5 5 "/>
</clipPath>
<clipPath id="clip-21">
<path clip-rule="evenodd" d="M 6.800781 8.5 C 7.738281 8.5 8.5 7.738281 8.5 6.800781 C 8.5 5.859375 7.738281 5.101562 6.800781 5.101562 C 5.859375 5.101562 5.101562 5.859375 5.101562 6.800781 C 5.101562 7.738281 5.859375 8.5 6.800781 8.5 Z M 6.800781 8.5 "/>
</clipPath>
<clipPath id="clip-22">
<path clip-rule="nonzero" d="M 1 25 L 6 25 L 6 29 L 1 29 Z M 1 25 "/>
</clipPath>
<clipPath id="clip-23">
<path clip-rule="evenodd" d="M 3.398438 28.898438 C 4.339844 28.898438 5.101562 28.140625 5.101562 27.199219 C 5.101562 26.261719 4.339844 25.5 3.398438 25.5 C 2.460938 25.5 1.699219 26.261719 1.699219 27.199219 C 1.699219 28.140625 2.460938 28.898438 3.398438 28.898438 Z M 3.398438 28.898438 "/>
</clipPath>
<clipPath id="clip-24">
<path clip-rule="nonzero" d="M 1 5 L 6 5 L 6 9 L 1 9 Z M 1 5 "/>
</clipPath>
<clipPath id="clip-25">
<path clip-rule="evenodd" d="M 3.398438 8.5 C 4.339844 8.5 5.101562 7.738281 5.101562 6.800781 C 5.101562 5.859375 4.339844 5.101562 3.398438 5.101562 C 2.460938 5.101562 1.699219 5.859375 1.699219 6.800781 C 1.699219 7.738281 2.460938 8.5 3.398438 8.5 Z M 3.398438 8.5 "/>
</clipPath>
<clipPath id="clip-26">
<path clip-rule="nonzero" d="M 0 23 L 4 23 L 4 28 L 0 28 Z M 0 23 "/>
</clipPath>
<clipPath id="clip-27">
<path clip-rule="evenodd" d="M 1.699219 27.199219 C 2.640625 27.199219 3.398438 26.4375 3.398438 25.5 C 3.398438 24.5625 2.640625 23.800781 1.699219 23.800781 C 0.761719 23.800781 0 24.5625 0 25.5 C 0 26.4375 0.761719 27.199219 1.699219 27.199219 Z M 1.699219 27.199219 "/>
</clipPath>
<clipPath id="clip-28">
<path clip-rule="nonzero" d="M 0 20 L 4 20 L 4 24 L 0 24 Z M 0 20 "/>
</clipPath>
<clipPath id="clip-29">
<path clip-rule="evenodd" d="M 1.699219 23.800781 C 2.640625 23.800781 3.398438 23.039062 3.398438 22.101562 C 3.398438 21.160156 2.640625 20.398438 1.699219 20.398438 C 0.761719 20.398438 0 21.160156 0 22.101562 C 0 23.039062 0.761719 23.800781 1.699219 23.800781 Z M 1.699219 23.800781 "/>
</clipPath>
<clipPath id="clip-30">
<path clip-rule="nonzero" d="M 0 17 L 4 17 L 4 21 L 0 21 Z M 0 17 "/>
</clipPath>
<clipPath id="clip-31">
<path clip-rule="evenodd" d="M 1.699219 20.398438 C 2.640625 20.398438 3.398438 19.640625 3.398438 18.699219 C 3.398438 17.761719 2.640625 17 1.699219 17 C 0.761719 17 0 17.761719 0 18.699219 C 0 19.640625 0.761719 20.398438 1.699219 20.398438 Z M 1.699219 20.398438 "/>
</clipPath>
<clipPath id="clip-32">
<path clip-rule="nonzero" d="M 0 13 L 4 13 L 4 17 L 0 17 Z M 0 13 "/>
</clipPath>
<clipPath id="clip-33">
<path clip-rule="evenodd" d="M 1.699219 17 C 2.640625 17 3.398438 16.238281 3.398438 15.300781 C 3.398438 14.359375 2.640625 13.601562 1.699219 13.601562 C 0.761719 13.601562 0 14.359375 0 15.300781 C 0 16.238281 0.761719 17 1.699219 17 Z M 1.699219 17 "/>
</clipPath>
<clipPath id="clip-34">
<path clip-rule="nonzero" d="M 0 10 L 4 10 L 4 14 L 0 14 Z M 0 10 "/>
</clipPath>
<clipPath id="clip-35">
<path clip-rule="evenodd" d="M 1.699219 13.601562 C 2.640625 13.601562 3.398438 12.839844 3.398438 11.898438 C 3.398438 10.960938 2.640625 10.199219 1.699219 10.199219 C 0.761719 10.199219 0 10.960938 0 11.898438 C 0 12.839844 0.761719 13.601562 1.699219 13.601562 Z M 1.699219 13.601562 "/>
</clipPath>
<clipPath id="clip-36">
<path clip-rule="nonzero" d="M 0 6 L 4 6 L 4 11 L 0 11 Z M 0 6 "/>
</clipPath>
<clipPath id="clip-37">
<path clip-rule="evenodd" d="M 1.699219 10.199219 C 2.640625 10.199219 3.398438 9.4375 3.398438 8.5 C 3.398438 7.5625 2.640625 6.800781 1.699219 6.800781 C 0.761719 6.800781 0 7.5625 0 8.5 C 0 9.4375 0.761719 10.199219 1.699219 10.199219 Z M 1.699219 10.199219 "/>
</clipPath>
<clipPath id="clip-38">
<path clip-rule="nonzero" d="M 22 25 L 26 25 L 26 29 L 22 29 Z M 22 25 "/>
</clipPath>
<clipPath id="clip-39">
<path clip-rule="evenodd" d="M 23.800781 28.898438 C 24.738281 28.898438 25.5 28.140625 25.5 27.199219 C 25.5 26.261719 24.738281 25.5 23.800781 25.5 C 22.859375 25.5 22.101562 26.261719 22.101562 27.199219 C 22.101562 28.140625 22.859375 28.898438 23.800781 28.898438 Z M 23.800781 28.898438 "/>
</clipPath>
<clipPath id="clip-40">
<path clip-rule="nonzero" d="M 22 5 L 26 5 L 26 9 L 22 9 Z M 22 5 "/>
</clipPath>
<clipPath id="clip-41">
<path clip-rule="evenodd" d="M 23.800781 8.5 C 24.738281 8.5 25.5 7.738281 25.5 6.800781 C 25.5 5.859375 24.738281 5.101562 23.800781 5.101562 C 22.859375 5.101562 22.101562 5.859375 22.101562 6.800781 C 22.101562 7.738281 22.859375 8.5 23.800781 8.5 Z M 23.800781 8.5 "/>
</clipPath>
<clipPath id="clip-42">
<path clip-rule="nonzero" d="M 28 25 L 33 25 L 33 29 L 28 29 Z M 28 25 "/>
</clipPath>
<clipPath id="clip-43">
<path clip-rule="evenodd" d="M 30.601562 28.898438 C 31.539062 28.898438 32.300781 28.140625 32.300781 27.199219 C 32.300781 26.261719 31.539062 25.5 30.601562 25.5 C 29.660156 25.5 28.898438 26.261719 28.898438 27.199219 C 28.898438 28.140625 29.660156 28.898438 30.601562 28.898438 Z M 30.601562 28.898438 "/>
</clipPath>
<clipPath id="clip-44">
<path clip-rule="nonzero" d="M 28 5 L 33 5 L 33 9 L 28 9 Z M 28 5 "/>
</clipPath>
<clipPath id="clip-45">
<path clip-rule="evenodd" d="M 30.601562 8.5 C 31.539062 8.5 32.300781 7.738281 32.300781 6.800781 C 32.300781 5.859375 31.539062 5.101562 30.601562 5.101562 C 29.660156 5.101562 28.898438 5.859375 28.898438 6.800781 C 28.898438 7.738281 29.660156 8.5 30.601562 8.5 Z M 30.601562 8.5 "/>
</clipPath>
<clipPath id="clip-46">
<path clip-rule="nonzero" d="M 25 25 L 29 25 L 29 29 L 25 29 Z M 25 25 "/>
</clipPath>
<clipPath id="clip-47">
<path clip-rule="evenodd" d="M 27.199219 28.898438 C 28.140625 28.898438 28.898438 28.140625 28.898438 27.199219 C 28.898438 26.261719 28.140625 25.5 27.199219 25.5 C 26.261719 25.5 25.5 26.261719 25.5 27.199219 C 25.5 28.140625 26.261719 28.898438 27.199219 28.898438 Z M 27.199219 28.898438 "/>
</clipPath>
<clipPath id="clip-48">
<path clip-rule="nonzero" d="M 25 5 L 29 5 L 29 9 L 25 9 Z M 25 5 "/>
</clipPath>
<clipPath id="clip-49">
<path clip-rule="evenodd" d="M 27.199219 8.5 C 28.140625 8.5 28.898438 7.738281 28.898438 6.800781 C 28.898438 5.859375 28.140625 5.101562 27.199219 5.101562 C 26.261719 5.101562 25.5 5.859375 25.5 6.800781 C 25.5 7.738281 26.261719 8.5 27.199219 8.5 Z M 27.199219 8.5 "/>
</clipPath>
<clipPath id="clip-50">
<path clip-rule="nonzero" d="M 17 10 L 23 10 L 23 16 L 17 16 Z M 17 10 "/>
</clipPath>
<clipPath id="clip-51">
<path clip-rule="evenodd" d="M 19.550781 15.300781 C 20.957031 15.300781 22.101562 14.160156 22.101562 12.75 C 22.101562 11.339844 20.957031 10.199219 19.550781 10.199219 C 18.140625 10.199219 17 11.339844 17 12.75 C 17 14.160156 18.140625 15.300781 19.550781 15.300781 Z M 19.550781 15.300781 "/>
</clipPath>
<clipPath id="clip-52">
<path clip-rule="nonzero" d="M 30 23 L 34 23 L 34 28 L 30 28 Z M 30 23 "/>
</clipPath>
<clipPath id="clip-53">
<path clip-rule="evenodd" d="M 32.300781 27.199219 C 33.238281 27.199219 34 26.4375 34 25.5 C 34 24.5625 33.238281 23.800781 32.300781 23.800781 C 31.359375 23.800781 30.601562 24.5625 30.601562 25.5 C 30.601562 26.4375 31.359375 27.199219 32.300781 27.199219 Z M 32.300781 27.199219 "/>
</clipPath>
<clipPath id="clip-54">
<path clip-rule="nonzero" d="M 30 20 L 34 20 L 34 24 L 30 24 Z M 30 20 "/>
</clipPath>
<clipPath id="clip-55">
<path clip-rule="evenodd" d="M 32.300781 23.800781 C 33.238281 23.800781 34 23.039062 34 22.101562 C 34 21.160156 33.238281 20.398438 32.300781 20.398438 C 31.359375 20.398438 30.601562 21.160156 30.601562 22.101562 C 30.601562 23.039062 31.359375 23.800781 32.300781 23.800781 Z M 32.300781 23.800781 "/>
</clipPath>
<clipPath id="clip-56">
<path clip-rule="nonzero" d="M 30 17 L 34 17 L 34 21 L 30 21 Z M 30 17 "/>
</clipPath>
<clipPath id="clip-57">
<path clip-rule="evenodd" d="M 32.300781 20.398438 C 33.238281 20.398438 34 19.640625 34 18.699219 C 34 17.761719 33.238281 17 32.300781 17 C 31.359375 17 30.601562 17.761719 30.601562 18.699219 C 30.601562 19.640625 31.359375 20.398438 32.300781 20.398438 Z M 32.300781 20.398438 "/>
</clipPath>
<clipPath id="clip-58">
<path clip-rule="nonzero" d="M 30 13 L 34 13 L 34 17 L 30 17 Z M 30 13 "/>
</clipPath>
<clipPath id="clip-59">
<path clip-rule="evenodd" d="M 32.300781 17 C 33.238281 17 34 16.238281 34 15.300781 C 34 14.359375 33.238281 13.601562 32.300781 13.601562 C 31.359375 13.601562 30.601562 14.359375 30.601562 15.300781 C 30.601562 16.238281 31.359375 17 32.300781 17 Z M 32.300781 17 "/>
</clipPath>
<clipPath id="clip-60">
<path clip-rule="nonzero" d="M 30 10 L 34 10 L 34 14 L 30 14 Z M 30 10 "/>
</clipPath>
<clipPath id="clip-61">
<path clip-rule="evenodd" d="M 32.300781 13.601562 C 33.238281 13.601562 34 12.839844 34 11.898438 C 34 10.960938 33.238281 10.199219 32.300781 10.199219 C 31.359375 10.199219 30.601562 10.960938 30.601562 11.898438 C 30.601562 12.839844 31.359375 13.601562 32.300781 13.601562 Z M 32.300781 13.601562 "/>
</clipPath>
<clipPath id="clip-62">
<path clip-rule="nonzero" d="M 30 6 L 34 6 L 34 11 L 30 11 Z M 30 6 "/>
</clipPath>
<clipPath id="clip-63">
<path clip-rule="evenodd" d="M 32.300781 10.199219 C 33.238281 10.199219 34 9.4375 34 8.5 C 34 7.5625 33.238281 6.800781 32.300781 6.800781 C 31.359375 6.800781 30.601562 7.5625 30.601562 8.5 C 30.601562 9.4375 31.359375 10.199219 32.300781 10.199219 Z M 32.300781 10.199219 "/>
</clipPath>
<clipPath id="clip-64">
<path clip-rule="nonzero" d="M 0 13 L 21 13 L 21 24 L 0 24 Z M 0 13 "/>
</clipPath>
<clipPath id="clip-65">
<path clip-rule="nonzero" d="M 9.136719 13.972656 C 9.632812 13.578125 10.296875 13.492188 10.867188 13.734375 L 11.074219 13.84375 L 19.574219 18.941406 C 20.378906 19.425781 20.640625 20.46875 20.15625 21.273438 C 19.710938 22.023438 18.777344 22.300781 18 21.949219 L 17.824219 21.859375 L 10.335938 17.367188 L 2.761719 23.425781 C 2.085938 23.96875 1.121094 23.910156 0.515625 23.320312 L 0.371094 23.160156 C -0.167969 22.484375 -0.109375 21.523438 0.480469 20.917969 L 0.636719 20.773438 Z M 9.136719 13.972656 "/>
</clipPath>
<clipPath id="clip-66">
<path clip-rule="nonzero" d="M 13 15 L 34 15 L 34 24 L 13 24 Z M 13 15 "/>
</clipPath>
<clipPath id="clip-67">
<path clip-rule="nonzero" d="M 24.738281 15.480469 C 25.25 15.222656 25.851562 15.246094 26.34375 15.523438 L 26.519531 15.640625 L 33.320312 20.738281 C 34.070312 21.304688 34.222656 22.367188 33.660156 23.121094 C 33.140625 23.8125 32.191406 23.996094 31.457031 23.578125 L 31.28125 23.460938 L 25.320312 18.992188 L 16.058594 23.621094 C 15.28125 24.011719 14.34375 23.746094 13.878906 23.03125 L 13.78125 22.859375 C 13.390625 22.082031 13.65625 21.144531 14.367188 20.679688 L 14.539062 20.578125 Z M 24.738281 15.480469 "/>
</clipPath>
</defs>
<g clip-path="url(#clip-0)">
<g clip-path="url(#clip-1)">
<path fill-rule="nonzero" fill="rgb(100%, 59.2%, 22.3%)" fill-opacity="1" d="M 0.699219 5.800781 L 33.300781 5.800781 L 33.300781 28.199219 L 0.699219 28.199219 Z M 0.699219 5.800781 "/>
</g>
</g>
<g clip-path="url(#clip-2)">
<g clip-path="url(#clip-3)">
<path fill-rule="nonzero" fill="rgb(100%, 59.2%, 22.3%)" fill-opacity="1" d="M 17.699219 24.5 L 23.101562 24.5 L 23.101562 29.898438 L 17.699219 29.898438 Z M 17.699219 24.5 "/>
</g>
</g>
<g clip-path="url(#clip-4)">
<g clip-path="url(#clip-5)">
<path fill-rule="nonzero" fill="rgb(100%, 59.2%, 22.3%)" fill-opacity="1" d="M 17.699219 4.101562 L 23.101562 4.101562 L 23.101562 9.5 L 17.699219 9.5 Z M 17.699219 4.101562 "/>
</g>
</g>
<g clip-path="url(#clip-6)">
<g clip-path="url(#clip-7)">
<path fill-rule="nonzero" fill="rgb(100%, 59.2%, 22.3%)" fill-opacity="1" d="M 14.300781 24.5 L 19.699219 24.5 L 19.699219 29.898438 L 14.300781 29.898438 Z M 14.300781 24.5 "/>
</g>
</g>
<g clip-path="url(#clip-8)">
<g clip-path="url(#clip-9)">
<path fill-rule="nonzero" fill="rgb(100%, 59.2%, 22.3%)" fill-opacity="1" d="M 14.300781 4.101562 L 19.699219 4.101562 L 19.699219 9.5 L 14.300781 9.5 Z M 14.300781 4.101562 "/>
</g>
</g>
<g clip-path="url(#clip-10)">
<g clip-path="url(#clip-11)">
<path fill-rule="nonzero" fill="rgb(100%, 59.2%, 22.3%)" fill-opacity="1" d="M 10.898438 24.5 L 16.300781 24.5 L 16.300781 29.898438 L 10.898438 29.898438 Z M 10.898438 24.5 "/>
</g>
</g>
<g clip-path="url(#clip-12)">
<g clip-path="url(#clip-13)">
<path fill-rule="nonzero" fill="rgb(100%, 59.2%, 22.3%)" fill-opacity="1" d="M 10.898438 4.101562 L 16.300781 4.101562 L 16.300781 9.5 L 10.898438 9.5 Z M 10.898438 4.101562 "/>
</g>
</g>
<g clip-path="url(#clip-14)">
<g clip-path="url(#clip-15)">
<path fill-rule="nonzero" fill="rgb(100%, 59.2%, 22.3%)" fill-opacity="1" d="M 7.5 24.5 L 12.898438 24.5 L 12.898438 29.898438 L 7.5 29.898438 Z M 7.5 24.5 "/>
</g>
</g>
<g clip-path="url(#clip-16)">
<g clip-path="url(#clip-17)">
<path fill-rule="nonzero" fill="rgb(100%, 59.2%, 22.3%)" fill-opacity="1" d="M 7.5 4.101562 L 12.898438 4.101562 L 12.898438 9.5 L 7.5 9.5 Z M 7.5 4.101562 "/>
</g>
</g>
<g clip-path="url(#clip-18)">
<g clip-path="url(#clip-19)">
<path fill-rule="nonzero" fill="rgb(100%, 59.2%, 22.3%)" fill-opacity="1" d="M 4.101562 24.5 L 9.5 24.5 L 9.5 29.898438 L 4.101562 29.898438 Z M 4.101562 24.5 "/>
</g>
</g>
<g clip-path="url(#clip-20)">
<g clip-path="url(#clip-21)">
<path fill-rule="nonzero" fill="rgb(100%, 59.2%, 22.3%)" fill-opacity="1" d="M 4.101562 4.101562 L 9.5 4.101562 L 9.5 9.5 L 4.101562 9.5 Z M 4.101562 4.101562 "/>
</g>
</g>
<g clip-path="url(#clip-22)">
<g clip-path="url(#clip-23)">
<path fill-rule="nonzero" fill="rgb(100%, 59.2%, 22.3%)" fill-opacity="1" d="M 0.699219 24.5 L 6.101562 24.5 L 6.101562 29.898438 L 0.699219 29.898438 Z M 0.699219 24.5 "/>
</g>
</g>
<g clip-path="url(#clip-24)">
<g clip-path="url(#clip-25)">
<path fill-rule="nonzero" fill="rgb(100%, 59.2%, 22.3%)" fill-opacity="1" d="M 0.699219 4.101562 L 6.101562 4.101562 L 6.101562 9.5 L 0.699219 9.5 Z M 0.699219 4.101562 "/>
</g>
</g>
<g clip-path="url(#clip-26)">
<g clip-path="url(#clip-27)">
<path fill-rule="nonzero" fill="rgb(100%, 59.2%, 22.3%)" fill-opacity="1" d="M -1 22.800781 L 4.398438 22.800781 L 4.398438 28.199219 L -1 28.199219 Z M -1 22.800781 "/>
</g>
</g>
<g clip-path="url(#clip-28)">
<g clip-path="url(#clip-29)">
<path fill-rule="nonzero" fill="rgb(100%, 59.2%, 22.3%)" fill-opacity="1" d="M -1 19.398438 L 4.398438 19.398438 L 4.398438 24.800781 L -1 24.800781 Z M -1 19.398438 "/>
</g>
</g>
<g clip-path="url(#clip-30)">
<g clip-path="url(#clip-31)">
<path fill-rule="nonzero" fill="rgb(100%, 59.2%, 22.3%)" fill-opacity="1" d="M -1 16 L 4.398438 16 L 4.398438 21.398438 L -1 21.398438 Z M -1 16 "/>
</g>
</g>
<g clip-path="url(#clip-32)">
<g clip-path="url(#clip-33)">
<path fill-rule="nonzero" fill="rgb(100%, 59.2%, 22.3%)" fill-opacity="1" d="M -1 12.601562 L 4.398438 12.601562 L 4.398438 18 L -1 18 Z M -1 12.601562 "/>
</g>
</g>
<g clip-path="url(#clip-34)">
<g clip-path="url(#clip-35)">
<path fill-rule="nonzero" fill="rgb(100%, 59.2%, 22.3%)" fill-opacity="1" d="M -1 9.199219 L 4.398438 9.199219 L 4.398438 14.601562 L -1 14.601562 Z M -1 9.199219 "/>
</g>
</g>
<g clip-path="url(#clip-36)">
<g clip-path="url(#clip-37)">
<path fill-rule="nonzero" fill="rgb(100%, 59.2%, 22.3%)" fill-opacity="1" d="M -1 5.800781 L 4.398438 5.800781 L 4.398438 11.199219 L -1 11.199219 Z M -1 5.800781 "/>
</g>
</g>
<g clip-path="url(#clip-38)">
<g clip-path="url(#clip-39)">
<path fill-rule="nonzero" fill="rgb(100%, 59.2%, 22.3%)" fill-opacity="1" d="M 21.101562 24.5 L 26.5 24.5 L 26.5 29.898438 L 21.101562 29.898438 Z M 21.101562 24.5 "/>
</g>
</g>
<g clip-path="url(#clip-40)">
<g clip-path="url(#clip-41)">
<path fill-rule="nonzero" fill="rgb(100%, 59.2%, 22.3%)" fill-opacity="1" d="M 21.101562 4.101562 L 26.5 4.101562 L 26.5 9.5 L 21.101562 9.5 Z M 21.101562 4.101562 "/>
</g>
</g>
<g clip-path="url(#clip-42)">
<g clip-path="url(#clip-43)">
<path fill-rule="nonzero" fill="rgb(100%, 59.2%, 22.3%)" fill-opacity="1" d="M 27.898438 24.5 L 33.300781 24.5 L 33.300781 29.898438 L 27.898438 29.898438 Z M 27.898438 24.5 "/>
</g>
</g>
<g clip-path="url(#clip-44)">
<g clip-path="url(#clip-45)">
<path fill-rule="nonzero" fill="rgb(100%, 59.2%, 22.3%)" fill-opacity="1" d="M 27.898438 4.101562 L 33.300781 4.101562 L 33.300781 9.5 L 27.898438 9.5 Z M 27.898438 4.101562 "/>
</g>
</g>
<g clip-path="url(#clip-46)">
<g clip-path="url(#clip-47)">
<path fill-rule="nonzero" fill="rgb(100%, 59.2%, 22.3%)" fill-opacity="1" d="M 24.5 24.5 L 29.898438 24.5 L 29.898438 29.898438 L 24.5 29.898438 Z M 24.5 24.5 "/>
</g>
</g>
<g clip-path="url(#clip-48)">
<g clip-path="url(#clip-49)">
<path fill-rule="nonzero" fill="rgb(100%, 59.2%, 22.3%)" fill-opacity="1" d="M 24.5 4.101562 L 29.898438 4.101562 L 29.898438 9.5 L 24.5 9.5 Z M 24.5 4.101562 "/>
</g>
</g>
<g clip-path="url(#clip-50)">
<g clip-path="url(#clip-51)">
<path fill-rule="nonzero" fill="rgb(100%, 59.2%, 22.3%)" fill-opacity="1" d="M 16 9.199219 L 23.101562 9.199219 L 23.101562 16.300781 L 16 16.300781 Z M 16 9.199219 "/>
</g>
</g>
<g clip-path="url(#clip-52)">
<g clip-path="url(#clip-53)">
<path fill-rule="nonzero" fill="rgb(100%, 59.2%, 22.3%)" fill-opacity="1" d="M 29.601562 22.800781 L 35 22.800781 L 35 28.199219 L 29.601562 28.199219 Z M 29.601562 22.800781 "/>
</g>
</g>
<g clip-path="url(#clip-54)">
<g clip-path="url(#clip-55)">
<path fill-rule="nonzero" fill="rgb(100%, 59.2%, 22.3%)" fill-opacity="1" d="M 29.601562 19.398438 L 35 19.398438 L 35 24.800781 L 29.601562 24.800781 Z M 29.601562 19.398438 "/>
</g>
</g>
<g clip-path="url(#clip-56)">
<g clip-path="url(#clip-57)">
<path fill-rule="nonzero" fill="rgb(100%, 59.2%, 22.3%)" fill-opacity="1" d="M 29.601562 16 L 35 16 L 35 21.398438 L 29.601562 21.398438 Z M 29.601562 16 "/>
</g>
</g>
<g clip-path="url(#clip-58)">
<g clip-path="url(#clip-59)">
<path fill-rule="nonzero" fill="rgb(100%, 59.2%, 22.3%)" fill-opacity="1" d="M 29.601562 12.601562 L 35 12.601562 L 35 18 L 29.601562 18 Z M 29.601562 12.601562 "/>
</g>
</g>
<g clip-path="url(#clip-60)">
<g clip-path="url(#clip-61)">
<path fill-rule="nonzero" fill="rgb(100%, 59.2%, 22.3%)" fill-opacity="1" d="M 29.601562 9.199219 L 35 9.199219 L 35 14.601562 L 29.601562 14.601562 Z M 29.601562 9.199219 "/>
</g>
</g>
<g clip-path="url(#clip-62)">
<g clip-path="url(#clip-63)">
<path fill-rule="nonzero" fill="rgb(100%, 59.2%, 22.3%)" fill-opacity="1" d="M 29.601562 5.800781 L 35 5.800781 L 35 11.199219 L 29.601562 11.199219 Z M 29.601562 5.800781 "/>
</g>
</g>
<g clip-path="url(#clip-64)">
<g clip-path="url(#clip-65)">
<path fill-rule="nonzero" fill="rgb(100%, 59.2%, 22.3%)" fill-opacity="1" d="M -1 12.492188 L 21.640625 12.492188 L 21.640625 24.96875 L -1 24.96875 Z M -1 12.492188 "/>
</g>
</g>
<g clip-path="url(#clip-66)">
<g clip-path="url(#clip-67)">
<path fill-rule="nonzero" fill="rgb(100%, 59.2%, 22.3%)" fill-opacity="1" d="M 12.390625 14.222656 L 35 14.222656 L 35 25.011719 L 12.390625 25.011719 Z M 12.390625 14.222656 "/>
</g>
</g>
</svg>
