<svg width="56" height="56" viewBox="0 0 56 56" fill="none" xmlns="http://www.w3.org/2000/svg">
<g clip-path="url(#clip0_255_1403)">
<path d="M27.51 11H12.86C11.2805 11 10 12.2805 10 13.86V38.46C10 40.0395 11.2805 41.32 12.86 41.32H27.51C29.0895 41.32 30.37 40.0395 30.37 38.46V13.86C30.37 12.2805 29.0895 11 27.51 11Z" fill="white"/>
<path d="M16.97 18.19L15.41 20.23C15.27 20.41 14.99 20.41 14.85 20.23L13.29 18.19C13.19 18.06 13.19 17.89 13.29 17.76L14.85 15.72C14.99 15.54 15.27 15.54 15.41 15.72L16.97 17.76C17.07 17.89 17.07 18.06 16.97 18.19Z" fill="#F55F24"/>
<path d="M16.97 26.23L15.41 28.27C15.27 28.45 14.99 28.45 14.85 28.27L13.29 26.23C13.19 26.1 13.19 25.93 13.29 25.8L14.85 23.76C14.99 23.58 15.27 23.58 15.41 23.76L16.97 25.8C17.07 25.93 17.07 26.1 16.97 26.23Z" fill="#F55F24"/>
<path d="M16.97 34.26L15.41 36.3C15.27 36.48 14.99 36.48 14.85 36.3L13.29 34.26C13.19 34.13 13.19 33.96 13.29 33.83L14.85 31.79C14.99 31.61 15.27 31.61 15.41 31.79L16.97 33.83C17.07 33.96 17.07 34.13 16.97 34.26Z" fill="#F55F24"/>
<path d="M27.39 18.19L25.83 20.23C25.69 20.41 25.41 20.41 25.27 20.23L23.71 18.19C23.61 18.06 23.61 17.89 23.71 17.76L25.27 15.72C25.41 15.54 25.69 15.54 25.83 15.72L27.39 17.76C27.49 17.89 27.49 18.06 27.39 18.19Z" fill="#F55F24"/>
<path d="M27.39 26.23L25.83 28.27C25.69 28.45 25.41 28.45 25.27 28.27L23.71 26.23C23.61 26.1 23.61 25.93 23.71 25.8L25.27 23.76C25.41 23.58 25.69 23.58 25.83 23.76L27.39 25.8C27.49 25.93 27.49 26.1 27.39 26.23Z" fill="white"/>
<path d="M27.39 34.26L25.83 36.3C25.69 36.48 25.41 36.48 25.27 36.3L23.71 34.26C23.61 34.13 23.61 33.96 23.71 33.83L25.27 31.79C25.41 31.61 25.69 31.61 25.83 31.79L27.39 33.83C27.49 33.96 27.49 34.13 27.39 34.26Z" fill="#F55F24"/>
<path d="M44.9692 16.2738L31.0481 11.7102C29.5472 11.2182 27.9316 12.0361 27.4395 13.537L19.7765 36.913C19.2845 38.414 20.1023 40.0296 21.6033 40.5216L35.5244 45.0852C37.0253 45.5772 38.6409 44.7594 39.133 43.2584L46.796 19.8824C47.288 18.3815 46.4702 16.7658 44.9692 16.2738Z" fill="#F3C8B3"/>
<path d="M38.88 27.09C38.38 25.62 35.48 21.73 35.48 21.73C35.48 21.73 30.84 23.15 29.56 24.04C26.32 26.29 27.28 31.52 31.72 30.9L31.56 31.24C30.88 32.72 29.19 33.46 27.64 32.95L27.44 33.56L31.19 34.79L34.94 36.02L35.14 35.41C33.59 34.9 32.66 33.31 33 31.71L33.08 31.34C36.29 34.47 40.16 30.83 38.88 27.09Z" fill="#F55F24"/>
<path d="M24.12 41.3501L21.92 40.6301C20.24 40.0801 19.32 38.2701 19.88 36.5901L24.89 21.3101" stroke="#653825" stroke-width="0.66" stroke-miterlimit="10" stroke-linecap="round"/>
<path d="M38.88 27.09C38.38 25.62 35.48 21.73 35.48 21.73C35.48 21.73 30.84 23.15 29.56 24.04C26.32 26.29 27.28 31.52 31.72 30.9L31.56 31.24C30.88 32.72 29.19 33.46 27.64 32.95L27.44 33.56L31.19 34.79L34.94 36.02L35.14 35.41C33.59 34.9 32.66 33.31 33 31.71L33.08 31.34C36.29 34.47 40.16 30.83 38.88 27.09Z" fill="#F55F24"/>
</g>
<defs>
<clipPath id="clip0_255_1403">
<rect width="36.94" height="34.23" fill="white" transform="translate(10 11)"/>
</clipPath>
</defs>
</svg>
