<?xml version="1.0" encoding="UTF-8"?>
<svg xmlns="http://www.w3.org/2000/svg" xmlns:xlink="http://www.w3.org/1999/xlink" width="34" height="35" viewBox="0 0 34 35">
<defs>
<clipPath id="clip-0">
<path clip-rule="nonzero" d="M 1 0 L 33 0 L 33 35 L 1 35 Z M 1 0 "/>
</clipPath>
<clipPath id="clip-1">
<path clip-rule="nonzero" d="M 25.5 0.992188 L 8.5 0.992188 C 4.746094 0.992188 1.699219 4.035156 1.699219 7.792969 L 1.699219 28.199219 C 1.699219 31.957031 4.746094 35 8.5 35 L 25.5 35 C 29.253906 35 32.300781 31.957031 32.300781 28.199219 L 32.300781 7.792969 C 32.300781 4.035156 29.253906 0.992188 25.5 0.992188 Z M 8.5 4.390625 L 25.5 4.390625 C 27.378906 4.390625 28.898438 5.914062 28.898438 7.792969 L 28.898438 28.199219 C 28.898438 30.078125 27.378906 31.601562 25.5 31.601562 L 8.5 31.601562 C 6.621094 31.601562 5.101562 30.078125 5.101562 28.199219 L 5.101562 7.792969 C 5.101562 5.914062 6.621094 4.390625 8.5 4.390625 Z M 8.5 4.390625 "/>
</clipPath>
<clipPath id="clip-2">
<path clip-rule="nonzero" d="M 8 11 L 26 11 L 26 29 L 8 29 Z M 8 11 "/>
</clipPath>
<clipPath id="clip-3">
<path clip-rule="nonzero" d="M 17 11.199219 C 21.695312 11.199219 25.5 15.003906 25.5 19.699219 C 25.5 24.394531 21.695312 28.199219 17 28.199219 C 12.304688 28.199219 8.5 24.394531 8.5 19.699219 C 8.5 15.003906 12.304688 11.199219 17 11.199219 Z M 17 14.601562 C 14.183594 14.601562 11.898438 16.882812 11.898438 19.699219 C 11.898438 22.515625 14.183594 24.800781 17 24.800781 C 19.816406 24.800781 22.101562 22.515625 22.101562 19.699219 C 22.101562 16.882812 19.816406 14.601562 17 14.601562 Z M 17 14.601562 "/>
</clipPath>
<clipPath id="clip-4">
<path clip-rule="nonzero" d="M 20 6 L 28 6 L 28 10 L 20 10 Z M 20 6 "/>
</clipPath>
<clipPath id="clip-5">
<path clip-rule="nonzero" d="M 25.5 6.042969 C 26.4375 6.042969 27.199219 6.804688 27.199219 7.746094 C 27.199219 8.617188 26.542969 9.335938 25.699219 9.433594 L 25.5 9.445312 L 22.144531 9.445312 C 21.207031 9.445312 20.445312 8.683594 20.445312 7.746094 C 20.445312 6.871094 21.101562 6.152344 21.949219 6.054688 L 22.144531 6.042969 Z M 25.5 6.042969 "/>
</clipPath>
</defs>
<g clip-path="url(#clip-0)">
<g clip-path="url(#clip-1)">
<path fill-rule="nonzero" fill="rgb(96.078491%, 37.254333%, 14.117432%)" fill-opacity="1" d="M 0.699219 -0.0078125 L 33.300781 -0.0078125 L 33.300781 36 L 0.699219 36 Z M 0.699219 -0.0078125 "/>
</g>
</g>
<g clip-path="url(#clip-2)">
<g clip-path="url(#clip-3)">
<path fill-rule="nonzero" fill="rgb(96.078491%, 37.254333%, 14.117432%)" fill-opacity="1" d="M 7.5 10.199219 L 26.5 10.199219 L 26.5 29.199219 L 7.5 29.199219 Z M 7.5 10.199219 "/>
</g>
</g>
<g clip-path="url(#clip-4)">
<g clip-path="url(#clip-5)">
<path fill-rule="nonzero" fill="rgb(96.078491%, 37.254333%, 14.117432%)" fill-opacity="1" d="M 19.445312 5.042969 L 28.199219 5.042969 L 28.199219 10.445312 L 19.445312 10.445312 Z M 19.445312 5.042969 "/>
</g>
</g>
</svg>
