<svg width="19" height="19" viewBox="0 0 19 19" fill="none" xmlns="http://www.w3.org/2000/svg">
<path fill-rule="evenodd" clip-rule="evenodd" d="M9.5 0C14.7467 0 19 4.25329 19 9.5C19 14.7467 14.7467 19 9.5 19C4.25329 19 0 14.7467 0 9.5C0 4.25329 4.25329 0 9.5 0ZM9.5 1.9C5.30264 1.9 1.9 5.30264 1.9 9.5C1.9 13.6974 5.30264 17.1 9.5 17.1C13.6974 17.1 17.1 13.6974 17.1 9.5C17.1 5.30264 13.6974 1.9 9.5 1.9Z" fill="#F55F24"/>
<path fill-rule="evenodd" clip-rule="evenodd" d="M14.887 2.76635C15.258 2.39535 15.8595 2.39535 16.2305 2.76635C16.573 3.10881 16.5993 3.64768 16.3095 4.02035L16.2305 4.10985L4.10671 16.2336C3.73571 16.6046 3.1342 16.6046 2.7632 16.2336C2.42074 15.8912 2.3944 15.3523 2.68417 14.9796L2.7632 14.8901L14.887 2.76635Z" fill="#F55F24"/>
</svg>
