<?xml version="1.0" encoding="UTF-8"?>
<svg xmlns="http://www.w3.org/2000/svg" xmlns:xlink="http://www.w3.org/1999/xlink" width="32" height="32" viewBox="0 0 32 32">
<path fill-rule="nonzero" fill="rgb(33.72345%, 71.879578%, 77.082825%)" fill-opacity="1" d="M 32 16 C 32 24.835938 24.835938 32 16 32 C 7.164062 32 0 24.835938 0 16 C 0 7.164062 7.164062 0 16 0 C 24.835938 0 32 7.164062 32 16 Z M 32 16 "/>
<path fill-rule="nonzero" fill="rgb(100%, 100%, 100%)" fill-opacity="1" d="M 20.242188 12.714844 L 16.359375 8 L 12.324219 12.714844 C 9.726562 15.316406 9.042969 19.542969 11.640625 22.140625 C 12.941406 23.441406 14.648438 24.089844 16.359375 24.089844 C 18.066406 24.089844 19.773438 23.441406 21.074219 22.140625 C 23.675781 19.542969 22.839844 15.316406 20.242188 12.714844 Z M 16.359375 22.433594 C 15.023438 22.433594 18.683594 22.699219 17.742188 21.75 C 16.792969 20.800781 18.574219 20.582031 18.574219 19.25 C 18.574219 17.917969 16.792969 18.109375 17.742188 17.167969 L 16.359375 10.359375 Z M 16.359375 22.433594 "/>
</svg>
