<?xml version="1.0" encoding="UTF-8"?>
<svg xmlns="http://www.w3.org/2000/svg" xmlns:xlink="http://www.w3.org/1999/xlink" width="18" height="18" viewBox="0 0 18 18">
<path fill-rule="nonzero" fill="rgb(96.076965%, 37.254333%, 14.117432%)" fill-opacity="1" d="M 3.621094 7.789062 C 5.058594 10.621094 7.378906 12.929688 10.210938 14.378906 L 12.410156 12.179688 C 12.679688 11.910156 13.078125 11.820312 13.429688 11.941406 C 14.550781 12.308594 15.761719 12.511719 17 12.511719 C 17.550781 12.511719 18 12.960938 18 13.511719 L 18 17 C 18 17.550781 17.550781 18 17 18 C 7.609375 18 0 10.390625 0 1 C 0 0.449219 0.449219 0 1 0 L 4.5 0 C 5.050781 0 5.5 0.449219 5.5 1 C 5.5 2.25 5.699219 3.449219 6.070312 4.570312 C 6.179688 4.921875 6.101562 5.308594 5.820312 5.589844 Z M 3.621094 7.789062 "/>
</svg>
