<?xml version="1.0" encoding="UTF-8"?>
<svg xmlns="http://www.w3.org/2000/svg" xmlns:xlink="http://www.w3.org/1999/xlink" width="34" height="34" viewBox="0 0 34 34">
<defs>
<clipPath id="clip-0">
<path clip-rule="nonzero" d="M 1 1 L 33 1 L 33 33 L 1 33 Z M 1 1 "/>
</clipPath>
<clipPath id="clip-1">
<path clip-rule="nonzero" d="M 5.007812 7.476562 C 0.53125 13.054688 0.605469 21.226562 5.179688 26.738281 C 8.042969 30.1875 12.140625 32.15625 16.492188 32.296875 C 19.390625 32.390625 21.59375 29.925781 21.496094 27.015625 C 21.457031 25.851562 21.890625 24.730469 22.726562 23.894531 C 23.664062 22.957031 24.953125 22.53125 26.226562 22.695312 L 26.542969 22.746094 C 29.3125 23.320312 31.972656 21.238281 32.234375 18.421875 C 32.652344 13.917969 31.078125 9.441406 27.816406 6.179688 C 21.375 -0.253906 10.761719 0.296875 5.007812 7.476562 Z M 25.414062 8.585938 C 27.949219 11.121094 29.175781 14.601562 28.847656 18.105469 C 28.769531 18.945312 27.972656 19.570312 27.230469 19.417969 C 24.75 18.90625 22.152344 19.660156 20.324219 21.488281 C 18.8125 22.996094 18.027344 25.035156 18.097656 27.128906 C 18.132812 28.15625 17.445312 28.925781 16.601562 28.898438 C 13.214844 28.789062 10.03125 27.261719 7.796875 24.566406 C 4.253906 20.296875 4.195312 13.921875 7.660156 9.601562 C 12.050781 4.121094 20.058594 3.597656 25.097656 8.28125 Z M 25.414062 8.585938 "/>
</clipPath>
<clipPath id="clip-2">
<path clip-rule="nonzero" d="M 6 17 L 12 17 L 12 23 L 6 23 Z M 6 17 "/>
</clipPath>
<clipPath id="clip-3">
<path clip-rule="evenodd" d="M 11.898438 19.550781 C 11.898438 20.957031 10.757812 22.101562 9.351562 22.101562 C 7.941406 22.101562 6.800781 20.957031 6.800781 19.550781 C 6.800781 18.140625 7.941406 17 9.351562 17 C 10.757812 17 11.898438 18.140625 11.898438 19.550781 "/>
</clipPath>
<clipPath id="clip-4">
<path clip-rule="nonzero" d="M 11 22 L 17 22 L 17 28 L 11 28 Z M 11 22 "/>
</clipPath>
<clipPath id="clip-5">
<path clip-rule="evenodd" d="M 17 24.648438 C 17 26.058594 15.859375 27.199219 14.449219 27.199219 C 13.042969 27.199219 11.898438 26.058594 11.898438 24.648438 C 11.898438 23.242188 13.042969 22.101562 14.449219 22.101562 C 15.859375 22.101562 17 23.242188 17 24.648438 "/>
</clipPath>
<clipPath id="clip-6">
<path clip-rule="nonzero" d="M 8 10 L 14 10 L 14 16 L 8 16 Z M 8 10 "/>
</clipPath>
<clipPath id="clip-7">
<path clip-rule="evenodd" d="M 13.601562 12.75 C 13.601562 14.160156 12.457031 15.300781 11.050781 15.300781 C 9.640625 15.300781 8.5 14.160156 8.5 12.75 C 8.5 11.339844 9.640625 10.199219 11.050781 10.199219 C 12.457031 10.199219 13.601562 11.339844 13.601562 12.75 "/>
</clipPath>
<clipPath id="clip-8">
<path clip-rule="nonzero" d="M 15 6 L 21 6 L 21 12 L 15 12 Z M 15 6 "/>
</clipPath>
<clipPath id="clip-9">
<path clip-rule="evenodd" d="M 20.398438 9.351562 C 20.398438 10.757812 19.257812 11.898438 17.851562 11.898438 C 16.441406 11.898438 15.300781 10.757812 15.300781 9.351562 C 15.300781 7.941406 16.441406 6.800781 17.851562 6.800781 C 19.257812 6.800781 20.398438 7.941406 20.398438 9.351562 "/>
</clipPath>
<clipPath id="clip-10">
<path clip-rule="nonzero" d="M 22 11 L 28 11 L 28 17 L 22 17 Z M 22 11 "/>
</clipPath>
<clipPath id="clip-11">
<path clip-rule="evenodd" d="M 27.199219 14.449219 C 27.199219 15.859375 26.058594 17 24.648438 17 C 23.242188 17 22.101562 15.859375 22.101562 14.449219 C 22.101562 13.042969 23.242188 11.898438 24.648438 11.898438 C 26.058594 11.898438 27.199219 13.042969 27.199219 14.449219 "/>
</clipPath>
</defs>
<g clip-path="url(#clip-0)">
<g clip-path="url(#clip-1)">
<path fill-rule="nonzero" fill="rgb(94.509888%, 37.254333%, 14.117432%)" fill-opacity="1" d="M -0.46875 -1 L 33.652344 -1 L 33.652344 33.390625 L -0.46875 33.390625 Z M -0.46875 -1 "/>
</g>
</g>
<g clip-path="url(#clip-2)">
<g clip-path="url(#clip-3)">
<path fill-rule="nonzero" fill="rgb(94.509888%, 37.254333%, 14.117432%)" fill-opacity="1" d="M 5.800781 16 L 12.898438 16 L 12.898438 23.101562 L 5.800781 23.101562 Z M 5.800781 16 "/>
</g>
</g>
<g clip-path="url(#clip-4)">
<g clip-path="url(#clip-5)">
<path fill-rule="nonzero" fill="rgb(94.509888%, 37.254333%, 14.117432%)" fill-opacity="1" d="M 10.898438 21.101562 L 18 21.101562 L 18 28.199219 L 10.898438 28.199219 Z M 10.898438 21.101562 "/>
</g>
</g>
<g clip-path="url(#clip-6)">
<g clip-path="url(#clip-7)">
<path fill-rule="nonzero" fill="rgb(94.509888%, 37.254333%, 14.117432%)" fill-opacity="1" d="M 7.5 9.199219 L 14.601562 9.199219 L 14.601562 16.300781 L 7.5 16.300781 Z M 7.5 9.199219 "/>
</g>
</g>
<g clip-path="url(#clip-8)">
<g clip-path="url(#clip-9)">
<path fill-rule="nonzero" fill="rgb(94.509888%, 37.254333%, 14.117432%)" fill-opacity="1" d="M 14.300781 5.800781 L 21.398438 5.800781 L 21.398438 12.898438 L 14.300781 12.898438 Z M 14.300781 5.800781 "/>
</g>
</g>
<g clip-path="url(#clip-10)">
<g clip-path="url(#clip-11)">
<path fill-rule="nonzero" fill="rgb(94.509888%, 37.254333%, 14.117432%)" fill-opacity="1" d="M 21.101562 10.898438 L 28.199219 10.898438 L 28.199219 18 L 21.101562 18 Z M 21.101562 10.898438 "/>
</g>
</g>
</svg>
