<?xml version="1.0" encoding="UTF-8"?>
<svg xmlns="http://www.w3.org/2000/svg" xmlns:xlink="http://www.w3.org/1999/xlink" width="21" height="21" viewBox="0 0 21 21">
<defs>
<clipPath id="clip-0">
<path clip-rule="nonzero" d="M 6 5 L 16 5 L 16 16 L 6 16 Z M 6 5 "/>
</clipPath>
<clipPath id="clip-1">
<path clip-rule="nonzero" d="M 15.511719 5.816406 C 15.871094 6.179688 15.898438 6.753906 15.589844 7.144531 L 15.511719 7.230469 L 12.328125 10.414062 L 15.511719 13.597656 C 15.902344 13.988281 15.902344 14.621094 15.511719 15.011719 C 15.148438 15.371094 14.574219 15.398438 14.183594 15.089844 L 14.097656 15.011719 L 10.914062 11.828125 L 7.730469 15.011719 C 7.339844 15.402344 6.707031 15.402344 6.316406 15.011719 C 5.957031 14.648438 5.929688 14.074219 6.242188 13.683594 L 6.316406 13.597656 L 9.5 10.414062 L 6.316406 7.230469 C 5.925781 6.839844 5.925781 6.207031 6.316406 5.816406 C 6.679688 5.457031 7.253906 5.429688 7.644531 5.742188 L 7.730469 5.816406 L 10.914062 9 L 14.097656 5.816406 C 14.488281 5.425781 15.121094 5.425781 15.511719 5.816406 Z M 15.511719 5.816406 "/>
</clipPath>
</defs>
<g clip-path="url(#clip-0)">
<g clip-path="url(#clip-1)">
<path fill-rule="nonzero" fill="rgb(100%, 0%, 0%)" fill-opacity="1" d="M 10.914062 -0.972656 L 22.300781 10.414062 L 10.914062 21.800781 L -0.472656 10.414062 Z M 10.914062 -0.972656 "/>
</g>
</g>
</svg>
