<?xml version="1.0" encoding="UTF-8"?>
<svg xmlns="http://www.w3.org/2000/svg" xmlns:xlink="http://www.w3.org/1999/xlink" width="24" height="24" viewBox="0 0 24 24">
<path fill-rule="nonzero" fill="rgb(96.078491%, 37.254333%, 14.117432%)" fill-opacity="1" d="M 12 9 C 14.210938 9 16 7.210938 16 5 C 16 2.789062 14.210938 1 12 1 C 9.789062 1 8 2.789062 8 5 C 8 7.210938 9.789062 9 12 9 Z M 12 3 C 13.101562 3 14 3.898438 14 5 C 14 6.101562 13.101562 7 12 7 C 10.898438 7 10 6.101562 10 5 C 10 3.898438 10.898438 3 12 3 Z M 12 11.550781 C 9.640625 9.351562 6.480469 8 3 8 L 3 19 C 6.480469 19 9.640625 20.351562 12 22.550781 C 14.359375 20.359375 17.519531 19 21 19 L 21 8 C 17.519531 8 14.359375 9.351562 12 11.550781 Z M 19 17.128906 C 16.46875 17.46875 14.070312 18.429688 12 19.949219 C 9.941406 18.429688 7.53125 17.460938 5 17.121094 L 5 10.171875 C 7.101562 10.550781 9.050781 11.519531 10.640625 13 L 12 14.28125 L 13.359375 13.011719 C 14.949219 11.53125 16.898438 10.558594 19 10.179688 Z M 19 17.128906 "/>
</svg>
