<?xml version="1.0" encoding="UTF-8"?>
<svg xmlns="http://www.w3.org/2000/svg" xmlns:xlink="http://www.w3.org/1999/xlink" width="34" height="34" viewBox="0 0 34 34">
<path fill-rule="nonzero" fill="rgb(96.078491%, 37.254333%, 14.117432%)" fill-opacity="1" d="M 33.222656 29.464844 L 24.359375 20.601562 C 25.800781 18.425781 26.5625 15.90625 26.5625 13.28125 C 26.5625 5.957031 20.605469 0 13.28125 0 C 5.957031 0 0 5.957031 0 13.28125 C 0 20.605469 5.957031 26.5625 13.28125 26.5625 C 15.90625 26.5625 18.425781 25.800781 20.601562 24.359375 L 29.464844 33.222656 C 29.96875 33.722656 30.632812 34 31.34375 34 C 32.054688 34 32.71875 33.722656 33.222656 33.222656 C 33.722656 32.71875 34 32.054688 34 31.34375 C 34 30.632812 33.722656 29.96875 33.222656 29.464844 Z M 20.289062 22.957031 C 18.238281 24.449219 15.816406 25.234375 13.28125 25.234375 C 6.691406 25.234375 1.328125 19.871094 1.328125 13.28125 C 1.328125 6.691406 6.691406 1.328125 13.28125 1.328125 C 19.871094 1.328125 25.234375 6.691406 25.234375 13.28125 C 25.234375 15.816406 24.449219 18.238281 22.957031 20.289062 C 22.214844 21.316406 21.316406 22.214844 20.289062 22.957031 Z M 21.683594 23.558594 C 22.371094 23 23 22.371094 23.558594 21.683594 L 25.445312 23.566406 C 24.871094 24.242188 24.242188 24.871094 23.566406 25.445312 Z M 32.28125 32.28125 C 32.03125 32.535156 31.699219 32.671875 31.34375 32.671875 C 30.988281 32.671875 30.65625 32.535156 30.40625 32.28125 L 24.507812 26.386719 C 25.179688 25.808594 25.808594 25.179688 26.386719 24.507812 L 32.28125 30.40625 C 32.535156 30.65625 32.671875 30.988281 32.671875 31.34375 C 32.671875 31.699219 32.535156 32.03125 32.28125 32.28125 Z M 32.28125 32.28125 "/>
<path fill-rule="nonzero" fill="rgb(96.078491%, 37.254333%, 14.117432%)" fill-opacity="1" d="M 13.28125 2.65625 C 7.421875 2.65625 2.65625 7.421875 2.65625 13.28125 C 2.65625 19.140625 7.421875 23.90625 13.28125 23.90625 C 19.140625 23.90625 23.90625 19.140625 23.90625 13.28125 C 23.90625 7.421875 19.140625 2.65625 13.28125 2.65625 Z M 13.28125 22.578125 C 8.15625 22.578125 3.984375 18.40625 3.984375 13.28125 C 3.984375 8.15625 8.15625 3.984375 13.28125 3.984375 C 18.40625 3.984375 22.578125 8.15625 22.578125 13.28125 C 22.578125 18.40625 18.40625 22.578125 13.28125 22.578125 Z M 13.28125 22.578125 "/>
</svg>
