<?xml version="1.0" encoding="UTF-8"?>
<svg xmlns="http://www.w3.org/2000/svg" xmlns:xlink="http://www.w3.org/1999/xlink" width="24" height="34" viewBox="0 0 24 34">
<path fill-rule="nonzero" fill="rgb(100%, 59.2%, 22.3%)" fill-opacity="1" d="M 23.90625 8.464844 C 23.71875 7.789062 23.265625 7.230469 22.632812 6.878906 C 22.003906 6.53125 21.269531 6.441406 20.5625 6.621094 C 20.546875 6.625 20.53125 6.628906 20.511719 6.632812 C 20.386719 5.847656 19.902344 5.117188 19.121094 4.6875 C 18.398438 4.289062 17.570312 4.230469 16.832031 4.453125 C 16.695312 3.671875 16.210938 2.953125 15.441406 2.527344 C 14.671875 2.105469 13.78125 2.0625 13.007812 2.335938 C 12.847656 1.546875 12.34375 0.820312 11.554688 0.386719 C 10.859375 0.00390625 10.046875 -0.101562 9.269531 0.0976562 C 8.488281 0.296875 7.839844 0.773438 7.4375 1.441406 L 5.230469 5.09375 C 4.21875 5.117188 3.238281 5.613281 2.675781 6.46875 L 0.882812 9.1875 C -0.261719 10.921875 -0.296875 13.101562 0.789062 14.867188 L 4.59375 21.070312 L 4.59375 33.335938 C 4.59375 33.703125 4.90625 34 5.289062 34 C 5.675781 34 5.984375 33.703125 5.984375 33.335938 L 5.984375 20.890625 C 5.984375 20.773438 5.953125 20.65625 5.890625 20.554688 L 1.988281 14.195312 C 1.167969 12.859375 1.195312 11.210938 2.058594 9.894531 L 3.851562 7.175781 C 4.296875 6.5 5.210938 6.230469 5.976562 6.554688 C 6.8125 6.902344 7.796875 7.316406 8.660156 7.675781 C 9.480469 8.019531 9.855469 8.941406 9.496094 9.730469 C 9.148438 10.5 8.238281 10.859375 7.421875 10.554688 L 5.542969 9.855469 C 5.183594 9.722656 4.78125 9.890625 4.640625 10.234375 C 4.503906 10.574219 4.679688 10.960938 5.035156 11.09375 L 6.914062 11.792969 C 7.582031 12.042969 8.285156 12.050781 8.917969 11.859375 C 9.097656 12.035156 9.304688 12.1875 9.527344 12.3125 C 9.976562 12.558594 10.46875 12.675781 10.953125 12.675781 C 11.394531 12.675781 11.828125 12.578125 12.222656 12.390625 C 12.4375 13.050781 12.894531 13.601562 13.523438 13.949219 C 13.964844 14.191406 14.449219 14.316406 14.945312 14.316406 C 15.191406 14.316406 15.441406 14.285156 15.6875 14.222656 C 15.789062 14.195312 15.886719 14.164062 15.984375 14.128906 C 16.15625 14.792969 16.601562 15.390625 17.265625 15.757812 C 17.6875 15.992188 18.15625 16.109375 18.628906 16.109375 C 18.816406 16.109375 19.007812 16.089844 19.199219 16.050781 C 18.527344 17.941406 17.414062 19.660156 15.921875 21.085938 C 15.792969 21.207031 15.71875 21.378906 15.71875 21.554688 L 15.71875 33.335938 C 15.71875 33.703125 16.03125 34 16.414062 34 C 16.796875 34 17.109375 33.703125 17.109375 33.335938 L 17.109375 21.824219 C 19.066406 19.882812 20.414062 17.449219 20.996094 14.804688 L 23.632812 10.441406 C 23.996094 9.839844 24.09375 9.136719 23.90625 8.464844 Z M 9.632812 6.671875 C 9.503906 6.59375 7.464844 5.726562 6.65625 5.386719 L 8.640625 2.105469 C 8.859375 1.746094 9.207031 1.488281 9.628906 1.382812 C 10.046875 1.273438 10.484375 1.328125 10.859375 1.539062 C 11.238281 1.746094 11.503906 2.078125 11.617188 2.480469 C 11.730469 2.878906 11.671875 3.296875 11.457031 3.65625 Z M 12.230469 10.648438 C 11.824219 11.316406 10.921875 11.546875 10.222656 11.160156 C 10.203125 11.148438 10.183594 11.136719 10.167969 11.125 C 10.414062 10.882812 10.621094 10.59375 10.773438 10.261719 C 11.167969 9.394531 11.082031 8.441406 10.628906 7.679688 L 12.738281 4.191406 C 12.933594 3.867188 13.25 3.636719 13.628906 3.539062 C 14.007812 3.441406 14.40625 3.492188 14.746094 3.679688 C 15.445312 4.066406 15.6875 4.925781 15.28125 5.59375 Z M 16.214844 12.289062 C 16.019531 12.613281 15.703125 12.84375 15.328125 12.941406 C 14.949219 13.035156 14.554688 12.988281 14.21875 12.800781 C 13.882812 12.613281 13.640625 12.3125 13.539062 11.953125 C 13.4375 11.59375 13.488281 11.21875 13.683594 10.894531 L 16.433594 6.347656 C 16.703125 5.902344 17.195312 5.652344 17.699219 5.652344 C 17.945312 5.652344 18.199219 5.710938 18.425781 5.839844 C 19.125 6.222656 19.363281 7.078125 18.960938 7.742188 Z M 22.429688 9.777344 L 19.792969 14.140625 C 19.613281 14.4375 19.324219 14.648438 18.976562 14.734375 C 18.632812 14.824219 18.273438 14.78125 17.964844 14.609375 C 17.324219 14.257812 17.105469 13.472656 17.472656 12.863281 L 20.109375 8.5 C 20.359375 8.089844 20.808594 7.859375 21.273438 7.859375 C 21.5 7.859375 21.730469 7.914062 21.9375 8.03125 C 22.578125 8.382812 22.796875 9.167969 22.429688 9.777344 Z M 22.429688 9.777344 "/>
</svg>
