<?xml version="1.0" encoding="UTF-8"?>
<svg xmlns="http://www.w3.org/2000/svg" xmlns:xlink="http://www.w3.org/1999/xlink" width="22" height="22" viewBox="0 0 22 22">
<defs>
<clipPath id="clip-0">
<path clip-rule="evenodd" d="M 13.445312 0 C 18.152344 0 22 3.847656 22 8.554688 L 22 13.445312 C 22 18.152344 18.152344 22 13.445312 22 L 8.554688 22 C 3.847656 22 0 18.152344 0 13.445312 L 0 8.554688 C 0 3.847656 3.847656 0 8.554688 0 Z M 13.445312 2.199219 L 8.554688 2.199219 C 5.0625 2.199219 2.199219 5.0625 2.199219 8.554688 L 2.199219 13.445312 C 2.199219 16.9375 5.0625 19.800781 8.554688 19.800781 L 13.445312 19.800781 C 16.9375 19.800781 19.800781 16.9375 19.800781 13.445312 L 19.800781 8.554688 C 19.800781 5.0625 16.9375 2.199219 13.445312 2.199219 Z M 11 6.601562 C 11.5625 6.601562 12.027344 7.023438 12.09375 7.570312 L 12.101562 7.699219 L 12.101562 9.898438 L 14.3125 9.898438 C 14.921875 9.898438 15.414062 10.390625 15.414062 11 C 15.414062 11.5625 14.988281 12.027344 14.441406 12.09375 L 14.3125 12.101562 L 12.101562 12.101562 L 12.101562 14.300781 C 12.101562 14.90625 11.609375 15.398438 11 15.398438 C 10.4375 15.398438 9.972656 14.976562 9.90625 14.429688 L 9.898438 14.300781 L 9.898438 12.101562 L 7.699219 12.101562 C 7.09375 12.101562 6.601562 11.609375 6.601562 11 C 6.601562 10.4375 7.023438 9.972656 7.570312 9.90625 L 7.699219 9.898438 L 9.898438 9.898438 L 9.898438 7.699219 C 9.898438 7.09375 10.390625 6.601562 11 6.601562 Z M 11 6.601562 "/>
</clipPath>
</defs>
<g clip-path="url(#clip-0)">
<rect x="-2.2" y="-2.2" width="26.4" height="26.4" fill="rgb(100%, 98.823547%, 98.039246%)" fill-opacity="1"/>
</g>
</svg>
