<?xml version="1.0" encoding="UTF-8"?>
<svg xmlns="http://www.w3.org/2000/svg" xmlns:xlink="http://www.w3.org/1999/xlink" width="23" height="23" viewBox="0 0 23 23">
<defs>
<clipPath id="clip-0">
<path clip-rule="nonzero" d="M 1 1 L 23 1 L 23 20 L 1 20 Z M 1 1 "/>
</clipPath>
<clipPath id="clip-1">
<path clip-rule="nonzero" d="M 11.804688 1.152344 C 7.328125 1.289062 3.707031 4.746094 3.5625 9.0625 L 3.558594 9.316406 L 3.558594 13.210938 C 3.558594 14.425781 3.003906 15.585938 2.039062 16.390625 L 1.839844 16.546875 C 0.46875 17.578125 1.25 19.722656 2.964844 19.722656 L 21.1875 19.722656 C 22.78125 19.722656 23.609375 17.832031 22.488281 16.703125 L 22.347656 16.578125 L 22.140625 16.414062 C 21.140625 15.570312 20.59375 14.421875 20.59375 13.210938 L 20.59375 9.394531 L 20.597656 9.328125 C 20.597656 4.796875 16.773438 1.148438 12.078125 1.148438 Z M 12.328125 3.339844 C 15.636719 3.460938 18.28125 5.980469 18.40625 9.09375 L 18.410156 9.269531 L 18.410156 13.210938 L 18.414062 13.492188 C 18.484375 14.996094 19.09375 16.414062 20.125 17.515625 L 20.148438 17.539062 L 3.996094 17.539062 L 4.070312 17.464844 C 5.144531 16.289062 5.742188 14.785156 5.742188 13.210938 L 5.742188 9.367188 L 5.746094 9.328125 C 5.746094 6.03125 8.570312 3.335938 12.078125 3.335938 Z M 12.328125 3.339844 "/>
</clipPath>
<clipPath id="clip-2">
<path clip-rule="nonzero" d="M 7 17 L 17 17 L 17 23 L 7 23 Z M 7 17 "/>
</clipPath>
<clipPath id="clip-3">
<path clip-rule="nonzero" d="M 15.351562 17.539062 C 15.957031 17.539062 16.445312 18.027344 16.445312 18.628906 C 16.445312 21.042969 14.488281 23 12.074219 23 C 9.660156 23 7.703125 21.042969 7.703125 18.628906 C 7.703125 18.027344 8.195312 17.539062 8.796875 17.539062 C 9.402344 17.539062 9.890625 18.027344 9.890625 18.628906 C 9.890625 19.835938 10.867188 20.816406 12.074219 20.816406 C 13.226562 20.816406 14.171875 19.921875 14.253906 18.792969 L 14.261719 18.628906 C 14.261719 18.027344 14.75 17.539062 15.351562 17.539062 Z M 15.351562 17.539062 "/>
</clipPath>
<clipPath id="clip-4">
<path clip-rule="nonzero" d="M 0 0 L 11 0 L 11 11 L 0 11 Z M 0 0 "/>
</clipPath>
<clipPath id="clip-5">
<path clip-rule="evenodd" d="M 5.175781 10.351562 C 8.03125 10.351562 10.351562 8.03125 10.351562 5.175781 C 10.351562 2.316406 8.03125 0 5.175781 0 C 2.316406 0 0 2.316406 0 5.175781 C 0 8.03125 2.316406 10.351562 5.175781 10.351562 Z M 5.175781 10.351562 "/>
</clipPath>
<clipPath id="clip-6">
<path clip-rule="nonzero" d="M 0 0 L 11 0 L 11 11 L 0 11 Z M 0 0 "/>
</clipPath>
<clipPath id="clip-7">
<path clip-rule="evenodd" d="M 5.175781 10.351562 C 8.03125 10.351562 10.351562 8.03125 10.351562 5.175781 C 10.351562 2.316406 8.03125 0 5.175781 0 C 2.316406 0 0 2.316406 0 5.175781 C 0 8.03125 2.316406 10.351562 5.175781 10.351562 Z M 5.175781 10.351562 "/>
</clipPath>
<clipPath id="clip-8">
<rect x="0" y="0" width="11" height="11"/>
</clipPath>
<g id="source-5" clip-path="url(#clip-8)">
<g clip-path="url(#clip-6)">
<g clip-path="url(#clip-7)">
<rect x="-5.06" y="-5.06" width="33.12" height="33.12" fill="rgb(100%, 59.2%, 22.3%)" fill-opacity="1"/>
<path fill="none" stroke-width="2" stroke-linecap="butt" stroke-linejoin="miter" stroke="rgb(100%, 98.823547%, 98.039246%)" stroke-opacity="1" stroke-miterlimit="5" d="M 5.175781 10.351562 C 8.03125 10.351562 10.351562 8.03125 10.351562 5.175781 C 10.351562 2.316406 8.03125 0 5.175781 0 C 2.316406 0 0 2.316406 0 5.175781 C 0 8.03125 2.316406 10.351562 5.175781 10.351562 Z M 5.175781 10.351562 "/>
</g>
</g>
</g>
</defs>
<g clip-path="url(#clip-0)">
<g clip-path="url(#clip-1)">
<path fill-rule="nonzero" fill="rgb(100%, 59.2%, 22.3%)" fill-opacity="1" d="M -0.53125 0.148438 L 24 0.148438 L 24 20.722656 L -0.53125 20.722656 Z M -0.53125 0.148438 "/>
</g>
</g>
<g clip-path="url(#clip-2)">
<g clip-path="url(#clip-3)">
<path fill-rule="nonzero" fill="rgb(100%, 59.2%, 22.3%)" fill-opacity="1" d="M 6.703125 16.539062 L 17.445312 16.539062 L 17.445312 24 L 6.703125 24 Z M 6.703125 16.539062 "/>
</g>
</g>
<g clip-path="url(#clip-4)">
<g clip-path="url(#clip-5)">
<use xlink:href="#source-5"/>
</g>
</g>
</svg>
