<?xml version="1.0" encoding="UTF-8"?>
<svg xmlns="http://www.w3.org/2000/svg" xmlns:xlink="http://www.w3.org/1999/xlink" width="60" height="60" viewBox="0 0 60 60">
<path fill-rule="nonzero" fill="rgb(96.078491%, 37.254333%, 14.117432%)" fill-opacity="1" stroke-width="1" stroke-linecap="butt" stroke-linejoin="miter" stroke="rgb(96.078491%, 37.254333%, 14.117432%)" stroke-opacity="1" stroke-miterlimit="4" d="M 27.648438 18.148438 C 27.648438 21.789062 30.511719 24.648438 34.148438 24.648438 C 37.660156 24.648438 40.648438 21.789062 40.648438 18.148438 C 40.648438 14.511719 37.660156 11.648438 34.148438 11.648438 C 30.511719 11.648438 27.648438 14.511719 27.648438 18.148438 " transform="matrix(1, 0, 0, -1, 0, 60)"/>
<path fill-rule="nonzero" fill="rgb(96.078491%, 37.254333%, 14.117432%)" fill-opacity="1" stroke-width="1" stroke-linecap="butt" stroke-linejoin="miter" stroke="rgb(96.078491%, 37.254333%, 14.117432%)" stroke-opacity="1" stroke-miterlimit="4" d="M 48.320312 14.898438 C 46.5 15.941406 44.160156 15.160156 43.25 13.339844 C 41.300781 9.699219 37.53125 7.621094 33.761719 7.621094 C 27.78125 7.621094 22.96875 12.429688 22.96875 18.410156 C 22.96875 24.390625 27.78125 29.199219 33.761719 29.199219 C 38.179688 29.199219 42.339844 26.46875 43.898438 22.050781 C 44.550781 20.101562 46.761719 19.058594 48.710938 19.839844 C 50.660156 20.621094 51.699219 22.699219 50.921875 24.648438 C 49.230469 29.199219 45.980469 32.710938 41.820312 34.789062 L 49.101562 53.640625 C 49.878906 55.589844 48.839844 57.800781 46.890625 58.578125 C 44.941406 59.359375 42.730469 58.320312 41.949219 56.371094 L 34.539062 36.738281 L 32.980469 36.738281 L 38.179688 50.648438 C 38.960938 52.601562 37.921875 54.808594 35.96875 55.589844 C 34.019531 56.371094 31.808594 55.328125 31.03125 53.378906 L 23.488281 33.75 C 22.710938 33.230469 21.929688 32.578125 21.148438 31.929688 L 26.351562 45.578125 C 27.128906 47.53125 26.089844 49.738281 24.140625 50.519531 C 22.191406 51.300781 19.980469 50.261719 19.199219 48.308594 L 13.480469 32.710938 C 11.398438 27.511719 9.449219 21.140625 9.449219 18.410156 C 9.449219 10.21875 21.671875 0.078125 33.628906 0.078125 C 40.128906 0.078125 46.5 3.589844 49.878906 9.828125 C 50.921875 11.648438 50.140625 13.859375 48.320312 14.898438 " transform="matrix(1, 0, 0, -1, 0, 60)"/>
</svg>
