<?xml version="1.0" encoding="UTF-8"?>
<svg xmlns="http://www.w3.org/2000/svg" xmlns:xlink="http://www.w3.org/1999/xlink" width="56" height="40" viewBox="0 0 56 40">
<path fill-rule="evenodd" fill="rgb(100%, 59.2%, 22.3%)" fill-opacity="1" d="M 56.027344 3 C 56.027344 1.34375 54.683594 0 53.027344 0 L 3 0 C 1.34375 0 0 1.34375 0 3 L 0 37 C 0 38.65625 1.34375 40 3 40 L 53.027344 40 C 54.683594 40 56.027344 38.65625 56.027344 37 Z M 56.027344 3 "/>
<path fill-rule="nonzero" fill="rgb(100%, 100%, 100%)" fill-opacity="1" d="M 28 17.648438 C 26.261719 17.648438 24.851562 19.0625 24.851562 20.800781 C 24.851562 22.535156 26.261719 23.949219 28 23.949219 C 29.738281 23.949219 31.148438 22.535156 31.148438 20.800781 C 31.148438 19.0625 29.738281 17.648438 28 17.648438 Z M 28 22.148438 C 27.253906 22.148438 26.648438 21.542969 26.648438 20.800781 C 26.648438 20.054688 27.253906 19.449219 28 19.449219 C 28.746094 19.449219 29.351562 20.054688 29.351562 20.800781 C 29.351562 21.542969 28.746094 22.148438 28 22.148438 Z M 28 22.148438 "/>
<path fill-rule="nonzero" fill="rgb(100%, 100%, 100%)" fill-opacity="1" d="M 37.898438 19.898438 L 36.046875 19.898438 C 35.628906 16.152344 32.648438 13.167969 28.898438 12.753906 L 28.898438 10.898438 C 28.898438 10.402344 28.496094 10 28 10 C 27.503906 10 27.101562 10.402344 27.101562 10.898438 L 27.101562 12.753906 C 23.351562 13.167969 20.371094 16.152344 19.953125 19.898438 L 18.101562 19.898438 C 17.601562 19.898438 17.199219 20.304688 17.199219 20.800781 C 17.199219 21.296875 17.601562 21.699219 18.101562 21.699219 L 19.953125 21.699219 C 20.371094 25.449219 23.351562 28.429688 27.101562 28.847656 L 27.101562 30.699219 C 27.101562 31.195312 27.503906 31.601562 28 31.601562 C 28.496094 31.601562 28.898438 31.195312 28.898438 30.699219 L 28.898438 28.847656 C 32.648438 28.429688 35.628906 25.449219 36.046875 21.699219 L 37.898438 21.699219 C 38.398438 21.699219 38.800781 21.296875 38.800781 20.800781 C 38.800781 20.304688 38.398438 19.898438 37.898438 19.898438 Z M 28 27.101562 C 24.527344 27.101562 21.699219 24.273438 21.699219 20.800781 C 21.699219 17.324219 24.527344 14.5 28 14.5 C 31.472656 14.5 34.300781 17.324219 34.300781 20.800781 C 34.300781 24.273438 31.472656 27.101562 28 27.101562 Z M 28 27.101562 "/>
</svg>
