<svg width="56" height="56" viewBox="0 0 56 56" fill="none" xmlns="http://www.w3.org/2000/svg">
<g clip-path="url(#clip0_268_3178)">
<path d="M28.1331 43.733C36.8961 43.733 43.9999 41.2448 43.9999 38.1755C43.9999 35.1061 36.8961 32.6179 28.1331 32.6179C19.3702 32.6179 12.2664 35.1061 12.2664 38.1755C12.2664 41.2448 19.3702 43.733 28.1331 43.733Z" fill="white"/>
<path d="M12.2664 38.1755C12.2664 41.2415 19.3721 43.7331 28.1331 43.7331" stroke="#653825" stroke-width="0.66" stroke-miterlimit="10" stroke-linecap="round"/>
<path d="M17.2888 20.3865H38.9774V31.6553C38.9774 35.8781 35.5538 39.3 31.3469 39.3H24.9275C20.7125 39.3 17.2969 35.87 17.2969 31.6553V20.3865H17.2888Z" fill="#FF9739"/>
<path d="M28.1331 22.7729C34.1223 22.7729 38.9774 21.7044 38.9774 20.3864C38.9774 19.0684 34.1223 18 28.1331 18C22.144 18 17.2888 19.0684 17.2888 20.3864C17.2888 21.7044 22.144 22.7729 28.1331 22.7729Z" fill="#F3C8B3"/>
<path d="M28.1331 18.809C33.8339 18.809 37.4271 19.7716 38.1054 20.3864C37.4271 21.0012 33.8419 21.9639 28.1331 21.9639C22.4243 21.9639 18.8392 21.0012 18.1609 20.3864C18.8392 19.7716 22.4243 18.809 28.1331 18.809ZM28.1331 18C22.1498 18 17.2888 19.0678 17.2888 20.3864C17.2888 21.705 22.1417 22.7729 28.1331 22.7729C34.1245 22.7729 38.9774 21.705 38.9774 20.3864C38.9774 19.0678 34.1245 18 28.1331 18Z" fill="#FF9739"/>
<path d="M31.1775 29.5438C31.1775 29.3173 31.2744 29.0989 31.444 28.9533L33.8502 26.8823L36.1999 28.5569C36.4018 28.7025 36.5229 28.9371 36.5229 29.1879V32.3024C36.5229 32.6907 36.2403 33.0142 35.8608 33.0709L32.0738 33.6371C31.6054 33.71 31.1856 33.3459 31.1856 32.8686V29.5438H31.1775Z" fill="white"/>
<path d="M33.8098 21.519L33.8502 27.8208" stroke="#653825" stroke-width="0.66" stroke-miterlimit="10" stroke-linecap="round"/>
<path d="M38.1217 24.3583C38.1217 24.3583 42.4417 22.1903 42.3448 27.5537C42.2479 32.9171 37.8391 32.2942 37.8391 32.2942" stroke="#FF9739" stroke-width="2" stroke-miterlimit="10"/>
</g>
<path d="M23.6237 17.4772C23.9056 16.7684 24.4937 16.1846 24.7314 15.4591C24.9006 14.9378 24.8764 14.3624 24.6629 13.8579C24.3689 13.1657 23.7485 12.6486 23.378 11.9898C22.6851 10.7514 22.9993 9.15019 23.8774 8.01184C24.5985 7.07781 25.7143 6.27305 25.7747 5.11802C26.1493 4.93455 26.6004 5.00127 27.0113 5.07632C27.7887 5.21392 28.5661 5.35153 29.3436 5.48913C30.1492 5.6309 31.0072 5.79769 31.5832 6.3481C32.131 6.86932 32.3244 7.64073 32.3405 8.37878C32.3526 8.92919 32.276 9.50045 31.9659 9.9633C31.7081 10.3469 31.3133 10.6346 31.0475 11.0099C30.5359 11.7313 30.5963 12.7696 31.1804 13.4284C31.406 13.6827 31.7 13.8829 31.9014 14.1539C32.2841 14.671 32.268 15.4257 31.8611 15.9344C31.4785 16.4098 30.7534 16.7934 30.8662 17.3813C30.9266 17.6941 31.2166 17.9067 31.4462 18.1361C31.99 18.674 32.2639 19.5204 31.9135 20.1918C31.4744 21.034 30.3385 21.2425 29.3637 21.3509C28.7031 21.4218 28.0425 21.4969 27.3859 21.5678C27.1765 21.5928 26.963 21.6136 26.7575 21.5719C26.2621 21.476 25.7465 21.1341 25.2792 20.9548C24.812 20.7755 24.4656 20.567 24.1473 20.2043C23.5028 19.4662 23.2531 18.3946 23.6156 17.4814L23.6237 17.4772Z" fill="white" fill-opacity="0.6"/>
<defs>
<clipPath id="clip0_268_3178">
<rect width="32" height="26" fill="white" transform="translate(12 18)"/>
</clipPath>
</defs>
</svg>
