<?xml version="1.0" encoding="UTF-8"?>
<svg xmlns="http://www.w3.org/2000/svg" xmlns:xlink="http://www.w3.org/1999/xlink" width="281" height="280" viewBox="0 0 281 280">
<defs>
<clipPath id="clip-0">
<path clip-rule="nonzero" d="M 157 5 L 233 5 L 233 103 L 157 103 Z M 157 5 "/>
</clipPath>
<clipPath id="clip-1">
<path clip-rule="evenodd" d="M 232.628906 102.269531 L 199.527344 99.820312 L 196.234375 90.25 L 193.445312 82.175781 C 190.082031 82.773438 186.550781 82.796875 183.078125 81.851562 L 183.066406 81.851562 C 179.804688 80.972656 176.578125 79.253906 173.554688 76.375 L 166.515625 67.570312 C 166.515625 67.570312 156.980469 66.59375 157.261719 61.546875 C 157.542969 56.496094 160.757812 53.832031 160.195312 46.535156 C 159.960938 43.5 159.535156 39.621094 159.253906 35.886719 C 158.847656 30.671875 161.027344 24.835938 162.085938 22.789062 C 163.90625 19.28125 179.410156 -5.207031 205.214844 10.914062 C 231.019531 27.050781 223.734375 52.144531 223.734375 52.144531 C 223.734375 52.144531 223.363281 53.886719 222.429688 56.585938 L 222.957031 58.871094 L 228.738281 86.59375 Z M 232.628906 102.269531 "/>
</clipPath>
<clipPath id="clip-2">
<path clip-rule="nonzero" d="M 177.117188 227.847656 L 277.253906 227.847656 L 277.253906 276.820312 L 177.117188 276.820312 Z M 177.117188 227.847656 "/>
</clipPath>
<clipPath id="clip-3">
<path clip-rule="evenodd" d="M 268.652344 227.847656 L 277.253906 276.820312 L 178.378906 276.820312 L 177.117188 233.101562 Z M 268.652344 227.847656 "/>
</clipPath>
<clipPath id="clip-4">
<path clip-rule="nonzero" d="M 237 249 L 266 249 L 266 263 L 237 263 Z M 237 249 "/>
</clipPath>
<clipPath id="clip-5">
<path clip-rule="evenodd" d="M 263.644531 262.496094 C 251.917969 262.496094 238.46875 250.808594 237.882812 250.296875 C 237.734375 250.164062 237.71875 249.941406 237.851562 249.792969 C 237.976562 249.644531 238.203125 249.632812 238.351562 249.757812 C 238.5 249.886719 253.113281 262.5625 264.792969 261.742188 C 264.984375 261.722656 265.160156 261.875 265.171875 262.074219 C 265.1875 262.269531 265.039062 262.441406 264.84375 262.453125 C 264.445312 262.480469 264.046875 262.496094 263.644531 262.496094 "/>
</clipPath>
<clipPath id="clip-6">
<path clip-rule="nonzero" d="M 251 258 L 254 258 L 254 277 L 251 277 Z M 251 258 "/>
</clipPath>
<clipPath id="clip-7">
<path clip-rule="evenodd" d="M 252.664062 276.824219 C 251.957031 265.546875 251.628906 259.160156 251.617188 259.050781 C 251.605469 258.890625 251.730469 258.769531 251.886719 258.757812 C 252.046875 258.734375 252.167969 258.867188 252.179688 259.027344 C 252.191406 259.140625 252.519531 265.523438 253.226562 276.824219 Z M 252.664062 276.824219 "/>
</clipPath>
<clipPath id="clip-8">
<path clip-rule="nonzero" d="M 217 267 L 220 267 L 220 277 L 217 277 Z M 217 267 "/>
</clipPath>
<clipPath id="clip-9">
<path clip-rule="evenodd" d="M 219.136719 276.824219 L 217.976562 267.863281 C 217.964844 267.71875 218.066406 267.570312 218.222656 267.550781 C 218.371094 267.539062 218.519531 267.640625 218.539062 267.796875 L 219.707031 276.824219 Z M 219.136719 276.824219 "/>
</clipPath>
<clipPath id="clip-10">
<path clip-rule="nonzero" d="M 153 157 L 192 157 L 192 188 L 153 188 Z M 153 157 "/>
</clipPath>
<clipPath id="clip-11">
<path clip-rule="evenodd" d="M 159.929688 157.453125 L 153.042969 174.996094 L 185.527344 187.386719 L 191.847656 157.453125 Z M 159.929688 157.453125 "/>
</clipPath>
<clipPath id="clip-12">
<path clip-rule="nonzero" d="M 86 99 L 130 99 L 130 113 L 86 113 Z M 86 99 "/>
</clipPath>
<clipPath id="clip-13">
<path clip-rule="evenodd" d="M 87.449219 107.910156 C 87.421875 107.855469 87.398438 107.804688 87.371094 107.75 C 86.550781 106.054688 86.550781 104.105469 87.566406 102.570312 C 89.574219 99.539062 93.773438 99.691406 97.421875 99.996094 C 100.511719 100.257812 103.597656 100.519531 106.6875 100.777344 C 112.917969 101.300781 119.171875 101.832031 125.304688 103.101562 C 126.828125 103.414062 128.40625 103.800781 129.027344 105.777344 C 129.378906 106.898438 129.21875 108.121094 128.523438 109.066406 C 127.222656 110.839844 124.695312 111.5625 122.277344 111.609375 C 119.953125 111.652344 117.636719 111.175781 115.3125 110.953125 C 111.859375 110.628906 108.402344 110.871094 104.96875 111.113281 C 100.871094 111.402344 98.878906 112.695312 93.484375 111.964844 C 90.863281 111.609375 88.527344 110.078125 87.449219 107.910156 "/>
</clipPath>
<clipPath id="clip-14">
<path clip-rule="nonzero" d="M 88 103 L 137 103 L 137 118 L 88 118 Z M 88 103 "/>
</clipPath>
<clipPath id="clip-15">
<path clip-rule="evenodd" d="M 117.058594 116.765625 C 115.789062 117.4375 114.398438 117.714844 113.007812 117.675781 C 106.265625 117.472656 99.328125 117.207031 92.664062 116.222656 C 91.535156 116.054688 90.320312 115.832031 89.507812 114.875 C 88.582031 113.789062 88.445312 111.976562 88.929688 110.535156 C 89.417969 109.097656 90.421875 107.992188 91.523438 107.175781 C 94.566406 104.917969 98.308594 104.601562 101.882812 104.410156 C 109.28125 104.015625 116.691406 103.902344 124.101562 104.066406 C 127.46875 104.140625 130.871094 104.28125 134.121094 105.402344 C 135.050781 105.722656 135.855469 106.507812 136.164062 107.613281 C 136.539062 108.953125 135.902344 109.796875 135.207031 110.410156 C 131.804688 113.414062 126.996094 112.011719 122.953125 113.464844 C 120.882812 114.210938 119.058594 115.699219 117.085938 116.75 C 117.078125 116.757812 117.066406 116.761719 117.058594 116.765625 "/>
</clipPath>
<clipPath id="clip-16">
<path clip-rule="nonzero" d="M 46 98 L 91 98 L 91 117 L 46 117 Z M 46 98 "/>
</clipPath>
<clipPath id="clip-17">
<path clip-rule="evenodd" d="M 65.808594 115.441406 C 65.3125 115.308594 64.832031 115.125 64.339844 114.964844 C 60.109375 113.570312 54.171875 114.003906 49.582031 110.628906 C 47.917969 109.40625 46.207031 107.53125 46.300781 105.128906 C 46.351562 103.789062 46.988281 102.5625 47.820312 101.710938 C 49.5 99.992188 51.8125 99.683594 53.980469 99.484375 C 63.648438 98.605469 73.375 98.5625 83.027344 99.621094 C 85.28125 99.867188 87.628906 100.214844 89.382812 102.203125 C 90.238281 103.175781 90.8125 104.535156 90.796875 105.980469 C 90.769531 109.148438 88.304688 110.730469 86.144531 111.871094 C 84.109375 112.949219 82.070312 114.027344 79.949219 114.804688 C 75.378906 116.476562 70.46875 116.695312 65.808594 115.441406 "/>
</clipPath>
<clipPath id="clip-18">
<path clip-rule="nonzero" d="M 20.417969 108.253906 L 136.03125 108.253906 L 136.03125 190.722656 L 20.417969 190.722656 Z M 20.417969 108.253906 "/>
</clipPath>
<clipPath id="clip-19">
<path clip-rule="nonzero" d="M 88.21875 108.253906 L 136.03125 108.253906 L 136.03125 190.722656 L 88.21875 190.722656 Z M 88.21875 108.253906 "/>
</clipPath>
<clipPath id="clip-20">
<path clip-rule="nonzero" d="M 8 86 L 89 86 L 89 109 L 8 109 Z M 8 86 "/>
</clipPath>
<clipPath id="clip-21">
<path clip-rule="evenodd" d="M 8.382812 86.878906 L 76.1875 86.878906 L 88.21875 108.253906 L 20.417969 108.253906 Z M 8.382812 86.878906 "/>
</clipPath>
<clipPath id="clip-22">
<path clip-rule="nonzero" d="M 136 108 L 148 108 L 148 128 L 136 128 Z M 136 108 "/>
</clipPath>
<clipPath id="clip-23">
<path clip-rule="evenodd" d="M 136.03125 108.253906 L 147.429688 127.066406 L 136.03125 127.066406 Z M 136.03125 108.253906 "/>
</clipPath>
<clipPath id="clip-24">
<path clip-rule="nonzero" d="M 32 120 L 67 120 L 67 156 L 32 156 Z M 32 120 "/>
</clipPath>
<clipPath id="clip-25">
<path clip-rule="evenodd" d="M 63.203125 149.140625 L 45.3125 154.980469 C 42.527344 155.890625 39.539062 154.367188 38.628906 151.585938 L 32.789062 133.695312 C 31.878906 130.910156 33.398438 127.917969 36.183594 127.011719 L 54.074219 121.171875 C 56.859375 120.261719 59.851562 121.78125 60.757812 124.566406 L 66.597656 142.457031 C 67.507812 145.238281 65.988281 148.230469 63.203125 149.140625 "/>
</clipPath>
<clipPath id="clip-26">
<path clip-rule="nonzero" d="M 35 130 L 52 130 L 52 146 L 35 146 Z M 35 130 "/>
</clipPath>
<clipPath id="clip-27">
<path clip-rule="evenodd" d="M 43.398438 145.792969 C 39.144531 145.792969 35.6875 142.332031 35.6875 138.082031 C 35.6875 133.824219 39.144531 130.359375 43.398438 130.359375 C 47.65625 130.359375 51.117188 133.824219 51.117188 138.082031 C 51.117188 138.519531 51.085938 138.917969 51.019531 139.296875 C 50.882812 140.070312 50.140625 140.585938 49.367188 140.453125 C 48.59375 140.3125 48.074219 139.574219 48.214844 138.800781 C 48.253906 138.566406 48.269531 138.324219 48.269531 138.082031 C 48.269531 135.394531 46.082031 133.210938 43.398438 133.210938 C 40.71875 133.210938 38.535156 135.394531 38.535156 138.082031 C 38.535156 140.761719 40.71875 142.941406 43.398438 142.941406 C 43.820312 142.941406 44.253906 142.886719 44.679688 142.773438 C 45.433594 142.578125 46.21875 143.03125 46.417969 143.792969 C 46.617188 144.554688 46.160156 145.332031 45.398438 145.53125 C 44.738281 145.703125 44.0625 145.792969 43.398438 145.792969 "/>
</clipPath>
<clipPath id="clip-28">
<path clip-rule="nonzero" d="M 43 137 L 56 137 L 56 150 L 43 150 Z M 43 137 "/>
</clipPath>
<clipPath id="clip-29">
<path clip-rule="evenodd" d="M 49.695312 140.472656 C 47.902344 140.472656 46.445312 141.929688 46.445312 143.722656 C 46.445312 145.515625 47.902344 146.972656 49.695312 146.972656 C 51.484375 146.972656 52.941406 145.515625 52.941406 143.722656 C 52.941406 141.929688 51.484375 140.472656 49.695312 140.472656 M 49.695312 149.824219 C 46.332031 149.824219 43.597656 147.085938 43.597656 143.722656 C 43.597656 140.359375 46.332031 137.625 49.695312 137.625 C 53.058594 137.625 55.792969 140.359375 55.792969 143.722656 C 55.792969 147.085938 53.058594 149.824219 49.695312 149.824219 "/>
</clipPath>
<clipPath id="clip-30">
<path clip-rule="nonzero" d="M 52 127 L 62 127 L 62 137 L 52 137 Z M 52 127 "/>
</clipPath>
<clipPath id="clip-31">
<path clip-rule="evenodd" d="M 57.394531 130.84375 C 56.511719 130.84375 55.792969 131.5625 55.792969 132.449219 C 55.792969 133.332031 56.511719 134.050781 57.394531 134.050781 C 58.277344 134.050781 58.996094 133.332031 58.996094 132.449219 C 58.996094 131.5625 58.277344 130.84375 57.394531 130.84375 M 57.394531 136.898438 C 54.941406 136.898438 52.941406 134.902344 52.941406 132.449219 C 52.941406 129.992188 54.941406 127.996094 57.394531 127.996094 C 59.847656 127.996094 61.847656 129.992188 61.847656 132.449219 C 61.847656 134.902344 59.847656 136.898438 57.394531 136.898438 "/>
</clipPath>
<clipPath id="clip-32">
<path clip-rule="nonzero" d="M 38 133 L 46 133 L 46 140 L 38 140 Z M 38 133 "/>
</clipPath>
<clipPath id="clip-33">
<path clip-rule="evenodd" d="M 40.382812 139.957031 C 39.597656 139.957031 38.957031 139.316406 38.957031 138.53125 C 38.957031 135.746094 41.226562 133.476562 44.011719 133.476562 C 44.800781 133.476562 45.4375 134.117188 45.4375 134.902344 C 45.4375 135.691406 44.800781 136.328125 44.011719 136.328125 C 42.796875 136.328125 41.808594 137.316406 41.808594 138.53125 C 41.808594 139.316406 41.171875 139.957031 40.382812 139.957031 "/>
</clipPath>
<clipPath id="clip-34">
<path clip-rule="nonzero" d="M 4.460938 190.722656 L 102.589844 190.722656 L 102.589844 276.820312 L 4.460938 276.820312 Z M 4.460938 190.722656 "/>
</clipPath>
<clipPath id="clip-35">
<path clip-rule="nonzero" d="M 102.589844 190.722656 L 151.957031 190.722656 L 151.957031 276.820312 L 102.589844 276.820312 Z M 102.589844 190.722656 "/>
</clipPath>
<clipPath id="clip-36">
<path clip-rule="nonzero" d="M 102 190 L 163 190 L 163 210 L 102 210 Z M 102 190 "/>
</clipPath>
<clipPath id="clip-37">
<path clip-rule="evenodd" d="M 162.75 209.929688 L 113.378906 209.929688 L 102.589844 190.722656 L 151.957031 190.722656 Z M 162.75 209.929688 "/>
</clipPath>
<clipPath id="clip-38">
<path clip-rule="nonzero" d="M 193 77 L 206 77 L 206 91 L 193 91 Z M 193 77 "/>
</clipPath>
<clipPath id="clip-39">
<path clip-rule="evenodd" d="M 205.925781 77.5 C 202.089844 81.875 198.234375 87.328125 196.234375 90.25 L 193.445312 82.175781 C 198.078125 81.367188 202.417969 79.46875 205.925781 77.5 "/>
</clipPath>
<clipPath id="clip-40">
<path clip-rule="nonzero" d="M 171 49 L 174 49 L 174 54 L 171 54 Z M 171 49 "/>
</clipPath>
<clipPath id="clip-41">
<path clip-rule="evenodd" d="M 173.722656 51.414062 C 173.722656 52.316406 173.152344 53.050781 172.449219 53.050781 C 171.746094 53.050781 171.175781 52.316406 171.175781 51.414062 C 171.175781 50.507812 171.746094 49.773438 172.449219 49.773438 C 173.152344 49.773438 173.722656 50.507812 173.722656 51.414062 "/>
</clipPath>
<clipPath id="clip-42">
<path clip-rule="nonzero" d="M 169 46 L 177 46 L 177 49 L 169 49 Z M 169 46 "/>
</clipPath>
<clipPath id="clip-43">
<path clip-rule="evenodd" d="M 175.691406 48.722656 C 175.511719 48.722656 175.328125 48.652344 175.1875 48.511719 C 173.875 47.199219 171.023438 48.625 170.996094 48.640625 C 170.644531 48.820312 170.21875 48.6875 170.035156 48.339844 C 169.855469 47.992188 169.988281 47.5625 170.335938 47.378906 C 170.492188 47.296875 174.125 45.433594 176.195312 47.507812 C 176.472656 47.785156 176.472656 48.234375 176.195312 48.511719 C 176.058594 48.652344 175.875 48.722656 175.691406 48.722656 "/>
</clipPath>
<clipPath id="clip-44">
<path clip-rule="nonzero" d="M 167 39 L 179 39 L 179 45 L 167 45 Z M 167 39 "/>
</clipPath>
<clipPath id="clip-45">
<path clip-rule="evenodd" d="M 169.050781 44.398438 C 168.695312 44.398438 168.339844 44.269531 168.066406 44.003906 C 167.496094 43.457031 167.476562 42.558594 168.023438 41.988281 C 168.171875 41.832031 171.785156 38.164062 177.488281 40.601562 C 178.210938 40.910156 178.546875 41.746094 178.238281 42.472656 C 177.929688 43.195312 177.085938 43.527344 176.371094 43.222656 C 172.453125 41.554688 170.101562 43.9375 170.078125 43.960938 C 169.800781 44.253906 169.425781 44.398438 169.050781 44.398438 "/>
</clipPath>
<clipPath id="clip-46">
<path clip-rule="nonzero" d="M 172 68 L 181 68 L 181 76 L 172 76 Z M 172 68 "/>
</clipPath>
<clipPath id="clip-47">
<path clip-rule="evenodd" d="M 172.214844 74.699219 C 174.058594 73.878906 176.523438 72.214844 179.085938 68.875 C 179.265625 68.628906 179.625 68.585938 179.875 68.761719 C 180.121094 68.953125 180.164062 69.3125 179.972656 69.550781 C 177.410156 72.925781 174.902344 74.6875 172.949219 75.621094 Z M 172.214844 74.699219 "/>
</clipPath>
<clipPath id="clip-48">
<path clip-rule="nonzero" d="M 167 62 L 170 62 L 170 66 L 167 66 Z M 167 62 "/>
</clipPath>
<clipPath id="clip-49">
<path clip-rule="evenodd" d="M 167.777344 65.152344 C 167.652344 65.152344 167.527344 65.121094 167.414062 65.054688 C 167.074219 64.851562 166.964844 64.414062 167.167969 64.074219 L 167.753906 63.09375 C 167.957031 62.753906 168.394531 62.644531 168.730469 62.847656 C 169.070312 63.046875 169.179688 63.484375 168.976562 63.824219 L 168.390625 64.808594 C 168.257812 65.03125 168.019531 65.152344 167.777344 65.152344 "/>
</clipPath>
<clipPath id="clip-50">
<path clip-rule="nonzero" d="M 157 86 L 271 86 L 271 240 L 157 240 Z M 157 86 "/>
</clipPath>
<clipPath id="clip-51">
<path clip-rule="evenodd" d="M 268.652344 227.847656 C 268.652344 232.546875 227.894531 239.148438 227.894531 239.148438 L 179.523438 239.148438 L 177.332031 166.457031 L 157.25 160.140625 L 171.394531 123.945312 C 174.015625 117.246094 178.277344 111.308594 183.785156 106.6875 L 198.167969 95.871094 L 198.289062 95.839844 C 201.394531 97.367188 204.890625 98.230469 208.589844 98.230469 C 217.203125 98.230469 224.722656 93.554688 228.738281 86.59375 L 245.859375 95.152344 C 255.035156 99.738281 261.558594 108.328125 263.503906 118.402344 L 270.023438 151.976562 L 264.917969 156.375 L 264.917969 214.210938 C 264.917969 214.210938 267.808594 216.898438 267.449219 222.914062 C 267.449219 222.914062 268.652344 223.160156 268.652344 227.847656 "/>
</clipPath>
<clipPath id="clip-52">
<path clip-rule="nonzero" d="M 177 137 L 181 137 L 181 174 L 177 174 Z M 177 137 "/>
</clipPath>
<clipPath id="clip-53">
<path clip-rule="evenodd" d="M 179.53125 173.132812 C 179.148438 173.132812 178.832031 172.828125 178.816406 172.441406 L 177.667969 138.140625 C 177.652344 137.746094 177.960938 137.417969 178.355469 137.40625 C 178.363281 137.402344 178.371094 137.402344 178.378906 137.402344 C 178.761719 137.402344 179.078125 137.707031 179.089844 138.09375 L 180.242188 172.394531 C 180.253906 172.789062 179.945312 173.117188 179.554688 173.128906 C 179.542969 173.132812 179.535156 173.132812 179.53125 173.132812 "/>
</clipPath>
<clipPath id="clip-54">
<path clip-rule="nonzero" d="M 152 168 L 240 168 L 240 201 L 152 201 Z M 152 168 "/>
</clipPath>
<clipPath id="clip-55">
<path clip-rule="evenodd" d="M 239.84375 200.570312 L 152.085938 200.570312 L 152.085938 172.753906 C 152.085938 170.582031 153.84375 168.824219 156.011719 168.824219 L 235.914062 168.824219 C 238.082031 168.824219 239.84375 170.582031 239.84375 172.753906 Z M 239.84375 200.570312 "/>
</clipPath>
<clipPath id="clip-56">
<path clip-rule="nonzero" d="M 158 172 L 232 172 L 232 179 L 158 179 Z M 158 172 "/>
</clipPath>
<clipPath id="clip-57">
<path clip-rule="evenodd" d="M 199.171875 178.378906 C 194.535156 178.378906 189.8125 178.007812 185.242188 177.648438 C 176.511719 176.960938 167.484375 176.253906 158.859375 178.140625 C 158.660156 178.183594 158.476562 178.058594 158.4375 177.867188 C 158.394531 177.675781 158.515625 177.484375 158.707031 177.445312 C 167.4375 175.539062 176.515625 176.25 185.296875 176.9375 C 189.945312 177.300781 194.730469 177.671875 199.457031 177.664062 C 208.632812 177.632812 218.644531 176.128906 230.953125 172.921875 C 231.152344 172.867188 231.339844 172.988281 231.390625 173.175781 C 231.4375 173.367188 231.324219 173.558594 231.136719 173.609375 C 218.761719 176.832031 208.699219 178.347656 199.460938 178.375 C 199.363281 178.375 199.269531 178.378906 199.171875 178.378906 "/>
</clipPath>
<clipPath id="clip-58">
<path clip-rule="nonzero" d="M 134.773438 181.851562 L 244.691406 181.851562 L 244.691406 260.253906 L 134.773438 260.253906 Z M 134.773438 181.851562 "/>
</clipPath>
<clipPath id="clip-59">
<path clip-rule="nonzero" d="M 199.234375 181.851562 L 244.691406 181.851562 L 244.691406 260.253906 L 199.234375 260.253906 Z M 199.234375 181.851562 "/>
</clipPath>
<clipPath id="clip-60">
<path clip-rule="nonzero" d="M 123 161 L 200 161 L 200 182 L 123 182 Z M 123 161 "/>
</clipPath>
<clipPath id="clip-61">
<path clip-rule="evenodd" d="M 123.339844 161.53125 L 187.796875 161.53125 L 199.238281 181.851562 L 134.777344 181.851562 Z M 123.339844 161.53125 "/>
</clipPath>
<clipPath id="clip-62">
<path clip-rule="nonzero" d="M 244 181 L 256 181 L 256 200 L 244 200 Z M 244 181 "/>
</clipPath>
<clipPath id="clip-63">
<path clip-rule="evenodd" d="M 255.53125 199.738281 L 244.691406 199.738281 L 244.691406 181.851562 Z M 255.53125 199.738281 "/>
</clipPath>
<clipPath id="clip-64">
<path clip-rule="nonzero" d="M 144 196 L 188 196 L 188 240 L 144 240 Z M 144 196 "/>
</clipPath>
<clipPath id="clip-65">
<path clip-rule="evenodd" d="M 183.015625 230.757812 L 162.140625 239.054688 C 158.652344 240.441406 154.699219 238.738281 153.3125 235.25 L 145.019531 214.375 C 143.632812 210.886719 145.335938 206.933594 148.824219 205.546875 L 169.695312 197.25 C 173.1875 195.863281 177.136719 197.570312 178.523438 201.058594 L 186.820312 221.929688 C 188.207031 225.421875 186.503906 229.371094 183.015625 230.757812 "/>
</clipPath>
<clipPath id="clip-66">
<path clip-rule="nonzero" d="M 150 205 L 179 205 L 179 232 L 150 232 Z M 150 205 "/>
</clipPath>
<clipPath id="clip-67">
<path clip-rule="evenodd" d="M 158.945312 217.859375 L 158.964844 217.859375 C 159.542969 217.871094 160.058594 218.222656 160.269531 218.761719 L 163.867188 227.816406 L 174.042969 223.769531 L 170.445312 214.714844 C 170.195312 214.089844 170.421875 213.371094 170.984375 213 C 171.542969 212.632812 171.625 212.585938 173.960938 213.585938 L 175.476562 210.070312 L 171.039062 208.15625 C 170.347656 207.859375 169.585938 207.847656 168.890625 208.125 L 167.253906 208.773438 C 167.039062 210.699219 165.777344 212.40625 163.925781 213.140625 C 162.078125 213.875 159.984375 213.5 158.511719 212.25 L 156.875 212.898438 C 156.1875 213.171875 155.625 213.71875 155.335938 214.394531 L 153.421875 218.835938 L 156.933594 220.351562 L 157.636719 218.722656 C 157.863281 218.199219 158.375 217.859375 158.945312 217.859375 M 163.070312 231.089844 C 162.503906 231.089844 161.96875 230.75 161.746094 230.191406 L 158.882812 222.984375 C 158.515625 223.566406 157.769531 223.8125 157.113281 223.53125 L 150.984375 220.886719 C 150.636719 220.738281 150.363281 220.457031 150.222656 220.105469 C 150.085938 219.753906 150.089844 219.363281 150.242188 219.015625 L 152.71875 213.269531 C 153.308594 211.902344 154.4375 210.800781 155.824219 210.253906 L 158.34375 209.25 C 158.933594 209.015625 159.613281 209.199219 160 209.707031 C 160.667969 210.574219 161.851562 210.898438 162.875 210.496094 C 163.898438 210.085938 164.535156 209.039062 164.425781 207.945312 C 164.359375 207.3125 164.726562 206.714844 165.316406 206.476562 L 167.835938 205.476562 C 169.242188 204.917969 170.785156 204.941406 172.164062 205.539062 L 177.910156 208.015625 C 178.257812 208.167969 178.53125 208.445312 178.671875 208.800781 C 178.8125 209.148438 178.804688 209.542969 178.65625 209.890625 L 176.011719 216.019531 C 175.863281 216.367188 175.582031 216.640625 175.230469 216.777344 C 174.949219 216.890625 174.640625 216.910156 174.355469 216.835938 L 177.21875 224.042969 C 177.359375 224.394531 177.351562 224.785156 177.203125 225.132812 C 177.054688 225.480469 176.773438 225.753906 176.417969 225.894531 L 163.597656 230.988281 C 163.421875 231.058594 163.246094 231.089844 163.070312 231.089844 "/>
</clipPath>
<clipPath id="clip-68">
<path clip-rule="nonzero" d="M 190 181 L 256 181 L 256 261 L 190 261 Z M 190 181 "/>
</clipPath>
<clipPath id="clip-69">
<path clip-rule="evenodd" d="M 255.53125 199.738281 L 244.691406 199.738281 L 244.691406 229.386719 L 229.660156 247.769531 L 220.855469 260.253906 L 195.578125 260.253906 L 199.234375 256.980469 L 200.054688 256.25 L 203.167969 253.472656 L 203.472656 253.203125 L 203.84375 252.867188 L 201.246094 253.652344 L 199.234375 254.257812 L 196.792969 255 C 195.230469 255.472656 193.566406 255.394531 192.0625 254.777344 L 191.65625 254.621094 C 190.800781 254.269531 190.261719 253.4375 190.261719 252.5625 C 190.261719 252.359375 190.296875 252.144531 190.351562 251.941406 C 190.601562 251.109375 191.183594 250.4375 191.972656 250.066406 L 199.234375 246.714844 L 201.257812 245.78125 C 210.265625 238.148438 214.773438 238.730469 214.773438 238.730469 L 214.898438 238.800781 L 236.597656 200.570312 L 239.847656 194.847656 L 240.914062 192.96875 L 240.488281 181.851562 L 244.691406 181.851562 Z M 255.53125 199.738281 "/>
</clipPath>
<clipPath id="clip-70">
<path clip-rule="nonzero" d="M 236 150 L 265 150 L 265 171 L 236 171 Z M 236 150 "/>
</clipPath>
<clipPath id="clip-71">
<path clip-rule="evenodd" d="M 264.816406 150.628906 L 264.628906 153.269531 C 257.332031 156.273438 242.242188 166.898438 236.6875 170.886719 L 236.238281 159.136719 C 244.625 157.734375 258.363281 154.902344 264.816406 150.628906 "/>
</clipPath>
<clipPath id="clip-72">
<path clip-rule="nonzero" d="M 38 218 L 70 218 L 70 254 L 38 254 Z M 38 218 "/>
</clipPath>
<clipPath id="clip-73">
<path clip-rule="evenodd" d="M 41.605469 243.542969 L 54.367188 250.90625 L 67.128906 243.542969 L 67.128906 228.804688 L 54.367188 221.4375 L 41.605469 228.804688 Z M 54.367188 253.976562 C 54.121094 253.976562 53.875 253.914062 53.65625 253.789062 L 39.46875 245.597656 C 39.027344 245.34375 38.757812 244.871094 38.757812 244.363281 L 38.757812 227.984375 C 38.757812 227.472656 39.027344 227.003906 39.46875 226.75 L 53.65625 218.558594 C 54.09375 218.304688 54.640625 218.304688 55.078125 218.558594 L 69.265625 226.75 C 69.707031 227.003906 69.976562 227.472656 69.976562 227.984375 L 69.976562 244.363281 C 69.976562 244.871094 69.707031 245.34375 69.265625 245.597656 L 55.078125 253.789062 C 54.859375 253.914062 54.613281 253.976562 54.367188 253.976562 Z M 54.367188 253.976562 "/>
</clipPath>
<clipPath id="clip-74">
<path clip-rule="nonzero" d="M 38 226 L 56 226 L 56 254 L 38 254 Z M 38 226 "/>
</clipPath>
<clipPath id="clip-75">
<path clip-rule="evenodd" d="M 54.367188 253.976562 C 53.582031 253.976562 52.941406 253.339844 52.941406 252.554688 L 52.941406 236.996094 L 39.46875 229.21875 C 38.789062 228.824219 38.554688 227.953125 38.949219 227.273438 C 39.34375 226.589844 40.214844 226.355469 40.894531 226.75 L 55.078125 234.9375 C 55.519531 235.195312 55.792969 235.664062 55.792969 236.171875 L 55.792969 252.554688 C 55.792969 253.339844 55.152344 253.976562 54.367188 253.976562 "/>
</clipPath>
<clipPath id="clip-76">
<path clip-rule="nonzero" d="M 60 141 L 82 141 L 82 163 L 60 163 Z M 60 141 "/>
</clipPath>
<clipPath id="clip-77">
<path clip-rule="evenodd" d="M 77.382812 162.871094 L 64.363281 162.871094 C 62.1875 162.871094 60.421875 161.109375 60.421875 158.933594 L 60.421875 145.910156 C 60.421875 143.734375 62.1875 141.972656 64.363281 141.972656 L 77.382812 141.972656 C 79.558594 141.972656 81.324219 143.734375 81.324219 145.910156 L 81.324219 158.933594 C 81.324219 161.109375 79.558594 162.871094 77.382812 162.871094 "/>
</clipPath>
<clipPath id="clip-78">
<path clip-rule="nonzero" d="M 67 144 L 74 144 L 74 154 L 67 154 Z M 67 144 "/>
</clipPath>
<clipPath id="clip-79">
<path clip-rule="evenodd" d="M 70.871094 146.089844 C 70.796875 146.089844 70.722656 146.097656 70.652344 146.105469 C 70.140625 146.164062 69.710938 146.476562 69.464844 146.957031 C 69.195312 147.496094 69.210938 148.121094 69.507812 148.636719 L 70.871094 150.996094 L 72.234375 148.636719 C 72.53125 148.121094 72.550781 147.496094 72.28125 146.957031 C 72.035156 146.476562 71.601562 146.164062 71.089844 146.105469 C 71.023438 146.097656 70.949219 146.089844 70.871094 146.089844 Z M 70.871094 153.847656 L 68.277344 149.347656 C 67.738281 148.417969 67.707031 147.285156 68.191406 146.320312 C 68.65625 145.398438 69.492188 144.804688 70.488281 144.691406 C 70.746094 144.660156 71 144.660156 71.253906 144.6875 C 72.253906 144.804688 73.089844 145.398438 73.550781 146.320312 C 74.039062 147.285156 74.007812 148.417969 73.46875 149.347656 Z M 70.871094 153.847656 "/>
</clipPath>
<clipPath id="clip-80">
<path clip-rule="nonzero" d="M 67 150 L 74 150 L 74 161 L 67 161 Z M 67 150 "/>
</clipPath>
<clipPath id="clip-81">
<path clip-rule="evenodd" d="M 70.871094 153.847656 L 69.507812 156.210938 C 69.210938 156.722656 69.195312 157.347656 69.464844 157.886719 C 69.710938 158.367188 70.140625 158.679688 70.65625 158.738281 C 70.800781 158.757812 70.945312 158.757812 71.089844 158.738281 C 71.601562 158.679688 72.035156 158.367188 72.28125 157.886719 C 72.550781 157.347656 72.53125 156.722656 72.234375 156.210938 Z M 70.871094 160.175781 C 70.742188 160.175781 70.613281 160.171875 70.488281 160.15625 C 69.492188 160.039062 68.65625 159.445312 68.191406 158.523438 C 67.707031 157.558594 67.738281 156.425781 68.277344 155.496094 L 70.871094 150.996094 L 73.46875 155.496094 C 74.007812 156.425781 74.039062 157.558594 73.550781 158.523438 C 73.089844 159.445312 72.253906 160.039062 71.253906 160.15625 C 71.132812 160.171875 71.003906 160.175781 70.871094 160.175781 Z M 70.871094 160.175781 "/>
</clipPath>
<clipPath id="clip-82">
<path clip-rule="nonzero" d="M 63 147 L 73 147 L 73 154 L 63 154 Z M 63 147 "/>
</clipPath>
<clipPath id="clip-83">
<path clip-rule="evenodd" d="M 66.738281 148.476562 C 66.238281 148.476562 65.792969 148.691406 65.503906 149.082031 C 65.464844 149.136719 65.425781 149.199219 65.386719 149.261719 C 65.347656 149.332031 65.316406 149.394531 65.289062 149.460938 C 65.085938 149.933594 65.136719 150.464844 65.433594 150.914062 C 65.765625 151.417969 66.316406 151.714844 66.910156 151.714844 L 69.636719 151.710938 L 68.269531 149.351562 C 67.972656 148.839844 67.4375 148.511719 66.839844 148.476562 C 66.804688 148.476562 66.769531 148.476562 66.738281 148.476562 Z M 66.910156 153.140625 C 65.835938 153.140625 64.839844 152.601562 64.246094 151.699219 C 63.679688 150.839844 63.582031 149.820312 63.980469 148.898438 C 64.027344 148.78125 64.085938 148.664062 64.152344 148.550781 C 64.214844 148.445312 64.28125 148.339844 64.359375 148.238281 C 64.960938 147.425781 65.855469 147.003906 66.917969 147.054688 C 67.996094 147.117188 68.964844 147.707031 69.503906 148.636719 L 72.109375 153.132812 L 66.914062 153.140625 Z M 66.910156 153.140625 "/>
</clipPath>
<clipPath id="clip-84">
<path clip-rule="nonzero" d="M 69 151 L 79 151 L 79 158 L 69 158 Z M 69 151 "/>
</clipPath>
<clipPath id="clip-85">
<path clip-rule="evenodd" d="M 72.109375 153.132812 L 73.472656 155.492188 C 73.773438 156.003906 74.308594 156.332031 74.90625 156.367188 C 75.4375 156.394531 75.929688 156.175781 76.238281 155.761719 C 76.277344 155.707031 76.320312 155.648438 76.355469 155.582031 C 76.398438 155.515625 76.429688 155.449219 76.457031 155.386719 C 76.660156 154.910156 76.609375 154.378906 76.308594 153.929688 C 75.980469 153.425781 75.429688 153.128906 74.839844 153.128906 L 74.835938 153.128906 Z M 75.011719 157.792969 C 74.949219 157.792969 74.886719 157.792969 74.828125 157.789062 C 73.746094 157.726562 72.78125 157.136719 72.242188 156.207031 L 69.636719 151.710938 L 74.832031 151.703125 L 74.839844 151.703125 C 75.910156 151.703125 76.902344 152.242188 77.5 153.144531 C 78.066406 154.003906 78.164062 155.023438 77.765625 155.945312 C 77.714844 156.0625 77.65625 156.179688 77.589844 156.292969 C 77.53125 156.398438 77.460938 156.503906 77.386719 156.605469 C 76.820312 157.367188 75.964844 157.792969 75.011719 157.792969 Z M 75.011719 157.792969 "/>
</clipPath>
<clipPath id="clip-86">
<path clip-rule="nonzero" d="M 63 151 L 73 151 L 73 158 L 63 158 Z M 63 151 "/>
</clipPath>
<clipPath id="clip-87">
<path clip-rule="evenodd" d="M 69.640625 153.140625 L 66.914062 153.144531 C 66.320312 153.148438 65.769531 153.449219 65.441406 153.949219 C 65.144531 154.402344 65.09375 154.933594 65.296875 155.40625 C 65.328125 155.476562 65.359375 155.542969 65.398438 155.605469 C 65.433594 155.667969 65.476562 155.730469 65.519531 155.789062 C 65.824219 156.199219 66.3125 156.410156 66.851562 156.382812 C 67.449219 156.347656 67.984375 156.019531 68.277344 155.507812 L 68.277344 155.503906 Z M 66.738281 157.8125 C 65.789062 157.8125 64.9375 157.390625 64.375 156.636719 C 64.296875 156.53125 64.226562 156.425781 64.164062 156.316406 C 64.097656 156.199219 64.039062 156.085938 63.988281 155.96875 C 63.589844 155.050781 63.683594 154.03125 64.246094 153.171875 C 64.839844 152.265625 65.835938 151.722656 66.910156 151.722656 L 72.105469 151.714844 L 69.515625 156.214844 C 68.980469 157.148438 68.015625 157.742188 66.933594 157.804688 C 66.871094 157.808594 66.804688 157.8125 66.738281 157.8125 Z M 66.738281 157.8125 "/>
</clipPath>
<clipPath id="clip-88">
<path clip-rule="nonzero" d="M 69 147 L 78 147 L 78 154 L 69 154 Z M 69 147 "/>
</clipPath>
<clipPath id="clip-89">
<path clip-rule="evenodd" d="M 75 148.46875 C 74.964844 148.46875 74.929688 148.46875 74.894531 148.472656 C 74.296875 148.507812 73.761719 148.835938 73.464844 149.347656 L 73.464844 149.351562 L 72.105469 151.714844 L 74.832031 151.707031 C 75.425781 151.707031 75.976562 151.40625 76.304688 150.90625 C 76.601562 150.453125 76.652344 149.921875 76.445312 149.449219 C 76.417969 149.378906 76.382812 149.3125 76.347656 149.246094 C 76.316406 149.195312 76.273438 149.132812 76.230469 149.074219 C 75.941406 148.683594 75.496094 148.46875 75 148.46875 Z M 69.640625 153.140625 L 72.230469 148.640625 C 72.765625 147.707031 73.730469 147.113281 74.8125 147.050781 C 75.824219 146.980469 76.773438 147.414062 77.371094 148.21875 C 77.445312 148.316406 77.515625 148.421875 77.582031 148.535156 C 77.648438 148.65625 77.707031 148.769531 77.757812 148.886719 C 78.15625 149.804688 78.058594 150.824219 77.496094 151.6875 C 76.902344 152.589844 75.910156 153.132812 74.835938 153.132812 Z M 69.640625 153.140625 "/>
</clipPath>
<clipPath id="clip-90">
<path clip-rule="nonzero" d="M 52 226 L 70 226 L 70 238 L 52 238 Z M 52 226 "/>
</clipPath>
<clipPath id="clip-91">
<path clip-rule="evenodd" d="M 54.367188 237.597656 C 53.875 237.597656 53.398438 237.34375 53.132812 236.886719 C 52.738281 236.203125 52.972656 235.332031 53.65625 234.9375 L 67.839844 226.75 C 68.519531 226.355469 69.394531 226.589844 69.789062 227.273438 C 70.179688 227.953125 69.949219 228.824219 69.265625 229.21875 L 55.078125 237.40625 C 54.855469 237.535156 54.609375 237.597656 54.367188 237.597656 "/>
</clipPath>
<clipPath id="clip-92">
<path clip-rule="nonzero" d="M 130 217 L 132 217 L 132 219 L 130 219 Z M 130 217 "/>
</clipPath>
<clipPath id="clip-93">
<path clip-rule="evenodd" d="M 131.007812 218.425781 L 130.234375 217.988281 C 130.277344 217.941406 130.324219 217.898438 130.378906 217.863281 C 130.546875 218.066406 130.773438 218.257812 131.007812 218.425781 "/>
</clipPath>
<clipPath id="clip-94">
<path clip-rule="nonzero" d="M 130 212 L 132 212 L 132 213 L 130 213 Z M 130 212 "/>
</clipPath>
<clipPath id="clip-95">
<path clip-rule="evenodd" d="M 131.078125 212.894531 C 131.054688 212.859375 131.03125 212.816406 131.007812 212.78125 C 130.941406 212.648438 130.875 212.5 130.816406 212.355469 C 130.828125 212.34375 130.839844 212.34375 130.851562 212.332031 C 130.90625 212.523438 130.984375 212.714844 131.078125 212.894531 "/>
</clipPath>
<clipPath id="clip-96">
<path clip-rule="nonzero" d="M 134 206 L 150 206 L 150 236 L 134 236 Z M 134 206 "/>
</clipPath>
<clipPath id="clip-97">
<path clip-rule="evenodd" d="M 149.121094 222.597656 C 149.121094 223.011719 149 223.429688 148.761719 223.800781 C 148.730469 223.855469 148.695312 223.914062 148.648438 223.96875 C 148.15625 224.585938 147.390625 224.890625 146.613281 224.789062 L 143.296875 224.339844 C 142.085938 224.183594 140.902344 223.835938 139.800781 223.304688 L 139.9375 223.453125 C 139.945312 223.453125 139.945312 223.464844 139.957031 223.464844 L 142.589844 226.160156 L 145.300781 228.9375 C 145.671875 229.308594 145.859375 229.816406 145.859375 230.308594 C 145.859375 230.636719 145.78125 230.972656 145.613281 231.265625 C 145.132812 232.132812 144.085938 232.503906 143.164062 232.144531 L 142.332031 231.804688 C 141.421875 231.445312 140.542969 230.996094 139.734375 230.445312 C 139.757812 230.46875 139.765625 230.5 139.777344 230.535156 C 139.992188 231.042969 140.148438 231.582031 140.238281 232.121094 C 140.308594 232.515625 140.339844 232.90625 140.339844 233.300781 L 140.339844 233.570312 C 140.339844 234.910156 138.8125 235.683594 137.730469 234.875 L 134.773438 232.671875 L 134.773438 206.585938 C 135.054688 206.574219 135.324219 206.597656 135.605469 206.65625 L 139.453125 207.441406 C 141.722656 207.902344 143.792969 209.046875 145.390625 210.722656 C 145.972656 211.34375 146.253906 212.117188 146.253906 212.882812 C 146.253906 213.894531 145.769531 214.882812 144.859375 215.492188 C 144.613281 215.648438 144.355469 215.773438 144.085938 215.863281 L 144.074219 215.863281 C 143.757812 215.964844 143.433594 216.019531 143.105469 216.019531 C 142.972656 216.019531 142.824219 216.019531 142.691406 215.996094 L 141.769531 215.875 L 143.804688 216.953125 L 143.925781 217.019531 C 145.109375 217.640625 146.164062 218.449219 147.054688 219.425781 C 147.144531 219.515625 147.222656 219.59375 147.300781 219.683594 L 148.570312 221.125 C 148.941406 221.539062 149.121094 222.070312 149.121094 222.597656 "/>
</clipPath>
<clipPath id="clip-98">
<path clip-rule="nonzero" d="M 130 223 L 132 223 L 132 225 L 130 225 Z M 130 223 "/>
</clipPath>
<clipPath id="clip-99">
<path clip-rule="evenodd" d="M 131.335938 223.933594 C 130.976562 224.09375 130.636719 224.316406 130.355469 224.597656 C 130.164062 224.394531 130.132812 224.070312 130.3125 223.84375 C 130.503906 223.609375 130.863281 223.5625 131.097656 223.753906 Z M 131.335938 223.933594 "/>
</clipPath>
<clipPath id="clip-100">
<path clip-rule="nonzero" d="M 127 220 L 139 220 L 139 233 L 127 233 Z M 127 220 "/>
</clipPath>
<clipPath id="clip-101">
<path clip-rule="evenodd" d="M 138.261719 230.558594 L 138.261719 230.828125 C 138.261719 232.164062 136.730469 232.941406 135.652344 232.132812 L 128.625 226.902344 C 127.769531 226.261719 127.285156 225.273438 127.285156 224.226562 C 127.285156 223.980469 127.308594 223.734375 127.367188 223.484375 C 127.523438 222.820312 127.847656 222.269531 128.277344 221.855469 C 128.558594 221.574219 128.894531 221.347656 129.253906 221.191406 C 129.265625 221.191406 129.277344 221.179688 129.300781 221.167969 L 129.3125 221.167969 C 130.546875 220.640625 132.085938 220.855469 133.121094 222.023438 L 136.472656 225.824219 C 136.96875 226.386719 137.359375 227.027344 137.652344 227.703125 C 137.675781 227.726562 137.6875 227.757812 137.699219 227.792969 C 137.910156 228.296875 138.070312 228.839844 138.160156 229.375 C 138.226562 229.769531 138.261719 230.164062 138.261719 230.558594 "/>
</clipPath>
<clipPath id="clip-102">
<path clip-rule="nonzero" d="M 127 214 L 144 214 L 144 230 L 127 230 Z M 127 214 "/>
</clipPath>
<clipPath id="clip-103">
<path clip-rule="evenodd" d="M 143.78125 227.566406 C 143.78125 227.894531 143.703125 228.230469 143.535156 228.523438 C 143.050781 229.386719 142.003906 229.757812 141.082031 229.398438 L 140.25 229.0625 C 139.339844 228.703125 138.464844 228.253906 137.652344 227.703125 C 137.351562 227.5 137.046875 227.285156 136.753906 227.050781 L 129.3125 221.167969 L 129.300781 221.167969 L 129.03125 220.957031 C 127.804688 219.976562 127.152344 218.449219 127.308594 216.886719 C 127.332031 216.636719 127.398438 216.390625 127.5 216.167969 C 127.636719 215.816406 127.859375 215.492188 128.152344 215.242188 C 128.199219 215.199219 128.242188 215.152344 128.300781 215.121094 C 128.46875 214.984375 128.660156 214.882812 128.863281 214.792969 C 129.582031 214.492188 130.402344 214.535156 131.085938 214.917969 L 131.570312 215.1875 C 132.863281 215.917969 134.042969 216.816406 135.089844 217.875 L 137.722656 220.5625 L 137.855469 220.707031 C 137.867188 220.707031 137.867188 220.71875 137.878906 220.71875 L 140.507812 223.417969 L 143.21875 226.195312 C 143.589844 226.566406 143.78125 227.070312 143.78125 227.566406 "/>
</clipPath>
<clipPath id="clip-104">
<path clip-rule="nonzero" d="M 127 209 L 148 209 L 148 223 L 127 223 Z M 127 209 "/>
</clipPath>
<clipPath id="clip-105">
<path clip-rule="evenodd" d="M 147.042969 219.855469 C 147.042969 220.335938 146.886719 220.820312 146.570312 221.226562 C 146.074219 221.84375 145.308594 222.148438 144.535156 222.046875 L 141.21875 221.597656 C 140.003906 221.4375 138.824219 221.089844 137.722656 220.5625 C 137.472656 220.449219 137.226562 220.324219 136.988281 220.191406 L 132.582031 217.738281 L 132.222656 217.539062 L 129.253906 215.886719 C 129.1875 215.851562 129.121094 215.804688 129.050781 215.75 L 128.960938 215.707031 C 128.714844 215.535156 128.480469 215.335938 128.300781 215.121094 C 127.65625 214.421875 127.285156 213.511719 127.285156 212.546875 C 127.285156 211.804688 127.5 211.085938 127.882812 210.464844 C 127.9375 210.375 128.007812 210.273438 128.074219 210.183594 C 128.253906 209.949219 128.488281 209.757812 128.738281 209.609375 C 128.75 209.601562 128.761719 209.601562 128.769531 209.589844 C 129.210938 209.351562 129.726562 209.273438 130.234375 209.375 L 131.648438 209.679688 C 133.335938 210.027344 134.957031 210.625 136.472656 211.421875 L 138.734375 212.625 L 139.6875 213.128906 L 141.722656 214.210938 L 141.847656 214.277344 C 143.128906 214.953125 144.265625 215.851562 145.21875 216.941406 L 146.492188 218.382812 C 146.863281 218.796875 147.042969 219.324219 147.042969 219.855469 "/>
</clipPath>
<clipPath id="clip-106">
<path clip-rule="nonzero" d="M 128 203 L 145 203 L 145 214 L 128 214 Z M 128 203 "/>
</clipPath>
<clipPath id="clip-107">
<path clip-rule="evenodd" d="M 144.175781 210.140625 C 144.175781 211.152344 143.691406 212.140625 142.78125 212.746094 C 142.53125 212.90625 142.273438 213.03125 142.003906 213.121094 L 141.992188 213.121094 C 141.679688 213.21875 141.351562 213.277344 141.027344 213.277344 C 140.890625 213.277344 140.746094 213.277344 140.609375 213.253906 L 139.6875 213.128906 L 131.660156 212.039062 C 130.558594 211.9375 129.582031 211.273438 129.0625 210.296875 C 129.039062 210.25 129.019531 210.207031 128.996094 210.160156 L 128.996094 210.152344 C 128.90625 209.96875 128.828125 209.78125 128.769531 209.589844 C 128.34375 208.207031 128.691406 206.664062 129.738281 205.609375 L 130.503906 204.832031 C 131.289062 204.023438 132.425781 203.675781 133.527344 203.910156 L 137.371094 204.699219 C 139.644531 205.160156 141.714844 206.304688 143.308594 207.980469 C 143.894531 208.597656 144.175781 209.375 144.175781 210.140625 "/>
</clipPath>
<clipPath id="clip-108">
<path clip-rule="nonzero" d="M 128 220 L 139 220 L 139 230 L 128 230 Z M 128 220 "/>
</clipPath>
<clipPath id="clip-109">
<path clip-rule="evenodd" d="M 138.160156 229.378906 C 137.417969 228.984375 136.710938 228.523438 136.046875 227.996094 L 128.320312 221.898438 C 128.296875 221.890625 128.289062 221.867188 128.277344 221.855469 C 128.085938 221.652344 128.050781 221.328125 128.230469 221.101562 C 128.421875 220.867188 128.78125 220.820312 129.019531 221.011719 L 129.253906 221.191406 L 136.742188 227.105469 C 137.046875 227.351562 137.371094 227.578125 137.699219 227.792969 C 137.914062 228.296875 138.070312 228.835938 138.160156 229.378906 "/>
</clipPath>
<clipPath id="clip-110">
<path clip-rule="nonzero" d="M 127 215 L 141 215 L 141 224 L 127 224 Z M 127 215 "/>
</clipPath>
<clipPath id="clip-111">
<path clip-rule="evenodd" d="M 140.507812 223.417969 C 139.417969 222.914062 138.226562 222.226562 137.316406 221.699219 C 137.023438 221.519531 136.753906 221.371094 136.539062 221.25 L 127.5 216.167969 C 127.636719 215.816406 127.859375 215.492188 128.152344 215.246094 L 128.929688 215.683594 L 129.050781 215.75 L 132.222656 217.539062 L 132.582031 217.738281 L 137.089844 220.269531 C 137.292969 220.394531 137.5625 220.539062 137.855469 220.707031 C 137.867188 220.707031 137.867188 220.71875 137.878906 220.71875 Z M 140.507812 223.417969 "/>
</clipPath>
<clipPath id="clip-112">
<path clip-rule="nonzero" d="M 127 209 L 142 209 L 142 215 L 127 215 Z M 127 209 "/>
</clipPath>
<clipPath id="clip-113">
<path clip-rule="evenodd" d="M 139.6875 213.128906 L 141.722656 214.210938 L 130.953125 212.601562 C 129.683594 212.476562 128.546875 211.714844 127.925781 210.566406 C 127.90625 210.535156 127.894531 210.5 127.882812 210.464844 C 127.941406 210.375 128.007812 210.273438 128.074219 210.183594 C 128.253906 209.949219 128.488281 209.757812 128.738281 209.613281 C 128.792969 209.757812 128.859375 209.902344 128.929688 210.039062 C 128.949219 210.074219 128.972656 210.117188 128.996094 210.152344 L 128.996094 210.164062 C 129.445312 210.90625 130.210938 211.386719 131.085938 211.476562 L 138.734375 212.625 L 141.992188 213.121094 C 141.679688 213.21875 141.351562 213.277344 141.027344 213.277344 C 140.890625 213.277344 140.746094 213.277344 140.609375 213.253906 Z M 139.6875 213.128906 "/>
</clipPath>
<clipPath id="clip-114">
<path clip-rule="nonzero" d="M 182 150 L 265 150 L 265 268 L 182 268 Z M 182 150 "/>
</clipPath>
<clipPath id="clip-115">
<path clip-rule="evenodd" d="M 264.816406 150.628906 L 264.628906 153.269531 L 262.132812 187.664062 C 261.523438 195.941406 258.613281 203.886719 253.699219 210.578125 L 226.152344 244.261719 L 211.769531 264.636719 C 210.726562 265.863281 209.105469 266.425781 207.519531 266.109375 L 206.867188 265.976562 L 206.859375 265.976562 L 204.890625 266.976562 L 204.878906 266.976562 L 204.003906 267.425781 C 203.035156 267.910156 201.910156 267.964844 200.898438 267.570312 L 199.910156 267.191406 L 199.898438 267.191406 L 196.683594 267.539062 C 196.601562 267.550781 196.515625 267.550781 196.421875 267.550781 C 195.21875 267.605469 194.050781 267.078125 193.296875 266.132812 L 192.601562 265.253906 L 190.070312 265.253906 C 188.484375 265.253906 186.96875 264.601562 185.878906 263.445312 L 182.851562 260.242188 L 188.160156 260.242188 L 196.546875 252.742188 L 199.660156 249.964844 L 199.964844 249.695312 L 200.335938 249.359375 L 197.738281 250.144531 L 193.285156 251.492188 C 191.722656 251.964844 190.058594 251.886719 188.554688 251.269531 L 188.148438 251.113281 C 187.292969 250.761719 186.753906 249.929688 186.753906 249.054688 C 186.753906 248.851562 186.789062 248.636719 186.84375 248.433594 C 187.089844 247.601562 187.675781 246.929688 188.464844 246.558594 L 197.75 242.273438 C 206.757812 234.640625 211.265625 235.222656 211.265625 235.222656 L 211.390625 235.292969 L 237.40625 189.460938 L 236.6875 170.886719 L 236.238281 159.136719 C 244.625 157.734375 258.363281 154.902344 264.816406 150.628906 "/>
</clipPath>
<clipPath id="clip-116">
<path clip-rule="nonzero" d="M 190 259 L 199 259 L 199 266 L 190 266 Z M 190 259 "/>
</clipPath>
<clipPath id="clip-117">
<path clip-rule="evenodd" d="M 198.097656 260.320312 L 192.601562 265.253906 L 190.914062 265.253906 L 197.347656 259.476562 C 197.570312 259.273438 197.929688 259.296875 198.132812 259.523438 C 198.347656 259.757812 198.324219 260.105469 198.097656 260.320312 "/>
</clipPath>
<clipPath id="clip-118">
<path clip-rule="nonzero" d="M 196 261 L 205 261 L 205 268 L 196 268 Z M 196 261 "/>
</clipPath>
<clipPath id="clip-119">
<path clip-rule="evenodd" d="M 203.992188 262.558594 L 202.574219 264.636719 C 201.867188 265.671875 200.964844 266.535156 199.910156 267.1875 L 199.898438 267.1875 L 196.683594 267.539062 C 196.601562 267.550781 196.511719 267.550781 196.421875 267.550781 L 198.289062 266.761719 C 199.652344 266.1875 200.808594 265.234375 201.640625 264.007812 L 203.058594 261.925781 C 203.238281 261.667969 203.585938 261.601562 203.84375 261.769531 C 204.101562 261.949219 204.160156 262.296875 203.992188 262.558594 "/>
</clipPath>
<clipPath id="clip-120">
<path clip-rule="nonzero" d="M 204 263 L 209 263 L 209 267 L 204 267 Z M 204 263 "/>
</clipPath>
<clipPath id="clip-121">
<path clip-rule="evenodd" d="M 208.195312 263.917969 L 206.867188 265.976562 L 206.859375 265.976562 L 204.890625 266.976562 L 207.25 263.308594 C 207.417969 263.050781 207.769531 262.972656 208.027344 263.140625 C 208.285156 263.308594 208.363281 263.660156 208.195312 263.917969 "/>
</clipPath>
<clipPath id="clip-122">
<path clip-rule="nonzero" d="M 197 245 L 204 245 L 204 251 L 197 251 Z M 197 245 "/>
</clipPath>
<clipPath id="clip-123">
<path clip-rule="evenodd" d="M 203.359375 246.726562 L 199.964844 249.695312 L 200.335938 249.355469 L 197.738281 250.144531 L 202.628906 245.882812 C 202.855469 245.679688 203.214844 245.703125 203.417969 245.9375 C 203.621094 246.164062 203.597656 246.523438 203.359375 246.726562 "/>
</clipPath>
<clipPath id="clip-124">
<path clip-rule="nonzero" d="M 155 2 L 230 2 L 230 53 L 155 53 Z M 155 2 "/>
</clipPath>
<clipPath id="clip-125">
<path clip-rule="evenodd" d="M 223.734375 52.144531 L 212.230469 42.96875 C 212.230469 42.96875 205.933594 44.09375 199.234375 44.039062 C 193.9375 43.980469 190.644531 38.347656 189.496094 35.988281 C 189.214844 35.402344 189.058594 35.019531 189.035156 34.976562 L 189.035156 34.964844 C 188.980469 35 188.933594 35.019531 188.878906 35.042969 C 186.753906 36.179688 184.484375 36.40625 182.257812 36.066406 C 182.121094 36.054688 181.988281 36.035156 181.851562 36.011719 C 180.34375 35.742188 178.859375 35.234375 177.457031 34.59375 C 176.828125 34.3125 176.207031 34 175.613281 33.671875 C 171.113281 31.199219 167.773438 27.8125 167.773438 27.8125 C 167.773438 27.8125 162.421875 27.171875 159.253906 35.886719 C 159.253906 35.886719 156.507812 33.03125 155.363281 30.308594 C 154.214844 27.589844 159.636719 14.738281 173.722656 10.105469 C 173.722656 10.105469 177.164062 1.851562 197.894531 3.132812 C 218.628906 4.417969 229.3125 14.625 226.746094 26.195312 C 226.746094 26.195312 233.964844 40.496094 223.734375 52.144531 "/>
</clipPath>
<clipPath id="clip-126">
<path clip-rule="nonzero" d="M 213 39 L 231 39 L 231 63 L 213 63 Z M 213 39 "/>
</clipPath>
<clipPath id="clip-127">
<path clip-rule="evenodd" d="M 213.636719 39.945312 C 213.636719 39.945312 212.296875 64.757812 224.683594 62.085938 C 237.070312 59.414062 224.089844 55.46875 224.089844 55.46875 C 224.089844 55.46875 231.46875 49.957031 226.507812 47.242188 C 221.542969 44.527344 213.636719 39.945312 213.636719 39.945312 "/>
</clipPath>
<clipPath id="clip-128">
<path clip-rule="nonzero" d="M 175 33 L 178 33 L 178 35 L 175 35 Z M 175 33 "/>
</clipPath>
<clipPath id="clip-129">
<path clip-rule="evenodd" d="M 176.015625 33.761719 C 176.105469 33.832031 176.625 34.179688 177.457031 34.59375 C 176.824219 34.3125 176.207031 34 175.613281 33.671875 C 175.746094 33.648438 175.894531 33.671875 176.015625 33.761719 "/>
</clipPath>
<clipPath id="clip-130">
<path clip-rule="nonzero" d="M 182 35 L 189 35 L 189 37 L 182 37 Z M 182 35 "/>
</clipPath>
<clipPath id="clip-131">
<path clip-rule="evenodd" d="M 188.878906 35.042969 C 186.753906 36.179688 184.484375 36.40625 182.257812 36.066406 C 184.234375 36.316406 186.519531 36.144531 188.878906 35.042969 "/>
</clipPath>
<clipPath id="clip-132">
<path clip-rule="nonzero" d="M 181 27 L 196 27 L 196 36 L 181 36 Z M 181 27 "/>
</clipPath>
<clipPath id="clip-133">
<path clip-rule="evenodd" d="M 195.199219 31.355469 C 193.34375 33.617188 191.398438 35.078125 189.5 35.988281 C 189.214844 35.402344 189.058594 35.019531 189.035156 34.976562 C 190.453125 34.277344 191.902344 33.257812 193.332031 31.773438 C 190.902344 31.984375 186.089844 31.882812 182.132812 28.511719 C 181.898438 28.308594 181.863281 27.960938 182.066406 27.722656 C 182.269531 27.476562 182.628906 27.453125 182.863281 27.65625 C 187.855469 31.917969 194.566406 30.46875 194.648438 30.457031 C 194.871094 30.398438 195.117188 30.5 195.242188 30.703125 C 195.367188 30.90625 195.355469 31.175781 195.199219 31.355469 "/>
</clipPath>
<clipPath id="clip-134">
<path clip-rule="nonzero" d="M 195 34 L 212 34 L 212 43 L 195 43 Z M 195 34 "/>
</clipPath>
<clipPath id="clip-135">
<path clip-rule="evenodd" d="M 207.011719 42.195312 C 197.335938 42.195312 195.664062 36.09375 195.589844 35.800781 C 195.492188 35.421875 195.726562 35.035156 196.105469 34.9375 C 196.488281 34.839844 196.875 35.070312 196.972656 35.449219 C 197.050781 35.746094 198.914062 42.15625 210.691406 40.496094 C 211.089844 40.433594 211.441406 40.710938 211.496094 41.101562 C 211.554688 41.492188 211.28125 41.851562 210.894531 41.90625 C 209.472656 42.105469 208.183594 42.195312 207.011719 42.195312 "/>
</clipPath>
<clipPath id="clip-136">
<path clip-rule="nonzero" d="M 201 32 L 216 32 L 216 50 L 201 50 Z M 201 32 "/>
</clipPath>
<clipPath id="clip-137">
<path clip-rule="evenodd" d="M 202.332031 45.441406 C 202.332031 45.441406 199.054688 30.421875 208.886719 32.609375 C 218.71875 34.792969 215.109375 49.300781 213.636719 49.828125 "/>
</clipPath>
<clipPath id="clip-138">
<path clip-rule="nonzero" d="M 206 38 L 210 38 L 210 47 L 206 47 Z M 206 38 "/>
</clipPath>
<clipPath id="clip-139">
<path clip-rule="evenodd" d="M 208.660156 46.699219 C 208.5625 46.699219 208.460938 46.679688 208.367188 46.636719 C 205.5625 45.363281 206.1875 39.46875 206.269531 38.800781 C 206.316406 38.410156 206.679688 38.136719 207.058594 38.179688 C 207.449219 38.226562 207.730469 38.582031 207.683594 38.972656 C 207.429688 41.097656 207.546875 44.703125 208.957031 45.339844 C 209.3125 45.5 209.472656 45.925781 209.308594 46.28125 C 209.191406 46.546875 208.933594 46.699219 208.660156 46.699219 "/>
</clipPath>
<clipPath id="clip-140">
<path clip-rule="nonzero" d="M 212 11 L 223 11 L 223 21 L 212 21 Z M 212 11 "/>
</clipPath>
<clipPath id="clip-141">
<path clip-rule="evenodd" d="M 221.816406 20.460938 C 221.566406 20.460938 221.328125 20.332031 221.195312 20.097656 C 218.011719 14.5 212.597656 13.085938 212.542969 13.070312 C 212.160156 12.972656 211.929688 12.589844 212.023438 12.207031 C 212.121094 11.824219 212.503906 11.59375 212.890625 11.6875 C 213.132812 11.75 218.949219 13.269531 222.433594 19.394531 C 222.628906 19.734375 222.511719 20.171875 222.167969 20.367188 C 222.058594 20.429688 221.9375 20.460938 221.816406 20.460938 "/>
</clipPath>
<clipPath id="clip-142">
<path clip-rule="nonzero" d="M 232 132 L 268 132 L 268 160 L 232 160 Z M 232 132 "/>
</clipPath>
<clipPath id="clip-143">
<path clip-rule="evenodd" d="M 236.238281 159.851562 C 236.078125 159.851562 235.921875 159.796875 235.796875 159.695312 C 235.644531 159.578125 235.546875 159.402344 235.527344 159.210938 L 232.886719 133.5 C 232.847656 133.105469 233.128906 132.757812 233.523438 132.714844 C 233.878906 132.683594 234.261719 132.960938 234.304688 133.351562 L 236.871094 158.332031 C 240.765625 157.761719 259.269531 154.789062 266.394531 148.75 C 266.691406 148.496094 267.140625 148.53125 267.394531 148.832031 C 267.648438 149.132812 267.613281 149.582031 267.3125 149.835938 C 259.054688 156.839844 237.253906 159.726562 236.328125 159.84375 C 236.296875 159.847656 236.269531 159.851562 236.238281 159.851562 "/>
</clipPath>
</defs>
<g clip-path="url(#clip-0)">
<g clip-path="url(#clip-1)">
<path fill-rule="nonzero" fill="rgb(94.509888%, 69.804382%, 60.392761%)" fill-opacity="1" d="M 155.980469 -1 L 233.628906 -1 L 233.628906 103.269531 L 155.980469 103.269531 Z M 155.980469 -1 "/>
</g>
</g>
<g clip-path="url(#clip-2)">
<g clip-path="url(#clip-3)">
<path fill-rule="nonzero" fill="rgb(20.391846%, 42.352295%, 68.62793%)" fill-opacity="1" d="M 176.117188 226.847656 L 278.253906 226.847656 L 278.253906 277.820312 L 176.117188 277.820312 Z M 176.117188 226.847656 "/>
</g>
</g>
<g clip-path="url(#clip-4)">
<g clip-path="url(#clip-5)">
<path fill-rule="nonzero" fill="rgb(9.803772%, 20.783997%, 34.509277%)" fill-opacity="1" d="M 236.71875 248.632812 L 266.1875 248.632812 L 266.1875 263.5625 L 236.71875 263.5625 Z M 236.71875 248.632812 "/>
</g>
</g>
<g clip-path="url(#clip-6)">
<g clip-path="url(#clip-7)">
<path fill-rule="nonzero" fill="rgb(9.803772%, 20.783997%, 34.509277%)" fill-opacity="1" d="M 250.605469 257.734375 L 254.226562 257.734375 L 254.226562 277.824219 L 250.605469 277.824219 Z M 250.605469 257.734375 "/>
</g>
</g>
<g clip-path="url(#clip-8)">
<g clip-path="url(#clip-9)">
<path fill-rule="nonzero" fill="rgb(9.803772%, 20.783997%, 34.509277%)" fill-opacity="1" d="M 216.964844 266.539062 L 220.707031 266.539062 L 220.707031 277.824219 L 216.964844 277.824219 Z M 216.964844 266.539062 "/>
</g>
</g>
<g clip-path="url(#clip-10)">
<g clip-path="url(#clip-11)">
<path fill-rule="nonzero" fill="rgb(94.509888%, 69.804382%, 60.392761%)" fill-opacity="1" d="M 152.042969 156.453125 L 192.847656 156.453125 L 192.847656 188.386719 L 152.042969 188.386719 Z M 152.042969 156.453125 "/>
</g>
</g>
<g clip-path="url(#clip-12)">
<g clip-path="url(#clip-13)">
<path fill-rule="nonzero" fill="rgb(95.68634%, 76.078796%, 37.646484%)" fill-opacity="1" d="M 85.550781 98.539062 L 130.378906 98.539062 L 130.378906 113.695312 L 85.550781 113.695312 Z M 85.550781 98.539062 "/>
</g>
</g>
<g clip-path="url(#clip-14)">
<g clip-path="url(#clip-15)">
<path fill-rule="nonzero" fill="rgb(20.391846%, 42.352295%, 68.62793%)" fill-opacity="1" d="M 87.445312 102.902344 L 137.539062 102.902344 L 137.539062 118.714844 L 87.445312 118.714844 Z M 87.445312 102.902344 "/>
</g>
</g>
<g clip-path="url(#clip-16)">
<g clip-path="url(#clip-17)">
<path fill-rule="nonzero" fill="rgb(78.823853%, 90.98053%, 87.451172%)" fill-opacity="1" d="M 45.207031 97.5625 L 91.8125 97.5625 L 91.8125 117.695312 L 45.207031 117.695312 Z M 45.207031 97.5625 "/>
</g>
</g>
<g clip-path="url(#clip-18)">
<path fill-rule="nonzero" fill="rgb(94.902039%, 78.039551%, 69.804382%)" fill-opacity="1" d="M 19.417969 107.253906 L 137.03125 107.253906 L 137.03125 191.722656 L 19.417969 191.722656 Z M 19.417969 107.253906 "/>
</g>
<g clip-path="url(#clip-19)">
<path fill-rule="nonzero" fill="rgb(88.235474%, 40.783691%, 21.960449%)" fill-opacity="1" d="M 87.21875 107.253906 L 137.03125 107.253906 L 137.03125 191.722656 L 87.21875 191.722656 Z M 87.21875 107.253906 "/>
</g>
<g clip-path="url(#clip-20)">
<g clip-path="url(#clip-21)">
<path fill-rule="nonzero" fill="rgb(100%, 86.274719%, 79.216003%)" fill-opacity="1" d="M 7.382812 85.878906 L 89.21875 85.878906 L 89.21875 109.253906 L 7.382812 109.253906 Z M 7.382812 85.878906 "/>
</g>
</g>
<g clip-path="url(#clip-22)">
<g clip-path="url(#clip-23)">
<path fill-rule="nonzero" fill="rgb(94.902039%, 78.039551%, 69.804382%)" fill-opacity="1" d="M 135.03125 107.253906 L 148.429688 107.253906 L 148.429688 128.066406 L 135.03125 128.066406 Z M 135.03125 107.253906 "/>
</g>
</g>
<g clip-path="url(#clip-24)">
<g clip-path="url(#clip-25)">
<path fill-rule="nonzero" fill="rgb(100%, 97.647095%, 96.862793%)" fill-opacity="1" d="M 30.878906 119.261719 L 68.507812 119.261719 L 68.507812 156.890625 L 30.878906 156.890625 Z M 30.878906 119.261719 "/>
</g>
</g>
<g clip-path="url(#clip-26)">
<g clip-path="url(#clip-27)">
<path fill-rule="nonzero" fill="rgb(93.333435%, 37.254333%, 14.117432%)" fill-opacity="1" d="M 34.6875 129.359375 L 52.117188 129.359375 L 52.117188 146.792969 L 34.6875 146.792969 Z M 34.6875 129.359375 "/>
</g>
</g>
<g clip-path="url(#clip-28)">
<g clip-path="url(#clip-29)">
<path fill-rule="nonzero" fill="rgb(93.333435%, 37.254333%, 14.117432%)" fill-opacity="1" d="M 42.597656 136.625 L 56.792969 136.625 L 56.792969 150.824219 L 42.597656 150.824219 Z M 42.597656 136.625 "/>
</g>
</g>
<g clip-path="url(#clip-30)">
<g clip-path="url(#clip-31)">
<path fill-rule="nonzero" fill="rgb(93.333435%, 37.254333%, 14.117432%)" fill-opacity="1" d="M 51.941406 126.996094 L 62.847656 126.996094 L 62.847656 137.898438 L 51.941406 137.898438 Z M 51.941406 126.996094 "/>
</g>
</g>
<g clip-path="url(#clip-32)">
<g clip-path="url(#clip-33)">
<path fill-rule="nonzero" fill="rgb(93.333435%, 37.254333%, 14.117432%)" fill-opacity="1" d="M 37.957031 132.476562 L 46.4375 132.476562 L 46.4375 140.957031 L 37.957031 140.957031 Z M 37.957031 132.476562 "/>
</g>
</g>
<g clip-path="url(#clip-34)">
<path fill-rule="nonzero" fill="rgb(100%, 86.274719%, 79.216003%)" fill-opacity="1" d="M 3.460938 189.722656 L 103.589844 189.722656 L 103.589844 277.820312 L 3.460938 277.820312 Z M 3.460938 189.722656 "/>
</g>
<g clip-path="url(#clip-35)">
<path fill-rule="nonzero" fill="rgb(88.235474%, 40.783691%, 21.960449%)" fill-opacity="1" d="M 101.589844 189.722656 L 152.957031 189.722656 L 152.957031 277.820312 L 101.589844 277.820312 Z M 101.589844 189.722656 "/>
</g>
<g clip-path="url(#clip-36)">
<g clip-path="url(#clip-37)">
<path fill-rule="nonzero" fill="rgb(94.902039%, 78.039551%, 69.804382%)" fill-opacity="1" d="M 101.589844 189.722656 L 163.75 189.722656 L 163.75 210.929688 L 101.589844 210.929688 Z M 101.589844 189.722656 "/>
</g>
</g>
<g clip-path="url(#clip-38)">
<g clip-path="url(#clip-39)">
<path fill-rule="nonzero" fill="rgb(72.941589%, 50.588989%, 41.960144%)" fill-opacity="1" d="M 192.445312 76.5 L 206.925781 76.5 L 206.925781 91.25 L 192.445312 91.25 Z M 192.445312 76.5 "/>
</g>
</g>
<g clip-path="url(#clip-40)">
<g clip-path="url(#clip-41)">
<path fill-rule="nonzero" fill="rgb(39.607239%, 21.960449%, 14.509583%)" fill-opacity="1" d="M 170.175781 48.773438 L 174.722656 48.773438 L 174.722656 54.050781 L 170.175781 54.050781 Z M 170.175781 48.773438 "/>
</g>
</g>
<g clip-path="url(#clip-42)">
<g clip-path="url(#clip-43)">
<path fill-rule="nonzero" fill="rgb(39.607239%, 21.960449%, 14.509583%)" fill-opacity="1" d="M 168.855469 44.433594 L 177.472656 44.433594 L 177.472656 49.820312 L 168.855469 49.820312 Z M 168.855469 44.433594 "/>
</g>
</g>
<g clip-path="url(#clip-44)">
<g clip-path="url(#clip-45)">
<path fill-rule="nonzero" fill="rgb(39.607239%, 21.960449%, 14.509583%)" fill-opacity="1" d="M 166.476562 37.164062 L 179.546875 37.164062 L 179.546875 45.398438 L 166.476562 45.398438 Z M 166.476562 37.164062 "/>
</g>
</g>
<g clip-path="url(#clip-46)">
<g clip-path="url(#clip-47)">
<path fill-rule="nonzero" fill="rgb(76.470947%, 50.196838%, 39.99939%)" fill-opacity="1" d="M 171.214844 67.585938 L 181.164062 67.585938 L 181.164062 76.621094 L 171.214844 76.621094 Z M 171.214844 67.585938 "/>
</g>
</g>
<g clip-path="url(#clip-48)">
<g clip-path="url(#clip-49)">
<path fill-rule="nonzero" fill="rgb(76.470947%, 50.196838%, 39.99939%)" fill-opacity="1" d="M 165.964844 61.644531 L 170.179688 61.644531 L 170.179688 66.152344 L 165.964844 66.152344 Z M 165.964844 61.644531 "/>
</g>
</g>
<g clip-path="url(#clip-50)">
<g clip-path="url(#clip-51)">
<path fill-rule="nonzero" fill="rgb(95.68634%, 76.078796%, 37.646484%)" fill-opacity="1" d="M 156.25 85.59375 L 271.023438 85.59375 L 271.023438 240.148438 L 156.25 240.148438 Z M 156.25 85.59375 "/>
</g>
</g>
<g clip-path="url(#clip-52)">
<g clip-path="url(#clip-53)">
<path fill-rule="nonzero" fill="rgb(79.608154%, 58.432007%, 21.568298%)" fill-opacity="1" d="M 176.652344 136.402344 L 181.253906 136.402344 L 181.253906 174.132812 L 176.652344 174.132812 Z M 176.652344 136.402344 "/>
</g>
</g>
<g clip-path="url(#clip-54)">
<g clip-path="url(#clip-55)">
<path fill-rule="nonzero" fill="rgb(20.391846%, 42.352295%, 68.62793%)" fill-opacity="1" d="M 151.085938 167.824219 L 240.84375 167.824219 L 240.84375 201.570312 L 151.085938 201.570312 Z M 151.085938 167.824219 "/>
</g>
</g>
<g clip-path="url(#clip-56)">
<g clip-path="url(#clip-57)">
<path fill-rule="nonzero" fill="rgb(9.803772%, 20.783997%, 34.509277%)" fill-opacity="1" d="M 157.394531 171.867188 L 232.4375 171.867188 L 232.4375 179.378906 L 157.394531 179.378906 Z M 157.394531 171.867188 "/>
</g>
</g>
<g clip-path="url(#clip-58)">
<path fill-rule="nonzero" fill="rgb(94.902039%, 78.039551%, 69.804382%)" fill-opacity="1" d="M 133.773438 180.851562 L 245.691406 180.851562 L 245.691406 261.253906 L 133.773438 261.253906 Z M 133.773438 180.851562 "/>
</g>
<g clip-path="url(#clip-59)">
<path fill-rule="nonzero" fill="rgb(88.235474%, 40.783691%, 21.960449%)" fill-opacity="1" d="M 198.234375 180.851562 L 245.691406 180.851562 L 245.691406 261.253906 L 198.234375 261.253906 Z M 198.234375 180.851562 "/>
</g>
<g clip-path="url(#clip-60)">
<g clip-path="url(#clip-61)">
<path fill-rule="nonzero" fill="rgb(100%, 86.274719%, 79.216003%)" fill-opacity="1" d="M 122.339844 160.53125 L 200.238281 160.53125 L 200.238281 182.851562 L 122.339844 182.851562 Z M 122.339844 160.53125 "/>
</g>
</g>
<g clip-path="url(#clip-62)">
<g clip-path="url(#clip-63)">
<path fill-rule="nonzero" fill="rgb(94.902039%, 78.039551%, 69.804382%)" fill-opacity="1" d="M 243.691406 180.851562 L 256.53125 180.851562 L 256.53125 200.738281 L 243.691406 200.738281 Z M 243.691406 180.851562 "/>
</g>
</g>
<g clip-path="url(#clip-64)">
<g clip-path="url(#clip-65)">
<path fill-rule="nonzero" fill="rgb(100%, 97.647095%, 96.862793%)" fill-opacity="1" d="M 142.632812 194.863281 L 189.207031 194.863281 L 189.207031 241.441406 L 142.632812 241.441406 Z M 142.632812 194.863281 "/>
</g>
</g>
<g clip-path="url(#clip-66)">
<g clip-path="url(#clip-67)">
<path fill-rule="nonzero" fill="rgb(93.333435%, 37.254333%, 14.117432%)" fill-opacity="1" d="M 149.085938 203.917969 L 179.8125 203.917969 L 179.8125 232.089844 L 149.085938 232.089844 Z M 149.085938 203.917969 "/>
</g>
</g>
<g clip-path="url(#clip-68)">
<g clip-path="url(#clip-69)">
<path fill-rule="nonzero" fill="rgb(39.607239%, 21.960449%, 14.509583%)" fill-opacity="0.3124" d="M 189.261719 180.851562 L 256.53125 180.851562 L 256.53125 261.253906 L 189.261719 261.253906 Z M 189.261719 180.851562 "/>
</g>
</g>
<g clip-path="url(#clip-70)">
<g clip-path="url(#clip-71)">
<path fill-rule="nonzero" fill="rgb(72.941589%, 50.588989%, 41.960144%)" fill-opacity="1" d="M 235.238281 149.628906 L 265.816406 149.628906 L 265.816406 171.886719 L 235.238281 171.886719 Z M 235.238281 149.628906 "/>
</g>
</g>
<g clip-path="url(#clip-72)">
<g clip-path="url(#clip-73)">
<path fill-rule="nonzero" fill="rgb(93.333435%, 37.254333%, 14.117432%)" fill-opacity="1" d="M 37.757812 217.304688 L 70.976562 217.304688 L 70.976562 254.976562 L 37.757812 254.976562 Z M 37.757812 217.304688 "/>
</g>
</g>
<g clip-path="url(#clip-74)">
<g clip-path="url(#clip-75)">
<path fill-rule="nonzero" fill="rgb(93.333435%, 37.254333%, 14.117432%)" fill-opacity="1" d="M 37.554688 225.355469 L 56.792969 225.355469 L 56.792969 254.976562 L 37.554688 254.976562 Z M 37.554688 225.355469 "/>
</g>
</g>
<g clip-path="url(#clip-76)">
<g clip-path="url(#clip-77)">
<path fill-rule="nonzero" fill="rgb(88.235474%, 40.783691%, 21.960449%)" fill-opacity="1" d="M 59.421875 140.972656 L 82.324219 140.972656 L 82.324219 163.871094 L 59.421875 163.871094 Z M 59.421875 140.972656 "/>
</g>
</g>
<g clip-path="url(#clip-78)">
<g clip-path="url(#clip-79)">
<path fill-rule="nonzero" fill="rgb(100%, 97.647095%, 96.862793%)" fill-opacity="1" d="M 66.707031 143.660156 L 75.039062 143.660156 L 75.039062 154.847656 L 66.707031 154.847656 Z M 66.707031 143.660156 "/>
</g>
</g>
<g clip-path="url(#clip-80)">
<g clip-path="url(#clip-81)">
<path fill-rule="nonzero" fill="rgb(100%, 97.647095%, 96.862793%)" fill-opacity="1" d="M 66.707031 149.996094 L 75.039062 149.996094 L 75.039062 161.175781 L 66.707031 161.175781 Z M 66.707031 149.996094 "/>
</g>
</g>
<g clip-path="url(#clip-82)">
<g clip-path="url(#clip-83)">
<path fill-rule="nonzero" fill="rgb(100%, 97.647095%, 96.862793%)" fill-opacity="1" d="M 62.582031 146.003906 L 73.109375 146.003906 L 73.109375 154.140625 L 62.582031 154.140625 Z M 62.582031 146.003906 "/>
</g>
</g>
<g clip-path="url(#clip-84)">
<g clip-path="url(#clip-85)">
<path fill-rule="nonzero" fill="rgb(100%, 97.647095%, 96.862793%)" fill-opacity="1" d="M 68.636719 150.703125 L 79.164062 150.703125 L 79.164062 158.792969 L 68.636719 158.792969 Z M 68.636719 150.703125 "/>
</g>
</g>
<g clip-path="url(#clip-86)">
<g clip-path="url(#clip-87)">
<path fill-rule="nonzero" fill="rgb(100%, 97.647095%, 96.862793%)" fill-opacity="1" d="M 62.589844 150.714844 L 73.105469 150.714844 L 73.105469 158.8125 L 62.589844 158.8125 Z M 62.589844 150.714844 "/>
</g>
</g>
<g clip-path="url(#clip-88)">
<g clip-path="url(#clip-89)">
<path fill-rule="nonzero" fill="rgb(100%, 97.647095%, 96.862793%)" fill-opacity="1" d="M 68.640625 145.980469 L 79.15625 145.980469 L 79.15625 154.140625 L 68.640625 154.140625 Z M 68.640625 145.980469 "/>
</g>
</g>
<g clip-path="url(#clip-90)">
<g clip-path="url(#clip-91)">
<path fill-rule="nonzero" fill="rgb(93.333435%, 37.254333%, 14.117432%)" fill-opacity="1" d="M 51.738281 225.355469 L 71.179688 225.355469 L 71.179688 238.597656 L 51.738281 238.597656 Z M 51.738281 225.355469 "/>
</g>
</g>
<g clip-path="url(#clip-92)">
<g clip-path="url(#clip-93)">
<path fill-rule="nonzero" fill="rgb(76.470947%, 50.196838%, 39.99939%)" fill-opacity="1" d="M 129.234375 216.863281 L 132.007812 216.863281 L 132.007812 219.425781 L 129.234375 219.425781 Z M 129.234375 216.863281 "/>
</g>
</g>
<g clip-path="url(#clip-94)">
<g clip-path="url(#clip-95)">
<path fill-rule="nonzero" fill="rgb(76.470947%, 50.196838%, 39.99939%)" fill-opacity="1" d="M 129.816406 211.332031 L 132.078125 211.332031 L 132.078125 213.894531 L 129.816406 213.894531 Z M 129.816406 211.332031 "/>
</g>
</g>
<g clip-path="url(#clip-96)">
<g clip-path="url(#clip-97)">
<path fill-rule="nonzero" fill="rgb(76.470947%, 50.196838%, 39.99939%)" fill-opacity="1" d="M 133.773438 205.574219 L 150.121094 205.574219 L 150.121094 236.683594 L 133.773438 236.683594 Z M 133.773438 205.574219 "/>
</g>
</g>
<g clip-path="url(#clip-98)">
<g clip-path="url(#clip-99)">
<path fill-rule="nonzero" fill="rgb(76.470947%, 50.196838%, 39.99939%)" fill-opacity="1" d="M 129.132812 222.5625 L 132.335938 222.5625 L 132.335938 225.597656 L 129.132812 225.597656 Z M 129.132812 222.5625 "/>
</g>
</g>
<g clip-path="url(#clip-100)">
<g clip-path="url(#clip-101)">
<path fill-rule="nonzero" fill="rgb(94.509888%, 69.804382%, 60.392761%)" fill-opacity="1" d="M 126.285156 219.640625 L 139.261719 219.640625 L 139.261719 233.941406 L 126.285156 233.941406 Z M 126.285156 219.640625 "/>
</g>
</g>
<g clip-path="url(#clip-102)">
<g clip-path="url(#clip-103)">
<path fill-rule="nonzero" fill="rgb(94.509888%, 69.804382%, 60.392761%)" fill-opacity="1" d="M 126.152344 213.492188 L 144.78125 213.492188 L 144.78125 230.757812 L 126.152344 230.757812 Z M 126.152344 213.492188 "/>
</g>
</g>
<g clip-path="url(#clip-104)">
<g clip-path="url(#clip-105)">
<path fill-rule="nonzero" fill="rgb(94.509888%, 69.804382%, 60.392761%)" fill-opacity="1" d="M 126.285156 208.273438 L 148.042969 208.273438 L 148.042969 223.148438 L 126.285156 223.148438 Z M 126.285156 208.273438 "/>
</g>
</g>
<g clip-path="url(#clip-106)">
<g clip-path="url(#clip-107)">
<path fill-rule="nonzero" fill="rgb(94.509888%, 69.804382%, 60.392761%)" fill-opacity="1" d="M 127.34375 202.675781 L 145.175781 202.675781 L 145.175781 214.277344 L 127.34375 214.277344 Z M 127.34375 202.675781 "/>
</g>
</g>
<g clip-path="url(#clip-108)">
<g clip-path="url(#clip-109)">
<path fill-rule="nonzero" fill="rgb(76.470947%, 50.196838%, 39.99939%)" fill-opacity="1" d="M 127.050781 219.820312 L 139.160156 219.820312 L 139.160156 230.378906 L 127.050781 230.378906 Z M 127.050781 219.820312 "/>
</g>
</g>
<g clip-path="url(#clip-110)">
<g clip-path="url(#clip-111)">
<path fill-rule="nonzero" fill="rgb(76.470947%, 50.196838%, 39.99939%)" fill-opacity="1" d="M 126.5 214.246094 L 141.507812 214.246094 L 141.507812 224.417969 L 126.5 224.417969 Z M 126.5 214.246094 "/>
</g>
</g>
<g clip-path="url(#clip-112)">
<g clip-path="url(#clip-113)">
<path fill-rule="nonzero" fill="rgb(76.470947%, 50.196838%, 39.99939%)" fill-opacity="1" d="M 126.882812 208.613281 L 142.992188 208.613281 L 142.992188 215.210938 L 126.882812 215.210938 Z M 126.882812 208.613281 "/>
</g>
</g>
<g clip-path="url(#clip-114)">
<g clip-path="url(#clip-115)">
<path fill-rule="nonzero" fill="rgb(94.509888%, 69.804382%, 60.392761%)" fill-opacity="1" d="M 181.851562 149.628906 L 265.816406 149.628906 L 265.816406 268.964844 L 181.851562 268.964844 Z M 181.851562 149.628906 "/>
</g>
</g>
<g clip-path="url(#clip-116)">
<g clip-path="url(#clip-117)">
<path fill-rule="nonzero" fill="rgb(76.470947%, 50.196838%, 39.99939%)" fill-opacity="1" d="M 189.914062 258.273438 L 199.347656 258.273438 L 199.347656 266.253906 L 189.914062 266.253906 Z M 189.914062 258.273438 "/>
</g>
</g>
<g clip-path="url(#clip-118)">
<g clip-path="url(#clip-119)">
<path fill-rule="nonzero" fill="rgb(76.470947%, 50.196838%, 39.99939%)" fill-opacity="1" d="M 195.421875 260.601562 L 205.160156 260.601562 L 205.160156 268.550781 L 195.421875 268.550781 Z M 195.421875 260.601562 "/>
</g>
</g>
<g clip-path="url(#clip-120)">
<g clip-path="url(#clip-121)">
<path fill-rule="nonzero" fill="rgb(76.470947%, 50.196838%, 39.99939%)" fill-opacity="1" d="M 203.890625 261.972656 L 209.363281 261.972656 L 209.363281 267.976562 L 203.890625 267.976562 Z M 203.890625 261.972656 "/>
</g>
</g>
<g clip-path="url(#clip-122)">
<g clip-path="url(#clip-123)">
<path fill-rule="nonzero" fill="rgb(76.470947%, 50.196838%, 39.99939%)" fill-opacity="1" d="M 196.738281 244.679688 L 204.621094 244.679688 L 204.621094 251.144531 L 196.738281 251.144531 Z M 196.738281 244.679688 "/>
</g>
</g>
<g clip-path="url(#clip-124)">
<g clip-path="url(#clip-125)">
<path fill-rule="nonzero" fill="rgb(39.607239%, 21.960449%, 14.509583%)" fill-opacity="1" d="M 153.214844 0.851562 L 234.964844 0.851562 L 234.964844 53.144531 L 153.214844 53.144531 Z M 153.214844 0.851562 "/>
</g>
</g>
<g clip-path="url(#clip-126)">
<g clip-path="url(#clip-127)">
<path fill-rule="nonzero" fill="rgb(39.607239%, 21.960449%, 14.509583%)" fill-opacity="1" d="M 211.296875 38.945312 L 238.070312 38.945312 L 238.070312 65.757812 L 211.296875 65.757812 Z M 211.296875 38.945312 "/>
</g>
</g>
<g clip-path="url(#clip-128)">
<g clip-path="url(#clip-129)">
<path fill-rule="nonzero" fill="rgb(56.079102%, 39.99939%, 29.803467%)" fill-opacity="1" d="M 174.613281 32.648438 L 178.457031 32.648438 L 178.457031 35.59375 L 174.613281 35.59375 Z M 174.613281 32.648438 "/>
</g>
</g>
<g clip-path="url(#clip-130)">
<g clip-path="url(#clip-131)">
<path fill-rule="nonzero" fill="rgb(56.079102%, 39.99939%, 29.803467%)" fill-opacity="1" d="M 181.257812 34.042969 L 189.878906 34.042969 L 189.878906 37.40625 L 181.257812 37.40625 Z M 181.257812 34.042969 "/>
</g>
</g>
<g clip-path="url(#clip-132)">
<g clip-path="url(#clip-133)">
<path fill-rule="nonzero" fill="rgb(56.079102%, 39.99939%, 29.803467%)" fill-opacity="1" d="M 180.863281 26.453125 L 196.367188 26.453125 L 196.367188 36.988281 L 180.863281 36.988281 Z M 180.863281 26.453125 "/>
</g>
</g>
<g clip-path="url(#clip-134)">
<g clip-path="url(#clip-135)">
<path fill-rule="nonzero" fill="rgb(56.079102%, 39.99939%, 29.803467%)" fill-opacity="1" d="M 194.492188 33.839844 L 212.554688 33.839844 L 212.554688 43.195312 L 194.492188 43.195312 Z M 194.492188 33.839844 "/>
</g>
</g>
<g clip-path="url(#clip-136)">
<g clip-path="url(#clip-137)">
<path fill-rule="nonzero" fill="rgb(94.509888%, 69.804382%, 60.392761%)" fill-opacity="1" d="M 198.054688 29.421875 L 219.71875 29.421875 L 219.71875 50.828125 L 198.054688 50.828125 Z M 198.054688 29.421875 "/>
</g>
</g>
<g clip-path="url(#clip-138)">
<g clip-path="url(#clip-139)">
<path fill-rule="nonzero" fill="rgb(76.470947%, 50.196838%, 39.99939%)" fill-opacity="1" d="M 204.5625 37.136719 L 210.472656 37.136719 L 210.472656 47.699219 L 204.5625 47.699219 Z M 204.5625 37.136719 "/>
</g>
</g>
<g clip-path="url(#clip-140)">
<g clip-path="url(#clip-141)">
<path fill-rule="nonzero" fill="rgb(56.079102%, 39.99939%, 29.803467%)" fill-opacity="1" d="M 210.929688 10.59375 L 223.628906 10.59375 L 223.628906 21.460938 L 210.929688 21.460938 Z M 210.929688 10.59375 "/>
</g>
</g>
<g clip-path="url(#clip-142)">
<g clip-path="url(#clip-143)">
<path fill-rule="nonzero" fill="rgb(79.608154%, 58.432007%, 21.568298%)" fill-opacity="1" d="M 231.847656 131.683594 L 268.648438 131.683594 L 268.648438 160.851562 L 231.847656 160.851562 Z M 231.847656 131.683594 "/>
</g>
</g>
</svg>
