<svg width="40" height="40" viewBox="0 0 40 40" fill="none" xmlns="http://www.w3.org/2000/svg">
<circle cx="20" cy="20" r="20" fill="white"/>
<mask id="mask0_4082_536" style="mask-type:alpha" maskUnits="userSpaceOnUse" x="10" y="10" width="20" height="20">
<rect x="10" y="10" width="20" height="20" fill="#D9D9D9"/>
</mask>
<g mask="url(#mask0_4082_536)">
<path d="M26.3076 12.3047C26.6947 11.8982 27.3229 11.8982 27.71 12.3047C28.0692 12.682 28.0948 13.2771 27.7871 13.6855L27.71 13.7764L21.4014 20.3994L27.71 27.0234C28.0968 27.4298 28.0968 28.0887 27.71 28.4951C27.3506 28.8725 26.7836 28.8995 26.3945 28.5762L26.3076 28.4951L20 21.8711L13.6924 28.4951C13.3053 28.9016 12.6771 28.9016 12.29 28.4951C11.9308 28.1178 11.9051 27.5227 12.2129 27.1143L12.29 27.0234L18.5977 20.3994L12.29 13.7764C11.9033 13.3699 11.9031 12.711 12.29 12.3047C12.6494 11.9274 13.2164 11.9004 13.6055 12.2236L13.6924 12.3047L20 18.9277L26.3076 12.3047Z" fill="black"/>
</g>
</svg>
