<svg width="20" height="20" viewBox="0 0 20 20" fill="none" xmlns="http://www.w3.org/2000/svg">
<rect width="20" height="20" rx="10" fill="#F1545D"/>
<mask id="mask0_3213_1292" style="mask-type:alpha" maskUnits="userSpaceOnUse" x="3" y="3" width="14" height="14">
<rect x="3" y="3" width="14" height="14" fill="#D9D9D9"/>
</mask>
<g mask="url(#mask0_3213_1292)">
<path fill-rule="evenodd" clip-rule="evenodd" d="M15.3972 15.9466C15.6681 15.6621 15.6681 15.2009 15.3972 14.9164L10.9816 10.28L15.3972 5.6437L15.4511 5.58016C15.6667 5.2942 15.6488 4.87759 15.3972 4.61341C15.1262 4.3289 14.6869 4.3289 14.4159 4.61341L10.0004 9.24973L5.58484 4.61341L5.52433 4.55679C5.25198 4.33035 4.85522 4.34922 4.60361 4.61341C4.33265 4.89791 4.33265 5.35919 4.60361 5.6437L9.01916 10.28L4.60361 14.9164L4.5497 14.9799C4.33403 15.2659 4.35201 15.6825 4.60361 15.9466C4.87457 16.2312 5.31388 16.2312 5.58484 15.9466L10.0004 11.3103L14.4159 15.9466L14.4765 16.0033C14.7488 16.2297 15.1456 16.2108 15.3972 15.9466Z" fill="white"/>
</g>
</svg>
