<?xml version="1.0" encoding="UTF-8"?>
<svg xmlns="http://www.w3.org/2000/svg" xmlns:xlink="http://www.w3.org/1999/xlink" width="12" height="12" viewBox="0 0 12 12">
<defs>
<clipPath id="clip-0">
<path clip-rule="nonzero" d="M 0 1 L 12 1 L 12 12 L 0 12 Z M 0 1 "/>
</clipPath>
<clipPath id="clip-1">
<path clip-rule="evenodd" d="M 7.925781 3.945312 L 6.863281 1.796875 L 6.820312 1.714844 C 6.394531 1.003906 5.328125 1.03125 4.949219 1.792969 L 3.886719 3.945312 L 1.515625 4.292969 L 1.429688 4.308594 C 0.617188 4.488281 0.308594 5.515625 0.921875 6.113281 L 2.640625 7.785156 L 2.234375 10.152344 L 2.222656 10.234375 C 2.144531 11.066406 3.027344 11.675781 3.785156 11.277344 L 5.90625 10.160156 L 8.03125 11.277344 L 8.105469 11.3125 C 8.871094 11.644531 9.722656 10.996094 9.578125 10.152344 L 9.171875 7.785156 L 10.890625 6.113281 C 11.527344 5.496094 11.175781 4.417969 10.300781 4.292969 Z M 5.90625 2.566406 L 6.925781 4.628906 L 6.972656 4.710938 C 7.109375 4.925781 7.332031 5.070312 7.585938 5.109375 L 9.863281 5.441406 L 8.214844 7.042969 L 8.152344 7.113281 C 7.988281 7.308594 7.917969 7.570312 7.960938 7.824219 L 8.351562 10.089844 L 6.316406 9.019531 L 6.230469 8.980469 C 5.992188 8.886719 5.726562 8.898438 5.5 9.019531 L 3.464844 10.089844 L 3.851562 7.824219 L 3.863281 7.726562 C 3.878906 7.472656 3.78125 7.222656 3.597656 7.042969 L 1.953125 5.441406 L 4.226562 5.109375 C 4.515625 5.066406 4.761719 4.886719 4.890625 4.628906 Z M 5.90625 2.566406 "/>
</clipPath>
</defs>
<g clip-path="url(#clip-0)">
<g clip-path="url(#clip-1)">
<path fill-rule="nonzero" fill="rgb(100%, 61.177063%, 36.470032%)" fill-opacity="1" d="M -0.691406 0.00390625 L 12.527344 0.00390625 L 12.527344 12.675781 L -0.691406 12.675781 Z M -0.691406 0.00390625 "/>
</g>
</g>
</svg>
