<?xml version="1.0" encoding="UTF-8"?>
<svg xmlns="http://www.w3.org/2000/svg" xmlns:xlink="http://www.w3.org/1999/xlink" width="20" height="20" viewBox="0 0 20 20">
<path fill-rule="nonzero" fill="rgb(96.076965%, 37.254333%, 14.117432%)" fill-opacity="1" d="M 10 0 C 4.480469 0 0 4.480469 0 10 C 0 15.519531 4.480469 20 10 20 L 15 20 L 15 18 L 10 18 C 5.660156 18 2 14.339844 2 10 C 2 5.660156 5.660156 2 10 2 C 14.339844 2 18 5.660156 18 10 L 18 11.429688 C 18 12.21875 17.289062 13 16.5 13 C 15.710938 13 15 12.21875 15 11.429688 L 15 10 C 15 7.238281 12.761719 5 10 5 C 7.238281 5 5 7.238281 5 10 C 5 12.761719 7.238281 15 10 15 C 11.378906 15 12.640625 14.441406 13.539062 13.53125 C 14.191406 14.421875 15.308594 15 16.5 15 C 18.46875 15 20 13.398438 20 11.429688 L 20 10 C 20 4.480469 15.519531 0 10 0 Z M 10 13 C 8.339844 13 7 11.660156 7 10 C 7 8.339844 8.339844 7 10 7 C 11.660156 7 13 8.339844 13 10 C 13 11.660156 11.660156 13 10 13 Z M 10 13 "/>
</svg>
