<?xml version="1.0" encoding="UTF-8"?>
<svg xmlns="http://www.w3.org/2000/svg" xmlns:xlink="http://www.w3.org/1999/xlink" width="21" height="20" viewBox="0 0 21 20">
<defs>
<clipPath id="clip-0">
<path clip-rule="nonzero" d="M 0 2 L 21 2 L 21 18 L 0 18 Z M 0 2 "/>
</clipPath>
<clipPath id="clip-1">
<path clip-rule="nonzero" d="M 17.5 2 C 19.15625 2 20.5 3.34375 20.5 5 L 20.5 15 C 20.5 16.65625 19.15625 18 17.5 18 L 3.5 18 C 1.84375 18 0.5 16.65625 0.5 15 L 0.5 5 C 0.5 3.34375 1.84375 2 3.5 2 Z M 17.5 4 L 3.5 4 C 2.988281 4 2.566406 4.386719 2.507812 4.882812 L 2.5 5 L 2.5 15 C 2.5 15.511719 2.886719 15.933594 3.382812 15.992188 L 3.5 16 L 17.5 16 C 18.011719 16 18.433594 15.613281 18.492188 15.117188 L 18.5 15 L 18.5 5 C 18.5 4.488281 18.113281 4.066406 17.617188 4.007812 Z M 17.5 4 "/>
</clipPath>
<clipPath id="clip-2">
<path clip-rule="nonzero" d="M 10 5 L 15 5 L 15 9 L 10 9 Z M 10 5 "/>
</clipPath>
<clipPath id="clip-3">
<path clip-rule="evenodd" d="M 12.5 9 C 13.605469 9 14.5 8.105469 14.5 7 C 14.5 5.894531 13.605469 5 12.5 5 C 11.394531 5 10.5 5.894531 10.5 7 C 10.5 8.105469 11.394531 9 12.5 9 Z M 12.5 9 "/>
</clipPath>
<clipPath id="clip-4">
<path clip-rule="nonzero" d="M 0 7 L 13 7 L 13 15 L 0 15 Z M 0 7 "/>
</clipPath>
<clipPath id="clip-5">
<path clip-rule="nonzero" d="M 6.996094 8.15625 C 7.320312 7.941406 7.734375 7.933594 8.0625 8.128906 L 8.167969 8.199219 L 12.519531 11.605469 C 12.953125 11.945312 13.03125 12.574219 12.691406 13.011719 C 12.375 13.410156 11.816406 13.507812 11.390625 13.253906 L 11.285156 13.179688 L 7.503906 10.222656 L 2.082031 13.851562 C 1.65625 14.136719 1.089844 14.050781 0.765625 13.667969 L 0.695312 13.574219 C 0.410156 13.148438 0.496094 12.582031 0.875 12.257812 L 0.96875 12.1875 Z M 6.996094 8.15625 "/>
</clipPath>
<clipPath id="clip-6">
<path clip-rule="nonzero" d="M 8 9 L 21 9 L 21 16 L 8 16 Z M 8 9 "/>
</clipPath>
<clipPath id="clip-7">
<path clip-rule="nonzero" d="M 14.941406 9.171875 C 15.257812 8.957031 15.671875 8.945312 16 9.132812 L 16.105469 9.203125 L 20.085938 12.222656 C 20.527344 12.554688 20.613281 13.183594 20.28125 13.621094 C 19.972656 14.03125 19.414062 14.132812 18.984375 13.886719 L 18.878906 13.816406 L 15.46875 11.230469 L 9.988281 14.933594 C 9.566406 15.222656 9 15.140625 8.671875 14.757812 L 8.601562 14.667969 C 8.3125 14.242188 8.394531 13.675781 8.777344 13.347656 L 8.867188 13.277344 Z M 14.941406 9.171875 "/>
</clipPath>
</defs>
<g clip-path="url(#clip-0)">
<g clip-path="url(#clip-1)">
<path fill-rule="nonzero" fill="rgb(100%, 59.2%, 22.3%)" fill-opacity="1" d="M -0.5 1 L 21.5 1 L 21.5 19 L -0.5 19 Z M -0.5 1 "/>
</g>
</g>
<g clip-path="url(#clip-2)">
<g clip-path="url(#clip-3)">
<path fill-rule="nonzero" fill="rgb(100%, 59.2%, 22.3%)" fill-opacity="1" d="M 9.5 4 L 15.5 4 L 15.5 10 L 9.5 10 Z M 9.5 4 "/>
</g>
</g>
<g clip-path="url(#clip-4)">
<g clip-path="url(#clip-5)">
<path fill-rule="nonzero" fill="rgb(100%, 59.2%, 22.3%)" fill-opacity="1" d="M -0.589844 6.933594 L 14.03125 6.933594 L 14.03125 15.136719 L -0.589844 15.136719 Z M -0.589844 6.933594 "/>
</g>
</g>
<g clip-path="url(#clip-6)">
<g clip-path="url(#clip-7)">
<path fill-rule="nonzero" fill="rgb(100%, 59.2%, 22.3%)" fill-opacity="1" d="M 7.3125 7.945312 L 21.613281 7.945312 L 21.613281 16.222656 L 7.3125 16.222656 Z M 7.3125 7.945312 "/>
</g>
</g>
</svg>
