<svg width="14" height="14" viewBox="0 0 14 14" fill="none" xmlns="http://www.w3.org/2000/svg">
<path fill-rule="evenodd" clip-rule="evenodd" d="M4.2 0.0128174C4.55899 0.0128174 4.85486 0.283046 4.89529 0.631183L4.9 0.712817V1.4H9.1V0.712817C9.1 0.326218 9.4134 0.0128174 9.8 0.0128174C10.159 0.0128174 10.4549 0.283046 10.4953 0.631183L10.5 0.712817V1.4H11.9C13.0598 1.4 14 2.45772 14 3.7625V6.31282V11.6375C14 12.9423 13.0598 14 11.9 14H2.1C0.940202 14 0 12.9423 0 11.6375V3.7625C0 2.45772 0.940202 1.4 2.1 1.4H3.5V0.712817C3.5 0.326218 3.8134 0.0128174 4.2 0.0128174ZM12.6 5.61282V3.61666C12.6 3.19785 12.3298 2.85266 11.9816 2.80549L11.9 2.8H10.5V3.51282C10.5 3.89942 10.1866 4.21282 9.8 4.21282C9.44102 4.21282 9.14515 3.94259 9.10471 3.59445L9.1 3.51282V2.8H4.9V3.51282C4.9 3.89942 4.5866 4.21282 4.2 4.21282C3.84101 4.21282 3.54515 3.94259 3.50471 3.59445L3.5 3.51282V2.8H2.1C1.74101 2.8 1.44515 3.11526 1.40471 3.52142L1.4 3.61666L1.4 5.61282H12.6ZM1.4 7.01282L1.4 11.7833C1.4 12.2021 1.67023 12.5473 2.01837 12.5945L2.1 12.6H11.9C12.259 12.6 12.5549 12.2847 12.5953 11.8786L12.6 11.7833V7.01282H1.4Z" fill="black"/>
</svg>
