<?xml version="1.0" encoding="UTF-8"?>
<svg xmlns="http://www.w3.org/2000/svg" xmlns:xlink="http://www.w3.org/1999/xlink" width="14" height="15" viewBox="0 0 14 15">
<defs>
<clipPath id="clip-0">
<path clip-rule="nonzero" d="M 7.570312 0.5 C 7.835938 0.5 8.074219 0.667969 8.160156 0.894531 L 8.445312 1.75 C 8.496094 1.929688 8.613281 2.085938 8.78125 2.160156 L 8.855469 2.1875 L 9.46875 2.449219 C 9.617188 2.523438 9.8125 2.535156 9.972656 2.480469 L 10.050781 2.449219 L 10.8125 2.042969 C 11.050781 1.910156 11.3125 1.945312 11.492188 2.128906 L 11.542969 2.1875 L 12.332031 2.972656 C 12.515625 3.15625 12.582031 3.410156 12.484375 3.652344 L 12.449219 3.730469 L 12.039062 4.488281 C 11.953125 4.664062 11.953125 4.894531 12.039062 5.070312 C 12.15625 5.273438 12.214844 5.476562 12.300781 5.679688 C 12.378906 5.855469 12.496094 5.988281 12.65625 6.058594 L 12.742188 6.089844 L 13.558594 6.320312 C 13.800781 6.375 13.992188 6.597656 14 6.882812 L 13.996094 6.960938 L 13.996094 8.066406 C 13.996094 8.328125 13.832031 8.542969 13.605469 8.648438 L 13.53125 8.679688 L 12.710938 8.910156 C 12.507812 8.96875 12.332031 9.117188 12.273438 9.320312 L 12.011719 9.929688 C 11.933594 10.078125 11.925781 10.273438 11.976562 10.433594 L 12.011719 10.511719 L 12.417969 11.269531 C 12.523438 11.476562 12.511719 11.753906 12.363281 11.953125 L 12.300781 12.027344 L 11.511719 12.8125 C 11.328125 12.996094 11.074219 13.0625 10.832031 12.964844 L 10.753906 12.929688 L 9.992188 12.519531 C 9.820312 12.433594 9.585938 12.433594 9.410156 12.519531 C 9.308594 12.578125 9.203125 12.621094 9.101562 12.664062 L 8.796875 12.78125 C 8.621094 12.859375 8.488281 12.976562 8.417969 13.136719 L 8.386719 13.21875 L 8.152344 14.035156 C 8.101562 14.273438 7.878906 14.460938 7.617188 14.496094 L 7.539062 14.5 L 6.429688 14.5 C 6.164062 14.5 5.949219 14.335938 5.847656 14.109375 L 5.816406 14.035156 L 5.582031 13.21875 C 5.53125 13.042969 5.410156 12.886719 5.246094 12.808594 L 5.171875 12.78125 L 4.558594 12.519531 C 4.410156 12.445312 4.214844 12.433594 4.050781 12.488281 L 3.972656 12.519531 L 3.214844 12.929688 C 3.007812 13.03125 2.730469 13.019531 2.527344 12.875 L 2.453125 12.8125 L 1.664062 12.027344 C 1.480469 11.84375 1.414062 11.589844 1.511719 11.347656 L 1.550781 11.269531 L 1.988281 10.484375 C 2.074219 10.308594 2.074219 10.074219 1.988281 9.902344 C 1.871094 9.699219 1.8125 9.492188 1.722656 9.289062 C 1.648438 9.117188 1.53125 8.984375 1.371094 8.914062 L 1.285156 8.882812 L 0.46875 8.648438 C 0.226562 8.597656 0.0390625 8.375 0.00390625 8.117188 L 0 8.039062 L 0 6.933594 C 0 6.667969 0.167969 6.425781 0.398438 6.34375 L 0.46875 6.320312 L 1.257812 6.058594 C 1.460938 6 1.636719 5.855469 1.695312 5.652344 L 1.957031 5.039062 C 2.03125 4.890625 2.042969 4.699219 1.988281 4.535156 L 1.957031 4.457031 L 1.550781 3.703125 C 1.417969 3.464844 1.453125 3.207031 1.609375 3.007812 L 1.664062 2.945312 L 2.453125 2.160156 C 2.640625 1.976562 2.894531 1.910156 3.136719 2.003906 L 3.214844 2.042969 L 4.003906 2.480469 C 4.179688 2.566406 4.414062 2.566406 4.589844 2.480469 C 4.792969 2.363281 4.996094 2.304688 5.203125 2.21875 C 5.378906 2.140625 5.507812 2.023438 5.582031 1.863281 L 5.609375 1.78125 L 5.84375 0.964844 C 5.898438 0.726562 6.121094 0.539062 6.378906 0.503906 L 6.457031 0.5 Z M 7.027344 1.921875 L 6.957031 2.167969 C 6.777344 2.789062 6.332031 3.257812 5.75 3.503906 L 5.347656 3.664062 L 5.28125 3.695312 L 5.210938 3.730469 C 4.683594 3.996094 4.046875 4.015625 3.460938 3.765625 L 3.324219 3.703125 L 3.0625 3.558594 L 3.210938 3.832031 C 3.472656 4.355469 3.492188 4.992188 3.269531 5.535156 L 3 6.160156 L 2.996094 6.171875 C 2.785156 6.746094 2.328125 7.167969 1.816406 7.351562 L 1.699219 7.386719 L 1.445312 7.472656 L 1.667969 7.535156 C 2.246094 7.699219 2.6875 8.089844 2.949219 8.605469 L 3.011719 8.734375 L 3.082031 8.914062 L 3.15625 9.101562 L 3.191406 9.1875 L 3.238281 9.273438 C 3.503906 9.800781 3.523438 10.441406 3.273438 11.03125 L 3.210938 11.164062 L 3.066406 11.417969 L 3.347656 11.269531 C 3.875 11.007812 4.507812 10.984375 5.050781 11.207031 L 5.667969 11.472656 L 5.691406 11.480469 C 6.265625 11.6875 6.6875 12.148438 6.886719 12.703125 L 6.925781 12.832031 L 6.984375 13.03125 L 7.039062 12.832031 C 7.207031 12.257812 7.597656 11.816406 8.113281 11.554688 L 8.246094 11.496094 L 8.425781 11.421875 L 8.636719 11.339844 L 8.71875 11.304688 L 8.785156 11.269531 C 9.3125 11.003906 9.949219 10.984375 10.523438 11.226562 L 10.65625 11.285156 L 10.914062 11.425781 L 10.757812 11.140625 C 10.496094 10.613281 10.476562 9.980469 10.699219 9.4375 L 10.964844 8.816406 L 10.972656 8.796875 C 11.183594 8.222656 11.644531 7.804688 12.199219 7.605469 L 12.328125 7.566406 L 12.570312 7.496094 L 12.359375 7.433594 C 11.78125 7.273438 11.339844 6.882812 11.078125 6.367188 L 11.015625 6.234375 L 10.945312 6.058594 L 10.871094 5.867188 L 10.835938 5.78125 L 10.789062 5.695312 C 10.523438 5.167969 10.503906 4.527344 10.746094 3.953125 L 10.808594 3.820312 L 10.945312 3.570312 L 10.9375 3.5625 L 10.675781 3.703125 C 10.152344 3.964844 9.519531 3.984375 8.976562 3.765625 L 8.347656 3.496094 L 8.335938 3.492188 C 7.761719 3.28125 7.339844 2.824219 7.15625 2.316406 L 7.117188 2.195312 Z M 7.027344 1.921875 "/>
</clipPath>
<clipPath id="clip-1">
<path clip-rule="nonzero" d="M 1 1 L 13 1 L 13 14 L 1 14 Z M 1 1 "/>
</clipPath>
<clipPath id="clip-2">
<path clip-rule="nonzero" d="M 7 1.898438 C 10.09375 1.898438 12.601562 4.40625 12.601562 7.5 C 12.601562 10.59375 10.09375 13.101562 7 13.101562 C 3.90625 13.101562 1.398438 10.59375 1.398438 7.5 C 1.398438 4.40625 3.90625 1.898438 7 1.898438 Z M 7 3.300781 C 4.679688 3.300781 2.800781 5.179688 2.800781 7.5 C 2.800781 9.820312 4.679688 11.699219 7 11.699219 C 9.320312 11.699219 11.199219 9.820312 11.199219 7.5 C 11.199219 5.179688 9.320312 3.300781 7 3.300781 Z M 7 3.300781 "/>
</clipPath>
</defs>
<g clip-path="url(#clip-0)">
<rect x="-1.4" y="-1.5" width="16.8" height="18" fill="rgb(100%, 59.2%, 22.3%)" fill-opacity="1"/>
</g>
<g clip-path="url(#clip-1)">
<g clip-path="url(#clip-2)">
<path fill-rule="nonzero" fill="rgb(100%, 59.2%, 22.3%)" fill-opacity="1" d="M 0.398438 0.898438 L 13.601562 0.898438 L 13.601562 14.101562 L 0.398438 14.101562 Z M 0.398438 0.898438 "/>
</g>
</g>
</svg>
