<?xml version="1.0" encoding="UTF-8"?>
<svg xmlns="http://www.w3.org/2000/svg" xmlns:xlink="http://www.w3.org/1999/xlink" width="20" height="20" viewBox="0 0 20 20">
<defs>
<clipPath id="clip-0">
<path clip-rule="nonzero" d="M 5 8 L 8 8 L 8 11 L 5 11 Z M 5 8 "/>
</clipPath>
<clipPath id="clip-1">
<path clip-rule="evenodd" d="M 7.617188 9.523438 C 7.617188 10.050781 7.191406 10.476562 6.667969 10.476562 C 6.140625 10.476562 5.714844 10.050781 5.714844 9.523438 C 5.714844 8.996094 6.140625 8.570312 6.667969 8.570312 C 7.191406 8.570312 7.617188 8.996094 7.617188 9.523438 "/>
</clipPath>
<clipPath id="clip-2">
<path clip-rule="nonzero" d="M 9 8 L 12 8 L 12 11 L 9 11 Z M 9 8 "/>
</clipPath>
<clipPath id="clip-3">
<path clip-rule="evenodd" d="M 11.429688 9.523438 C 11.429688 10.050781 11.003906 10.476562 10.476562 10.476562 C 9.949219 10.476562 9.523438 10.050781 9.523438 9.523438 C 9.523438 8.996094 9.949219 8.570312 10.476562 8.570312 C 11.003906 8.570312 11.429688 8.996094 11.429688 9.523438 "/>
</clipPath>
<clipPath id="clip-4">
<path clip-rule="nonzero" d="M 13 8 L 16 8 L 16 11 L 13 11 Z M 13 8 "/>
</clipPath>
<clipPath id="clip-5">
<path clip-rule="evenodd" d="M 15.238281 9.523438 C 15.238281 10.050781 14.8125 10.476562 14.285156 10.476562 C 13.761719 10.476562 13.332031 10.050781 13.332031 9.523438 C 13.332031 8.996094 13.761719 8.570312 14.285156 8.570312 C 14.8125 8.570312 15.238281 8.996094 15.238281 9.523438 "/>
</clipPath>
<clipPath id="clip-6">
<path clip-rule="nonzero" d="M 9.359375 0.0195312 C 4.398438 0.328125 0.359375 4.34375 0.0234375 9.304688 C -0.367188 15.03125 4.089844 19.878906 9.78125 20 L 16.328125 20 L 16.445312 19.996094 C 17.390625 19.902344 17.792969 18.691406 17.039062 18.058594 L 16.496094 17.601562 L 16.355469 17.722656 C 18.648438 15.832031 20 13.027344 20 10 C 20 4.328125 15.292969 -0.199219 9.628906 0.0078125 Z M 18.09375 10 C 18.09375 12.453125 17 14.71875 15.144531 16.25 C 15.003906 16.367188 14.863281 16.476562 14.71875 16.578125 L 14.609375 16.667969 C 14.230469 17.007812 14.113281 17.535156 14.269531 17.988281 L 14.3125 18.09375 L 9.800781 18.09375 C 5.214844 17.996094 1.609375 14.074219 1.925781 9.433594 C 2.195312 5.425781 5.472656 2.171875 9.476562 1.921875 C 14.164062 1.628906 18.09375 5.335938 18.09375 10 Z M 18.09375 10 "/>
</clipPath>
</defs>
<g clip-path="url(#clip-0)">
<g clip-path="url(#clip-1)">
<path fill-rule="nonzero" fill="rgb(100%, 59.2%, 22.3%)" fill-opacity="1" d="M 4.714844 7.570312 L 8.617188 7.570312 L 8.617188 11.476562 L 4.714844 11.476562 Z M 4.714844 7.570312 "/>
</g>
</g>
<g clip-path="url(#clip-2)">
<g clip-path="url(#clip-3)">
<path fill-rule="nonzero" fill="rgb(100%, 59.2%, 22.3%)" fill-opacity="1" d="M 8.523438 7.570312 L 12.429688 7.570312 L 12.429688 11.476562 L 8.523438 11.476562 Z M 8.523438 7.570312 "/>
</g>
</g>
<g clip-path="url(#clip-4)">
<g clip-path="url(#clip-5)">
<path fill-rule="nonzero" fill="rgb(100%, 59.2%, 22.3%)" fill-opacity="1" d="M 12.332031 7.570312 L 16.238281 7.570312 L 16.238281 11.476562 L 12.332031 11.476562 Z M 12.332031 7.570312 "/>
</g>
</g>
<g clip-path="url(#clip-6)">
<rect x="-2" y="-2" width="24" height="24" fill="rgb(100%, 59.2%, 22.3%)" fill-opacity="1"/>
</g>
</svg>
