<?xml version="1.0" encoding="UTF-8"?>
<svg xmlns="http://www.w3.org/2000/svg" xmlns:xlink="http://www.w3.org/1999/xlink" width="350" height="350" viewBox="0 0 350 350">
<path fill-rule="evenodd" fill="rgb(100%, 100%, 100%)" fill-opacity="1" d="M 0 350.675781 L 350.339844 350.675781 L 350.339844 0 L 0 0 Z M 175.351562 23.3125 C 259.257812 23.3125 327.378906 91.433594 327.378906 175.339844 C 327.378906 259.242188 259.257812 327.363281 175.351562 327.363281 C 91.449219 327.363281 23.328125 259.242188 23.328125 175.339844 C 23.328125 91.433594 91.449219 23.3125 175.351562 23.3125 Z M 175.351562 23.3125 "/>
<path fill="none" stroke-width="0.35" stroke-linecap="round" stroke-linejoin="round" stroke="rgb(0%, 0%, 0%)" stroke-opacity="0.4133" stroke-miterlimit="10" d="M 175.296875 326.5 C 259.078125 326.5 327.097656 258.480469 327.097656 174.699219 C 327.097656 90.917969 259.078125 22.898438 175.296875 22.898438 C 91.519531 22.898438 23.5 90.917969 23.5 174.699219 C 23.5 258.480469 91.519531 326.5 175.296875 326.5 Z M 175.296875 326.5 " transform="matrix(1, 0, 0, -1, 0, 350)"/>
</svg>
