<?xml version="1.0" encoding="UTF-8"?>
<svg xmlns="http://www.w3.org/2000/svg" xmlns:xlink="http://www.w3.org/1999/xlink" width="20" height="20" viewBox="0 0 20 20">
<defs>
<clipPath id="clip-0">
<path clip-rule="evenodd" d="M 14 0.0195312 C 14.511719 0.0195312 14.933594 0.40625 14.992188 0.902344 L 15 1.019531 L 15 2 L 17 2 C 18.65625 2 20 3.511719 20 5.375 L 20 16.625 C 20 18.488281 18.65625 20 17 20 L 3 20 C 1.34375 20 0 18.488281 0 16.625 L 0 5.375 C 0 3.511719 1.34375 2 3 2 L 5 2 L 5 1.019531 C 5 0.464844 5.449219 0.0195312 6 0.0195312 C 6.511719 0.0195312 6.933594 0.40625 6.992188 0.902344 L 7 1.019531 L 7 2 L 13 2 L 13 1.019531 C 13 0.464844 13.449219 0.0195312 14 0.0195312 Z M 18 10.019531 L 2 10.019531 L 2 16.832031 C 2 17.433594 2.386719 17.925781 2.882812 17.992188 L 3 18 L 17 18 C 17.511719 18 17.933594 17.550781 17.992188 16.96875 L 18 16.832031 Z M 5 4 L 3 4 C 2.488281 4 2.066406 4.449219 2.007812 5.03125 L 2 5.167969 L 2 8.019531 L 18 8.015625 L 18 5.167969 C 18 4.570312 17.613281 4.074219 17.117188 4.007812 L 17 4 L 15 4 L 15 5.019531 C 15 5.570312 14.550781 6.019531 14 6.019531 C 13.488281 6.019531 13.066406 5.632812 13.007812 5.136719 L 13 5.019531 L 13 4 L 7 4 L 7 5.019531 C 7 5.570312 6.550781 6.019531 6 6.019531 C 5.488281 6.019531 5.066406 5.632812 5.007812 5.136719 L 5 5.019531 Z M 5 4 "/>
</clipPath>
</defs>
<g clip-path="url(#clip-0)">
<rect x="-2" y="-2" width="24" height="24" fill="rgb(43.920898%, 43.920898%, 43.920898%)" fill-opacity="1"/>
</g>
</svg>
